<svg xmlns="http://www.w3.org/2000/svg" xmlns:xlink="http://www.w3.org/1999/xlink" preserveAspectRatio="none" width="350" height="304" viewBox="0 0 350 304"><defs><filter id="sis01_02_9_3a" x="-20%" y="-20%" width="140%" height="140%" color-interpolation-filters="sRGB"><feColorMatrix in="SourceGraphic" values="1 0 0 0 0 0 1 0 0 0 0 0 1 0 0 0 0 0 0 0" result="result1"/></filter><path d="M349.35 303.15V0H0v303.15h349.35z" id="sis01_02_9_3b"/><g id="sis01_02_9_3c"><path fill="#D4D4D4" d="M238.1 42.55v70.05h70.05V42.55H238.1z"/><path fill="#99BEC4" d="M238.1 112.6v10.35h1.1-1.1v10.7h1.1-1.1v10.65h1.1-1.1v10.75h1.1-1.1v10.65h1.1-1.1v10.7h1.1-1.1v10.7h1.1-1.1v10.65h1.1-1.1v10.75h1.1-1.1q0 2.9-2 4.95-2.1 2.1-5.05 2.1-2.9 0-4.95-2.1-2.05-2.05-2.05-4.95h-.9.9v-10.75h-.9.9V187.1h-.9.9v-10.7h-.9.9v-10.7h-.9.9v-10.65h-.9.9v-7.45q0-1.65-.1-3.3h-.8.8q-.2-8.15-1.7-16h-4.45 4.45q-.95-5.4-2.55-10.7l-1.9.05 1.9-.05q-.75-2.55-1.6-5h-98.25q8.8.2 16.45 4.6.35.2.75.45h.6-.6q6.85 4.05 11.15 10.65v.05q.55.8 1.05 1.7 1 1.75 1.85 3.6h2.6-2.6q2.9 6.6 2.9 13.95v2.1h5-5v10.65h5-5v10.75h5-5v10.65h5-5v10.7h5-5v10.65h5-5v5.4q0 2.65.15 5.3H159h-4.85q.35 5.45 1.5 10.7H159h-3.35q1.1 5.45 3.1 10.7.015.04 0 .05.617 1.64 1.3 3.25l.9 2.1 3.4-.05-3.4.05q5.75 12.55 15.6 22.4 9.35 9.35 21.1 15l4.15-.05-4.15.05q1.65.8 3.4 1.55 5.6 2.35 11.4 3.8l5.35-.05-5.35.05q9.05 2.2 18.6 2.2t18.65-2.2l-5.15-.05 5.15.05q5.8-1.45 11.4-3.8 1.7-.75 3.4-1.55l-3.95-.05 3.95.05q11.75-5.65 21.05-15 9.85-9.85 15.65-22.4l-3.2-.05 3.2.05.9-2.1q2.85-6.8 4.4-14h-3.2 3.2q1.1-5.25 1.45-10.7h-4.65 4.65q.2-2.65.2-5.3v-5.4h-4.85 4.85v-10.65h-4.85 4.85v-10.7h-4.85 4.85V171.1h-4.85 4.85v-10.75h-4.85 4.85V149.7h-4.85 4.85V139h-4.85 4.85v-10.7h-4.85 4.85v-10.65h-4.85 4.85v-5.05H238.1m-25.65 10.35h5.35-5.35m-5.35-5.3h5.35-5.35m5.35 26.65h5.35-5.35m-5.35-5.3h5.35-5.35m5.35-5.35h5.35-5.35m-5.35-5.35h5.35-5.35m10.7 10.7h5.35-5.35m-26.7-16.05h5.35-5.35m5.35-5.3h5.35-5.35m-10.7 0h5.35-5.35m-21.4 0h5.35-5.35m5.35 5.3h5.35-5.35m5.35-5.3h5.35-5.35m-5.35 26.65h5.35-5.35m5.35-16h5.35-5.35m0 10.7h5.35-5.35m-10.7 0h5.35-5.35m5.35-5.35h5.35-5.35m-5.35-5.35h5.35-5.35m21.4 0h5.35-5.35m0 10.7h5.35-5.35m5.35 5.3h5.35-5.35m5.35-16h5.35-5.35m-5.35 5.35h5.35-5.35m5.35 5.35h5.35-5.35m-16.05 5.3h5.35-5.35m0-10.65h5.35-5.35m0-10.7h5.35-5.35m10.7 32.1h5.35-5.35m5.35-5.35h5.35-5.35m0 10.65h5.35-5.35m0 10.75h5.35-5.35m-5.35-5.4h5.35-5.35m-5.35 5.4h5.35-5.35m0-10.75h5.35-5.35m0-10.65h5.35-5.35m-10.7 10.65h5.35-5.35m0 10.75h5.35-5.35m0-21.4h5.35-5.35m-5.35 16h5.35-5.35m-5.35 5.4h5.35-5.35m5.35-16.05h5.35-5.35m-5.35 5.3h5.35-5.35m0-10.65h5.35-5.35m0 32.05h5.35-5.35m0 10.7h5.35-5.35m5.35-5.35h5.35-5.35m0 10.65h5.35-5.35m5.35-16h5.35-5.35m0 10.7h5.35-5.35m-5.35-16.05h5.35-5.35m16.05 16.05h5.35-5.35m0-10.7h5.35-5.35m5.35 16h5.35-5.35m0-10.65h5.35-5.35m5.35 5.35h5.35-5.35m0-10.7h5.35-5.35m-5.35-5.35h5.35-5.35m-10.7 21.35h5.35-5.35m0-10.65h5.35-5.35m0-10.7h5.35-5.35m0-10.7h5.35-5.35m0-10.65h5.35-5.35m26.7 16.05h5.35-5.35m5.35-5.4h5.35-5.35m-5.35-5.35h5.35-5.35m0-10.65h5.35-5.35m5.35 5.35h5.35-5.35m0 42.7h5.35-5.35m-5.35-5.3h5.35-5.35m5.35-5.35h5.35-5.35m-5.35-5.35h5.35-5.35m5.35-5.35h5.35-5.35m5.35 16.05h5.35-5.35m0-10.7h5.35-5.35m0-32.05h5.35-5.35m0 10.65h5.35-5.35m0 10.75h5.35-5.35m-16 26.65h5.3-5.3m0-10.65h5.3-5.3m0-10.7h5.3-5.3m0-21.35h5.3-5.3m0 10.65h5.3-5.3m0-21.4h5.3-5.3m0-10.65h5.3-5.3m0-10.7h5.3-5.3m96.2 0h5.3-5.3m-5.35-5.3H298h-5.35m-5.35 5.3h5.35-5.35m10.7 10.7h5.3-5.3m-5.35 5.35H298h-5.35m-5.35 5.3h5.35-5.35m5.35-16H298h-5.35m-5.35 5.35h5.35-5.35M298 144.3h5.3-5.3m-32.1-21.35h5.35-5.35m5.35-5.3h5.35-5.35m5.35 5.3h5.35-5.35m-21.35 0h5.3-5.3m-5.4-5.3h5.4-5.4m-5.3 5.3h5.3-5.3m0 10.7h5.3-5.3m0 10.65h5.3-5.3m10.7 0h5.3-5.3m-5.4-16h5.4-5.4m5.4 5.35h5.3-5.3m-5.4 5.35h5.4-5.4m26.75-5.35h5.35-5.35m-10.7 10.65h5.35-5.35m10.7 0h5.35-5.35m-5.35-16h5.35-5.35m-5.35 5.35h5.35-5.35m5.35 5.35h5.35-5.35m-10.7-21.35h5.35-5.35m0 10.65h5.35-5.35m0 10.7h5.35-5.35m5.35 16.05h5.35-5.35m5.35 5.3h5.35-5.35m0-10.65h5.35-5.35m-5.35 16h5.35-5.35m5.35 5.4h5.35-5.35m5.35-5.4h5.35-5.35m0-10.65h5.35-5.35m-32.05 10.65h5.3-5.3m0-10.65h5.3-5.3m10.7 10.65h5.3-5.3m-5.4 5.4h5.4-5.4m0-21.4h5.4-5.4m5.4 5.35h5.3-5.3m-5.4 5.3h5.4-5.4m-5.3 26.75h5.3-5.3m0 10.65h5.3-5.3m10.7 0h5.3-5.3m-5.4-5.3h5.4-5.4m5.4-5.35h5.3-5.3m-5.4-5.35h5.4-5.4m-5.3-5.35h5.3-5.3m10.7 0h5.3-5.3m21.35 21.35h5.35-5.35m0-10.65h5.35-5.35m-10.7 10.65h5.35-5.35m0-10.65h5.35-5.35m5.35 5.35h5.35-5.35m0-10.7h5.35-5.35m5.35-5.35h5.35-5.35m-10.7 0h5.35-5.35m-5.35 16.05h5.35-5.35m0-10.7h5.35-5.35m0-32.05h5.35-5.35m0 10.65h5.35-5.35m0 10.75h5.35-5.35M298 155.05h5.3-5.3m-10.7 0h5.35-5.35m5.35 5.3H298h-5.35m0-10.65H298h-5.35m0 21.4H298h-5.35m5.35-5.4h5.3-5.3m-10.7 0h5.35-5.35m0 32.05h5.35-5.35m0-10.65h5.35-5.35m0-10.7h5.35-5.35m10.7 21.35h5.3-5.3m-5.35-5.3H298h-5.35m5.35-5.35h5.3-5.3m-5.35-5.35H298h-5.35m5.35-5.35h5.3-5.3m-16.05 16.05h5.35-5.35m0-10.7h5.35-5.35m0-10.65h5.35-5.35m0-10.75h5.35-5.35m0-10.65h5.35-5.35m0-21.4h5.35-5.35m0 10.7h5.35-5.35m0-21.35h5.35-5.35m-42.75 74.8h5.35-5.35m0-10.7h5.35-5.35m0-10.65h5.35-5.35m0-21.4h5.35-5.35m0 10.65h5.35-5.35m0-21.35h5.35-5.35m0-10.7h5.35-5.35m0-10.65h5.35-5.35m-90.9 5.3h5.4-5.4m5.4-5.3h5.3-5.3m-10.7 0h5.3-5.3M153.7 139h5.3-5.3m0-10.7h5.3-5.3m133.6 90.85h5.35-5.35m0-10.65h5.35-5.35m5.35-5.4H298h-5.35m5.35 5.4h5.3-5.3m0 10.65h5.3-5.3m-5.35-5.35H298h-5.35m-5.35 26.75h5.35-5.35m0-10.65h5.35-5.35m5.35 16H298h-5.35m0-10.7H298h-5.35m5.35-5.3h5.3-5.3m-5.35-5.4H298h-5.35m-21.4-10.7h5.35-5.35m0-10.7h5.35-5.35m-5.35 5.4h5.35-5.35m10.7 0h5.35-5.35m-10.7 10.65h5.35-5.35m10.7 0h5.35-5.35m-32.05-10.65h5.3-5.3m10.7 10.65h5.3-5.3m-10.7 0h5.3-5.3m10.7-10.65h5.3-5.3m-5.4-5.4h5.4-5.4m0 10.7h5.4-5.4m-5.3 26.75h5.3-5.3m0-10.65h5.3-5.3m5.3 16h5.4-5.4m5.4-5.35h5.3-5.3m-5.4-5.35h5.4-5.4m0-10.7h5.4-5.4m5.4 5.4h5.3-5.3m21.35 10.65h5.35-5.35m0-10.65h5.35-5.35m-10.7 10.65h5.35-5.35m5.35 5.35h5.35-5.35m0-10.7h5.35-5.35m0-10.7h5.35-5.35m-5.35 5.4h5.35-5.35m-5.35 16h5.35-5.35m0-10.7h5.35-5.35m0-10.7h5.35-5.35m0-21.4h5.35-5.35m0 10.7h5.35-5.35m5.35 37.45h5.35-5.35m0 10.65h5.35-5.35m5.35-5.35h5.35-5.35m0 10.75h5.35-5.35m5.35-16.05h5.35-5.35m0 10.65h5.35-5.35m-26.75-5.35h5.4-5.4m-5.3-5.3h5.3-5.3m0 10.65h5.3-5.3m10.7 0h5.3-5.3m-5.4 5.4h5.4-5.4m5.4-16.05h5.3-5.3m-10.7 21.35h5.3-5.3m5.3 5.35h5.4-5.4m5.4-5.35h5.3-5.3m10.65 0h5.35-5.35m-5.35-16.05h5.35-5.35m0 10.75h5.35-5.35m26.75-16.05h5.35-5.35m-5.35 5.3h5.35-5.35m0-10.65h5.35-5.35m0-10.7h5.35-5.35m0-10.7h5.35-5.35m0-21.4h5.35-5.35m0 10.7h5.35-5.35m-48.1 5.35h5.35-5.35m-10.7 0h5.35-5.35m-10.7 0h5.35-5.35m-5.35-5.35h5.35-5.35m5.35-5.3h5.35-5.35m-5.35-5.4h5.35-5.35m0 32.1h5.35-5.35m5.35 5.35h5.35-5.35m-5.35 5.35h5.35-5.35m5.35-16h5.35-5.35m-5.35-5.4h5.35-5.35m21.4 21.4h5.35-5.35m0-10.7h5.35-5.35m0-10.7h5.35-5.35m-5.35 16.05h5.35-5.35m0-10.65h5.35-5.35m10.7 10.65h5.35-5.35m0-10.65h5.35-5.35m-16.05-5.4h5.35-5.35m0 10.7h5.35-5.35m0 10.7h5.35-5.35m0-42.8h5.35-5.35m0 10.7h5.35-5.35m-21.35-10.7h5.35-5.35m-5.35 5.4h5.35-5.35m5.35 5.3h5.35-5.35m-10.7-10.7h5.35-5.35m0 10.7h5.35-5.35m5.35 5.35h5.35-5.35m-21.4 0h5.35-5.35m5.35-16.05h5.35-5.35m0 10.7h5.35-5.35m-10.7-10.7h5.35-5.35m0 10.7h5.35-5.35m5.35-5.3h5.35-5.35m5.35 16h5.35-5.35m0 10.7h5.35-5.35m0 10.7h5.35-5.35m-10.7-10.7h5.35-5.35m0 10.7h5.35-5.35m5.35-5.35h5.35-5.35m0-10.65h5.35-5.35m-5.35-5.4h5.35-5.35m32.1 10.7h5.35-5.35m-10.7 10.7h5.35-5.35m0-10.7h5.35-5.35m0-10.7h5.35-5.35m5.35 16.05h5.35-5.35m5.35 5.35h5.35-5.35m-5.35-16h5.35-5.35m5.35-5.4h5.35-5.35m-16.05 16.05h5.35-5.35m0-21.4h5.35-5.35m0 10.75h5.35-5.35m0-21.4h5.35-5.35m10.7 42.75h5.35-5.35m5.35 16.05h5.35-5.35m-5.35-5.4h5.35-5.35m5.35-5.35h5.35-5.35m-10.7 0h5.35-5.35m0 10.75h5.35-5.35m-16.05-16.05h5.35-5.35m5.35 5.3h5.35-5.35m16.05 16.05h5.35-5.35m-10.7-21.35h5.35-5.35m0 10.65h5.35-5.35m53.45-10.65h5.35-5.35m0 10.65h5.35-5.35m-10.7-10.65h5.35-5.35m0 10.65h5.35-5.35m5.35 5.4h5.35-5.35m0-10.75h5.35-5.35m-21.4 10.75h5.35-5.35m0-10.75h5.35-5.35m5.35-5.3h5.35-5.35m0 10.65h5.35-5.35m0 10.7h5.35-5.35m-5.35 5.35h5.35-5.35m21.4 0h5.35-5.35m-5.35 5.35h5.35-5.35m0-10.7h5.35-5.35m10.7 0h5.35-5.35m0 10.7h5.35-5.35m-16.05-26.75h5.35-5.35m0 10.75h5.35-5.35m0 10.65h5.35-5.35m-16-5.35h5.3-5.3m0-10.7h5.3-5.3m0-10.65h5.3-5.3m0-10.7h5.3-5.3m0-10.65h5.3-5.3m0-10.75h5.3-5.3m0-10.65h5.3-5.3m37.4 69.45h5.35-5.35m0-21.4h5.35-5.35m0 10.75h5.35-5.35m0-21.4h5.35-5.35m0-10.7h5.35-5.35m0-10.7h5.35-5.35m0-21.4h5.35-5.35m0 10.7h5.35-5.35M159 229.9h5.35H159m0-10.75h5.35H159m0-32.05h5.35H159m0 10.65h5.35H159m0 10.75h5.35H159m0-64.2h5.35H159m0 10.75h5.35H159m0 10.65h5.35H159m0 10.7h5.35H159m0-53.45h5.35H159m0 10.7h5.35H159z"/><path fill="#EDF3D4" d="M209.8 94.85Q195.55 70.4 171 56.4q-24.55-14.05-52.85-13.85-28.3.25-52.6 14.6L24.7 81.3l35.65 60.3 40.8-24.1q8.1-4.85 17.55-4.9h99.4q-3.3-9.1-8.3-17.75z"/></g><path fill="#437695" d="M185.75 446.85l10.95 15.65-31.8 22.25L186.8 516l31.75-22.25 11 15.6 9.9-53.5-53.7-9z" id="sis01_02_9_3e"/><path fill="#00B0F0" d="M674.05 310.75h28.9l-57.8-58.8-57.8 58.8h28.9v58.8h57.8v-58.8z" id="sis01_02_9_3f"/><path fill="#EDF3D4" d="M637.15 527.6q-5.6-5.25-13.4-5.25-7.85 0-13.4 5.25-5.55 5.3-5.55 12.7 0 7.45 5.55 12.7 5.55 5.25 13.4 5.25 7.8 0 13.4-5.25 5.55-5.3 5.55-12.7 0-7.4-5.55-12.7z" id="sis01_02_9_3g"/><path fill="#373535" d="M623.8 520.2h-.1q-2.22.026-4.3.4-.842.168-1.35.9-.341.485-.4 1-.312-.402-.85-.65-.812-.3-1.65.05-1.947.838-3.75 2.1-.709.537-.85 1.4-.141.862.35 1.55.537.749 1.4.9.872.141 1.6-.4 1.397-.988 2.9-1.65.838-.342 1.15-1.15.152-.318.15-.65.222.258.5.45.718.505 1.55.35 1.72-.316 3.55-.35h.1q1.693.032 3.25.3.862.141 1.55-.4.398-.238.6-.6.012.44.2.85.34.838 1.15 1.15 1.626.686 3.05 1.7.756.504 1.6.35.272-.047.5-.15-.067.231-.1.45-.002.903.6 1.55 1.304 1.396 2.25 2.9.455.77 1.3.95.334.102.65.05-.234.258-.4.55-.399.811-.15 1.65.547 1.612.65 3.4.1.873.75 1.45.4.331.85.45-.482.089-.9.4-.713.514-.85 1.35-.266 1.778-.95 3.4-.3.812.05 1.6.123.32.3.55-.309-.05-.65 0-.869.124-1.4.8-.9 1.242-2.05 2.3v.05q-.088.085-.2.15-.676.532-.8 1.4-.056.38 0 .7-.211-.086-.5-.15-.832-.221-1.6.2-1.549.952-3.3 1.5-.805.309-1.2 1.1-.167.33-.25.65-.152-.282-.45-.55-.676-.547-1.55-.5-1.002.12-2.05.1-.737.023-1.5-.05-.844-.031-1.5.55-.308.274-.5.6-.04-.378-.25-.75-.433-.765-1.3-1-1.688-.486-3.25-1.35-.758-.386-1.6-.15-.363.133-.65.3.1-.311.05-.7-.037-.872-.7-1.45l-.8-.7q-.93-.85-1.65-1.85-.516-.674-1.4-.8-.311-.05-.65 0 .194-.235.3-.55.299-.802-.1-1.6-.721-1.575-1.1-3.35-.146-.836-.9-1.35-.454-.288-1-.35.544-.082.95-.5.68-.573.7-1.45.105-1.834.55-3.45.285-.831-.15-1.6-.16-.334-.45-.6.37.05.7-.05.869-.251 1.3-1.05.836-1.463 2-2.8.618-.643.55-1.55-.02-.843-.7-1.45-.64-.568-1.55-.55-.843.073-1.45.7-1.486 1.713-2.55 3.6-.435.79-.2 1.6.18.637.65 1-.598-.02-1.15.25-.773.451-1.05 1.3-.605 2.084-.75 4.45-.017.876.55 1.5.613.67 1.45.7-.835.195-1.35.9-.455.763-.3 1.6.471 2.275 1.4 4.3.403.799 1.2 1.1.559.194 1.05.1-.267.402-.35.9-.128.901.4 1.6.97 1.336 2.2 2.45l.05.05.8.7q.671.582 1.55.5.626-.018 1.1-.4-.164.596 0 1.2.267.847 1 1.25 1.988 1.086 4.15 1.7.877.235 1.65-.2.56-.317.8-.85.113.608.55 1.1.59.664 1.45.7.887.077 1.75.05 1.252.03 2.45-.1.865-.064 1.4-.75.432-.481.5-1.05.32.511.9.8.79.399 1.6.1 2.199-.702 4.15-1.9.743-.427.95-1.3.127-.467 0-.95.358.195.75.25.868.126 1.55-.4.325-.226.6-.55h.05q1.36-1.306 2.45-2.8.526-.683.4-1.55-.086-.606-.45-1.05.587.104 1.15-.15.838-.34 1.15-1.15.865-2.078 1.2-4.35.127-.84-.4-1.55-.443-.612-1.15-.8.745-.118 1.25-.7.582-.67.5-1.55-.147-2.313-.85-4.4-.244-.84-1.05-1.25-.538-.286-1.15-.25.469-.385.6-1 .22-.862-.25-1.65-1.154-1.846-2.75-3.55-.602-.644-1.5-.7-.465.01-.9.2.137-.446.05-.95-.155-.84-.9-1.35-1.826-1.286-3.9-2.15-.812-.3-1.65.05-.625.272-1 .85.048-.69-.4-1.3-.487-.697-1.35-.85-1.892-.323-3.95-.35z" id="sis01_02_9_3h"/><path fill="#EDF3D4" d="M667.75 519.2q-5.55-5.25-13.4-5.25-7.8 0-13.35 5.25t-5.55 12.65q0 7.4 5.55 12.7 5.55 5.25 13.35 5.25 7.85 0 13.4-5.25 5.55-5.25 5.55-12.7 0-7.4-5.55-12.65z" id="sis01_02_9_3i"/><path fill="#373535" d="M641.4 518.75q-.646-.603-1.55-.6-.847.056-1.45.7-1.58 1.699-2.65 3.6-.435.79-.2 1.6.167.59.55.95-.56-.01-1.1.3-.766.446-1 1.3-.562 2.063-.7 4.35-.017.872.55 1.5.62.68 1.5.7.873.068 1.5-.55.679-.57.7-1.45.112-1.813.55-3.45.234-.841-.2-1.6-.155-.266-.35-.5.302.04.6-.05.869-.251 1.3-1.05.83-1.45 2.05-2.75.601-.647.55-1.55-.005-.85-.65-1.45m13-6.95h-.1q-2.22.026-4.3.4-.842.168-1.35.9-.337.48-.4 1-.301-.369-.8-.6-.812-.3-1.65.05-1.947.838-3.75 2.1-.709.537-.85 1.4-.141.862.35 1.55.537.749 1.4.9.872.141 1.6-.4 1.397-.988 2.9-1.65.838-.342 1.15-1.15.15-.314.15-.65.206.231.45.4.718.505 1.55.35 1.72-.316 3.55-.35h.1q1.446.03 2.8.25.876.14 1.6-.4.288-.183.45-.45.074.328.2.65.4.797 1.2 1.1 1.701.61 3.2 1.55.743.506 1.6.3.223-.023.4-.1-.029.222-.05.45.04.904.65 1.5 1.352 1.312 2.3 2.75.515.753 1.35.9.416.107.75.05-.245.26-.45.6-.35.821-.05 1.65.559 1.61.7 3.35.116.88.8 1.45.437.36.95.45-.51.08-.95.4-.693.573-.8 1.45-.223 1.807-.9 3.4-.3.812.05 1.6.117.304.3.5-.273.004-.55.05-.863.154-1.4.85-.968 1.417-2.3 2.65v.05l-.3.3q-.624.62-.65 1.5.025.25.05.45-.182-.082-.45-.15-.825-.235-1.6.2-1.573.894-3.35 1.45-.805.309-1.2 1.1-.137.271-.2.55-.177-.264-.45-.5-.7-.512-1.6-.4-1.04.13-2.15.1-.625.022-1.25-.05-.879-.032-1.55.55-.283.246-.45.55-.072-.334-.25-.65-.433-.765-1.3-1-1.704-.485-3.3-1.35-.784-.385-1.65-.15-.312.127-.6.3.091-.316.05-.7-.094-.847-.8-1.4-.383-.33-.75-.7-.013-.021-.05-.05-.913-.88-1.7-1.85-.51-.69-1.4-.8-.286-.04-.6 0 .194-.233.3-.55.299-.802-.1-1.6-.721-1.572-1.1-3.3-.147-.837-.9-1.35-.713-.457-1.6-.3-.837.196-1.35.9-.456.764-.3 1.6.471 2.222 1.4 4.25.403.799 1.2 1.1.556.192 1.05.1-.281.424-.35.95-.113.896.4 1.6.963 1.23 2.1 2.35v-.05q.533.53 1.1 1 .71.548 1.55.45.593-.06 1-.4-.1.564.05 1.1.28.861 1.05 1.25 2.004 1.085 4.15 1.7.877.235 1.65-.2.53-.3.8-.8.108.549.5 1 .576.663 1.45.7.775.078 1.55.05 1.39.02 2.7-.15.89-.108 1.4-.8.346-.418.4-.9.335.444.85.7.79.399 1.6.1 2.173-.694 4.1-1.8.763-.433 1-1.3.15-.521 0-1.05.485.274 1.05.25.879.024 1.5-.6.137-.138.25-.3h.05q1.578-1.53 2.75-3.25.54-.69.4-1.55-.099-.563-.45-1 .517.07 1-.15.838-.34 1.15-1.15.873-2.107 1.15-4.5.112-.862-.45-1.55-.495-.656-1.3-.8.813-.103 1.35-.75.56-.678.45-1.55-.21-2.26-.95-4.35-.288-.836-1.1-1.25-.598-.269-1.25-.15.49-.446.6-1.15.206-.836-.3-1.6-1.202-1.812-2.9-3.45-.604-.587-1.5-.6-.437.033-.85.2.125-.427 0-.9-.162-.85-.9-1.35-1.9-1.21-4.05-2-.8-.3-1.6.05-.522.27-.85.7-.039-.528-.4-1-.488-.711-1.35-.85-1.694-.271-3.5-.3z" id="sis01_02_9_3j"/><path fill="#EDF3D4" d="M654.9 487.95q0-7.4-5.55-12.7-5.6-5.25-13.4-5.25-7.85 0-13.4 5.25-5.55 5.3-5.55 12.7 0 7.4 5.55 12.65t13.4 5.25q7.8 0 13.4-5.25 5.55-5.25 5.55-12.65z" id="sis01_02_9_3k"/><path fill="#373535" d="M630.05 468.6q-.837.22-1.3.95-.27.53-.3 1.05-.347-.361-.9-.55-.842-.236-1.65.15-1.895 1.07-3.65 2.5-.67.556-.75 1.4-.099.907.45 1.6.555.671 1.4.75.905.097 1.6-.45 1.445-1.17 3-2.05.783-.403 1-1.25.115-.287.1-.6.22.228.45.35.792.472 1.65.25 1.683-.441 3.5-.55.88-.021 1.45-.7.618-.627.55-1.5-.02-.88-.7-1.5-.628-.567-1.5-.55-2.283.14-4.4.7m20.8 5.15l-.1-.1q-1.573-1.512-3.4-2.65-.754-.421-1.6-.2-.539.128-.95.45.067-.51-.2-1.05-.364-.762-1.2-1.05-2.03-.718-4.25-1.05-.84-.127-1.55.4-.713.516-.85 1.35-.128.891.4 1.6.514.713 1.35.85 1.83.267 3.5.85.829.3 1.6-.1.309-.115.5-.35.018.337.1.65.206.86.95 1.3 1.429.885 2.65 2.05l.1.1q1.162 1.126 2.05 2.3.531.726 1.4.85.365.054.7 0-.23.252-.4.6-.3.81.05 1.6.646 1.585.9 3.25.137.883.85 1.4.574.428 1.25.4-.682.07-1.25.55-.65.577-.75 1.45-.103 1.787-.65 3.4-.249.838.15 1.6.15.312.35.5-.313.012-.65.1-.86.206-1.35.95-.86 1.466-2.1 2.8-.601.646-.6 1.5.036.354.1.65-.253-.162-.6-.25-.865-.142-1.6.35-1.518 1.028-3.15 1.7-.787.34-1.15 1.15-.106.327-.15.65-.178-.265-.5-.5-.688-.491-1.55-.35-1.582.273-3.3.25-.879.026-1.5.65-.312.31-.5.65-.047-.374-.3-.75-.49-.718-1.35-.9-1.86-.336-3.5-1.05-.81-.35-1.65-.05-.3.152-.55.35.05-.31 0-.65-.124-.868-.85-1.4-.885-.682-1.75-1.5-.026-.022-.05-.05-.345-.305-.65-.65-.594-.664-1.5-.75-.502-.002-.95.2.275-.326.4-.8.235-.825-.2-1.6-.871-1.525-1.35-3.25-.236-.817-1-1.25-.354-.2-.75-.25.307-.156.55-.4.624-.621.6-1.5.025-.4 0-.8.03-1.494.3-2.9.155-.867-.35-1.6-.19-.279-.45-.5.343.007.65-.15.842-.284 1.2-1.1.696-1.54 1.8-3 .563-.676.45-1.55-.106-.875-.8-1.45-.686-.512-1.55-.4-.875.096-1.45.75-1.446 1.89-2.35 3.9-.35.846-.05 1.65.245.589.7.9-.585.054-1.1.4-.731.493-.9 1.35-.33 1.794-.35 3.7.025.4 0 .8.026.879.65 1.5.504.506 1.15.6-.527.278-.85.85-.435.773-.2 1.6.62 2.225 1.75 4.2.433.763 1.25 1 .79.21 1.5-.15-.476.555-.55 1.25-.03.894.55 1.55.471.529 1 1 .024.027.05.05 1.012.953 2.05 1.75.732.526 1.6.4.607-.086 1.05-.45-.101.559.1 1.1.348.844 1.15 1.2 2.06.898 4.4 1.35.865.155 1.6-.35.539-.369.75-.95.126.628.6 1.1.621.624 1.5.6 2.082.027 4-.3.863-.153 1.35-.9.39-.48.4-1.05.366.482.95.7.81.35 1.6 0 2.018-.828 3.9-2.1.718-.493.85-1.35.137-.578-.05-1.1.507.295 1.1.25.897-.006 1.5-.65 1.56-1.666 2.65-3.5.471-.754.25-1.6-.136-.574-.55-1 .618.083 1.15-.2.806-.41 1.05-1.25.703-2.087.85-4.4.082-.867-.5-1.55-.576-.651-1.45-.75-.086.02-.2 0 .126.015.2 0 .885-.137 1.4-.85.527-.708.4-1.6-.346-2.185-1.2-4.25-.34-.787-1.15-1.15-.605-.218-1.2-.1.407-.446.5-1.1.126-.867-.4-1.6-1.082-1.435-2.5-2.8z" id="sis01_02_9_3l"/><path fill="#FEFFFA" d="M629.05 443q-1.95-1.95-4.75-1.95t-4.8 1.95q-1.95 2-1.95 4.8t1.95 4.75q2 2 4.8 2t4.75-2q2-1.95 2-4.75t-2-4.8z" id="sis01_02_9_3m"/><path fill="#FEFFFA" d="M629.05 443q-1.95-1.95-4.75-1.95t-4.8 1.95q-1.95 2-1.95 4.8t1.95 4.75q2 2 4.8 2t4.75-2q2-1.95 2-4.75t-2-4.8z" id="sis01_02_9_3n"/><path fill="#FEFFFA" d="M629.05 443q-1.95-1.95-4.75-1.95t-4.8 1.95q-1.95 2-1.95 4.8t1.95 4.75q2 2 4.8 2t4.75-2q2-1.95 2-4.75t-2-4.8z" id="sis01_02_9_3o"/><path id="sis01_02_9_3d" stroke="#292929" stroke-width="2" stroke-linejoin="bevel" fill="none" d="M119.85 112.6h-1.15q-9.45.05-17.55 4.9l-40.8 24.1L24.7 81.3l40.85-24.15q24.3-14.35 52.6-14.6 28.3-.2 52.85 13.85 24.55 14 38.8 38.45 5 8.65 8.3 17.75.85 2.45 1.6 5 1.6 5.3 2.55 10.7 1.5 7.85 1.7 16 .1 1.65.1 3.3v60.9q0 2.9 2.05 4.95 2.05 2.1 4.95 2.1 2.95 0 5.05-2.1 2-2.05 2-4.95V42.55h70.05V208.5q0 2.65-.2 5.3-.35 5.45-1.45 10.7-1.55 7.2-4.4 14l-.9 2.1q-5.8 12.55-15.65 22.4-9.3 9.35-21.05 15-1.7.8-3.4 1.55-5.6 2.35-11.4 3.8-9.1 2.2-18.65 2.2-9.55 0-18.6-2.2-5.8-1.45-11.4-3.8-1.75-.75-3.4-1.55-11.75-5.65-21.1-15-9.85-9.85-15.6-22.4l-.9-2.1q-.683-1.61-1.275-3.225-.01-.035-.025-.075-2-5.25-3.1-10.7-1.15-5.25-1.5-10.7-.15-2.65-.15-5.3v-60.9q0-7.35-2.9-13.95-.85-1.85-1.85-3.6-.5-.9-1.05-1.7v-.05q-4.3-6.6-11.15-10.65-.4-.25-.75-.45-7.65-4.4-16.45-4.6h98.25m20 10.35h1.1m-26.75 0h5.35m-10.7-5.3h5.35m5.35 0l1.9-.05m-1.9 10.7h4.45m-9.8 16h5.35m-10.7-5.3h5.35m0-5.35h5.35m-10.7-5.35h5.35m10.7 16h.8m14.15 0h1.1m-1.1-10.65h1.1M217.8 139h5.35m-32.05-16.05h5.35m0-5.3h5.35m-16.05 0h5.35m-26.75 0h5.35m0 5.3h5.35m0-5.3h5.35m-10.7 26.65h5.35m0-16h5.35m-5.35 10.7h5.35m-16.05 0h5.35m0-5.35h5.35m-10.7-5.35h5.35m16.05 0h5.35m-5.35 10.7h5.35m0 5.3h5.35m0-16h5.35m-10.7 5.35h5.35m0 5.35h5.35m-21.4 5.3h5.35m-5.35-10.65h5.35m-5.35-10.7h5.35m5.35 32.1h5.35m0-5.35h5.35m-5.35 10.65h5.35m-5.35 10.75h5.35m-10.7-5.4h5.35m-10.7 5.4h5.35m-5.35-10.75h5.35m-5.35-10.65h5.35m-16.05 10.65h5.35m-5.35 10.75h5.35m-5.35-21.4h5.35m-10.7 16h5.35m-10.7 5.4h5.35m0-16.05h5.35m-10.7 5.3h5.35m-5.35-10.65h5.35m-5.35 32.05h5.35m-5.35 10.7h5.35m0-5.35h5.35m-5.35 10.65h5.35m0-16h5.35m-5.35 10.7h5.35m-10.7-16.05h5.35m10.7 16.05h5.35m-5.35-10.7h5.35m0 16h5.35m-5.35-10.65h5.35m0 5.35h5.35m-5.35-10.7h5.35m-10.7-5.35h5.35m-16.05 21.35h5.35m-5.35-10.65h5.35m-5.35-10.7h5.35m-5.35-10.7h5.35m-5.35-10.65h5.35m52.35 0h1.1m-1.1 10.65h1.1m-16.05-10.65h.9m-.9 10.65h.9m-16.95 5.4h5.35m0-5.4h5.35m-10.7-5.35h5.35m-5.35-10.65h5.35m0 5.35h5.35m-5.35 42.7h5.35m-10.7-5.3h5.35m0-5.35h5.35m-10.7-5.35h5.35m0-5.35h5.35m20.3 0h1.1m-16.05 0h.9m-.9 21.35h.9m-.9-10.65h.9m14.05 10.65h1.1m-1.1-10.65h1.1m-21.4 5.35h5.35m-5.35-10.7h5.35m-5.35-32.05h5.35m-5.35 10.65h5.35m-5.35 10.75h5.35m-21.35 26.65h5.3m-5.3-10.65h5.3m-5.3-10.7h5.3m-5.3-21.35h5.3m-5.3 10.65h5.3m-5.3-21.4h5.3m-5.3-10.65h5.3m-5.3-10.7h5.3m90.9 0h5.3m-10.65-5.3H298m-10.7 5.3h5.35m5.35 10.7h5.3M292.65 139H298m-10.7 5.3h5.35m0-16H298m-10.7 5.35h5.35M298 144.3h5.3m0-5.3h4.85m-4.85-10.7h4.85m-4.85-10.65h4.85m-42.25 5.3h5.35m0-5.3h5.35m0 5.3h5.35m-26.7 0h5.3m-10.7-5.3h5.4m-10.7 5.3h5.3m-5.3 10.7h5.3m-5.3 10.65h5.3m5.4 0h5.3m-10.7-16h5.4m0 5.35h5.3m-10.7 5.35h5.4m21.35-5.35h5.35M265.9 144.3h5.35m5.35 0h5.35m-10.7-16h5.35m-10.7 5.35h5.35m0 5.35h5.35m-16.05-21.35h5.35m-5.35 10.65h5.35m-5.35 10.7h5.35m0 16.05h5.35m0 5.3h5.35m-5.35-10.65h5.35m-10.7 16h5.35m0 5.4h5.35m0-5.4h5.35m-5.35-10.65h5.35m-37.4 10.65h5.3m-5.3-10.65h5.3m5.4 10.65h5.3m-10.7 5.4h5.4m-5.4-21.4h5.4m0 5.35h5.3m-10.7 5.3h5.4m-10.7 26.75h5.3m-5.3 10.65h5.3m5.4 0h5.3m-10.7-5.3h5.4m0-5.35h5.3m-10.7-5.35h5.4m-10.7-5.35h5.3m5.4 0h5.3m16.05 21.35h5.35m-5.35-10.65h5.35m-16.05 10.65h5.35m-5.35-10.65h5.35m0 5.35h5.35m-5.35-10.7h5.35m0-5.35h5.35m-16.05 0h5.35m-10.7 16.05h5.35m-5.35-10.7h5.35m-5.35-32.05h5.35m-5.35 10.65h5.35m-5.35 10.75h5.35m32.1-16.05h5.3m-16 0h5.35m0 5.3H298m-5.35-10.65H298m-5.35 21.4H298m0-5.4h5.3m-16 0h5.35m-5.35 32.05h5.35m-5.35-10.65h5.35m-5.35-10.7h5.35m5.35 21.35h5.3m-10.65-5.3H298m0-5.35h5.3m-10.65-5.35H298m0-5.35h5.3m0 16.05h4.85m-4.85-10.7h4.85m-4.85-21.4h4.85m-4.85-10.65h4.85m-4.85 21.4h4.85m-26.2 21.35h5.35m-5.35-10.7h5.35m-5.35-10.65h5.35m-5.35-10.75h5.35m-5.35-10.65h5.35m-5.35-21.4h5.35m-5.35 10.7h5.35m-5.35-21.35h5.35m-48.1 74.8h5.35m-5.35-10.7h5.35m-5.35-10.65h5.35m-5.35-21.4h5.35m-5.35 10.65h5.35m-6.45-47.75h70.05M239.2 139h5.35m-5.35-10.7h5.35m-5.35-10.65h5.35m-96.25 5.3h5.4m0-5.3h5.3m-16 0h5.3m-11.25 0h.6M153.7 139h5.3m-5.3-10.7h5.3m-7.9 5.35h2.6m.3 37.45h5m-5-21.4h5m-5 10.65h5m-5 32.1h5m-5-10.7h5m-5 21.35h5m-4.85 10.7H159m-3.35 10.7H159m128.3-5.35h5.35m-5.35-10.65h5.35m0-5.4H298m0 5.4h5.3m-5.3 10.65h5.3m-10.65-5.35H298m-10.7 26.75h5.35m-5.35-10.65h5.35m0 16H298m0-5.35l3.2.05m-8.55-5.4H298m0-5.3h5.3m-10.65-5.4H298m5.3 0h3.2m-3.2-10.7h4.65m-4.65-10.7h4.85m-36.9 10.7h5.35m-5.35-10.7h5.35m-10.7 5.4h5.35m5.35 0h5.35m-16.05 10.65h5.35m5.35 0h5.35m-37.4-10.65h5.3m5.4 10.65h5.3m-16 0h5.3m5.4-10.65h5.3m-10.7-5.4h5.4m-5.4 10.7h5.4m-10.7 26.75h5.3m-5.3-10.65h5.3m0 16h5.4m0-5.35h5.3m-10.7-5.35h5.4m-5.4-10.7h5.4m0 5.4h5.3m16.05 10.65h5.35m-5.35-10.65h5.35m-16.05 10.65h5.35m0 5.35h5.35m-5.35-10.7h5.35m-5.35-10.7h5.35m-10.7 5.4h5.35m-10.7 16h5.35m-5.35-10.7h5.35m-5.35-10.7h5.35m-5.35-21.4h5.35m-5.35 10.7h5.35m0 37.45h5.35m-5.35 10.65h5.35m0-5.35h5.35m-5.35 10.75h5.35m0-16.05h5.35m-5.35 10.65h5.35m-32.1-5.35h5.4m-10.7-5.3h5.3m-5.3 10.65h5.3m5.4 0h5.3m-10.7 5.4h5.4m0-16.05h5.3m-16 32.05l5.15.05m-5.15-10.75h5.3m0 5.35h5.4m0-5.35h5.3m5.35 0h5.35m-10.7 5.35l3.95.05m-3.95-21.45h5.35m-5.35 10.75h5.35m21.4-16.05h5.35m-10.7 5.3h5.35m-5.35-10.65h5.35m-5.35-10.7h5.35m-5.35-10.7h5.35m-5.35-21.4h5.35m-5.35 10.7h5.35m-49.2-5.3h1.1m-5.35 10.65h5.35m-16.05-10.65h.9m-.9 10.65h5.35m-16.05 0h5.35m-10.7-5.35h5.35m0-5.3h5.35m-10.7-5.4h5.35m-5.35 32.1h5.35m0 5.35h5.35m-10.7 5.35h5.35m0-16h5.35m-10.7-5.4h5.35m16.05 21.4h5.35m-5.35-10.7h5.35m-5.35-10.7h5.35m-10.7 16.05h5.35m-5.35-10.65h5.35m5.35 10.65h5.35m-5.35-10.65h5.35m-21.4-5.4h5.35m-5.35 10.7h5.35m-5.35 10.7h5.35m-5.35-42.8h5.35m-5.35 10.7h5.35m-26.7-10.7h5.35m-10.7 5.4h5.35m0 5.3h5.35m-16.05-10.7h5.35m-5.35 10.7h5.35m0 5.35h5.35m-26.75 0h5.35m0-16.05h5.35m-5.35 10.7h5.35m-16.05-10.7h5.35m-5.35 10.7h5.35m0-5.3h5.35m0 16h5.35m-5.35 10.7h5.35m-5.35 10.7h5.35m-16.05-10.7h5.35m-5.35 10.7h5.35m0-5.35h5.35m-5.35-10.65h5.35m-10.7-5.4h5.35m26.75 10.7h5.35m-16.05 10.7h5.35m-5.35-10.7h5.35m-5.35-10.7h5.35m0 16.05h5.35m0 5.35h5.35m-10.7-16h5.35m0-5.4h5.35m-21.4 16.05h5.35m-5.35-21.4h5.35m-5.35 10.75h5.35m-5.35-21.4h5.35m5.35 42.75h5.35m0 16.05h5.35m-10.7-5.4h5.35m0-5.35h5.35m-16.05 0h5.35m-5.35 10.75h5.35m-21.4-16.05h5.35m0 5.3h5.35m10.7 16.05h5.35m1.2 5.4l4.15-.05m-21.4-26.7h5.35m-5.35 10.65h5.35m48.1-10.65h5.35m-5.35 10.65h5.35m-16.05-10.65h5.35m-5.35 10.65h5.35m0 5.4h5.35m-5.35-10.75h5.35M207.1 267.3h5.35m-5.35-10.75h5.35m0-5.3h5.35m-5.35 10.65h5.35m-5.35 10.7h5.35m-5.35 10.75l5.35-.05m-10.7-5.35h5.35m16.05 0h5.35m-10.7 5.35h5.35m-5.35-10.7h5.35m5.35 0h5.35m-5.35 10.7h5.35m-21.4-26.75h5.35m-5.35 10.75h5.35m-5.35 10.65h5.35m-21.35-5.35h5.3m-5.3-10.7h5.3m-5.3-10.65h5.3m-5.3-10.7h5.3m-5.3-10.65h5.3m-5.3-10.75h5.3m-5.3-10.65h5.3m32.1 69.45h5.35m-5.35-21.4h5.35m-5.35 10.75h5.35m-5.35-21.4h5.35m-5.35-10.7h5.35m-5.35-10.7h5.35m-5.35-21.4h5.35m-5.35 10.7h5.35M159 229.9h5.35M159 219.15h5.35m-3.4 21.45l3.4-.05M159 187.1h5.35M159 197.75h5.35M159 208.5h5.35M159 144.3h5.35M159 155.05h5.35M159 165.7h5.35M159 176.4h5.35M159 122.95h5.35m-5.35 10.7h5.35"/></defs><use filter="url(#sis01_02_9_3a)" xlink:href="#sis01_02_9_3b"/><g id="fadeInRight"><g transform="matrix(1 0 0 1 10.05 7.35)"><use xlink:href="#sis01_02_9_3c"/><use xlink:href="#sis01_02_9_3d"/></g><use xlink:href="#sis01_02_9_3e" transform="matrix(1 0 0 1 10.05 7.35) matrix(.7214 0 0 .7214 -118.85 -229)"/><use xlink:href="#sis01_02_9_3f" transform="matrix(1 0 0 1 10.05 7.35) matrix(.47627 0 0 .47627 -34.05 -119.9)"/><g transform="matrix(1 0 0 1 10.05 7.35) matrix(.47627 0 0 .47627 -26.35 -102.8)"><use xlink:href="#sis01_02_9_3g"/><use xlink:href="#sis01_02_9_3h"/></g><g transform="matrix(1 0 0 1 10.05 7.35) matrix(.47627 0 0 .47627 -33.55 -119.85)"><use xlink:href="#sis01_02_9_3i"/><use xlink:href="#sis01_02_9_3j"/></g><g transform="matrix(1 0 0 1 10.05 7.35) matrix(.47627 0 0 .47627 -33.55 -119.85)"><use xlink:href="#sis01_02_9_3k"/><use xlink:href="#sis01_02_9_3l"/></g><use xlink:href="#sis01_02_9_3m" transform="matrix(1 0 0 1 10.05 7.35) matrix(.47627 0 0 .47627 -26.35 -102.8)"/><use xlink:href="#sis01_02_9_3n" transform="matrix(1 0 0 1 10.05 7.35) matrix(.47627 0 0 .47627 -22.45 -81.9)"/><use xlink:href="#sis01_02_9_3o" transform="matrix(1 0 0 1 10.05 7.35) matrix(.47627 0 0 .47627 -22.45 -60.35)"/><g transform="matrix(1 0 0 1 10.05 7.35) matrix(.7214 0 0 .7214 219 233.35)"><clipPath id="sis01_02_9_3p"><path fill="#FFF" d="M-2-2h48v59.85H-2z"/></clipPath><text clip-path="url(#sis01_02_9_3p)" writing-mode="lr"><tspan x="0" y="45.25" baseline-shift="0%" font-family="Arial_Regular" font-size="50" fill="#FFF">2</tspan></text></g><g transform="matrix(1 0 0 1 10.05 7.35) matrix(.7214 0 0 .7214 263.65 57.7)"><clipPath id="sis01_02_9_3q"><path fill="#FFF" d="M-2-2h48v59.85H-2z"/></clipPath><text clip-path="url(#sis01_02_9_3q)" writing-mode="lr"><tspan x="0" y="45.25" baseline-shift="0%" font-family="Arial_Regular" font-size="50" fill="#373535">3</tspan></text></g><g transform="matrix(1 0 0 1 10.05 7.35) matrix(.7214 0 0 .7214 100 52.5)"><clipPath id="sis01_02_9_3r"><path fill="#FFF" d="M-2-2h48v59.85H-2z"/></clipPath><text clip-path="url(#sis01_02_9_3r)" writing-mode="lr"><tspan x="0" y="45.25" baseline-shift="0%" font-family="Arial_Regular" font-size="50" fill="#373535">1</tspan></text></g></g></svg>