<svg xmlns="http://www.w3.org/2000/svg" xmlns:xlink="http://www.w3.org/1999/xlink" preserveAspectRatio="none" width="459" height="288" viewBox="0 0 459 288"><defs><filter id="sis01_02_36_2a" x="-20%" y="-20%" width="140%" height="140%" color-interpolation-filters="sRGB"><feColorMatrix in="SourceGraphic" values="1 0 0 0 0 0 1 0 0 0 0 0 1 0 0 0 0 0 0 0" result="result1"/></filter><path fill="#9FD3CE" d="M458.7 287.15V0H0v287.15h458.7z" id="sis01_02_36_2b"/><g id="sis01_02_36_2p"><path fill="#292929" d="M253.35 248.95l.5-.1q-.15-.5-.55-.8-.35-.3-.95-.3-.45 0-.9.25-.4.2-.65.65-.2.45-.2 1.05 0 .55.2 1 .2.45.6.7.4.25.95.25.55 0 1-.3.4-.35.6-.95l-.5-.1q-.15.45-.45.7-.25.25-.65.25t-.7-.2q-.25-.15-.4-.55-.15-.35-.15-.85 0-.3.15-.7.1-.35.4-.55.3-.15.7-.2.4 0 .65.2t.35.55m3.3.8q.3-.35.3-.85 0-.25-.15-.5-.1-.2-.3-.35-.15-.15-.45-.15l-2-.1v3.8h.5v-1.55h1q.8 0 1.1-.3m-.65-1.45q.2.1.3.2l.15.4q0 .4-.25.55-.15.15-.65.15h-1v-1.35l1.45.05M22 213.7h-.6l1.5 3.75h.5l1.45-3.75h-.5l-1.2 3.35L22 213.7m-.95.1q-.3-.1-.8-.1H18.6v3.75h.5v-1.65H19.95l.2.1.25.25.9 1.3h.6l-1.05-1.55-.35-.15q.6-.1.85-.35.25-.3.25-.7 0-.3-.15-.55-.15-.3-.4-.35m-.8.35q.45 0 .65.1.2.2.2.45l-.15.4-.3.15-.5.1H19.1v-1.2h1.15m37.7-4.45q-.25-.2-.55-.3l-1.95-.05v3.75l1.95-.05.45-.15.35-.35q.15-.2.25-.6l.1-.7q0-.55-.15-.95-.15-.35-.45-.6m-2 .1l1.4.1q.3.1.5.4.2.35.2.95l-.15.7-.25.45q-.1.15-.3.2l-1.4.05v-2.85m-2.15-.45h-1.7v3.75h.5v-1.65h.6q.1 0 .25.05l.25.05.25.3.85 1.25h.65l-1.1-1.5-.25-.2q.5-.05.75-.35.3-.25.25-.65 0-.3-.1-.55-.2-.3-.45-.4-.3-.1-.75-.1m.05.45q.35 0 .55.15.25.2.2.45l-.1.35-.3.2-.5.05h-1.1v-1.2h1.25m332.4 15.25l.4-.8h-.35q-.45.65-.7 1.3-.2.55-.2 1.15 0 .7.3 1.35.25.65.6 1.1h.35q-.75-1.2-.75-2.45l.1-.95.25-.7m4.2-.7h-.5l-1.2 3.3-1.2-3.3H387l1.5 3.7h.5l1.45-3.7m1.35 0h-.45v3.7h.45v-3.7m1.95 0h-.55l-1.4 3.7h.5l.45-1.1h1.5l.45 1.1h.6l-1.55-3.7m.4 2.2h-1.3l.6-1.85.7 1.85m5.85-2.2v.95q-.006-.213-.1-.4-.1-.25-.35-.35-.15-.15-.45-.2h-1.95v3.7h.5v-1.5h.95q.8 0 1.1-.3.25-.3.3-.7v.95q0 .6.15.95.2.35.5.5.3.2.85.15.55 0 .9-.2.3-.2.4-.5.15-.35.15-.9v-2.15h-.5v2.15q0 .7-.2.95-.25.25-.8.25l-.55-.1q-.2-.15-.3-.4-.1-.2-.1-.7v-2.15h-.5m-.6.7l.1.35q0 .35-.25.55-.15.15-.65.15h-.95v-1.3h1.4q.2.05.35.25m1.75-.95h.4l.55-.7h-.6l-.35.7m-2.2-6.45q0-.35-.15-.6t-.4-.35q-.3-.1-.75-.1h-1.7v3.75h.5v-1.65H397.3l.25.1.25.25.85 1.3h.75l.4-1.1h1.55l.45 1.1h.6l-1.55-3.75h-.55L399 220l-.8-1.15-.3-.2q.55-.05.8-.35.3-.3.25-.65m-1.3-.65q.4 0 .6.2.2.2.2.45l-.1.3-.3.25-.5.05h-1.1V217h1.2m2.9 0l.7 1.8h-1.3l.6-1.8m-6.65 0l.5.05q.25.15.4.25l.15.45.45-.1q-.05-.4-.25-.6-.2-.25-.5-.35-.3-.15-.75-.15-.6 0-1 .2-.45.25-.65.75-.2.45-.2 1t.2 1q.25.45.7.7.45.25 1 .2l.75-.15q.45-.15.8-.4v-1.4h-1.6v.45h1.1v.7l-.45.25-.65.15q-.35 0-.7-.2-.35-.15-.5-.5-.15-.3-.15-.85 0-.35.15-.75l.2-.35.4-.3.6-.05m-8-.4h-.45v3.75h2.35v-.45h-1.9v-3.3m2.75.45q-.45.55-.5 1.5 0 .5.25.9.2.5.65.7.4.3.95.25.45 0 .9-.2.4-.2.65-.7.25-.45.2-1 0-.55-.2-1-.2-.45-.65-.7-.4-.25-.9-.25-.85 0-1.35.5m.4 2.55q-.35-.35-.4-1.05 0-.85.4-1.25.4-.3.95-.3.3 0 .65.15.3.2.45.55.15.3.15.8 0 .75-.35 1.1-.35.4-.9.4-.6 0-.95-.4m18.1 4.75h-.5v3.7H409v-.4h-1.85v-3.3m-1.35.45q-.1-.25-.4-.35-.25-.1-.65-.1h-1.45v3.7h2.05l.4-.2.25-.35.15-.5q0-.35-.2-.6-.15-.2-.5-.3l.35-.35.15-.45-.15-.5m-.35.55l-.1.35-.25.15-1.3.05v-1.1h1.3l.25.25.1.3m-.25 1.05q.2.05.3.25l.15.35-.1.3-.2.2-.3.15h-1.25v-1.3l1.4.05m4.9 1.65v-3.7h-.45v3.7h.45m2.6-3.15q.3.15.4.55l.5-.1q-.15-.5-.55-.8-.35-.3-.95-.3-.45 0-.9.25-.4.2-.65.65-.2.45-.2 1.05 0 .5.2 1 .2.45.55.7.4.25 1 .2.55 0 1-.3.4-.3.55-.9l-.5-.15q-.1.45-.35.75-.3.25-.75.2-.35 0-.65-.15-.25-.2-.4-.55-.15-.35-.15-.85 0-.35.15-.7.1-.35.35-.55.35-.2.75-.2.35 0 .6.2m3.2 2.05l.45 1.1h.55l-1.55-3.7h-.55l-1.4 3.7h.55l.4-1.1h1.55m-1.4-.4l.6-1.85.7 1.85h-1.3m4.1-1q-.25-.65-.7-1.3h-.35l.4.8.25.7q.15.5.15.95 0 1.25-.8 2.45h.35q.35-.45.6-1.1.3-.65.3-1.35 0-.6-.2-1.15m1.55-8.05q-.25-.45-.65-.7-.4-.25-.9-.25-.8 0-1.3.5-.5.55-.55 1.5 0 .5.25.9.2.5.65.7.4.3.95.25.45 0 .9-.2.4-.2.65-.7.25-.45.2-1 0-.55-.2-1m-.45.2q.15.3.15.8 0 .75-.35 1.1-.35.4-.9.4-.6 0-.95-.4-.35-.35-.35-1.05 0-.85.4-1.25.35-.3.9-.3.3 0 .65.15.3.2.45.55m-6.5-1.1h-.5v2.2q0 .65-.2.95-.25.25-.8.25-.3 0-.55-.15-.2-.1-.3-.35-.1-.2-.1-.7v-2.2h-.5v2.2q0 .55.15.95.2.3.45.5.4.15.9.15.55 0 .9-.2.3-.2.45-.5.1-.4.1-.9v-2.2m.9 2.1H414.95l.2.1.25.25.9 1.3h.6l-1.05-1.5-.35-.2q.55-.05.8-.35.3-.3.3-.65 0-.35-.15-.6t-.4-.35q-.3-.1-.8-.1h-1.65v3.75h.5v-1.65m0-.45V217h1.15q.45 0 .65.2t.15.45l-.1.3-.3.25-.5.05h-1.05m-8.5-1.3q-.25-.2-.55-.3l-1.95-.05v3.75l1.95-.05.45-.2.3-.35q.2-.2.3-.55l.1-.75q0-.5-.15-.9-.15-.35-.45-.6m-.6.15q.3.15.5.45.2.35.2.9l-.15.7-.25.5q-.1.15-.3.2l-1.4.05v-2.85l1.4.05m4.65 2.4q.25-.45.25-1t-.25-1q-.2-.45-.65-.7-.4-.25-.9-.25-.8 0-1.3.5-.5.55-.55 1.5 0 .5.25.9.2.5.65.7.4.3.95.25.45 0 .9-.2.4-.2.65-.7m-.9-2.35q.3.2.45.55.2.3.15.8 0 .75-.35 1.1-.35.4-.9.4t-.95-.4q-.35-.35-.35-1.05 0-.85.35-1.25.45-.3.95-.3.35 0 .65.15m-209.3-3.75q0-.3-.15-.55-.15-.3-.4-.4-.3-.1-.75-.1h-1.7v3.75h.5v-1.65h.6q.1 0 .25.05l.25.05.25.3.85 1.25h.65l-1.1-1.5-.25-.2q.5-.05.75-.35.3-.25.25-.65m-1.3-.6q.4 0 .6.15.25.2.2.45l-.1.35-.3.2-.5.05h-1.1v-1.2h1.2m4.45 3.3v-.45h-2.3v-1.25h2.1v-.4h-2.1v-1.2h2.2v-.45h-2.7v3.75h2.8m29.65.1q0 .55.2 1 .25.5.6.75.4.25 1 .2.55 0 .95-.3.4-.3.55-.85.05.3.25.55.15.3.55.45l.8.15q.45 0 .75-.15.35-.1.5-.4.15-.2.15-.55 0-.3-.15-.55-.15-.2-.45-.4l-1.6-.45q-.15-.15-.15-.4 0-.15.2-.35.2-.2.65-.2t.7.2q.2.2.25.55l.45-.05q0-.3-.2-.6-.15-.25-.5-.4-.3-.15-.7-.15-.4 0-.7.15-.3.15-.45.4-.2.25-.2.55l.1.45q.15.2.45.35l1.4.4.35.2.1.35-.1.3q-.15.15-.35.25l-.5.05-.55-.1q-.3-.1-.4-.3l-.15-.45-.45.05-.5-.1q-.1.45-.4.7-.3.25-.7.25-.35 0-.65-.2-.25-.15-.4-.55-.15-.3-.15-.85 0-.3.1-.7.1-.35.4-.55.35-.15.75-.2.35 0 .6.2.3.2.4.6l.5-.15q-.15-.5-.55-.8-.4-.3-.95-.3-.5 0-.9.25-.45.2-.65.7-.25.4-.25 1m81.35 22.7v3.75h.5v-3.75h-.5m-3.35.85q-.2.4-.2 1 0 .55.2 1 .2.5.55.75.4.25 1 .2.55 0 1-.3.4-.3.55-.95l-.5-.1q-.05.45-.4.75-.25.25-.7.2-.35 0-.65-.2-.25-.15-.4-.55-.15-.3-.15-.8 0-.35.15-.7.1-.4.35-.6.35-.15.75-.2.35 0 .6.2.3.2.4.6l.5-.15q-.15-.5-.5-.75-.4-.35-1-.35-.5 0-.9.3-.4.15-.65.65M168.3 209.7q-.2-.2-.55-.3l-1.95-.05v3.75l1.95-.05.45-.15.35-.35q.2-.2.25-.6l.1-.7q0-.55-.15-.95-.1-.35-.45-.6m-.55.2q.25.1.45.4.25.35.2.95l-.1.7-.3.45q-.1.15-.3.2l-1.4.05v-2.85l1.45.1m-3.6-.55h-1.65v3.75h.5v-1.65h.55q.15 0 .3.05l.2.05.3.3.85 1.25h.6l-1.05-1.5-.3-.2q.55-.05.8-.35.25-.25.25-.65 0-.3-.15-.55-.15-.3-.4-.4-.3-.1-.8-.1m-1.15.45h1.2q.4 0 .6.15.2.2.2.45l-.15.35-.25.2-1.6.05v-1.2m-41.9 12.5H119v-1.15h2.2v-.45h-2.7v3.75h2.8V224H119v-1.25h2.1v-.45m-3.5-1.45q-.3-.15-.75-.15h-1.7v3.75h.5v-1.65h.6q.1 0 .25.05l.25.1.25.25.85 1.25h.65l-1.1-1.5-.25-.2q.5-.05.75-.35.3-.25.25-.65 0-.3-.15-.55-.15-.3-.4-.35m-1.95 1.5v-1.2h1.2q.4 0 .6.15.2.2.2.45l-.1.35-.3.2-.5.05h-1.1m4.5-27.65h-.7v.8l.15.95h.4l.15-.95v-.8m1.15 0h-.7v.8l.15.95h.35l.2-.95v-.8m-5.15 1.25v.55l.65-.3.6-.4v3.9h.6v-5.05h-.35q-.2.4-.6.7-.35.35-.9.6m-2.8-.45l.2.95h.4l.1-1.75h-.7v.8m1.85-.8h-.7v.8l.15.95h.4l.15-.95v-.8m-5.2 0h-.7l-1.9 5h.65l.6-1.55h2.05l.6 1.55h.8l-2.1-5m-.4.55l.9 2.4h-1.7l.55-1.45.25-.95m-2.3-.55h-.65v5h.65v-5m-3.65 0h-2.2v5h.65v-2.25l1.1.05.35.15.3.35 1.15 1.7h.85l-.9-1.35q-.25-.45-.5-.7l-.4-.2q.65-.1 1-.5.35-.35.35-.9 0-.4-.2-.75-.2-.3-.55-.45-.35-.15-1-.15m-1.55 2.2v-1.65h1.55q.6 0 .85.25.25.2.25.55 0 .25-.15.45t-.4.3l-.7.1h-1.4m-10.65-2.2h-.65v5h.65v-5m5.15 0h-.65v5h.65v-5m1.9-.3h.5l.75-.95h-.8l-.45.95m.75.3h-.7l-1.9 5h.7l.55-1.55h2.1l.6 1.55h.75l-2.1-5m-.35.55l.9 2.4h-1.7l.8-2.4m-6.2-.55h-.65v5h3.15v-.55h-2.5v-4.45m6.9-5.9v-1.65h2.8v-.6h-2.8V185h2.95v-.6h-3.6v5h3.7v-.6H99.6m-10.75 8.25q.35-.15.5-.45.2-.3.2-.6 0-.4-.25-.7-.15-.25-.5-.45-.35-.15-.95-.15H86v5l2.7-.05q.35-.1.55-.25.2-.15.4-.5.1-.3.1-.65 0-.4-.2-.8-.25-.25-.7-.4m-2.2.35l1.9.05q.25.1.35.3.2.25.2.5l-.1.45-.25.25-.4.15-1.7.05v-1.75m0-2.1l1.75.05q.2.1.35.25.15.2.15.45t-.15.45q-.15.15-.4.25l-1.7.05v-1.5m2.4-5.9h.7l.55-1.5h2.1l.6 1.5h.75l-2.1-5h-.7l-1.9 5m1.45-2.05l.55-1.45.25-.95.9 2.4h-1.7m-6.65-2.95h-.65v5h.65v-5m3.25.05l-2.6-.05v5l2.6-.1.6-.25.45-.45.35-.7q.1-.45.1-1 0-.7-.2-1.2-.15-.5-.55-.85-.35-.3-.75-.4m-1.95.55h1.05q.6 0 .85.1.4.1.6.55.3.4.3 1.2l-.15 1q-.15.35-.35.6l-.45.3q-.3.1-.8.05h-1.05V185m11.25-.55l-2.6-.05v5l2.6-.1.65-.25.4-.45.35-.7q.15-.45.15-1 0-.7-.2-1.2-.15-.5-.6-.85-.3-.3-.75-.4m-.9.55q.65 0 .9.1.35.1.6.55.3.4.25 1.2l-.1 1q-.15.35-.4.6l-.4.3q-.35.1-.8.05H94.5V185h1m-14.6 10.3q-.65.7-.7 2 0 .65.3 1.2.3.65.85.95.55.35 1.25.3.7 0 1.2-.25.6-.3.9-.95.35-.55.3-1.35 0-.7-.3-1.35-.3-.55-.85-.9t-1.25-.35q-1.05 0-1.7.7m2.6.15q.4.25.6.7.25.45.25 1.05 0 .95-.5 1.5t-1.25.55q-.7 0-1.2-.55t-.5-1.4q0-1.15.5-1.6.5-.55 1.2-.55.5 0 .9.3m-3.45-.75h-.9L77.7 199l-1.4-4.3h-1.05v5h.65v-4.25l1.45 4.25h.6l1.45-4.2v4.2h.65v-5m-5.35 0H74v5h.7v-5m4.4-10.3h-.7v5h.65v-3.95l2.6 3.95h.7v-5h-.65v3.95l-2.6-3.95m-4.65 0h-.7v2.9q0 .8.2 1.25.2.5.65.7.5.2 1.15.2.75 0 1.2-.25.4-.3.6-.75.15-.4.15-1.15v-2.9h-.65v2.85q0 .95-.3 1.3-.3.35-1.05.35-.45 0-.75-.15-.25-.2-.4-.5-.1-.3-.1-1v-2.85m-.8-9q.3-.3.3-.7 0-.3-.15-.55-.2-.3-.45-.4-.25-.1-.75-.1h-1.65v3.8h.5v-1.7H72q.15 0 .25.05l.25.1.3.25.8 1.3h.65l-1.05-1.55-.3-.2q.5-.05.75-.3m-1-1.3q.4 0 .6.15.2.2.15.45l-.05.35-.3.2-.55.1h-1.05v-1.25h1.2m4.4 3.35V177h-2.3v-1.3h2.1v-.45h-2.1v-1.15H77v-.45h-2.75v3.8h2.8m-31.9 2.75q-.35 0-.7.1-.3.15-.45.4-.15.25-.15.55l.1.45q.15.2.45.35l1.4.4.3.2.1.35-.1.3q-.1.2-.3.25l-.55.05-.55-.1q-.3-.05-.4-.25l-.15-.5-.45.05q0 .35.2.7.2.25.55.45l.85.1q.4 0 .75-.1.3-.15.45-.45.2-.2.2-.55 0-.3-.2-.55-.15-.2-.45-.35l-1.6-.55q-.15-.1-.15-.3 0-.2.2-.4t.7-.2q.4 0 .65.2.2.2.25.55l.45-.05q0-.3-.2-.6-.15-.2-.45-.4-.3-.1-.75-.1m9.95-26.4q0-.3-.1-.55-.2-.25-.45-.4-.3-.05-.75-.05h-1.7v3.75h.5v-1.65h.85l.25.1.25.25.85 1.3h.65l-1.1-1.5-.25-.2q.5-.05.75-.35.3-.3.25-.7m-2.5.65v-1.25h1.25q.35 0 .55.2.25.15.2.4l-.1.35-.3.25-.5.05h-1.1m5.35-1.35q-.25-.2-.55-.25l-1.95-.05v3.75l1.95-.05.45-.2.35-.35q.15-.2.25-.55l.1-.75q0-.5-.15-.9-.15-.35-.45-.65m-.6.2q.3.15.5.45.2.35.2.9l-.15.7-.25.5q-.1.15-.3.15l-.6.1h-.8v-2.85l1.4.05M40.2 180.25h-.55l1.5 3.75h.5l1.45-3.75h-.5l-1.2 3.35-1.2-3.35m5.65-56.05q.2.2.25.6l.45-.1q0-.3-.2-.55-.15-.25-.45-.4-.3-.15-.75-.15-.35 0-.7.15-.3.1-.45.35-.15.25-.15.55l.1.45q.15.2.45.35l1.4.4.3.25.1.3-.1.3q-.1.2-.3.25l-.55.1-.55-.1q-.3-.1-.4-.3l-.15-.45-.45.05q0 .3.2.65.2.3.55.45l.85.1q.4 0 .75-.1.3-.15.45-.4.2-.25.2-.55 0-.35-.2-.55-.15-.25-.45-.4l-1.6-.5q-.15-.15-.15-.35 0-.2.2-.4.2-.15.7-.15.4 0 .65.15m-2.75-.5h-.5l-1.2 3.3-1.2-3.3h-.55l1.5 3.7h.5l1.45-3.7m2.2-15.8q-.2.25-.2.5l.1.5q.15.2.45.3l1.4.45.35.2.1.3-.1.35q-.15.2-.35.2l-.5.1-.55-.1q-.3-.1-.4-.25l-.15-.5-.5.05q0 .35.25.7.15.25.5.45l.85.1q.45 0 .75-.1.35-.15.5-.45.15-.25.15-.55 0-.3-.15-.55-.15-.25-.5-.4l-1.55-.5q-.15-.1-.15-.3 0-.25.2-.4.2-.2.65-.2.4 0 .7.2.15.2.25.5h.45q0-.3-.2-.6-.15-.2-.5-.4-.3-.15-.7-.15-.4 0-.7.15-.3.1-.45.4m5.4.1q.25.2.4.6l.5-.15q-.2-.5-.55-.75-.35-.35-.95-.35-.5 0-.95.25-.35.2-.6.65-.2.45-.2 1.05 0 .55.15 1 .2.45.6.7.4.25 1 .25.55 0 1-.3.4-.35.55-.95l-.5-.1q-.1.45-.4.7-.3.25-.7.25-.35 0-.65-.2-.3-.15-.4-.55-.15-.35-.15-.8 0-.35.1-.75.1-.35.4-.55.35-.15.75-.2.35 0 .6.2m7.75-9.2l.1-.75q0-.5-.15-.9-.15-.35-.45-.65-.25-.15-.55-.25l-1.95-.05v3.75l1.95-.05.45-.2.35-.3q.15-.25.25-.6m-.6-1.65q.2.3.2.9l-.15.75-.25.45q-.1.15-.3.2l-1.4.05v-2.85l1.4.05q.3.15.5.45m-2.75.05q0-.25-.1-.55-.2-.25-.45-.35-.3-.1-.75-.1h-1.7v3.75h.5V98.3h.85l.25.15.25.25.85 1.25h.65l-1.1-1.5-.25-.2q.5-.05.75-.35.3-.3.25-.7m-2.5.65v-1.2h1.25q.35 0 .55.15.25.15.2.4l-.1.4-.3.2-.5.05h-1.1m60.75 40.25v.8l.2.95h.4l.1-1.75h-.7m1.15 0v.8l.15.95h.4l.15-.95v-.8h-.7m4 .4q-.4-.45-1.1-.45-.75 0-1.15.4-.45.4-.5 1.1l.6.05q0-.45.25-.75.3-.3.75-.3.4 0 .65.3.3.25.3.6t-.3.7q-.3.45-1.1 1.1l-.8.75q-.3.35-.4.65-.1.25-.1.45h3.3v-.6h-2.45l.25-.3 1.7-1.5.4-.65q.1-.25.1-.6 0-.55-.4-.95m1.65-.4h-.7v.8l.15.95h.4l.15-.95v-.8m1.15 0h-.7v.8l.15.95h.35l.2-.95v-.8m-16.1.6q-.2-.3-.55-.45-.35-.15-1-.15h-2.2v5h.65v-2.25l1.1.05.35.15.3.35 1.15 1.7h.85l-.9-1.35q-.25-.45-.5-.7l-.4-.2q.65-.1 1-.5.35-.35.35-.9 0-.4-.2-.75m-3.1-.05h1.55q.6 0 .85.25.25.2.25.55 0 .25-.15.45t-.4.3l-.7.1h-1.4v-1.65m5.2-.55h-.65v5h.65v-5m1.35 3.45h2.05l.6 1.55h.8l-2.1-5h-.7l-1.9 5h.65l.6-1.55m.7-1.95l.25-.95.9 2.4h-1.7l.55-1.45m-13.4 3.5h.65v-5h-.65v5m-3.25-5h-.65v5h3.15v-.6h-2.5v-4.4m6.55 0h-.7l-1.9 5h.7l.55-1.55h2.1l.6 1.55h.75l-2.1-5m-1.15 2.95l.8-2.4.9 2.4h-1.7m1.65-4.2h-.8l-.45.95h.5l.75-.95m-8.95 1.25v5h.65v-5h-.65m-1.5.6q-.15-.3-.5-.45-.35-.15-.95-.15H86v5l2.7-.05q.35-.1.55-.25.2-.15.4-.5.1-.3.1-.65 0-.4-.2-.8-.25-.25-.7-.4.35-.15.5-.5.2-.25.2-.6t-.25-.65m-2.65 0l1.75.05q.2.1.35.25.15.2.15.45t-.15.45q-.15.15-.4.25l-1.7.05v-1.5m0 2.1l1.9.05q.25.1.35.3.2.25.2.5l-.1.45-.25.25-.4.15h-1.7v-1.7m-2.8-13h-.65v5.05h.65v-5.05m4.55 1.35q-.15-.55-.55-.9-.35-.25-.75-.35l-2.6-.1v5.05l2.6-.1.6-.25.45-.45.35-.75q.1-.4.1-1 0-.7-.2-1.15m-2.2-.75q.6 0 .85.1.4.15.6.55.3.45.3 1.2l-.15 1q-.15.4-.35.6l-.45.3q-.3.1-.8.1h-1.05v-3.85h1.05m13.4 3.85v-1.7h2.8v-.6h-2.8v-1.55h2.95v-.6h-3.6v5.05h3.7v-.6H99.6m-6.6.6h.75l-2.1-5.05h-.7l-1.9 5.05h.7l.55-1.55h2.1l.6 1.55m-1.7-4.5l.9 2.45h-1.7l.8-2.45m6.45.8q-.15-.55-.6-.9-.3-.25-.75-.35l-2.6-.1v5.05l2.6-.1.65-.25.4-.45.35-.75q.15-.4.15-1 0-.7-.2-1.15m-1.35-.65q.35.15.6.55.3.45.25 1.2l-.1 1q-.15.4-.4.6l-.4.3q-.35.1-.8.1H94.5v-3.85h1q.65 0 .9.1m-21.7 9.6H74v5h.7v-5m5.35 0h-.9l-1.45 4.3-1.4-4.3h-1.05v5h.65v-4.25l1.45 4.25h.6l1.45-4.2v4.2h.65v-5m.85.6q-.65.7-.7 2 0 .65.3 1.2.3.6.85.95t1.25.3q.7 0 1.2-.25.6-.3.9-.95.35-.55.3-1.35 0-.7-.3-1.35-.3-.55-.85-.9T82.6 138q-1.05 0-1.7.7m1.7-.15q.5 0 .9.3.4.25.6.7.25.45.25 1.05 0 .95-.5 1.5t-1.25.55q-.7 0-1.2-.55t-.5-1.4q0-1.15.5-1.6.5-.55 1.2-.55m-4.9-10.75h-.65v2.9q0 .95-.3 1.3-.3.3-1.05.3-.45 0-.75-.15-.25-.15-.4-.45-.1-.35-.1-1v-2.9h-.7v2.9q0 .8.2 1.3.2.45.65.7.5.2 1.15.2.75 0 1.2-.25.4-.3.6-.75.15-.45.15-1.2v-2.9m1.4 0h-.7v5.05h.65v-4l2.6 4h.7v-5.05h-.65v3.95l-2.6-3.95m-6.5-10.7h-1.65v3.75h.5v-1.7H72q.15 0 .25.05l.25.1.3.25.8 1.3h.65l-1.05-1.55-.3-.15q.5-.1.75-.35.3-.3.3-.7 0-.3-.15-.55-.2-.3-.45-.35-.25-.1-.75-.1m-1.15.4h1.2q.4 0 .6.15.2.2.15.45l-.05.35-.3.2-.55.1h-1.05v-1.25m5.55.05v-.45h-2.75v3.75h2.8v-.45h-2.3v-1.3h2.1v-.4h-2.1v-1.15H77m181 50.8q-.25.45-.25 1.05 0 .55.25 1 .2.45.6.7.45.25.95.2.55 0 .95-.2l.8.45.15-.35-.65-.35q.25-.25.4-.65.15-.35.15-.8 0-.6-.2-1-.25-.45-.65-.7-.4-.2-.95-.25-.5 0-.95.2-.35.25-.6.7m2.25-.3q.3.2.45.5.15.4.15.85 0 .8-.45 1.2-.25-.25-.7-.4l-.15.4.5.2-.5.1q-.55 0-.9-.4-.35-.35-.35-1.1 0-.75.35-1.15.35-.4.9-.4.4 0 .7.2m-2.5-.1v-.45h-2.95v.45h1.25v3.3h.5v-3.3h1.2m-24.85-9.1q.1-.3.4-.5.35-.2.75-.2.35 0 .6.2.3.15.4.55l.5-.1q-.15-.5-.55-.8-.4-.3-.95-.3-.5 0-.9.2-.45.25-.65.7-.25.4-.25 1.05 0 .5.2 1 .25.45.6.7.4.25 1 .2.55 0 .95-.3.4-.3.55-.85.05.3.25.6.15.3.55.45l.8.1q.45 0 .75-.1.35-.15.5-.4.15-.25.15-.6 0-.3-.15-.5-.15-.25-.45-.4l-1.6-.5q-.15-.15-.15-.35 0-.2.2-.4.2-.15.65-.15t.7.2q.2.15.25.5l.45-.05q0-.3-.2-.55-.15-.25-.5-.4-.3-.15-.7-.15-.4 0-.7.15-.3.1-.45.35-.2.3-.2.55l.1.45q.15.25.45.35l1.4.4.35.25.1.3-.1.3q-.15.2-.35.25l-.5.1-.55-.1q-.3-.15-.4-.3l-.15-.5-.45.1-.5-.15q-.1.45-.4.7-.3.3-.7.25-.35 0-.65-.2-.25-.15-.4-.5-.15-.35-.15-.85 0-.35.1-.75m-32.6 4.65v-1.25h2.1v-.4h-2.1v-1.2h2.2v-.4h-2.7v3.7h2.8v-.45h-2.3m-2.15-3.25h-1.7v3.7h.5v-1.65h.6q.1 0 .25.05l.25.1.25.25.85 1.25h.65l-1.1-1.5-.25-.15q.5-.1.75-.35.3-.3.25-.7 0-.3-.15-.55-.15-.3-.4-.35-.3-.1-.75-.1m-1.2.4h1.2q.4 0 .6.15.25.2.2.45l-.1.35-.3.2-.5.05h-1.1v-1.2m-43.5 19.6h-.5l-1.2 3.35-1.2-3.35H150l1.5 3.75h.5l1.45-3.75m3.3.45q-.2-.2-.5-.4-.3-.1-.7-.1-.4 0-.7.1-.35.15-.45.4-.2.25-.2.55l.15.45q.1.2.4.35l1.4.4.3.2.1.35-.1.3q-.1.2-.3.25l-.55.05-.55-.1q-.25-.05-.4-.25l-.15-.5-.4.05q0 .35.15.7.2.25.55.45l.85.1q.4 0 .75-.1.3-.15.5-.45.2-.2.15-.55 0-.3-.15-.55-.15-.2-.45-.35l-1.6-.55q-.2-.1-.2-.3 0-.2.25-.4.2-.2.65-.2t.65.2q.25.2.25.55l.5-.05q0-.3-.2-.6m7.4-27.9h-1.65v3.75h.5v-1.65H163.85l.2.1.3.25.85 1.3h.6l-1.05-1.5-.3-.2q.55-.05.8-.35t.25-.7q0-.3-.15-.55-.15-.25-.4-.4-.3-.05-.8-.05m-1.15.4h1.2q.4 0 .6.2.2.15.2.4l-.15.35-.25.25-1.6.05v-1.25m5.9 1.45q0-.5-.15-.9-.1-.35-.45-.65-.2-.2-.55-.25l-1.95-.05v3.75l1.95-.05.45-.2.35-.35q.2-.2.25-.55l.1-.75m-.7-.9q.25.35.2.9l-.1.7-.3.5q-.1.15-.3.15l-.6.1h-.8v-2.85l1.45.05q.25.15.45.45m30.7-50q-.3-.1-.75-.1h-1.7v3.75h.5v-1.65h.85l.25.1.25.25.85 1.3h.65l-1.1-1.5-.25-.2q.5-.05.75-.35.3-.3.25-.65 0-.35-.15-.6t-.4-.35m.05.95l-.1.3-.3.25-.5.05h-1.1v-1.25h1.2q.4 0 .6.2.25.2.2.45m3.65 2.7v-.45h-2.3v-1.3h2.1v-.4h-2.1v-1.15h2.2v-.45h-2.7v3.75h2.8m-45.85 16.75q-.2-.25-.5-.4-.3-.15-.7-.15-.4 0-.7.15-.35.1-.45.35-.2.25-.2.55l.15.45q.1.2.4.35l1.4.4.3.25.1.3-.1.3q-.1.2-.3.25l-.55.1-.55-.1q-.25-.1-.4-.3l-.15-.45-.4.05q0 .3.15.65.2.3.55.45l.85.1q.4 0 .75-.1.3-.15.5-.4t.15-.55q0-.35-.15-.55-.15-.25-.45-.4l-1.6-.5q-.2-.15-.2-.35 0-.2.25-.4.2-.15.65-.15t.65.15q.25.2.25.6l.5-.1q0-.3-.2-.55m-6.2-.45H150l1.5 3.7h.5l1.45-3.7h-.5l-1.2 3.3-1.2-3.3m18.25-24.9l.1-.75q0-.5-.15-.9-.1-.35-.45-.65-.2-.15-.55-.25l-1.95-.05v3.75l1.95-.05.45-.2.35-.3q.2-.25.25-.6m-.6-1.65q.25.3.2.9l-.1.75-.3.45q-.1.15-.3.2l-1.4.05v-2.85l1.45.05q.25.15.45.45m-4.35 1.15l.5.4.85 1.25h.6l-1.05-1.5-.3-.2q.55-.05.8-.35t.25-.7q0-.25-.15-.55-.15-.25-.4-.35-.3-.1-.8-.1h-1.65v3.75h.5V98.3H163.85m-.85-.45v-1.2h1.2q.4 0 .6.15.2.15.2.4l-.15.4-.25.2-1.6.05m94.75 13.1h-2.95v.45h1.25v3.25h.5v-3.25h1.2v-.45m1.8-.1q-.5 0-.95.25-.35.25-.6.7-.25.45-.25 1t.25 1q.2.45.6.7.45.25.95.2.55 0 .95-.2l.8.45.15-.3-.65-.4q.25-.25.4-.65.15-.3.15-.8 0-.55-.2-1-.25-.4-.65-.65t-.95-.3m-1.25 1.95q0-.75.35-1.15.35-.35.9-.35.4 0 .7.2.3.15.45.5.15.35.15.8 0 .8-.45 1.2-.25-.25-.7-.35l-.15.35.5.25-.5.05q-.55 0-.9-.35-.35-.4-.35-1.15m-20.3-9.2l.1.3-.1.35q-.15.2-.35.2l-.5.1-.55-.1q-.3-.1-.4-.25l-.15-.5-.45.05-.5-.15q-.1.5-.4.75-.3.25-.7.2-.35 0-.65-.15-.25-.15-.4-.55-.15-.35-.15-.8 0-.4.1-.75t.4-.55q.35-.2.75-.2.35 0 .6.2.3.2.4.55l.5-.1q-.15-.5-.55-.75-.4-.35-.95-.35-.5 0-.9.25-.45.2-.65.65-.25.45-.25 1.05 0 .55.2 1 .25.45.6.7.4.25 1 .25.55 0 .95-.3.4-.3.55-.9.05.35.25.65.15.25.55.4l.8.15q.45 0 .75-.15.35-.15.5-.4.15-.25.15-.55 0-.3-.15-.55-.15-.25-.45-.4l-1.6-.5q-.15-.15-.15-.3 0-.25.2-.45.2-.15.65-.15t.7.2q.2.2.25.5h.45q0-.3-.2-.6-.15-.2-.5-.4-.3-.15-.7-.15-.4 0-.7.15-.3.1-.45.35-.2.3-.2.55l.1.5q.15.2.45.3l1.4.45.35.2m-216.55 54q-.15-.3-.4-.4-.3-.1-.8-.1H18.6v3.75h.5v-1.65h.55q.15 0 .3.05l.2.05.25.25.9 1.3h.6l-1.05-1.5-.35-.2q.6-.05.85-.35.25-.25.25-.65 0-.3-.15-.55m-1.2-.1q.45 0 .65.2t.2.45l-.15.35-.3.2-.5.05H19.1v-1.25h1.15m4.6-.4h-.5l-1.2 3.35L22 157.1h-.6l1.5 3.75h.5l1.45-3.75m-3.25-55.55q0-.3-.15-.55-.15-.25-.4-.4-.3-.05-.8-.05H18.6v3.75h.5v-1.65H19.95l.2.1.25.25.9 1.3h.6l-1.05-1.55-.35-.15q.6-.1.85-.35.25-.3.25-.7m-1.35-.6q.45 0 .65.15.2.2.2.45l-.15.35-.3.25-.5.05H19.1v-1.25h1.15m4.6-.4h-.5l-1.2 3.35-1.15-3.35h-.6l1.5 3.75h.5l1.45-3.75m21.5-33q-.15-.2-.45-.4-.3-.1-.75-.1-.35 0-.7.1-.3.15-.45.4-.15.25-.15.5l.1.5q.15.2.45.35l1.4.4.3.2.1.35-.1.3q-.1.2-.3.2l-.55.15-.55-.15q-.3-.1-.4-.3l-.15-.45-.45.05q0 .35.2.7.2.25.55.4l.85.1q.4 0 .75-.1.3-.15.45-.4.2-.25.2-.55 0-.3-.2-.55-.15-.25-.45-.4l-1.6-.45q-.15-.15-.15-.4 0-.2.2-.4.2-.1.7-.1.4 0 .65.15.2.2.25.55l.45-.05q0-.3-.2-.6M52.1 51.5h-.7v.7h.7v-.7m24.4 17.95h-.7v5h.7v-5m3-10.25h-.65v2.85q0 .95-.35 1.3-.25.35-1 .3-.45 0-.75-.15-.25-.15-.4-.45-.15-.3-.1-1V59.2h-.7v2.9q0 .75.2 1.25.2.45.65.7.45.2 1.15.2T78.7 64q.45-.3.65-.75.15-.45.15-1.15v-2.9m-39.3 7.9h-.55l1.5 3.75h.5l1.45-3.75h-.5l-1.2 3.35-1.2-3.35M18.3 34.95h-.6l1.5 3.75h.5l1.45-3.75h-.5l-1.2 3.35-1.15-3.35m-3.45.85q-.2.4-.2 1 0 .55.2 1 .2.45.55.75.4.25 1.05.2.55 0 .95-.3.4-.3.55-.95l-.5-.1q-.05.45-.4.75-.25.25-.7.2-.3 0-.6-.2-.3-.15-.45-.55-.15-.3-.15-.8 0-.35.15-.7.1-.4.35-.6.35-.15.8-.2.3 0 .55.2.3.2.4.6l.5-.15q-.15-.5-.5-.75-.4-.35-.95-.35-.55 0-.95.3-.4.15-.65.65m39.4 12.05q-.35.35-.85.6v.6l1.2-.75v3.9h.65v-5h-.4q-.2.35-.6.65m-7.1-.4q-.6.25-.9.9-.25.55-.3 1.35 0 .7.3 1.3.25.65.75 1 .55.3 1.35.3.75 0 1.3-.4.55-.45.75-1.25l-.65-.2q-.15.65-.55.95-.35.35-.95.35-.4 0-.85-.25-.4-.25-.55-.7-.15-.5-.2-1.1 0-.55.15-1 .15-.5.55-.75t1-.25q.45 0 .8.25.35.25.5.8l.65-.15q-.2-.7-.7-1.1-.5-.35-1.25-.35-.65 0-1.2.3m-2-.25h-.65l-1.05 4.3-1.1-4.3h-.8l-1.2 4.3-.95-4.3h-.7l1.35 5h.7l1.2-4.35 1.2 4.35h.65l1.35-5m17.6-38.25h-.5l-1.2 3.4-1.2-3.4h-.55l1.5 3.8h.5l1.45-3.8m2.75.1l-2-.1v3.8h.5V11.2h1q.8 0 1.1-.3.3-.35.3-.85 0-.25-.15-.5-.1-.2-.3-.35-.15-.15-.45-.15m-.05.4q.2.05.3.2l.1.4q0 .4-.2.5-.15.2-.65.2h-1V9.4l1.45.05M124 70.3v-.85h-.7v.85l.15.95h.4l.15-.95m-1.15-.85h-.7v.85l.2.95h.4l.1-1.8m31.55-1.9q-.2.25-.2.5l.15.5q.1.2.4.35l1.4.4.3.2.1.35-.1.3q-.1.2-.3.2l-.55.15-.55-.15q-.25-.1-.4-.3l-.15-.45-.4.05q0 .35.15.7.2.25.55.4l.85.1q.4 0 .75-.1.3-.15.5-.4t.15-.55q0-.3-.15-.55-.15-.25-.45-.4l-1.6-.45q-.2-.15-.2-.4 0-.2.25-.4.2-.1.65-.1t.65.15q.25.2.25.55l.5-.05q0-.3-.2-.6-.2-.2-.5-.4-.3-.1-.7-.1-.4 0-.7.1-.35.15-.45.4m-3.85-.45H150l1.5 3.75h.5l1.45-3.75h-.5l-1.2 3.35-1.2-3.35M81.2 74.45h.65v-5h-.9l-1.45 4.3-1.4-4.3h-1.05v5h.65V70.2l1.45 4.25h.6l1.45-4.15v4.15m19.55-6.25l-.45.95h.5l.75-.95h-.8m-2.4 1.25h-.6v5h.6v-5m2.7 0h-.7l-1.9 5h.7l.55-1.5h2.1l.6 1.5h.75l-2.1-5M99.9 72.4l.8-2.4.85 2.4H99.9m-6.65-2.95h-.7v5h.7v-5m1.25 0h-.65v5h3.1v-.6H94.5v-4.4m-3.4.65q-.15-.3-.5-.45-.35-.2-.95-.2H87.8v5l2.7-.05q.35-.1.55-.25.2-.15.35-.5.15-.25.15-.6 0-.45-.2-.8-.25-.3-.7-.45.3-.15.5-.45.2-.3.2-.6 0-.35-.25-.65m-.6.3q.15.2.15.45t-.15.4q-.1.2-.35.25l-1.7.05v-1.5l1.75.1q.2.05.3.25m-2.05 3.45v-1.7h1.15l.75.1q.25.1.35.25.2.25.2.55l-.15.4-.25.3-.35.1h-1.7m-2.8-4.15q-.55-.3-1.25-.3-1.05 0-1.75.7-.6.7-.65 1.95 0 .65.3 1.25.3.55.85.9t1.25.35q.65 0 1.2-.3.55-.3.9-.9.3-.55.3-1.4 0-.7-.3-1.35-.3-.55-.85-.9m-1.25.25q.5 0 .9.25.4.3.6.7.2.5.2 1.05 0 1-.5 1.55-.45.5-1.2.5-.7 0-1.25-.5-.5-.55-.5-1.45 0-1.1.55-1.6.5-.5 1.2-.5m5.25-10.3q-.35-.3-.75-.4l-2.6-.05v5l2.6-.1.6-.25.45-.45.3-.7q.15-.45.15-1 0-.75-.2-1.2-.15-.55-.55-.85m-1.7.15q.65 0 .9.1.4.1.6.55.3.4.25 1.2l-.1 1q-.15.35-.35.6l-.45.25q-.3.15-.8.1h-1.05v-3.8h1m-3.8-.6h-.65v3.9l-2.6-3.9h-.7v5h.6v-3.95l2.65 3.95h.7v-5m1.45 0h-.65v5h.65v-5m13.9 1.3q-.1-.55-.55-.85-.3-.3-.75-.4l-2.6-.05v5l2.6-.1.6-.25.45-.45.35-.7q.15-.45.15-1 0-.75-.25-1.2m-2.2-.7q.6 0 .9.1.35.1.6.55.25.4.25 1.2l-.1 1q-.15.35-.4.6l-.45.25q-.3.15-.75.1h-1.1v-3.8h1.05m-3.85-.6h-.7l-1.9 5h.7l.55-1.5h2.1l.55 1.5h.8l-2.1-5m.5 2.95H92.3l.8-2.45.85 2.45m16.5 10.8h2.05l.6 1.5h.75l-2.05-5h-.7l-1.9 5h.65l.6-1.5m.95-2.95l.9 2.4h-1.7l.8-2.4m7-.55h-.7v5h.65v-3.9l2.65 3.9h.65v-5h-.6v3.95l-2.65-3.95m-3.25.85l.2.95h.4l.1-1.8h-.7v.85m1.15-.85v.85l.15.95h.4l.15-.95v-.85h-.7m-7.2 0h-.65v5h.65v-5m-4.1 2.8l.3.15.35.35 1.15 1.7h.8l-.85-1.35q-.25-.4-.55-.65l-.4-.25q.7-.1 1.05-.45.35-.35.35-.9 0-.45-.2-.8-.2-.25-.55-.45-.35-.15-1-.15h-2.25v5h.7v-2.2h1.1m-1.1-2.2h1.55q.6 0 .85.2.25.25.25.6 0 .25-.15.45t-.4.25l-.7.15h-1.4v-1.65m-2.5-10.25h2.95v-.6h-3.6v5h3.7v-.6h-3.05v-1.7h2.8v-.55h-2.8V59.8m59.3-11.2q-.2-.7-.75-1.1-.45-.35-1.2-.35-.7 0-1.25.3-.55.25-.85.9-.3.55-.3 1.35 0 .7.3 1.3.25.65.75 1 .5.3 1.35.3.75 0 1.3-.4.55-.45.75-1.25l-.7-.2q-.15.65-.5.95-.35.35-.95.35-.45 0-.85-.25-.4-.25-.55-.7-.15-.5-.2-1.1 0-.55.15-1 .15-.5.55-.75t1-.25q.45 0 .8.25.35.25.5.8l.65-.15m-10.9-1.4h-.7l1.35 5h.65l1.25-4.35 1.2 4.35h.65l1.35-5h-.65l-1.05 4.3-1.1-4.3h-.8l-1.2 4.3-.95-4.3m-18.25-12.25h-.5l-1.2 3.35-1.2-3.35h-.55l1.45 3.75h.55l1.45-3.75m-6 1.85q0-.35.1-.7.1-.4.4-.6.35-.15.75-.2.35 0 .6.2t.4.6l.5-.15q-.2-.5-.55-.75-.4-.35-.95-.35-.5 0-.95.3-.4.15-.6.65-.2.4-.2 1 0 .55.15 1 .25.45.6.75.4.25 1 .2.55 0 1-.3.35-.3.55-.95l-.5-.1q-.1.45-.4.75-.3.25-.7.2-.35 0-.65-.2-.3-.15-.4-.55-.15-.3-.15-.8m79.2 40.8h-2.25v5h.7v-2.2l1.15.05.3.1.35.35 1.1 1.7h.85l-.85-1.35q-.25-.45-.55-.7l-.4-.2q.7-.1 1.05-.5.35-.35.35-.9 0-.4-.2-.75-.25-.3-.6-.45-.35-.15-1-.15m-1.55.55h1.6q.55 0 .8.25.25.2.25.55 0 .25-.15.45t-.4.35l-2.1.05v-1.65m9.3-.55h-.65v5h.65v-5m-.85 0h-.7l-1.6 4.45-1.6-4.45h-.7l1.9 5h.7l2-5m3.55 5.25l.1-.2h-.45l-.15.45.4.05.1.1q.05.05.05.1l-.1.15q-.1.15-.45.1l-.3-.05-.05.45h.5q.5 0 .75-.15.25-.2.2-.5 0-.15-.15-.3-.1-.15-.45-.2m-1.95-4.15q-.3.6-.35 1.35 0 .75.3 1.35.25.65.8.95.35.25.85.3l.05-.1h.45l-.05.1q.75 0 1.3-.35.55-.45.8-1.3l-.7-.15q-.15.65-.55.95-.35.35-.95.35-.4 0-.8-.25t-.6-.7q-.15-.5-.2-1.15 0-.45.2-.95.15-.45.5-.7.4-.3 1-.3.5 0 .8.25.35.25.5.8l.65-.2q-.2-.7-.7-1.05-.5-.35-1.25-.35-.65 0-1.2.25-.55.3-.85.9m5.5-.45q-.65.65-.65 1.95 0 .65.25 1.2.3.65.85.95.55.35 1.25.3.7 0 1.2-.25.6-.3.9-.9.3-.6.3-1.4 0-.7-.3-1.3-.25-.6-.85-.95-.55-.35-1.25-.35-1.05 0-1.7.75m0 1.95q0-1.15.5-1.6.55-.5 1.2-.5.5 0 .9.25.45.25.6.7.2.45.2 1.05 0 1-.45 1.5-.5.55-1.25.55-.7 0-1.2-.55-.5-.5-.5-1.4M222 69.7v-.6h-3.65v5h3.75v-.55h-3.05V71.8h2.75v-.55h-2.75V69.7H222m-5.4-.15q-.3-.3-.75-.35l-2.6-.1v5l2.6-.05.6-.25.4-.45.4-.75q.15-.4.15-1 0-.7-.25-1.2-.15-.5-.55-.85m-.8.25q.35.15.6.55.3.45.3 1.2l-.15 1q-.15.4-.4.65l-.4.25q-.3.1-.8.1h-1.1V69.7h1.1q.6 0 .85.1m-6.15-.7h-.7l-1.9 5h.65l.55-1.5h2.1l.6 1.5h.75l-2.05-5m.5 3h-1.7l.8-2.45.9 2.45m-3.6-2.4v-.6h-3.65v5h3.75v-.55h-3.05V71.8h2.75v-.55h-2.75V69.7h2.95m-13.35 9.2q0 .35.2.65.15.25.5.45l1.85.55q.35.15.45.25.15.2.15.45t-.15.4q-.15.25-.45.35l-.65.1q-.45 0-.75-.15-.35-.15-.5-.4-.2-.2-.2-.6L193 81q0 .5.25.9t.75.6q.45.15 1.15.15.55 0 .95-.15.45-.2.65-.55.2-.35.2-.75t-.2-.7q-.2-.3-.6-.5l-1.1-.35q-.85-.15-1.05-.35-.2-.15-.15-.45 0-.3.25-.5.25-.25.9-.25.55 0 .85.25.3.25.35.7h.65q-.05-.45-.25-.8-.2-.35-.65-.55-.45-.15-1-.15-.5 0-.9.15-.4.2-.65.5-.2.3-.2.7m8.1 1.4v-.55h-2.75V78.2h2.95v-.6h-3.6v5h3.7v-.55h-3.05V80.3h2.75m-38.8-28.1v-.7h-.7v.7h.7M201 69.25q-.35-.15-1-.15h-2.25v5h.7v-2.2l1.15.05.3.15.3.3 1.15 1.7h.85l-.9-1.3q-.25-.45-.55-.7l-.4-.25q.7-.1 1.1-.45.3-.4.3-.9 0-.45-.2-.8-.2-.3-.55-.45m-1 .4q.6 0 .85.25.25.2.25.6 0 .25-.15.45t-.4.3l-2.1.05v-1.65H200m-4.35-.55h-.7l-1.9 5h.65l.6-1.5h2.1l.55 1.5h.8l-2.1-5m-.6 1.5l.25-.95.85 2.45h-1.7l.6-1.5m1.1-2.75h-.85l-.4.95h.5l.75-.95m-32.3-20.3q-.45.4-.5 1.1l.6.05q0-.45.25-.75.3-.25.75-.25.4 0 .7.25.25.25.25.65 0 .3-.3.7-.3.45-1.1 1.1l-.8.75q-.3.3-.4.65l-.05.4h3.25v-.55h-2.45l.3-.35 1.65-1.5.4-.65q.1-.25.1-.55 0-.6-.4-1t-1.1-.4q-.75 0-1.15.35m9.3-38.6h-.5l-1.2 3.4-1.2-3.4h-.55l1.45 3.8h.55l1.45-3.8m3.2.25q-.15-.15-.45-.15l-2-.1v3.8h.5V11.2h1q.8 0 1.1-.3.3-.35.25-.85 0-.25-.1-.5-.1-.2-.3-.35m-1.95 1.55V9.4l1.45.05q.2.05.3.2l.1.4q0 .4-.2.5-.15.2-.65.2h-1m53.15 7.6h-1.7v3.75h.55v-1.65h.8l.25.1.25.25.85 1.3h.65l-1.1-1.5-.3-.2q.55-.1.8-.35.25-.3.25-.7 0-.3-.1-.55-.2-.25-.45-.35-.25-.1-.75-.1m-.1 1.65h-1.05v-1.25h1.15q.4 0 .6.15.2.2.2.45l-.1.35-.3.25-.5.05m1.8-1.65h-.55l1.45 3.75h.5l1.5-3.75h-.55l-1.2 3.35-1.15-3.35m28.5 36.45v-.45h-2.95v.45h1.25v3.3h.5v-3.3h1.2m2.75-.25q-.4-.25-.95-.3-.5 0-.95.25-.35.3-.6.7-.25.5-.25 1.05t.25 1q.2.45.6.65.45.3.95.25.55 0 .95-.25l.8.45.15-.3-.65-.35q.25-.3.4-.65.15-.35.15-.8 0-.55-.2-1-.25-.45-.65-.7m-.95.15q.4 0 .7.2.3.2.45.5.15.35.15.85 0 .8-.45 1.15-.25-.2-.7-.3l-.15.3.5.25-.5.1q-.55 0-.9-.4t-.35-1.1q0-.8.35-1.15.35-.4.9-.4m112.4 202.9h-1.65v3.75h.5v-1.65h.8l.25.1.3.25.8 1.3h.65l-1.1-1.55-.25-.15q.5-.1.75-.35.3-.3.3-.7 0-.25-.15-.55-.2-.3-.45-.35-.25-.1-.75-.1m-1.15.45h1.2q.4 0 .55.15.25.15.2.4l-.1.4-.25.2-1.6.05v-1.2m5.55.15q-.1-.25-.3-.4-.15-.15-.5-.15l-1.95-.05v3.75h.5v-1.55h.95q.85 0 1.1-.3.3-.35.3-.8 0-.3-.1-.5m-.85-.15q.2.1.35.25l.1.4q0 .35-.2.5-.2.2-.7.2h-.95v-1.35h1.4z"/><path fill="#FFF" d="M47.55 201.25l-.55-2h-9v2h9.55m109.85-2h-9.05v2h9.55l-.5-2m-10.2-9.2q0-1.05.65-1.85.3-.3.7-.6-.4.3-.7.6h13.9q.1-.8.2-1.7H144.1v2h1.2l2.05 2.7q-.2-.55-.15-1.15m1.15-47.4v2h9.55l-.5-2h-9.05m13.4-11q.1-.85.2-1.75H144.1v2.05h1.2l2.05 2.7q-.2-.55-.15-1.2 0-1.05.65-1.8.3-.35.7-.6-.4.25-.7.6h13.9M34.95 188.5l2.05 2.7q-.2-.55-.2-1.15.05-1.05.7-1.85.25-.3.65-.6-.4.3-.65.6h13.85q.15-.8.2-1.7h-17.8v2h1.2m12.6-43.85l-.55-2h-9v2h9.55m3.8-13q.15-.85.2-1.75h-17.8v2.05h1.2l2.05 2.7q-.2-.55-.2-1.2.05-1.05.7-1.8.25-.35.65-.6-.4.25-.65.6h13.85M38 86.05v2h9.55l-.55-2h-9m-3.05-10.7L37 78.1q-.2-.6-.2-1.25.05-1.05.7-1.75.25-.4.65-.65-.4.25-.65.65h13.85q.15-.9.2-1.75h-17.8v2h1.2m113.4 12.7h9.55l-.5-2h-9.05v2m13.6-14.7H144.1v2h1.2l2.05 2.75q-.2-.6-.15-1.25 0-1.05.65-1.75.3-.4.7-.65-.4.25-.7.65h13.9q.1-.9.2-1.75z"/><path fill="#E8F5F2" d="M147.35 191.2q.3.85 1 1.35v6.7h9.05l-1.1-3.85q-1-1.3-2.55-1.75-1.6-.5-3.15 0 1.55-.5 3.15 0 1.55.45 2.55 1.75 2.5-1.3 4-3.7 1.05-1.65 1.45-3.5h-13.9q-.65.8-.65 1.85-.05.6.15 1.15m12.95-56.1q1.05-1.6 1.45-3.45h-13.9q-.65.75-.65 1.8-.05.65.15 1.2.3.8 1 1.35v6.65h9.05l-1.1-3.8q-1-1.3-2.55-1.8-1.6-.45-3.15 0 1.55-.45 3.15 0 1.55.5 2.55 1.8 2.5-1.35 4-3.75M37 191.2q.25.85 1 1.35v6.7h9l-1.1-3.85q-.95-1.3-2.55-1.75-1.55-.5-3.1 0 1.55-.5 3.1 0 1.6.45 2.55 1.75 2.5-1.3 4.05-3.7 1-1.65 1.4-3.5H37.5q-.65.8-.7 1.85 0 .6.2 1.15m8.9-52.35q-.95-1.3-2.55-1.8-1.55-.45-3.1 0 1.55-.45 3.1 0 1.6.5 2.55 1.8 2.5-1.35 4.05-3.75 1-1.6 1.4-3.45H37.5q-.65.75-.7 1.8 0 .65.2 1.2.25.8 1 1.35v6.65h9l-1.1-3.8M37.5 75.1q-.65.7-.7 1.75 0 .65.2 1.25l1 1.3v6.65h9l-1.1-3.85q-.95-1.25-2.55-1.7-1.55-.5-3.1 0 1.55-.5 3.1 0 1.6.45 2.55 1.7 2.5-1.3 4.05-3.7 1-1.6 1.4-3.4H37.5m118.8 7.1q2.5-1.3 4-3.7 1.05-1.6 1.45-3.4h-13.9q-.65.7-.65 1.75-.05.65.15 1.25l1 1.3v6.65h9.05l-1.1-3.85q-1-1.25-2.55-1.7-1.6-.5-3.15 0 1.55-.5 3.15 0 1.55.45 2.55 1.7z"/><path fill="#F5FEFF" d="M249.8 182.1q-.6.8-.6 1.75 0 1 .6 1.75.65.75 1.6.95.9.25 1.8-.1l12.7-8.8q-7.75-.8-15.2 1.25 7.45-2.05 15.2-1.25v-3.9h-17.2v27.5h5.75l-1.25-14.8q-.9.35-1.8.1-.95-.2-1.6-.95-.6-.75-.6-1.75 0-.95.6-1.75m16.1-61v-3.95h-17.2v27.5h5.75l-1.25-14.8q-.9.35-1.8.15-.95-.25-1.6-1-.6-.75-.6-1.7 0-1 .6-1.75-.6.75-.6 1.75 0 .95.6 1.7.65.75 1.6 1 .9.2 1.8-.15l12.7-8.75q-7.75-.85-15.2 1.2 7.45-2.05 15.2-1.2m0-56.6v-3.95h-17.2v27.5h5.75l-1.25-14.8q-.9.4-1.8.15-.95-.2-1.6-1-.6-.7-.6-1.7t.6-1.75q-.6.75-.6 1.75t.6 1.7q.65.8 1.6 1 .9.25 1.8-.15l12.7-8.75q-7.75-.85-15.2 1.25 7.45-2.1 15.2-1.25z"/></g><path id="sis01_02_36_2q" stroke="#292929" stroke-width=".2" stroke-linejoin="bevel" fill="none" d="M445.75 232.7v5.8q-21.35-7.15-43.9-7.15-22.5 0-43.9 7.15v-5.8H319.3V251l44.5 8.95q0-3.5 2.5-6 2.45-2.5 5.95-2.5 3.55 0 6 2.5 2.5 2.5 2.5 6t-2.5 5.95q-2.45 2.5-6 2.5-3.5 0-5.95-2.5-2.5-2.45-2.5-5.95M248.7 88.05v-27.5h17.2v3.95l-12.7 8.75 1.25 14.8h16.2V0H0v201l28.15.25V31.5M249.8 68.95q-.6.75-.6 1.75t.6 1.7q.65.8 1.6 1 .9.25 1.8-.15m1.25 14.8h-5.75q0 2.2-1.55 3.8-1.55 1.6-3.8 1.6h-6.55v6.2h-6.3v-6.2q-2.2 0-3.8 1.55-1.55 1.55-1.55 3.8v45.85h23.55v-27.5h17.2v3.95l-12.7 8.75 1.25 14.8h16.2v-56.6M265.9 64.5q-7.75-.85-15.2 1.25m-102.35 22.3q0 2.25 1.6 3.8 1.6 1.6 3.75 1.6h20.6q2.2 0 3.75 1.55 1.55 1.5 1.6 3.6V88.05h-31.3V79.4l-1-1.3-2.05-2.75h-1.2v-2h17.85q-.1.85-.2 1.75-.4 1.8-1.45 3.4-1.5 2.4-4 3.7l1.1 3.85.5 2m90.8 0h-18.2v5.4h6.3m-57.15-84.3v78.9h50.85v-62.6m-72.6 119.2h21.75V98.6m-31.3 46.05q0 2.2 1.6 3.8 1.6 1.55 3.75 1.55h20.6q2.2 0 3.75 1.6 1.55 1.5 1.6 3.55v-10.5h45.5v10.5q.1-2.1 1.55-3.55 1.6-1.6 3.8-1.6h12.85q2.25 0 3.8-1.55 1.55-1.6 1.55-3.8h5.75m-74.8 10.5v26.05l45.5-25.85v-.2M236.8 150v6.25h-6.3V150m19.3-24.45q-.6.75-.6 1.75 0 .95.6 1.7.65.75 1.6 1 .9.2 1.8-.15m12.7-8.75q-7.75-.85-15.2 1.2m-.9 59.8q-.6.8-.6 1.75 0 1 .6 1.75.65.75 1.6.95.9.25 1.8-.1l12.7-8.8q-7.75-.8-15.2 1.25m-2 22.35v-27.5h17.2v3.9M225.15 98.8l-45.5 25.85M156.3 82.2q-1-1.25-2.55-1.7-1.6-.5-3.15 0m-3.25-2.4q-.2-.6-.15-1.25 0-1.05.65-1.75.3-.4.7-.65m13.2.65h-13.9m.5 10.95h9.05m-9.05 2h-9.8v14.45q4.95.8 9.25-1.75t5.9-7.3M138.55 31.5v56.55H38q0 2.25 1.55 3.8 1.6 1.6 3.8 1.6H63.9q2.25 0 3.8 1.55 1.55 1.55 1.55 3.8v45.85h69.3V102.5m-87.2-27.4q.15-.9.2-1.75h-17.8v2h1.2L37 78.1q-.2-.6-.2-1.25.05-1.05.7-1.75.25-.4.65-.65M37 78.1l1 1.3v6.65h9l-1.1-3.85q-.95-1.25-2.55-1.7-1.55-.5-3.1 0M38 86.05v2h-9.85m23.2-12.95q-.4 1.8-1.4 3.4-1.55 2.4-4.05 3.7m1.1 3.85l.55 2m21.7 0V9.15M37.5 75.1h13.85m0 56.55q.15-.85.2-1.75h-17.8v2.05h1.2l2.05 2.7q-.2-.55-.2-1.2.05-1.05.7-1.8.25-.35.65-.6m7.75 7.8q-.95-1.3-2.55-1.8-1.55-.45-3.1 0m6.75 5.6l.55 2h21.7v56.6h69.3V144.65h9.8V136q-.7-.55-1-1.35l-2.05-2.7h-1.2v-2.05h17.85q-.1.9-.2 1.75-.4 1.85-1.45 3.45-1.5 2.4-4 3.75l1.1 3.8.5 2h-9.55m-97-13q-.4 1.85-1.4 3.45-1.55 2.4-4.05 3.75l1.1 3.8h-9v2h9.55m-19.4-42.15q4.95.8 9.3-1.75 4.25-2.55 5.9-7.3l25.9 31.6M37 134.65q.25.8 1 1.35v6.65m0 2q0 2.2 1.55 3.8 1.6 1.55 3.8 1.55H63.9q2.25 0 3.8 1.6 1.5 1.45 1.55 3.55M38 144.65h-9.85m15.2 5.35q-1.65 4.75-5.9 7.35-4.35 2.55-9.3 1.75M37 191.2l-2.05-2.7h-1.2v-2h17.8q-.05.9-.2 1.7-.4 1.85-1.4 3.5-1.55 2.4-4.05 3.7l1.1 3.85.55 2h21.7v16q0 2.15.8 4.15.8 1.95 2.35 3.45 1.5 1.55 3.5 2.35 1.9.8 4.1.8l108.1 11.4q-.95-.2-1.85-.6-1.95-.8-3.45-2.3-1.55-1.5-2.35-3.5-.8-1.95-.8-4.1v-17.15q-.05-2.1-1.6-3.6-1.55-1.55-3.75-1.55h-20.6q-1.6 4.7-5.9 7.3-4.3 2.55-9.25 1.75v-14.4h9.8v-8.7q-.7-.5-1-1.35l-2.05-2.7h-1.2v-2h17.85q-.1.9-.2 1.7-.4 1.85-1.45 3.5-1.5 2.4-4 3.7l1.1 3.85.5 2h21.75V181.2m-141.5 6.4q-.4.3-.65.6h13.85m-14.35 3q.25.85 1 1.35v6.7h9m-9.5-11.05q-.65.8-.7 1.85 0 .6.2 1.15m8.9 4.2q-.95-1.3-2.55-1.75-1.55-.5-3.1 0m11.1-62H37.5m124.25 0h-13.9q-.65.75-.65 1.8-.05.65.15 1.2m1.2-3.6q-.4.25-.7.6m8.45 7.2q-1-1.3-2.55-1.8-1.6-.45-3.15 0m-2.25 5.6h9.05m-18.85 16.45q4.95.8 9.25-1.75 4.3-2.6 5.9-7.35m8.05 38.2h-13.9q-.65.8-.65 1.85-.05.6.15 1.15m1.2-3.6q-.4.3-.7.6m8.45 7.2q-1-1.3-2.55-1.75-1.6-.5-3.15 0m-2.25 5.6h9.05m-3.7 7.35q-2.15 0-3.75-1.6-1.6-1.55-1.6-3.75h9.55m-119.9 0q0 2.2 1.55 3.75 1.6 1.6 3.8 1.6H63.9q2.25 0 3.8 1.55 1.5 1.5 1.55 3.6M38 199.25v2h-9.85v14.4q4.95.8 9.3-1.75 4.25-2.6 5.9-7.3m4.2-5.35H38m281.3 31.45h-15.65V251h15.65m-48.65-106.35v88.05h33m-33-31.45H248.7m5.75 0l-1.25-14.8m-4.5 14.8q0 2.2-1.55 3.75-1.55 1.6-3.8 1.6h-6.55v6.25h-6.3v-6.25q-2.2 0-3.8 1.55-1.45 1.5-1.55 3.6v30.15l78.5 5.1m-73.15-40.4h6.3m-11.65 5.15v-10.5h-45.5v10.5m45.5 30.15l-34.75-2.25q-1.2 0-2.3-.25m-8.45-10.5l45.5-16.95m0-56.6v45.9h23.55"/></defs><use filter="url(#sis01_02_36_2a)" xlink:href="#sis01_02_36_2b"/><g id="fadeInUp"><g transform="matrix(1 0 0 1 8.5 9.75) matrix(.56068 0 0 .56068 278.45 1.4)"><clipPath id="sis01_02_36_2c"><path fill="#FFF" d="M-2-2h245.9v21.9H-2z"/></clipPath><text clip-path="url(#sis01_02_36_2c)" writing-mode="lr"><tspan x="0" y="14.5" baseline-shift="0%" font-family="Arial_Regular" font-size="16" fill="#292929">RD - RAMAL DE DESCARGA</tspan></text></g><g transform="matrix(1 0 0 1 8.5 9.75) matrix(.56068 0 0 .56068 278.45 18.6)"><clipPath id="sis01_02_36_2d"><path fill="#FFF" d="M-2-2h218.5v21.9H-2z"/></clipPath><text clip-path="url(#sis01_02_36_2d)" writing-mode="lr"><tspan x="0" y="14.5" baseline-shift="0%" font-family="Arial_Regular" font-size="16" fill="#292929">RE - RAMAL DE ESGOTO</tspan></text></g><g transform="matrix(1 0 0 1 8.5 9.75) matrix(.56068 0 0 .56068 278.45 34.35)"><clipPath id="sis01_02_36_2e"><path fill="#FFF" d="M-2-2h187.8v21.9H-2z"/></clipPath><text clip-path="url(#sis01_02_36_2e)" writing-mode="lr"><tspan x="0" y="14.5" baseline-shift="0%" font-family="Arial_Regular" font-size="16" fill="#292929">SC - SUBCOLETOR</tspan></text></g><g transform="matrix(1 0 0 1 8.5 9.75) matrix(.56068 0 0 .56068 278.45 52.85)"><clipPath id="sis01_02_36_2f"><path fill="#FFF" d="M-2-2h206.45v21.9H-2z"/></clipPath><text clip-path="url(#sis01_02_36_2f)" writing-mode="lr"><tspan x="0" y="14.5" baseline-shift="0%" font-family="Arial_Regular" font-size="16" fill="#292929">TQ - TUBO DE QUEDA</tspan></text></g><g transform="matrix(1 0 0 1 8.5 9.75) matrix(.56068 0 0 .56068 278.45 68.55)"><clipPath id="sis01_02_36_2g"><path fill="#FFF" d="M-2-2h203.15v21.9H-2z"/></clipPath><text clip-path="url(#sis01_02_36_2g)" writing-mode="lr"><tspan x="0" y="14.5" baseline-shift="0%" font-family="Arial_Regular" font-size="16" fill="#292929">CP - COLETOR PREDIAL</tspan></text></g><g transform="matrix(1 0 0 1 8.5 9.75) matrix(.56068 0 0 .56068 278.45 85.5)"><clipPath id="sis01_02_36_2h"><path fill="#FFF" d="M-2-2h262.35v21.9H-2z"/></clipPath><text clip-path="url(#sis01_02_36_2h)" writing-mode="lr"><tspan x="0" y="14.5" baseline-shift="0%" font-family="Arial_Regular" font-size="16" fill="#292929">VP - VENTILAÇÃO PRIMÁRIA</tspan></text></g><g transform="matrix(1 0 0 1 8.5 9.75) matrix(.56068 0 0 .56068 278.45 102.7)"><clipPath id="sis01_02_36_2i"><path fill="#FFF" d="M-2-2h262.35v21.9H-2z"/></clipPath><text clip-path="url(#sis01_02_36_2i)" writing-mode="lr"><tspan x="0" y="14.5" baseline-shift="0%" font-family="Arial_Regular" font-size="16" fill="#292929">CV - COLUNA DE VENTILAÇÃO</tspan></text></g><g transform="matrix(1 0 0 1 8.5 9.75) matrix(.56068 0 0 .56068 278.45 119.6)"><clipPath id="sis01_02_36_2j"><path fill="#FFF" d="M-2-2h228.4v21.9H-2z"/></clipPath><text clip-path="url(#sis01_02_36_2j)" writing-mode="lr"><tspan x="0" y="14.5" baseline-shift="0%" font-family="Arial_Regular" font-size="16" fill="#292929">CI - CAIXA DE INSPEÇÃO</tspan></text></g><g transform="matrix(1 0 0 1 8.5 9.75) matrix(.56068 0 0 .56068 278.45 136.6)"><clipPath id="sis01_02_36_2k"><path fill="#FFF" d="M-2-2h184.55v21.9H-2z"/></clipPath><text clip-path="url(#sis01_02_36_2k)" writing-mode="lr"><tspan x="0" y="14.5" baseline-shift="0%" font-family="Arial_Regular" font-size="16" fill="#292929">RP - REDE PÚBLICA</tspan></text></g><g transform="matrix(1 0 0 1 8.5 9.75) matrix(.56068 0 0 .56068 278.45 153.45)"><clipPath id="sis01_02_36_2l"><path fill="#FFF" d="M-2-2h255.8v21.9H-2z"/></clipPath><text clip-path="url(#sis01_02_36_2l)" writing-mode="lr"><tspan x="0" y="14.5" baseline-shift="0%" font-family="Arial_Regular" font-size="16" fill="#292929">RV - RAMAL DE VENTILAÇÃO</tspan></text></g><g transform="matrix(1 0 0 1 8.5 9.75) matrix(.56068 0 0 .56068 278.45 170.15)"><clipPath id="sis01_02_36_2m"><path fill="#FFF" d="M-2-2h194.4v21.9H-2z"/></clipPath><text clip-path="url(#sis01_02_36_2m)" writing-mode="lr"><tspan x="0" y="14.5" baseline-shift="0%" font-family="Arial_Regular" font-size="16" fill="#292929">VS - VASO SANITÁRIO</tspan></text></g><g transform="matrix(1 0 0 1 8.5 9.75) matrix(.56068 0 0 .56068 278.45 187.6)"><clipPath id="sis01_02_36_2n"><path fill="#FFF" d="M-2-2h219.6v21.9H-2z"/></clipPath><text clip-path="url(#sis01_02_36_2n)" writing-mode="lr"><tspan x="0" y="14.5" baseline-shift="0%" font-family="Arial_Regular" font-size="16" fill="#292929">TQ - TANQUE PARA LAVAR</tspan></text></g><g transform="matrix(1 0 0 1 8.5 9.75) matrix(.56068 0 0 .56068 278.45 204.25)"><clipPath id="sis01_02_36_2o"><path fill="#FFF" d="M-2-2h221.8v21.9H-2z"/></clipPath><text clip-path="url(#sis01_02_36_2o)" writing-mode="lr"><tspan x="0" y="14.5" baseline-shift="0%" font-family="Arial_Regular" font-size="16" fill="#292929">CS - CAIXA SIFONADA</tspan></text></g><g transform="matrix(1 0 0 1 8.5 9.75)"><use xlink:href="#sis01_02_36_2p"/><use xlink:href="#sis01_02_36_2q"/></g></g></svg>