<svg xmlns="http://www.w3.org/2000/svg" xmlns:xlink="http://www.w3.org/1999/xlink" preserveAspectRatio="none" width="245" height="264" viewBox="0 0 245 264"><defs><radialGradient id="sis01_02_7_3a" gradientUnits="userSpaceOnUse" cx="0" cy="0" r="8.412" fx="0" fy="0" gradientTransform="matrix(-1 0 0 1 107.35 37.8)" spreadMethod="pad"><stop offset="1.961%" stop-color="#FFF"/><stop offset="100%" stop-color="#FFF" stop-opacity="0"/></radialGradient><radialGradient id="sis01_02_7_3b" gradientUnits="userSpaceOnUse" cx="0" cy="0" r="7.838" fx="0" fy="0" gradientTransform="matrix(1 0 0 1 126.4 38.25)" spreadMethod="pad"><stop offset="1.961%" stop-color="#FFF"/><stop offset="100%" stop-color="#FFF" stop-opacity="0"/></radialGradient><g id="sis01_02_7_3c"><path fill="#9099A3" d="M171.9 262.3q.1.35.1.6h.2l-.3-.6m-5.3-19.35l-.1.1q.35.3.75.75.55.6 1 1.1-.05-.1-.1-.15-.45-.8-1.55-1.8m-93.05-.6q.4-.35.75-.6.2-.15.4-.2-.1-.2-.15-.35l-1 1.15m50.9 11.5l.75.1q.3-.25.3-2.5h-5.6q3.35.6 4.55 2.4m-36.95-7.5q-1.95-.35-4.5-.9l-2.05-.45q-2.95-.85-4.3-1.6h-.1q-.95-.5-1.4-1.1-.6.55-1.75 1.65-2.25 2.4-2.65 4.5l-1.05 3.15q-.9 2.65-.9 3.55l.05 3.9q0 .65.55 2.1.5 1.45.5 1.55v.2h10.85l.4-.5q1.8-2.05 2.45-2.95l.2-.3q1.45-3.85 3.15-7.5 1.35-2.85 2.05-3.7l.15.15-.55 1.9q2 2.3 3.05 3.35.4-.35 2.75-1.45 2.45-1.3 3.25-1.45h5.9v1.65l1.7.2q.1 0 4.2-.65 1.7-.2 2.9-.35.75-.15 1.35-.15-1.95-.7-2.45-2.95-1 0-2-.1-9.4-.2-12.05-.5.45-7.7.2-7.75-1.5-.45-3.4-1.65-1.6-1-2.2-1.1-.05.55-.05 1.4 0 3.7.3 8.4 0-.25-2.05-.4-2.1-.15-2.5-.15m62.35-6.35q-1.9.25-2.2.25-.3 4.7-.3 7.35l-16.5.65v.1q-.7 2.95-4.2 3.1h2.2q.9.2 9.7 1.2.9-.85 1-1.45-.1-.65-.15-1.2.65 0 4.85-.7 4.4-.5 6.85.4l-.7-1.9q1.95 1.35 3.25 4.25 2.35 5.65 3.55 7.9.3.2 3.7 2.95h9.2q-.5-1-.95-3-.9-3.8-.75-6.45.3-1.95 0-5.3-.15-1.4-1.85-3.25-.75-.8-1.15-1.25h-.15q-.55 0-.75-.25-1.15.9-2.1 1.3-2.8 1.15-9.7 1.6v-6.7q-.8.15-2.85.4z"/><path fill="#AF886A" d="M227.85 217.95q4.35 0 6.4-1.75-1.7 1.1-3.85 1.15h-5.75q-1.8.05-3.9-.35 3.65.95 7.1.95m-206.1 12.5H22q-1.6-.1-2.9-.4 1.3.4 2.65.4m108.3-122.95q-.65.9-1.35 1.95-1.25 1.9-2.35 3.65 1.7-2.1 3.7-5.6M12.3 166l-.05-.05v.05h.05m113-60.55h-.15q-.1.3-.3.6.05.05.2-.05.15-.2.25-.55m12.4-46.8q.1-.4 1.3-2.15-3.8-4.7-5.45-4.9.85 1.8 4.15 7.1v-.05M113.5 98.5q-.7-.6-1.3-1.2 1 1.25 2.1 2.55 2.45 2.95 4.3 5.45 1.2 1.55 2.15 3-3.9-6.9-7.25-9.8m-12.6-27.45q-.15-.2-.2-.3-.15 1.45-.3 2.35l.5.2q0 .1.05.15 0 .05-.3.05-.15 0-.4.75-.25 2.7-.35 4.35.6 4 3.7 8.25 2.3 3.1 8.65 9.25 6.2 6.05 8.65 9.5 2.9 4.1 3.65 8.2.4-.75.85-1.5 3.75-5.75 5.9-9.05 8.6-13.15 8.6-20.8 0-1.95-.3-4.4-.05-.35-.05-.7-1.15.8-2.6 2.1-2.05 2.15-2.25 3.15.35 4.1-1.2 10.3-1.45 5.85-2.65 6.65l.45-1.65q1.05-4.4 1.4-5.95.6-2.6 1.3-7.3-4.15 12.35-5.05 14.85-3.1 8.3-4.35 8.3-1 0-1.8-.55-.7-.6-.85-.65 2.15-2.6 2.9-6.15l-.15-.6.95-4.65q-.5-3.05-.5-4.1 0-.55.3-1.15.05-.05.15-.1.3-.6.45-1-.4.6-.75 1-.45.35-1 .35-2.8 0-5.15-1.55-.3-.2-.55-.4-.45-.35-.8-.7-1.3-1.25-1.9-2.95-.05-.15-.05-.25l-.4-1q0 .2-.15 1-.1.25-.15.6 0 .2-.1.45-.15.95-.15 1.4 0 4.05 1.3 7.2 1.75 4.4 1.9 5.05 0 .1.15.25 0 .05-.55.05-1.35 0-3.45-5.05-3.3-7.9-4.85-10.65-.85-1.45-4.8-7.25-.4-.5-.7-.95-2.15-3.25-3-4.4m-53.95 132.2q-.2-.05-.35-.05-.25.9-1 2.15-.65 1.2-1.5 2.7-2.05 3.55-2.75 5.3-.1.5-.1 1.05-.05 3.1.4 4.05.05 0 .05-.05.5.6.85 1.15.25-.45.75-1.3 1.1-1.9 1.35-2.85l1.1-4.65q.3-1.25.75-4.65.2-1.7.45-2.85m-16.65 0v.6q1.7-3.05 1.45-4.55-.5.7-1.45 3.95m4.8 6l-.1-.1.4-1.6q-.3.7-.4 1.3-.25.6-.3 1.05.3 2.25-.05 4.35-.15.2-.15.35v1.45l.15-.05v-.15q0-.15.05-.4l.55 1.5q1.3 2.8 3.2 5.25.05-.05.15-.1-.3-.55-.55-1.1-2.35-5.25-2.05-8.75.2-1.55.7-3.85.15-1.05.4-2.25-.05 0-.25.6l-.05.15-.55.75q-.35.5-.7 1.05-.25.3-.45.55m-2.75-9.95l-.05-.05q.05 2.05-1.15 5.35-.9 2.75-1.35 3.25-.6.95-.4.4-.05-.8.35-2.2.25-1.25.25-1.75-1.1 2.85-1.45 5.9-.05.7-.2 1.4-.05 1.5 0 2.55 0 .65.1 1.2l.05.05v.05q.1.15.05.25.4.6 1.4 1.85l.1.2q.85 1.05 1.2 1.25.3.25.55.3.2.1.3 0h.65l-.1-.3q-.2-.2-.25-.45-2.95-5.3-2.95-8.45-.05-.85.2-1.55.95-1.95 1.5-3.4 1.15-2.6 1.2-5.85m3.85.7h.05q-1.25-2.05-3.05-2.65 1.55 1.6 3 2.65m-9.15-10q1.2 1.85 2.4 2.65 2.7 1.75 6.45 4.4 2.4 1.65 4.5 4.7 1.7 2.5 1.75 2.55l.5.3q.05-.05-.05-.1.05 0 .35.1l.35-.5q.45-.55-1.15-2.75-2.15-3.3-2.7-4.7-.25-.2.25-2.25v-.2q.1-.95-.2-1.75-.35-1.1-1.25-2.05-.05-.1-.15-.15-.1.25-.45.25h-.1q-.55.25-.75.6v.1l-.65 1.15q-.15.1-.2.2-.85.9-3.05.6-3.1-.4-5.85-3.15m-1.15-1.05q-.05-.1-.2-.2v.2q.2.6.3 1.05.15.2.2.4-.2-.2-.3-.4-.55-.6-1.1-1.15-.4-.45-.85-.8-.45-.55-1-1.1.7.3 1.55.7-.05-.1-1.2-1-.65-.45-1.55-.55-.15 0-1.5-.1l-.6.65q0 .25.9.85.1.15 1.55.35.9.1 1.4.2l.15.05q.2.05.55.75.2.45.5 1.15.05.2.1.45.15.35.25.65.85 1.15.85 2.15l.1.1v.3l-.35.65-.1.2-.2.6q-.35.5-.4.4l-1.1 2.05 1.7-1.2q-.2.55-1.4 3.2v.05q-.2.25-.25.5-1.15 2.05-1.3 2.4-.15.05-.15.15-3.2 4.7-2.75 8.1v.3q.1.75.4 1.45.6 1.2 1.95 2.1.3.25.65.3.05.1.25.1l.3.1q-.05-.05-.05-.1-.5-.4-.85-.85-.2-.2-.3-.45-.9-1.35-1.15-2.95-.5-3.25 2.1-7.6 4.4-7.7 4.75-9.15 2.65 1.9 3.4 3.25.05 1.15.3 1.45-.15-.65.3-.3l-.05.05q-.45 0 .4.55.55-.2.8-.2.6-.1 1 .2.45.3 2.55 4.7 0-.35.05-.55.35.7.6 1.85.95.5 1.5 1.45.3.5.55 1 .25.4.35.65 1.45.7 2 1.15.05.05.2.15l.35-.7h.05q.3-.45.2-.95v-.1q0-.6-.55-1-.2-.2-.35-.5-.45-.4-1.05-1-1.15-1.05-2-1.6l-.15-.15q-.75 0-1.45-.3.3-.35.1-1.05.45.75 1.15 1.2-.9-1.75-1.4-2.45.2.35.4 1.1-1.3-1.7-3.45-3.25l-.85-.6.95.3q-.65-.55-.95-.4-.05-.4.2-.8-.3-.7-2.5-2.25-1-.7-2.1-1.85 1.5 1.25 3.85 3.05-.35-1.1-1.5-2.1-.65-.45-2.7-1.85-.5-.4-.9-1.35-.25-.4-.45-.8-.35-.6-.7-1.05m-3.6-7.35q-.3-.25-.45-.55L20.6 184q1.45.55 2.15.8 1.65.65 3.25 2.7.2.25.45.35.55.6 1 1.15.55.6 1.05 1 .45.45.85.7 1.95 1.45 3.65 1.5.9.05 1.8-.25.55-.1 1.1-.35-.9-.05-2.65-.8-1.45-.65-2.35-1.25h-.05q-.8-.6-1.2-1.45-.5-.65-.75-1.45-.4-2.45-1.2-3.7-3.5-.5-3.55-.6-1.25-.3-1.85-.75m2.95-2q-.2.1-1.3.25-1.2.25-1.8-.15l-.15-.05q.05.1.05.2 0 .25-.1.65.05.05.15.1.5.3 2.1.7 2 .4 2.3.6-.6-.6-.9-1.2-.3-.55-.35-1.1m-4.45-1.55q.75.8 1.05 1.3l3.45-.6q0-.1-.85-.7-.35-.4-.8-.7-.95.75-2.1.75l-.75-.05M8.3 194.6q-.3.35-1.85 1.95-1.8 1.9-2.3 4.1.1 2.3 1.65 7.6 1.3 4.4 2.4 7.15.55 1.4 1.85 3.75 1.6 2.9 2.05 3.9 2.2 4.65 6.15 5.9 1.55.45 6.45.45 4.15 0 7.3-1.4 1.65-.75 3.1-1.9 1.55-.85 2.5-2.1.5-.65.9-1.05-.05-.05-.05-.1-.4-.4-.85-.95-1.35-1.5-1.75-2.3-.2-.2-.75-1.95-.1.45-.35.9-.7 1.15-2.4 1.15-.85 0-1.45-.4h-.2q-1.55-.65-2.45-3.15-.6-1.55-.65-2.9l-.15.1q-1.25 1.75-3.25 1.75h-.95q-1.75-.1-2.65-1.1-1.35-1.15-1.45-3.25h-3.5q-4.15-.85-6.7-5.05-1.85-3.35-1.85-6.2 0-3.2 1.6-5.2l-.4.3m5.45-28.85q-.45.45-.6.75-.15.3-.15 1.4 0 2.85 3.1 5.9.45.2.65.25h-.4q.55.5 1.2 1.05 2.1 1.75 3.25 2.95 2.45-.6 2.7-.85l-5.3-3.95q-.6.2-1.05.5-.046 0-.1.1l.05-.1q.35-.5.65-.7-.4-.4-1.15-1.45-.65-1-1.55-2.65-.25-.5-.35-.9-.6-1.3-.95-2.3m90.65-141.7q-.85-2.15-1.75-3.9l-1.45 1.6.85 2.3q.95 3.2.95 4.95t-1.55 5.15q-2.25 5-3.65 9.55-1-1.6-1.45-3.2-.2-1.35-.3-1.65-.5-.6-1.35-1.2-.7-.65-.9-.65-1.2 0-2.05 2.05-.8 2.3-.8 5.85 0 1.5 1.85 5.75.8 2.15 1.8 4.1.65 1.9 1.45 2.35.8.4 2.45.6 0-1.9-.25-3.65.15 0 .35.9.3 1.75.5 3.5.5 2.8 1.3 7.1.45 2.05 3.05 5.6 2.15 2.4 2.4 2.7l.7.7q-.65-1.4-1.8-5.25-.95-3.55-.95-4.25.1-.8.1-1.3l-.35-2.1q.15-2.3.85-3.95l-.25 4.1q.3-2.45 1-3.65.75-1.35 2.4-2.35 2.2-1.25 3.2-2.95.5-.9.5-1.5v-.6h-.05l-.25-.4q-.5.65-2.4 2.15-2.6 2.05-4.25 3.5-1.05-1.45-1.8-2.85-1.35-2.5-1.35-5 0-1.55 1.75-3.85 1.8-2.2 1.8-3.35 0-.5-.3-1.05-.4-.65-.7-1.3l-.2-.75q-.2-.85.8-5.05.95-4.65.95-6.25 0-.45-.85-2.5m-11.8 19.2q-.1-.4-.1-1.3 0-1.95.3-2.8.4-.75.75-.4 2.05 2.6 2.9 3.9 1.35 2.1 1.35 3.4l-1.35 2.6q1.95 0 1.95 2.55 0 .75-.15 1.05-.35.85-1.7.85-.9 0-1.55-1.75l.05-.3q.6.15 1.1.75.35.45.6.45.5 0 .75-.15.15-.1.2-.15.1 0 .1-.9 0-1.7-.55-1.9-1.1-.45-1.5-.75.4-.7 1-1.45.35-.55.35-.65 0-.8-.9-2.85-1.2-2.65-2.8-3.8-.2 3.3-.6 4.4l-.2-.8m1.55 4q0-2.1.6-2.5.25.1.9.25.7.3 1.3.8-.15.15-.9.1-.6-.1-1.3.9.25 1.85.3 1.9l-.55-.05q-.35-.4-.35-1.4m4.75.85l.1-3.25h.2q-.8 2.65 2 7.55 1.45 2.45 3.2 5.1-3.25-2.6-4.15-4.15-1.35-1.95-1.35-5.25m48.75-7.3l-.6.7q-.3.4-1.3 2.85-1 2.35-1.05 2.85.05.2.6-.3.3-.25.5-.6.25-.35.85-.35.55 0 .7.15.05.1.15.2v1.2q0 .6-.3 1.85-.25 0-.4-.35v-.35l.4-1.85-.4-.1q-1.45.25-1.8.95l.45.15q.3.2.3.75 0 .2-1.3 1.6-1.35 1.45-1.35 2.15 0 1.45 1.15 1.95.65-.4 1.65-1.25l.1.15q0 .3-.2 1.15-.2.75-1.2.75-1.6 0-2.05-1.2-.05-1.3-.15-1.45.25-.8 0-.4-.45 1.4-2.35 4.1l-.65.9q-1.3 1.75-1.6 1.75.75 1.4.45 3.85.7-2.55.7-4.05h.2q.1.45.1 1.2 0 1.3-.25 2.15-.2 1.05-.9 2.25.45 7.45-2.95 11.65-3.8 3.35-4.55 5.1 1.2-.8 2.05-1.85.65-.65 2.1-1.65 1.55-1 3.05-2.85.8-1.05 1.4-2.15.15-.75.95-3.65 1.05-3.85 1.2-4.75l.65-4.3-.1-4.25.05-.85.05.05.05-.5q.15 0 .45.5l.1 1.25q0 .25.05.5 0 .2.05.5l1 .05q1.9 0 3.85-3.55 2.15-3.8 2.15-7.95 0-4.25-.9-6.1-1.15-2-3.5-1.1-.4 1.5-1.65 7.55l-1-.05q.2.05.45.6.25.55.25 1.2 0 .9-.5 3.1l2.35-2.1-.2-.4-1.05.1q-.3-1.85 1.35-4.7 1.5-2.65 2.8-3.25l.15.45q0 1.15-.3 2.35-.1 0-.15-.45l-.1-.45-.05-1.4M130.9 44q-2.4.15-2.9.15l-.2.4q1.45-.2 4.1-.2 1.4 0 2.85.2l-.35.2q-.15.1-6.1.6 5.65.3 7-.75.75-.6 1.35-2.1l-.2-.5q-.25.25-1 1.3-.3.45-1.2.65-.85.05-3.35.05m-.7-25.7l.25.45 3.2 3.35q-.1-.3-.1-.55.15-.45.7-.45.45 0 1.05.25.75.4 1.6.45-.25.85-.4 2.65-.2 1.75-.2 2.45 0 3.3 1.7 6.25 1.55 2.35.95 4.2l.65.45.1.9-1.35-.25q-.2.25-.65.3-.35.1-2.35.1h-5.75q-.05-.85-.2-1l-1.85.4q-1.5.5-2.95 1.75-1.2 1.05-1.2 1.3 0 .1.85 4.8v-.3q-.4-2.35-.4-3 0-.6.6-1.6.85-1.55 2.35-2.2-1.2.75-1.5 1.15-.45.6-.45 3.85 0 1 1.2 5.65.25-2.7.6-4.9.1-.6-.05-.4-.1.2-.4-.4l.55.2q.05 0 .65-1.45-1.2-.8-1.2-1.9 0-.2.55-.6.8-.55 2.55-.9l3.55.25h1.85q2.25.3 3.55 1.55.15.25 1.35 2.45.6 1.1 1.45 5.75 0 .65-.25 2.4-.3 1.7-.5 2.75 1.2-2.05 2.5-6.9-1.35-3.55-1.5-4.6l.05-.7h.25q.35 1.2.9 2.35 0-3.2-.45-6.6-.6-5.15-2-7.1l-.65.5 3-5.9-3.7-4.55q-5.75-1.25-8.5-2.65m-7.25 4.95l3.5-.15q.2-.75.15-.9-3.95.2-8-.4-2.75-.45-5.6-1.3-5.9-1.65-7.55-3.4l-.1.1q1.4 2.5 5.1 4.05 3.35 1.4 8.15 1.85 2.05.15 4.35.15M118.6 69.6q-2.3-.45-4.3-1.55 1.6 2.55 4.3 3.6 2.25.8 5.2.55h.3l3.6-2.9q-5 1.1-9.1.3m11.75-16.25q0-.25-.15-.4-.2-.15-.45-.15l.6.55m-20.65 2.3l.55-.3q.6-.3.95-.5-1.05.05-2.05 1.05v.1q.25-.2.55-.35m7.55-3.25q.1.1 0 .1v1.15l.7 1.1h-1.15q-.75-.6-1.45-1.9-.15.15-.3.4l-.45.7q.25.6.85 1.1l.1.1 1.85 1.35q-1.45.3-2.5-.5-.45-.4-1.4-1.85-.85.5-1.3.8l-.1.1v.05q-.25.1-.3.2l-.15.05h-.05q-.35.15-2.35 1.25-.45.1-.85.2-.45.5-.85 1.3-1.4 2.6-1.4 3.6 0 .1 1.55 4.65 2.05 4.55 4.5 4.55.3 0 .35-.1.1-.05.15-.1v-.3q-.95-1.65-2.05-3.3-2.05-3.35-2.05-4.55l.3-.65q0-.2.2-.25l.75-1.75q1.5-2.65 2.95-2.65.1 0 3.65 2.3 1.25.75 2.15 1.25 1.8 1 2.3 1 1.15 0 3.95-1.2 2.95-1.3 4.1-2.35 2.55 1.8 3 2.75.15.2.15 1.8.45-.1.75-.2.15-.05.3-.05-.05-.25-.05-.45-.7-.7-1.45-1.65.7.05 1.3.35.35.2.75.5t.6.65q.25.35.25.75 0 .65-.15.35v.1q-.1 0-.1-.05-.3-.15-.6-.4l.15-.15q-.25.2-.7.4-.3.1-.75.2l-.3.1v.1q0 1.7-1.2 6 0 .6.45.7.7-.7 2.3-3.4 1.8-3 1.8-4.1 0-1.75-1.6-4.85-.55-1.05-1.15-1.8l-.65-.4-1.45-1.05-.4.7q-.75 1.05-1.55 1.35h-.1q-.7.2-1.8 0l3-2.25-.35-.55q-.25-.05-.55-.05-.6 0-1.35.65-.85.85-1.35 1.15.45-1.4.45-1.9 0-.7-.45-1.05l-1.25.85q-.35.3-.95.4h-.1q-.3.25-.75.5-.4.05-.9.1h-.3q-.6 0-1.05-.05l-.5-.15q-.2-.15-.6-.5-.6-.2-.95-.5-.1-.1-.2-.15-.8-.7-.95-.7-.4 0-.4.1m.1 2.75q.1-.4 1.25.25.25.15.55.35.15.05.3.25.75.4 1.45.95l1.35.05q.85 0 3.05-2.4.05-.15.2-.3l.35-.25q.5.85-.1 2-.15.45-1.2.9-.45.15-1 .3-1.8.6-2.2 2.5-.15.45.3.85.15.15.3.2l-1.35-.2.7-2.6q-1.7-.6-2.7-1.35l-.35-.35q-.15-.2-.25-.3-.5-.7-.65-.85m-12.95-15.6q.15.35.3.6.75-.1.9-.4-.45-.6-.85-.6h-.45l.1.4m1.75 2.4l-.3-.25q.05.4.2.5 0-.2-.1-.3l.2.05m1.1-1.95q.75-.25 1.3-.25l4-.45q1.3.25 2 .85.3.2.35.45.3-.1.65.05.3.15.35.4.05.3-.15.45-.2.15-.6.3 0 .45-.6.85-.65.35-1.35.35-1.6.85-2.75 1.65-.2.2 1.15-.2 1.6-.4 2.25-.75l.4.35q-1.05.95-1.05 1.15l-1.45.15-1.85-.3-.75.85q.75.6 1.9.6 3.35 0 4.9-1.2 1.55-1.15 1.7-3.7.6.4.95.85.25.3.35.65.2.9-.1 3.3.1 1.55.75 2.3.85-1.8 1-4.35.25-2.1-.05-3-.1.85-.35 1.8-.2 1-.45 1.4l.1-.6q.7-1.7-.3-3.3-.4-.6-.95-1-1.05-.85-2.7-1.2l1.5.1q-2.5-.7-4.15-.7-1.5 0-3.7.75-2.45.85-3.5 1.85.4-.25 1.2-.45m18.9-19.5q-1.55-.9-4.35-1.8v.15l3.65 2.05-.45-.7q4.45 1.75 5.6 2.15 1.9.45 3.05-.15-5.95-1.1-7.5-1.7M240.2 172.8q-.15-4.95-.35-9.2.1 4.8.1 22.5 0 6.45-.1 10.95.5-6 .5-11.95 0-6.35-.15-11.75v-.2-.35m-18.5-59.3q-.45.55.55.55 0-1-.55-.55M220 111q-.45.1-.8.1-1.1 0-3.15-1.45-2-1.25-3.75-3l-.3-.3q-.15.95-.4 2.7-.05.85-.25 1.8-.35 2.65-1.4 4.1.3 1.1 1.35 1.4 1.5-.35 3.6-1.15 1.15-.4 2.4-.95-2.65-1.2-3.35-1.95l-.3-.15q-.6-1.15-1.35-2.2-.05-.35-.05-.7 0-.9.05-1.05v.2l.2-.5q.1.25 1.4 3.4 1.85 2.85 6.1 2.2.05-.05.15-.05l2.75-.35q.5-1.45-.35-3-1.6.65-2.55.9m15.15-.2l-.35-3.05q.65 0 .9.7.25 1.65.25 5.3 2.2-1 4.25-3.25-.85 0-3.85-2.4-3-2.35-4.35-2.35-.35 0-1.3.6-1.2.8-2.1 1.85-.3 1.6-.3 5.45 0 3.35.95 4.5 1.75 2.05 7.65 2.05 1.45 0 1.75-.6.55-1.4 1.2-3 .25.25.25.4-.25 2.95-1.05 3.75-.45.5-2.5.5-2.85 0-8.7-3.15-5.6-2.95-5.6-3.9v-.15l-2.25.25q-1 .05-1.35.05h-.9q.55 1.05 2.25 2.8 1.05 1.05 2.5 2.4 2.9 3.45 1.65 6.9.15-.35.4-.05l.05.15q-.1.75-.55 2.5-.6 2.3-.6 3.1 0 1.05.3 2.75.25 1.65.55 2.1.9 1.7 2.95 3.2 1.15.85 3.45 2.35-1.8.6-4.75-1.6-1.7-1.35-2.55-5.7-.5-3.95-.6-3.95h-.3q.95-3.25.95-5.2 0-2.6-3.45-7.8-1-1.5-2.25-3.2-.8.6-1.8.95.1.3 2.7 3.55.8 1.25 1.35 2.45 1.1 2.4 1.1 4.55 0 4.4-3.35 5.3-.85.1-1.8.1h-.55q-1.15-.3-2.3-1.55-.05-.1-.1-.15-1.15-1.5-2.15-2.65.45 1.25 1.15 2.65.85 1.7 2 3.55 2.4 3.85 2.4 7.35.05.4.05.7.45 1.7.75 3.6 1.25 7.35 1.25 20 0 5.55-1.15 9.8-1 4-3.1 6.85-3.3 4.4-7.95 4.9h-1.15q-4 0-5-4.65-.65 2.45-.65 5.4 0 4.45.2 5.2.25 1.1 2.7 6.7-.05.05-.3.5-.2.35-.5.35h-.2l.3.55q-.35-.3-.65-.65-1.85-.55-2.75-4.85-.75-1.9-.95-3.25-.4.4-.9.85-3.4 3.25-3.65 3.6l.6.6h.1q.5.4.5.55v.1q1.55 1.6 3.9 4.1 3.1 3.2 5.85 5.25 7.85 5.75 21.1 8.15h5.45q4.85-1.95 6.45-5.6 1-4.25 1.55-6.15l.05-37.55q-.65-18-.65-19.05-.15-2.4-.2-3.55 0-.5.05-.9-1.15-.65-3.5-1.1-3.55-.55-4.35-.7-5.05-1.6-5.05-8.15 0-4.05 3.45-6.4 1.3-.95 7.05-3.3 4.7-1.85 6.25-4.1 2.4-3.2.95-8.75-.05-.3-.45-.15-.5 0-.85.15l-.5 1.6.15.6.35-.2.1.5q0 .05-2.4 1.75 1.1.45 1.25 1.25-3.65-1.1-4-1.4 0 .9-1.05 2.9-1 2-1.25.25 1.5-5.25 1.5-6.7m-15 34.95h.8v5l-.7.35v-.15q0-3.7-.9-5.2v-.3q.008.25.8.3m1.5-2.7q.05.1.2.3 1.55 5 1.45 8.6-.2 3.5-1.7 4.3l.05-13.2m15.2 10.7q-.8 2.25-3.45 2.25-.9 0-1.2-.2l-.2-.1 1.6-.5q2.1-.65 2.45-1.55.2-.3.2-2.3 0-.85-.5-2.45-.35-1.45-.3-1.65 1.4 1.4 1.4 1.5.15.5.15 2.3 0 2.05-.15 2.7m-14.1-45q0-5.55.9-7.15-.8-1.15-1.8-2.3-1.15.6-1.85 1.6-.3.35-.5.8-.1.15-.15.35l-.1.3-.05.05v.1q-.05 0-.05.05-.1.15-.1.25l-.05.05q-.25.55-.25 1.15l-.05 1.45q0 .25 1.3 1.25 1 .8 2.75 2.05m1.6-6.25q-.35.25-.7.9-.2 1.45.3 8.5 0 1.45-1.4 2.05.2.1 1.15 1.2 1.2 1.15 2.55 1.2l1.3.25-.05-2.8q0-4.75 1.2-8.05 0-1.4-.25-2.1-.4-1.4-2.5-1.4-1.1 0-1.6.25m-.65-5.5q.8 0 3.55 1.05 2.4.75 3 1.1l.8.45q-.15-.3-.25-.55-1.7-1.75-1.7-5.25 0-2.85 2.15-11-1 2.1-2.8 6.05-3.5 7.25-4.75 8.15z"/><path fill="#64432B" d="M74.9 236.8l.25-1.3-.2-.1-.05 1.4m25.95 4.65q-3.05-1.55-3.45-1.6.25.05-.2 7.75 2.65.3 12.05.5 1 .1 2 .1v-.1q-.1-.6-.1-1.3v-4h-2.05q-4.9-.2-8.25-1.35m-17.85 4q2.55.55 4.5.9.4 0 2.5.15 2.05.15 2.05.4-.3-4.7-.3-8.4 0-.85.05-1.4-3.85.7-5.85.7-3.85 0-7.45-1.05-.2 0-.3-.1-.85-.25-1.65-.55-.1.45-.35 1.1-.5 1.3-.5 2.75 0 .25.3.8.3.5.3.8 0 .9-.7.9-.25 0-.45-.15.45.6 1.4 1.1h.1q1.35.75 4.3 1.6l2.05.45m75.95-7.2q-2.95.85-6.25 1.35v6.7q6.9-.45 9.7-1.6.95-.4 2.1-1.3-.05-.15-.1-.25-.05-.5-.05-.55 0-.3 1-1.65 1-1.35 1-2.75 0-.6-.3-1.4-.25-.6-.3-1.1-3.75 1.65-6.8 2.55m-27.95 4.8v3.75q0 .8-.15 1.45l16.5-.65q0-2.65.3-7.35-3.8-.1-5.3.3-.3.15-3.05 1.4-1.3.65-3.7 1-1.65.25-2.65.25t-1.95-.15z"/><path fill="#709898" d="M73.5 233.45q-.45-.5-.75-.95.1.3.2.45.55 1.05 2 2.45l.2.1q0-.15-1.65-2.05M55.5 199q-.2.15-.45.3l.6-.05q.35-.2.5-.75-.25.25-.65.5m16.7 18.75q.25 1.15.7 2.4l1 3.2q0 .6-.2 1.1-.2.3-.6 1-.2.5-.35 1 .1-.25.25-.5 1.2-2.05 1.2-2.15 0-.25-1.55-4.7-.25-.7-.45-1.35M124.15 189l-1.5 2.9q6.3-1.8 13-5.8 7.5-4.25 14.4-10.6-.75.2-11.05 6.45-10.3 6.3-14.85 7.05m-26.35 6.9q0 .15.5.15 3.75 0 10.7-1.05 8.25-1.15 12.65-2.8l1-2.4q.15-.25.2-.4-2.5.75-12.95 3.4-9.3 2.35-12 2.95l-.1.15m21.6-27.55q-3.55.35-4.5.35-4.85 0-13-2.45-7.45-2.65-8.05-2.85l-.75.25q.9 3.05 10.7 6.45 10.65 3.6 19.15 2.4.9-1.5 1.45-2.5.9-1.85.95-2.55-2.05.4-5.95.9m5.35-50.55v.2q.35-.35.7-.8l-.7.6m17.05-9.05h.15q.25 1.4.75 5.3 2.3 1.75 6.1 3.75 6.1 3.2 8.4 3-3.2-1.55-5.25-3.3-4.15-3.55-13.25-13.8-4.55 5.1-7.55 8.75-5.95 6.55-6.55 6.55-.6 0-.6-.05v-.2l.2-.2h-.05q-.05-.1-.05-.2l-2.2 1.8q1.05-.6 2.1-.85-.2.35-1.6 2.85-.45.75-.75 1.3-.15.5-.2.9 13.75-9.8 17.25-12.35.75-2.8.9-6.15h.25q.15.2.15 1.05 0 2.35-.55 4.5.3-.25.4-.3.75 1.1 1.95 2.25-.15-1.35-.15-2.2 0-1.55.15-2.4m10.55-4.8q.75.7 1.75.7 1.9 0 2.5-.15-2.35-.15-4.25-.55m-78.6 92.45v-.35l-.7-1.3q.4.9.7 1.65m-4.25-15.95q0-.094.05-.15-.053.056-.1.15-.35 1.15-.35 4.1 0 2.3 1.35 5.3-1.2-3-1.2-6.05 0-1.25.25-3.35M55.55 190.9q-.05-.25-.1-.45v.05q0 .45-.35 1.1-.4.65-.4.75l.2.4q.1-.3.35-.7.3-.75.3-1.15m9.4-18.85q-.25-.5-.45-.85-.3-.45-.7-.8.55.75 1.15 1.65m-28 11.75q.05.25.15.55 5.4 2.5 9.15 5.65 4.1 3.35 5.15 6.45v.15q.15.25-.45.25-2.6-4-8.6-8-2.35-1.55-4.9-2.75.2 1 .4 2.2 3.45 1.85 5.85 4.9 1.9 1.5 5.45 5.05.25.4-.3.4-1.4-1.3-3.25-2.6 1.4 2.65 1.45 5.2.75.8.95 1.1.7-.3 1-1.2l.45-1.5q.4-1.05 3.3-1.35 2.7-.3 2.7-1 0-1.15-.95-2.9t-.95-2q0-.35.45-1.05.4-.65.4-.9 0-1.1-.8-2.45l-.85-1.4q0-.15.65-1.4-.4.35-1 .9-.05.1-.1.1-1.75.85-7.05.85-2.9 0-8.3-3.25m-36.9 6.95q0 .3.1.6-.05-.35-.1-.75v.15m1.45-.05q0 .3.35.75t.65.45q.2 0 .7-.35.5-.4.7-.4.9 0 .65.95l-.65 2.85q0 .75.75 1.2.05.05.15.1.9-1.25 4.05-2.9 3.9-2.1 5.75-2.2.052-.002.1-.05.25-.3.35-.5.55-.7 1.1-1.35-5.5.45-9.3 1.75 2-1.2 4.75-1.75 1.7-.3 4.3-.6.3-.1.65-.1.55-.7 1.1-1.3h-4.7q-4.65.3-7.05 1.15-1.75 1-2.55 1.15H1.6q-.05-.25-.05-.55-.05.75-.05 1.7m18.45-12.45q-.1-.1-.2-.15-1.55-.15-3.3-.15-7.3.7-9.05.7-1.85 0-3-1.2-.45-.55-.8-.9-.2.2-.55.65-.05 0-.05.05l1.6 1.6q1.05 1.2 1.05 2.1 0 .05-1.5 1.75.3.05.6.05.55 0 3.3-1.2.5-.8 1.15-1.1 2.5-1.2 12.15-.25-.25-.95-1.4-1.95m-3.2-2.45q-.75-.55-1.35-1.1-1.9-.25-4.1-.4-.95-.1-2.05-.25l.15.15q1.85.6 4.55 1.25 1.6.4 3.25.7-.25-.2-.45-.35m-7.25-2.95q-.6-.25-1.1-.4-.45.45-.9.95.65.3 1.45.6h.15q-.25-.1-.25-.25v-.05q.6-.25 2.65.3h.05q.35.05.6.05.3 0 .55-.05h-.05q-1.1-.35-3.15-1.15m12.65-25.55l-.05.15q3-1.5 5.85-3.5l5.3-4.65q.65-.7 1.25-1.5l-.4-.5q-2.1 2.35-3.5 3.75-2.35 1.8-6.8 5.05-.85.6-1.65 1.2m4.05-16.15V130q-.15.8-.2 1.6.1-.1.25-.2-.05-.15-.05-.25m-8.5 10.75q-.05.1-.1.3l-1.9 4.15q-.35.95-.55 2 1.25-3.55 2.7-6.4 1.85-3.55 4.25-6.45-1.8 2.05-3.45 4.65-.15.35-.35.65-.25.45-.4.8-.15.05-.2.3m16.4-23.25l-2.25.95q-.25.35-.6.75-.8.9-2.15 2.45-.75 1.2-1.05 6.2-.3 4.35-1.05 4.35-.4 0-.6-.8-1.25 1.7-4.5 5.85-5.55 8.15-6.95 15.9-.15.9-1.65 2.9-1.55 2.1-1.8 2.85l-2.1 5.75q-.25.75-.05 2.95.25 2-.25 2.75-.05.05-.05.1H13q-.6-1.15-.8-2.35-.1-.6-.1-1.2 0-1.5.2-2.05h-.05v-.05l.05.05q.25-.85 1.1-1.5.25-.2.5-.35.7-.4 1.4-.4.2 0 .4.05.15-8.4 9.6-15.65 4.7-3.5 6.5-5.05 1.75-1.55 2.55-3-.25.1-.45.3-5.85 5.6-15.05 8.8l-.6.1-.05-.25q1.9-.7 3.8-1.55-1 .3-1.6.3l-1.55-.25q.25-1.85.25-2.75v-.25q.9-2.25 4.2-4.65.45-.3.9-.55 1.3-.55 2.6-1.05 3.5-1.6 4.35-2.35.85-1.1 1.5-1.95-2.3 2.05-4.9 3.8l-.15-.05q1.5-1.15 2.95-2.5.3-.3.65-.6 1.85-1.85 3.8-4.15.4-.9.4-1.45 0-.6-.6-.85-.35.4-2.2 2.2-2.05 1.6-3.7 1.6-.4 0-.55-.95v-1.25q0-3.2 1.15-5.3 1.4-2.65 5.15-5.3-.15-.2-.55-.55m.7-10.6q0-.2.3-1.05-1.5 2.85-1.7 4.95-.05.5-.5 2.65-.35 1.7-.3 2.75v.45q1.2-1.25 2.95-2.7 2.8-2.6 2.8-2.8 0-.3-.05-.35l-.1-.05q-.8-.05-1.9.05-1.05.05-1.3.05l-.2-3.95m1-5.65l-.1.1-.05.05q-.3.5-.6.9-1.4 2.25-2.3 5 .7-1.25 2.4-4.85.3-.65.65-1.2m10.4 12.1q0 .1 2.85 3.1.7.8 1.65 1.9.55.45 1.05 1 3.05 3.4 4.75 5.8.6.9.95 1.6 1.1 2 2.3 5.2.05.95.3 2 .7 3.9.7 4.15 0 3.5-.95 9.5-.45 3.4-.75 5.55-.25 1.65-.3 2.6-.2.95-.25 1.4-.5 4.5-3.7 9.15-.95 1.45-2.05 2.55-5.15 5.5-13.9 5.5-3.55 0-7.7-2.35-6.35-3.55-10.9-5.1h-.2q1.4 1.2 3.85 2.9 3.25 2.25 5.75 3.65 5.15 2.85 6.8 7.55 7.1 3.75 10.35 3.75 3.55 0 4.65-.8h.05q.95-.9 1.7-.9.2 0 .55.1l.05.05q.9-1.85 2.65-5.2 3.35-6.3 4.75-9.1.25-1.3.55-2.8.05-.25.05-.35.05-.3.2-.55.4-2.65.7-4.45.2-.95.25-1.75.25-1.55.25-2.2 0-2-.25-3.1v-11.4q-.2-.55-.2-1.8 0-.85-.65-5.05h-.05v-.35Q62 136.1 62 136q-.85-4.75-.85-4.9v-9.5q-.5-2.55-.55-2.55-1.1 0-1.25 3.7v.7q-.3-.3-.75-.6-3.05-2.75-6.6-4.65-.8-.35-1.45-.65-.6-.65-1.15-1.2-2.4-2.6-2.6-2.7-.6.05-.6.85m54.05-40.25q-.1.3-.2.7-.35 1.3-.35 1.55 0 1.05.2 2.1.1-1.65.35-4.35m-.8.2q-.05 0-.05.05-.55.5-.8.75-.6.85-.6 2.9 0 .5.5 1.7.4 1.15.95 1.85-.7-1.75-.7-3.2 0-1.95.2-2.75.15-.65.5-1.3M46.1 200.6h.05q-.2-2.25-1.4-4.35.65 1.25 1.1 3.15.1.65.25 1.2m-10.45-17.55q.2.35.3.85-.05-.4-.15-.75-.1-.05-.15-.1m-.95-2.3l-.1-.2q-1-1.55-2.45-2.75 1.7 1.65 2.55 2.95m146.9-.05q0 .65.05 1.25 0-2.75 1.3-5.6.7-1.35 1.05-2.05-2.4 3.4-2.4 6.4m8.4-29.55q.1-.7.3-1.6.15-.6.3-1.15-.6 1.9-1.55 4.6.45-.8.95-1.75v-.1m5.2 5.8q0-1.65-2.65-2.1-.6-.2-1.15-.3-2.45 3.4-3.25 4.1-.2.25-.2-.35 0-.65 2.25-3.95.2-.15.4-.4-.3-.25-.45-.5-1.1 2.05-2.2 3.8-.15.5-.4.9-2.15 5-3.5 8.8.3.1.25 1.05-.05.55-.15 1.45 0 .85 1.25 4.1 0 .1-1.3 3.1t-1.3 5.3q0 1.15.8 2.85.35.85.75 1.5 0 .15-.45 2.3 0 1 1.25 2.3 1.3 1.35 1.3 2.45.15 3.05 3.2 3.85.45.1 1.65.2-.2-.35-.2-.5 0-1.65 2.75-4.25 2.3-1.95 3.6-3.2l.2-.6q-.1-1-.1-1.05 0-3.8 1.5-7.15-1.5 1.6-3.55 3.85-.1.1-.2.3-1.05 1-1.95 2.15-2 2.15-4.05 4.4l.05-.65q1.25-2.3 2.65-4.4.75-.9 1.4-1.8.65-.85 1.4-1.65.8-.95 1.8-1.8 1.25-1.25 2.7-2.35.05-.15.25-.25.4-.3.9-.6.05-.05.15-.1.1-.1.15-.1.7-1 1.55-1.9-2.45 1.1-6.4 3.45-8.35 4.8-10.15 5.35v-.25q.05-.6.35-1.15-.65.9-1 1.85l-.25-1.55v-.05q1.2-2.9 3.1-4.7.2-.25.45-.35.05-.2.25-.25 1.85-1.5 5.2-3.25.2-.15.45-.25 3.95-2.1 9.75-4.45.55-.3 1.15-.55v-.25q-.1-.1-.35-.15-2.05.5-4.45 1.1l-.5.15q-.3 0-.55.05l-.05.1q-.35.15-.75.3-4.05 1.9-4.7 2.05-.7.2-3.75 2.95-2.8 2.5-4.4 2.5-.4 0-.5-.05v-1.75q.7-3 2.65-5.8.9-1.3 1.75-2.35v-.05q.3-.25.6-.55 1.65-.85 4-1.9 7.15-3.7 7.15-3.8 0-.3-.05-.3-.1.05-.2 0 .25-.25-.35-.25-1.45.4-2.3.55l-6.45.1q.3-1.65 1.85-2.95 1.35-1.2 1.35-2.35m6.2-26.65q-.35.9-.7 1.95-.6 2.25-1.8 6.65-1.4 4.55-4.55 9.1-2.75 3.55-2.75 3.85 0 .35.05.4h.2q.1-.1.15-.2.3-.35.55-.65l2.05-2.35v.3q0 .2-.1.55 4.05-4.5 5.95-10.4 1.15-5.55 1.95-9.2.45-2 .75-3.45-.9 1.1-1.75 3.45m-20.8 1.55q-.3 0-.5.15.9 2.35 3 6.45 1.55 3.45 1.7 5.8-.95-.5-1.65-1.15-.4-.35-.8-.8-.45 2.35-.45 4.1 0 1.2.05 2.95 0 3.25-4.3 12.95-1 2.5-4.7 6.4-4.7 5-11 9.25-8.8 5.95-11.95 7.65-.15.1-6.15 2.85v.4q.45.25 1.3.45.9.25 1.6.25 3 0 8.95-2.1 2.7-1.1 8.9-3.75-2.55 1.9-5.75 4.65-3.95 3.2-5.1 4.4 8.75-6.75 14.2-11.45 6.5-6.45 9.5-10.8 4.25-6.5 4.05-12.2h.4v.6q0 6.3-3.55 11.6-6.4 9.35-25.7 23.25l-.4.75q1.7.8 7.95 1.95 4.95.9 4.95 2.1 0 .55-2.4 4.2-2.55 3.55-2.55 6.1 0 .3.85 1.65 1.15 2.05 2.7 3.8 1.4 1.55 1.4 3.2 0 3.4-3.25 9.85-2.95 5.85-3.45 5.85-1.85 0-2.95-3.35-1.4-4.4-1.85-5-5.3 6.6-8.95 10.05 1.5-6.05 3-9.75 1-2.3 1-3.5 0-.8-.15-1.35l-.2-.15q-.8.6-3.65 7.4-1 2.2-4.95 6.45-4.4 4.8-6.65 4.8-1.6 0-2.65-.85-.7-.45-1.05-1.2l-.3-.6q-.55-2.65-.9-2.65.5 0 .5-.85-.15-1-.2-1.6l-.7-.5q-1.2.9-1.65 2.95-.5 1.65-.95 2.4-.15.15-.2.3 0-.15.05-.3l.15-2.25q0-.85-.05-1-.1-.25-.7-.25-.65 0-1.95 2.65-.25.4-.45.85-1.45 2.5-3.55 3.8h-6.3q-.55 0-1-.1-1.05-.05-2.05-.3-2.95-.65-5.35-2.4-2.95-2.9-4.05-3.55h-.45q0 .15.15 2.35.15 2.1.3 3.75-4.75-6.65-6.5-12.1-1.6-6.9-2.8-11.9-.45.45-.45 1.2l.6 15.55.35 1.15q-.1-.15-1.3-1.9-1.1-1.55-1.45-1.6-.9 1.15-1.4 3.25-.55 2.5-.85 3.1-1.2-.35-3.85-2.85-2.65-2.6-2.65-3.3 0-1.8 4.25-6.7 4.2-4.55 4.2-4.65 0-1.65-4.2-3.85-4.25-2.2-4.25-3.7 0-3.2 3.55-6.9 3.5-3.2 3.5-3.5 0-1.25-1.55-2.7-2.55-2.3-4.95-6.85v-2.25q2.05 0 6.85.35 4.9.25 5 .25 5.65 0 9.2-.3.15.35.15-.55 0-.95-4.65-2.7-6.4-2.55-11.2-5.9 4.05 2.15 10.4 4.2 9.4 3.15 16.9 3.15 2.65 0 2.9-.2.2-.2.2-.85-17.95-2.35-32.95-16.6-6-5.75-9.85-11.95-.3-.55-.6-1l-.6-1.1.1-.35q.2-.55.3-.9-1.7-5.55-1.7-8.75 0-2.05.6-4.1.1-.25.15-.4.5-1.95.5-4.6v-1.1q-.2-3.05-.5-6.05v-.2q-.6-7.05-1.7-7.05-.3 0-.4.2-.2.05-.25.05-.55 4.5-1.1 8.2h.2q.25.4.25 1.55V132.9q-.1.25-.2.7v.1l-1.15 5.35q-.05.2-.05.3-.3 1.3-.65 2.65v.25q-.5.05-.85-.1.25-1.1.45-2.05.1-.25.15-.5.35-2.05.8-3.65.1-1.05.3-1.9-.15-.05 0-.05 0-.35.05-.65-.3-4.9-.6-8.15-.2-1.7-.3-2.95-1.1-7.4-4.7-11.15l-.05.8q0 2.4.6 7.05.65 5.25.7 7.4v1.55q-.1-.3-.25-.45-.3-.45-.45-.8.05.35.1.9.05 1.5.3 3.4 0 .15.05.4 0 .6.15 1.2.6 6.45 1.5 11.1l.05 14.3v3.65q-.05.4-.05.7 0 .5-.05 1.05-.2 1.55-.65 3.9-.1.5-.2 1.2.8.55 1.55 1.8l1.7 2.75q.3.45.7 1.4.4.9 1.05 1.4 2.7 2.05 2.7 2.6 0 .2-.2 2.35-.25 2.1-.25 3.1 0 4.45 2.3 8.05 2.25 3.65 2.25 4.9-.3 3.3-.95 3.3h-.1q-.05.55-.7 3.35-.7 3.15-.7 6.7 0 4.85 1.65 8.85 1.65 3.95 1.65 4.95 0 .25-1.25 2-1.3 2.1-1.3 3.75 0 1.2 1.7 3.3 1.65 2.1 1.65 2.5 0 .2-.1.6.8.3 1.65.55.1.1.3.1 3.6 1.05 7.45 1.05 2 0 5.85-.7.6.1 2.2 1.1 1.9 1.2 3.4 1.65.4.05 3.45 1.6 3.35 1.15 8.25 1.35h2.15q.85 0 3.5-.4 2.9-.45 4.85-.95l1.85-.9q1.95-.85 2.5-.85.05 0 2.55 1.75 1.15.6 2.35 1.15 1.05.3 2.15.45.95.15 1.95.15t2.65-.25q2.4-.35 3.7-1 2.75-1.25 3.05-1.4 1.5-.4 5.3-.3.3 0 2.2-.25 2.05-.25 2.85-.4 3.3-.5 6.25-1.35 3.05-.9 6.8-2.55-.05-.15-.05-.25 0-.5 2.65-3.75T171 225q0-1.45-.4-5.35-.45-3.9-.45-5 0-.4 1.1-5.5t1.1-6.45q0-1.85-.55-5.85-.55-4-.55-6.55 0-3.15 5.45-12.8 4.2-7.55 6.55-10.5 2.15-5.2 3.35-9.75 1.5-5.35 1.2-7.3.05 0 .3.55.3.55.35.55v.3q.25-.65.5-1.4 2.1-6.6 2.15-6.9.25-1.15.5-2.6 0-3.45-1.2-6.75-.7-1.95-1.65-3.4-1.2-1.8-2.85-2.8-.2.1-.3.25-.15.05-.15.4 0 .05.9 2.15.35.8.85 1.95 1.65 4.05 1.65 7.85 0 1.75-.15 2.4-1.75-3.3-3.7-6.2-3.05-4.45-4.4-4.45m8.7 2.45h.25v.9l-.25-.9m-5.75 9.75q.5.55 1.25 2.5.7 2.2.9 4.55-.2.2-.25-.05l-.15-.1q-1.9-5.75-2.05-6.6l.1-.3q.2.25.2 0M61.7 113.5v-.3q.05 0 .1-.05 1.2 1.35 2 4 .4 1.5 1 4.5.2 2.05.3 3.75 0 .35.15.85.15 3.85.15 4.7v4.85q-.05.5-.05.75-.25 3.25-1.25 5.6-.25-.5-.25-.9.65-8.7.65-10.25 0-2.1-.1-4.35-.25-2-.55-3.85-.15-1.1-.35-2.1-1.15-4.55-1.15-5.25-.65-1.5-.65-1.95m4.35 55.5l1.1.8q1.9 1.2 7.8 6.9l1.85 1.95q5.3 4.6 10 6.15-7.1-2.05-11.8-6.1l-1.3-1.2q-4.85-6.25-7.65-8.5m2.5-1.45q.3-.2.55-.4 2.7 2.75 5.7 5.2 11.1 8.95 25.25 12.2-5.1 0-13.5-4.35-5.9-3.05-11.75-7.45-1.85-1.45-3.75-3.05-1.3-1.05-2.5-2.15m20.3 17.75q.45.1.9.15l-.6-.05q-.15 0-.3-.1m84-47.8q-1.5 2.4-2.75 4.5-3 4.85-7 8.5-12.5 12-36.95 16.7-.2.75-1.1 2.7-.8 1.75-1.25 2.6 19.9-.65 35.95-12.7 6.95-5.3 10.75-11.35 3.55-5.7 3.2-10.7-.45-.2-.85-.25m-1.85 4.75q.1.2 0 .8l-.25.3.25-1.1m25.9-18.6q0-1.65-.7-2.3l-.2.05q.1 3.25-.4 7.9-.05.45-.1 1-.35 2.55-.95 6.85-.05 2.7-2.1 7.75-1.25 3.1-1.85 5.05.15-.4.4-.7l1.8-3.55v-.2q.05-.25.15-.3 1.1-2.95 1.85-4.8.05-.3.1-.75 1.1-5.05 1.6-9.35.4-3.6.4-6.65m-102.2 83q-.5.25-.5 1.3 0 13.7 16.1 29.1.6.6 1.3 1.2.35.4.8.85-.35-.45-.8-.9-.65-.6-1.15-1.3-5.85-6.35-10.5-14.55-6.1-10.45-5.25-15.7m16.2-83.75q-2-3.35-2.95-4.75-1.7-2.4-4.95-3.35-.05.65-.35 2.15-.25 1.2-.25 1.75l.3 9.65q1.4-.9 1.75-2.9 1-5 1.15-5.6 1.3 1.15 3.2 3 .8.9 1.45.9h.35l.15-.05.15-.8m-56.4-10.4q-.6.05-1.1.4.7 1.45 2.25 3.65 2.25 2.75 3.5 2.75.6 0 .6-.1v-.55q0-.75-3.25-5.5-3.3-4.8-3.3-2.7.35 1.1 1.3 2.05m67.45 4.95q.3 0 .6.05.25-.05.25-.65 0-.85-1.75-2.55l-.6-.6q1.2 1.4 1.2 1.55-1.2-.85-3.05-2.5-2.25-2-5.4-5.15-4.35-4.2-5.85-4.2-1.6 0-8.95 4.05-7.65 4.2-11.1 7.2l-.35.45q.35-.15 4.55-2.5 4.85-2.75 9.1-4.45.05-.55.05-1.45l.2 1.35 1.5-.5q.35-.3.3-.55l.05-.1.4.55.75-.15q.9-.1 1.5-.1 1.55 0 8.75 4.95 2.7 1.8 4.5 3.05 3.25 2.15 3.35 2.25m-33.65-25q-1.5 3.4-1.35 4.75-1.8-.6-2.75-.6-.6 0-.65.1h-.25q0 1.5.2 2.6.05.9.1.9-1.25 0-3.35.25-2.15.3-2.45.3-1.95 0-5.35-1.45-3-1.5-3.75-1.75-.15.5 0 .6 6.25 3.2 8.1 4 4.4 1.6 10.55 1.9l-.05.1-3.2.2q-1.15 0-3.35-.35.75.3 3.4.5 2.2.15 3.5.15.05-.3.15-.65 2.55-11.85 3.65-15.6l-.1-.05q-1.4.35-3.05 4.1m86.45 4.9q-5.65-1.75-9.55-3.55-8.15-3.7-15.95-9.6-2.05-1.55-4.3-5.45-1.9-3.25-4.85-4.7l.05.95v.15q.45 2.3.8 3.65.05.45.05 3.85 0 2.05-.45 4.35.6-1.55 1.1-3.35.7-2.6 1.05-4.9l2.6 4.65v-1.15h.05q1.15 1.5 4.7 16.2 1.25 3.55 1.4 4.05.35.85.8 1.25l.15-.55 8.35.2q2.7-.55 10.9-2.65l6-2.05-3.2 1.45q1.85-.25 5.4-.6.85-.05 1.55-.1-2.45-.8-6.65-2.1m26.95 81.4q.3-.5.6-.95.15-.25.25-.3.05-.25.2-.3-.1 0-.2.1-.3.35-.45.55-.7 1-1.2 2.2l.8-1.3z"/><path fill="#666D74" d="M121.95 254.1q-.05-.3-.2-.6-.15-.7-.3-.7.65 5.6.8 10.1h.85q0-1.7-.1-2-.05-.75-1.05-6.8m28.45-6.3l.7 1.9q1.6 6.6 5.3 11.65.65.85 1.25 1.55h3.15q-.05-.002-.1-.1-3.05-2.45-3.5-2.85-1.2-2.25-3.55-7.9-1.3-2.9-3.25-4.25m-66.6 11.35l-.2.3q-.8 1.2-2.65 3.45h1.85q.75-1 1.5-2.15Q87.5 256 88.6 250l.55-1.9-.15-.15q-.7.85-2.05 3.7-1.7 3.65-3.15 7.5m31.75 3.75v-.25q.1-9.1-.1-9.85l-.3 10.1h.4z"/><path fill="#A2ADB8" d="M160.8 262.9h.1q-3.4-2.75-3.7-2.95.45.4 3.5 2.85.05.098.1.1m-77.2-3.45q-.65.9-2.45 2.95l-.4.5h.2q1.85-2.25 2.65-3.45m31.75-8.4q-.6 0-1.65.1-.6 0-1.35.15-1.2.15-2.9.35-4.1.65-4.2.65l-1.7-.2v-1.65h-5.9q-.8.15-3.25 1.45-2.35 1.1-2.75 1.45-1.05-1.05-3.05-3.35-1.1 6-4.3 10.75-.75 1.15-1.5 2.15h32.35l.3-10.1q.2.75.1 9.85v.25h6.7q-.15-4.5-.8-10.1.15 0 .3.7.15.3.2.6 1 6.05 1.05 6.8.1.3.1 2h34.55q-.6-.7-1.25-1.55-3.7-5.05-5.3-11.65-2.45-.9-6.85-.4-4.2.7-4.85.7.05.55.15 1.2-.1.6-1 1.45-8.8-1-9.7-1.2h-3.35q0 2.25-.3 2.5l-.75-.1q-1.2-1.8-4.55-2.4-1.9-.4-4.55-.4z"/><path fill="#D4D4D4" d="M126.5 241.45q-2.5-1.75-2.55-1.75-.55 0-2.5.85l-1.85.9q-1.95.5-4.85.95-2.65.4-3.5.4h-.1v4q0 .7.1 1.3v.1q.5 2.25 2.45 2.95 1.05-.1 1.65-.1 2.65 0 4.55.4h6.75q3.5-.15 4.2-3.1v-.1q.15-.65.15-1.45v-3.75q-1.1-.15-2.15-.45-1.2-.55-2.35-1.15z"/><path d="M124 119.3q-1.05.25-2.1.85l-.7.7q-.15.8-.25 1.9-1.35 2.75-2.35 6.1-.05.05-.05.15-.05.35-.25.9.15-.65.3-1.4.25-1.3.5-2.75l.2-.9q-.35.65-.7 2.1-.45 1.8-.95 4.9-.85 5.1-.85 8.25 0 3.2 1.5 5.9.85 1.5 2.3 3.5 2.7 4.2 4 8.95 1.35 5.15.75 9-.05.7-.95 2.55-.55 1-1.45 2.5-.15.35-.45.95-.25.6-.25 1.15 0 .1 1.85 2.95 1.75 2.9 1.75 5.25 0 1.45-1.1 3.3-.5 1.1-1.9 3.3-.05.15-.2.4l-1 2.4-.2 1.35q.65 2.55 3.25 9.55 2.25 7 2.25 12.2 0 1.95-.8 6.8-.25 1.7-1.55 8.35l.1.9h.3q1.15-3.15 1.9-8.55.9-5.85.9-10.9 0-5.3-2.75-11.6-2.8-6.35-2.8-6.9 0-.6.1-.85.15-.2.3-.65l1.5-2.9q2.5-2.9 2.5-6.15 0-1-1.8-4.5-1.75-3.5-1.75-4 0-.6.2-1 .3-.55.5-.85.45-.85 1.25-2.6.9-1.95 1.1-2.7.15-1.2.15-2.1 0-8.1-5-15.75-2.35-3.65-3-5.1-.6-1.5-.65-3.15l.2-.05q.25-4.5 1.75-10.55.05-.1.05-.2.95-3.4 1.8-5.95.05-.4.2-.9.3-.55.75-1.3 1.4-2.5 1.6-2.85m-56.25 11.4q-.3.05-.4.25-.05 1-.3 2.4-.05.3-.05.65-.15 0 0 .05-.2.85-.3 1.9-.45 1.6-.8 3.65-.05.25-.15.5-.2.95-.45 2.05.35.15.85.1V142q.35-1.35.65-2.65 0-.1.05-.3L68 133.7v-.1q.1-.45.2-.7v-.3-.35q0-1.15-.25-1.55h-.2m77.55-47.9v.65q.45 3.55 5.9 19.45-.7-2.35-1.15-4.45-3.55-14.7-4.7-16.2h-.05v.55m-10.6-.2v-1-1.05q-.15-1.25-.4-1.25 0 .05-.05 2.2-.1 0 0 .15-.15 1.2-.25 3-.7 4.7-1.3 7.3-.35 1.55-1.4 5.95l-.45 1.65q1.2-.8 2.65-6.65 1.55-6.2 1.2-10.3m4.55-22.85q0-.75-.1-1.2h-.2q0 1.5-.7 4.05l-1.5 3.7q.3 0 1.35-2.15.7-1.2.9-2.25.25-.85.25-2.15M104.7 72.8q-.6-.8-1.25-1.65-2.6-3.55-3.05-5.6-.8-4.3-1.3-7.1-.2-1.75-.5-3.5-.2-.9-.35-.9.25 1.75.25 3.65h.05l-.05.35q0 1.4.5 4.5.5 3 .8 3.95.25.8.7 1.65-.75 3.2-.75 5.8l-.1.2q-.15-.05-.3-.05h-.05q-2.05 0-4 2.55-.95 1.3-1.7 2.85-.45.6-2.25 1.35-2 .75-2.6 1-3.9 1.9-5.85 2.75Q75.1 88 72.55 89q-.8.3-5.45 2.45-1.85.8-5.65 1.2-.45.05-.8.1 0-.15-.05-.2l-.1-.05q-16.45 1-21.95 6.2-1.45 1.4-2.75 3.7-.35.55-.65 1.2-1.7 3.6-2.4 4.85-.15.2-.25.35-.9 1.35-1.4 4.95v2.65q0 1.5-.85 2.45-3.1 3.3-3.75 5.45-.3 1-.3 4.6v2.25q0 .1.05.25-.15.1-.25.2-2.1 1.75-3.9 3.9-2.4 2.9-4.25 6.45-1.45 2.85-2.7 6.4-.9 2.45-1.65 5.3-.1.3-2.5 4.85-2.5 4.55-3.15 6.75-.25.8-.1 3.25.1 2-.65 2.65-.9.65-3.15 2.7-2.7 2.5-2.7 3.05 0 .35 1.15 2.1.95 1.55 1.3 1.95-2.1.85-3.05 3.9-.65 2.05-.65 4.3 0 .8.05 1.45.05.4.1.75.05.2.1.35.55 1.75 2.35 1.6-.05.35-.4 2.45.1 1.45 1.3 1.8-.05.2-.05.45-.05.3-.05 2.4 0 3.15 1.3 7.95 1.15 4.4 2.6 7.5 4.75 10 6.1 11.4 1.9 2.05 5.7 2.8 1.3.3 2.9.4 1.25.1 2.65.1 2.15 0 7.7-2 5.75-2.1 6.9-4.55 1.05 1.15 2.25 1.15 1.85 0 1.85-2.15 0-1.55-.2-2.2l-.1-.3q1.6-.5 3.25-8 1.4-6.5 1.4-8.4v-.85q2.05-.05 2.6-1.35.2-1.45.35-1.8 2.85-.1 4.4-.8.25-.15.45-.3.4-.25.65-.5.5-.55.5-1.2 0-1.3-.95-3.1l-.8-1.45-.2-.4q0-.1.4-.75.35-.65.35-1.1v-.05q-.05-.85-.7-2.45-.75-1.45-.75-1.6 2.05-3.7 4.05-7.5 3.45-6.5 4-9.35v-.05q.1 0 .25.05.85.25 1.5.85.4.35.7.8.2.35.45.85.35.65.75 1.55.9 1.35 2.6 3.2 1.4 1.55 1.4 1.65 0 .1-.15 1.85-.05.056-.05.15-.25 2.1-.25 3.35 0 3.05 1.2 6.05.45 1.1 1.05 2.2.75 1.35 1.55 2.7l.7 1.3v.35q-.05.5-.2 1.2-.2.8-.25 1.35-.2 0-.45.1-.65 3.5-1.4 6.3-.35 1.75-.35 4.8 0 3.8 1.1 7.6.2.65.45 1.35 1.55 4.45 1.55 4.7 0 .1-1.2 2.15-.15.25-.25.5-.95 1.8-.95 3.3 0 1.35.95 2.75.3.45.75.95 1.65 1.9 1.65 2.05l-.25 1.3-.7 3.15q0 .05.35 1.25.05.15.15.35-.2.05-.4.2-.35.25-.75.6-1 .85-2.1 2.35-4.15 5.65-4.15 12.9 0 .05.25 3.1.5 3 1.6 3 .65 0 .75-.8v-.2q0-.1-.5-1.55-.55-1.45-.55-2.1l-.05-3.9q0-.9.9-3.55l1.05-3.15q.4-2.1 2.65-4.5 1.15-1.1 1.75-1.65.2.15.45.15.7 0 .7-.9 0-.3-.3-.8-.3-.55-.3-.8 0-1.45.5-2.75.25-.65.35-1.1.1-.4.1-.6 0-.4-1.65-2.5-1.7-2.1-1.7-3.3 0-1.65 1.3-3.75 1.25-1.75 1.25-2 0-1-1.65-4.95-1.65-4-1.65-8.85 0-3.55.7-6.7.65-2.8.7-3.35h.1q.65 0 .95-3.3 0-1.25-2.25-4.9-2.3-3.6-2.3-8.05 0-1 .25-3.1.2-2.15.2-2.35 0-.55-2.7-2.6-.65-.5-1.05-1.4-.4-.95-.7-1.4l-1.7-2.75q-.75-1.25-1.55-1.8.1-.7.2-1.2.45-2.35.65-3.9.05-.55.05-1.05 0-.3.05-.7v-3.65l-.05-14.3q-.9-4.65-1.5-11.1-.15-.6-.15-1.2-.05-.25-.05-.4-.25-1.9-.3-3.4-.05-.55-.1-.9v-.05q-.85-7.95-.85-8.15h-.25q.35.75.25 1.65v11q0 .15.85 4.9 0 .1.05.25v.05q.002.11.05.3.65 4.2.65 5.05 0 1.25.2 1.8v11.4q.25 1.1.25 3.1 0 .65-.25 2.2-.05.8-.25 1.75-.3 1.8-.7 4.45-.15.25-.2.55 0 .1-.05.35-.3 1.5-.55 2.8-1.4 2.8-4.75 9.1-1.75 3.35-2.65 5.2-.25.45-.4.85-.65 1.25-.65 1.4l.85 1.4q.8 1.35.8 2.45 0 .25-.4.9-.45.7-.45 1.05 0 .25.95 2t.95 2.9q0 .7-2.7 1-2.9.3-3.3 1.35l-.45 1.5q-.3.9-1 1.2-.2-.3-.95-1.1-.05-2.55-1.45-5.2-.55-.95-1.2-1.9-.35-.5-.7-.95-2.4-3.05-5.85-4.9-.2-1.2-.4-2.2-.2-.95-.35-1.75-.1-.3-.15-.55-.25-.9-.5-1.6v-.05q-1.65-4.7-6.8-7.55-2.5-1.4-5.75-3.65-2.45-1.7-3.85-2.9-.6-.5-1-.9-1.6-2.25-1.85-2.45-.75-.7-1.5-.9-.2-.05-.4-.05-.7 0-1.4.4-.25.15-.5.35-.85.65-1.1 1.5-.2.55-.2 2.05 0 .6.1 1.2.2 1.2.8 2.35.45.9 1.2 1.8.5.65 1.2 1.3.6.55 1.35 1.1.2.15.45.35 1 .8 2.55 1.95.1.05.2.15 1.15 1 1.4 1.95.05.25.05.5v.1q-.1.3-.15.6-.95 2.6-2.65 4.65-.55.6-.95 1.2-.55.6-1.1 1.3-.25.3-.4.7-.55.65-1.1 1.35-.1.2-.35.5v.05h-.1q-1.85.1-5.75 2.2-3.15 1.65-4.05 2.9-.1-.05-.15-.1-.75-.45-.75-1.2l.65-2.85q.25-.95-.65-.95-.2 0-.7.4-.5.35-.7.35-.3 0-.65-.45-.35-.45-.35-.75 0-.95.05-1.7.05-2.1.3-3 .3-1.15 2.1-3.1l.2-.2q1.5-1.7 1.5-1.75 0-.9-1.05-2.1l-1.6-1.6q0-.05.05-.05.35-.45.55-.65.1-.15.15-.2.05-.1.15-.15.75-.6 2.05-1.55.85-.65 1.55-1.25.45-.5.9-.95.35-.45.65-.85 0-.05.05-.1.5-.75.25-2.75-.2-2.2.05-2.95l2.1-5.75q.25-.75 1.8-2.85 1.5-2 1.65-2.9 1.4-7.75 6.95-15.9 3.25-4.15 4.5-5.85.2.8.6.8.75 0 1.05-4.35.3-5 1.05-6.2 1.35-1.55 2.15-2.45.35-.4.6-.75.65-1 .75-1.8v-.45q-.05-1.05.3-2.75.45-2.15.5-2.65.2-2.1 1.7-4.95 1.4-2.65 3.95-5.9 1.4-1.85 2.8-2.9 1.65-1.2 3.95-1.95 3.7-1.2 9.9-2.25 1.75-.3 2.9-.55-.05.05-.05.1l.1.25q.2.25.55.25 4.35 0 9.5-2.15 3.5-1.45 15.25-6.8 1.8-.75 6.05-2.45 3.5-1.55 4.4-2.85 1-1.85 1.8-2.9 1.25-1.6 3.2-2.4 0-.05.05-.05-.35.65-.5 1.3-.2.8-.2 2.75 0 1.45.7 3.2 1.2 3 4.35 6.9 3.35 4.1 8.4 8.7.6.6 1.3 1.2 3.35 2.9 7.25 9.8.05.1.15.25.9 1.6 2.15 6l.4 1.4q-.75 1.75-.75 2.8 0 .3.05.3h.25q.4-.8.85-1.6.15.45.25.9 0 .1.05.2h.05l-.2.2v.2q0 .05.6.05t6.55-6.55q3-3.65 7.55-8.75 9.1 10.25 13.25 13.8 2.05 1.75 5.25 3.3h.9q-.05-1.2-3.25-8.2-.85-1.85-1.5-3.6 1.55 4.5 3.45 10-7.4-4.15-12.7-11.15-2.3-3.05-3.1-4.15-1.25-1.7-1.85-1.7-1 0-5.35 5.3-7.65 9.1-8.35 9.9-.35.45-.7.8v-.2q.05-.55.05-1.2v-.85q.7-1.25 1.55-2.65 1.1-1.75 2.35-3.65.7-1.05 1.35-1.95 3-4.5 4.5-6.9 4.7-7.5 6-13.6.45-2.3.45-4.35 0-3.4-.05-3.85-.35-1.35-.8-3.65V75q-.2-.75-.35-1.55-.5.15-.55.85 0 .4.05.85 0 .35.25 2.2 0 .35.05.7.3 2.45.3 4.4 0 7.65-8.6 20.8-2.15 3.3-5.9 9.05-.45.75-.85 1.5-.75-4.1-3.65-8.2-2.45-3.45-8.65-9.5-6.35-6.15-8.65-9.25-3.1-4.25-3.7-8.25-.2-1.05-.2-2.1 0-.25.35-1.55.1-.4.2-.7.25-.75.4-.75.3 0 .3-.05-.05-.05-.05-.15l-.5-.2q.15-.9.3-2.35.1-.85.2-1.85.7 1.4 1.9 3 1.95 2.7 2.7 2.95.6.6 1.6 1.55 1.3 1.15 3.2 2.25 1.9.95 2.2 1.25 1.35 1.2 4.4 2.1.85.25 1.7.45 2.75.65 5.65.65.65 0 2.5-.05 1.9-.2 2.2-.25 0 .3-.3 1.05-.4.75-1.1 1.95-1.35 2.7-1.5 3.05-.15.4-.45 1-.1.05-.15.1-.3.6-.3 1.15 0 1.05.5 4.1l-.95 4.65.15.6q1.9-1.75 1.65-4.95-.65-3.35-.65-4.45v-1.2q0-.5.05-.55.05-.05.45.3 1.2.6 3.25-4.85.25-.6 0-1.1v-.1q-.05-.4.7-1.25.3-.35 1.5-1.3.6-.75 4.4-4.1 2.3-2.2 3.25-3.7.25 0 .6-.75.25-.7.55-2.05.9-4.05 1-4.4.4-1.35.75-3.6.35-2.3.35-3.8v-1.7q-.05-.3-.05-.5-.05-.25-.05-.5-.2-1-.6-1.25l-.05-.05-.05.85.1 4.25-.65 4.3q-.15.9-1.2 4.75-.8 2.9-.95 3.65-.6 1.1-1.4 2.15-1.5 1.85-3.05 2.85-1.45 1-2.1 1.65-.85 1.05-2.05 1.85-.6.4-4.4 1.05-3.55.55-4.7.55-1.25 0-2.9-.45-.65-.15-1.35-.4-2.7-.95-4.25-2.4-.9-1.05-2.95-2.3-2.4-1.5-3.5-2.4l-.7-.7-.2-.1-.95-.95m-90.95 92.95q.4-.4 1.05-.85h1.25q.4.35 2.9 3.05 1.95 2.05 3.5 3.1 3.4 2.35 9.05 6.25.35.25.65.5 1.45 1.2 2.45 2.75l.1.2q.15.2.3.45l.1.2q.45.9.7 1.75.1.35.15.75.9 6.2 1.6 6.6h.1q.35 0 .45-.25v-.05q-.1-.6-.15-1.15 1.45 1.55 4.45 4.15.65.75 1.4 1.65l.05.05q.45.55.9 1.35 1.2 2.1 1.4 4.35h-.05q-.1 0-.1.2 0 .15.15.5-.05 1.25-2.75 5.8-.15.2-.25.4-.7.75-1.05 1.2h-.05l-.35.7q-.15-.1-.2-.15-.55-.45-2-1.15l-1.5-.35.05.2q1.4.45 2.9 2.35.05.15.25.3l-.8 2.45h-.3q-.6-.1-1.3-.7l-1.15-.9.25.5q1.6 1.1 2.15 1.75.05.15.2.25-.15.45.4 3.25-.25-.1-.4-.15-.8-.3-1.05 0l-.1.2q.7.25 1.25.55.5.25.85.45l.3.5q.05.15.55 1.25.55 1.3.55 1.7.25 2.45-1.1 2.45-1.05 0-1.75-1.05-.1-.15-.2-.25v-.15q0-.3-.4-.4-.25-.25-.35-.25-.15 0-.2.05-.1.05-.15.1-1.9-2.45-3.2-5.25l-.55-1.5q-.05.25-.05.4v.15l-.15.05.2.3q-.05.1-.05.25-.15.15 0 .45v.05q0 .1.05.15.05.5-.3.95-.2.15-.25.3-.25.3-.5.35-.7.25-.9.45h-.65q-.1.1-.3 0-.25-.05-.55-.3-.35-.2-1.2-1.25l-.1-.2q-1-1.25-1.4-1.85.05-.1-.05-.25v-.05l-.05-.05q-.25-1.15-.45-2.55-.05-.05-.05-.15v-.45q-.05-.25-.05-.4.1-.45.3-.9v-.2q0-.25.05-.5 0-1.1-.5-2.35-.9-2.1-3-2.85l1.2 1.5q1.65 1.55 1.45 3.9 0 .4-.1 1.05-.2.7-.5 1.4-.25.7-1.15 1.3-.1.15-.35.25-.85.4-1.8.7h.7q2 0 3.25-1.75l.15-.1q.05 1.35.65 2.9.9 2.5 2.45 3.15h.2q.6.4 1.45.4 1.7 0 2.4-1.15.25-.45.35-.9.55 1.75.75 1.95.4.8 1.75 2.3.45.55.85.95 0 .05.05.1-.4.4-.9 1.05-.95 1.25-2.5 2.1-1.45 1.15-3.1 1.9-3.15 1.4-7.3 1.4-4.9 0-6.45-.45-3.95-1.25-6.15-5.9-.45-1-2.05-3.9-1.3-2.35-1.85-3.75-1.1-2.75-2.4-7.15-1.55-5.3-1.65-7.6.5-2.2 2.3-4.1 1.55-1.6 1.85-1.95l.4-.3.55-.45q.7-.55 3.35-1.45 1.05-.4 1.65-.6l-.3.4q-4.25 5.05-4.5 8.25-.25 3.1.25 3.7.35.65 2.15 1.05 1.8.5 3.15-.7 1.15-1.15.15-.6 6.9-4.1 8.1-5.05L23 200.1q-.7 1.35-2.45 4.6-1.45 2.65-1.45 5.3 0 .4.05.75.1 2.1 1.45 3.25.9 1 2.65 1.1l-.3-.1q-.2 0-.25-.1-.35-.05-.65-.3-1.35-.9-1.95-2.1-.3-.7-.4-1.45v-.3q-.45-3.4 2.75-8.1 0-.1.15-.15.15-.35 1.3-2.4.05-.25.25-.5v-.05q1.2-2.65 1.4-3.2l-1.7 1.2q-2.7 2-5.5 3.9-.4.3-1.6 1.1-.6.3-1.35.8h-.05q-.25.35-.55.65-.65.55-1.6.7-1.4.15-2.65-.75l-.5-.9q-.3-1.6.5-3.95.4-1 .75-1.9 1.1-2.1 2.9-4.65.25-.3.5-.5.4-.65.9-1.25.65-.9 1.25-1.6.25-.45.5-.75l.6-.8q2.1-2.65 2.65-3.65l1.25-2.95q.15.3.45.55.6.45 1.85.75.05.1 3.55.6h1.25q.75-.1.8-.15l-3.25-.9q-.3-.2-2.3-.6-1.6-.4-2.1-.7-.1-.05-.15-.1.1-.4.1-.65 0-.1-.05-.2l.15.05q.6.4 1.8.15 1.1-.15 1.3-.25.9.1 2.15-1.05-.3-.2-.95-.1l-1.15.3-3.45.6q-.3-.5-1.05-1.3-1.15-1.2-3.25-2.95-.65-.55-1.2-1.05-.15-.1-.25-.25-3.1-3.05-3.1-5.9 0-1.1.15-1.4.15-.3.6-.75M46.6 203.2q.15 0 .35.05-.25 1.15-.45 2.85-.45 3.4-.75 4.65l-1.1 4.65q-.25.95-1.35 2.85-.5.85-.75 1.3-.35-.55-.85-1.15 0 .05-.05.05-.45-.95-.4-4.05 0-.55.1-1.05.7-1.75 2.75-5.3.85-1.5 1.5-2.7.75-1.25 1-2.15m-13.4 4.35l.4 1.1q.05.2.05.6.25 1.5.4 3.9l-.85-1q-.9-.8-1.7-1.15 1.5.9 2.3 3.4.4 1.75.6 2.4.05.3.05.45l.05-2.65q0-.15.15-.35.35-2.1.05-4.35-.25-.45-.35-.8-.5-.75-1.05-1.35.55.35.75.5l-.45-.9q-.35-.55-1.3-1-.2.25.65.9.1.2.25.3m-1.75-8.85l.3.6q.25 1.5-1.45 4.55v-.6q-.55-.75-1.8-1.75-1.05-.7-1.4-.9l.95.9q1.05 1.25 1.95 2.8 0 .5-.25 1.75-.4 1.4-.35 2.2-.2.55.4-.4.45-.5 1.35-3.25 1.2-3.3 1.15-5.35l-.2-.25q-.85-.55-.4-.55l.05-.05q-.45-.35-.3.3m5.05 4.45q-.05.2-.05.55l-.85 3.55v-.05l-.05.25q-.15.05-.15.1l-.4 1.6.1.1q.2-.25.45-.55.35-.55.7-1.05l.55-.75.05-.15q.25-1.05.25-1.75-.25-1.15-.6-1.85m4.9 3q.15.3.35.5l.55-.5q-.15-.15-.45-.4-.35-.45-1.15-1.05-1.05-1-1.6-1.35-.55-.3-.6-.25-.2-.05-.5.15-.7-.45-1.15-1.2.2.7-.1 1.05.7.3 1.45.3l.15.15q.85.55 2 1.6.6.6 1.05 1m-8.5-9q-.25.4-.2.8.3-.15.95.4l-.95-.3.85.6q2.15 1.55 3.45 3.25-.2-.75-.4-1.1l-.1-.1v-.1q0-.1-.05-.15v-.15l-.2-.2v-.1h-.05q-1.45-1.05-3-2.65l-1.05-1.25q-2.35-1.8-3.85-3.05 1.1 1.15 2.1 1.85 2.2 1.55 2.5 2.25m-7.2-8.2v-.2l-1.2-1.1q-.85-.4-1.55-.7.55.55 1 1.1.45.35.85.8.55.55 1.1 1.15.1.2.3.4-.05-.2-.2-.4-.1-.45-.3-1.05m.75-1.1q-.25-.1-.45-.35-.45-.3-.1.45.05.3.55 1 .15.45.6 1.05 2.75 2.75 5.85 3.15 2.2.3 3.05-.6.05-.1.2-.2l.65-1.15v-.1l-.9.5q-.55.25-1.1.35-.9.3-1.8.25-1.7-.05-3.65-1.5-.4-.25-.85-.7-.5-.4-1.05-1-.45-.55-1-1.15m-1.8-13q-.25.55-.5.95-.2.3-.25.6-.35.65-.4.8-.25.25-2.7.85l.75.05q1.15 0 2.1-.75l.5-.8q.05-.3.25-.65.3-.75.3-1.2l-.05.15M20 189h-.6q-.2-.05-.25-.05l.05.05.05.2q.5.35 1.7.6.2.05.25.1.6.1.95.1.3.1.45.1 1.25.9 1.85 2.15.65 1.45.5 3.15l-.15.05.15.05q.05.1.4-.4l.2-.6.1-.2q.25-.55.25-1.05 0-1-.85-2.15-.35-.4-1.15-.95-.05-.05-.3-.15-.85-.4-3.6-1m-2.05 4.35q.7.05 1.2.35 1.45 1.1 1.85 4.45l.15.1q-.25.55.35-.4.35-.6-.2-2.05-.9-1.6-2.35-2.65-.9-.6-1.6-.05.05.15.6.25m-4.35 3.4q-.1.3-.1.45 1.85.05 1.9.15 1.95 1.3 2.2 2.55-.25 1.1-.2 1.45v.1q-.1.4.5-.55l.15-1.2q-.1-1.35-1.45-2.25-1-.8-3-.7m4.9-24.2l-.75.5q-.3.2-.65.7l-.05.1q.054-.1.1-.1.45-.3 1.05-.5.35-.75.65-1.55.05-.35.1-.75-.05.35-.15.75-.2.45-.3.85M104.15 61.8l.25-4.1q-.7 1.65-.85 3.95l.35 2.1q0 .1.5 2.25.35 1.9.5 1.2l-.75-5.4M99 44.85l-.1 3.25q0 3.3 1.35 5.25.9 1.55 4.15 4.15-1.75-2.65-3.2-5.1-2.8-4.9-2-7.55H99m-4.25-.1q-.6.4-.6 2.5 0 1 .35 1.4l.55.05q-.05-.05-.3-1.9.7-1 1.3-.9.75.05.9-.1-.6-.5-1.3-.8-.65-.15-.9-.25m-2.25-2.8q0 .9.1 1.3l.2.8q.4-1.1.6-4.4 1.6 1.15 2.8 3.8.9 2.05.9 2.85 0 .1-.35.65-.6.75-1 1.45.4.3 1.5.75.55.2.55 1.9 0 .9-.1.9-.05.05-.2.15-.25.15-.75.15-.25 0-.6-.45-.5-.6-1.1-.75l-.05.3q.65 1.75 1.55 1.75 1.35 0 1.7-.85.15-.3.15-1.05 0-2.55-1.95-2.55l1.35-2.6q0-1.3-1.35-3.4-.85-1.3-2.9-3.9-.35-.35-.75.4-.3.85-.3 2.8m48.85.3l-.05.7q.15 1.05 1.5 4.6-1.3 4.85-2.5 6.9L139 56.5q-1.2 1.75-1.3 2.15l.1.1q.3 0 1.6-1.75l.65-.9q1.9-2.7 2.35-4.1.25-.4 0 .4.1.15.15 1.45.45 1.2 2.05 1.2 1 0 1.2-.75.2-.85.2-1.15l-.1-.15q-1 .85-1.65 1.25-1.15-.5-1.15-1.95 0-.7 1.35-2.15 1.3-1.4 1.3-1.6 0-.55-.3-.75l-.45-.15q.35-.7 1.8-.95l.4.1-.4 1.85V49q.15.35.4.35.3-1.25.3-1.85v-1.2q-.1-.1-.15-.2-.15-.15-.7-.15-.6 0-.85.35-.2.35-.5.6-.55.5-.6.3.05-.5 1.05-2.85 1-2.45 1.3-2.85l.6-.7.05 1.4.1.45q.05.45.15.45.3-1.2.3-2.35l-.15-.45q-1.3.6-2.8 3.25-1.65 2.85-1.35 4.7l1.05-.1.2.4-2.35 2.1q.5-2.2.5-3.1 0-.65-.25-1.2-.25-.55-.45-.6l-.25-.1.1-1.05q-.55-1.15-.9-2.35h-.25m-14.75 2.1q.15-.2.05.4l1.65.6q5.95-.5 6.1-.6l.35-.2q-1.45-.2-2.85-.2-2.65 0-4.1.2l-1.05-.4-.55-.2q.3.6.4.4m-2.15-3.15q-.6 1-.6 1.6 0 .65.4 3v.3q.05.2.05.3.1.25.1.5.2 1.05.45 2.4l.8 2.7q.65 0 .4-2.35-1.2-4.65-1.2-5.65 0-3.25.45-3.85.3-.4 1.5-1.15-1.5.65-2.35 2.2m3.85 1.15q.1.15.35.65l4.85-.3.2-1.3q-.2-1.05-.85-1.85l-3.55-.25q-.6.75-.75 1.05-.3.55-.3 1.15 0 .6.05.85m2.05-.7q-.45 0-.75-.15t-.3-.4q0-.2.3-.35.3-.15.75-.15.5 0 .8.15.3.15.3.35 0 .25-.3.4-.3.15-.8.15m3.5 14.75l1.05.25 1 .05-5.55-3.35-.6-.55-2.8-2.75 2.45 3.65.35.55-3 2.25q1.1.2 1.8 0h.1q.8-.3 1.55-1.35l.4-.7 1.45 1.05 1.8.9m-22.5 5.3q-.5-.05-.8-.05.05-.05.1-.15 1.75-1.2 1.9-1.65-.75-.1-2.2.75-.95.6-1.25 1.05-.2.05-.2.25v.05q0 .6.2 1.2h.3q-.15-.55.85-1.25.65.65 1.5 1.15.15 0 .35.1h.15q.3.1.65.2.2.05.5.05l6.6.25q.2.1.6.4.35.25 1 .25.3 0 .65-.35.4-.4 4.1-.5 1 .2 1.85.25H129.6q.4-.05.7-.05.35 0 .7-.1t.75-.15q.2-.05.35-.15l.3-.1q.45-.1.75-.2.45-.2.7-.4l-.15.15q.3.25.6.4 0 .05.1.05v-.1q.15.3.15-.35 0-.4-.25-.75-.2-.35-.6-.65-.4-.3-.75-.5-.6-.3-1.3-.35.75.95 1.45 1.65l.3.3q-.15.1-.25.15-.15 0-.3.05-.3.1-.75.2-1.65.05-5.75-.5-2.4.1-3.65.55-.75.55-1.1.55-.15 0-.65-.3-.4-.4-.95-.4l-6.6-.15q-1.2-.65-2.05-.85m3.4-10.05q-.05.15-.2.25l-2.6 2.4q0 .05-.75.55-.35.2-.95.5l-.55.3q-.3.15-.55.35v-.1q-1.15.5-2.1 1h-.25q.7.05 1.6-.1.4-.1.85-.2 2-1.1 2.35-1.25h.05l.15-.05q.05-.1.3-.2v-.05l.1-.1q.45-.3 1.3-.8.95 1.45 1.4 1.85 1.05.8 2.5.5l-1.85-1.35-1.25-.9.3-.3.45-.7q.15-.25.3-.4 1.85-2.25 2.5-4.3-.6.75-3.1 3.1M119 53q.4.4.75.65.4.35.6.5l.5.15q.45.05 1.05.05h.3q.5-.05.9-.1.45-.25.75-.5h.1q.15-.2.3-.35.6-.7.6-1.4 0-.5-.15-1.4l-.45-.95q.8 4-2.3 4-.5 0-1.1-.2-.8-.1-1.15-.1l-.3-3.45-.4 3.1m-.4 2.4q-1.15-.65-1.25-.25.15.15.65.85.1.1.25.3l.35.35q1 .75 2.7 1.35l-.7 2.6 1.35.2q-.15-.05-.3-.2-.45-.4-.3-.85.4-1.9 2.2-2.5.55-.15 1-.3 1.05-.45 1.2-.9.6-1.15.1-2l-.35.25q-.15.15-.2.3-2.2 2.4-3.05 2.4l-1.35-.05q-.7-.55-1.45-.95-.15-.2-.3-.25-.3-.2-.55-.35m-8.15-10.75L106.5 44l1.15.35q1.35.25 2.25.7l1.85.3 1.45-.15q0-.2 1.05-1.15l-.4-.35q-.65.35-2.25.75-1.35.4-1.15.2m-2.2-2l1.15.2q1.5.15 3.6.15.4-.75.4-1.65 0-1.05-.85-2.05l-4 .45-.3 2.9m1.15-1.15q-.3-.15-.3-.4 0-.2.3-.35.3-.15.75-.15t.75.15q.3.15.3.35 0 .25-.3.4-.3.15-.75.15t-.75-.15m-47.7 71.7v.3q0 .45.65 1.95 0 .7 1.15 5.25.2 1 .35 2.1.3 1.85.55 3.85.1 2.25.1 4.35 0 1.55-.65 10.25 0 .4.25.9 1-2.35 1.25-5.6 0-.25.05-.75v-.55-4.3q0-.85-.15-4.7-.15-.5-.15-.85-.1-1.7-.3-3.75-.6-3-1-4.5-.8-2.65-2-4-.05.05-.1.05m32.1-31.6l.05-1.15-2.4 7.95q-1.1 3.75-3.65 15.6-.1.35-.15.65-.35 2.05-1 5.6-.7 3.95-.7 4.25 0 .7.4 1.05l.95-.9q3.45-3 11.1-7.2 7.35-4.05 8.95-4.05 1.5 0 5.85 4.2 3.15 3.15 5.4 5.15 1.85 1.65 3.05 2.5 0-.15-1.2-1.55-.95-1.1-1.85-2.1-3.25-3.65-6.05-6.05-3.55-3-5.3-3-1.5 0-6.8 2.35-7.65 3.3-13.5 8.75 1.3-4.45 4-17.55 2.45-11.95 2.85-14.5m81.4 14.25q-6.6-2.15-9.8-3.8-4.35-2.35-9.3-5.4-6.35-4-6.75-4.25-2.3-3.3-3.75-5.3-2.75-3.55-5.55-3.8H140l-.05.65q.05.05.15.1 2.95 1.45 4.85 4.7 2.25 3.9 4.3 5.45 7.8 5.9 15.95 9.6 3.9 1.8 9.55 3.55 4.2 1.3 6.65 2.1 3 .9 3.2 1 2.55.9 5.55 1.45 3.7.7 11.7 1.65 1.55.15 4.2 1.9 1.4.95 2.1 1.35-.05.35-.1.75-.05.6-.05 2.55 0 .65.6 7.8 0 .25.05.55.3 3.6.45 5.7.1 1.7.1 2.3.05 1.6 1.45 3.85.05.15.15.3.85 1.4 2.6 4.1.75 1.4 1.6 4.65.3 1.1.6 2.4-.15 5.25-.6 9.15-.1.55-.15 1.1-.3 2.2-.65 4.2-.15.5-.25 1-.5 2.1-1.1 4-.25.6-.45 1.25-.3.75-.65 1.5-.8 1.85-1.95 3.6-.25.3-.45.65-.85 1.1-1.8 2.15-1.55 1.75-4.65 4.7l-.6.7q-.85.9-1.55 1.9-1.05 1.45-1.7 3-1.5 3.35-1.5 7.15 0 .05.1 1.05v.4l-.2.2q-1.3 1.25-3.6 3.2-2.75 2.6-2.75 4.25 0 .15.2.5-1.2-.1-1.65-.2-3.05-.8-3.2-3.85 0-1.1-1.3-2.45-1.25-1.3-1.25-2.3.45-2.15.45-2.3-.4-.65-.75-1.5-.8-1.7-.8-2.85 0-2.3 1.3-5.3t1.3-3.1q-1.25-3.25-1.25-4.1.1-.9.15-1.45.05-.95-.25-1.05 1.35-3.8 3.5-8.8.25-.4.4-.9 1.1-1.75 2.2-3.8 1.8-3.5 3.55-7.8 2.9-7.9 4.45-11.7-1.75 2.05-3 5.4-.2.5-.35 1.05-.75 1.85-1.85 4.8-.1.05-.15.3v.2l-1.8 3.55q-.25.3-.4.7-.3.5-.5 1.05-.05.05-.1.15v.1q-.5.95-.95 1.75.95-2.7 1.55-4.6.45-1.45.75-2.45 1.8-6.1 1.8-11.45 0-1.6-.25-4.2-.1-.55-.15-1.1h-.25q-.05.5-.1 1.1-.15 2.15-.4 5.8-.1 2.35-.4 4.35-.25 1.45-.5 2.6-.05.3-2.15 6.9-.25.75-.5 1.4v-.3q-.05 0-.35-.55-.25-.55-.3-.55.3 1.95-1.2 7.3-1.2 4.55-3.35 9.75-2.35 2.95-6.55 10.5-5.45 9.65-5.45 12.8 0 2.55.55 6.55t.55 5.85q0 1.35-1.1 6.45t-1.1 5.5q0 1.1.45 5 .4 3.9.4 5.35 0 3.45-2.65 6.7t-2.65 3.75q0 .1.05.25.05.5.3 1.1.3.8.3 1.4 0 1.4-1 2.75t-1 1.65q0 .05.05.55.05.1.1.25.2.25.75.25h.15q.4.45 1.15 1.25 1.7 1.85 1.85 3.25.3 3.35 0 5.3-.15 2.65.75 6.45.45 2 .95 3 .5 1.05 1.05 1.05.85 0 .85-1v-.05q0-.25-.1-.6-.2-1-.95-2.95-1.1-2.75-1.1-5.55.2-4.35-.05-6.5-.2-.8-1.55-2.4-.45-.5-1-1.1-.4-.45-.75-.75l.1-.1q1.05-1.3 1.55-4.85l-.55-2.65q1.3-1 2.6-2.65 2.6-3.35 2.6-7.8 0-1.25-.45-5.7t-.45-4.6q.55-2.45 1.1-5.05 1.1-5.15 1.1-6.95 0-1.75-.6-7.1-.6-5.05-.6-5.1 0-.5 9.2-20.2l1.4-2.15q-.25 1.05-.25 2.85 0 .65.5 1.55.45.9.45 1.05 0 .2-.2.7-.35.7-1.05 2.05-1.3 2.85-1.3 5.6 0 1.5.75 3.15.7 1.65.7 1.7 0 1.4-.2 2.85.15 1.1 2.35 3.15.45.4.15 3.15.5 1.6 3.05 2.2l.5.1q.7.15 1.35.2.85.05 1.85.05h.05q1.15 1.4 3.55 3.9 4.7 4.95 6.45 6.05 11.15 7.05 18.55 8.55 2.1.4 3.9.35h5.75q2.15-.05 3.85-1.15 3.85-2.6 5.1-10.8.35-2.25.5-8.35.1-4.5.1-10.95 0-17.7-.1-22.5v-.55q-.3-11.7-1.4-20.8 1.65-3.5 4.15-13 2.45-9.15 2.45-10.45 0-.9-.2-4.35-.25-3.5-.35-3.9-.2-1.35-.35-2.1-.25-1.4-1-2.05-.45-.25-.85-.45-.85-.4-1.7-.65-.8-.25-1.3-.15v-.2q-.05-2.1-.7-2.85-1.05-1.3-4.85-2.25-2.15-.55-3.1-2.6-.75-1.5-.75-3.5 0-3.25 2.35-12t2.35-9.05q0-3-3.7-2.4-1.85.3-2.8 1.1-.8 1.05-1.35 1.55-1.4 1.3-1.9 3.05-.35 1.15-.4 3.15v.1q-.1.85-1.6 5.9-.5 1.65-.8 2.95H222v.2q-.65 2.4-.65 3.3 0 1.05-.35 2.25-.4 1.2-.4 2.6v.9q.05.1.2.75-.45.4-.8.9-.7 1-1.25 2.4-.6 1.7-.65 3.15-.05.35-.9-.3-.05 0-.05-.05v-.35q0-1.95-3.85-1.15-.55.1-1 .25-.3.05-.55.15-2.4.75-3 1.9 0 .05-.05.1-2-1.45-7.85-2.65-13.3-2.65-14.6-3.1-7.3-2.25-11.05-3.5m54.45-24.65q1.05-.4 2.4-.4 1.95 0 1.95 1.75 0 .35-2.45 9-.15.65-.3 1.25-2.15 8.15-2.15 11 0 3.5 1.7 5.25.5.5 1.15.85.35.2.75.35 1 .4 3.3.95 1.9.55 2.25 1.45.1.25.15 2.05 0 .25.05.45-1.5-.95-2.95-1.2-3.05-.75-6.8 1.8-1.2 3.3-1.2 8.05l.05 2.8-1.3-.25q-1.35-.05-2.55-1.2-.95-1.1-1.15-1.2 1.4-.6 1.4-2.05-.5-7.05-.3-8.5.35-.65.7-.9.5-.25 1.6-.25 1.5-.4 3.65-.65 2.25-.3 4.75-.5-6.8-.85-8.3-.85-.95 0-1.4.3-.45.6-1 1.05-.9 1.6-.9 7.15-1.75-1.25-2.75-2.05-1.3-1-1.3-1.25l.05-1.45q0-.6.25-1.15l.05-.05q0-.1.1-.25 0-.05.05-.05v-.1l.05-.05.1-.3q.2-1.05.65-1.8.2-.4.45-.7 1.2-1.65 3.75-1.65.1 0 2.4 1.05 2.45.9 3.65.9.2-.25 0-.7-.6-.35-3-1.1Q224.5 97 223.7 97l-1.2.3h-.05l-1.35.65q-.15-2.75.65-6.55l.65-2.5q1.85-.2 3.7.15-.9-.65-3.5-.95.5-2.25.75-3.65.25-1.5 1.4-3.45.2-.4.35-1 .85-.15 2.05-.15 1.5 0 1.8.1l.1-.2q-.6-.4-2.7-.4-.65.15-1.2.4 0-.25.05-.45.1-1.3.15-1.85.05-.6.2-1.2.3-1.4 1-2.55 1.15-1.85 3.1-2.5m9.45 35.35q.1-.05.5-.35.2-.2.6-.2 2 0 3.05 4.05.6 2.3.7 4.2v.65q0 1.95-1.1 7-.8 3.4-2.1 8.2-1.6 6-3.2 11.3 0 .3.15.6-.15.3-.2.75-.05.4-.05.9.05 1.15.2 3.55 0 1.05.65 19.05l-.05 37.55q-.55 1.9-1.55 6.15-1.6 3.65-6.45 5.6h-5.45q-13.25-2.4-21.1-8.15-2.75-2.05-5.85-5.25-2.35-2.5-3.9-4.1v-.1q0-.15-.5-.55h-.1l-.6-.6q.25-.35 3.65-3.6.5-.45.9-.85.25-.35.55-.65.05 1.1.15 2.55.1.7.25 1.35.9 4.3 2.75 4.85.15.05.35.1h.2q.3 0 .5-.35.25-.45.3-.5-2.45-5.6-2.7-6.7-.2-.75-.2-5.2 0-2.95.65-5.4.3-1.25.8-2.35.5-1.2 1.2-2.2.15-.2.45-.55.3-.35.75-.8 1.45-1.65 4.65-4.8 4-3.95 5.85-8.5 2.65-6.5 2.65-16.95l-.2-3.6q.2-.25.2-.75 0-.3-.05-.7 0-3.5-2.4-7.35-1.15-1.85-2-3.55-.7-1.4-1.15-2.65-.35-1-.6-1.95-.5-2.1-.9-8.7-.3-5.2-.3-6.9-.3-1.55.05-2.95.35-.15.65-.6-.05-.35-.25-.7 1.15-2.5 4.65-2.5.8 0 1.75.4.35.15.6.3 1.8 2.45 1.9 3.4.05 0 1.6 1 1 .65 2.55 1.65.85 1.55.35 3l-2.75.35q-.1 0-.15.05-4.25.65-6.1-2.2-1.3-3.15-1.4-3.4l-.2.5v-.2q-.05.15-.05 1.05 0 .35.05.7.75 1.05 1.35 2.2l.3.15q.7.75 3.35 1.95-1.25.55-2.4.95-2.1.8-3.6 1.15h-.85q.25.25 2.3.05 1.55-.05 2.5-.25.3-.05.7-.1 1-.35 1.8-.95 1.25 1.7 2.25 3.2 3.45 5.2 3.45 7.8 0 1.95-.95 5.2h.3q.1 0 .6 3.95.85 4.35 2.55 5.7 2.95 2.2 4.75 1.6-2.3-1.5-3.45-2.35-2.05-1.5-2.95-3.2-.3-.45-.55-2.1-.3-1.7-.3-2.75 0-.8.6-3.1.45-1.75.55-2.5l-.05-.15q-.25-.3-.4.05 1.25-3.45-1.65-6.9-1.45-1.35-2.5-2.4-1.7-1.75-2.25-2.8h.9q.35 0 1.35-.05l2.25-.25q-1 0-.55-.55.55-.45.55.55v.15q0 .95 5.6 3.9 5.85 3.15 8.7 3.15 2.05 0 2.5-.5.8-.8 1.05-3.75 0-.15-.25-.4-.65 1.6-1.2 3-.3.6-1.75.6-5.9 0-7.65-2.05-.95-1.15-.95-4.5 0-3.85.3-5.45 1.55-4.25 5.3-3.85 1.85.25 4.65 1.3.05.15.1.2v.05q0 .5.45.65m-4.3 1.2l.35 3.05q0 1.45-1.5 6.7.25 1.75 1.25-.25 1.05-2 1.05-2.9.35.3 4 1.4-.15-.8-1.25-1.25 2.4-1.7 2.4-1.75l-.1-.5-.35.2q-1.6 1.05-2.35 1.25 0-.05.95-.65t1.25-1.2l.5-1.6-.8.25q-2.05 2.25-4.25 3.25 0-3.65-.25-5.3-.25-.7-.9-.7m8.4-12.6l-.2-.05-.05.2.15.1.15-.15-.05-.1z"/><path fill="#537070" d="M140 106.9q0-.85-.15-1.05h-.25q-.15 3.35-.9 6.15-.3 1.1-.7 2.2-1.55 4.2-5.05 8.1l.15.2q4.9-5.25 6.35-11.1.55-2.15.55-4.5m1.95 1.85h-.15q-.15.85-.15 2.4 0 .85.15 2.2.25 2.1 1 5.65.6 2.9 1.35 6.7l.1-.2q-.3-3.05-1.1-8.5-.3-1.6-.45-2.95-.5-3.9-.75-5.3m-97.55 85.4q.65.95 1.2 1.9 1.85 1.3 3.25 2.6.55 0 .3-.4-3.55-3.55-5.45-5.05.35.45.7.95m17.65-24.65v.05h.25q-.15-.05-.25-.05M37.1 184.35q.15.8.35 1.75 2.55 1.2 4.9 2.75 6 4 8.6 8 .6 0 .45-.25v-.15q-1.05-3.1-5.15-6.45-3.75-3.15-9.15-5.65m-.65-2.2v.05q.25.7.5 1.6 5.4 3.25 8.3 3.25 5.3 0 7.05-.85.05 0 .1-.1.6-.55 1-.9.15-.4.4-.85l-.05-.05q-.35-.1-.55-.1-.75 0-1.7.9h-.05q-1.1.8-4.65.8-3.25 0-10.35-3.75m-19.9 6.4q-.35 0-.65.1-2.6.3-4.3.6-2.75.55-4.75 1.75 3.8-1.3 9.3-1.75.15-.4.4-.7m-7.35-8.1q-.65.3-1.15 1.1-.1.1-.3.35-.4.95-1.2 1.45 5.25-2.45 6.05-2.45 4.5 0 8.65.5.05-.3.15-.6v-.1q0-.25-.05-.5-9.65-.95-12.15.25m2.35-6.45h-.05q-2.05-.55-2.65-.3v.05q0 .15.25.25h-.15l.15.05q.1 0 .3.15l-.15-.15q1.1.15 2.05.25 2.2.15 4.1.4-.7-.65-1.2-1.3-.65-.1-1.25-.15 0 .5-.3.75h.05q-.25.05-.55.05-.25 0-.6-.05m10.5-26.55v.05H22q-1.9.85-3.8 1.55l.05.25.6-.1q9.2-3.2 15.05-8.8.2-.2.45-.3 3.25-3.4 7.2-9.85-2.1 1.9-7.05 7.55-.6.8-1.25 1.5l-5.3 4.65q-2.85 2-5.85 3.5h-.05M44.8 117q-.4.55-1.9 2.65-1.95 2.55-5.3 7.35-1.35 1.9-2.6 3.5-1.95 2.3-3.8 4.15-.35.3-.65.6-1.45 1.35-2.95 2.5l.15.05q2.6-1.75 4.9-3.8 3.2-2.95 5.65-6.55 2.6-4.35 4.45-7.3 1.15-1.8 2.05-3.15m-9.75 64.35v.05q.3.5.6 1.65.05.05.15.1-.25-.85-.7-1.75l-.05-.05M16.1 173.8q.1.15.25.25h.4q-.2-.05-.65-.25m197.85-16.6q.1-.5.25-1-1.95.45-4.3 1.55-5.05 2.65-6.45 3.2l.2.15.4.15q1.2 0 5-2.5 2.15-.95 4.9-1.55m-19.65 17.4q-.25.1-.45.25-3.35 1.75-5.2 3.25-.2.05-.25.25-.25.1-.45.35-1.9 1.8-3.1 4.7v.05l.25 1.55q.35-.95 1-1.85.8-1.25 2.15-2.65.7-.7 1.4-1.5 2-1.85 4.3-3.4.4-.4.9-.6 3.4-2.25 7.6-3.75l2.4-1.4q-.35.15-.8.3-5.8 2.35-9.75 4.45m5.25 3.85q-.2.1-.25.25-1.45 1.1-2.7 2.35-1 .85-1.8 1.8-.75.8-1.4 1.65-.65.9-1.4 1.8-1.4 2.1-2.65 4.4l-.05.65q2.05-2.25 4.05-4.4.9-1.15 1.95-2.15.1-.2.2-.3 2.05-2.25 3.55-3.85.65-1.55 1.7-3-.05 0-.15.1-.1.05-.15.1-.5.3-.9.6M181.5 158.3q.2 5.7-4.05 12.2-3 4.35-9.5 10.8-5.45 4.7-14.2 11.45l-.9.65q-.8.6-.75.8l.55-.45q19.3-13.9 25.7-23.25 3.55-5.3 3.55-11.6v-.6h-.4m17.8 12.3l.05-.1q.25-.05.55-.05l.5-.15q2.4-.6 4.45-1.1 2.6-.65 4.5-1 .2-.35.45-.65-4.45.3-9.7 1.95-4 1.25-5.8 2.2.25 0 5-1.1m1.2-5.1l-.65.25q1.7.2 6.85-1.45 3.7-1.1 5.7-1.85.2-.65.45-1.25-4.05 1.55-7.6 2.75-4.2 1.35-4.75 1.55m-5.9-16.45l-2.05 2.35q-.25.3-.55.65-.05.1-.15.2-.6.8-1.25 1.7-.2.25-.4.4-2.25 3.3-2.25 3.95 0 .6.2.35.8-.7 3.25-4.1.25-.3.45-.55 2.75-4.05 2.75-4.65v-.3m-104.85 36.4q-.45-.05-.9-.15.15.1.3.1l.6.05m-20.65-18.3q-.25.2-.55.4 1.2 1.1 2.5 2.15 1.9 1.6 3.75 3.05 5.85 4.4 11.75 7.45 8.4 4.35 13.5 4.35-14.15-3.25-25.25-12.2-3-2.45-5.7-5.2m-1.95 2.65l-1.1-.8q2.8 2.25 7.65 8.5l1.3 1.2q4.7 4.05 11.8 6.1-4.7-1.55-10-6.15l-1.85-1.95q-5.9-5.7-7.8-6.9m117.65-23.25q-.75-1.95-1.25-2.5 0 .25-.2 0l-.1.3q.15.85 2.05 6.6l.15.1q.05.25.25.05-.2-2.35-.9-4.55m-17.85-43.65q4.4-1.25 7.5-2.75l3.2-1.45-6 2.05q-8.2 2.1-10.9 2.65l-8.35-.2-.15.55v.05q.1 0 .1.15 1.9.4 4.25.55 3.9.4 10.35-1.6m-66.3 3.8q0 .9-.05 1.45l-.65 9.35q0 .95.1 2.65.2 2 .3 2 .7-8.95.5-14.1l-.2-1.35m2 .3q.05.25-.3.55-.15 1.15 3.2 6.15 2.4 3.55 5.65 7.85l1.2 1.35q-2.05-3.6-3.3-5.75-2.35-3.95-6-9.7l-.4-.55-.05.1M68.7 98.15l-.3-.1q-2.35-1.65-3.45-2.65-.15-.2-.15-.25-.05 0-.05.55 0 1.45 3.85 3.6.1 0 .25.05 4.4 2.5 11.9 4.65 2.2.35 3.35.35l3.2-.2.05-.1q-6.15-.3-10.55-1.9-1.85-.8-8.1-4m134.6 78.35q-.45.45-.75.8.1-.1.2-.1l.55-.7z"/><path fill="#C99D7A" d="M14.7 191.15v-.05q-.048.048-.1.05h.1M32.1 199l.2.25.05.05q-.05 3.25-1.2 5.85-.55 1.45-1.5 3.4-.25.7-.2 1.55 0 3.15 2.95 8.45.05.25.25.45l.1.3q.2-.2.9-.45.25-.05.5-.35.05-.15.25-.3.35-.45.3-.95-.05-.05-.05-.15v-.05q-.15-.3 0-.45 0-.15.05-.25l-.2-.3v-1.45l-.05 2.65q0-.15-.05-.45-.2-.65-.6-2.4-.8-2.5-2.3-3.4.8.35 1.7 1.15l.85 1q-.15-2.4-.4-3.9 0-.4-.05-.6l-.4-1.1q-.15-.1-.25-.3-.85-.65-.65-.9.95.45 1.3 1l.45.9q-.2-.15-.75-.5.55.6 1.05 1.35.1.35.35.8.05-.45.3-1.05.1-.6.4-1.3 0-.05.15-.1l.05-.25v.05l.85-3.55q-2.1-4.4-2.55-4.7-.4-.3-1-.2-.25 0-.8.2m10.5 22.7q0-.4-.55-1.7-.5-1.1-.55-1.25l-.3-.5q-.35-.2-.85-.45-.55-.3-1.25-.55l.1-.2q.25-.3 1.05 0 .15.05.4.15-.55-2.8-.4-3.25-.15-.1-.2-.25-.55-.65-2.15-1.75l-.25-.5 1.15.9q.7.6 1.3.7h.3l.8-2.45q-.2-.15-.25-.3-1.5-1.9-2.9-2.35l-.05-.2 1.5.35q-.1-.25-.35-.65-.25-.5-.55-1-.55-.95-1.5-1.45 0 .7-.25 1.75.2-.6.25-.6-.25 1.2-.4 2.25-.5 2.3-.7 3.85-.3 3.5 2.05 8.75.25.55.55 1.1.05-.05.2-.05.1 0 .35.25.4.1.4.4v.15q.1.1.2.25.7 1.05 1.75 1.05 1.35 0 1.1-2.45m-11.45-24.45q-.75-1.35-3.4-3.25-.35 1.45-4.75 9.15-2.6 4.35-2.1 7.6.25 1.6 1.15 2.95.1.25.3.45.35.45.85.85 0 .05.05.1h.25q.95-.3 1.8-.7.25-.1.35-.25.9-.6 1.15-1.3.3-.7.5-1.4.1-.65.1-1.05.2-2.35-1.45-3.9l-1.2-1.5q2.1.75 3 2.85.5 1.25.5 2.35-.05.25-.05.5v.2q-.2.45-.3.9 0 .15.05.4v.45q0 .1.05.15.2 1.4.45 2.55-.1-.55-.1-1.2-.05-1.05 0-2.55.15-.7.2-1.4.35-3.05 1.45-5.9-.9-1.55-1.95-2.8l-.95-.9q.35.2 1.4.9 1.25 1 1.8 1.75.95-3.25 1.45-3.95l-.3-.6q-.25-.3-.3-1.45m-5.25-4q0 .5-.25 1.05l.35-.65v-.3l-.1-.1m-9.05-4.05q-.6.7-1.25 1.6-.5.6-.9 1.25-.25.2-.5.5-1.8 2.55-2.9 4.65-.35.9-.75 1.9-.8 2.35-.5 3.95l.5.9q1.25.9 2.65.75.95-.15 1.6-.7.3-.3.55-.65h.05q.75-.5 1.35-.8 1.2-.8 1.6-1.1 2.8-1.9 5.5-3.9l1.1-2.05-.15-.05.15-.05q.15-1.7-.5-3.15-.6-1.25-1.85-2.15-.15 0-.45-.1-.35 0-.95-.1-.05-.05-.25-.1-1.2-.25-1.7-.6l-.05-.2-.05-.05q.05 0 .25.05h.6q2.75.6 3.6 1 .25.1.3.15.8.55 1.15.95-.1-.3-.25-.65-.05-.25-.1-.45-.3-.7-.5-1.15-.35-.7-.55-.75l-.15-.05q-.5-.1-1.4-.2-1.45-.2-1.55-.35-.9-.6-.9-.85l.6-.65q1.35.1 1.5.1.9.1 1.55.55 1.15.9 1.2 1l1.2 1.1q.15.1.2.2.35.45.7 1.05.2.4.45.8.4.95.9 1.35 2.05 1.4 2.7 1.85 1.15 1 1.5 2.1l1.05 1.25q1.8.6 3.05 2.65v.1l.2.2v.15q.05.05.05.15v.1l.1.1q.5.7 1.4 2.45.3-.2.5-.15.05-.05.6.25.55.35 1.6 1.35.8.6 1.15 1.05.3.25.45.4l-.55.5q.55.4.55 1v.1q.1.5-.2.95.35-.45 1.05-1.2.1-.2.25-.4 2.7-4.55 2.75-5.8-.15-.35-.15-.5 0-.2.1-.2-.15-.55-.25-1.2-.45-1.9-1.1-3.15-.45-.8-.9-1.35l-.05-.05q-.75-.9-1.4-1.65-3-2.6-4.45-4.15.05.55.15 1.15v.05q.1.05.15.15.9.95 1.25 2.05.3.8.2 1.75v.2q-.5 2.05-.25 2.25.55 1.4 2.7 4.7 1.6 2.2 1.15 2.75l-.35.5q-.3-.1-.35-.1.1.05.05.1l-.5-.3q-.05-.05-1.75-2.55-2.1-3.05-4.5-4.7-3.75-2.65-6.45-4.4-1.2-.8-2.4-2.65-.45-.6-.6-1.05-.5-.7-.55-1-.35-.75.1-.45-1.6-2.05-3.25-2.7-.7-.25-2.15-.8-.55 1-2.65 3.65l-.6.8q-.25.3-.5.75m-3.35 8q0-.15.1-.45 2-.1 3 .7 1.35.9 1.45 2.25l-.15 1.2q-.6.95-.5.55v-.1q-.05-.35.2-1.45-.25-1.25-2.2-2.55-.05-.1-1.9-.15m5.65-3.5q-.5-.3-1.2-.35-.55-.1-.6-.25.7-.55 1.6.05 1.45 1.05 2.35 2.65.55 1.45.2 2.05-.6.95-.35.4l-.15-.1q-.4-3.35-1.85-4.45m-9.9.15l-.55.45q-1.6 2-1.6 5.2 0 2.85 1.85 6.2 2.55 4.2 6.7 5.05h3.5q-.05-.35-.05-.75 0-2.65 1.45-5.3 1.75-3.25 2.45-4.6l.25-1.25q-1.2.95-8.1 5.05 1-.55-.15.6-1.35 1.2-3.15.7-1.8-.4-2.15-1.05-.5-.6-.25-3.7.25-3.2 4.5-8.25l.3-.4q-.6.2-1.65.6-2.65.9-3.35 1.45m5.55-28.95q-.65.45-1.05.85.35 1 .95 2.3.1.4.35.9.9 1.65 1.55 2.65.75 1.05 1.15 1.45l.75-.5q.1-.4.3-.85.1-.4.15-.75-.05.4-.1.75-.3.8-.65 1.55l5.3 3.95q.05-.15.4-.8.05-.3.25-.6.25-.4.5-.95l.05-.15q0 .45-.3 1.2-.2.35-.25.65l-.5.8q.45.3.8.7.85.6.85.7l1.15-.3q.65-.1.95.1-1.25 1.15-2.15 1.05.05.55.35 1.1.3.6.9 1.2l3.25.9q-.05.05-.8.15H27.7q.8 1.25 1.2 3.7.25.8.75 1.45.4.85 1.2 1.45h.05q.9.6 2.35 1.25 1.75.75 2.65.8l.9-.5q.2-.35.75-.6-.7-.4-1.6-6.6-.1-.5-.3-.85-.3-1.15-.6-1.65v-.05q-.05-.05-.05-.15-.15-.25-.3-.45-.85-1.3-2.55-2.95-.3-.25-.65-.5-5.65-3.9-9.05-6.25-1.55-1.05-3.5-3.1-2.5-2.7-2.9-3.05H14.8m86.4-143.15l-.15.15 1 2.15-.85-2.3m28.2 16.1q.15.15.2 1h5.75q2 0 2.35-.1.45-.05.65-.3-2-.45-4.4-.65-3.2-.4-4.55.05m-7.6-19v-.15l-.6-.25.6.4m3.2 1.35l.45.7q.45 0 .85.35.3.3.3.95.05.15-.15.9l-3.5.15q-2.3 0-4.35-.15-4.8-.45-8.15-1.85-3.7-1.55-5.1-4.05l-2.7 2.95q.9 1.75 1.75 3.9.85 2.05.85 2.5 0 1.6-.95 6.25-1 4.2-.8 5.05l.2.75q.3.65.7 1.3.3.55.3 1.05 0 1.15-1.8 3.35-1.75 2.3-1.75 3.85 0 2.5 1.35 5 .75 1.4 1.8 2.85 1.65-1.45 4.25-3.5 1.9-1.5 2.4-2.15l.25.4h.05v.6q0 .6-.5 1.5-1 1.7-3.2 2.95-1.65 1-2.4 2.35-.7 1.2-1 3.65l.75 5.4q-.15.7-.5-1.2-.5-2.15-.5-2.25 0 .5-.1 1.3 0 .7.95 4.25 1.15 3.85 1.8 5.25 1.1.9 3.5 2.4 2.05 1.25 2.95 2.3 1.55 1.45 4.25 2.4.7.25 1.35.4 1.65.45 2.9.45 1.15 0 4.7-.55 3.8-.65 4.4-1.05.75-1.75 4.55-5.1 3.4-4.2 2.95-11.65-1.05 2.15-1.35 2.15l1.5-3.7q.3-2.45-.45-3.85l-.1-.1v.05q-3.3-5.3-4.15-7.1 1.65.2 5.45 4.9l1.3-2.05q.2-1.05.5-2.75.25-1.75.25-2.4-.85-4.65-1.45-5.75-1.2-2.2-1.35-2.45-1.3-1.25-3.55-1.55 1.1 1.1 1.6 1.55.35.5 0 .9-.4.4-1.3.65-1 .15-1.5.05l-4.85.3-1.25-.3q-.6 1.45-.65 1.45l1.05.4.2-.4q.5 0 2.9-.15 2.5 0 3.35-.05.9-.2 1.2-.65.75-1.05 1-1.3l.2.5q-.6 1.5-1.35 2.1-1.35 1.05-7 .75l-1.65-.6q-.35 2.2-.6 4.9.25 2.35-.4 2.35l-.8-2.7q-.25-1.35-.45-2.4 0-.25-.1-.5 0-.1-.05-.3-.85-4.7-.85-4.8 0-.25 1.2-1.3 1.45-1.25 2.95-1.75l-1.4.05-1.45-.15q1.45-1.5 2.55-2.25 1.7-1.05 3.6-1.05 2.1 0 3.25.45.3.05 4.85 2.05.6-1.85-.95-4.2-1.7-2.95-1.7-6.25 0-.7.2-2.45.15-1.8.4-2.65-.85-.05-1.6-.45-.6-.25-1.05-.25-.55 0-.7.45 0 .25.1.55v.1q-1.15.6-3.05.15-1.15-.4-5.6-2.15M118.5 37q-.8-.1-1.55-.2-3.55-.45-8.05 0l-4.6.6-.2-.75q.35-.9 1.35-1.5.45-.25 3.1-1.1 2.65-.8 3.35-.8 2.35 0 4.35 1.35 1.95 1.2 2.25 2.4m-10.25 5.65q-.6-.1-1.35-.4-.7-.25-.75-.3l-.2-.05q.1.1.1.3-.15-.1-.2-.5-.2.4-.2-.5 0-.55.2-.7.05 0 .2-.05 1.05-1 3.5-1.85 2.2-.75 3.7-.75 1.65 0 4.15.7.65 0 1.2.2.55.2 1 .6.95.85.95 2 .3.9.05 3-.15 2.55-1 4.35-.65-.75-.75-2.3.3-2.4.1-3.3-.1-.35-.35-.65-.35-.45-.95-.85-.15 2.55-1.7 3.7-1.55 1.2-4.9 1.2-1.15 0-1.9-.6l.75-.85q-.9-.45-2.25-.7L106.5 44l3.95.65q1.15-.8 2.75-1.65h-.2q-2.1 0-3.6-.15l-1.15-.2m-3.55-2.5q-.15-.25-.3-.6l-.1-.4h.45q.4 0 .85.6-.15.3-.9.4m12.55 12.35q.1 0 0-.1 0-.1.4-.1.15 0 .95.7.1.05.2.15.35.3.95.5-.35-.25-.75-.65l.4-3.1.3 3.45q.35 0 1.15.1.6.2 1.1.2 3.1 0 2.3-4l.45.95q.15.9.15 1.4 0 .7-.6 1.4-.15.15-.3.35.6-.1.95-.4l1.25-.85q.45.35.45 1.05 0 .5-.45 1.9.5-.3 1.35-1.15.75-.65 1.35-.65.3 0 .55.05l-2.45-3.65 2.8 2.75q.25 0 .45.15.15.15.15.4l5.55 3.35-1-.05-1.05-.25-1.8-.9.65.4q.6.75 1.15 1.8 1.6 3.1 1.6 4.85 0 1.1-1.8 4.1-1.6 2.7-2.3 3.4-.45-.1-.45-.7 1.2-4.3 1.2-6v-.1q-.15.1-.35.15-.4.05-.75.15-1.1 1.5-2.2 2.85-1.15 1.4-7.45 1.5-1.45.05-2.75-.15-4.35-.8-6.85-4.7-.85-.5-1.5-1.15-1 .7-.85 1.25h-.3q-.2-.6-.2-1.2v-.05l-.3.65q0 1.2 2.05 4.55 1.1 1.65 2.05 3.3v.3q-.05.05-.15.1-.05.1-.35.1-2.45 0-4.5-4.55-1.55-4.55-1.55-4.65 0-1 1.4-3.6.4-.8.85-1.3-.9.15-1.6.1h.25q.95-.5 2.1-1 1-1 2.05-1.05.75-.5.75-.55l2.6-2.4q.15-.1.2-.25 2.5-2.35 3.1-3.1-.65 2.05-2.5 4.3.7 1.3 1.45 1.9h1.15l-.7-1.1V52.5m-2.95 15.55q2 1.1 4.3 1.55 4.1.8 9.1-.3l-3.6 2.9h-.3q-2.95.25-5.2-.55-2.7-1.05-4.3-3.6m19.1-5.65l-.3-.3q0 .2.05.45.1-.05.25-.15m-14.8-1.6q-.9-.5-2.15-1.25-3.55-2.3-3.65-2.3-1.45 0-2.95 2.65l-.75 1.75q.3-.45 1.25-1.05 1.45-.85 2.2-.75-.15.45-1.9 1.65-.05.1-.1.15.3 0 .8.05.85.2 2.05.85l6.6.15q.55 0 .95.4.5.3.65.3.35 0 1.1-.55 1.25-.45 3.65-.55 4.1.55 5.75.5 0-1.6-.15-1.8-.45-.95-3-2.75-1.15 1.05-4.1 2.35-2.8 1.2-3.95 1.2-.5 0-2.3-1m-4.3-6.55l1.25.9-.1-.1q-.6-.5-.85-1.1l-.3.3m1.25-13.6q-.35-.15-.65-.05l.25 1.2q.4-.15.6-.3.2-.15.15-.45-.05-.25-.35-.4M130.2 18.3l-.5-.35.75.8-.25-.45m85.4 123.45q-.3-1.3-.6-2.4.05 2.95 0 11.55.45-3.9.6-9.15m-6.95-23.3v4.3l.45 1.4q-.15-2.1-.45-5.7m8.5-14.4v.15q0 .05.05.05.85.65.9.3-.5-.3-.95-.5m22.15.9v.2q.5-.1 1.3.15.85.25 1.7.65-1.15-.9-3-1M222 88.1h.05q.3-1.3.8-2.95 1.5-5.05 1.6-5.9-1.25 3.7-2.45 8.85m-5.75 54.55l.2 3.6q0 10.45-2.65 16.95-1.85 4.55-5.85 8.5-3.2 3.15-4.65 4.8l-.55.7q-.15.05-.2.3-.1.05-.25.3-.3.45-.6.95l-.8 1.3q-.5 1.1-.8 2.35 1 4.65 5 4.65h1.15q4.65-.5 7.95-4.9 2.1-2.85 3.1-6.85 1.15-4.25 1.15-9.8 0-12.65-1.25-20-.3-1.9-.75-3.6 0 .5-.2.75m.25-38.6q-.25-.15-.6-.3-.95-.4-1.75-.4-3.5 0-4.65 2.5.2.35.25.7-.3.45-.65.6-.35 1.4-.05 2.95 0 1.7.3 6.9.4 6.6.9 8.7.25.95.6 1.95 1 1.15 2.15 2.65.05.05.1.15 1.15 1.25 2.3 1.55h.55q.95 0 1.8-.1 3.35-.9 3.35-5.3 0-2.15-1.1-4.55-.55-1.2-1.35-2.45-2.6-3.25-2.7-3.55-.4.05-.7.1-.95.2-2.5.25-2.05.2-2.3-.05h.85q-1.05-.3-1.35-1.4 1.05-1.45 1.4-4.1.2-.95.25-1.8.25-1.75.4-2.7l.3.3q1.75 1.75 3.75 3 2.05 1.45 3.15 1.45.35 0 .8-.1.95-.25 2.55-.9-1.55-1-2.55-1.65-1.55-1-1.6-1-.1-.95-1.9-3.4m24.15 8.4l-.15-.6q-.3.6-1.25 1.2t-.95.65q.75-.2 2.35-1.25m-1.05-6.25q-.4.3-.5.35-.45-.15-.45-.65v-.05q-.05-.05-.1-.2-2.8-1.05-4.65-1.3-3.75-.4-5.3 3.85.9-1.05 2.1-1.85.95-.6 1.3-.6 1.35 0 4.35 2.35 3 2.4 3.85 2.4l.8-.25q.35-.15.85-.15.4-.15.45.15 1.45 5.55-.95 8.75-1.55 2.25-6.25 4.1-5.75 2.35-7.05 3.3-3.45 2.35-3.45 6.4 0 6.55 5.05 8.15.8.15 4.35.7 2.35.45 3.5 1.1.05-.45.2-.75-.15-.3-.15-.6 1.6-5.3 3.2-11.3 1.3-4.8 2.1-8.2.8-4.5 1.1-7.65-.1-1.9-.7-4.2-1.05-4.05-3.05-4.05-.4 0-.6.2m-13-7.25q-2.3-1.05-2.4-1.05-2.55 0-3.75 1.65-.25.3-.45.7-.45.75-.65 1.8.05-.2.15-.35.2-.45.5-.8.7-1 1.85-1.6 1 1.15 1.8 2.3.55-.45 1-1.05.45-.3 1.4-.3 1.5 0 8.3.85-2.5.2-4.75.5-2.15.25-3.65.65 2.1 0 2.5 1.4.25.7.25 2.1 3.75-2.55 6.8-1.8 1.45.25 2.95 1.2-.05-.2-.05-.45-.05-1.8-.15-2.05-.35-.9-2.25-1.45-2.3-.55-3.3-.95-.4-.15-.75-.35-.5-.15-.9-.3l-.8-.45q.2.45 0 .7-1.2 0-3.65-.9m5.45-28.15q-1.35 0-2.4.4-2.4 1.05-4.1 5.05-.15.6-.2 1.2-.05.55-.15 1.85-.05.2-.05.45.55-.25 1.2-.4 2.1 0 2.7.4l-.1.2q-.3-.1-1.8-.1-1.2 0-2.05.15-.15.6-.35 1-1.15 1.95-1.4 3.45-.25 1.4-.75 3.65 2.6.3 3.5.95-1.85-.35-3.7-.15l-.65 2.5q-.8 3.8-.65 6.55l1.35-.65h.05l1.2-.3q1.25-.9 4.75-8.15 1.8-3.95 2.8-6.05.15-.6.3-1.25 2.45-8.65 2.45-9 0-1.75-1.95-1.75z"/><path fill="#82AFAF" d="M4.75 182.75q-.3 0-.6-.05l-.2.2q-1.8 1.95-2.1 3.1-.25.9-.3 3 0 .3.05.55h1.75q.8-.15 2.55-1.15 2.4-.85 7.05-1.15h4.7q.4-.6.95-1.2 1.7-2.05 2.65-4.65-4.15-.5-8.65-.5-.8 0-6.05 2.45.8-.5 1.2-1.45.2-.25.3-.35-2.75 1.2-3.3 1.2m15-4.65q-1.55-1.15-2.55-1.95-1.65-.3-3.25-.7-2.7-.65-4.55-1.25-.2-.15-.3-.15l-.15-.05q-.8-.3-1.45-.6-.7.6-1.55 1.25-1.3.95-2.05 1.55-.1.05-.15.15-.05.05-.15.2.35.35.8.9 1.15 1.2 3 1.2 1.75 0 9.05-.7 1.75 0 3.3.15m-10.7-6.5q-.3.4-.65.85.5.15 1.1.4 2.05.8 3.15 1.15.3-.25.3-.75.6.05 1.25.15-.75-.9-1.2-1.8H9.05m53.05-35q-.048-.19-.05-.3v.3h.05m37.55-62.45l.1-.2q-.2.05-.4.15.15 0 .3.05M35 181.2q0 .1.05.15l.05.05-.1-.2m159.85-6.2q-.5.2-.9.6-2.3 1.55-4.3 3.4-.7.8-1.4 1.5-1.35 1.4-2.15 2.65-.3.55-.35 1.15v.25q1.8-.55 10.15-5.35 3.95-2.35 6.4-3.45l.6-.7q3.1-2.95 4.65-4.7.95-1.05 1.8-2.15-1.9.35-4.5 1 .25.05.35.15v.25q-.6.25-1.15.55.45-.15.8-.3l-2.4 1.4q-4.2 1.5-7.6 3.75m-5.3-40.7h-.25l.25.9v-.9M171 143.05q.1-.6 0-.8l-.25 1.1.25-.3m37.05-35.5q.05-.4.1-.75-.7-.4-2.1-1.35-2.65-1.75-4.2-1.9-8-.95-11.7-1.65-3-.55-5.55-1.45-.2-.1-3.2-1-.7.05-1.55.1-3.55.35-5.4.6-3.1 1.5-7.5 2.75-6.45 2-10.35 1.6-.6.15-2.5.15-1 0-1.75-.7 0-.15-.1-.15v-.05q-.45-.4-.8-1.25-.15-.5-1.4-4.05.45 2.1 1.15 4.45-5.45-15.9-5.9-19.45v-.05l-2.6-4.65q-.35 2.3-1.05 4.9-.5 1.8-1.1 3.35-1.3 6.1-6 13.6-1.5 2.4-4.5 6.9-2 3.5-3.7 5.6-.85 1.4-1.55 2.65v.85q0 .65-.05 1.2l.7-.6q.7-.8 8.35-9.9 4.35-5.3 5.35-5.3.6 0 1.85 1.7.8 1.1 3.1 4.15 5.3 7 12.7 11.15-1.9-5.5-3.45-10 .65 1.75 1.5 3.6 3.2 7 3.25 8.2h-.9q-2.3.2-8.4-3-3.8-2-6.1-3.75.15 1.35.45 2.95.8 5.45 1.1 8.5l-.1.2q-.75-3.8-1.35-6.7-.75-3.55-1-5.65-1.2-1.15-1.95-2.25-.1.05-.4.3-1.45 5.85-6.35 11.1l-.15-.2q3.5-3.9 5.05-8.1.4-1.1.7-2.2-3.5 2.55-17.25 12.35-.85 2.55-1.8 5.95 0 .1-.05.2-1.5 6.05-1.75 10.55l-.2.05q.05 1.65.65 3.15.65 1.45 3 5.1 5 7.65 5 15.75 0 .9-.15 2.1 24.45-4.7 36.95-16.7 4-3.65 7-8.5 1.25-2.1 2.75-4.5.4.05.85.25.35 5-3.2 10.7-3.8 6.05-10.75 11.35-16.05 12.05-35.95 12.7-.2.3-.5.85-.2.4-.2 1 0 .5 1.75 4 1.8 3.5 1.8 4.5 0 3.25-2.5 6.15 4.55-.75 14.85-7.05 10.3-6.25 11.05-6.45-6.9 6.35-14.4 10.6-6.7 4-13 5.8-.15.45-.3.65-.1.25-.1.85 0 .55 2.8 6.9 2.75 6.3 2.75 11.6 0 5.05-.9 10.9-.75 5.4-1.9 8.55h-.3l-.1-.9q1.3-6.65 1.55-8.35.8-4.85.8-6.8 0-5.2-2.25-12.2-2.6-7-3.25-9.55l.2-1.35q-4.4 1.65-12.65 2.8-6.95 1.05-10.7 1.05-.5 0-.5-.15l.1-.15q2.7-.6 12-2.95 10.45-2.65 12.95-3.4 1.4-2.2 1.9-3.3 1.1-1.85 1.1-3.3 0-2.35-1.75-5.25-1.85-2.85-1.85-2.95 0-.55.25-1.15.3-.6.45-.95-8.5 1.2-19.15-2.4-9.8-3.4-10.7-6.45l.75-.25q.6.2 8.05 2.85 8.15 2.45 13 2.45.95 0 4.5-.35 3.9-.5 5.95-.9.6-3.85-.75-9-1.3-4.75-4-8.95-1.45-2-2.3-3.5-1.5-2.7-1.5-5.9 0-3.15.85-8.25.5-3.1.95-4.9.35-1.45.7-2.1l-.2.9q-.25 1.45-.5 2.75-.15.75-.3 1.4.2-.55.25-.9 0-.1.05-.15 1-3.35 2.35-6.1.1-1.1.25-1.9l.7-.7 2.2-1.8q-.1-.45-.25-.9-.45.8-.85 1.6h-.25q-.05 0-.05-.3 0-1.05.75-2.8l-.4-1.4q-1.25-4.4-2.15-6-.1-.15-.15-.25-.95-1.45-2.15-3-1.85-2.5-4.3-5.45-1.1-1.3-2.1-2.55-5.05-4.6-8.4-8.7-3.15-3.9-4.35-6.9-.55-.7-.95-1.85-.5-1.2-.5-1.7 0-2.05.6-2.9.25-.25.8-.75-1.95.8-3.2 2.4-.8 1.05-1.8 2.9-.9 1.3-4.4 2.85-4.25 1.7-6.05 2.45-11.75 5.35-15.25 6.8-5.15 2.15-9.5 2.15-.35 0-.55-.25l-.1-.25q0-.05.05-.1-1.15.25-2.9.55-6.2 1.05-9.9 2.25-2.3.75-3.95 1.95-1.4 1.05-2.8 2.9-2.55 3.25-3.95 5.9-.3.85-.3 1.05L35 112q.25 0 1.3-.05 1.1-.1 1.9-.05l.1.05q.05.05.05.35 0 .2-2.8 2.8-1.75 1.45-2.95 2.7-.1.8-.75 1.8l2.25-.95q.4.35.55.55-3.75 2.65-5.15 5.3-1.15 2.1-1.15 5.3v1.25q.15.95.55.95 1.65 0 3.7-1.6 1.85-1.8 2.2-2.2.6.25.6.85 0 .55-.4 1.45 1.25-1.6 2.6-3.5 3.35-4.8 5.3-7.35 1.5-2.1 1.9-2.65-.9 1.35-2.05 3.15-1.85 2.95-4.45 7.3-2.45 3.6-5.65 6.55-.65.85-1.5 1.95-.85.75-4.35 2.35-1.3.5-2.6 1.05-.45.25-.9.55-3.3 2.4-4.2 4.65v.25q0 .9-.25 2.75l1.55.25q.6 0 1.6-.3 0-.05.05-.05h.05l.05-.15q.8-.6 1.65-1.2 4.45-3.25 6.8-5.05 1.4-1.4 3.5-3.75l.4.5q4.95-5.65 7.05-7.55-3.95 6.45-7.2 9.85-.8 1.45-2.55 3-1.8 1.55-6.5 5.05-9.45 7.25-9.6 15.65.75.2 1.5.9.25.2 1.85 2.45.4.4 1 .9h.2q4.55 1.55 10.9 5.1 4.15 2.35 7.7 2.35 8.75 0 13.9-5.5 1.1-1.1 2.05-2.55 3.2-4.65 3.7-9.15.05-.45.25-1.4.05-.95.3-2.6.3-2.15.75-5.55.95-6 .95-9.5 0-.25-.7-4.15-.25-1.05-.3-2-1.2-3.2-2.3-5.2-.35-.7-.95-1.6-1.7-2.4-4.75-5.8-.5-.55-1.05-1-.95-1.1-1.65-1.9-2.85-3-2.85-3.1 0-.8.6-.85.2.1 2.6 2.7.55.55 1.15 1.2.65.3 1.45.65 3.55 1.9 6.6 4.65.45.3.75.6v-.7q.15-3.7 1.25-3.7.05 0 .55 2.55v-1.5q.1-.9-.25-1.65h.25q0 .2.85 8.15v.05q.15.35.45.8.15.15.25.45v-1.55q-.05-2.15-.7-7.4-.6-4.65-.6-7.05l.05-.8q3.6 3.75 4.7 11.15.1 1.25.3 2.95.3 3.25.6 8.15.25-1.4.3-2.4.1-.2.4-.25.55-3.7 1.1-8.2.05 0 .25-.05.1-.2.4-.2 1.1 0 1.7 7.05v.2q.3 3 .5 6.05v1.1q0 2.65-.5 4.6-.05.15-.15.4-.6 2.05-.6 4.1 0 3.2 1.7 8.75-.1.35-.3.9l-.1.35.6 1.1q.3.45.6 1 3.85 6.2 9.85 11.95 15 14.25 32.95 16.6 0 .65-.2.85-.25.2-2.9.2-7.5 0-16.9-3.15-6.35-2.05-10.4-4.2 4.8 3.35 11.2 5.9 4.65 1.75 4.65 2.7 0 .9-.15.55-3.55.3-9.2.3-.1 0-5-.25-4.8-.35-6.85-.35v2.25q2.4 4.55 4.95 6.85 1.55 1.45 1.55 2.7 0 .3-3.5 3.5-3.55 3.7-3.55 6.9 0 1.5 4.25 3.7 4.2 2.2 4.2 3.85 0 .1-4.2 4.65-4.25 4.9-4.25 6.7 0 .7 2.65 3.3 2.65 2.5 3.85 2.85.3-.6.85-3.1.5-2.1 1.4-3.25.35.05 1.45 1.6 1.2 1.75 1.3 1.9l-.35-1.15-.6-15.55q0-.75.45-1.2 1.2 5 2.8 11.9 1.75 5.45 6.5 12.1-.15-1.65-.3-3.75-.15-2.2-.15-2.35h.45q1.1.65 4.05 3.55 2.4 1.75 5.35 2.4 1 .25 2.05.3.45.1 1 .1h6.3q2.1-1.3 3.55-3.8.2-.45.45-.85 1.3-2.65 1.95-2.65.6 0 .7.25.05.15.05 1l-.15 2.25q-.05.15-.05.3.05-.15.2-.3.45-.75.95-2.4.45-2.05 1.65-2.95l.7.5q.05.6.2 1.6 0 .85-.5.85.35 0 .9 2.65l.3.6q.35.75 1.05 1.2 1.05.85 2.65.85 2.25 0 6.65-4.8 3.95-4.25 4.95-6.45 2.85-6.8 3.65-7.4l.2.15q.15.55.15 1.35 0 1.2-1 3.5-1.5 3.7-3 9.75 3.65-3.45 8.95-10.05.45.6 1.85 5 1.1 3.35 2.95 3.35.5 0 3.45-5.85 3.25-6.45 3.25-9.85 0-1.65-1.4-3.2-1.55-1.75-2.7-3.8-.85-1.35-.85-1.65 0-2.55 2.55-6.1 2.4-3.65 2.4-4.2 0-1.2-4.95-2.1-6.25-1.15-7.95-1.95l.4-.75-.55.45q-.05-.2.75-.8l.9-.65q1.15-1.2 5.1-4.4 3.2-2.75 5.75-4.65-6.2 2.65-8.9 3.75-5.95 2.1-8.95 2.1-.7 0-1.6-.25-.85-.2-1.3-.45v-.4q6-2.75 6.15-2.85 3.15-1.7 11.95-7.65 6.3-4.25 11-9.25 3.7-3.9 4.7-6.4 4.3-9.7 4.3-12.95-.05-1.75-.05-2.95 0-1.75.45-4.1.4.45.8.8.7.65 1.65 1.15-.15-2.35-1.7-5.8-2.1-4.1-3-6.45.2-.15.5-.15 1.35 0 4.4 4.45 1.95 2.9 3.7 6.2.15-.65.15-2.4 0-3.8-1.65-7.85-.5-1.15-.85-1.95-.9-2.1-.9-2.15 0-.35.15-.4.1-.15.3-.25 1.65 1 2.85 2.8.95 1.45 1.65 3.4 1.2 3.3 1.2 6.75.3-2 .4-4.35.25-3.65.4-5.8.05-.6.1-1.1h.25q.05.55.15 1.1.25 2.6.25 4.2 0 5.35-1.8 11.45-.3 1-.75 2.45-.15.55-.3 1.15-.2.9-.3 1.6.05-.1.1-.15.2-.55.5-1.05.6-1.95 1.85-5.05 2.05-5.05 2.1-7.75.6-4.3.95-6.85.05-.55.1-1 .5-4.65.4-7.9l.2-.05q.7.65.7 2.3 0 3.05-.4 6.65-.5 4.3-1.6 9.35-.05.45-.1.75.15-.55.35-1.05 1.25-3.35 3-5.4-1.55 3.8-4.45 11.7-1.75 4.3-3.55 7.8.15.25.45.5.65-.9 1.25-1.7h-.2q-.05-.05-.05-.4 0-.3 2.75-3.85 3.15-4.55 4.55-9.1 1.2-4.4 1.8-6.65.35-1.05.7-1.95.85-2.35 1.75-3.45-.3 1.45-.75 3.45-.8 3.65-1.95 9.2-1.9 5.9-5.95 10.4.1-.35.1-.55 0 .6-2.75 4.65-.2.25-.45.55.55.1 1.15.3 2.65.45 2.65 2.1 0 1.15-1.35 2.35-1.55 1.3-1.85 2.95l6.45-.1q.85-.15 2.3-.55.6 0 .35.25.1.05.2 0 .05 0 .05.3 0 .1-7.15 3.8-2.35 1.05-4 1.9-.3.3-.6.55v.05q-.85 1.05-1.75 2.35-1.95 2.8-2.65 5.8v1.75q.1.05.5.05 1.6 0 4.4-2.5 3.05-2.75 3.75-2.95.65-.15 4.7-2.05.4-.15.75-.3-4.75 1.1-5 1.1 1.8-.95 5.8-2.2 5.25-1.65 9.7-1.95 1.15-1.75 1.95-3.6.35-.75.65-1.5-2 .75-5.7 1.85-5.15 1.65-6.85 1.45l.65-.25q.55-.2 4.75-1.55 3.55-1.2 7.6-2.75.6-1.9 1.1-4-2.75.6-4.9 1.55-3.8 2.5-5 2.5l-.4-.15-.2-.15q1.4-.55 6.45-3.2 2.35-1.1 4.3-1.55.35-2 .65-4.2.05-.55.15-1.1.05-8.6 0-11.55-.85-3.25-1.6-4.65-1.75-2.7-2.6-4.1-.1-.15-.15-.3-1.4-2.25-1.45-3.85 0-.6-.1-2.3l-.45-1.4v-4.3q-.05-.3-.05-.55-.6-7.15-.6-7.8 0-1.95.05-2.55m-114.2-27.1l-.05 1.15q-.4 2.55-2.85 14.5-2.7 13.1-4 17.55 5.85-5.45 13.5-8.75 5.3-2.35 6.8-2.35 1.75 0 5.3 3 2.8 2.4 6.05 6.05.9 1 1.85 2.1l.6.6q1.75 1.7 1.75 2.55 0 .6-.25.65-.3-.05-.6-.05-.1-.1-3.35-2.25-1.8-1.25-4.5-3.05-7.2-4.95-8.75-4.95-.6 0-1.5.1l-.75.15q3.65 5.75 6 9.7 1.25 2.15 3.3 5.75l-1.2-1.35q-3.25-4.3-5.65-7.85-3.35-5-3.2-6.15l-1.5.5q.2 5.15-.5 14.1-.1 0-.3-2-.1-1.7-.1-2.65l.65-9.35q-4.25 1.7-9.1 4.45-4.2 2.35-4.55 2.5l.35-.45-.95.9q-.4-.35-.4-1.05 0-.3.7-4.25.65-3.55 1-5.6-1.3 0-3.5-.15-2.65-.2-3.4-.5-7.5-2.15-11.9-4.65-.15-.05-.25-.05-3.85-2.15-3.85-3.6 0-.55.05-.55 0 .05.15.25 1.1 1 3.45 2.65l.3.1q-.15-.1 0-.6.75.25 3.75 1.75 3.4 1.45 5.35 1.45.3 0 2.45-.3 2.1-.25 3.35-.25-.05 0-.1-.9-.2-1.1-.2-2.6h.25q.05-.1.65-.1.95 0 2.75.6-.15-1.35 1.35-4.75 1.65-3.75 3.05-4.1l.1.05 2.4-7.95M53.4 112.9q.5-.35 1.1-.4-.95-.95-1.3-2.05 0-2.1 3.3 2.7 3.25 4.75 3.25 5.5v.55q0 .1-.6.1-1.25 0-3.5-2.75-1.55-2.2-2.25-3.65m54.55 5.25q.95 1.4 2.95 4.75l-.15.8-.15.05h-.35q-.65 0-1.45-.9-1.9-1.85-3.2-3-.15.6-1.15 5.6-.35 2-1.75 2.9l-.3-9.65q0-.55.25-1.75.3-1.5.35-2.15 3.25.95 4.95 3.35m-13.75 89.8q0-1.05.5-1.3-.85 5.25 5.25 15.7 4.65 8.2 10.5 14.55.5.7 1.15 1.3.45.45.8.9-.45-.45-.8-.85-.7-.6-1.3-1.2-16.1-15.4-16.1-29.1z"/><path fill="#9F7B60" d="M140.05 73.3v-.85q-.35.75-.6.75-.95 1.5-3.25 3.7-3.8 3.35-4.4 4.1-1.2.95-1.5 1.3-.75.85-.7 1.25v.1q.25.5 0 1.1-2.05 5.45-3.25 4.85-.4-.35-.45-.3-.05.05-.05.55v1.2q0 1.1.65 4.45.25 3.2-1.65 4.95-.75 3.55-2.9 6.15.15.05.85.65.8.55 1.8.55 1.25 0 4.35-8.3.9-2.5 5.05-14.85.1-1.8.25-3-.1-.15 0-.15.05-2.15.05-2.2.25 0 .4 1.25v2.05q.2-1 2.25-3.15 1.45-1.3 2.6-2.1-.25-1.85-.25-2.2-.05-.45-.05-.85.05-.7.55-.85.15.8.35 1.55l-.05-.95q-.1-.05-.15-.1l.05-.65h.05m-14.9 32.15h.15q-.1.35-.25.55-.15.1-.2.05.2-.3.3-.6m-24.45-34.7q.05.1.2.3.85 1.15 3 4.4.3.45.7.95 3.95 5.8 4.8 7.25 1.55 2.75 4.85 10.65 2.1 5.05 3.45 5.05.55 0 .55-.05-.15-.15-.15-.25-.15-.65-1.9-5.05-1.3-3.15-1.3-7.2 0-.45.15-1.4.1-.25.1-.45.05-.35.15-.6.15-.8.15-1l.4 1q0 .1.05.25.6 1.7 1.9 2.95.35.35.8.7.25.2.55.4 2.35 1.55 5.15 1.55.55 0 1-.35.35-.4.75-1 .15-.35 1.5-3.05.7-1.2 1.1-1.95.3-.75.3-1.05-.3.05-2.2.25-1.85.05-2.5.05-2.9 0-5.65-.65-.85-.2-1.7-.45-3.05-.9-4.4-2.1-.3-.3-2.2-1.25-1.9-1.1-3.2-2.25-1-.95-1.6-1.55-.75-.25-2.7-2.95-1.2-1.6-1.9-3-.1 1-.2 1.85m2.75.4q.65.85 1.25 1.65l.95.95.2.1q-.25-.3-2.4-2.7z"/><path fill="#795F49" d="M142.5 54.65q-.3-.5-.45-.5l-.05.5q.4.25.6 1.25l-.1-1.25m-23.9-15q.55.4.95 1 1 1.6.3 3.3l-.1.6q.25-.4.45-1.4.25-.95.35-1.8 0-1.15-.95-2-.45-.4-1-.6-.55-.2-1.2-.2l-1.5-.1q1.65.35 2.7 1.2m79.05 149.6v-.4l-.2.6.2-.2m4 11.85l-.3-.55q-.2-.05-.35-.1.3.35.65.65m-3.4-5.5q-.15-.65-.25-1.35-.1-1.45-.15-2.55-.3.3-.55.65.2 1.35.95 3.25M233.4 156q2.65 0 3.45-2.25.15-.65.15-2.7 0-1.8-.15-2.3 0-.1-1.4-1.5-.05.2.3 1.65.5 1.6.5 2.45 0 2-.2 2.3-.35.9-2.45 1.55l-1.6.5.2.1q.3.2 1.2.2m-11.55-12.65q-.15-.2-.2-.3l-.05 13.2q1.5-.8 1.7-4.3.1-3.6-1.45-8.6m-.9 2.4h-.8q-.792-.05-.8-.3v.3q.9 1.5.9 5.2v.15l.7-.35v-5z"/><path fill="#FFF" d="M133.7 41.4l-.2 1.3q.5.1 1.5-.05.9-.25 1.3-.65.35-.4 0-.9-.5-.45-1.6-1.55h-1.85q.65.8.85 1.85m-5.05 1.6q-.25-.5-.35-.65-.05-.25-.05-.85t.3-1.15q.15-.3.75-1.05-1.75.35-2.55.9-.55.4-.55.6 0 1.1 1.2 1.9l1.25.3m.95-1.5q.3.15.75.15.5 0 .8-.15.3-.15.3-.4 0-.2-.3-.35-.3-.15-.8-.15-.45 0-.75.15t-.3.35q0 .25.3.4m-11 24.3l.5.1h5.9q2.65-1 4-1.6l1.3-.65q-.3 0-.7.05H128.2q-.85-.05-1.85-.25-3.7.1-4.1.5-.35.35-.65.35-.65 0-1-.25-.4-.3-.6-.4l-6.6-.25q-.3 0-.5-.05-.35-.1-.65-.2.65.4 1.15.7l1.6.8q1.55.75 3.6 1.15m-5.2-24.45q0 .9-.4 1.65h.2q.7 0 1.35-.35.6-.4.6-.85l-.25-1.2q-.05-.25-.35-.45-.7-.6-2-.85.85 1 .85 2.05m-4.3-.25q0 .25.3.4.3.15.75.15t.75-.15q.3-.15.3-.4 0-.2-.3-.35-.3-.15-.75-.15t-.75.15q-.3.15-.3.35m-.55-1.35q-.55 0-1.3.25-.8.2-1.2.45-.15.05-.2.05-.2.15-.2.7 0 .9.2.5l.3.25q.05.05.75.3.75.3 1.35.4l.3-2.9z"/><path fill="#352A20" d="M130.85 34.85q-1.9 0-3.6 1.05-1.1.75-2.55 2.25l1.45.15 1.4-.05 1.85-.4q1.35-.45 4.55-.05 2.4.2 4.4.65l1.35.25-.1-.9-.65-.45q-4.55-2-4.85-2.05-1.15-.45-3.25-.45m-13.9 1.95q.75.1 1.55.2-.3-1.2-2.25-2.4-2-1.35-4.35-1.35-.7 0-3.35.8-2.65.85-3.1 1.1-1 .6-1.35 1.5l.2.75 4.6-.6q4.5-.45 8.05 0m23.1-30.25q-4-3.55-5.65-4.6Q131.3 0 128 0q-5.1 0-9.4.4-11.05.95-16.65 4.5-7.2 4.6-7.2 14.8 0 3.4.55 10.95.45 7.5.75 8.2.1.3.3 1.65.45 1.6 1.45 3.2 1.4-4.55 3.65-9.55Q103 30.75 103 29q0-1.75-.95-4.95l-1-2.15.15-.15 1.45-1.6 2.7-2.95.1-.1q1.65 1.75 7.55 3.4 2.85.85 5.6 1.3 4.05.6 8 .4 0-.65-.3-.95-.4-.35-.85-.35l-3.65-2.05-.6-.4.6.25q2.8.9 4.35 1.8 1.55.6 7.5 1.7v-.1l-3.2-3.35-.75-.8.5.35q2.75 1.4 8.5 2.65l3.7 4.55-3 5.9.65-.5q1.4 1.95 2 7.1.45 3.4.45 6.6l-.1 1.05.25.1 1 .05q1.25-6.05 1.65-7.55 1.5-7 1.5-10.9 0-7.45-.8-10.95-1.45-5.8-5.95-9.85z"/><path fill="#432121" d="M119.1 65.9l-.5-.1q-2.05-.4-3.6-1.15l-1.6-.8q-.5-.3-1.15-.7h-.15q-.2-.1-.35-.1 2.5 3.9 6.85 4.7 1.3.2 2.75.15 6.3-.1 7.45-1.5 1.1-1.35 2.2-2.85-.35.1-.7.1l-1.3.65q-1.35.6-4 1.6h-5.9z"/></g><g id="sis01_02_7_3d"><path fill="#3A2E25" d="M124.45 38.65v1.2q-1-1.2-2.25-1-1.4.25-2.45 1.1v-1.3q-.05-.25-.3-.4-.9-.5-2.35-1.05-1.35-.45-6.05-.25-5.45.35-7.05.85-.45.15-.9 1.45-.1.2-.15.45v.15h-.15l-6 .3v1.35l2.75.6q1.55.1 3 .35v.15q0 .45.1.8.5 3.35 3.6 4.2 3.5.95 7.3.45 3.85-.6 4.6-.95.75-.3 1.55-4.3 0-.3.05-.5v-.7h.15q.45-1.6 2.95-1.6.4 0 1.05.75.25.25.55.7v.85q0 .2.1.5.65 4 1.5 4.3.75.35 4.6.95 3.8.5 7.2-.45 3.5-.95 3.8-5.1 1.3-.2 2.95-.3.1-.4.25-.7.05-.8.35-1.35l-3.95-.2q-.45-1.9-1.05-2.15-1.6-.5-7.1-.85-4.65-.2-6.05.25-1.45.55-2.3 1.05-.2.15-.3.4m.9 4.15q-.05-.6-.15-1.15-.3-2.55.4-2.95.75-.5 2.05-.9 1.25-.45 5.45-.2 4.9.2 6.45.75.8.2 1.05 1.5.15.6.2 1.6 0 .5-.05 1.05-.25 3.7-3.35 4.6-3.1.85-6.5.4-3.5-.55-4.15-.85-.7-.3-1.4-3.85m-21.95-.3v-1.05q0-1 .15-1.6.3-1.3 1.15-1.5 1.4-.55 6.35-.75 4.25-.25 5.45.2 1.3.4 2.1.9.85.55.15 4.1-.6 3.55-1.25 3.85-.8.3-4.2.85-3.4.45-6.6-.4-3.1-.9-3.3-4.6z"/><path fill="url(#sis01_02_7_3a)" d="M103.4 41.45v1.05q.2 3.7 3.3 4.6 3.2.85 6.6.4 3.4-.55 4.2-.85.65-.3 1.25-3.85.7-3.55-.15-4.1-.8-.5-2.1-.9-1.2-.45-5.45-.2-4.95.2-6.35.75-.85.2-1.15 1.5-.15.6-.15 1.6z"/><path fill="url(#sis01_02_7_3b)" d="M125.2 41.65q.1.55.15 1.15.7 3.55 1.4 3.85.65.3 4.15.85 3.4.45 6.5-.4 3.1-.9 3.35-4.6.05-.55.05-1.05-.05-1-.2-1.6-.25-1.3-1.05-1.5-1.55-.55-6.45-.75-4.2-.25-5.45.2-1.3.4-2.05.9-.7.4-.4 2.95z"/></g></defs><use xlink:href="#sis01_02_7_3c"/><use xlink:href="#sis01_02_7_3d"/></svg>