<svg xmlns="http://www.w3.org/2000/svg" xmlns:xlink="http://www.w3.org/1999/xlink" preserveAspectRatio="none" width="392" height="354" viewBox="0 0 392 354"><defs><g id="sis01_02_18_2e"><path fill="#FFE495" d="M286.4 308.25v-4.45h-18.1v4.45h18.1M263.9 204.7h-59.2v103.55h4.45V209.15h59.15v-4.45h-4.4m54.95 0h-4.4v103.55h4.4V204.7m-109.7-34.5h54.75V182q2.15-.4 4.4-.4v-11.4l3.2-3.2-3.1-3.15-.05.05-1.85 1.85H204.7v4.45h4.45m166.7 85.95h-2.25v52.1h4.45v-52.1h-2.2m0-90.4h-59.6l-1.85-1.85-3.15 3.1 3.2 3.2V182h4.4v-11.8h54.75v33.55h4.45v-38h-2.2m-25.55-94.4h23.3v42h4.45V66.9H204.7v46.45h4.45v-42h23.3v33h41.4V99.9H236.9V71.35h52.25V143.05l-4.05 4.1 3.15 3.1 3.15-3.1 3.15 3.15 3.1-3.15-4.05-4.1v-71.7h52.25V99.9H308.9v4.45h41.4v-33z"/><path fill="#FCEE96" d="M209.15 306v2.25h59.15V306h-59.15m0-2.2v2.2h59.15v-2.2h-59.15m0-133.6h-2.2v34.5h2.2v-34.5m-2.2 0h-2.25v34.5h2.25v-34.5m2.2-56.85h-2.2v52.4h2.2v-52.4m-2.2 0h-2.25v52.4h2.25v-52.4m166.65 194.9V306h-54.75v2.25h54.75m0-2.25v-2.2h-54.75v2.2h54.75m4.45-102.25h-2.2v52.4h2.2v-52.4m-4.45 0V256.15h2.25v-52.4h-2.25m4.45-90.4h-2.2v52.4h2.2v-52.4m-2.2 0h-2.25v52.4h2.25v-52.4z"/><path fill="#99BEC4" d="M246.95 195.85q1.75-4.25 5-7.5 3.3-3.25 7.55-5 2.15-.9 4.4-1.35v-11.8h-33.7v34.5h15q0-4.55 1.75-8.85m-4.9-23.3h-9.6 9.6m9.1-1.7h4.25q1.1 0 2 .45.9.5 1.55 1.3t.85 1.85q.15 1.05-.1 2.05l-.15.35q-.4 1.5-1.5 2.65-1.05 1.1-2.55 1.55l-.35.1q-1.85.65-3.75 0l-.35-.1q-1.45-.45-2.55-1.55-1.05-1.15-1.5-2.65l-.1-.35q-.65-2.15.7-3.9t3.55-1.75m.25 0l-.2.05q-.05.1-.05.25v.6q0 .1.05.15.1.1.2.1h1.6l-.2-.3.2.3v2.1l.45.15q.1 0 .1-.15v-1.85q0-.1.05-.25t.15-.3q-.1.15-.15.3h1.55q.25 0 .25-.25v-.6q0-.15-.05-.25l-.2-.05h-3.75m.1.6q0-.4.35-.4.4 0 .4.4 0 .35-.4.35-.35 0-.35-.35m3.2-.4q.4 0 .4.4 0 .35-.4.35t-.4-.35q0-.4.4-.4m-4.15 1.7l-.85.45-1.05.9-.25.35-.1.2-.1.15-.15.4-.2.75v.55l.2.75.15.4.6.85 1.1.85.4.2 1.2.45 1.8.25 1.05-.1.7-.15 1.45-.5 1.25-1 .5-.65.25-.6.2-.9v-.2l-.25-1.15-.3-.55-.25-.35-.3-.3-1.55-1.05-.95-.3-1.25-.2h-.3v1.85q0 .15-.1.15l-.45-.15v-1.85l-1.5.2-.95.3m2.75 3q.45 0 .45.45 0 .5-.45.5t-.45-.5q0-.45.45-.45m-.2 4l.55.2-.55-.2m-3.4-6.55l.85-.45.95-.3 1.5-.2V172h-1.6q-.1 0-.2-.1-.05-.05-.05-.15v-.6q0-.15.05-.25l.2-.05h-.25q-2.2 0-3.55 1.75-1.35 1.75-.7 3.9l.1.35q.45 1.5 1.5 2.65 1.1 1.1 2.55 1.55l.35.1q1.9.65 3.75 0l.35-.1q1.5-.45 2.55-1.55 1.1-1.15 1.5-2.65l.15-.35q.25-1 .1-2.05-.2-1.05-.85-1.85-.65-.8-1.55-1.3-.9-.45-2-.45h-.25l.2.05q.05.1.05.25v.6q0 .25-.25.25h-1.55q-.05.15-.05.25h.3l1.25.2.95.3 1.55 1.05.3.3.25.35.3.55.25 1.15v.2l-.2.9-.25.6-.5.65-1.25 1-1.45.5-.7.15-1.05.1-1.8-.25-1.2-.45-.4-.2-1.1-.85-.6-.85-.15-.4-.2-.75v-.55l.2-.75.15-.4.1-.15.1-.2.25-.35 1.05-.9m2.25 15.15q-3.25 3.25-5 7.5-1.75 4.3-1.75 8.85h18.7V182q-2.25.45-4.4 1.35-4.25 1.75-7.55 5m-34.4-8.1q-.8.8-.8 1.9 0 1.15.8 1.95t1.9.8q1.2 0 1.95-.8.8-.8.8-1.95 0-1.1-.8-1.9-.8-.85-1.95-.85-1.1 0-1.9.85m1.9-10.05h-10.3v34.5h21.05v-34.5h-10.75v9.2q1.15 0 1.95.85.8.8.8 1.9 0 1.15-.8 1.95-.75.8-1.95.8-1.1 0-1.9-.8-.8-.8-.8-1.95 0-1.1.8-1.9.8-.85 1.9-.85v-9.2m80-84.45q-2.85-1.2-5.85-1.2V99.9h15.3q0-3.05-1.15-5.9-1.2-2.8-3.3-4.95-2.15-2.15-5-3.3M275.05 94q1.15-2.8 3.3-4.95 2.15-2.15 4.95-3.3 2.8-1.2 5.85-1.2v-13.2H236.9V99.9h36.95q0-3.05 1.2-5.9m7.1-21.25q.1 0 .2.05 2.25-.05 3.6 1.7.6.85.8 1.85.2 1-.1 2l-.1.4q-.45 1.5-1.5 2.65-1.05 1.1-2.55 1.55l-.35.1q-1.9.6-3.75 0l-.35-.1q-1.5-.45-2.55-1.55-1.1-1.15-1.5-2.65l-.1-.4q-.3-1-.15-2 .2-1 .85-1.85 1.35-1.75 3.6-1.7.1-.05.25-.05h3.7m-37.6 9.4q.8-.8 1.9-.8V72.1v9.25q1.15 0 1.95.8t.8 1.95q0 1.1-.8 1.9-.85.8-1.95.8t-1.9-.8q-.85-.8-.85-1.9 0-1.15.85-1.95m24.5-7.65h-9.6 9.6m-22.6 6.85q-1.1 0-1.9.8-.85.8-.85 1.95 0 1.1.85 1.9.8.8 1.9.8 1.1 0 1.95-.8.8-.8.8-1.9 0-1.15-.8-1.95t-1.95-.8m34.1-7.25V76q0 .15-.1.15L280 76v-1.8-.1h-.3l-1.5.3-.9.35-.45.25-1.05.85-.6.85-.25.55-.1.6v.75l.25.75.4.75.6.6 1 .65 1.1.5 1.3.25h1.55l1.25-.25 1.35-.6.95-.7.45-.45.55-1.1v-.25l.1-.15v-.75l-.1-.6-.25-.55-.6-.85-.65-.6-.85-.5-.9-.35-1.3-.25-.5-.05m-.3 4.5q-.15 0-.3-.15t-.15-.35q0-.45.45-.45.5 0 .5.45 0 .2-.2.35-.1.15-.3.15m-.35 3.05h.75-.75m-1.75-8.6q0-.15.05-.25-2.25-.05-3.6 1.7-.65.85-.85 1.85-.15 1 .15 2l.1.4q.4 1.5 1.5 2.65 1.05 1.1 2.55 1.55l.35.1q1.85.6 3.75 0l.35-.1q1.5-.45 2.55-1.55 1.05-1.15 1.5-2.65l.1-.4q.3-1 .1-2-.2-1-.8-1.85-1.35-1.75-3.6-1.7l.05.25v.6q0 .25-.3.25h-1.45q-.1.1-.1.2l.5.05 1.3.25.9.35.85.5.65.6.6.85.25.55.1.6v.75l-.1.15V79l-.55 1.1-.45.45-.95.7-1.35.6-1.25.25h-1.55l-1.3-.25-1.1-.5-1-.65-.6-.6-.4-.75-.25-.75v-.75l.1-.6.25-.55.6-.85 1.05-.85.45-.25.9-.35 1.5-.3h.3q0-.1-.05-.2h-1.5q-.15 0-.25-.1-.05-.1-.05-.15v-.6m.05-.25q-.05.1-.05.25v.6q0 .05.05.15.1.1.25.1h1.5q-.05-.2-.15-.35.1.15.15.35.05.1.05.2V76l.45.15q.1 0 .1-.15v-1.8-.1q0-.1.1-.2 0-.2.1-.35-.1.15-.1.35h1.45q.3 0 .3-.25v-.6l-.05-.25q-.1-.05-.2-.05h-3.7q-.15 0-.25.05m.25.55q0-.4.4-.4t.4.4q0 .35-.4.35-.15 0-.25-.05-.15-.2-.15-.3m3.6 0q0 .35-.4.35-.35 0-.35-.35 0-.4.35-.4.4 0 .4.4m-3.7 15.7q-2.15 2.15-3.3 4.95-1.2 2.85-1.2 5.9h15.3V84.55q-3.05 0-5.85 1.2-2.8 1.15-4.95 3.3m95.25 167.1V212.8h-13.95v43.35h13.95m-2.15-28.95v13.9h-8.75v-13.9h8.75m0 13.9v-13.9h-8.75v13.9h8.75m-30.6 15.05v4.4h32.75v-4.4h-32.75m32.75-43.35V170.2h-54.75v133.6h54.75v-43.25h-32.75v-4.4h18.8V212.8h13.95m-20.2-23.15v-17h18.05v17H353.4m-2.05-17v10.85H322v-10.85h29.35m2.05 20.1h18.05v16.95H353.4v-16.95m1.05 86.4v-17h18.05v17h-18.05m0-17v17h18.05v-17h-18.05m6.6 15.75v-14.5h10.2v14.5h-10.2m0-14.5v14.5h10.2v-14.5h-10.2m10.4-70.65H353.4v16.95h18.05v-16.95m-20.1-9.25v-10.85H322v10.85h29.35m2.05-10.85v17h18.05v-17H353.4m-7.55-72.75V71.35H293.6v13.2q3 0 5.85 1.2 2.85 1.15 5 3.3 2.1 2.15 3.3 4.95 1.15 2.85 1.15 5.9h36.95m-11.5-17.75q.8-.8 1.95-.8V72.1v9.25q1.15 0 1.9.8.85.8.85 1.95 0 1.1-.85 1.9-.75.8-1.9.8t-1.95-.8q-.8-.8-.8-1.9 0-1.15.8-1.95m-30-9.4q.1 0 .2.05v.05q2.25-.1 3.6 1.65.6.8.8 1.85.2 1-.05 2l-.15.4q-.45 1.5-1.5 2.65-1.1 1.1-2.55 1.55l-.35.1q-1.85.6-3.75 0l-.35-.1q-1.5-.45-2.55-1.55-1.1-1.15-1.5-2.65l-.1-.4q-.3-1-.15-2 .2-1 .85-1.85 1.35-1.75 3.65-1.7.1-.05.2-.05h3.7m9.35 1.75h9.65-9.65m-10.4-.35l-.55-.05V76q0 .15-.1.15l-.4-.15-.05-1.8v-.1h-.25l-1.55.3-1.1.5-.8.5-.75.8-.45.7-.25 1.1v.2l.2 1 .25.5.5.7.7.6.4.25 1.35.6 1.25.25h1.55l1.3-.25 1.7-.85.55-.45.75-1 .2-.35.1-.45.05-.9-.05-.4-.3-.75-.1-.15-.1-.2-.35-.5-.7-.6-.8-.5-.95-.35-1.25-.25m-.35 3.95q0 .2-.15.35-.1.15-.3.15-.2 0-.35-.15-.1-.15-.1-.35 0-.45.45-.45t.45.45m-.1 3.55h-.75.75m1.8-8q0 .25-.3.25h-1.55q-.05.1-.05.2l.55.05 1.25.25.95.35.8.5.7.6.35.5.1.2.1.15.3.75.05.4-.05.9-.1.45-.2.35-.75 1-.55.45-1.7.85-1.3.25h-1.55l-1.25-.25-1.35-.6-.4-.25-.7-.6-.5-.7-.25-.5-.2-1V78l.25-1.1.45-.7.75-.8.8-.5 1.1-.5 1.55-.3h.25v.1q.05-.15-.05-.3h-1.5q-.1 0-.2-.1t-.1-.15v-.6q0-.15.1-.25-2.3-.05-3.65 1.7-.65.85-.85 1.85-.15 1 .15 2l.1.4q.4 1.5 1.5 2.65 1.05 1.1 2.55 1.55l.35.1q1.9.6 3.75 0l.35-.1q1.45-.45 2.55-1.55 1.05-1.15 1.5-2.65l.15-.4q.25-1 .05-2-.2-1.05-.8-1.85-1.35-1.75-3.6-1.65.1.05.1.2v.6m-.1-.8l-.2-.1h-3.7q-.1 0-.2.05-.1.1-.1.25v.6q0 .05.1.15.1.1.2.1h1.5q0-.2-.1-.35.1.15.1.35.1.15.05.3l.05 1.8.4.15q.1 0 .1-.15v-1.9q0-.1.05-.2.05-.2.15-.35-.1.15-.15.35h1.55q.3 0 .3-.25v-.6q0-.15-.1-.2m-.25.5q0 .35-.4.35-.2 0-.3-.05-.1-.2-.1-.3 0-.4.4-.4t.4.4m-3.65 0q0-.4.4-.4t.4.4q0 .35-.4.35-.15 0-.25-.05-.15-.2-.15-.3m35.65 8q-1.15 0-1.95.8t-.8 1.95q0 1.1.8 1.9.8.8 1.95.8t1.9-.8q.85-.8.85-1.9 0-1.15-.85-1.95-.75-.8-1.9-.8z"/><path fill="#E7E8E9" d="M255.1 171.45q0-.4-.4-.4t-.4.4q0 .35.4.35t.4-.35m-3.25-.4q-.35 0-.35.4 0 .35.35.35.4 0 .4-.35 0-.4-.4-.4m1.9 5.15q0-.45-.45-.45t-.45.45q0 .5.45.5t.45-.5m26.2-97.75q.15.15.3.15.2 0 .3-.15.2-.15.2-.35 0-.45-.5-.45-.45 0-.45.45 0 .2.15.35m1.7-4.75q.4 0 .4-.35 0-.4-.4-.4-.35 0-.35.4 0 .35.35.35m-2.8-.75q-.4 0-.4.4 0 .1.15.3.1.05.25.05.4 0 .4-.35 0-.4-.4-.4m23.95 5.5q.15-.15.15-.35 0-.45-.45-.45t-.45.45q0 .2.1.35.15.15.35.15.2 0 .3-.15m-1.75-5.5q-.4 0-.4.4 0 .1.15.3.1.05.25.05.4 0 .4-.35 0-.4-.4-.4m2.85.75q.4 0 .4-.35 0-.4-.4-.4t-.4.4q0 .1.1.3.1.05.3.05m.45-.95l.2.1v-.05q-.1-.05-.2-.05z"/></g><path fill="#373535" d="M527.15 438.3q1.45 0 2.25.65.75.6.85 1.85l1.65-.15q-.05-1.1-.65-2-.5-.9-1.65-1.35-1.1-.5-2.55-.5-1.25 0-2.35.45-1.05.45-1.6 1.3-.6.85-.55 1.8 0 .9.45 1.65.45.7 1.35 1.15.75.45 2.5.85l2.3.6q.75.3 1.15.75.4.45.35 1.1 0 .6-.35 1.1-.35.45-1.15.8l-1.7.25q-1.1 0-2-.35-.8-.35-1.3-1-.35-.65-.5-1.6l-1.6.15q0 1.3.7 2.3.7 1.05 1.85 1.55 1.2.4 2.95.45 1.35 0 2.45-.45 1.15-.5 1.7-1.45.6-.9.6-1.9 0-1.05-.55-1.85-.5-.8-1.65-1.3l-2.85-.85q-2.1-.45-2.6-.9-.45-.45-.5-1.15 0-.8.75-1.35.7-.6 2.25-.6z" id="sis01_02_18_2cH"/><path fill="#373535" d="M539.95 437.05h-1.85l-4.9 12.85h1.75l1.4-3.9h5.4l1.5 3.9h1.95l-5.25-12.85m-3.1 7.6l2.15-6.25 2.25 6.25h-4.4z" id="sis01_02_18_2cI"/><path fill="#373535" d="M548.2 437.05h-1.7v12.85h8.05v-1.5h-6.35v-11.35z" id="sis01_02_18_2cJ"/><path fill="#373535" d="M561.95 437.05h-1.85l-4.9 12.85h1.75l1.4-3.9h5.4l1.5 3.9h1.95l-5.25-12.85m-3.1 7.6l2.15-6.25 2.25 6.25h-4.4z" id="sis01_02_18_2cK"/><path fill="#373535" d="M506.9 219.75l.5-1.15q-.95-.35-2.15-1.2 1-.95 1.45-2.2.45-1.25.45-2.9 0-1.85-.75-3.4-.75-1.55-2.15-2.4-1.4-.8-3.25-.85-1.7 0-3.2.85-1.4.75-2.2 2.35-.75 1.6-.75 3.5t.75 3.45q.85 1.5 2.2 2.35 1.45.85 3.2.8 1.75 0 3.15-.75 1.35 1 2.75 1.55m-3.55-11.95q1 .6 1.55 1.8.55 1.15.5 2.7 0 2.8-1.5 4.15-.95-.8-2.4-1.25l-.45 1.25q.9.25 1.7.75-.8.3-1.7.35-1.95 0-3.2-1.35-1.25-1.35-1.25-3.85 0-2.6 1.25-3.9 1.3-1.35 3.2-1.3 1.3 0 2.3.65z" id="sis01_02_18_2cL"/><path fill="#373535" d="M512.75 218.75h1.7V207.4h4.25v-1.5h-10.2v1.5h4.25v11.35z" id="sis01_02_18_2cM"/><path fill="#373535" d="M531.15 208.9q-.75-1.5-2.15-2.4-1.4-.8-3.25-.85-2.7 0-4.45 1.85-1.7 1.8-1.7 5 0 1.75.75 3.2.75 1.6 2.15 2.4 1.45.9 3.25.85 1.75 0 3.15-.75 1.45-.8 2.25-2.35.75-1.5.75-3.5 0-1.95-.75-3.45m-1 3.45q0 2.5-1.25 3.85-1.2 1.35-3.15 1.35-1.85 0-3.15-1.35-1.25-1.35-1.25-3.65 0-2.9 1.3-4.2 1.35-1.2 3.1-1.2 1.3 0 2.3.65 1.05.6 1.6 1.8.55 1.2.5 2.75z" id="sis01_02_18_2cN"/><path fill="#373535" d="M534.35 218.75h1.8v-1.8h-1.8v1.8z" id="sis01_02_18_2cO"/><path fill="#373535" d="M541.35 209.8l1.5-1.1v10.05h1.6v-12.9h-1.05q-.35.85-1.4 1.7-.95.9-2.3 1.5v1.55l1.65-.8z" id="sis01_02_18_2cP"/><path fill="#373535" d="M566.6 331.1v12.85h4.9l2.1-.2q.85-.2 1.4-.65.55-.35.95-1.2.4-.75.35-1.65 0-1.1-.6-1.95-.6-.8-1.8-1.2.9-.45 1.35-1.15.45-.75.45-1.55 0-.9-.5-1.7-.5-.8-1.4-1.2-.9-.45-2.35-.4h-4.85m6.25 1.7q.55.15.85.65.3.55.3 1.15 0 .7-.3 1.1-.35.45-1 .65l-4.4.15v-3.9h2.55q1.45 0 2 .2m1.35 6.2q.4.55.35 1.25l-.25 1.1-.65.7-1 .35-4.35.05V338h3q1.2 0 1.85.25.7.25 1.05.75z" id="sis01_02_18_2cQ"/><path fill="#373535" d="M580.4 340.05h5.4l1.5 3.9h1.95L584 331.1h-1.85l-4.9 12.85H579l1.4-3.9m2.65-7.6l2.25 6.25h-4.4l2.15-6.25z" id="sis01_02_18_2cR"/><path fill="#373535" d="M600.75 331.1h-1.65v10.1l-6.75-10.1h-1.75v12.85h1.65v-10.1l6.75 10.1h1.75V331.1z" id="sis01_02_18_2cS"/><path fill="#373535" d="M612.05 331.1v5.3h-6.7v-5.3h-1.7v12.85h1.7v-6.05h6.7v6.05h1.7V331.1h-1.7z" id="sis01_02_18_2cT"/><path fill="#373535" d="M616.85 343.95h1.8v-1.8h-1.8v1.8z" id="sis01_02_18_2cU"/><path fill="#373535" d="M653.7 206.5q-1.4-.8-3.25-.85-1.7 0-3.2.85-1.4.75-2.2 2.35-.75 1.6-.75 3.5t.75 3.45q.85 1.5 2.2 2.35 1.45.85 3.2.8 1.75 0 3.15-.75 1.35 1 2.75 1.55l.5-1.15q-.95-.35-2.15-1.2 1-.95 1.45-2.2.45-1.25.45-2.9 0-1.85-.75-3.4-.75-1.55-2.15-2.4m-.9 1.3q1 .6 1.55 1.8.55 1.15.5 2.7 0 2.8-1.5 4.15-.95-.8-2.4-1.25l-.45 1.25q.9.25 1.7.75-.8.3-1.7.35-1.95 0-3.2-1.35-1.25-1.35-1.25-3.85 0-2.6 1.25-3.9 1.3-1.35 3.2-1.3 1.3 0 2.3.65z" id="sis01_02_18_2cV"/><path fill="#373535" d="M662.2 218.75h1.7V207.4h4.25v-1.5h-10.2v1.5h4.25v11.35z" id="sis01_02_18_2cW"/><path fill="#373535" d="M680.6 208.9q-.75-1.5-2.15-2.4-1.4-.8-3.25-.85-2.7 0-4.45 1.85-1.7 1.8-1.7 5 0 1.75.75 3.2.75 1.6 2.15 2.4 1.45.9 3.25.85 1.75 0 3.15-.75 1.45-.8 2.25-2.35.75-1.5.75-3.5 0-1.95-.75-3.45m-5.4-1.75q1.3 0 2.3.65 1.05.6 1.6 1.8.55 1.2.5 2.75 0 2.5-1.25 3.85-1.2 1.35-3.15 1.35-1.85 0-3.15-1.35-1.25-1.35-1.25-3.65 0-2.9 1.3-4.2 1.35-1.2 3.1-1.2z" id="sis01_02_18_2cX"/><path fill="#373535" d="M683.8 218.75h1.8v-1.8h-1.8v1.8z" id="sis01_02_18_2cY"/><path fill="#373535" d="M690.8 209.8l1.5-1.1v10.05h1.6v-12.9h-1.05q-.35.85-1.4 1.7-.95.9-2.3 1.5v1.55l1.65-.8z" id="sis01_02_18_2cZ"/><path fill="#373535" d="M682.65 405.75q1.65.4 2.45 1.35.85 1 .85 2.4 0 1.2-.6 2.2-.65 1.05-1.85 1.5-1.2.45-2.85.45-1.25 0-2.5-.4-1.2-.35-1.9-1.4-.75-.95-.7-2.45 0-1.35.6-2.15.7-.9 2.05-1.3l-.4-1.7q-1.7.55-2.75 1.85-.95 1.3-1 3.25 0 1.75.8 3.1.75 1.45 2.25 2.2 1.5.75 3.55.8 1.8 0 3.45-.7 1.6-.65 2.45-2 .85-1.25.8-3.4 0-1.95-1.05-3.4-1.1-1.35-3.2-1.9l-.45 1.7z" id="sis01_02_18_2da"/><path fill="#373535" d="M677.3 390.95q-1.5.75-2.4 2.15-.8 1.45-.85 3.25 0 2.7 1.85 4.45 1.8 1.75 5 1.7 1.75 0 3.2-.75 1.6-.75 2.4-2.15.9-1.4.85-3.25 0-1.7-.75-3.15-.8-1.4-2.35-2.25-1.5-.75-3.5-.75-1.95 0-3.45.75m3.45 1q2.5 0 3.85 1.25 1.35 1.2 1.35 3.15 0 1.9-1.35 3.15-1.35 1.3-3.65 1.25-2.9 0-4.2-1.3-1.2-1.35-1.2-3.1 0-1.25.65-2.3.6-1.05 1.8-1.6 1.2-.5 2.75-.5z" id="sis01_02_18_2db"/><path fill="#373535" d="M687.15 378.8h-1.5v8.2l-9.85-8h-1.5v9.2h1.5v-7.15l9.8 7.9h1.55V378.8z" id="sis01_02_18_2dc"/><path fill="#373535" d="M687.15 376.7v-1.8h-1.8v1.8h1.8z" id="sis01_02_18_2dd"/><path fill="#373535" d="M671.6 489.15h-1.85l-4.9 12.85h1.75l1.4-3.9h5.4l1.5 3.9h1.95l-5.25-12.85m1.3 7.6h-4.4l2.15-6.25 2.25 6.25z" id="sis01_02_18_2de"/><path fill="#373535" d="M678.4 502h1.8v-1.8h-1.8v1.8z" id="sis01_02_18_2df"/><path fill="#373535" d="M683.1 492.45q0 .9.45 1.65.45.7 1.35 1.15.75.45 2.5.85l2.3.6q.75.3 1.15.75.4.45.35 1.1 0 .6-.35 1.1-.35.45-1.15.8l-1.7.25q-1.1 0-2-.35-.8-.35-1.3-1-.35-.65-.5-1.6l-1.6.15q0 1.3.7 2.3.7 1.05 1.85 1.55 1.2.4 2.95.45 1.35 0 2.45-.45 1.15-.5 1.7-1.45.6-.9.6-1.9 0-1.05-.55-1.85-.5-.8-1.65-1.3l-2.85-.85q-2.1-.45-2.6-.9-.45-.45-.5-1.15 0-.8.75-1.35.7-.6 2.25-.6 1.45 0 2.25.65.75.6.85 1.85l1.65-.15q-.05-1.1-.65-2-.5-.9-1.65-1.35-1.1-.5-2.55-.5-1.25 0-2.35.45-1.05.45-1.6 1.3-.6.85-.55 1.8z" id="sis01_02_18_2dg"/><path fill="#373535" d="M704.5 489.15h-9.3V502h9.6v-1.5h-7.9v-4.4h7.15v-1.5h-7.15v-3.95h7.6v-1.5z" id="sis01_02_18_2dh"/><path fill="#373535" d="M716.6 494.95q.9-.9.9-2.3 0-1.05-.55-1.95-.5-.8-1.45-1.2-.9-.35-2.6-.35h-5.7V502h1.7v-5.7l2.9.05.8.35.85.85 2.95 4.45h2.15l-2.25-3.5q-.65-.95-1.4-1.7l-1.05-.65q1.9-.2 2.75-1.2m-7.7-.1v-4.3h4.05q1.5 0 2.1.6.7.6.7 1.5 0 .6-.35 1.15-.35.55-1 .8t-1.85.25h-3.65z" id="sis01_02_18_2di"/><path fill="#373535" d="M720.4 489.15h-1.85l5 12.85h1.75l5.05-12.85h-1.75l-4.15 11.45-4.05-11.45z" id="sis01_02_18_2dj"/><path fill="#373535" d="M730.45 502h1.8v-1.8h-1.8v1.8z" id="sis01_02_18_2dk"/><g id="sis01_02_18_2dl"><path fill="#FFE495" d="M168.9 256.15v52.1h4.45v-52.1h-4.45M63.6 303.8v4.45h18.1v-4.45H63.6m-4.4-99.1H0v103.55h4.45V209.15H63.6v-4.45h-4.4m54.95 0h-4.4v103.55h4.4V204.7M4.45 165.75H0v4.45h59.2V182q2.15-.4 4.4-.4v-11.4l3.2-3.2-3.15-3.15v.05l-1.9 1.85H4.45m166.65 0h-59.5l-1.9-1.85-3.15 3.1 3.2 3.2V182h4.4v-11.8h54.75v33.55h4.45v-38h-2.25m-2.2-52.4h4.45V66.9H0v46.45h4.45v-42h80v71.7l-4.05 4.1 3.15 3.1 3.1-3.1 3.2 3.15 3.15-3.15-4.1-4.1v-71.7h80v42z"/><path fill="#FCEE96" d="M114.15 306v2.25h54.75V306h-54.75m0-2.2v2.2h54.75v-2.2h-54.75m-50.55 4.45V306H4.45v2.25H63.6m0-2.25v-2.2H4.45v2.2H63.6M4.45 170.2H2.2v34.5h2.25v-34.5m-2.25 0H0v34.5h2.2v-34.5m2.25-56.85H2.2v52.4h2.25v-52.4m-2.25 0H0v52.4h2.2v-52.4z"/><path fill="#99BEC4" d="M154.9 212.8v43.35h14V212.8h-14m3.1 28.3v-13.9h8.75v13.9H158m0-13.9v13.9h8.75v-13.9H158m-21.9 28.95v4.4h32.8v-4.4h-32.8m-21.95-85.95v133.6h54.75v-43.25h-32.8v-4.4h18.8V212.8h14V170.2h-54.75m52.6 2.45v17H148.7v-17h18.05M117.3 183.5v-10.85h29.35v10.85H117.3m32.45 95.65v-17h18.05v17h-18.05m-1.05-69.45v-16.95h18.05v16.95H148.7m0-16.95v16.95h18.05v-16.95H148.7m1.05 69.4v17h18.05v-17h-18.05m6.6 15.75v-14.5h10.2v14.5h-10.2m0-14.5v14.5h10.2v-14.5h-10.2m-39.05-90.75v10.85h29.35v-10.85H117.3m49.45 17v-17H148.7v17h18.05m-112-6.3q2.15-.9 4.45-1.35v-11.8H25.5v34.5h15q0-4.6 1.75-8.85 1.8-4.25 5-7.5 3.25-3.25 7.5-5m-17.4-10.8H27.7h9.65m9.05-1.7h4.3q2.2 0 3.55 1.75.65.85.8 1.85.2 1.05-.1 2.05l-.1.35q-.45 1.5-1.5 2.65-1.1 1.1-2.55 1.55l-.35.1q-1.9.65-3.75 0l-.35-.1q-1.45-.45-2.55-1.55-1.05-1.15-1.5-2.65l-.1-.35q-.3-1-.1-2.05.15-1 .8-1.85 1.35-1.75 3.5-1.75m.65 1.55l-1.25.35-.85.45-.7.6-.4.45-.35.55-.1.2-.2.75v.2l-.05.2v.2l.05.15v.2l.15.55.25.6.5.65.3.3.95.7 1.4.5 1.3.25h1.05l1.3-.25 1.35-.5 1.15-.85.65-.8.3-.75.15-.6v-.55l-.15-.75-.55-.95-.4-.45-.7-.6-1.8-.75-1.3-.2h-.25v1.85q0 .15-.15.15l-.4-.15v-1.85l-1.25.15m1.5 3.35q.45 0 .45.45 0 .5-.45.5t-.45-.5q0-.45.45-.45m-.45 4.2h.9-.9m-1.35-9.1l-.2.05q-.1.1-.1.25v.6q0 .1.1.15.05.1.2.1h1.5q-.05-.15-.15-.3.1.15.15.3.05.1.05.25v1.85l.4.15q.15 0 .15-.15v-1.85q0-.15.05-.25.05-.15.15-.3-.1.15-.15.3h1.5q.3 0 .3-.25v-.6q0-.1-.05-.25l-.25-.05h-3.65m.1.3q.2-.1.3-.1.4 0 .4.4 0 .35-.4.35t-.4-.35q0-.2.1-.3m2.75.3q0-.4.4-.4t.4.4q0 .35-.4.35t-.4-.35m-2.85-.6h-.35q-2.15 0-3.5 1.75-.65.85-.8 1.85-.2 1.05.1 2.05l.1.35q.45 1.5 1.5 2.65 1.1 1.1 2.55 1.55l.35.1q1.85.65 3.75 0l.35-.1q1.45-.45 2.55-1.55 1.05-1.15 1.5-2.65l.1-.35q.3-1 .1-2.05-.15-1-.8-1.85-1.35-1.75-3.55-1.75h-.3l.25.05q.05.15.05.25v.6q0 .25-.3.25h-1.5q-.05.1-.05.25h.25l1.3.2 1.8.75.7.6.4.45.55.95.15.75v.55l-.15.6-.3.75-.65.8-1.15.85-1.35.5-1.3.25h-1.05l-1.3-.25-1.4-.5-.95-.7-.3-.3-.5-.65-.25-.6-.15-.55v-.2l-.05-.15v-.2l.05-.2v-.2l.2-.75.1-.2.35-.55.4-.45.7-.6.85-.45 1.25-.35 1.25-.15q0-.15-.05-.25h-1.5q-.15 0-.2-.1-.1-.05-.1-.15v-.6q0-.15.1-.25l.2-.05M59.2 182q-2.3.45-4.45 1.35-4.25 1.75-7.5 5-3.2 3.25-5 7.5-1.75 4.25-1.75 8.85h18.7V182m-41.7.15q0-1.1-.8-1.9-.8-.85-1.95-.85t-1.9.85q-.8.8-.8 1.9 0 1.15.8 1.95.75.8 1.9.8 1.2 0 1.95-.8.8-.8.8-1.95m-2.75-11.95H4.45v34.5H25.5v-34.5H14.75v9.2q1.15 0 1.95.85.8.8.8 1.9 0 1.15-.8 1.95-.75.8-1.95.8-1.15 0-1.9-.8-.8-.8-.8-1.95 0-1.1.8-1.9.75-.85 1.9-.85v-9.2z"/><path fill="#E7E8E9" d="M49 176.2q0-.45-.45-.45t-.45.45q0 .5.45.5t.45-.5m1-5.15q-.4 0-.4.4 0 .35.4.35t.4-.35q0-.4-.4-.4m-2.85 0q-.1 0-.3.1-.1.1-.1.3 0 .35.4.35t.4-.35q0-.4-.4-.4z"/></g><path fill="#373535" d="M57.35 171.2q-.75-1.55-2.15-2.4-1.4-.8-3.25-.85-1.7 0-3.2.85-1.4.75-2.2 2.35-.75 1.6-.75 3.5t.75 3.45q.85 1.5 2.2 2.35 1.45.85 3.2.8 1.75 0 3.15-.75 1.35 1 2.75 1.55l.5-1.15q-.95-.35-2.15-1.2 1-.95 1.45-2.2.45-1.25.45-2.9 0-1.85-.75-3.4m-3.05-1.1q1 .6 1.55 1.8.55 1.15.5 2.7 0 2.8-1.5 4.15-.95-.8-2.4-1.25l-.45 1.25q.9.25 1.7.75-.8.3-1.7.35-1.95 0-3.2-1.35-1.25-1.35-1.25-3.85 0-2.6 1.25-3.9 1.3-1.35 3.2-1.3 1.3 0 2.3.65z" id="sis01_02_18_2ew"/><path fill="#373535" d="M63.7 181.05h1.7V169.7h4.25v-1.5h-10.2v1.5h4.25v11.35z" id="sis01_02_18_2ex"/><path fill="#373535" d="M76.7 167.95q-2.7 0-4.45 1.85-1.7 1.8-1.7 5 0 1.75.75 3.2.75 1.6 2.15 2.4 1.45.9 3.25.85 1.75 0 3.15-.75 1.45-.8 2.25-2.35.75-1.5.75-3.5 0-1.95-.75-3.45-.75-1.5-2.15-2.4-1.4-.8-3.25-.85m-3.1 2.7q1.35-1.2 3.1-1.2 1.3 0 2.3.65 1.05.6 1.6 1.8.55 1.2.5 2.75 0 2.5-1.25 3.85-1.2 1.35-3.15 1.35-1.85 0-3.15-1.35-1.25-1.35-1.25-3.65 0-2.9 1.3-4.2z" id="sis01_02_18_2ey"/><path fill="#373535" d="M85.3 181.05h1.8v-1.8h-1.8v1.8z" id="sis01_02_18_2ez"/><path fill="#373535" d="M90.65 171.35v1.55l1.65-.8 1.5-1.1v10.05h1.6v-12.9h-1.05q-.35.85-1.4 1.7-.95.9-2.3 1.5z" id="sis01_02_18_2eA"/><path fill="#373535" d="M198.2 168.8q-1.4.75-2.2 2.35-.75 1.6-.75 3.5t.75 3.45q.85 1.5 2.2 2.35 1.45.85 3.2.8 1.75 0 3.15-.75 1.35 1 2.75 1.55l.5-1.15q-.95-.35-2.15-1.2 1-.95 1.45-2.2.45-1.25.45-2.9 0-1.85-.75-3.4-.75-1.55-2.15-2.4-1.4-.8-3.25-.85-1.7 0-3.2.85m.05 1.95q1.3-1.35 3.2-1.3 1.3 0 2.3.65 1 .6 1.55 1.8.55 1.15.5 2.7 0 2.8-1.5 4.15-.95-.8-2.4-1.25l-.45 1.25q.9.25 1.7.75-.8.3-1.7.35-1.95 0-3.2-1.35-1.25-1.35-1.25-3.85 0-2.6 1.25-3.9z" id="sis01_02_18_2eB"/><path fill="#373535" d="M213.15 181.05h1.7V169.7h4.25v-1.5h-10.2v1.5h4.25v11.35z" id="sis01_02_18_2eC"/><path fill="#373535" d="M231.55 171.2q-.75-1.5-2.15-2.4-1.4-.8-3.25-.85-2.7 0-4.45 1.85-1.7 1.8-1.7 5 0 1.75.75 3.2.75 1.6 2.15 2.4 1.45.9 3.25.85 1.75 0 3.15-.75 1.45-.8 2.25-2.35.75-1.5.75-3.5 0-1.95-.75-3.45m-8.5-.55q1.35-1.2 3.1-1.2 1.3 0 2.3.65 1.05.6 1.6 1.8.55 1.2.5 2.75 0 2.5-1.25 3.85-1.2 1.35-3.15 1.35-1.85 0-3.15-1.35-1.25-1.35-1.25-3.65 0-2.9 1.3-4.2z" id="sis01_02_18_2eD"/><path fill="#373535" d="M234.75 181.05h1.8v-1.8h-1.8v1.8z" id="sis01_02_18_2eE"/><path fill="#373535" d="M240.1 172.9l1.65-.8 1.5-1.1v10.05h1.6v-12.9h-1.05q-.35.85-1.4 1.7-.95.9-2.3 1.5v1.55z" id="sis01_02_18_2eF"/><path fill="#373535" d="M123.05 328.95q0-.9-.5-1.7-.5-.8-1.4-1.2-.9-.45-2.35-.4h-4.85v12.85h4.9l2.1-.2q.85-.2 1.4-.65.55-.35.95-1.2.4-.75.35-1.65 0-1.1-.6-1.95-.6-.8-1.8-1.2.9-.45 1.35-1.15.45-.75.45-1.55m-1.15 5.85l-.25 1.1-.65.7-1 .35-4.35.05v-4.45h3q1.2 0 1.85.25.7.25 1.05.75.4.55.35 1.25m-.85-6.8q.3.55.3 1.15 0 .7-.3 1.1-.35.45-1 .65l-4.4.15v-3.9l4.55.2q.55.15.85.65z" id="sis01_02_18_2eG"/><path fill="#373535" d="M131.35 325.65h-1.85l-4.9 12.85h1.75l1.4-3.9h5.4l1.5 3.9h1.95l-5.25-12.85m-3.1 7.6l2.15-6.25 2.25 6.25h-4.4z" id="sis01_02_18_2eH"/><path fill="#373535" d="M137.95 338.5h1.65v-10.1l6.75 10.1h1.75v-12.85h-1.65v10.1l-6.75-10.1h-1.75v12.85z" id="sis01_02_18_2eI"/><path fill="#373535" d="M152.7 330.95v-5.3H151v12.85h1.7v-6.05h6.7v6.05h1.7v-12.85h-1.7v5.3h-6.7z" id="sis01_02_18_2eJ"/><path fill="#373535" d="M164.2 338.5h1.8v-1.8h-1.8v1.8z" id="sis01_02_18_2eK"/><path fill="#373535" d="M82.9 440.65q-.05-1.1-.65-2-.5-.9-1.65-1.35-1.1-.5-2.55-.5-1.25 0-2.35.45-1.05.45-1.6 1.3-.6.85-.55 1.8 0 .9.45 1.65.45.7 1.35 1.15.75.45 2.5.85l2.3.6q.75.3 1.15.75.4.45.35 1.1 0 .6-.35 1.1-.35.45-1.15.8l-1.7.25q-1.1 0-2-.35-.8-.35-1.3-1-.35-.65-.5-1.6l-1.6.15q0 1.3.7 2.3.7 1.05 1.85 1.55 1.2.4 2.95.45 1.35 0 2.45-.45 1.15-.5 1.7-1.45.6-.9.6-1.9 0-1.05-.55-1.85-.5-.8-1.65-1.3l-2.85-.85q-2.1-.45-2.6-.9-.45-.45-.5-1.15 0-.8.75-1.35.7-.6 2.25-.6 1.45 0 2.25.65.75.6.85 1.85l1.65-.15z" id="sis01_02_18_2eL"/><path fill="#373535" d="M90.95 437.05H89.1l-4.9 12.85h1.75l1.4-3.9h5.4l1.5 3.9h1.95l-5.25-12.85m-3.1 7.6L90 438.4l2.25 6.25h-4.4z" id="sis01_02_18_2eM"/><path fill="#373535" d="M99.2 437.05h-1.7v12.85h8.05v-1.5H99.2v-11.35z" id="sis01_02_18_2eN"/><path fill="#373535" d="M112.95 437.05h-1.85l-4.9 12.85h1.75l1.4-3.9h5.4l1.5 3.9h1.95l-5.25-12.85m-3.1 7.6l2.15-6.25 2.25 6.25h-4.4z" id="sis01_02_18_2eO"/><path fill="#373535" d="M233.6 405.75q1.65.4 2.45 1.35.85 1 .85 2.4 0 1.2-.6 2.2-.65 1.05-1.85 1.5-1.2.45-2.85.45-1.25 0-2.5-.4-1.2-.35-1.9-1.4-.75-.95-.7-2.45 0-1.35.6-2.15.7-.9 2.05-1.3l-.4-1.7q-1.7.55-2.75 1.85-.95 1.3-1 3.25 0 1.75.8 3.1.75 1.45 2.25 2.2 1.5.75 3.55.8 1.8 0 3.45-.7 1.6-.65 2.45-2 .85-1.25.8-3.4 0-1.95-1.05-3.4-1.1-1.35-3.2-1.9l-.45 1.7z" id="sis01_02_18_2eP"/><path fill="#373535" d="M228.25 390.95q-1.5.75-2.4 2.15-.8 1.45-.85 3.25 0 2.7 1.85 4.45 1.8 1.75 5 1.7 1.75 0 3.2-.75 1.6-.75 2.4-2.15.9-1.4.85-3.25 0-1.7-.75-3.15-.8-1.4-2.35-2.25-1.5-.75-3.5-.75-1.95 0-3.45.75m3.45 1q2.5 0 3.85 1.25 1.35 1.2 1.35 3.15 0 1.9-1.35 3.15-1.35 1.3-3.65 1.25-2.9 0-4.2-1.3-1.2-1.35-1.2-3.1 0-1.25.65-2.3.6-1.05 1.8-1.6 1.2-.5 2.75-.5z" id="sis01_02_18_2eQ"/><path fill="#373535" d="M238.1 378.8h-1.5v8.2l-9.85-8h-1.5v9.2h1.5v-7.15l9.8 7.9h1.55V378.8z" id="sis01_02_18_2eR"/><path fill="#373535" d="M238.1 376.7v-1.8h-1.8v1.8h1.8z" id="sis01_02_18_2eS"/><path fill="#373535" d="M222.55 489.15h-1.85L215.8 502h1.75l1.4-3.9h5.4l1.5 3.9h1.95l-5.25-12.85m1.3 7.6h-4.4l2.15-6.25 2.25 6.25z" id="sis01_02_18_2eT"/><path fill="#373535" d="M229.35 502h1.8v-1.8h-1.8v1.8z" id="sis01_02_18_2eU"/><path fill="#373535" d="M234.05 492.45q0 .9.45 1.65.45.7 1.35 1.15.75.45 2.5.85l2.3.6q.75.3 1.15.75.4.45.35 1.1 0 .6-.35 1.1-.35.45-1.15.8l-1.7.25q-1.1 0-2-.35-.8-.35-1.3-1-.35-.65-.5-1.6l-1.6.15q0 1.3.7 2.3.7 1.05 1.85 1.55 1.2.4 2.95.45 1.35 0 2.45-.45 1.15-.5 1.7-1.45.6-.9.6-1.9 0-1.05-.55-1.85-.5-.8-1.65-1.3l-2.85-.85q-2.1-.45-2.6-.9-.45-.45-.5-1.15 0-.8.75-1.35.7-.6 2.25-.6 1.45 0 2.25.65.75.6.85 1.85l1.65-.15q-.05-1.1-.65-2-.5-.9-1.65-1.35-1.1-.5-2.55-.5-1.25 0-2.35.45-1.05.45-1.6 1.3-.6.85-.55 1.8z" id="sis01_02_18_2eV"/><path fill="#373535" d="M255.45 489.15h-9.3V502h9.6v-1.5h-7.9v-4.4H255v-1.5h-7.15v-3.95h7.6v-1.5z" id="sis01_02_18_2eW"/><path fill="#373535" d="M267.9 490.7q-.5-.8-1.45-1.2-.9-.35-2.6-.35h-5.7V502h1.7v-5.7l2.9.05.8.35.85.85 2.95 4.45h2.15l-2.25-3.5q-.65-.95-1.4-1.7l-1.05-.65q1.9-.2 2.75-1.2.9-.9.9-2.3 0-1.05-.55-1.95m-8.05 4.15v-4.3h4.05q1.5 0 2.1.6.7.6.7 1.5 0 .6-.35 1.15-.35.55-1 .8t-1.85.25h-3.65z" id="sis01_02_18_2eX"/><path fill="#373535" d="M271.35 489.15h-1.85l5 12.85h1.75l5.05-12.85h-1.75l-4.15 11.45-4.05-11.45z" id="sis01_02_18_2eY"/><path fill="#373535" d="M281.4 502h1.8v-1.8h-1.8v1.8z" id="sis01_02_18_2eZ"/><path id="sis01_02_18_2b" stroke="#373535" stroke-width=".55" stroke-miterlimit="22" fill="none" d="M250.202 71.435l17.854-26.867 38.873 26.867"/><path id="sis01_02_18_2f" stroke="#373535" stroke-linejoin="bevel" fill="none" d="M336.3 81.35q-1.15 0-1.95.8t-.8 1.95q0 1.1.8 1.9.8.8 1.95.8t1.9-.8q.85-.8.85-1.9 0-1.15-.85-1.95-.75-.8-1.9-.8V72.1m-27.4 27.8v4.45h41.4v-33h23.3v42h4.45V66.9H204.7v46.45h4.45v-42h23.3v33h41.4V99.9H236.9V71.35h52.25V143.05l-4.05 4.1 3.15 3.1 3.15-3.1 3.15 3.15 3.1-3.15-4.05-4.1v-71.7h52.25V99.9H308.9q0-3.05-1.15-5.9-1.2-2.8-3.3-4.95-2.15-2.15-5-3.3-2.85-1.2-5.85-1.2m59.8 88.1h18.05v17H353.4v-17zm-2.05 10.85H322v-10.85h29.35v10.85zm22.25-17.75h2.25v-52.4m0 52.4h2.2v-52.4m-4.45 0v52.4h-57.35l-1.85-1.85-3.15 3.1 3.2 3.2V182h4.4v-11.8h54.75v33.55h4.45v-38m-6.6 27v16.95H353.4v-16.95h18.05zm0 48.35h-8.75v-13.9h8.75v13.9zm2.15-37.35V256.15h2.25v-52.4m-21.4 58.4h18.05v17h-18.05v-17zm6.6 1.25h10.2v14.5h-10.2v-14.5zm12.55-2.85h-32.75v-4.4h18.8V212.8h13.95m0 43.35h-13.95m16.2 0h2.2v-52.4M373.6 303.8v4.45h4.45v-52.1m-4.45 47.65v-43.25m-92.85-187q-.1.15-.1.35h1.45q.3 0 .3-.25v-.6l-.05-.25q-.1-.05-.2-.05h-3.7q-.15 0-.25.05-.05.1-.05.25v.6q0 .05.05.15.1.1.25.1h1.5q-.05-.2-.15-.35m-1.35-.2q0 .1.15.3.1.05.25.05.4 0 .4-.35 0-.4-.4-.4t-.4.4zm2.1.75V76q0 .15-.1.15L280 76v-1.8-.1h-.3l-1.5.3-.9.35-.45.25-1.05.85-.6.85-.25.55-.1.6v.75l.25.75.4.75.6.6 1 .65 1.1.5 1.3.25h1.55l1.25-.25 1.35-.6.95-.7.45-.45.55-1.1v-.25l.1-.15v-.75l-.1-.6-.25-.55-.6-.85-.65-.6-.85-.5-.9-.35-1.3-.25-.5-.05q0-.1.1-.2m-.65.2q0-.1-.05-.2m1.7-.2q.4 0 .4-.35 0-.4-.4-.4-.35 0-.35.4 0 .35.35.35zm-35.2 7.65q-1.1 0-1.9.8-.85.8-.85 1.95 0 1.1.85 1.9.8.8 1.9.8 1.1 0 1.95-.8.8-.8.8-1.9 0-1.15-.8-1.95t-1.95-.8V72.1m33.5 6.35q.15.15.3.15.2 0 .3-.15.2-.15.2-.35 0-.45-.5-.45-.45 0-.45.45 0 .2.15.35zm-1.75-5.65q-2.25-.05-3.6 1.7-.65.85-.85 1.85-.15 1 .15 2l.1.4q.4 1.5 1.5 2.65 1.05 1.1 2.55 1.55l.35.1q1.85.6 3.75 0l.35-.1q1.5-.45 2.55-1.55 1.05-1.15 1.5-2.65l.1-.4q.3-1 .1-2-.2-1-.8-1.85-1.35-1.75-3.6-1.7m-2.45 8.85h.75m8.5 2.9q-3.05 0-5.85 1.2-2.8 1.15-4.95 3.3-2.15 2.15-3.3 4.95-1.2 2.85-1.2 5.9m-4.8-25.4h-9.6m45.1-1.65v-.05q-.1-.05-.2-.05l.2.1q2.25-.1 3.6 1.65.6.8.8 1.85.2 1-.05 2l-.15.4q-.45 1.5-1.5 2.65-1.1 1.1-2.55 1.55l-.35.1q-1.85.6-3.75 0l-.35-.1q-1.5-.45-2.55-1.55-1.1-1.15-1.5-2.65l-.1-.4q-.3-1-.15-2 .2-1 .85-1.85 1.35-1.75 3.65-1.7.1-.05.2-.05h3.7m-.05.6q0-.4-.4-.4t-.4.4q0 .1.1.3.1.05.3.05.4 0 .4-.35zm.25-.5q.1.05.1.2v.6q0 .25-.3.25h-1.55q-.05.1-.05.2l.55.05 1.25.25.95.35.8.5.7.6.35.5.1.2.1.15.3.75.05.4-.05.9-.1.45-.2.35-.75 1-.55.45-1.7.85-1.3.25h-1.55l-1.25-.25-1.35-.6-.4-.25-.7-.6-.5-.7-.25-.5-.2-1V78l.25-1.1.45-.7.75-.8.8-.5 1.1-.5 1.55-.3h.25v.1q.05-.15-.05-.3h-1.5q-.1 0-.2-.1t-.1-.15v-.6q0-.15.1-.25m.6.9q.4 0 .4-.35 0-.4-.4-.4t-.4.4q0 .1.15.3.1.05.25.05zm1.1.2q0-.2-.1-.35m.9 0q-.1.15-.15.35m-.05.2V76q0 .15-.1.15l-.4-.15-.05-1.8m.6 4.25q.15-.15.15-.35 0-.45-.45-.45t-.45.45q0 .2.1.35.15.15.35.15.2 0 .3-.15zm.05 3.2h-.75m11.6-7.15h9.65m-81.3 98.05h-9.6m-23.3-2.35h54.75V182q2.15-.4 4.4-.4v-11.4l3.2-3.2-3.1-3.15-.05.05-1.85 1.85H204.7v4.45h4.45v34.5h21.05v-34.5m-10.75 9.2q-1.1 0-1.9.85-.8.8-.8 1.9 0 1.15.8 1.95t1.9.8q1.2 0 1.95-.8.8-.8.8-1.95 0-1.1-.8-1.9-.8-.85-1.95-.85v-9.2m-12.5-4.45v-52.4m2.2 52.4v-52.4m-4.45 0v52.4m109.7-1.85q5.1-5.05 6.45-12.15 1.45-7-1.3-13.65t-8.75-10.6q-5.95-4-13.15-4v23.65m-12.55 0l-.05-23.65q-7.15 0-13.1 4-5.95 3.95-8.75 10.6-2.75 6.65-1.35 13.65 1.4 7.1 6.5 12.15m-14.8 8.35h.3l1.25.2.95.3 1.55 1.05.3.3.25.35.3.55.25 1.15v.2l-.2.9-.25.6-.5.65-1.25 1-1.45.5-.7.15-1.05.1-1.8-.25-1.2-.45-.4-.2-1.1-.85-.6-.85-.15-.4-.2-.75v-.55l.2-.75.15-.4.1-.15.1-.2.25-.35 1.05-.9.85-.45.95-.3 1.5-.2V172h-1.6q-.1 0-.2-.1-.05-.05-.05-.15v-.6q0-.15.05-.25l.2-.05h-.25q-2.2 0-3.55 1.75-1.35 1.75-.7 3.9l.1.35q.45 1.5 1.5 2.65 1.1 1.1 2.55 1.55l.35.1q1.9.65 3.75 0l.35-.1q1.5-.45 2.55-1.55 1.1-1.15 1.5-2.65l.15-.35q.25-1 .1-2.05-.2-1.05-.85-1.85-.65-.8-1.55-1.3-.9-.45-2-.45h-.25l.2.05q.05.1.05.25v.6q0 .25-.25.25h-1.55q-.05.15-.05.25v1.85q0 .15-.1.15l-.45-.15v-1.85m-1.5-.8q0 .35.35.35.4 0 .4-.35 0-.4-.4-.4-.35 0-.35.4zm1.5.55l-.2-.3m1.9-.65q-.4 0-.4.4 0 .35.4.35t.4-.35q0-.4-.4-.4zm-.95.65q-.1.15-.15.3m-2.2-1.15h3.75m-1.4 5.35q0-.45-.45-.45t-.45.45q0 .5.45.5t.45-.5zm10.15 5.8q-2.25.45-4.4 1.35-4.25 1.75-7.55 5-3.25 3.25-5 7.5-1.75 4.3-1.75 8.85h18.7m0-22.7h4.4v-.4m-15.2-1.85l.55.2m60.8 95.85v-71.1h4.4m-54.95 0h4.4v4.45h-59.15v94.65h77.25q0-5.55 2.15-10.7 2.1-5.15 6.1-9.1 3.9-3.95 9.05-6.1 5.15-2.1 10.75-2.1v32.45h4.4V204.7m-114.15 0h2.25v-34.5m2.2 34.5h-2.2m2.2 99.1v2.2h59.15v-2.2m-59.15 2.2v2.25h59.15V306m-63.6-101.3v103.55h4.45m105.3 0H268.3m18.1 0v-4.45m-56.2-99.1h15m-40.5-34.5v34.5m114.15 99.1h54.75m-54.75 2.2h54.75m-54.75 2.25h54.75"/><path id="sis01_02_18_2g" stroke="#373535" stroke-linejoin="bevel" fill="none" d="M242.129 182.254q.339-1.384.028-2.797"/><path id="sis01_02_18_2h" stroke="#373535" stroke-linejoin="bevel" fill="none" d="M241.507 182.085q.311-1.272 0-2.543"/><path id="sis01_02_18_2i" stroke="#373535" stroke-linejoin="bevel" fill="none" d="M240.292 181.35q.029-.565-.282-1.017-.34-.452-.876-.621"/><path id="sis01_02_18_2j" stroke="#373535" stroke-linejoin="bevel" fill="none" d="M235.461 179.712q-.536.169-.847.621-.34.48-.311 1.017"/><path id="sis01_02_18_2k" stroke="#373535" stroke-linejoin="bevel" fill="none" d="M233.088 179.542q-.31 1.271 0 2.543"/><path id="sis01_02_18_2l" stroke="#373535" stroke-linejoin="bevel" fill="none" d="M232.467 179.457q-.311 1.413.028 2.797"/><path id="sis01_02_18_2m" stroke="#373535" stroke-linejoin="bevel" fill="none" d="M233.455 172.988h3.843"/><path id="sis01_02_18_2n" stroke="#373535" stroke-linejoin="bevel" fill="none" d="M233.116 176.689h4.182"/><path id="sis01_02_18_2o" stroke="#373535" stroke-linejoin="bevel" fill="none" d="M233.116 176.802h4.182"/><path id="sis01_02_18_2p" stroke="#373535" stroke-linejoin="bevel" fill="none" d="M237.298 179.316q-1.017 0-1.837.396"/><path id="sis01_02_18_2q" stroke="#373535" stroke-linejoin="bevel" fill="none" d="M233.455 176.689v-3.701"/><path id="sis01_02_18_2r" stroke="#373535" stroke-linejoin="bevel" fill="none" d="M233.116 179.372v-6.808"/><path id="sis01_02_18_2s" stroke="#373535" stroke-linejoin="bevel" fill="none" d="M232.495 179.316v-6.752"/><path id="sis01_02_18_2t" stroke="#373535" stroke-linejoin="bevel" fill="none" d="M232.467 179.457l.028-.141"/><path id="sis01_02_18_2u" stroke="#373535" stroke-linejoin="bevel" fill="none" d="M233.088 179.542l.028-.17"/><path id="sis01_02_18_2v" stroke="#373535" stroke-linejoin="bevel" fill="none" d="M235.405 178.13q.198 0 .198-.17t-.198-.17q-.17 0-.17.17t.17.17z"/><path id="sis01_02_18_2w" stroke="#373535" stroke-linejoin="bevel" fill="none" d="M242.129 179.316v-6.752"/><path id="sis01_02_18_2x" stroke="#373535" stroke-linejoin="bevel" fill="none" d="M241.507 179.372v-6.808"/><path id="sis01_02_18_2y" stroke="#373535" stroke-linejoin="bevel" fill="none" d="M241.14 176.689v-3.701"/><path id="sis01_02_18_2z" stroke="#373535" stroke-linejoin="bevel" fill="none" d="M241.14 172.988h-3.842"/><path id="sis01_02_18_2A" stroke="#373535" stroke-linejoin="bevel" fill="none" d="M241.507 176.802h-4.21"/><path id="sis01_02_18_2B" stroke="#373535" stroke-linejoin="bevel" fill="none" d="M241.507 176.689h-4.21"/><path id="sis01_02_18_2C" stroke="#373535" stroke-linejoin="bevel" fill="none" d="M239.134 179.712q-.791-.396-1.836-.396"/><path id="sis01_02_18_2D" stroke="#373535" stroke-linejoin="bevel" fill="none" d="M239.19 178.13q.198 0 .198-.17t-.197-.17q-.17 0-.17.17t.17.17z"/><path id="sis01_02_18_2E" stroke="#373535" stroke-linejoin="bevel" fill="none" d="M241.507 179.372v.17"/><path id="sis01_02_18_2F" stroke="#373535" stroke-linejoin="bevel" fill="none" d="M242.129 179.316l.028.141"/><path id="sis01_02_18_2G" stroke="#373535" stroke-linejoin="bevel" fill="none" d="M235.913 183.525q.255.876 1.13 1.159"/><path id="sis01_02_18_2H" stroke="#373535" stroke-linejoin="bevel" fill="none" d="M235.885 181.859h1.413"/><path id="sis01_02_18_2I" stroke="#373535" stroke-linejoin="bevel" fill="none" d="M236.563 188.102l-1.497-.141"/><path id="sis01_02_18_2J" stroke="#373535" stroke-linejoin="bevel" fill="none" d="M236.478 189.006l-1.977-.226"/><path id="sis01_02_18_2K" stroke="#373535" stroke-linejoin="bevel" fill="none" d="M236.422 189.628l-2.175-.226"/><path id="sis01_02_18_2L" stroke="#373535" stroke-linejoin="bevel" fill="none" d="M233.992 188.3q.057.424.509.48"/><path id="sis01_02_18_2M" stroke="#373535" stroke-linejoin="bevel" fill="none" d="M232.495 182.254l.904 6.329"/><path id="sis01_02_18_2N" stroke="#373535" stroke-linejoin="bevel" fill="none" d="M234.84 187.707l-.537-6.357"/><path id="sis01_02_18_2O" stroke="#373535" stroke-linejoin="bevel" fill="none" d="M233.116 182.141l.876 6.159"/><path id="sis01_02_18_2P" stroke="#373535" stroke-linejoin="bevel" fill="none" d="M235.885 181.859v1.525"/><path id="sis01_02_18_2Q" stroke="#373535" stroke-linejoin="bevel" fill="none" d="M235.885 183.384l.028.141"/><path id="sis01_02_18_2R" stroke="#373535" stroke-linejoin="bevel" fill="none" d="M234.84 187.707q0 .197.226.254"/><path id="sis01_02_18_2S" stroke="#373535" stroke-linejoin="bevel" fill="none" d="M233.399 188.583q.085.734.848.819"/><path id="sis01_02_18_2T" stroke="#373535" stroke-linejoin="bevel" fill="none" d="M242.129 182.254l-.904 6.329"/><path id="sis01_02_18_2U" stroke="#373535" stroke-linejoin="bevel" fill="none" d="M240.123 188.78q.424-.056.508-.48"/><path id="sis01_02_18_2V" stroke="#373535" stroke-linejoin="bevel" fill="none" d="M241.507 182.141l-.876 6.159"/><path id="sis01_02_18_2W" stroke="#373535" stroke-linejoin="bevel" fill="none" d="M239.784 187.707l.508-6.357"/><path id="sis01_02_18_2X" stroke="#373535" stroke-linejoin="bevel" fill="none" d="M237.58 184.684q.876-.283 1.13-1.159"/><path id="sis01_02_18_2Y" stroke="#373535" stroke-linejoin="bevel" fill="none" d="M238.71 181.859v1.525"/><path id="sis01_02_18_2Z" stroke="#373535" stroke-linejoin="bevel" fill="none" d="M238.71 181.859h-1.412"/><path id="sis01_02_18_2aa" stroke="#373535" stroke-linejoin="bevel" fill="none" d="M237.439 184.712h-.254"/><path id="sis01_02_18_2ab" stroke="#373535" stroke-linejoin="bevel" fill="none" d="M237.043 184.684l.142.028"/><path id="sis01_02_18_2ac" stroke="#373535" stroke-linejoin="bevel" fill="none" d="M237.439 184.712l.141-.028"/><path id="sis01_02_18_2ad" stroke="#373535" stroke-linejoin="bevel" fill="none" d="M238.71 183.525v-.14"/><path id="sis01_02_18_2ae" stroke="#373535" stroke-linejoin="bevel" fill="none" d="M238.06 188.102l1.498-.141"/><path id="sis01_02_18_2af" stroke="#373535" stroke-linejoin="bevel" fill="none" d="M237.298 188.102h.763"/><path id="sis01_02_18_2ag" stroke="#373535" stroke-linejoin="bevel" fill="none" d="M237.298 188.102h-.735"/><path id="sis01_02_18_2ah" stroke="#373535" stroke-linejoin="bevel" fill="none" d="M239.558 187.961q.198-.057.226-.254"/><path id="sis01_02_18_2ai" stroke="#373535" stroke-linejoin="bevel" fill="none" d="M238.202 189.628l2.175-.226"/><path id="sis01_02_18_2aj" stroke="#373535" stroke-linejoin="bevel" fill="none" d="M238.117 189.006l2.006-.226"/><path id="sis01_02_18_2ak" stroke="#373535" stroke-linejoin="bevel" fill="none" d="M237.298 189.628h.79"/><path id="sis01_02_18_2al" stroke="#373535" stroke-linejoin="bevel" fill="none" d="M237.298 189.006h.79"/><path id="sis01_02_18_2am" stroke="#373535" stroke-linejoin="bevel" fill="none" d="M237.298 189.006h-.791"/><path id="sis01_02_18_2an" stroke="#373535" stroke-linejoin="bevel" fill="none" d="M237.298 189.628h-.791"/><path id="sis01_02_18_2ao" stroke="#373535" stroke-linejoin="bevel" fill="none" d="M240.377 189.402q.31-.028.565-.283.254-.226.283-.536"/><path id="sis01_02_18_2ap" stroke="#373535" stroke-linejoin="bevel" fill="none" d="M269.11 84.136q.338-1.356.027-2.797"/><path id="sis01_02_18_2aq" stroke="#373535" stroke-linejoin="bevel" fill="none" d="M268.488 83.995q.339-1.271 0-2.571"/><path id="sis01_02_18_2ar" stroke="#373535" stroke-linejoin="bevel" fill="none" d="M267.301 83.26q.028-.565-.31-1.045-.312-.452-.848-.621"/><path id="sis01_02_18_2as" stroke="#373535" stroke-linejoin="bevel" fill="none" d="M262.47 81.594q-.537.169-.876.621-.31.48-.282 1.045"/><path id="sis01_02_18_2at" stroke="#373535" stroke-linejoin="bevel" fill="none" d="M260.097 81.424q-.311 1.3 0 2.57"/><path id="sis01_02_18_2au" stroke="#373535" stroke-linejoin="bevel" fill="none" d="M259.447 81.34q-.31 1.44.028 2.796"/><path id="sis01_02_18_2av" stroke="#373535" stroke-linejoin="bevel" fill="none" d="M260.464 74.898h3.842"/><path id="sis01_02_18_2aw" stroke="#373535" stroke-linejoin="bevel" fill="none" d="M260.097 78.599h4.21"/><path id="sis01_02_18_2ax" stroke="#373535" stroke-linejoin="bevel" fill="none" d="M260.097 78.684h4.21"/><path id="sis01_02_18_2ay" stroke="#373535" stroke-linejoin="bevel" fill="none" d="M264.306 81.198q-.96 0-1.836.396"/><path id="sis01_02_18_2az" stroke="#373535" stroke-linejoin="bevel" fill="none" d="M260.464 78.599v-3.701"/><path id="sis01_02_18_2aA" stroke="#373535" stroke-linejoin="bevel" fill="none" d="M260.097 81.283v-6.809"/><path id="sis01_02_18_2aB" stroke="#373535" stroke-linejoin="bevel" fill="none" d="M259.475 81.198v-6.724"/><path id="sis01_02_18_2aC" stroke="#373535" stroke-linejoin="bevel" fill="none" d="M259.447 81.34l.028-.142"/><path id="sis01_02_18_2aD" stroke="#373535" stroke-linejoin="bevel" fill="none" d="M260.097 81.424v-.141"/><path id="sis01_02_18_2aE" stroke="#373535" stroke-linejoin="bevel" fill="none" d="M262.413 80.04q.17 0 .17-.17 0-.198-.17-.198-.197 0-.197.198 0 .17.197.17z"/><path id="sis01_02_18_2aF" stroke="#373535" stroke-linejoin="bevel" fill="none" d="M269.11 81.198v-6.724"/><path id="sis01_02_18_2aG" stroke="#373535" stroke-linejoin="bevel" fill="none" d="M268.488 81.283v-6.809"/><path id="sis01_02_18_2aH" stroke="#373535" stroke-linejoin="bevel" fill="none" d="M268.149 78.599v-3.701"/><path id="sis01_02_18_2aI" stroke="#373535" stroke-linejoin="bevel" fill="none" d="M268.149 74.898h-3.843"/><path id="sis01_02_18_2aJ" stroke="#373535" stroke-linejoin="bevel" fill="none" d="M268.488 78.684h-4.182"/><path id="sis01_02_18_2aK" stroke="#373535" stroke-linejoin="bevel" fill="none" d="M268.488 78.599h-4.182"/><path id="sis01_02_18_2aL" stroke="#373535" stroke-linejoin="bevel" fill="none" d="M266.143 81.594q-.933-.396-1.837-.396"/><path id="sis01_02_18_2aM" stroke="#373535" stroke-linejoin="bevel" fill="none" d="M266.2 80.04q.169 0 .169-.17 0-.198-.17-.198-.198 0-.198.198 0 .17.198.17z"/><path id="sis01_02_18_2aN" stroke="#373535" stroke-linejoin="bevel" fill="none" d="M268.488 81.283v.141"/><path id="sis01_02_18_2aO" stroke="#373535" stroke-linejoin="bevel" fill="none" d="M269.11 81.198l.027.141"/><path id="sis01_02_18_2aP" stroke="#373535" stroke-linejoin="bevel" fill="none" d="M262.894 85.436q.282.847 1.13 1.13"/><path id="sis01_02_18_2aQ" stroke="#373535" stroke-linejoin="bevel" fill="none" d="M262.894 83.769h1.412"/><path id="sis01_02_18_2aR" stroke="#373535" stroke-linejoin="bevel" fill="none" d="M263.543 90.013l-1.497-.17"/><path id="sis01_02_18_2aS" stroke="#373535" stroke-linejoin="bevel" fill="none" d="M263.487 90.888l-2.006-.197"/><path id="sis01_02_18_2aT" stroke="#373535" stroke-linejoin="bevel" fill="none" d="M263.402 91.538l-2.175-.254"/><path id="sis01_02_18_2aU" stroke="#373535" stroke-linejoin="bevel" fill="none" d="M260.973 90.182q.084.452.508.509"/><path id="sis01_02_18_2aV" stroke="#373535" stroke-linejoin="bevel" fill="none" d="M259.475 84.136l.904 6.329"/><path id="sis01_02_18_2aW" stroke="#373535" stroke-linejoin="bevel" fill="none" d="M261.82 89.617l-.508-6.357"/><path id="sis01_02_18_2aX" stroke="#373535" stroke-linejoin="bevel" fill="none" d="M260.097 84.051l.876 6.131"/><path id="sis01_02_18_2aY" stroke="#373535" stroke-linejoin="bevel" fill="none" d="M262.894 83.769v1.526"/><path id="sis01_02_18_2aZ" stroke="#373535" stroke-linejoin="bevel" fill="none" d="M262.894 85.295v.14"/><path id="sis01_02_18_2ba" stroke="#373535" stroke-linejoin="bevel" fill="none" d="M261.82 89.617q.057.226.226.226"/><path id="sis01_02_18_2bb" stroke="#373535" stroke-linejoin="bevel" fill="none" d="M260.38 90.465q.056.339.282.565.254.226.565.254"/><path id="sis01_02_18_2bc" stroke="#373535" stroke-linejoin="bevel" fill="none" d="M269.11 84.136l-.905 6.329"/><path id="sis01_02_18_2bd" stroke="#373535" stroke-linejoin="bevel" fill="none" d="M267.103 90.69q.452-.056.509-.508"/><path id="sis01_02_18_2be" stroke="#373535" stroke-linejoin="bevel" fill="none" d="M268.488 84.051l-.876 6.131"/><path id="sis01_02_18_2bf" stroke="#373535" stroke-linejoin="bevel" fill="none" d="M266.764 89.617l.537-6.357"/><path id="sis01_02_18_2bg" stroke="#373535" stroke-linejoin="bevel" fill="none" d="M264.56 86.566q.848-.283 1.13-1.13"/><path id="sis01_02_18_2bh" stroke="#373535" stroke-linejoin="bevel" fill="none" d="M265.719 83.769v1.526"/><path id="sis01_02_18_2bi" stroke="#373535" stroke-linejoin="bevel" fill="none" d="M265.719 83.769h-1.413"/><path id="sis01_02_18_2bj" stroke="#373535" stroke-linejoin="bevel" fill="none" d="M264.42 86.594h-.255"/><path id="sis01_02_18_2bk" stroke="#373535" stroke-linejoin="bevel" fill="none" d="M264.024 86.566l.141.028"/><path id="sis01_02_18_2bl" stroke="#373535" stroke-linejoin="bevel" fill="none" d="M264.42 86.594l.14-.028"/><path id="sis01_02_18_2bm" stroke="#373535" stroke-linejoin="bevel" fill="none" d="M265.69 85.436l.029-.141"/><path id="sis01_02_18_2bn" stroke="#373535" stroke-linejoin="bevel" fill="none" d="M265.04 90.013l1.498-.17"/><path id="sis01_02_18_2bo" stroke="#373535" stroke-linejoin="bevel" fill="none" d="M264.306 90.013h.735"/><path id="sis01_02_18_2bp" stroke="#373535" stroke-linejoin="bevel" fill="none" d="M264.306 90.013h-.763"/><path id="sis01_02_18_2bq" stroke="#373535" stroke-linejoin="bevel" fill="none" d="M266.538 89.843q.226 0 .226-.226"/><path id="sis01_02_18_2br" stroke="#373535" stroke-linejoin="bevel" fill="none" d="M265.182 91.538l2.175-.254"/><path id="sis01_02_18_2bs" stroke="#373535" stroke-linejoin="bevel" fill="none" d="M265.126 90.888l1.977-.197"/><path id="sis01_02_18_2bt" stroke="#373535" stroke-linejoin="bevel" fill="none" d="M264.306 91.538h.791"/><path id="sis01_02_18_2bu" stroke="#373535" stroke-linejoin="bevel" fill="none" d="M264.306 90.917h.791"/><path id="sis01_02_18_2bv" stroke="#373535" stroke-linejoin="bevel" fill="none" d="M264.306 90.917h-.79"/><path id="sis01_02_18_2bw" stroke="#373535" stroke-linejoin="bevel" fill="none" d="M264.306 91.538h-.79"/><path id="sis01_02_18_2bx" stroke="#373535" stroke-linejoin="bevel" fill="none" d="M267.357 91.284q.763-.057.848-.82"/><path id="sis01_02_18_2by" stroke="#373535" stroke-linejoin="bevel" fill="none" d="M313.747 84.136q-.34-1.356-.029-2.797"/><path id="sis01_02_18_2bz" stroke="#373535" stroke-linejoin="bevel" fill="none" d="M314.368 83.995q-.31-1.271 0-2.571"/><path id="sis01_02_18_2bA" stroke="#373535" stroke-linejoin="bevel" fill="none" d="M315.583 83.26q-.028-.565.283-1.045.339-.452.875-.621"/><path id="sis01_02_18_2bB" stroke="#373535" stroke-linejoin="bevel" fill="none" d="M320.414 81.594q.537.169.848.621.339.48.31 1.045"/><path id="sis01_02_18_2bC" stroke="#373535" stroke-linejoin="bevel" fill="none" d="M322.759 81.424q.339 1.3 0 2.57"/><path id="sis01_02_18_2bD" stroke="#373535" stroke-linejoin="bevel" fill="none" d="M323.409 81.34q.31 1.44-.029 2.796"/><path id="sis01_02_18_2bE" stroke="#373535" stroke-linejoin="bevel" fill="none" d="M322.42 74.898h-3.842"/><path id="sis01_02_18_2bF" stroke="#373535" stroke-linejoin="bevel" fill="none" d="M322.759 78.599h-4.181"/><path id="sis01_02_18_2bG" stroke="#373535" stroke-linejoin="bevel" fill="none" d="M322.759 78.684h-4.181"/><path id="sis01_02_18_2bH" stroke="#373535" stroke-linejoin="bevel" fill="none" d="M318.578 81.198q.904 0 1.836.396"/><path id="sis01_02_18_2bI" stroke="#373535" stroke-linejoin="bevel" fill="none" d="M322.42 78.599v-3.701"/><path id="sis01_02_18_2bJ" stroke="#373535" stroke-linejoin="bevel" fill="none" d="M322.759 81.283v-6.809"/><path id="sis01_02_18_2bK" stroke="#373535" stroke-linejoin="bevel" fill="none" d="M323.38 81.198v-6.724"/><path id="sis01_02_18_2bL" stroke="#373535" stroke-linejoin="bevel" fill="none" d="M323.409 81.34l-.029-.142"/><path id="sis01_02_18_2bM" stroke="#373535" stroke-linejoin="bevel" fill="none" d="M322.759 81.424v-.141"/><path id="sis01_02_18_2bN" stroke="#373535" stroke-linejoin="bevel" fill="none" d="M320.47 80.04q-.197 0-.197-.17 0-.198.198-.198.17 0 .17.198 0 .17-.17.17z"/><path id="sis01_02_18_2bO" stroke="#373535" stroke-linejoin="bevel" fill="none" d="M313.747 81.198v-6.724"/><path id="sis01_02_18_2bP" stroke="#373535" stroke-linejoin="bevel" fill="none" d="M314.368 81.283v-6.809"/><path id="sis01_02_18_2bQ" stroke="#373535" stroke-linejoin="bevel" fill="none" d="M314.735 78.599v-3.701"/><path id="sis01_02_18_2bR" stroke="#373535" stroke-linejoin="bevel" fill="none" d="M314.735 74.898h3.843"/><path id="sis01_02_18_2bS" stroke="#373535" stroke-linejoin="bevel" fill="none" d="M314.368 78.684h4.21"/><path id="sis01_02_18_2bT" stroke="#373535" stroke-linejoin="bevel" fill="none" d="M314.368 78.599h4.21"/><path id="sis01_02_18_2bU" stroke="#373535" stroke-linejoin="bevel" fill="none" d="M316.741 81.594q.876-.396 1.837-.396"/><path id="sis01_02_18_2bV" stroke="#373535" stroke-linejoin="bevel" fill="none" d="M316.685 80.04q-.198 0-.198-.17 0-.198.198-.198.17 0 .17.198 0 .17-.17.17z"/><path id="sis01_02_18_2bW" stroke="#373535" stroke-linejoin="bevel" fill="none" d="M314.368 81.283v.141"/><path id="sis01_02_18_2bX" stroke="#373535" stroke-linejoin="bevel" fill="none" d="M313.747 81.198l-.029.141"/><path id="sis01_02_18_2bY" stroke="#373535" stroke-linejoin="bevel" fill="none" d="M319.962 85.436q-.282.847-1.13 1.13"/><path id="sis01_02_18_2bZ" stroke="#373535" stroke-linejoin="bevel" fill="none" d="M319.99 83.769h-1.412"/><path id="sis01_02_18_2ca" stroke="#373535" stroke-linejoin="bevel" fill="none" d="M319.312 90.013l1.498-.17"/><path id="sis01_02_18_2cb" stroke="#373535" stroke-linejoin="bevel" fill="none" d="M319.397 90.888l1.978-.197"/><path id="sis01_02_18_2cc" stroke="#373535" stroke-linejoin="bevel" fill="none" d="M319.454 91.538l2.175-.254"/><path id="sis01_02_18_2cd" stroke="#373535" stroke-linejoin="bevel" fill="none" d="M321.883 90.182q-.056.452-.508.509"/><path id="sis01_02_18_2ce" stroke="#373535" stroke-linejoin="bevel" fill="none" d="M323.38 84.136l-.904 6.329"/><path id="sis01_02_18_2cf" stroke="#373535" stroke-linejoin="bevel" fill="none" d="M321.036 89.617l.536-6.357"/><path id="sis01_02_18_2cg" stroke="#373535" stroke-linejoin="bevel" fill="none" d="M322.759 84.051l-.876 6.131"/><path id="sis01_02_18_2ch" stroke="#373535" stroke-linejoin="bevel" fill="none" d="M319.99 83.769v1.526"/><path id="sis01_02_18_2ci" stroke="#373535" stroke-linejoin="bevel" fill="none" d="M319.99 85.295l-.028.14"/><path id="sis01_02_18_2cj" stroke="#373535" stroke-linejoin="bevel" fill="none" d="M321.036 89.617q0 .226-.226.226"/><path id="sis01_02_18_2ck" stroke="#373535" stroke-linejoin="bevel" fill="none" d="M322.476 90.465q-.084.762-.847.819"/><path id="sis01_02_18_2cl" stroke="#373535" stroke-linejoin="bevel" fill="none" d="M313.747 84.136l.904 6.329"/><path id="sis01_02_18_2cm" stroke="#373535" stroke-linejoin="bevel" fill="none" d="M315.753 90.69q-.424-.056-.509-.508"/><path id="sis01_02_18_2cn" stroke="#373535" stroke-linejoin="bevel" fill="none" d="M314.368 84.051l.876 6.131"/><path id="sis01_02_18_2co" stroke="#373535" stroke-linejoin="bevel" fill="none" d="M316.092 89.617l-.509-6.357"/><path id="sis01_02_18_2cp" stroke="#373535" stroke-linejoin="bevel" fill="none" d="M318.295 86.566q-.847-.283-1.13-1.13"/><path id="sis01_02_18_2cq" stroke="#373535" stroke-linejoin="bevel" fill="none" d="M317.165 83.769v1.526"/><path id="sis01_02_18_2cr" stroke="#373535" stroke-linejoin="bevel" fill="none" d="M317.165 83.769h1.413"/><path id="sis01_02_18_2cs" stroke="#373535" stroke-linejoin="bevel" fill="none" d="M318.436 86.594h.255"/><path id="sis01_02_18_2ct" stroke="#373535" stroke-linejoin="bevel" fill="none" d="M318.832 86.566l-.141.028"/><path id="sis01_02_18_2cu" stroke="#373535" stroke-linejoin="bevel" fill="none" d="M318.436 86.594l-.14-.028"/><path id="sis01_02_18_2cv" stroke="#373535" stroke-linejoin="bevel" fill="none" d="M317.165 85.436v-.141"/><path id="sis01_02_18_2cw" stroke="#373535" stroke-linejoin="bevel" fill="none" d="M317.815 90.013l-1.497-.17"/><path id="sis01_02_18_2cx" stroke="#373535" stroke-linejoin="bevel" fill="none" d="M318.578 90.013h-.763"/><path id="sis01_02_18_2cy" stroke="#373535" stroke-linejoin="bevel" fill="none" d="M318.578 90.013h.734"/><path id="sis01_02_18_2cz" stroke="#373535" stroke-linejoin="bevel" fill="none" d="M316.318 89.843q-.17 0-.226-.226"/><path id="sis01_02_18_2cA" stroke="#373535" stroke-linejoin="bevel" fill="none" d="M317.674 91.538l-2.176-.254"/><path id="sis01_02_18_2cB" stroke="#373535" stroke-linejoin="bevel" fill="none" d="M317.758 90.888l-2.005-.197"/><path id="sis01_02_18_2cC" stroke="#373535" stroke-linejoin="bevel" fill="none" d="M318.578 91.538h-.791"/><path id="sis01_02_18_2cD" stroke="#373535" stroke-linejoin="bevel" fill="none" d="M318.578 90.917h-.791"/><path id="sis01_02_18_2cE" stroke="#373535" stroke-linejoin="bevel" fill="none" d="M318.578 90.917h.79"/><path id="sis01_02_18_2cF" stroke="#373535" stroke-linejoin="bevel" fill="none" d="M318.578 91.538h.79"/><path id="sis01_02_18_2cG" stroke="#373535" stroke-linejoin="bevel" fill="none" d="M315.498 91.284q-.31-.028-.565-.254-.226-.226-.282-.565"/><path id="sis01_02_18_2dm" stroke="#373535" stroke-linejoin="bevel" fill="none" d="M4.45 113.35v-42h80v71.7l-4.05 4.1 3.15 3.1 3.1-3.1 3.2 3.15 3.15-3.15-4.1-4.1v-71.7h80v42h4.45V66.9H0v46.45h4.45v52.4h57.3l1.9-1.85q-5.1-5.05-6.5-12.15-1.4-7 1.4-13.65 2.7-6.65 8.65-10.6 6-4 13.2-4v23.65m88.5 18.6h2.2v-52.4m0 52.4h2.25v-52.4m-6.6 76.3H148.7v-17h18.05v17zm2.15-76.3v52.4h-57.3l-1.9-1.85-3.15 3.1 3.2 3.2V182h4.4v-11.8h54.75v33.55h4.45v-38m-136 6.8H27.7m-23.25-6.8H0m2.2 0v-52.4M0 165.75v4.45h59.2V182q2.15-.4 4.4-.4v-11.4l3.2-3.2-3.15-3.15v.05m-48.9 6.3v9.2q1.15 0 1.95.85.8.8.8 1.9 0 1.15-.8 1.95-.75.8-1.95.8-1.15 0-1.9-.8-.8-.8-.8-1.95 0-1.1.8-1.9.75-.85 1.9-.85m32.1-8.25q-.1.1-.1.3 0 .35.4.35t.4-.35q0-.4-.4-.4-.1 0-.3.1zm1.4.85h-1.5q-.15 0-.2-.1-.1-.05-.1-.15v-.6q0-.15.1-.25l.2-.05h-.35q-2.15 0-3.5 1.75-.65.85-.8 1.85-.2 1.05.1 2.05l.1.35q.45 1.5 1.5 2.65 1.1 1.1 2.55 1.55l.35.1q1.85.65 3.75 0l.35-.1q1.45-.45 2.55-1.55 1.05-1.15 1.5-2.65l.1-.35q.3-1 .1-2.05-.15-1-.8-1.85-1.35-1.75-3.55-1.75h-.3l.25.05q.05.15.05.25v.6q0 .25-.3.25h-1.5q-.05.1-.05.25h.25l1.3.2 1.8.75.7.6.4.45.55.95.15.75v.55l-.15.6-.3.75-.65.8-1.15.85-1.35.5-1.3.25h-1.05l-1.3-.25-1.4-.5-.95-.7-.3-.3-.5-.65-.25-.6-.15-.55v-.2l-.05-.15v-.2l.05-.2v-.2l.2-.75.1-.2.35-.55.4-.45.7-.6.85-.45 1.25-.35 1.25-.15q0-.15-.05-.25-.05-.15-.15-.3m1.9-.65q-.4 0-.4.4 0 .35.4.35t.4-.35q0-.4-.4-.4zm-.95.65q-.1.15-.15.3m-2.15-1.15h3.65M59.2 182q-2.3.45-4.45 1.35-4.25 1.75-7.5 5-3.2 3.25-5 7.5-1.75 4.25-1.75 8.85h18.7m0-22.7h4.4v-.4m-15.3-9.35v1.85l.4.15q.15 0 .15-.15v-1.85m-.3 3.5q-.45 0-.45.45 0 .5.45.5t.45-.5q0-.45-.45-.45zm-.45 4.2h.9m-49-66.6v52.4m109.7-1.85q5.05-5.05 6.45-12.15 1.4-7-1.35-13.65t-8.7-10.6q-5.95-4-13.1-4v23.65m24.3 25.5h29.35v10.85H117.3v-10.85zM158 227.2h8.75v13.9H158v-13.9zm-48.25 48.6v-71.1h4.4M81.7 303.8q0-5.55 2.15-10.7 2.15-5.2 6.05-9.1 3.95-3.95 9.1-6.1 5.15-2.1 10.75-2.1v32.45h4.4V204.7m35.6 57.45h18.05v17h-18.05v-17zm6.6 15.75h10.2v-14.5h-10.2v14.5zm12.55-17.35h-32.8v-4.4h18.8V212.8h14v-9.05m-109.7.95h4.4v4.45H4.45v94.65H81.7v4.45h28.05M4.45 204.7H0v103.55h4.45v-4.45m0-99.1H25.5v-34.5m0 34.5h15m23.1 99.1v4.45h18.1M4.45 306H63.6m-59.15 2.25H63.6m91.3-52.1h16.2v-52.4m0 52.4h2.25v-52.4m-4.45 9.05v43.35m0 49.85v-2.2h-54.75m54.75 4.45V306h-54.75m54.75 2.25h4.45v-52.1m-4.45 47.65v-43.25m-54.75 47.7h54.75m-20.2-98.55v-16.95h18.05v16.95H148.7zM2.2 170.2v34.5M0 170.2v34.5m4.45-34.5v34.5"/><path id="sis01_02_18_2dn" stroke="#373535" stroke-linejoin="bevel" fill="none" d="M37.15 182.254q.34-1.384.029-2.797"/><path id="sis01_02_18_2do" stroke="#373535" stroke-linejoin="bevel" fill="none" d="M36.557 182.085q.311-1.272 0-2.543"/><path id="sis01_02_18_2dp" stroke="#373535" stroke-linejoin="bevel" fill="none" d="M35.343 181.35q.028-.537-.311-1.017-.31-.452-.848-.621"/><path id="sis01_02_18_2dq" stroke="#373535" stroke-linejoin="bevel" fill="none" d="M30.512 179.712q-.537.169-.876.621-.311.452-.283 1.017"/><path id="sis01_02_18_2dr" stroke="#373535" stroke-linejoin="bevel" fill="none" d="M28.138 179.542q-.31 1.271 0 2.543"/><path id="sis01_02_18_2ds" stroke="#373535" stroke-linejoin="bevel" fill="none" d="M27.489 179.457q-.311 1.413.028 2.797"/><path id="sis01_02_18_2dt" stroke="#373535" stroke-linejoin="bevel" fill="none" d="M28.506 172.988h3.842"/><path id="sis01_02_18_2du" stroke="#373535" stroke-linejoin="bevel" fill="none" d="M28.138 176.689h4.21"/><path id="sis01_02_18_2dv" stroke="#373535" stroke-linejoin="bevel" fill="none" d="M28.138 176.802h4.21"/><path id="sis01_02_18_2dw" stroke="#373535" stroke-linejoin="bevel" fill="none" d="M32.348 179.316q-1.045 0-1.836.396"/><path id="sis01_02_18_2dx" stroke="#373535" stroke-linejoin="bevel" fill="none" d="M28.506 176.689v-3.701"/><path id="sis01_02_18_2dy" stroke="#373535" stroke-linejoin="bevel" fill="none" d="M28.138 179.372v-6.808"/><path id="sis01_02_18_2dz" stroke="#373535" stroke-linejoin="bevel" fill="none" d="M27.517 179.316v-6.752"/><path id="sis01_02_18_2dA" stroke="#373535" stroke-linejoin="bevel" fill="none" d="M27.489 179.457l.028-.141"/><path id="sis01_02_18_2dB" stroke="#373535" stroke-linejoin="bevel" fill="none" d="M28.138 179.542v-.17"/><path id="sis01_02_18_2dC" stroke="#373535" stroke-linejoin="bevel" fill="none" d="M30.455 178.13q.17 0 .17-.17t-.17-.17q-.198 0-.198.17t.198.17z"/><path id="sis01_02_18_2dD" stroke="#373535" stroke-linejoin="bevel" fill="none" d="M37.15 179.316v-6.752"/><path id="sis01_02_18_2dE" stroke="#373535" stroke-linejoin="bevel" fill="none" d="M36.53 179.372v-6.808"/><path id="sis01_02_18_2dF" stroke="#373535" stroke-linejoin="bevel" fill="none" d="M36.19 176.689v-3.701"/><path id="sis01_02_18_2dG" stroke="#373535" stroke-linejoin="bevel" fill="none" d="M36.19 172.988h-3.842"/><path id="sis01_02_18_2dH" stroke="#373535" stroke-linejoin="bevel" fill="none" d="M36.53 176.802h-4.182"/><path id="sis01_02_18_2dI" stroke="#373535" stroke-linejoin="bevel" fill="none" d="M36.53 176.689h-4.182"/><path id="sis01_02_18_2dJ" stroke="#373535" stroke-linejoin="bevel" fill="none" d="M34.184 179.712q-.819-.396-1.836-.396"/><path id="sis01_02_18_2dK" stroke="#373535" stroke-linejoin="bevel" fill="none" d="M34.24 178.13q.17 0 .17-.17t-.17-.17q-.197 0-.197.17t.198.17z"/><path id="sis01_02_18_2dL" stroke="#373535" stroke-linejoin="bevel" fill="none" d="M36.53 179.372l.027.17"/><path id="sis01_02_18_2dM" stroke="#373535" stroke-linejoin="bevel" fill="none" d="M37.15 179.316l.029.141"/><path id="sis01_02_18_2dN" stroke="#373535" stroke-linejoin="bevel" fill="none" d="M30.935 183.525q.255.876 1.13 1.159"/><path id="sis01_02_18_2dO" stroke="#373535" stroke-linejoin="bevel" fill="none" d="M30.935 181.859h1.413"/><path id="sis01_02_18_2dP" stroke="#373535" stroke-linejoin="bevel" fill="none" d="M31.585 188.102l-1.497-.141"/><path id="sis01_02_18_2dQ" stroke="#373535" stroke-linejoin="bevel" fill="none" d="M31.529 189.006l-2.006-.226"/><path id="sis01_02_18_2dR" stroke="#373535" stroke-linejoin="bevel" fill="none" d="M31.444 189.628l-2.176-.226"/><path id="sis01_02_18_2dS" stroke="#373535" stroke-linejoin="bevel" fill="none" d="M29.014 188.3q.085.424.509.48"/><path id="sis01_02_18_2dT" stroke="#373535" stroke-linejoin="bevel" fill="none" d="M27.517 182.254l.904 6.329"/><path id="sis01_02_18_2dU" stroke="#373535" stroke-linejoin="bevel" fill="none" d="M29.862 187.707l-.509-6.357"/><path id="sis01_02_18_2dV" stroke="#373535" stroke-linejoin="bevel" fill="none" d="M28.138 182.141l.876 6.159"/><path id="sis01_02_18_2dW" stroke="#373535" stroke-linejoin="bevel" fill="none" d="M30.935 181.859v1.525"/><path id="sis01_02_18_2dX" stroke="#373535" stroke-linejoin="bevel" fill="none" d="M30.935 183.384v.141"/><path id="sis01_02_18_2dY" stroke="#373535" stroke-linejoin="bevel" fill="none" d="M29.862 187.707q.056.197.226.254"/><path id="sis01_02_18_2dZ" stroke="#373535" stroke-linejoin="bevel" fill="none" d="M28.42 188.583q.057.31.283.536.255.255.565.283"/><path id="sis01_02_18_2ea" stroke="#373535" stroke-linejoin="bevel" fill="none" d="M37.15 182.254l-.903 6.329"/><path id="sis01_02_18_2eb" stroke="#373535" stroke-linejoin="bevel" fill="none" d="M35.145 188.78q.452-.056.508-.48"/><path id="sis01_02_18_2ec" stroke="#373535" stroke-linejoin="bevel" fill="none" d="M36.53 182.141l-.877 6.159"/><path id="sis01_02_18_2ed" stroke="#373535" stroke-linejoin="bevel" fill="none" d="M34.806 187.707l.537-6.357"/><path id="sis01_02_18_2ee" stroke="#373535" stroke-linejoin="bevel" fill="none" d="M32.602 184.684q.876-.283 1.13-1.159"/><path id="sis01_02_18_2ef" stroke="#373535" stroke-linejoin="bevel" fill="none" d="M33.76 181.859v1.525"/><path id="sis01_02_18_2eg" stroke="#373535" stroke-linejoin="bevel" fill="none" d="M33.76 181.859h-1.412"/><path id="sis01_02_18_2eh" stroke="#373535" stroke-linejoin="bevel" fill="none" d="M32.46 184.712h-.253"/><path id="sis01_02_18_2ei" stroke="#373535" stroke-linejoin="bevel" fill="none" d="M32.065 184.684l.142.028"/><path id="sis01_02_18_2ej" stroke="#373535" stroke-linejoin="bevel" fill="none" d="M32.46 184.712l.142-.028"/><path id="sis01_02_18_2ek" stroke="#373535" stroke-linejoin="bevel" fill="none" d="M33.732 183.525l.029-.14"/><path id="sis01_02_18_2el" stroke="#373535" stroke-linejoin="bevel" fill="none" d="M33.082 188.102l1.498-.141"/><path id="sis01_02_18_2em" stroke="#373535" stroke-linejoin="bevel" fill="none" d="M32.348 188.102h.734"/><path id="sis01_02_18_2en" stroke="#373535" stroke-linejoin="bevel" fill="none" d="M32.348 188.102h-.763"/><path id="sis01_02_18_2eo" stroke="#373535" stroke-linejoin="bevel" fill="none" d="M34.58 187.961q.226-.057.226-.254"/><path id="sis01_02_18_2ep" stroke="#373535" stroke-linejoin="bevel" fill="none" d="M33.224 189.628l2.175-.226"/><path id="sis01_02_18_2eq" stroke="#373535" stroke-linejoin="bevel" fill="none" d="M33.167 189.006l1.978-.226"/><path id="sis01_02_18_2er" stroke="#373535" stroke-linejoin="bevel" fill="none" d="M32.348 189.628h.791"/><path id="sis01_02_18_2es" stroke="#373535" stroke-linejoin="bevel" fill="none" d="M32.348 189.006h.791"/><path id="sis01_02_18_2et" stroke="#373535" stroke-linejoin="bevel" fill="none" d="M32.348 189.006h-.791"/><path id="sis01_02_18_2eu" stroke="#373535" stroke-linejoin="bevel" fill="none" d="M32.348 189.628h-.791"/><path id="sis01_02_18_2ev" stroke="#373535" stroke-linejoin="bevel" fill="none" d="M35.4 189.402q.762-.085.847-.82"/></defs><g id="fadeInUp"><g transform="matrix(1 0 0 1 11 2)"><clipPath id="sis01_02_18_2a"><path fill="#FFF" d="M-2-2h382.95v37.2H-2z"/></clipPath><text clip-path="url(#sis01_02_18_2a)" writing-mode="lr"><tspan x="11.45" y="12.65" baseline-shift="0%" font-family="Arial_Regular" font-size="14" fill="#373535">Dois novos banheiros que podem ter suas instalações de </tspan><tspan x="48.05" y="30.25" baseline-shift="0%" font-family="Arial_Regular" font-size="14" fill="#373535">esgoto separadas das instalações existentes.</tspan></text></g><use xlink:href="#sis01_02_18_2b" transform="matrix(.56502 0 0 .56502 -182.15 -64.65) matrix(1.76985 0 0 1.76985 322.35 114.4)"/><g transform="matrix(1 0 0 1 196.75 318.75)"><clipPath id="sis01_02_18_2c"><path fill="#FFF" d="M-2-2h193.25v37.2H-2z"/></clipPath><text clip-path="url(#sis01_02_18_2c)" writing-mode="lr"><tspan x="44.6" y="12.65" baseline-shift="0%" font-family="Arial_Bold" font-weight="bold" font-size="14" fill="#373535">CASA TÉRREA</tspan><tspan baseline-shift="0%" font-family="Arial_Regular" font-size="14" fill="#373535"> </tspan><tspan x="9.75" y="30.25" baseline-shift="0%" font-family="Arial_Regular" font-size="14" fill="#373535">(reformada, três banheiros)</tspan></text></g><g transform="matrix(1 0 0 1 19.3 318.75)"><clipPath id="sis01_02_18_2d"><path fill="#FFF" d="M-2-2h138.75v37.2H-2z"/></clipPath><text clip-path="url(#sis01_02_18_2d)" writing-mode="lr"><tspan x="17.1" y="12.65" baseline-shift="0%" font-family="Arial_Bold" font-weight="bold" font-size="14" fill="#373535">CASA TÉRREA</tspan><tspan x="16.75" y="30.25" baseline-shift="0%" font-family="Arial_Regular" font-size="14" fill="#373535">(único banheiro)</tspan></text></g><g><use xlink:href="#sis01_02_18_2e"/><use xlink:href="#sis01_02_18_2f"/></g><use xlink:href="#sis01_02_18_2g" transform="matrix(.56503 0 0 .56503 -169.3 -64.75) matrix(1.7698 0 0 1.7698 299.6 114.55)"/><use xlink:href="#sis01_02_18_2h" transform="matrix(.56503 0 0 .56503 -169.3 -64.75) matrix(1.7698 0 0 1.7698 299.6 114.55)"/><use xlink:href="#sis01_02_18_2i" transform="matrix(.56503 0 0 .56503 -169.3 -64.75) matrix(1.7698 0 0 1.7698 299.6 114.55)"/><use xlink:href="#sis01_02_18_2j" transform="matrix(.56503 0 0 .56503 -169.3 -64.75) matrix(1.7698 0 0 1.7698 299.6 114.55)"/><use xlink:href="#sis01_02_18_2k" transform="matrix(.56503 0 0 .56503 -169.3 -64.75) matrix(1.7698 0 0 1.7698 299.6 114.55)"/><use xlink:href="#sis01_02_18_2l" transform="matrix(.56503 0 0 .56503 -169.3 -64.75) matrix(1.7698 0 0 1.7698 299.6 114.55)"/><use xlink:href="#sis01_02_18_2m" transform="matrix(.56503 0 0 .56503 -169.3 -64.75) matrix(1.7698 0 0 1.7698 299.6 114.55)"/><use xlink:href="#sis01_02_18_2n" transform="matrix(.56503 0 0 .56503 -169.3 -64.75) matrix(1.7698 0 0 1.7698 299.6 114.55)"/><use xlink:href="#sis01_02_18_2o" transform="matrix(.56503 0 0 .56503 -169.3 -64.75) matrix(1.7698 0 0 1.7698 299.6 114.55)"/><use xlink:href="#sis01_02_18_2p" transform="matrix(.56503 0 0 .56503 -169.3 -64.75) matrix(1.7698 0 0 1.7698 299.6 114.55)"/><use xlink:href="#sis01_02_18_2q" transform="matrix(.56503 0 0 .56503 -169.3 -64.75) matrix(1.7698 0 0 1.7698 299.6 114.55)"/><use xlink:href="#sis01_02_18_2r" transform="matrix(.56503 0 0 .56503 -169.3 -64.75) matrix(1.7698 0 0 1.7698 299.6 114.55)"/><use xlink:href="#sis01_02_18_2s" transform="matrix(.56503 0 0 .56503 -169.3 -64.75) matrix(1.7698 0 0 1.7698 299.6 114.55)"/><use xlink:href="#sis01_02_18_2t" transform="matrix(.56503 0 0 .56503 -169.3 -64.75) matrix(1.7698 0 0 1.7698 299.6 114.55)"/><use xlink:href="#sis01_02_18_2u" transform="matrix(.56503 0 0 .56503 -169.3 -64.75) matrix(1.7698 0 0 1.7698 299.6 114.55)"/><use xlink:href="#sis01_02_18_2v" transform="matrix(.56503 0 0 .56503 -169.3 -64.75) matrix(1.7698 0 0 1.7698 299.6 114.55)"/><use xlink:href="#sis01_02_18_2w" transform="matrix(.56503 0 0 .56503 -169.3 -64.75) matrix(1.7698 0 0 1.7698 299.6 114.55)"/><use xlink:href="#sis01_02_18_2x" transform="matrix(.56503 0 0 .56503 -169.3 -64.75) matrix(1.7698 0 0 1.7698 299.6 114.55)"/><use xlink:href="#sis01_02_18_2y" transform="matrix(.56503 0 0 .56503 -169.3 -64.75) matrix(1.7698 0 0 1.7698 299.6 114.55)"/><use xlink:href="#sis01_02_18_2z" transform="matrix(.56503 0 0 .56503 -169.3 -64.75) matrix(1.7698 0 0 1.7698 299.6 114.55)"/><use xlink:href="#sis01_02_18_2A" transform="matrix(.56503 0 0 .56503 -169.3 -64.75) matrix(1.7698 0 0 1.7698 299.6 114.55)"/><use xlink:href="#sis01_02_18_2B" transform="matrix(.56503 0 0 .56503 -169.3 -64.75) matrix(1.7698 0 0 1.7698 299.6 114.55)"/><use xlink:href="#sis01_02_18_2C" transform="matrix(.56503 0 0 .56503 -169.3 -64.75) matrix(1.7698 0 0 1.7698 299.6 114.55)"/><use xlink:href="#sis01_02_18_2D" transform="matrix(.56503 0 0 .56503 -169.3 -64.75) matrix(1.7698 0 0 1.7698 299.6 114.55)"/><use xlink:href="#sis01_02_18_2E" transform="matrix(.56503 0 0 .56503 -169.3 -64.75) matrix(1.7698 0 0 1.7698 299.6 114.55)"/><use xlink:href="#sis01_02_18_2F" transform="matrix(.56503 0 0 .56503 -169.3 -64.75) matrix(1.7698 0 0 1.7698 299.6 114.55)"/><use xlink:href="#sis01_02_18_2G" transform="matrix(.56503 0 0 .56503 -169.3 -64.75) matrix(1.7698 0 0 1.7698 299.6 114.55)"/><use xlink:href="#sis01_02_18_2H" transform="matrix(.56503 0 0 .56503 -169.3 -64.75) matrix(1.7698 0 0 1.7698 299.6 114.55)"/><use xlink:href="#sis01_02_18_2I" transform="matrix(.56503 0 0 .56503 -169.3 -64.75) matrix(1.7698 0 0 1.7698 299.6 114.55)"/><use xlink:href="#sis01_02_18_2J" transform="matrix(.56503 0 0 .56503 -169.3 -64.75) matrix(1.7698 0 0 1.7698 299.6 114.55)"/><use xlink:href="#sis01_02_18_2K" transform="matrix(.56503 0 0 .56503 -169.3 -64.75) matrix(1.7698 0 0 1.7698 299.6 114.55)"/><use xlink:href="#sis01_02_18_2L" transform="matrix(.56503 0 0 .56503 -169.3 -64.75) matrix(1.7698 0 0 1.7698 299.6 114.55)"/><use xlink:href="#sis01_02_18_2M" transform="matrix(.56503 0 0 .56503 -169.3 -64.75) matrix(1.7698 0 0 1.7698 299.6 114.55)"/><use xlink:href="#sis01_02_18_2N" transform="matrix(.56503 0 0 .56503 -169.3 -64.75) matrix(1.7698 0 0 1.7698 299.6 114.55)"/><use xlink:href="#sis01_02_18_2O" transform="matrix(.56503 0 0 .56503 -169.3 -64.75) matrix(1.7698 0 0 1.7698 299.6 114.55)"/><use xlink:href="#sis01_02_18_2P" transform="matrix(.56503 0 0 .56503 -169.3 -64.75) matrix(1.7698 0 0 1.7698 299.6 114.55)"/><use xlink:href="#sis01_02_18_2Q" transform="matrix(.56503 0 0 .56503 -169.3 -64.75) matrix(1.7698 0 0 1.7698 299.6 114.55)"/><use xlink:href="#sis01_02_18_2R" transform="matrix(.56503 0 0 .56503 -169.3 -64.75) matrix(1.7698 0 0 1.7698 299.6 114.55)"/><use xlink:href="#sis01_02_18_2S" transform="matrix(.56503 0 0 .56503 -169.3 -64.75) matrix(1.7698 0 0 1.7698 299.6 114.55)"/><use xlink:href="#sis01_02_18_2T" transform="matrix(.56503 0 0 .56503 -169.3 -64.75) matrix(1.7698 0 0 1.7698 299.6 114.55)"/><use xlink:href="#sis01_02_18_2U" transform="matrix(.56503 0 0 .56503 -169.3 -64.75) matrix(1.7698 0 0 1.7698 299.6 114.55)"/><use xlink:href="#sis01_02_18_2V" transform="matrix(.56503 0 0 .56503 -169.3 -64.75) matrix(1.7698 0 0 1.7698 299.6 114.55)"/><use xlink:href="#sis01_02_18_2W" transform="matrix(.56503 0 0 .56503 -169.3 -64.75) matrix(1.7698 0 0 1.7698 299.6 114.55)"/><use xlink:href="#sis01_02_18_2X" transform="matrix(.56503 0 0 .56503 -169.3 -64.75) matrix(1.7698 0 0 1.7698 299.6 114.55)"/><use xlink:href="#sis01_02_18_2Y" transform="matrix(.56503 0 0 .56503 -169.3 -64.75) matrix(1.7698 0 0 1.7698 299.6 114.55)"/><use xlink:href="#sis01_02_18_2Z" transform="matrix(.56503 0 0 .56503 -169.3 -64.75) matrix(1.7698 0 0 1.7698 299.6 114.55)"/><use xlink:href="#sis01_02_18_2aa" transform="matrix(.56503 0 0 .56503 -169.3 -64.75) matrix(1.7698 0 0 1.7698 299.6 114.55)"/><use xlink:href="#sis01_02_18_2ab" transform="matrix(.56503 0 0 .56503 -169.3 -64.75) matrix(1.7698 0 0 1.7698 299.6 114.55)"/><use xlink:href="#sis01_02_18_2ac" transform="matrix(.56503 0 0 .56503 -169.3 -64.75) matrix(1.7698 0 0 1.7698 299.6 114.55)"/><use xlink:href="#sis01_02_18_2ad" transform="matrix(.56503 0 0 .56503 -169.3 -64.75) matrix(1.7698 0 0 1.7698 299.6 114.55)"/><use xlink:href="#sis01_02_18_2ae" transform="matrix(.56503 0 0 .56503 -169.3 -64.75) matrix(1.7698 0 0 1.7698 299.6 114.55)"/><use xlink:href="#sis01_02_18_2af" transform="matrix(.56503 0 0 .56503 -169.3 -64.75) matrix(1.7698 0 0 1.7698 299.6 114.55)"/><use xlink:href="#sis01_02_18_2ag" transform="matrix(.56503 0 0 .56503 -169.3 -64.75) matrix(1.7698 0 0 1.7698 299.6 114.55)"/><use xlink:href="#sis01_02_18_2ah" transform="matrix(.56503 0 0 .56503 -169.3 -64.75) matrix(1.7698 0 0 1.7698 299.6 114.55)"/><use xlink:href="#sis01_02_18_2ai" transform="matrix(.56503 0 0 .56503 -169.3 -64.75) matrix(1.7698 0 0 1.7698 299.6 114.55)"/><use xlink:href="#sis01_02_18_2aj" transform="matrix(.56503 0 0 .56503 -169.3 -64.75) matrix(1.7698 0 0 1.7698 299.6 114.55)"/><use xlink:href="#sis01_02_18_2ak" transform="matrix(.56503 0 0 .56503 -169.3 -64.75) matrix(1.7698 0 0 1.7698 299.6 114.55)"/><use xlink:href="#sis01_02_18_2al" transform="matrix(.56503 0 0 .56503 -169.3 -64.75) matrix(1.7698 0 0 1.7698 299.6 114.55)"/><use xlink:href="#sis01_02_18_2am" transform="matrix(.56503 0 0 .56503 -169.3 -64.75) matrix(1.7698 0 0 1.7698 299.6 114.55)"/><use xlink:href="#sis01_02_18_2an" transform="matrix(.56503 0 0 .56503 -169.3 -64.75) matrix(1.7698 0 0 1.7698 299.6 114.55)"/><use xlink:href="#sis01_02_18_2ao" transform="matrix(.56503 0 0 .56503 -169.3 -64.75) matrix(1.7698 0 0 1.7698 299.6 114.55)"/><use xlink:href="#sis01_02_18_2ap" transform="matrix(.56503 0 0 .56503 -169.3 -64.75) matrix(1.7698 0 0 1.7698 299.6 114.55)"/><use xlink:href="#sis01_02_18_2aq" transform="matrix(.56503 0 0 .56503 -169.3 -64.75) matrix(1.7698 0 0 1.7698 299.6 114.55)"/><use xlink:href="#sis01_02_18_2ar" transform="matrix(.56503 0 0 .56503 -169.3 -64.75) matrix(1.7698 0 0 1.7698 299.6 114.55)"/><use xlink:href="#sis01_02_18_2as" transform="matrix(.56503 0 0 .56503 -169.3 -64.75) matrix(1.7698 0 0 1.7698 299.6 114.55)"/><use xlink:href="#sis01_02_18_2at" transform="matrix(.56503 0 0 .56503 -169.3 -64.75) matrix(1.7698 0 0 1.7698 299.6 114.55)"/><use xlink:href="#sis01_02_18_2au" transform="matrix(.56503 0 0 .56503 -169.3 -64.75) matrix(1.7698 0 0 1.7698 299.6 114.55)"/><use xlink:href="#sis01_02_18_2av" transform="matrix(.56503 0 0 .56503 -169.3 -64.75) matrix(1.7698 0 0 1.7698 299.6 114.55)"/><use xlink:href="#sis01_02_18_2aw" transform="matrix(.56503 0 0 .56503 -169.3 -64.75) matrix(1.7698 0 0 1.7698 299.6 114.55)"/><use xlink:href="#sis01_02_18_2ax" transform="matrix(.56503 0 0 .56503 -169.3 -64.75) matrix(1.7698 0 0 1.7698 299.6 114.55)"/><use xlink:href="#sis01_02_18_2ay" transform="matrix(.56503 0 0 .56503 -169.3 -64.75) matrix(1.7698 0 0 1.7698 299.6 114.55)"/><use xlink:href="#sis01_02_18_2az" transform="matrix(.56503 0 0 .56503 -169.3 -64.75) matrix(1.7698 0 0 1.7698 299.6 114.55)"/><use xlink:href="#sis01_02_18_2aA" transform="matrix(.56503 0 0 .56503 -169.3 -64.75) matrix(1.7698 0 0 1.7698 299.6 114.55)"/><use xlink:href="#sis01_02_18_2aB" transform="matrix(.56503 0 0 .56503 -169.3 -64.75) matrix(1.7698 0 0 1.7698 299.6 114.55)"/><use xlink:href="#sis01_02_18_2aC" transform="matrix(.56503 0 0 .56503 -169.3 -64.75) matrix(1.7698 0 0 1.7698 299.6 114.55)"/><use xlink:href="#sis01_02_18_2aD" transform="matrix(.56503 0 0 .56503 -169.3 -64.75) matrix(1.7698 0 0 1.7698 299.6 114.55)"/><use xlink:href="#sis01_02_18_2aE" transform="matrix(.56503 0 0 .56503 -169.3 -64.75) matrix(1.7698 0 0 1.7698 299.6 114.55)"/><use xlink:href="#sis01_02_18_2aF" transform="matrix(.56503 0 0 .56503 -169.3 -64.75) matrix(1.7698 0 0 1.7698 299.6 114.55)"/><use xlink:href="#sis01_02_18_2aG" transform="matrix(.56503 0 0 .56503 -169.3 -64.75) matrix(1.7698 0 0 1.7698 299.6 114.55)"/><use xlink:href="#sis01_02_18_2aH" transform="matrix(.56503 0 0 .56503 -169.3 -64.75) matrix(1.7698 0 0 1.7698 299.6 114.55)"/><use xlink:href="#sis01_02_18_2aI" transform="matrix(.56503 0 0 .56503 -169.3 -64.75) matrix(1.7698 0 0 1.7698 299.6 114.55)"/><use xlink:href="#sis01_02_18_2aJ" transform="matrix(.56503 0 0 .56503 -169.3 -64.75) matrix(1.7698 0 0 1.7698 299.6 114.55)"/><use xlink:href="#sis01_02_18_2aK" transform="matrix(.56503 0 0 .56503 -169.3 -64.75) matrix(1.7698 0 0 1.7698 299.6 114.55)"/><use xlink:href="#sis01_02_18_2aL" transform="matrix(.56503 0 0 .56503 -169.3 -64.75) matrix(1.7698 0 0 1.7698 299.6 114.55)"/><use xlink:href="#sis01_02_18_2aM" transform="matrix(.56503 0 0 .56503 -169.3 -64.75) matrix(1.7698 0 0 1.7698 299.6 114.55)"/><use xlink:href="#sis01_02_18_2aN" transform="matrix(.56503 0 0 .56503 -169.3 -64.75) matrix(1.7698 0 0 1.7698 299.6 114.55)"/><use xlink:href="#sis01_02_18_2aO" transform="matrix(.56503 0 0 .56503 -169.3 -64.75) matrix(1.7698 0 0 1.7698 299.6 114.55)"/><use xlink:href="#sis01_02_18_2aP" transform="matrix(.56503 0 0 .56503 -169.3 -64.75) matrix(1.7698 0 0 1.7698 299.6 114.55)"/><use xlink:href="#sis01_02_18_2aQ" transform="matrix(.56503 0 0 .56503 -169.3 -64.75) matrix(1.7698 0 0 1.7698 299.6 114.55)"/><use xlink:href="#sis01_02_18_2aR" transform="matrix(.56503 0 0 .56503 -169.3 -64.75) matrix(1.7698 0 0 1.7698 299.6 114.55)"/><use xlink:href="#sis01_02_18_2aS" transform="matrix(.56503 0 0 .56503 -169.3 -64.75) matrix(1.7698 0 0 1.7698 299.6 114.55)"/><use xlink:href="#sis01_02_18_2aT" transform="matrix(.56503 0 0 .56503 -169.3 -64.75) matrix(1.7698 0 0 1.7698 299.6 114.55)"/><use xlink:href="#sis01_02_18_2aU" transform="matrix(.56503 0 0 .56503 -169.3 -64.75) matrix(1.7698 0 0 1.7698 299.6 114.55)"/><use xlink:href="#sis01_02_18_2aV" transform="matrix(.56503 0 0 .56503 -169.3 -64.75) matrix(1.7698 0 0 1.7698 299.6 114.55)"/><use xlink:href="#sis01_02_18_2aW" transform="matrix(.56503 0 0 .56503 -169.3 -64.75) matrix(1.7698 0 0 1.7698 299.6 114.55)"/><use xlink:href="#sis01_02_18_2aX" transform="matrix(.56503 0 0 .56503 -169.3 -64.75) matrix(1.7698 0 0 1.7698 299.6 114.55)"/><use xlink:href="#sis01_02_18_2aY" transform="matrix(.56503 0 0 .56503 -169.3 -64.75) matrix(1.7698 0 0 1.7698 299.6 114.55)"/><use xlink:href="#sis01_02_18_2aZ" transform="matrix(.56503 0 0 .56503 -169.3 -64.75) matrix(1.7698 0 0 1.7698 299.6 114.55)"/><use xlink:href="#sis01_02_18_2ba" transform="matrix(.56503 0 0 .56503 -169.3 -64.75) matrix(1.7698 0 0 1.7698 299.6 114.55)"/><use xlink:href="#sis01_02_18_2bb" transform="matrix(.56503 0 0 .56503 -169.3 -64.75) matrix(1.7698 0 0 1.7698 299.6 114.55)"/><use xlink:href="#sis01_02_18_2bc" transform="matrix(.56503 0 0 .56503 -169.3 -64.75) matrix(1.7698 0 0 1.7698 299.6 114.55)"/><use xlink:href="#sis01_02_18_2bd" transform="matrix(.56503 0 0 .56503 -169.3 -64.75) matrix(1.7698 0 0 1.7698 299.6 114.55)"/><use xlink:href="#sis01_02_18_2be" transform="matrix(.56503 0 0 .56503 -169.3 -64.75) matrix(1.7698 0 0 1.7698 299.6 114.55)"/><use xlink:href="#sis01_02_18_2bf" transform="matrix(.56503 0 0 .56503 -169.3 -64.75) matrix(1.7698 0 0 1.7698 299.6 114.55)"/><use xlink:href="#sis01_02_18_2bg" transform="matrix(.56503 0 0 .56503 -169.3 -64.75) matrix(1.7698 0 0 1.7698 299.6 114.55)"/><use xlink:href="#sis01_02_18_2bh" transform="matrix(.56503 0 0 .56503 -169.3 -64.75) matrix(1.7698 0 0 1.7698 299.6 114.55)"/><use xlink:href="#sis01_02_18_2bi" transform="matrix(.56503 0 0 .56503 -169.3 -64.75) matrix(1.7698 0 0 1.7698 299.6 114.55)"/><use xlink:href="#sis01_02_18_2bj" transform="matrix(.56503 0 0 .56503 -169.3 -64.75) matrix(1.7698 0 0 1.7698 299.6 114.55)"/><use xlink:href="#sis01_02_18_2bk" transform="matrix(.56503 0 0 .56503 -169.3 -64.75) matrix(1.7698 0 0 1.7698 299.6 114.55)"/><use xlink:href="#sis01_02_18_2bl" transform="matrix(.56503 0 0 .56503 -169.3 -64.75) matrix(1.7698 0 0 1.7698 299.6 114.55)"/><use xlink:href="#sis01_02_18_2bm" transform="matrix(.56503 0 0 .56503 -169.3 -64.75) matrix(1.7698 0 0 1.7698 299.6 114.55)"/><use xlink:href="#sis01_02_18_2bn" transform="matrix(.56503 0 0 .56503 -169.3 -64.75) matrix(1.7698 0 0 1.7698 299.6 114.55)"/><use xlink:href="#sis01_02_18_2bo" transform="matrix(.56503 0 0 .56503 -169.3 -64.75) matrix(1.7698 0 0 1.7698 299.6 114.55)"/><use xlink:href="#sis01_02_18_2bp" transform="matrix(.56503 0 0 .56503 -169.3 -64.75) matrix(1.7698 0 0 1.7698 299.6 114.55)"/><use xlink:href="#sis01_02_18_2bq" transform="matrix(.56503 0 0 .56503 -169.3 -64.75) matrix(1.7698 0 0 1.7698 299.6 114.55)"/><use xlink:href="#sis01_02_18_2br" transform="matrix(.56503 0 0 .56503 -169.3 -64.75) matrix(1.7698 0 0 1.7698 299.6 114.55)"/><use xlink:href="#sis01_02_18_2bs" transform="matrix(.56503 0 0 .56503 -169.3 -64.75) matrix(1.7698 0 0 1.7698 299.6 114.55)"/><use xlink:href="#sis01_02_18_2bt" transform="matrix(.56503 0 0 .56503 -169.3 -64.75) matrix(1.7698 0 0 1.7698 299.6 114.55)"/><use xlink:href="#sis01_02_18_2bu" transform="matrix(.56503 0 0 .56503 -169.3 -64.75) matrix(1.7698 0 0 1.7698 299.6 114.55)"/><use xlink:href="#sis01_02_18_2bv" transform="matrix(.56503 0 0 .56503 -169.3 -64.75) matrix(1.7698 0 0 1.7698 299.6 114.55)"/><use xlink:href="#sis01_02_18_2bw" transform="matrix(.56503 0 0 .56503 -169.3 -64.75) matrix(1.7698 0 0 1.7698 299.6 114.55)"/><use xlink:href="#sis01_02_18_2bx" transform="matrix(.56503 0 0 .56503 -169.3 -64.75) matrix(1.7698 0 0 1.7698 299.6 114.55)"/><use xlink:href="#sis01_02_18_2by" transform="matrix(.56503 0 0 .56503 -169.3 -64.75) matrix(1.7698 0 0 1.7698 299.6 114.55)"/><use xlink:href="#sis01_02_18_2bz" transform="matrix(.56503 0 0 .56503 -169.3 -64.75) matrix(1.7698 0 0 1.7698 299.6 114.55)"/><use xlink:href="#sis01_02_18_2bA" transform="matrix(.56503 0 0 .56503 -169.3 -64.75) matrix(1.7698 0 0 1.7698 299.6 114.55)"/><use xlink:href="#sis01_02_18_2bB" transform="matrix(.56503 0 0 .56503 -169.3 -64.75) matrix(1.7698 0 0 1.7698 299.6 114.55)"/><use xlink:href="#sis01_02_18_2bC" transform="matrix(.56503 0 0 .56503 -169.3 -64.75) matrix(1.7698 0 0 1.7698 299.6 114.55)"/><use xlink:href="#sis01_02_18_2bD" transform="matrix(.56503 0 0 .56503 -169.3 -64.75) matrix(1.7698 0 0 1.7698 299.6 114.55)"/><use xlink:href="#sis01_02_18_2bE" transform="matrix(.56503 0 0 .56503 -169.3 -64.75) matrix(1.7698 0 0 1.7698 299.6 114.55)"/><use xlink:href="#sis01_02_18_2bF" transform="matrix(.56503 0 0 .56503 -169.3 -64.75) matrix(1.7698 0 0 1.7698 299.6 114.55)"/><use xlink:href="#sis01_02_18_2bG" transform="matrix(.56503 0 0 .56503 -169.3 -64.75) matrix(1.7698 0 0 1.7698 299.6 114.55)"/><use xlink:href="#sis01_02_18_2bH" transform="matrix(.56503 0 0 .56503 -169.3 -64.75) matrix(1.7698 0 0 1.7698 299.6 114.55)"/><use xlink:href="#sis01_02_18_2bI" transform="matrix(.56503 0 0 .56503 -169.3 -64.75) matrix(1.7698 0 0 1.7698 299.6 114.55)"/><use xlink:href="#sis01_02_18_2bJ" transform="matrix(.56503 0 0 .56503 -169.3 -64.75) matrix(1.7698 0 0 1.7698 299.6 114.55)"/><use xlink:href="#sis01_02_18_2bK" transform="matrix(.56503 0 0 .56503 -169.3 -64.75) matrix(1.7698 0 0 1.7698 299.6 114.55)"/><use xlink:href="#sis01_02_18_2bL" transform="matrix(.56503 0 0 .56503 -169.3 -64.75) matrix(1.7698 0 0 1.7698 299.6 114.55)"/><use xlink:href="#sis01_02_18_2bM" transform="matrix(.56503 0 0 .56503 -169.3 -64.75) matrix(1.7698 0 0 1.7698 299.6 114.55)"/><use xlink:href="#sis01_02_18_2bN" transform="matrix(.56503 0 0 .56503 -169.3 -64.75) matrix(1.7698 0 0 1.7698 299.6 114.55)"/><use xlink:href="#sis01_02_18_2bO" transform="matrix(.56503 0 0 .56503 -169.3 -64.75) matrix(1.7698 0 0 1.7698 299.6 114.55)"/><use xlink:href="#sis01_02_18_2bP" transform="matrix(.56503 0 0 .56503 -169.3 -64.75) matrix(1.7698 0 0 1.7698 299.6 114.55)"/><use xlink:href="#sis01_02_18_2bQ" transform="matrix(.56503 0 0 .56503 -169.3 -64.75) matrix(1.7698 0 0 1.7698 299.6 114.55)"/><use xlink:href="#sis01_02_18_2bR" transform="matrix(.56503 0 0 .56503 -169.3 -64.75) matrix(1.7698 0 0 1.7698 299.6 114.55)"/><use xlink:href="#sis01_02_18_2bS" transform="matrix(.56503 0 0 .56503 -169.3 -64.75) matrix(1.7698 0 0 1.7698 299.6 114.55)"/><use xlink:href="#sis01_02_18_2bT" transform="matrix(.56503 0 0 .56503 -169.3 -64.75) matrix(1.7698 0 0 1.7698 299.6 114.55)"/><use xlink:href="#sis01_02_18_2bU" transform="matrix(.56503 0 0 .56503 -169.3 -64.75) matrix(1.7698 0 0 1.7698 299.6 114.55)"/><use xlink:href="#sis01_02_18_2bV" transform="matrix(.56503 0 0 .56503 -169.3 -64.75) matrix(1.7698 0 0 1.7698 299.6 114.55)"/><use xlink:href="#sis01_02_18_2bW" transform="matrix(.56503 0 0 .56503 -169.3 -64.75) matrix(1.7698 0 0 1.7698 299.6 114.55)"/><use xlink:href="#sis01_02_18_2bX" transform="matrix(.56503 0 0 .56503 -169.3 -64.75) matrix(1.7698 0 0 1.7698 299.6 114.55)"/><use xlink:href="#sis01_02_18_2bY" transform="matrix(.56503 0 0 .56503 -169.3 -64.75) matrix(1.7698 0 0 1.7698 299.6 114.55)"/><use xlink:href="#sis01_02_18_2bZ" transform="matrix(.56503 0 0 .56503 -169.3 -64.75) matrix(1.7698 0 0 1.7698 299.6 114.55)"/><use xlink:href="#sis01_02_18_2ca" transform="matrix(.56503 0 0 .56503 -169.3 -64.75) matrix(1.7698 0 0 1.7698 299.6 114.55)"/><use xlink:href="#sis01_02_18_2cb" transform="matrix(.56503 0 0 .56503 -169.3 -64.75) matrix(1.7698 0 0 1.7698 299.6 114.55)"/><use xlink:href="#sis01_02_18_2cc" transform="matrix(.56503 0 0 .56503 -169.3 -64.75) matrix(1.7698 0 0 1.7698 299.6 114.55)"/><use xlink:href="#sis01_02_18_2cd" transform="matrix(.56503 0 0 .56503 -169.3 -64.75) matrix(1.7698 0 0 1.7698 299.6 114.55)"/><use xlink:href="#sis01_02_18_2ce" transform="matrix(.56503 0 0 .56503 -169.3 -64.75) matrix(1.7698 0 0 1.7698 299.6 114.55)"/><use xlink:href="#sis01_02_18_2cf" transform="matrix(.56503 0 0 .56503 -169.3 -64.75) matrix(1.7698 0 0 1.7698 299.6 114.55)"/><use xlink:href="#sis01_02_18_2cg" transform="matrix(.56503 0 0 .56503 -169.3 -64.75) matrix(1.7698 0 0 1.7698 299.6 114.55)"/><use xlink:href="#sis01_02_18_2ch" transform="matrix(.56503 0 0 .56503 -169.3 -64.75) matrix(1.7698 0 0 1.7698 299.6 114.55)"/><use xlink:href="#sis01_02_18_2ci" transform="matrix(.56503 0 0 .56503 -169.3 -64.75) matrix(1.7698 0 0 1.7698 299.6 114.55)"/><use xlink:href="#sis01_02_18_2cj" transform="matrix(.56503 0 0 .56503 -169.3 -64.75) matrix(1.7698 0 0 1.7698 299.6 114.55)"/><use xlink:href="#sis01_02_18_2ck" transform="matrix(.56503 0 0 .56503 -169.3 -64.75) matrix(1.7698 0 0 1.7698 299.6 114.55)"/><use xlink:href="#sis01_02_18_2cl" transform="matrix(.56503 0 0 .56503 -169.3 -64.75) matrix(1.7698 0 0 1.7698 299.6 114.55)"/><use xlink:href="#sis01_02_18_2cm" transform="matrix(.56503 0 0 .56503 -169.3 -64.75) matrix(1.7698 0 0 1.7698 299.6 114.55)"/><use xlink:href="#sis01_02_18_2cn" transform="matrix(.56503 0 0 .56503 -169.3 -64.75) matrix(1.7698 0 0 1.7698 299.6 114.55)"/><use xlink:href="#sis01_02_18_2co" transform="matrix(.56503 0 0 .56503 -169.3 -64.75) matrix(1.7698 0 0 1.7698 299.6 114.55)"/><use xlink:href="#sis01_02_18_2cp" transform="matrix(.56503 0 0 .56503 -169.3 -64.75) matrix(1.7698 0 0 1.7698 299.6 114.55)"/><use xlink:href="#sis01_02_18_2cq" transform="matrix(.56503 0 0 .56503 -169.3 -64.75) matrix(1.7698 0 0 1.7698 299.6 114.55)"/><use xlink:href="#sis01_02_18_2cr" transform="matrix(.56503 0 0 .56503 -169.3 -64.75) matrix(1.7698 0 0 1.7698 299.6 114.55)"/><use xlink:href="#sis01_02_18_2cs" transform="matrix(.56503 0 0 .56503 -169.3 -64.75) matrix(1.7698 0 0 1.7698 299.6 114.55)"/><use xlink:href="#sis01_02_18_2ct" transform="matrix(.56503 0 0 .56503 -169.3 -64.75) matrix(1.7698 0 0 1.7698 299.6 114.55)"/><use xlink:href="#sis01_02_18_2cu" transform="matrix(.56503 0 0 .56503 -169.3 -64.75) matrix(1.7698 0 0 1.7698 299.6 114.55)"/><use xlink:href="#sis01_02_18_2cv" transform="matrix(.56503 0 0 .56503 -169.3 -64.75) matrix(1.7698 0 0 1.7698 299.6 114.55)"/><use xlink:href="#sis01_02_18_2cw" transform="matrix(.56503 0 0 .56503 -169.3 -64.75) matrix(1.7698 0 0 1.7698 299.6 114.55)"/><use xlink:href="#sis01_02_18_2cx" transform="matrix(.56503 0 0 .56503 -169.3 -64.75) matrix(1.7698 0 0 1.7698 299.6 114.55)"/><use xlink:href="#sis01_02_18_2cy" transform="matrix(.56503 0 0 .56503 -169.3 -64.75) matrix(1.7698 0 0 1.7698 299.6 114.55)"/><use xlink:href="#sis01_02_18_2cz" transform="matrix(.56503 0 0 .56503 -169.3 -64.75) matrix(1.7698 0 0 1.7698 299.6 114.55)"/><use xlink:href="#sis01_02_18_2cA" transform="matrix(.56503 0 0 .56503 -169.3 -64.75) matrix(1.7698 0 0 1.7698 299.6 114.55)"/><use xlink:href="#sis01_02_18_2cB" transform="matrix(.56503 0 0 .56503 -169.3 -64.75) matrix(1.7698 0 0 1.7698 299.6 114.55)"/><use xlink:href="#sis01_02_18_2cC" transform="matrix(.56503 0 0 .56503 -169.3 -64.75) matrix(1.7698 0 0 1.7698 299.6 114.55)"/><use xlink:href="#sis01_02_18_2cD" transform="matrix(.56503 0 0 .56503 -169.3 -64.75) matrix(1.7698 0 0 1.7698 299.6 114.55)"/><use xlink:href="#sis01_02_18_2cE" transform="matrix(.56503 0 0 .56503 -169.3 -64.75) matrix(1.7698 0 0 1.7698 299.6 114.55)"/><use xlink:href="#sis01_02_18_2cF" transform="matrix(.56503 0 0 .56503 -169.3 -64.75) matrix(1.7698 0 0 1.7698 299.6 114.55)"/><use xlink:href="#sis01_02_18_2cG" transform="matrix(.56503 0 0 .56503 -169.3 -64.75) matrix(1.7698 0 0 1.7698 299.6 114.55)"/><use xlink:href="#sis01_02_18_2cH" transform="matrix(.56503 0 0 .56503 -49.1 5.9)"/><use xlink:href="#sis01_02_18_2cI" transform="matrix(.56503 0 0 .56503 -49.1 5.9)"/><use xlink:href="#sis01_02_18_2cJ" transform="matrix(.56503 0 0 .56503 -49.1 5.9)"/><use xlink:href="#sis01_02_18_2cK" transform="matrix(.56503 0 0 .56503 -49.1 5.9)"/><use xlink:href="#sis01_02_18_2cL" transform="matrix(.56503 0 0 .56503 -49.1 5.9)"/><use xlink:href="#sis01_02_18_2cM" transform="matrix(.56503 0 0 .56503 -49.1 5.9)"/><use xlink:href="#sis01_02_18_2cN" transform="matrix(.56503 0 0 .56503 -49.1 5.9)"/><use xlink:href="#sis01_02_18_2cO" transform="matrix(.56503 0 0 .56503 -49.1 5.9)"/><use xlink:href="#sis01_02_18_2cP" transform="matrix(.56503 0 0 .56503 -49.1 5.9)"/><use xlink:href="#sis01_02_18_2cQ" transform="matrix(.56503 0 0 .56503 -49.1 5.9)"/><use xlink:href="#sis01_02_18_2cR" transform="matrix(.56503 0 0 .56503 -49.1 5.9)"/><use xlink:href="#sis01_02_18_2cS" transform="matrix(.56503 0 0 .56503 -49.1 5.9)"/><use xlink:href="#sis01_02_18_2cT" transform="matrix(.56503 0 0 .56503 -49.1 5.9)"/><use xlink:href="#sis01_02_18_2cU" transform="matrix(.56503 0 0 .56503 -49.1 5.9)"/><use xlink:href="#sis01_02_18_2cV" transform="matrix(.56503 0 0 .56503 -49.1 5.9)"/><use xlink:href="#sis01_02_18_2cW" transform="matrix(.56503 0 0 .56503 -49.1 5.9)"/><use xlink:href="#sis01_02_18_2cX" transform="matrix(.56503 0 0 .56503 -49.1 5.9)"/><use xlink:href="#sis01_02_18_2cY" transform="matrix(.56503 0 0 .56503 -49.1 5.9)"/><use xlink:href="#sis01_02_18_2cZ" transform="matrix(.56503 0 0 .56503 -49.1 5.9)"/><use xlink:href="#sis01_02_18_2da" transform="matrix(.56503 0 0 .56503 -49.1 5.9)"/><use xlink:href="#sis01_02_18_2db" transform="matrix(.56503 0 0 .56503 -49.1 5.9)"/><use xlink:href="#sis01_02_18_2dc" transform="matrix(.56503 0 0 .56503 -49.1 5.9)"/><use xlink:href="#sis01_02_18_2dd" transform="matrix(.56503 0 0 .56503 -49.1 5.9)"/><use xlink:href="#sis01_02_18_2de" transform="matrix(.56503 0 0 .56503 -49.1 5.9)"/><use xlink:href="#sis01_02_18_2df" transform="matrix(.56503 0 0 .56503 -49.1 5.9)"/><use xlink:href="#sis01_02_18_2dg" transform="matrix(.56503 0 0 .56503 -49.1 5.9)"/><use xlink:href="#sis01_02_18_2dh" transform="matrix(.56503 0 0 .56503 -49.1 5.9)"/><use xlink:href="#sis01_02_18_2di" transform="matrix(.56503 0 0 .56503 -49.1 5.9)"/><use xlink:href="#sis01_02_18_2dj" transform="matrix(.56503 0 0 .56503 -49.1 5.9)"/><use xlink:href="#sis01_02_18_2dk" transform="matrix(.56503 0 0 .56503 -49.1 5.9)"/><g><use xlink:href="#sis01_02_18_2dl"/><use xlink:href="#sis01_02_18_2dm"/></g><use xlink:href="#sis01_02_18_2dn" transform="matrix(.56503 0 0 .56503 -120.55 -64.75) matrix(1.7698 0 0 1.7698 213.35 114.55)"/><use xlink:href="#sis01_02_18_2do" transform="matrix(.56503 0 0 .56503 -120.55 -64.75) matrix(1.7698 0 0 1.7698 213.35 114.55)"/><use xlink:href="#sis01_02_18_2dp" transform="matrix(.56503 0 0 .56503 -120.55 -64.75) matrix(1.7698 0 0 1.7698 213.35 114.55)"/><use xlink:href="#sis01_02_18_2dq" transform="matrix(.56503 0 0 .56503 -120.55 -64.75) matrix(1.7698 0 0 1.7698 213.35 114.55)"/><use xlink:href="#sis01_02_18_2dr" transform="matrix(.56503 0 0 .56503 -120.55 -64.75) matrix(1.7698 0 0 1.7698 213.35 114.55)"/><use xlink:href="#sis01_02_18_2ds" transform="matrix(.56503 0 0 .56503 -120.55 -64.75) matrix(1.7698 0 0 1.7698 213.35 114.55)"/><use xlink:href="#sis01_02_18_2dt" transform="matrix(.56503 0 0 .56503 -120.55 -64.75) matrix(1.7698 0 0 1.7698 213.35 114.55)"/><use xlink:href="#sis01_02_18_2du" transform="matrix(.56503 0 0 .56503 -120.55 -64.75) matrix(1.7698 0 0 1.7698 213.35 114.55)"/><use xlink:href="#sis01_02_18_2dv" transform="matrix(.56503 0 0 .56503 -120.55 -64.75) matrix(1.7698 0 0 1.7698 213.35 114.55)"/><use xlink:href="#sis01_02_18_2dw" transform="matrix(.56503 0 0 .56503 -120.55 -64.75) matrix(1.7698 0 0 1.7698 213.35 114.55)"/><use xlink:href="#sis01_02_18_2dx" transform="matrix(.56503 0 0 .56503 -120.55 -64.75) matrix(1.7698 0 0 1.7698 213.35 114.55)"/><use xlink:href="#sis01_02_18_2dy" transform="matrix(.56503 0 0 .56503 -120.55 -64.75) matrix(1.7698 0 0 1.7698 213.35 114.55)"/><use xlink:href="#sis01_02_18_2dz" transform="matrix(.56503 0 0 .56503 -120.55 -64.75) matrix(1.7698 0 0 1.7698 213.35 114.55)"/><use xlink:href="#sis01_02_18_2dA" transform="matrix(.56503 0 0 .56503 -120.55 -64.75) matrix(1.7698 0 0 1.7698 213.35 114.55)"/><use xlink:href="#sis01_02_18_2dB" transform="matrix(.56503 0 0 .56503 -120.55 -64.75) matrix(1.7698 0 0 1.7698 213.35 114.55)"/><use xlink:href="#sis01_02_18_2dC" transform="matrix(.56503 0 0 .56503 -120.55 -64.75) matrix(1.7698 0 0 1.7698 213.35 114.55)"/><use xlink:href="#sis01_02_18_2dD" transform="matrix(.56503 0 0 .56503 -120.55 -64.75) matrix(1.7698 0 0 1.7698 213.35 114.55)"/><use xlink:href="#sis01_02_18_2dE" transform="matrix(.56503 0 0 .56503 -120.55 -64.75) matrix(1.7698 0 0 1.7698 213.35 114.55)"/><use xlink:href="#sis01_02_18_2dF" transform="matrix(.56503 0 0 .56503 -120.55 -64.75) matrix(1.7698 0 0 1.7698 213.35 114.55)"/><use xlink:href="#sis01_02_18_2dG" transform="matrix(.56503 0 0 .56503 -120.55 -64.75) matrix(1.7698 0 0 1.7698 213.35 114.55)"/><use xlink:href="#sis01_02_18_2dH" transform="matrix(.56503 0 0 .56503 -120.55 -64.75) matrix(1.7698 0 0 1.7698 213.35 114.55)"/><use xlink:href="#sis01_02_18_2dI" transform="matrix(.56503 0 0 .56503 -120.55 -64.75) matrix(1.7698 0 0 1.7698 213.35 114.55)"/><use xlink:href="#sis01_02_18_2dJ" transform="matrix(.56503 0 0 .56503 -120.55 -64.75) matrix(1.7698 0 0 1.7698 213.35 114.55)"/><use xlink:href="#sis01_02_18_2dK" transform="matrix(.56503 0 0 .56503 -120.55 -64.75) matrix(1.7698 0 0 1.7698 213.35 114.55)"/><use xlink:href="#sis01_02_18_2dL" transform="matrix(.56503 0 0 .56503 -120.55 -64.75) matrix(1.7698 0 0 1.7698 213.35 114.55)"/><use xlink:href="#sis01_02_18_2dM" transform="matrix(.56503 0 0 .56503 -120.55 -64.75) matrix(1.7698 0 0 1.7698 213.35 114.55)"/><use xlink:href="#sis01_02_18_2dN" transform="matrix(.56503 0 0 .56503 -120.55 -64.75) matrix(1.7698 0 0 1.7698 213.35 114.55)"/><use xlink:href="#sis01_02_18_2dO" transform="matrix(.56503 0 0 .56503 -120.55 -64.75) matrix(1.7698 0 0 1.7698 213.35 114.55)"/><use xlink:href="#sis01_02_18_2dP" transform="matrix(.56503 0 0 .56503 -120.55 -64.75) matrix(1.7698 0 0 1.7698 213.35 114.55)"/><use xlink:href="#sis01_02_18_2dQ" transform="matrix(.56503 0 0 .56503 -120.55 -64.75) matrix(1.7698 0 0 1.7698 213.35 114.55)"/><use xlink:href="#sis01_02_18_2dR" transform="matrix(.56503 0 0 .56503 -120.55 -64.75) matrix(1.7698 0 0 1.7698 213.35 114.55)"/><use xlink:href="#sis01_02_18_2dS" transform="matrix(.56503 0 0 .56503 -120.55 -64.75) matrix(1.7698 0 0 1.7698 213.35 114.55)"/><use xlink:href="#sis01_02_18_2dT" transform="matrix(.56503 0 0 .56503 -120.55 -64.75) matrix(1.7698 0 0 1.7698 213.35 114.55)"/><use xlink:href="#sis01_02_18_2dU" transform="matrix(.56503 0 0 .56503 -120.55 -64.75) matrix(1.7698 0 0 1.7698 213.35 114.55)"/><use xlink:href="#sis01_02_18_2dV" transform="matrix(.56503 0 0 .56503 -120.55 -64.75) matrix(1.7698 0 0 1.7698 213.35 114.55)"/><use xlink:href="#sis01_02_18_2dW" transform="matrix(.56503 0 0 .56503 -120.55 -64.75) matrix(1.7698 0 0 1.7698 213.35 114.55)"/><use xlink:href="#sis01_02_18_2dX" transform="matrix(.56503 0 0 .56503 -120.55 -64.75) matrix(1.7698 0 0 1.7698 213.35 114.55)"/><use xlink:href="#sis01_02_18_2dY" transform="matrix(.56503 0 0 .56503 -120.55 -64.75) matrix(1.7698 0 0 1.7698 213.35 114.55)"/><use xlink:href="#sis01_02_18_2dZ" transform="matrix(.56503 0 0 .56503 -120.55 -64.75) matrix(1.7698 0 0 1.7698 213.35 114.55)"/><use xlink:href="#sis01_02_18_2ea" transform="matrix(.56503 0 0 .56503 -120.55 -64.75) matrix(1.7698 0 0 1.7698 213.35 114.55)"/><use xlink:href="#sis01_02_18_2eb" transform="matrix(.56503 0 0 .56503 -120.55 -64.75) matrix(1.7698 0 0 1.7698 213.35 114.55)"/><use xlink:href="#sis01_02_18_2ec" transform="matrix(.56503 0 0 .56503 -120.55 -64.75) matrix(1.7698 0 0 1.7698 213.35 114.55)"/><use xlink:href="#sis01_02_18_2ed" transform="matrix(.56503 0 0 .56503 -120.55 -64.75) matrix(1.7698 0 0 1.7698 213.35 114.55)"/><use xlink:href="#sis01_02_18_2ee" transform="matrix(.56503 0 0 .56503 -120.55 -64.75) matrix(1.7698 0 0 1.7698 213.35 114.55)"/><use xlink:href="#sis01_02_18_2ef" transform="matrix(.56503 0 0 .56503 -120.55 -64.75) matrix(1.7698 0 0 1.7698 213.35 114.55)"/><use xlink:href="#sis01_02_18_2eg" transform="matrix(.56503 0 0 .56503 -120.55 -64.75) matrix(1.7698 0 0 1.7698 213.35 114.55)"/><use xlink:href="#sis01_02_18_2eh" transform="matrix(.56503 0 0 .56503 -120.55 -64.75) matrix(1.7698 0 0 1.7698 213.35 114.55)"/><use xlink:href="#sis01_02_18_2ei" transform="matrix(.56503 0 0 .56503 -120.55 -64.75) matrix(1.7698 0 0 1.7698 213.35 114.55)"/><use xlink:href="#sis01_02_18_2ej" transform="matrix(.56503 0 0 .56503 -120.55 -64.75) matrix(1.7698 0 0 1.7698 213.35 114.55)"/><use xlink:href="#sis01_02_18_2ek" transform="matrix(.56503 0 0 .56503 -120.55 -64.75) matrix(1.7698 0 0 1.7698 213.35 114.55)"/><use xlink:href="#sis01_02_18_2el" transform="matrix(.56503 0 0 .56503 -120.55 -64.75) matrix(1.7698 0 0 1.7698 213.35 114.55)"/><use xlink:href="#sis01_02_18_2em" transform="matrix(.56503 0 0 .56503 -120.55 -64.75) matrix(1.7698 0 0 1.7698 213.35 114.55)"/><use xlink:href="#sis01_02_18_2en" transform="matrix(.56503 0 0 .56503 -120.55 -64.75) matrix(1.7698 0 0 1.7698 213.35 114.55)"/><use xlink:href="#sis01_02_18_2eo" transform="matrix(.56503 0 0 .56503 -120.55 -64.75) matrix(1.7698 0 0 1.7698 213.35 114.55)"/><use xlink:href="#sis01_02_18_2ep" transform="matrix(.56503 0 0 .56503 -120.55 -64.75) matrix(1.7698 0 0 1.7698 213.35 114.55)"/><use xlink:href="#sis01_02_18_2eq" transform="matrix(.56503 0 0 .56503 -120.55 -64.75) matrix(1.7698 0 0 1.7698 213.35 114.55)"/><use xlink:href="#sis01_02_18_2er" transform="matrix(.56503 0 0 .56503 -120.55 -64.75) matrix(1.7698 0 0 1.7698 213.35 114.55)"/><use xlink:href="#sis01_02_18_2es" transform="matrix(.56503 0 0 .56503 -120.55 -64.75) matrix(1.7698 0 0 1.7698 213.35 114.55)"/><use xlink:href="#sis01_02_18_2et" transform="matrix(.56503 0 0 .56503 -120.55 -64.75) matrix(1.7698 0 0 1.7698 213.35 114.55)"/><use xlink:href="#sis01_02_18_2eu" transform="matrix(.56503 0 0 .56503 -120.55 -64.75) matrix(1.7698 0 0 1.7698 213.35 114.55)"/><use xlink:href="#sis01_02_18_2ev" transform="matrix(.56503 0 0 .56503 -120.55 -64.75) matrix(1.7698 0 0 1.7698 213.35 114.55)"/><use xlink:href="#sis01_02_18_2ew" transform="matrix(.56503 0 0 .56503 -.05 5.9)"/><use xlink:href="#sis01_02_18_2ex" transform="matrix(.56503 0 0 .56503 -.05 5.9)"/><use xlink:href="#sis01_02_18_2ey" transform="matrix(.56503 0 0 .56503 -.05 5.9)"/><use xlink:href="#sis01_02_18_2ez" transform="matrix(.56503 0 0 .56503 -.05 5.9)"/><use xlink:href="#sis01_02_18_2eA" transform="matrix(.56503 0 0 .56503 -.05 5.9)"/><use xlink:href="#sis01_02_18_2eB" transform="matrix(.56503 0 0 .56503 -.05 5.9)"/><use xlink:href="#sis01_02_18_2eC" transform="matrix(.56503 0 0 .56503 -.05 5.9)"/><use xlink:href="#sis01_02_18_2eD" transform="matrix(.56503 0 0 .56503 -.05 5.9)"/><use xlink:href="#sis01_02_18_2eE" transform="matrix(.56503 0 0 .56503 -.05 5.9)"/><use xlink:href="#sis01_02_18_2eF" transform="matrix(.56503 0 0 .56503 -.05 5.9)"/><use xlink:href="#sis01_02_18_2eG" transform="matrix(.56503 0 0 .56503 -.05 5.9)"/><use xlink:href="#sis01_02_18_2eH" transform="matrix(.56503 0 0 .56503 -.05 5.9)"/><use xlink:href="#sis01_02_18_2eI" transform="matrix(.56503 0 0 .56503 -.05 5.9)"/><use xlink:href="#sis01_02_18_2eJ" transform="matrix(.56503 0 0 .56503 -.05 5.9)"/><use xlink:href="#sis01_02_18_2eK" transform="matrix(.56503 0 0 .56503 -.05 5.9)"/><use xlink:href="#sis01_02_18_2eL" transform="matrix(.56503 0 0 .56503 -.05 5.9)"/><use xlink:href="#sis01_02_18_2eM" transform="matrix(.56503 0 0 .56503 -.05 5.9)"/><use xlink:href="#sis01_02_18_2eN" transform="matrix(.56503 0 0 .56503 -.05 5.9)"/><use xlink:href="#sis01_02_18_2eO" transform="matrix(.56503 0 0 .56503 -.05 5.9)"/><use xlink:href="#sis01_02_18_2eP" transform="matrix(.56503 0 0 .56503 -.05 5.9)"/><use xlink:href="#sis01_02_18_2eQ" transform="matrix(.56503 0 0 .56503 -.05 5.9)"/><use xlink:href="#sis01_02_18_2eR" transform="matrix(.56503 0 0 .56503 -.05 5.9)"/><use xlink:href="#sis01_02_18_2eS" transform="matrix(.56503 0 0 .56503 -.05 5.9)"/><use xlink:href="#sis01_02_18_2eT" transform="matrix(.56503 0 0 .56503 -.05 5.9)"/><use xlink:href="#sis01_02_18_2eU" transform="matrix(.56503 0 0 .56503 -.05 5.9)"/><use xlink:href="#sis01_02_18_2eV" transform="matrix(.56503 0 0 .56503 -.05 5.9)"/><use xlink:href="#sis01_02_18_2eW" transform="matrix(.56503 0 0 .56503 -.05 5.9)"/><use xlink:href="#sis01_02_18_2eX" transform="matrix(.56503 0 0 .56503 -.05 5.9)"/><use xlink:href="#sis01_02_18_2eY" transform="matrix(.56503 0 0 .56503 -.05 5.9)"/><use xlink:href="#sis01_02_18_2eZ" transform="matrix(.56503 0 0 .56503 -.05 5.9)"/></g></svg>