<svg xmlns="http://www.w3.org/2000/svg" xmlns:xlink="http://www.w3.org/1999/xlink" preserveAspectRatio="none" width="266" height="282" viewBox="0 0 266 282"><defs><radialGradient id="sis01_02_35_1a" gradientUnits="userSpaceOnUse" cx="0" cy="0" r="7.55" fx="0" fy="0" gradientTransform="matrix(1 0 0 1 121.2 41.3)" spreadMethod="pad"><stop offset="1.961%" stop-color="#FFF"/><stop offset="100%" stop-color="#FFF" stop-opacity="0"/></radialGradient><radialGradient id="sis01_02_35_1b" gradientUnits="userSpaceOnUse" cx="0" cy="0" r="12.563" fx="0" fy="0" gradientTransform="matrix(1 0 0 1 140.35 40.35)" spreadMethod="pad"><stop offset="1.961%" stop-color="#FFF"/><stop offset="100%" stop-color="#FFF" stop-opacity="0"/></radialGradient><g id="sis01_02_35_1c"><path fill="#9099A3" d="M166.9 259.25q.15-1.35.25-2.15l-.1.1q-.8.85-.8 3.05 0 1.95 3 8-.55-1.2-.55-1.45-1-2.4-1.5-5.15-.3-2.35-.3-2.4M158.35 279q-4.5 1.5-8.6 2.2h7.6q9.15-3.3 12.05-5.15l.45-.55-.2-.85q-5.35 2.5-11.3 4.35m-27.55 1.95v.25h2.4q-1.25-.05-2.4-.25m-16.05-3.1q0 1.85 3.05 3.35h12.05l-.1-.4q-10.25-2.2-12.75-3.2-.45-.6-1.25-.7l-.6.1q-.25.15-.3.15-.1.05-.1.7m-4-31.9q0 .25.1.55 1.55 2.35 1.8 3.05 2.2-.1 3.5.6.95.5 5.15 2.85l-.55.35q-.55.35-4.35 2-3.6 1.75-3.6 2.95 0 1.35.4 1.35 3.25-.2 5.6-1.1 3-1.25 4.4-1.5h16.5q13.05 2.6 14.45 2.9 7.05 1.55 8.3 2.5l1.95-.55q.15.25.15-1.1 0-2.25-.8-3.05-2.4-1.8-5.7-4.3h3.55l13.1 1.25-.45.3q-4.3.35-6.25 1.5l.2 1.15q1.35 9.5 2.75 12.35 1.2 2.45 6.4 6.75 3.7 2.95 6.9 4.45h15.8q-.1-1.7-.15-3.35-.1-3.75-1.2-9.45-1.3-6.5-1.95-9.55-.55-3.15-.95-4.75-.3-1.45-.7-2.55l-.45-1.15q-.25-.45-.45-.95-.35-.55-3.45-4.85-.5.7-2.05 1.75-.75.75-2.9 1.55-1.85.85-3.4 1.25-3.3.85-5.35 1.4-3.9 1-7.25 1.4l-.15.15h-.9q-.2-.05-.3-.15-.05-.05-.05-.15v-.25q.55-1.55.55-3.2 0-1.15-.1-1.4-.25-.75-.7-1.95v-.05q-.1-.1-.1-.2h-5.15q.25.55.65 1.6l.2 2.4q0 1.75-.35 2.3-.1.05-.1.15-.1.05-.1.15-.2.3-.3.75-.3.4-1.4.8-.7.1-2.4.3h-6.75l-.15-.05h-4.7l-.25-.15q-1.15.05-1.4 0-.05 0-.2-.1-.65 1.95-3.2 3.3h-4.1l-.05-.1h-3.85q-4.55-.4-6.8-1.85l-3.05-.1 1.5-1.5q-.5-.6-.65-1.3-1.25-.8-3.75-2.3-.7-.15-1.65-.35-1.8-.5-2.25-1.5-.15-.25-.15-1.2v-.35q0-1.65.15-2.3h-.1q.1-.05.2-.15.3-1 1.45-2.35-.15-.15-.4-.2h-.75q-1.35 0-2.6-.25h-.35q-.357.007-.65.3l-.3 1.8q0 .85.7 4.25.05.15.15.3h-.25q-.05.05-.25.05-.7 0-2.4-.6-.95-.3-1.5-.55m81.95 7.5q1.4 1.7 1.85 2.95.35.8 1.2 4.55.85 3.85.85 4.4v1.85q-.6-1.8-1.4-3.8-1.65-3.4-2.9-5.9-2.4-5.05-2.65-6.85l.05-.55q1.1 1.3 3 3.35m-79.05-10.95l.1-.4q-.1.15-.15.4h.05m-2.75 2.9q-.15-.15-.2-.3-.1-.4-.15-.7.05.35.15.9.05 0 .2.1m9.1-4.15q-.1-.05-.15-.15-.2.25-.35.55.25-.25.5-.4m14.35 14.15h1.35q-3.65-.45-5.1-.7 2.05.65 3.75.7z"/><path d="M167.2 256.1q0 .25-.05 1-.1.8-.25 2.15 0 .05.3 2.4.5 2.75 1.5 5.15.05.55 3.3 7.15.9 2 3.9 4.85 1.65 1.55 3.05 2.4h5.3q-3.2-1.5-6.9-4.45-5.2-4.3-6.4-6.75-1.4-2.85-2.75-12.35l-.2-1.15-.15-.8q-.15 0-.25.1-.15 0-.4.3m35.2-53.15q-.7.3-1.4 1-.4.55-.8 1.5v.15l-.1.8q0 .9.1 1.85h.15l.5-1.45v-.2l.05-.2v.15l1.25-3.15q.15-.3.25-.45m5.55-.3l.55-.4q.4-.4.05-.3l-.05.05q.2.15-.65.1l-.3.15q-1.1 1.5-1.95 4.7-.7 2.4-.7 3.05 0 .9.05.45v.1q.5-.55.95-1.8.5-1.1.8-1.5 1.4-.8 2.8-1.1l1.25-.25h-1.5q-1.45.1-2.25.4l-.4.4q.3-3.15 1.35-4.05m-69.9 55.25l-.3.15q0 .4-.8 9.1-.7 7.35-.45 14.05h1.25l-.25-10.45q.45-8.8.55-12.6v-.25m-5.25.95l-.05-.85q-.25-.5-.8-.5-.55 4.4-1.55 8.2-.7 3.6-.7 11.2 0 2.05.05 3.9l.1.4h.95v-4.45l2-17.9M108.1 260q-.55 1.6-4.15 9.15l.15.15q1.8-2.7 4.4-8.25 4.6-9.55 2.6-12.15-1.1 6.45-3 11.1m86.45-3.6q-.45-1.25-1.85-2.95-1.9-2.05-3-3.35l-.05.55q.25 1.8 2.65 6.85 1.25 2.5 2.9 5.9.8 2 1.4 3.8v-1.85q0-.55-.85-4.4-.85-3.75-1.2-4.55M87.8 185.8q3.25 1.35 6.1 6.85 2.25 4.1 2.4 6.25h.6q-1-5.65-3.25-8.7-1.4-1.8-5.55-4.7-.1.15-.3.3m1.7-19.75q-.3.3-.25.95 0 .45.1 1.3 0 1.35-1.75 1.35-2.15 0-5.05-2.05-2.6-2.1-3.2-2.5l1.85 1.95 1.1 1.05q2.8 2.4 6.5 2.4 1.15 0 1.15-2.25 0-1.05-.45-2.2m-5.25-22.9q-.15-.1-.3-.15-.4-.15-.45-.1.05.1 1.05 1.9.9 1.55 1.75 2.85 1.3 2.2 1.55 1.9-.3-1.15-.7-1.9-.25-.6-.4-.85l-.05-.05q-1.1-2.45-2.45-3.6m50.45.6l-.25.35q.85 2.95 1 4.05-4.05 5.8-4.75 6.7-.65.95-.65 1.8 0 .5 1.1 4.3 1.2 3.9 1.2 5.65 0 .15-2.2 3.5-2.1 3.3-2.1 6.2 0 3.6 1.7 9.05.85 2.65 1.75 5.4 0 5.1-3.05 14.05-3.05 9-3.05 14.8 0 3.9 1.1 9 1.6 7.5 4.75 10.45l.6.95.2-.05.05.05q0-.55-.05-1-.35-.95-1.35-3.2-1.55-2.05-2.5-4.15-1.9-4-1.9-11.25 0-7.3 3-15.6 3.05-8.35 3.05-13.35 0-.85-1.75-6.5-1.7-5.45-1.7-8.75 0-2.75 2.1-5.3 2.2-2.6 2.2-4.45 0-1.6-1.15-5.7-1.1-3.85-1.1-3.95 0-.9 2.65-4.5 2.75-3.55 2.75-4-.8-2.2-1.65-4.55m2.65-20q-.65 1-3 4.75-2 3.2-2 8.55 0 .85 1.5 5.15l.3-.1v-.15q-1.05-3.35-1.05-4.9 0-.3 1.65-5.35 1.95-5.9 2.6-7.85v-.1m-.7-1.5l.15-.15-1.25-1.8q-1-1.5-5.25-8.1-2.95-4.65-3.3-4.65-1.95 0-8.65 2.3-7.8 2.65-8.6 2.8 1.65-.85 6.55-6.2 5.1-5.6 5.35-7.25l-.25-.15q-4.3 5.4-9.45 10.25-3.9 3.6-3.9 3.9l.15.3h.05l2.5.1q.85 0 4.55-1.05 5.1-1.45 11.9-3.95.6 3.65 3.6 7.25 1.7 2.2 5.85 6.4m-65.85 42q2.1.45 5.1 2.2 3.85 2 5.3 4.15.1.15 2.8 3.75 3 3.65 4.7 4.15-1.15-.8-3.25-3.6-2.3-3.05-3.05-4.1-1.35-2.1-4.55-3.95-3.35-2.15-7.05-2.6m-8.05 2.95q.55.25 2.6.4 3.8.3 5.05.5 3.7.45 7.15 2.65 3.25 2.15 4.15 4.7.2.3 1.15 1.25.65.6.65 1.05 0 1.35 3.5 4.55 3.45 3.05 4.6 3.05 3.7-1 4.3-2.4l-4.6 1.55q-2.8-1.8-8.2-8.55l-1.4-1.7q-1.75-1.95-3.3-3.45-1.95-1.7-4.7-3.25-3.6-2.2-5.7-2.2-.7 0-2.35.55-1.7.55-2.9 1.3m35.1 24.4q0-.4-.6-2-.85-2-1.5-2.6.25.6 1.9 5.3l.2-.15v-.55m27.2-131.4l-.85 1.65q0 .6.25.9.15.25.8.8.5 0 .75-.15l-1.1-1.1-.15-.4.3-.85q.5-1.25.35-1.4l-.35.55m1.75-6.25v-.35l-.15.1q-1.2.65-1.2 2.6 0 .85.1.9.05.4.55.65.05 0 .2.05.1 0 .1.1h.85q.25 0 .3-.1.1-.05.2-.2-1.1-.35-1.25-.55-.25-.4-.35-.55-.15-.15-.15-.3 0-.5.4-1.25.4-.9.4-1.1m8.3-3.4v-.5q0-.35-.2-.55h-.05q-.1.2-.15.55-.25 1-.4 2.7-.1.35-.25.7-.45 1.4-1.8 2.35h-1.65q-.85-.15-1.55-.85-.55-.6-.85-.85v.25q-.1.05-.1.15 0 .45.8 1.1.3.2.7.45l.45.15q.65.25 1.45.25.55 0 1-.15.55-.25.95-.65.75-.6 1.15-1.95.5-1.5.5-3.15m2.1 2.9q.15.1 1.4.65 1.15.45 1.4.6.95.95.95 1.75 0 .9-1.05 1.15-1.25.4-4.3 0 .65.85 4.8.95.55 0 1-.65.4-.6.4-1.45 0-1.4-.7-2.35-.45-.65-1-.85-.55-.15-.8-.15-.7-.2-1.55.15l-.55.2m13.45 6.6q0-.65-.15-.7-.2-.2-.95-.2-7.6-6.3-9.1-8.5l-.05.3q0 .25.6 1.6.55 1.15.7 1.4.9 1.25 3.7 3.75 1.4 1.25 2.9 2.55l-1.05.8q-.9.85-2 1.15-2.05.65-7.5.65-2.6 0-10.9-.85H126q.85.75 1.55 1.15l.95.25q.8.15 4.7.55 4 .3 4.7.3 6.85 0 8.85-1.15 1.15-.65 2.1-2.2l.55.85v.1l.35.85.35 1.25q.55-2.9.55-3.9M147.5 46.2q.3-.1.85-.3-.85 0-1 .3h.15m-5-1.7q.55.5 1.35 1l.6.3q1.55.7 2.75.45v-.6q-1.65.4-3.3-.3-.3-.15-1.4-.95v.1m-7.6 1.45q.2-.7.25-1.15.85-2.75 4.05-4.55 1.65-.95 3.75-1.65l-.15-.2q-3.6.85-4.75 1.45-.8.7-1.65 1.2-.7.75-1.1 1.85-.2.85-.7 3.6.15 0 .3-.55m-12.7-1.15q.05.15.75 1.1.65.75 1.25.6l1.55.15.4-.15q-1.25-.3-2.35-.7-.7-1-1.1-1.3-.6-.8-.5.3m6.7-6.25l-.15.2q.3.4.85.9.3.35.55.9.95 1.6.95 2.45 0 .2-.1.45v.25q-.3 1.55-1.95 5Q127 53 127 54.95q0 .7.55 1.55.2.4.55.8.1.25.25.4 1.8 2.1 4.55 2.1.95 0 1.65-.45.2-.2.45-.4.4-.3.7-.85l-.45-.25q-.5.45-.8.6-.6.5-1.5.5-1.95 0-3.65-1.6 0-.05-.1-.15-1.4-1.3-1.4-2.15 0-.35.1-.8.3-1.9 1.85-5.4 1.95-4.3 1.95-5.7 0-1.65-.7-2.95-.85-1.35-2.1-1.65m1 32.25l.25.55q.55.2 1.55 1.1 2.05.85 7.5 1.05v-.8q-2.35.4-6-.7l-3.3-1.2m117.6 116.5h-1.4q.7.15 4.85 1.35l11.8 3.25.3-.35q-.75-.7-3.9-1.95-3.6-1.35-6.35-1.75-5.3-.45-5.3-.55m-23.9 3.3l-.65-.8q-.45-.55-.8-.55.4 1.6 1.05 2.05l.85.85q.8.7 1.4.8l.7.05-2.55-2.4m2.65-2.6h-.1q-.15.35-.3.95-.15.85-.25 1.4.3 1.1 1.2 1.8l.75.4q-1.65-1.9-1.7-2.2 0-.15.4-2.35m6.15 3.3q0-.7-.15-1l-.25-.7q-.15.3-.15.7.35.6.55 1m-5.25-11.4q-.75.55-1.25.75-.9.65-1.85 1.25-1.8 1.35-1.7 1.5 3.1-1.9 4.75-2.65 3.2-1 5.15-1.5 4.75-1 10.15-1l9.1.15.75.6q.5.25 5.95 1.1l.1-.05q-.8-.8-4-1.8-2.75-.7-3.3-.7-15.4.15-20.95 1.3-1.85.4-2.9 1.05m12.9 2.5q.2.2 1.8.2 1.9.1 3.25.4 3.35.15 6 .85 1.55.4 4.55 1.25h5.6q.3-.7.3-1-2-.6-6.85-.7-6.5-.1-9.25-1-1.15-.1-2.4-.1-2.45-.15-2.5-.05l-.5.15m-31.55 11.4l-.15 1.25q0 1.25 2 2.35 2.5 1.25 6.05.7 3.1-1.35 2.1-1.4-3.15.7-4.15.7-2.25 0-3.6-.85-1-.65-1.8-1.95l-.4-.8h-.05m-7.3 8.35q-.15-.2-.2-.3-.1-.15-.65-.15-.6 0-1.95.15-1.65.15-1.95.25l.15.7q.4-.15 1.8-.4 1.5-.25 2.35-.25l.25.1.15.15.05-.25m16.45 3.3q-1.25.8-1.25 1.5 0 .9.05.45h.15q2.05-2.35 3.75-2.35.5 0 1.1.3.5.25.55.2-.3-.9-1.25-.9-1.65 0-3.1.8m2.1-4.95q.05 0 1.1.55.05.1.2.1 1.05.4 1.6.4l.2-.1q-.35-.15-.6-.3-2.95-1.35-3.6-1.35-.8 0-1.4.2-1.2.3-1.75 1.05v.1q-.3.45-.35 1.1l-.15.55q-.1.55.05.55h.1v-.1q.75-1.4 2-2.1 1.1-.65 2.6-.65m3.05 10.2q.05-.15.05-.5-1.4-1.1-2.55-1.1-1.55 0-2.35.95l-.45 1.05q0 .9.05.5l.1.1q.15-.15.6-1.15.85-.9 3-.9.05 0 1.55 1.05m-3.3-13.05l-1.45.2q-.75.65-1.3 1.05 2.2-.55 4.3-.95-.7-.15-1.55-.3m23.15-67.95l-.1-.95q-.05-.95-.3-.95.55 2.35-2.25 8.6-1.55 3.7-7.45 10.9 2.75-2.3 3.75-3.55 2.15-2.65 4.4-7.25l.45-.85-.2 1.4-.1.55.1-.1-.1.55q-1.25 6.8-3.2 15.5 1.55-5 3.2-12.35 1.8-8.3 1.8-11.5m-78.9 54.95q11.05 0 17.7-1.85 3.45-.95 6.15-2.3-1.8.25-9.35 1.8-6.75 1.35-8.3 1.25-11.6.3-16.4-.3-2.45-.3-11.65-2.5 1.15.4 4.35 2.05 6.05 1.85 17.5 1.85m35.1-20.65l-.05-.05q-3.7 4.15-6.25 7-5 5.35-7.35 6.35-2.9 1.25-12.75 2.8-10.8 1.65-18.05 1.65 1.45.15 5.85.4 4.2.25 5 .25 11.65 0 22.3-5.65 10.85-5.8 11.3-12.75m10.9-59.55l.05-.3q-.15-.1-.2-.2-11.45 3.75-15.35 9.7-.7 1.1-2.65 5.25-1.55 3.3-3.45 5.5 3.3-2.9 4.45-5.4.9-2.5 1.4-3.75 2-4.3 15.75-10.8m-24-10.9q.2 2.7.15 5.2l-.8 5.3v-.3q-.75 4.7-1.85 10.75-1.25 7.35-1.2 10.1-10.85-4.5-11.55-4.85h-.1q-1.85-.7-3.25-1.8l-.25.4q3.3 2.25 3.5 2.45 8.55 5.55 12.35 5.55h.65l.25-1.95q3.65-22.55 3.65-28.4 0-1.7-.55-3.75-.45-1.55-1-2.45-.1.25-.15.35-.1.15-.1.75 0 .5.25 2.65m-23.3-7.35q.45-1.4 1.25-3.75.7-2.25.85-4.1-.15-.9-.45-.9-2.85 10.75-3.85 13.25-.65 1.85-3.3 8.5.65-.8 2.85-6 2.15-5.25 2.65-7m10.8-27.25l.55-.5q.7-.6 1.25-1.25l-.1-.05q-4.85 2-5.45 2-.95 0-2.75-2.15l-.15.35q.05.1.85 1.35 1.3 1.25 3.75 1.25.55 0 1-.25.25-.2.85-.7.2 1.6 3.15 11.35 1.8 8.9 2.4 10.85-5 6.35-7.35 9.7-4.75 6.2-9.05 10.4-4.05 3.75-12.5 10.25-2.45 1.7-3.7 2.6-2.1 1.45-3.1 2.4-.45.4-3.7 2.75h-.05q-1 .7-1.2 1.8-.35-.95-.6-1.65-.3-1.15-.65-2.25 0-.25-2-9.4-.55-2.4-.95-4.55 1-1.3 3.05-11.55.3-1.9.7-4.05.1-1.45.1-2.15 0-1-.25-1.45h.4l2.35.05q.15.1.15.35 0 .7 1 2.1 2.2 3.25 2.65 4.15.15.15 1.25.9 1.25.9 1.65 1.8v.1q0 .7-.3 4.05 0 .95.3 4.4.3-.1.7-.35.1-5.35-.05-6.6l-.5-1.5.25.05 1.3.25q.95 0 .75-.15-5.35-3.6-6.5-6.2l-1.9-3.35h.1q1 .35 2.4 0h.7q1.65-.05 3.95-1.85 1.6-1.2 2.1-2.05 3.8-2.65 4.85-3.05 3.6-1.55 7.2-3.85 3.75-2.25 3.95-3.25.95-2.9 1.25-5.7.15-2.2.25-2.5 0-.25-.15-.55-.65.75-1.5 4.45-.75 3.65-1.25 4.3-2.35 3.2-14.75 8.65-.1.15-.1.4-.15.1-.4.3-1 1.35-1.3 1.65-1.35 1.1-2.6 1.65-.85.3-1.65.4h-3.65q-.5-.45-4.95-.45-.95 0-1.25.35-3.8-1.4-5.15-2.1-2.5-1.25-2.5-3.2.25-1.55.25-3.15 0-.85-2.35-6.15-1.25-2.9-1.8-5.3-.55-2.2-.55-4v-.55q-.15-2.25-1.1-4.6-1.1-2.65-1.1-3.45 0-.45.45-2.65.4-2.2.4-3.7 0-1.65-.95-3.75-.45-1.1-.7-1.65-.2-.55-.2-.6 0-.5.4-2.9.15-1 .35-2.35.8-4.35 1.1-5.55.55-3.9 1.1-5.45.95-2.5 1.4-3.95.25-.7.4-1.05.1-.4.1-.55 0-.9-.65 0-.05.05-.05.15-.2.2-.35.55-.3.6-.55 1.3-.7 1.95-.85 2.85l-1.25 5.6q-.25 1.1-1.1 5.55-.9 4.95-.9 5.7 0 .7.9 2.6.85 1.85.85 3.5 0 1.35-.35 3.35-.4 2.05-.4 3 0 1.25.7 3.05.4.95 1.15 2.95.65 2.05.7 6.1.1.4.25 1.05.15.45.4 1.15.3.95.85 2.25.3 1.05.85 2.3 2.15 4.9 2.15 5.4l-.25 2.85q0 1.6.15 1.8.25.65 2.2 1.9.95.6 2.75 1.4 1.75.8 3.05 1-.35.25-.65.55-1.65 1.9-2.2 2.45-2.1 1.95-3.45 3.8-2.4 3.4-4.2 5.75v-.35q-.15 0-.25-.05-25.25 3.05-36.25 11.4-3.85 2.9-5.95 6.55-.7 1.1-1.25 2.35-1.55 3.7-1.55 8.05l-.4 4q0 .65.05 1.1v.15q-1 1-1.95 2.25-3.5 4.55-7 12.45-1.25 2.75-2.15 5.25-2.85 7.65-2.85 12.8 0 .7.15 1.25 0 .15.05.4h-.15q-5.1-.05-5.95 2.6-.3 1.1-.55 2.9-1.45-.75-2.4-1.1-1.65-.8-3.45-2.6-1.65-1.65-2.35-3.05-.25-.3-2.05-3.6-.05-.25-.15-.3.15-1.35.5-3.9.45-4.1.45-5.65 0-4.05-.7-6.55-.4-1.4-2.95-7.5-.25-.65-3.15-8.6-1.55-4.3-2.25-5.35.3-.15-.1-.15-.25-.15-.3-.15-1.2 0-1.8 2.75-.4 1.7-.4 3.05 0 3.3.95 6.7.15.65.3 1.2.25 1.1.55 2.2 0 .35-.3 1.25 0 .45-.25 1.3-.15.3-.15.65-.1.05-.1.15-.45-.4-.85-.8-3.05-2.95-5.4-5-1.4-1.25-2.5-2.1-.3-.25-.55-.5-.45-.35-.85-.7-4.45-3.6-6.85-4.45-9.8-2.95-9.95-2.95l-.3.05h-.15l-.1-.05q-.05-.4-1.1-1.65-1-1.35-1.5-1.5-.05 0-.05.1-.65-.55-1 .25-.25.45-.25 1.3l-.1 1.55.65 8.05q-.7-1.3-2.6-3.5-3.05-3.5-3.05-5.3 0-.55.5-1.4l1.6-.1q.4 0 1.2.3l.55-.05v-.25q-.3-.15-.65-.25-2.4-1-3.35-.15-.6.55-.6 1.9 0 1.4 2.85 5.3.35.5 2.05 3.15 1.35 2.1 1.55 2.15h.1l.1.75h-.2v1.3l2.3 4.75q0 .9-.4 3.7 0 4.05.95 5.65.7 1.25 4.3 6.15l.45.55q.15.25.3.45 2.6 3.75 5.9 7.05 5.05 5.1 8.65 5.1h.25v.2q0 .5 2.25 2.85 1.75 1.7 2.45 2.65.3.4.35.6l.35.8 2.4 5.45q.3.8.65 1.5l.05.15q0 .15.1.35.05.05.05.2.1.1.1.15.85 2.15 2.1 4.25 1.75 3.3 3.75 6.1 1.95 2.65 6.6 6.15 1.55 1.2 4.35 3.2 1.95 1.35 4.45 3 2.65 1.7 5.8 4.3 1.1.85 2.2 1.8 2 1.5 4.05 3.8 1.9 1.65 5.3 1.65H76.9q1.65 0 3.3-.55 1-.3 2.1-.75 2.65-1.1 4-2.3.75-.75 1.7-2.55 1.1-2.3 1.4-2.75 1.5-2.35 3.6-6.4 1.05-1.95 1.6-3.05.35.05.75.05.85 0 .85-.6-.45-.15-1.15-.55.1-.25.1-.3 0-.7-.65-.7-.25 0-.55.3-1.55-1.35-2.75-4.05-.45-1.05-2-2.9-1.95-2.35-2.35-2.9-3.75-5.3-4.25-5.85-2.8-3.45-6.65-5.35h-.05q-.15-.05-.3-.15-3.85-1.8-9.3-3.9-.9-.4-1.75-.7l-3.05-1.2q2.45 0 7.6.1 2.25.1 4.15 1 .85.5 1.55 1.5.25.3 1.1 1.15 1.1 1.1 1.7 1.35-1.3-1.55-2.8-3.05-1-1.5-4.3-2.4-2.95-.9-6.25-.9-1.5 0-3.9.35 0 .05-.35.3l-1.75-.7q0-.25.05-.4.15-.45.3-1.1.25-.8.5-1.3.9-2 5.05-2.45 0 .1.1.15.3 0 .45-.2.1-.1.1-.2.15 0 .15-.55l-.45-1.45q0-8.45 7.25-21.45 3.7-6.45 7.25-11.7 0-.3-.05-.4-.15-.1-.15-.15-.15.15-.35.3.75-5.85 1.45-8.9 1.3-5.85 5.9-10.1 2.3-2.1 5.95-4.3 3.45-2.05 6.6-3.2l.9-.3q.1-.1 1.6-.35 2.9-.6 11.4-2.15 7.25-1.4 9.75-2.35.65-.25.95-.4-.15.15-.25.3-.6.7-1.05 1.35l.2.25q1.1-1.45 1.75-2v.1l-.1.95q.65-.8 2.35-3.45 1-1.55 1.9-2.65.3-.5.6-.85.65-.8 3.7-4.1l.2-.2q2.05-2.2 2.35-2.6h.25q.6.1 2.25.25l-.05.4q-.35.5-3.4 4.75-.3.4-.55.8-.9 1.3-.9 1.85-.35.85-.35 1.65 0 5.1 2.2 15.45 1.8 8.4 3.3 12.4.25.6.45 1.15l.15.1h.1l.1.2q1.75-1 7.5-3.45 6.55-2.85 12.65-7.1 5.55 3.9 8.6 6.1l.15-.45q-1.85-1.8-3.75-3.4-1.4-1.15-2.95-2.3-1.65-1.25-2-1.25-.3 0-3.35 2.3-3.6 2.75-5.6 3.7l-6.8 2.95q-2.6 1.1-3.7 1.8v-.55q.1-.3.5-.6.2-.15.85-.65.6-.55 3.05-2.5 1.1-1.1 3.25-2.55l1.35-1.05q0-.05.1-.05.05 0 .15-.1l12.95-10.4 1.8-1.45q2.6-2.2 5-5.2 1.05-1.3 2.85-3.75.5-.7 1.15-1.55 5.95-7.1 7.2-9.55.05 0 0-.05.05-.15.15-.25.1-.4.1-.6 0-.1-.2-.2-.35-2.1-.75-3.9.45.55 1.7 2.05 2.3 2.75 3.2 4.55 1.5 2.7 7.45 6.8 2.55 1.7 12.5 6.3 2.35 1.1 5.85 2.5.1.1.25.15.15 0 .3.1.4.15 1.35.8 1.15.7 3.25 2.15-1.05.4-1.45 1.05v.05q0 .1.2.1t1.65-.45q.15-.1.4-.1h.1q.05 0 .3-.1 1.65-.35 5.25-.35 2.35 0 8.75 2.15 7.9 2.7 9.6 5.65 2.65 4.7 3.2 5.95 1.4 3.2 1.4 5.7 0 1.5-.85 6.1 0 .25-.05.45v.5q.05.45.7.45.05 0 .2-.1 6.45 10.65 8.95 17.4 1.7 4.9 2.1 9.5.15 1.75 1.7 5.65 1.6 3.9 1.6 4 0 1.3-1.6 3.1-1.65 1.8-1.65 2.1 0 .65.65.65l.4-.4q.2.4 1.7 1.95 2.05 2.1 2.5 3.3.65 1.8 1.8 2.65.85.55 1.1 1.1.25.45.25 1.5 0 .75-.65 1.7-.6.95-.6 1.25 0 .45 1.45 2.05 1.5 1.45 1.5 3.2 0 .7-.45.95-.55.3-.55.7 0 .3.15.7.15.4.15.75l.15 1.5q0 1.65-2.8 2.9-.85.3-1.5.55-.6-.95-2.95-1.5-6.5-1.5-8-2.05-.45-.15-4.6-2.4-.85-.45-2.35-.7-1.55-.3-3.9-.15.8-.7 1.55-1.75 1.65-2.1 1.65-3.2 0-1.55-1.25-2.15-1.95-1.05-6.1 1.25l-10.65.15q-.45.05-.9.05-4.95.5-6.2.85-.45.2-1.3 1.05-.35.3-.75.7 1.65-.85 2.45-1 1.85-.55 6.35-.95h11.1q1.4-.1 2.55-.65.85-.45 1.1-.95l1.9-.05.15.15q.15.25.3.65.15.35.25.6.05.15.05.25 0 1.1-2.2 3.35-.5.55-.9.95-.25.05-.55.2-2.1 1.1-3.7 1.1-.3 0-.55-.15l.25.25q-4.75.7-6.65 1.15-.15.65-1.1.65-.45 0-1.95-.65-1.7-.7-2.05-.75l-2.85-1.05q0 .25 1.45 1.25 2.85 1.45 3 1.5 1.65.65 2.35.15l-.65 2.9q-.05 1 .1 4.15v1.15q-.1.95-.1 2.2l.3 4.25q-.048.725-.05 1.45.006-.175.05-.35-.05 2.1-.35 3.25-.25.7-.5 1.25-.05.1-.15.25-.05.05-.05.15-.55 1-1.2 1.5l-.05.05-.1-.2-.45-.1q-.25 0-.5.3-.25.25-.55.25-1.55 0-2.2-1.9-.35-1.85-.35-1.95-.35-.45-1.2-1-.15-.3-.25-.45-.9-2.9-1.95-5.8l-.6-1.8q-.15.45-.65 3.05-.15 1.15-.2 1.95-.35.1-.4.1-.1.3-1.25 5.05-.8 3-2.35 4.8h-2.45q-.15-.1-.2-.1-1.1-.6-1.4-1.5-.1-.3-.1-1.6l.4-2.45v-.15q1-1.55 2.9-1.9l1.7-.35q-2.05-.55-3.8.55-.9.6-1.45 1.4-.2.05-.55.3-.75.45-2 1.7-2.1 2.05-4.95 2.05-.3 0-.7-.3-.4-.35-.4-.65 0-.05.1-.2.1-.35.15-.55.15-.4.45-.8.55-.45 1.45-1.35 1.85-1.4 3.4-1.3-.7-.1-1.85 0l-1.2.4q1.65-2.2 2.75-3.3l.8-.4.05-.05q.15-.1.5-.2.85-.05.85-.2-.85-.25-1.5 0l-.75.45q.15-.05.75-.05-1.1.3-2.2.85-1.45 1.7-2.3 3.65v-.05q0-.4-.4-.7-1.65 1.8-2.9 2.55-1.1.7-2.9 1.2-1.8.45-4.3.75-.15-.05-.3-.15-.5-.3-.5-.45 0-.15.5-.55.95-.95 4.45-3.3.6 0 1.5.25l.05-.15q0-.4-.85-.65 1.55-1.15 2.5-2.4.8-.15 2.05-.1l.35-.3-1.25.05q-.55.1-.9 0 .85-1.4 1.1-2.8 1.6-.45 2.65-.05l.15-.15-1.35-.5q-.9-.15-1.45-.25 0-.35-.1-.85l-.15-.05v-.7q-.65-4.15-.65-5.2 0-1.95 2.35-3.4 2.65-1.8 7.75-2.5l5.1-.8q.7-.15 1.95-1.4.45-.55 2.65-2.5.15-.25.4-.4 0-.1-1.35-1.65-1.4-1.55-1.4-1.7 0-.7 1.5-2.85 1.25-1.7 1.45-2.1 4.85-1.85 6.1-2.1.35 0 .75-.1l10.75-1.4q-.45-.15-1.95-.2-1.55-.25-2.25-.25-6.5.8-9.3 1.65-.5.2-1.75.6-1.4.5-1.8.5l-.05-.2q.15-.15 2.5-1.85 2.25-1.7 3.45-2.45.6-.35 3.5-2.15 2.9-1.95 3.05-2.15-.4-.3-2.6.65-8.8 4.85-10.7 7.2-.15.7-.4 1.3-1.25-.85-4.35-2.4-2.6-1.15-4-1.9 0-.05.1-.2-4.65-3.75-5.95-8.55-.85-2.9-.85-8.65 0-4.45 2.7-10.95 4.15-9.7 11.75-11.8-3.45.55-6.8 3.2-4.4 3.45-6.55 9.2 1.3-4.6 3.55-7.8 1.75-2.35 5.65-5.8-.85.1-1.8.8-.85.6-2.5 2.25-3.2 3.2-4 4.85 1.8-5.15 1.8-5.4l-.2-.15q-.8 1.5-2.85 5.1-1.85 4.05-1.85 9 0 .9.2 12 0 1.35 1.6 5.8 1.85 5.5 3.8 7.05.5.15.95.25 1.1.75 4.15 1.95.1 0 .25.05.25.1.55.3l.3.2q1.3.75 3.65 2.25.1 0 .15.1-.2.15-.35.3l-.1.2.1.25h.15q-.4.5-1.1 1.55-.1.1-.1.2-1.4 2.15-1.4 2.8l2.6 3.2q-.95.45-1.95 1.65-1.05 1.25-1.9 1.7-4.05.55-5 .8-2.75.3-3.85.75-2.5.95-3.95 1.75.2-1 .85-3.35 1.15-4.65 1.7-5.9 4.55-9.3 4.55-10.4 0-.15-.25-.35-.45.6-1 1.55-1.65 2.55-3.7 7.4-3.1 7.2-3.1 10.5l.1.95q-.75.35-1.1.7-1.2 1-1.2 3.2 0 .05.4 3.35.3 2.75.6 3.2-.3.85-.7 2.3-.7 1.85-2.3 3.25-.5.4-4.7 2.8-1.9 1.2-1.9 3.05 0 .4.3.65.65.6 2.35.6 3.05 0 5.4-1.25l1.8-1.25q-.15.25-.25.5-.6 1.3-.6 1.65l-.25 1.7q0 .15 1.9 2.25.75 1.05 1.3 1.9.65 1.15.7 2.1l.2 6.5q0 3.3-5 6-2.6 1.4-3.85 2.2-.1-.15-.15-.3-.3.05-.4.55-3.2.4-8 1.4-8.35 1.85-12.95 2.35l-7.5.15q-1.55-.25-3.05-1 .05-.1.05-.15-.15-.4-.6-.4-7.2 3.5-10.95 3.65-.1-.15-.25-.15-.05 0-.15.15-3.2 0-6.8-1.3-3.2-1.2-3.45-2.15 1.25-1.05 1.25-1.7 0-.4-.15-.45-.15-.1-.3-.15-.7.35-2.65 1.85-2.3 1.4-5.15 1.4-4.1 0-7.5-2.95-.2-.15-.35-.25.85-.55.85-1 0-.35-.05-.4-.25 0-.4-.15-.55 0-.8.6-.05.15-.2.35-1.95-1.9-2.3-3.55-.2.1-.45.55-.25.5-.25.8 0 .85 1.5 2.4h-.25q-2.35 0-3.65-.3-.1-.1-.15-.1-.5-.15-.8-.3-1.1-.6-4.15-3.75-.4.25-.4.95-.75-.7-1.85-1.55-2.6-2.15-3.15-3.6-1.15-2.75-1.6-4.15-.95-2.45-.95-4.15 0-3.45 1.15-6.9.5-1.3.8-2.15.4-1.25.4-1.45 0-.75-.15-1.85v-.1q-.4-1.85-1.25-4.6-.55-1.7-.9-3.05-.55-2.05-.55-3.3.35-2.65.35-3.95-.1-1.35-.65-2.05-.05-.15-.15-.15-.25-.25-.45-.3l-.4-2.7q.05-.5.95-7.1 2.15.85 3.8.85-7.75-3.25-11.65-14.75-2.65-7.9-2.65-15.8v-2.2q0-8.8-.15-8.8v-.5q1.1-7.35 1.4-9.3.7-3.6.7-6.15h-.55q-.15 1.15-2.55 19.2-.35-2.65-.65-7.25-.25-3.9-.25-4.8.7-9.2.7-9.35 0-.85-.15-1.65h-.2q-1.1 14.05-1.1 14.3v5.15q-.25-1.3-.5-2.55-.05.2-.15.2v-.7q-1.8-8.9-1.95-8.9 0 .7-.15 1.65 0 5.55 1.55 9.55.85 1.95 2.35 4.5.15.35.4.7v3q.85 13.05 1 13.05.1 0 1.05 4.6 1.25 5.25 2.65 7.35 1.1 1.8 3.9 5.15l2.5 3.15q0 1.1-.6 4.2-.75 3.15-.75 3.3 0 .85.5 3.75l.45-.25q.1.55.4.55.3-.05.55-.15v.15q0 .35-.1 1.45-.05.7-.15 1.7v.25q-.05 1.95 0 3.35l-.05.3.05.1v.9q0 .35 1.25 4.1 1.2 3.75 1.2 4.2 0 1.35-1.2 4.85-1.25 3.5-1.25 8.3 0 .05.4 1.15.1.5.4 1.2.6 1.85 1.8 5.3 3.05 6.55 6.8 7.45-.25 1-.25 3.1 0 1.5.1 2.2h-.1q-1.85 3.5-3.35 7.65l-.7 2.1q-.45 1.2-.8 2.35l-.15.7q-.7 2.45-1.3 5.1-2.35 10-2.35 18.85v.3h2.35q-.25-3.05-.25-5.95 0-1.7.85-5.45 0-.3.15-.65.85-4.15 2.75-10.4 2.75-9.35 3.5-12 .15.2.35.45.3-.3.3-.65v-.05q-.1-.3-.1-.55.55.25 1.5.55 1.7.6 2.4.6.2 0 .25-.05.1-.15.1-.3-.7-3.4-.7-4.25l.3-1.8v-.4l.05-.15q.5.15.95.25 1.25.25 2.6.25h.75q.25-.1.5-.1l.15.1q-.15.05-.25.2-1.15 1.35-1.45 2.35l-.1.15q-.15.65-.15 2.3v.35q0 .95.15 1.2.45 1 2.25 1.5.95.2 1.65.35 2.2.5 2.25.5h.25q.3.05.7.15.35.1.4.3.1.25 0 .8.1.25.15.55.15.7.65 1.3.55.9 1.55 1.6 2.25 1.45 6.8 1.85h3.85l.05.1h4.1q2.55-1.35 3.2-3.3.15.1.2.1.25.05 1.4 0l.25.15h4.7l.15.05h6.75q1.7-.2 2.4-.3 1.1-.4 1.4-.8.1-.45.3-.75 0-.1.1-.15 0-.1.1-.15.35-.55.35-2.3l-.2-2.4q-.4-1.05-.65-1.6h5.25v.25q.45 1.2.7 1.95.1.25.1 1.4 0 1.65-.55 3.2v.25q0 .1.05.15.1.1.3.15h.9l.15-.15q3.35-.4 7.25-1.4 2.05-.55 5.35-1.4 1.55-.4 3.4-1.25.9-.4 1.8-.95l1.1-.6q1.55-1.05 2.05-1.75 3.1 4.3 3.45 4.85.2.5.45.95l.45 1.15q.4 1.1.7 2.55.4 1.6.95 4.75.65 3.05 1.95 9.55 1.1 5.7 1.2 9.45.05 1.65.15 3.35h1.7q-.2-3.35-.3-4.3-.25-2.9-1.65-9.45-1.3-6.35-1.55-9.45-.25-3.85-3.3-9.3-3.05-4.85-4.7-8 1.2-.4 2.85-1.25 1.4-.8 3.5-1.95 1.95-.95 2.65-2.2.5-.85.5-2.25-.4-4.85-.4-7.3 0-3.25-2.05-5.3-2.05-1.5-2.05-2 0-.35.65-1.8.3.3.95.5.55.2 1.4.2.55 0 1.05-.1.15-.05.35-.1.3-.1.6-.15 1.15-.45 2.3-1.4-.4.5-.7.8 1.1-.85 2.4-2.5l.35-.5-.1.2q-.3 2.7.15 4.05.8 1.95 3.45 1.95 2.65 0 3.65-2.45.25-1 .5-1.95.45-1.15.7-2.7.25-1.2.55-2.3l.05.1q.35.6 1.95 1.8 1.8 1.25 1.8 1.65 0 1 .65 2.15.85 1.75 2.75 1.75.45 0 .9-.25h.1v.1q1.1 2.5 9.4 6.7 9.6 4.85 14.3 4.3h4.75q.5 0 4.55.15 4.05-.35 4.7-3.6.15-1 .75-2.4.65-1.5.8-2.1 1.25-6.05 1.25-9.25 0-2.75-.85-6.5-.25-1.6-.4-2.65-.1-.05-.1-.15-.05-.15-.05-.3-.1-.25-.1-.4-.3-1.15-.85-2.1.15-.1.3-.15 1.2-.25 2.65-1.2 2.45-1.45 2.45-3.35 0-1.65-.4-2.8.7-.1.95-1.1v-.8q0-.3-.1-.6-.2-1.35-1.3-2.75-1.4-1.55-1.4-1.8 1.05-2.05 1.05-2.95 0-1.8-.6-2.45-1.55-1.4-2.6-3.1-.2-.4-.85-1.2-.55-.6-1.3-1.4-2.15-2.2-2.5-2.75 0-.05.05-.15.7-.75 1.75-1.85 1.25-1.65 1.25-3 0-1.8-1.65-4.45-1.6-2.75-1.5-5.25.1-3.8-1.5-8.2-.3-.75-.6-1.55-1.9-4.7-4.95-9.8-2.65-4.3-5.3-7.55.05-.25.25-.65.45-1.8 1.1-6.65 0-7.1-5.2-12.75-7.2-7.85-21.85-7.4-1.5.05-2.55.3-1.25-1.8-11.45-6-2.85-1.25-6.75-3.3-4-2.2-5.4-2.9-4.9-2.55-7.8-6.95-3.5-5.15-5.8-6.85-.049 0-.05.05v-.05q-2.75-12.85-5-16.9m53.05 135.4q1.2-.55 3.6-1.25 2.3-.7 3.6-.85 1.55-.25 2.5-.4.1.15.4.3.6-.15 1.25-.6 1.25 0 2.35.05.3 0 .6.1 2.05.2 3.15 1 .05.1.15.1 2.8 1.85 3.5 2.1 1.8.45 4 1.25.3.15.65.25 2.5.75 6.4 1.45 0 .25.15.5.1.15.1.3t.05.25q.25.9.85 2.55.8 1.9.8 3.05 0 1.9.6 6.1 0 1-1 8.2 0 .35-.05.65-.1.6-.4 2.2-.3 1.3-.85 2.15h-.1q-.4.95-.7 1.6-.15.2-.3.55v.05l-.15.15q-.1 0-.1.1-.65.55-1.1.7-1.25.3-6.1.55h-4.85q-14.45-1.5-22.25-10.4 0-.1-.1-.15.1-.1.15-.1 1.35-.85 2.05-3.45.55-2 .55-4.2l-.4-4.75q0-.65.4-3.6.4-3.05.55-3.4-.4.35-.7.95.2-2.65.75-4.05m-93.55-102.1q0-.85 2.35-3.85 1.15-1.65 1.75-2.55l-.6 5.15-.3 2.25q-.15.8-.55 2.3-.3 1-.8 2.4-.25.8-1.15 3.6-.9-4.75-.9-7.9l.2-1.4m-89.7 41.35q2.8 7.6 3.6 11.65.3 1.55.3 2.6 0 1.6-.7 4.5-.7 3-.7 5v1.35q.15 1.25.7 1.25h.15q0 .1.1.25.55 1.8 2.9 4.6 3.05 3.6 5.55 4.85.85.45 2.35 1.1-.1.15-.1.4.3 0 .65-.2 2.55 1.05 6.65 2.6.05 0 .2.1 7.05 2.55 10.1 4.1 4.2 2.2 7.05 5.5.4.45 3.9 5.6.45.75 2.2 2.75 1.4 1.75 1.95 2.8 1.45 3.3 3.2 4.65-.4.6-.85 1.55-.9 1.9-3.05 6.65-4.95 9.6-11.75 9.6-3.65 0-6.55-2.8-5.25-5.15-10.9-8.5-11.25-6.75-15.3-11.85-3.75-4.65-6.7-12.7-1.9-4.25-2.85-6.45-1.7-2-2.65-3.05-1.4-1.6-2.8-2.65.15-.05.3-.25h.95q1.95 0 4.35-.7-.35-.2-6.8-.15-4.15-1.55-7.1-4.05-.3-.25-.55-.45-2.35-2.15-5.25-6.35-1.3-1.7-2.35-3.05-.45-.55-.75-.95-1.75-2.25-2.2-3.1l-.1-.1q-.45-.7-.7-1.7-.2-1.1-.3-2.5-.05-.8-.05-1.65.05-.55.15-1v-.1q.2-1.7.2-2.35v-.25q.4-2.35 1.5-4.2 1.55-2.8 3.9-2.8 1.25 1.7 1.25 2.5 0 3.2-.6 3.75-1.1.4-2.05.85l-.6.3.05.15q.1.1.7.1.7 0 1.5-.55-.4.95-.55 2.35-.4 1.3-2.75 2.5l-.15.25 1.1.15q.65 0 1-.35.1-.05.4-.55.3 1.6.65 2.05l.75.95.1-.3.55-1.05q-.65-.55-.8-.55-.55-.7-.55-1.8 0-.55.15-1.15.25-.8.4-1.4l.5.15q1.15.25 1.85.25.95 0 .4-.1-.1-.15-.15-.4-.1-.4-1.8-1.65l.25-1.15q.3-1.4.3-1.9 0-2.1-.8-3.2-.7-1-1.95-1-.6 0-1.1.4-.6.6-1.1.95-.15-.55-.6-3.45-.5-3-.55-3.55 1.25.55 2.5 2 .7.85 2.25 2.65 1.5 1.15 1.75 1.15.15-.15.05-.95-.15-.9-.15-1.7.15-1.5 1.8-1.8-1.5.15-1.8.65-.45.7-.15 2.7-2.05-2.9-2.8-3.45-1.1-.85-3.55-1.8-.45-1.6-.7-2.25 1.2.5 9.55 3.2 1.95.7 3.6 1.95 1 .7 3.05 2.35l.05.1q.5.3 1.65 1.3-1.25.8-1.95 1.2-1.55 1-1.95 1.5l.1.15q2.5-.35 4.15-2.5.7.6 1.55 1.4 1.1.95 2.4 2.2 3.05 2.7 4.3 3.65.55.4.7.4.25 0 .4-.1l.15.15q.25-.35.7-2 .5-1.65.5-2.05-1.8-5.85-1.8-10.25 0-1.85.05-2.15.1-.4 1.2-2.7 4.5 11.35 4.75 11.9m-36.6-12.05q.1-.4.25-.6.15-.1.3.15.15.15.35.4 1.8 1.1 2.65 6.7.95 5.55.95 7.05-1.45 2.25-1.65 4.05-.4-.75-1.1-2.1-.95-1.7-1.25-2.5-.1-.25-.1-.45 0-.4-.05-.75v-.05l.05-.5q0-.3-.15-.7-.3-3.65-.4-6.6-.05-2.9.15-4.1M126.5 244.4q.9.15 1.95.15 3.6 0 6.25-1.8h.05v.05h.1q.75 1.05 2.65 2.15 3.6 1.95 7.9 1.95 0 .2-.1.55-.3 1.85-.2 3.1 0 3.35-2.75 4.95h-3.9l-.15-.1h-3.95q-1.7-.05-3.75-.7-.35-.15-.7-.25-.6-.15-1-.3-1.25-.45-1.35-.7-.6-.95-.9-1.55-.7-1.2-.7-1.65 0-.15.05-.25.1-.05.15-.15.25-.15.25-.55l.1-4.9m-.8-.2q-.15.65-.15 2-.15.75-.25 2.8-5.45-1-6.35-1.4-.05-.1-.15-.1-.55-.45-.55-1.85 0-1.25.35-2.45.05-.3.7-1.3.05-.2.2-.25.15-.3.35-.55 0-.1.05-.15.25.15.5.4.7.55 1.4 1 1.95 1.35 3.9 1.85m20.55 2.75v-.05q2.75-.25 6.75-1.8 2.25-.9 3.4-1.6.25-.15.4-.2.1.05.25.15.4.3 1 .55.15.05 2.6.75h1.55v.1q0 1.65.3 4.4 0 1.6-.2 2.1-.7 1.4-3.3 1.15v.1h-6.65v-.1l-6.55-.2q.05-.25.05-.55.4-3.4.4-4.8m-35.15-8.2q.05-.1.05-.15.25.05.4.25 1.1.7 2.35 1.1v.2q-.1.15-.1.4l-.05 1.55-.1.4q0 .8.1 1.55v.1q.15.95.35 2.05l-.35.05q-.9-.3-1.6-.4-.35 0-.9-.3-.15-.05-.35-.15-.15-.1-.2-.1-.1-.55-.15-.9-.25-1.9-.25-2.5.15-1.25.25-2.05v-.95h.2q.25 0 .35-.05v-.1m102.8-29.85l.6-2.2q.8 2.05 1.55 4.55-.7-.35-.9-.55-.15-.1-.8-1.2-.25-.45-.45-.6m-44.4 37.85q-.4-1.45-.75-2.05 6.45-1.1 13.25-2.45 4.35-.85 6.85-1.4h.25q0 .35.1.65.2 1 .9 2.2-.05 0-.15.05-.6.8-1 1.35-.5.45-.8.7-1.45 1-5.05 2.2-.4.05-5.95 1.85-5.95 1.35-7.65 1.35h-.2l.35-2.05q0-1.9-.15-2.4m-153.8-97.3v-.9q-.8 2.4-1.8 3.4l-1 .8 1.7-.95.55-.45q.4-.8.55-1.9m19.7-6.7l-.15.15q-1.35 1.95-1.65 3.2-.25.95-.25 3.9 0 2.7 1.25 5.75 1.5 3.8 4.1 5.7h.05q1.05.45 1.05.35l-1.45-1.05q-2.25-2.45-3.2-4.8-.15-.2-.75-2.75-.35-2.1-.35-3.25 0-2.45.25-3.2.3-.95 2.25-4.85-.15-.35-1.1.8l-.05.05m-5.5-4.85h-.05q-1 2.35-1.7 3.3-1.1 1.65-4.25 2.9-1.15.85-1.15 1 0 .55.15.85.15.25.4.65.15.2.3.45t.15.85q0 .65-.25 1.25-.05.3-.6 1.4l-1.65 3.2-.4.95q.95-.55 2.2-2.95 1.25-2.65 1.25-4l-.85-2.1q2-1.05 3.95-3.2 2.2-2.45 2.5-4.55m-10.45 2.5l.7.25q.8-.65 1.9-1.8.35-.5.6-.7.1-.15-.15-1.1l-.4.55-2.65 2.8m-.7 1.55q-.1-.2-.25-.2v1.55q-.15 1.25-1 2.8l1.25-.55q.55-.45.55-1.45 0-.65-.25-1.5-.15-.5-.3-.65m-1.4-8.9l-1.25-.55q3.8 2.9 4.75 3.75l.1.1 1.1 1.25.05-.15q.4-.5.4-1.05-1-1-1.35-1.25-1.3-1-3.8-2.1M37.9 167.7q1.15.9 2.4 2.4.8.95 1.1 1.5h.15v-.3q-.05-.4-.35-.95-.55-1.1-2.05-2.25-.65-.35-1.25-.4m-1.9.2q.2.25.55 1.05.9 1.4 4.1 4.45l.05-.15-.2-.35q-3.45-4.45-4.5-5m215.25 43.2q-1.5.3-2.25.3-2.05 0-3.75-.4-.9-.25-5.25-1.7l1.4.9q3.05 1.4 7.75 2.05 1 0 2-.3 1.5-.55 2.15-1.65-.4.4-2.05.8m4.7-4.85q.95-.95 1.3-2.7-1.55 2.15-2.4 2.75-1.8 1.25-4.95 1.25-6.25 0-19.3-8.1 3.2 4.05 10.35 6.85 5.45 2.2 8.1 2.2 4.8 0 6.9-2.25M163.4 47.05q-.1-2.4-.5-2.4.85 2.4-2.25 7.15-3.45 4.3-3.55 4.65-.3-.8-1-1.5l-.15.4q.3 2 .8 2.2.15.55-.5 6.4v.15l-.85 5.25v.4h.25q.95-2.2 1.3-3.6.95-2.85.55-5.25-.3-1.5-.3-2.25.15-1.5 2.25-3.6 3.85-3.75 3.95-8m13.95-4.35q.1-.35.1-.8 0-1.65-1.25-2.05-.95-.3-2.05.15h-.05l.05.25q.65 0 1.25.4 1.1.55 1.65 1.7v.85q.25-.15.3-.5m-7.7 4.3q.3.5.3.7.25.15.7-.4l.95 1.1v.45q-2.5.45-3.15 1-.55.55-.55 2.2v1.55q.5 1.45 2.35 1.45 1.35 0 2.2-1.1.55-.7.7-1.6l-.1-.05q-.55.55-1.05 1-1.25 1.05-2 1.05-.7 0-1.05-.5-.35-.55-.35-1.85 0-.9 1.9-2.05.85-.45 1.3-.85.55-.5.55-.7 0-.5-1.4-1.6 1.5-.15 2.35-.15.65 0 .95.55.15.3.55 1.25h.3q.1-.15.1-.75 0-1.5-1.35-1.8-1.35-.4-3.5.35l-.35-.45q.35-1.4 1.35-3.1.65-1.2 1.4-1.8l-.15-.25v.05q-3.3 1.8-3.3 5.2 0 .55.35 1.1z"/><path fill="#64432B" d="M188.7 246.35l-1.1.6q-.9.55-1.8.95 2.15-.8 2.9-1.55m-20.65-1.6q0 .1.1.2v-.2h-.1m-50.25-1.4l.1-.15q-.1.1-.2.15h.1m-2.8 3.4q0 .15-.1.3h.25q-.1-.15-.15-.3m-.4-6.45v.4q.293-.293.65-.3-.263-.003-.65-.1m54.15 4.4q.35.6.75 2.05.15.5.15 2.4l-.35 2.05h.2q1.7 0 7.65-1.35 5.55-1.8 5.95-1.85 3.6-1.2 5.05-2.2.3-.25.8-.7.4-.55 1-1.35.1-.05.15-.05-.7-1.2-.9-2.2-.1-.3-.1-.65h-.25q-2.5.55-6.85 1.4-6.8 1.35-13.25 2.45m-57.6-6.1q0 .05-.05.15v.1q-.1.05-.35.05h-.2v.95q-.1.8-.25 2.05 0 .6.25 2.5.05.3.15.7.05.15.2.3.2.1.35.15.55.3.9.3.7.1 1.6.4l.35-.05q-.2-1.1-.35-2.05v-.1q-.1-.75-.1-1.55h-.05q.05-.25.15-.4l.05-1.55q0-.25.1-.4v-.2q-1.25-.4-2.35-1.1-.15-.2-.4-.25m35.1 8.3v.05q0 1.4-.4 4.8 0 .3-.05.55l6.55.2v.1H159v-.1q2.6.25 3.3-1.15.2-.5.2-2.1-.3-2.75-.3-4.4v-.1h-1.55q-2.45-.7-2.6-.75-.6-.25-1-.55-.25 0-.65.05-1.15.7-3.4 1.6-4 1.55-6.75 1.8m-20.7-.7q0-1.35.15-2-1.95-.5-3.9-1.85-.7-.45-1.4-1-.25-.25-.5-.4-.05.05-.05.15.05.1.15.15-.25.15-.5.4-.15.05-.2.25-.65 1-.7 1.3-.35 1.2-.35 2.45 0 1.4.55 1.85.1 0 .15.1.9.4 6.35 1.4.1-2.05.25-2.8z"/><path fill="#AF886A" d="M196.85 217.15l.2.25q.25.15.9.15.3 0 1.35-.3-.5.1-1.05.1-.85 0-1.4-.2m4.85-.7q0-.05.15-.05.3-.3.7-.8-1.15.95-2.3 1.4.95-.3 1.45-.55m-1.6-10.05l.1-.8v-.15q.25-.65.15-.65-1.4 3.3-2.5 5.2-1.65 2.85-6.25 5.55 1.8-.5 2.9-1.2 1.25-.75 2.9-2.55.4.3.4.7v.05q.85-1.95 2.3-3.65.4-.8.75-2.1l-.5 1.45h-.15q-.1-.95-.1-1.85m.8.15v-.15l-.05.2.05-.05m20.7 10.85l.1.1v-.1h-.1m-15-10.7l.4-.4q.95-2.95.95-3.65-1.05.9-1.35 4.05m.95-4.45h-.1q-1.55 2.5-2.1 5-.4 1.3-.7 3.45-.95 2.95-7.2 5.85 2.85 0 4.95-2.05 1.25-1.25 2-1.7 1.45-2.75 2.3-5.55-.3.4-.8 1.5-.45 1.25-.95 1.8v-.1q-.05.45-.05-.45 0-.65.7-3.05.85-3.2 1.95-4.7m17.1 7.6q-.044.175-.05.35v.4l-.1.3q-.05.25-.05.5-.1.15-.1.3-.25.95-.4 1.9-.05.35-.15.75.25-.55.5-1.25.3-1.15.35-3.25m-161.25.2q.05.1 1.55.8-3.15-2.6-5.8-4.3-2.5-1.65-4.45-3 5.55 4.5 8.7 6.5m12.5-33.15l-.1-.05q-2.1-1.6-5-2.75-2.2-.85-4.5-1.25 5.45 2.1 9.3 3.9.15.1.3.15m-41.7-1.65q-.05-.2-.35-.6l.7 1.4-.35-.8m-5.7-43.05v-.1l-.55-.4q.25.25.55.5m2.85 2.2v-.1H31q2.35 2.05 5.4 5v-.15q-4.3-4.15-5.05-4.75M147.45 95q0-.5-.25-1.45l-.25-.05.5 1.5m-10.65 1.25q.05-2.7 0-4.55-2.05 10.25-3.05 11.55.4 2.15.95 4.55 2 9.15 2 9.4.35 1.1.65 2.25.25.7.6 1.65.2-1.1 1.2-1.8h.05q-.05-1.5-1.25-6.55-1.3-6.05-1.3-7 .15-8.75.15-9.5m3.3-12.15l-2.35-.05q.85 1.3 3.95 5.45 4.15 6.35 4.15 11.1 0 .15-.55 1.5-.55 1.5-.55 2.4 0 .65.2.9.05.2.5.85l.8 1q.65-1 .95-3.05.3-1.5.3-2.6-.4.25-.7.35-.3-3.45-.3-4.4.3-3.35.3-4.05v-.1q-.4-.9-1.65-1.8-1.1-.75-1.25-.9-.45-.9-2.65-4.15-1-1.4-1-2.1 0-.25-.15-.35m-18-19.3q-.25-.7-.4-1.15.1.55.3 1.4 0-.15.1-.25m2.8-9.55q-.4.1-.45.1-1.8 2.1-2.5 3.2v.55q0 1.8.55 4 .45-2.15 1.3-4.3l1.25-3q0-.6-.15-.55m23.95 12.45q.9-2.2.9-5l-.35-.85q-.8 2.25-1.6 3.4l-2 5.4q1.95-.6 3.05-2.95m-7.05-11.25q4.75 3.9 5.45 4.6l1.05-.8q-1.5-1.3-2.9-2.55-2.8-2.5-3.7-3.75-.55-.35-1.3-.65-.15-.05-.3-.05.55.2 1 .85.7.95.7 2.35m-17.6-9.95q.85.85 1.8.85 1.95 0 3.2-1l.55-.55q.55-.6 1.2-2.05l-.65-.05h-.25q-1 1-2.55 1.5-.25.05-.5.15-.2 0-.45.05-2.2.15-2.75.4 1.1.4 2.35.7l-.4.15-1.55-.15m4.55-7.75q-.15-.05-.3-.15-.2-.05-.35-.15h.4l-.05-.05.85-.1q-1.9-.55-2.75-.55-5.4 0-5.4 2.9 0 .55.1.6.15.2.3.25.95.45 1.55 0 .25-.25.65-1 .6-.4 2.2-.3.55 0 1.15.15 1.1 0 1.95.3.4.15.7.3.65.4.85.95.2.3.2.7.2.45.2.85.1-.25.1-.45 0-.85-.95-2.45-.25-.55-.55-.9-.55-.5-.85-.9M123.5 16.9q-.15.35-.4 1.05 1.25 1.2 4.1 2.3 2.1.75 7 2.25h7.15q.45-.25.7-.7-.25-.3-1.6-1.5-.7-.6-1-.9 1.1 1.15 1.7 2.15l-.3.1q-3.65.85-10.8-1.8-4.75-1.8-6.55-2.95m-.6-.4q-.1-.1-.2-.15l-.15.7q.15-.35.35-.55m20.3 55.25l-.15-.4q-.7 0-3.85 1.35v.8q-5.45-.2-7.5-1.05-1-.9-1.55-1.1-.4.2-.4 1.8 0 .55 1.05 1.2 1.6.75 5.05.75 1.9 0 4.15-1 2.5-1.1 3.2-2.35m82.25 121.2q-.6-.1-1.4-.8l-.85-.85q-.65.85-2.15.95.35.05 2.05.75 1.5.65 1.95.65.95 0 1.1-.65l-.7-.05m6.8-2.65q.15.3.15 1-.2-.4-.55-1l-6 .05q.05.3 1.7 2.2l-.75-.4q-.9-.7-1.2-1.8-.45 0-.95.1-.9 0-1.05.15l2.55 2.4q1.9-.45 6.65-1.15l-.25-.25q.25.15.55.15 1.6 0 3.7-1.1.3-.15.55-.2.4-.4.9-.95 2.2-2.25 2.2-3.35 0-.1-.05-.25-1.05 1.2-3.9 2.75-3.05 1.55-4.25 1.65m-23.3 4.3q.8 1.3 1.8 1.95 1.35.85 3.6.85 1 0 4.15-.7 2.35-.65 3.85-.25.7.15 2 .55l.65-2.9q-.7.5-2.35-.15-.15-.05-3-1.5-1.15.5-2.95 2.15-1.25 1.1-2.95 1.1-.95 0-2.45-.35-1.65-.4-2.35-.75m-4.2-.1q-.9 1.95-1.1 2.05-1.2.7-4.6 2-2.2.9-2.2 1.5v.55q.2.1.2.15-.15 0-.15.1h.55q.1 0 2.65-1.1 3.25-1.1 5.95-1.1 4.15 0 7.15.25 1.3 0 3.2-.8-3.55.55-6.05-.7-2-1.1-2-2.35l.15-1.25h.05q0-.55-.55-1.4-2.5.45-3.25 2.1m-.9 6.35q.25-.1.4-.1 1.65 0 3.7-.45-1.75-.5-4.1.55m10.65 5.85l-.6 2.2q.2.15.45.6.65 1.1.8 1.2.2.2.9.55-.75-2.5-1.55-4.55M10.95 135.25q0-1.5-.95-7.05-.85-5.6-2.65-6.7.2 2.7 1.15 7.4 1.1 5.55 2.45 6.35m26 22.9q-1.45-2.2-2.55-4.95.6 2.55.75 2.75.95 2.35 3.2 4.8-.05-.4-1.4-2.6M23.3 146.6q0 .05-.1 1.55-.15 1.65-.3 2.4.55-1.1.6-1.4.25-.6.25-1.25 0-.6-.15-.85t-.3-.45m6.55-8.8l.05.1q-.3 2.1-2.5 4.55-1.95 2.15-3.95 3.2l.85 2.1q0 1.35-1.25 4-1.25 2.4-2.2 2.95l.4-.95q-1 .9-5.4 2.45 1 .45 1.55.55 1.5-.3 2.45-.65-.4.9-1.1 1.6l-.55.7q0 .55.1.6l.05.1h.45q1.45 0 4.1-3.85 6.85 4.45 9.9 6.1 3.05 1.7 4.55 1.7.95 0 1.1-.15.3-.15.3-.85v-.6h-.05q-2.6-1.9-4.1-5.7-1.25-3.05-1.25-5.75 0-2.95.25-3.9.3-1.25 1.65-3.2l.15-.15.05-.05q.65-.85.9-2 0-.15.05-.3-1.25-.95-4.3-3.65-1.3-1.25-2.4-2.2-.55.45-.8 1.65-.4 2.55-1 3.4-.15.25-1.8 1.25-1.2.8-2.2 3.25 3.15-1.25 4.25-2.9.7-.95 1.7-3.3v-.1m-15.65 6.8q-.3.5-.4.55-.35.35-1 .35l-1.1-.15-.4 1.4q.15.2 1.05.9.6.4.7 1.1.15.9-.1 2.05-.15.65-.45 2.1.3.4.75.95.9-.15 1.9-2.5l-.55.45-1.7.95 1-.8q1-1 1.8-3.4l-.1-.15q-.15-.5-.75-1.75-.35-.45-.65-2.05m4.3-2.85q.15 0 .25.2 1.3-.15 2.25-.9 1.05-.95 1.05-2.2-1.1 1.15-1.9 1.8l-.7-.25 2.65-2.8v-.15l-.05.15-1.1-1.25q-.7.7-1.95 1.7-1.65 1.25-2.75 1.55 1.7 1.25 1.8 1.65.05.25.15.4.55.1-.4.1-.7 0-1.85-.25.15.55.55 1.35.2.6.2 1.15 0 .8-.55 1.25-.55.4-.7.45.15 0 .8.55l-.55 1.05q1.25 0 2.2-.5.85-.55.85-1.25l-1.25.55q.85-1.55 1-2.8v-1.55m-2.35-6.1q0-.8-1.25-2.5-3.8 5.55-3.35 8.1.15.7.55 1.8.25.95-.25 2.05 2.35-1.2 2.75-2.5.15-1.4.55-2.35-.8.55-1.5.55-.6 0-.7-.1l-.05-.15.6-.3q.95-.45 2.05-.85.6-.55.6-3.75m-.05-3.15l1.25.55q2.5 1.1 3.8 2.1.35.25 1.35 1.25 1.1-.3 1.7-.7l-.2-.05-.1-.15q.4-.5 1.95-1.5.7-.4 1.95-1.2-1.15-1-1.65-1.3-.85.4-1.85 1.15l-1.4 1.1q-.5 0-1.8-.45-2.05-.95-3.85-1.75.1.8-.05.95-.25 0-1.75-1.15l-.15.2q1.35 1.95 1.55 2.3 1.2 1.15 4 2.4-.95-.85-4.75-3.75m30.85 15.35q0-1.05-.3-2.6-3.6 10.15-5.45 17.9-.9 1.95-2.6 2.45-1.35.3-6.1.3-5.4 0-9.2-1.35-1.2-.55-1.9-.85 2.95 2.5 7.1 4.05 6.45-.05 6.8.15-2.4.7-4.35.7H30q-.15.2-.3.25 1.4 1.05 2.8 2.65.95 1.05 2.65 3.05.95 2.2 2.85 6.45 2.95 8.05 6.7 12.7 4.05 5.1 15.3 11.85 5.65 3.35 10.9 8.5 2.9 2.8 6.55 2.8 6.8 0 11.75-9.6 2.15-4.75 3.05-6.65.45-.95.85-1.55-1.75-1.35-3.2-4.65-.55-1.05-1.95-2.8-1.75-2-2.2-2.75-3.5-5.15-3.9-5.6-2.85-3.3-7.05-5.5-3.05-1.55-10.1-4.1-.15-.1-.2-.1 2.1 1.55 3.5 2.65 3.65 3.05 6.35 6.35 4.1 5.3 4.2 5.3 2.5 3.6 2.5 5.65 0 1-.15 2.4h-4.45q-4.4-.7-9.6-3.1-5.4-2.45-10.25-6.05-6.65-4.85-9.4-8.8-2.75-3.85-2.75-8.05 0-.9 1.1-5.65.8-2.95.95-4.05-.1-.15-.1-.25h-.15q-.55 0-.7-1.25v-1.35q0-2 .7-5 .7-2.9.7-4.5m-10.4 21.1q-.35-.8-.55-1.05 1.05.55 4.5 5l.2.35-.05.15q-3.2-3.05-4.1-4.45m3.75 1.15q-1.25-1.5-2.4-2.4.6.05 1.25.4 1.5 1.15 2.05 2.25.3.55.35.95v.3h-.15q-.3-.55-1.1-1.5m95.1-74.55q.4-1.5.55-2.3l.3-2.25q-.45 2.35-.85 4.55m101.45 101.3q-7-1.65-10.55-2.5-.55 1.4-.75 4.05.3-.6.7-.95-.15.35-.55 3.4-.4 2.95-.4 3.6l.4 4.75q0 2.2-.55 4.2-.7 2.6-2.05 3.45 0 .1-.05.25 7.8 8.9 22.25 10.4h4.85q4.85-.25 6.1-.55.45-.15 1.1-.7 0-.1.1-.1l.15-.15v-.05q.15-.35.3-.55.3-.65.7-1.6h.1q.7-1.95 1.3-5 1-7.2 1-8.2-.6-4.2-.6-6.1 0-1.15-.8-3.05-.6-1.65-.85-2.55-.05-.1-.05-.25t-.1-.3q-.15-.25-.15-.5-3.9-.7-6.4-1.45-.35-.1-.65-.25-.05 1.3-.45 1.65-.4.3-1.75.3-5.9 0-12.35-1.25m20.4 6.7q-.35 1.75-1.3 2.7-2.1 2.25-6.9 2.25-2.65 0-8.1-2.2-7.15-2.8-10.35-6.85 13.05 8.1 19.3 8.1 3.15 0 4.95-1.25.85-.6 2.4-2.75M249 211.4q.75 0 2.25-.3 1.65-.4 2.05-.8-.65 1.1-2.15 1.65-1 .3-2 .3-4.7-.65-7.75-2.05l-1.4-.9q4.35 1.45 5.25 1.7 1.7.4 3.75.4M163.4 43.2q-.2-1.25-.2-1.7.5-3.35.25-3.9-.05-.3-1.95-3.5-1.8-3-1.8-3.6.55-1.65 1.2-3.7 1.25-4.15 1.75-7.4-2.5 0-7.25-1.65-4.55-1.65-5.15-1.95l.15.35 4.2 3.4q-1.55.55-2.5.55-8.5 0-11.25-1.1-1.95-1.5-3.75-2.35h-.25q.4.45 1.9 1.95.1.15.15.25 5.55 1.6 10.7 1.6.95 0 5.55-.2l.35-.5q-2.85-2-3.4-2.65l-.05-.3q.7 1.1 3.45 2.35 3.2 1.3 5.55.85-1.5 4.05-5.1 14.85 1.15.5 1.4 1.05-.95.75-1.15.9-.35.15-1.25.35-.95 1.3-5.5 1.45-5-.15-6.5 0-2.1.7-3.75 1.65-3.2 1.8-4.05 4.55-.05 1.25-.45 5.25.05-.35.15-.55h.05l.25-.55q0 .55-.05 1.1v.5q0 1.65-.5 3.15-.4 1.35-1.15 1.95-.4.4-.95.65-.45.15-1 .15-.8 0-1.45-.25l-.45-.15q-.4-.25-.7-.45-.8-.65-.8-1.1 0-.1.1-.15-.15-.2-.25-.25 0 .05-.05.15-.1.45-.1.8 0 .85 1.4 2.15.1.1.1.15 1.7 1.6 3.65 1.6.9 0 1.5-.5.3-.15.8-.6l.45.25q-.3.55-.7.85-.25.2-.45.4-.7.45-1.65.45-2.75 0-4.55-2.1-.15-.15-.25-.4-.35-.4-.55-.8-.6-.2-1.55-.2 0 .15.15.3.1.15.35.55.15.2 1.25.55-.1.15-.2.2-.05.1-.3.1h-.85q0-.1-.1-.1-.15-.05-.2-.05-.15.4-.5.85-.7 1-.75 1.4l.2.1.35-.55q.15.15-.35 1.4l-.15 1.25 1.1 1.1q-.25.15-.75.15 1.25 3.7 2.7 5.3.95 1.1 1.75 1.1h.45q.1-.15.1-1.1v-.45q-.1-.15-.1-.3H130q-.15-.25-.4-1.8l-2.05-3.15q-.7-.4-1.55-1.15h.85l.4-2.3q1.1.5 3.05 1.1 2.2.7 3.15.7.15-.15.05-.35.55-.35 1.6-.95.9-.5 1.3-.85.95-.1 1.95-.25 1.4-.25 2.05-.55-4.15-.1-4.8-.95 3.05.4 4.3 0 1.05-.25 1.05-1.15 0-.8-.95-1.75.15 1.35-.15 1.9-.4.6-1.55.6-2.5 0-2.5-2.65 0-.95 1.3-2.55 1.35-1.75 1.5-3.6 1.65.55 3.05 1.4-1.75-2.1-1.1-4.6.55-2.5 2.2-3.15.6-.6 1.85-1.25 1.35-.55 2.3-.55h.05q.8.1 2.3.4 1.3.3 1.6.4.2.05.25.15.8.45 1.5 1t.7.65l-.25.3q-.7.55-2.35 1.35-.3.05-.7.2-1.1.5-1.8.7l-1 .25v.6q.05.4.15 0v-.05q.15-.3 1-.3-.55.2-.85.3.7.45 2.2.55 1.55 0 2.6-.65 1.85-1.25 2.65-1.95.6-.6 2.1-1.4.4 1.35.95 3.9.55 2.45.55 2.6 0 1.7-.55 3.1-.65 1.6-5.25 2.6-.55.1-1 .25 2.15 2.1 3.1 4.75.65 1.65 1.4 4.15v-.15q.65-5.85.5-6.4-.5-.2-.8-2.2l.15-.4q.7.7 1 1.5.1-.35 3.55-4.65 3.1-4.75 2.25-7.15.4 0 .5 2.4-.1 4.25-3.95 8-2.1 2.1-2.25 3.6 0 .75.3 2.25.4 2.4-.55 5.25-.35 1.4-1.3 3.6-.15.2-.25.45-.05 0 0-.45v-.4q-5.4 9-5.45 9.35 12.4-5.45 14.75-8.65.5-.65 1.25-4.3.85-3.7 1.5-4.45.15.3.15.55-.1.3-.25 2.5-.3 2.8-1.25 5.7-.2 1-3.95 3.25-3.6 2.3-7.2 3.85-1.05.4-4.85 3.05-.5.85-2.1 2.05-2.3 1.8-3.95 1.85h-.7q-1.4.35-2.4 0h-.1l1.9 3.35q4.45 2.6 5.25 2.7 2.4.55 2.85 4.45.25 2 0 4.6.4 2.25.9 5.55.3 2.35.2 2.75h.5q2 0 4.3-4.1 3.05-5.45 5.7-17.2-.5 1.75-2.65 7-2.2 5.2-2.85 6 2.65-6.65 3.3-8.5 1-2.5 3.85-13.25.3 0 .45.9-.15 1.85-.85 4.1 1.4-4.05 1.4-4.35.4 2.55 1.1 5 .45 1.7.45 2.35 0 4.85-1.25 8.75-1 3.2-3.2 7.1 4.3-4.2 9.05-10.4 2.35-3.35 7.35-9.7-.6-1.95-2.4-10.85-2.95-9.75-3.15-11.35-.6.5-.85.7-.45.25-1 .25-2.45 0-3.75-1.25-.8-1.25-.85-1.35l.15-.35q1.8 2.15 2.75 2.15.6 0 5.45-2 1.85-2.05 3.2-5.7 1.1-3.4 1.1-5.8 0-2.65-.8-5.4-.75-2.6-1.55-3.3-4.85.4-7.1 3.3-3.7 4.6-5.7 5.95-.2-.4-.35-.55l-.05-.1q-.1-.85-.3-2.35m6.55 4.5q0-.2-.3-.7-.35-.55-.35-1.1 0-3.4 3.3-5.2v-.05q.4-.15.85-.4.35-.15.65-.25h.05q1.1-.45 2.05-.15 1.25.4 1.25 2.05 0 .45-.1.8-.05.35-.3.5v-.85q-.55-1.15-1.65-1.7-.6-.4-1.25-.4-.75 0-1.4.65-.75.6-1.4 1.8-1 1.7-1.35 3.1l.35.45q2.15-.75 3.5-.35 1.35.3 1.35 1.8 0 .6-.1.75h-.3q-.4-.95-.55-1.25-.3-.55-.95-.55-.85 0-2.35.15 1.4 1.1 1.4 1.6 0 .2-.55.7-.45.4-1.3.85-1.9 1.15-1.9 2.05 0 1.3.35 1.85.35.5 1.05.5.75 0 2-1.05.5-.45 1.05-1 0-.1.1-.15v.2q-.15.9-.7 1.6-.85 1.1-2.2 1.1-1.85 0-2.35-1.45v-1.55q0-1.65.55-2.2.65-.55 3.15-1v-.45l-.95-1.1q-.45.55-.7.4z"/><path fill="#709898" d="M187 215.15q-.5.4-.5.55 0 .15.5.45-.1-.25-.1-.7 0-.15.1-.3m-72.35 25l-.05.15q.388.097.65.1h.35q-.45-.1-.95-.25m4.95.5l-.15-.1q-.25 0-.5.1.25.05.4.2.1-.15.25-.2m-19.15-45.15q0 .1.05.2.1-1.1.1-1.45l-.15 1.25M90.2 153.3q0 7.9 2.65 15.8 3.9 11.5 11.65 14.75-1.65 0-3.8-.85-.9 6.6-.95 7.1l.4 2.7q.2.05.45.3l.15-.25v.4q.55.7.65 2.05 0 1.3-.35 3.95 0 1.25.55 3.3 0-7.1 1.25-10.25.7-1.95 4.65-6.5l-1.5-1.75-.4-.8q3.6-.25 5-.7.3-.5.3-.85-9.7-1.8-14.5-7.9-5.25-6.75-6.2-20.5m-.15-11.5v.5q.15 0 .15 8.8.7-11.7 1.25-18.6-.3 1.95-1.4 9.3m-2.65-5q-.35 2.05-.5 2.6.25 1.25.5 2.55v-5.15m4.2-10.45h.3q-.05-.25-.2-.35-.95.4-3.55 7.5 0 .9.25 4.8.3 4.6.65 7.25 2.4-18.05 2.55-19.2m-21.95 34q-.1-.1-.1 0-.05 0-.05.6 0 .25.85.55 2.9 1.2 6.1 2.5 4.2 2.75 4.75 3.05l-1.85-1.95q.6.4 3.2 2.5 2.9 2.05 5.05 2.05 1.75 0 1.75-1.35-.1-.85-.1-1.3-.05-.65.25-.95.45 1.15.45 2.2 0 2.25-1.15 2.25-3.7 0-6.5-2.4 3.05 3.55 4.75 5.3l-1.15-.85q-1-.65-2.4-1.25l-1.1-.5q.75 1.05 3.05 4.1 2.1 2.8 3.25 3.6-1.7-.5-4.7-4.15-2.7-3.6-2.8-3.75-2.2-.25-2.8.2 1.55 1.5 3.3 3.45l1.4 1.7q5.4 6.75 8.2 8.55l4.6-1.55q-.6 1.4-4.3 2.4-1.15 0-4.6-3.05-3.5-3.2-3.5-4.55 0-.45-.65-1.05-.95-.95-1.15-1.25-1.65-.8-3.85-1.6-2.25-.85-3.05-.85 1.5 1.5 2.8 3.05-.6-.25-1.7-1.35-.85-.85-1.1-1.15-.3-.4-1.1-.4.55.85 3.45 3.55l-1.35.15.1.05h.05q3.85 1.9 6.65 5.35.5.55 4.25 5.85.4.55 2.35 2.9 1.55 1.85 2 2.9 1.2 2.7 2.75 4.05.3-.3.55-.3.65 0 .65.7 0 .05-.1.3l1.25.25q-.15-2.15-2.4-6.25-2.85-5.5-6.1-6.85.2-.15.3-.3 4.15 2.9 5.55 4.7 2.25 3.05 3.25 8.7.75-.55 1.2-1.75 1.1-3.1 1.1-3.2-.5-2.9-.5-3.75 0-.15.75-3.3.6-3.1.6-4.2l-2.5-3.15q-2.8-3.35-3.9-5.15-1.4-2.1-2.65-7.35-.95-4.6-1.05-4.6-.15 0-1-13.05v-3q-.25-.35-.4-.7-1.5-2.55-2.35-4.5-1.55-4-1.55-9.55.15-.95.15-1.65.15 0 1.95 8.9 0-2.65-.15-5.15-.3-5.55-1.1-6.85-1.4.75-1.4 4.65 0 1.95.25 3.85 0 3.05 1.4 6.8 1.25 3.2 1 4.6.15.25.4.85.4.75.7 1.9-.25.3-1.55-1.9l-.25 1.65Q88 158.85 88 160.95q0 1.1-.15 1.6-.55 1.4-2.25 1.4-1.1 0-5.25-1.4-6.1-2.05-6.65-2.2h-4.05m27.6 29.25q.6 1.6.6 2v.55l-.2.15q-1.65-4.7-1.9-5.3.65.6 1.5 2.6m-2.9-65.7q-.65 1.5-.65 3.05 0 4.3 1.95 11.05 2.35 8.4 5.65 9.85.8-.1.95-.7-2.3-3-2.45-3.4-.7-1.65-1-2.2.4.4 3.2 3.3 3.05 2.75 4.4 2.75l.2-.15.2-.65q-1.35-1.15-3.7-4.35-2.8-4-4.2-7.5l-4.55-11.05m171.45 66.7q.25-.5.25-.85 0-.15-.35-.55.1.3.1.6v.8m-9.55-19.95q-.05.1-.05.15.35.55 2.5 2.75.75.8 1.3 1.4-.6-.85-1.8-2.2-1.4-1.45-1.95-2.1M244 128.35q-.2.4-.25.65 2.65 3.25 5.3 7.55 3.05 5.1 4.95 9.8.3.8.6 1.55-.45-1.95-1.1-3.35-2.1-4.7-9.5-16.2m-34.4 47.3q-.15-.05-.25-.05.4.15.8.35-.3-.2-.55-.3m4.65 2.85q-.05-.1-.15-.1-.05.15-.2.4.15-.15.35-.3m-.35.75l-.1-.25q-.45 1.05-.85 1.8.7-1.05 1.1-1.55h-.15m8.45-2.75q-.4.1-.75.1-1.25.25-6.1 2.1-.2.4-1.45 2.1-1.5 2.15-1.5 2.85 0 .15 1.4 1.7 1.35 1.55 1.35 1.65-.25.15-.4.4h.1q.85-.85 1.3-1.05 1.25-.35 6.2-.85 1.3-1.15 2-1.65.35-.35 2.6-3.1-1.65.75-4.75 2.65-.1-.15 1.7-1.5.95-.6 1.85-1.25l.8-.55q-1.15.25-3.05.95-1.5.45-2.35.45.65-.45 2.6-1.95 1.65-1.4 1.8-2-1.6-1.2-3.35-1.05m-4.5.4q1.25-.4 1.75-.6l-1.55-.1q.05 0 1-.7 1.15-1 2.9-2.6-1.2.75-3.45 2.45-2.35 1.7-2.5 1.85l.05.2q.4 0 1.8-.5m-47.45-56.1q-.2-.2-3.5-2.45-3.05-2.2-8.6-6.1-6.1 4.25-12.65 7.1-5.75 2.45-7.5 3.45h-.2v-.2l-.15-.1q-.2-.55-.45-1.15-.65-.2-1.8-1.05l1.25 1.8-.1.25q0-.1-.05-.1-4.15-4.2-5.85-6.4-3-3.6-3.6-7.25-6.8 2.5-11.9 3.95-3.7 1.05-4.55 1.05l-2.5-.1q.8.85 2.1 1.1 1.1.25 3.95.25.75 0 5.3-.65 4.7-.6 5.85-.7 7.5 6.25 10.15 8.35 1.1.9 1.9 1.6l-.1.3-.05.1q.7 1.05 1.25 2 .3.7.3 1.05 0 .05-.7 2-.85 2.8-.85 6.65 0 2.65.25 5.1.3 3.45.85 1.3-1.1-2.7 4.05-10.85 4.95-8.05 4.55-8.6 3.35-1.8 13.85-3.45 2.4 0 4.45.85 2.25.95 16.55 7.05l.3-.05q.35-.25.55-.55-3.8 0-12.35-5.55m-3.25-2.85q1.4 1.1 3.25 1.8l-7.1-5.25q1.9 1.6 3.75 3.4l.1.05m73.55 18.55l.25.55.2-1.4-.45.85m-24.95-14.4l-.05-.6q-3.7.9-8 4.85-6 5.35-7.35 13.2-.6-2.75-.6-3.7 1.55-6.45 1.7-7.8-.15-.1-.4-.1-.55 0-.3-.45.25-.6.15-.8l-.3-.35q-.25.85-2.1 4.1-1.9 3.8-2.45 7.75-.95 7.75-1.55 15.95-.65 4.85-2.9 7.45-6.35 7.25-16.9 11.7-14.55 6.1-37.65 7.3l-.55.15q0-.1-.1 0-.05.05-.05.6 0 1.45 8.65 3.15 10.25 2.05 23 2.05 6.65 0 10.95-.4 2.15-.25 4.7-.55-.65.3-7.45 3.05-7.1 2.8-9.25 3.9 1.75 1 8 2.75 4.9 1.4 4.9 2.55-.85 1.5-1.7 3.05-1.65 3.2-1.65 4.3 0 1.1.4 1.6.8 1 3.3 1.55 0 1.65-2.3 8.8-1.15 3.7-2.4 7.55h-.15q-.25-2.2-.65-3.05-.45-.9-1.4-.95 0 2.05-1.7 7.2-1.4 4.35-3.15 8.25l-.3.9-.4.6-.45-4.15q-.1 0-.35-.2-.15-.35-.7-.35-.55 0-1.85 2.75-.1.25-2.75 5.95-.95-.8-3.1-3.9-1.8-2.5-3.75-3.2-1.6-.65-5.4-2.6-3.55-1.8-3.75-1.9-.5.1-.65.1-.05.15-.05.85 0 1.6.85 2.6.85 1.1.85 2.05 0 1.7-.85 3.4h-6.35q-4.7-1.25-7.1-2.4-1.4-.8-1.65-.85 1 2.25 1.35 3.2.05.45.05 1l-.05-.05-.2.05-.6-.95 1.1 1.9q-1.4-.15-4.15-1.65-2.65-1.5-2.75-1.5-.6.55-1.25 1.2-2.75-2.85-3.75-4.1-1.65-1.85-2.5-4.2-1.85-5-3.75-23.85-.15.1-.45.1-.1 1.3-.8 5.75-.45 3.6-.45 6.05 0 6.8.85 10.25.15.6 2.05 5.05-.1-.05-1.05-2-1.15-2.45-2.55-5.2l-.5-.6q-.6.8-.6 4.2.05 1.8.2 4.25-2.1-2.85-4.9-10.65-2.25-6.4-2.5-10.45-.3.85-.8 2.15-1.15 3.45-1.15 6.9 0 1.7.95 4.15.45 1.4 1.6 4.15.55 1.45 3.15 3.6 1.1.85 1.85 1.55 0-.7.4-.95 3.05 3.15 4.15 3.75.3.15.8.3.05 0 .15.1 1.3.3 3.65.3h.25q-1.5-1.55-1.5-2.4 0-.3.25-.8.25-.45.45-.55.35 1.65 2.3 3.55.15-.2.2-.35.25-.6.8-.6.15.15.4.15.05.05.05.4 0 .45-.85 1 .15.1.35.25 3.4 2.95 7.5 2.95 2.85 0 5.15-1.4 1.95-1.5 2.65-1.85.15.05.3.15.15.05.15.45 0 .65-1.25 1.7.25.95 3.45 2.15 3.6 1.3 6.8 1.3.1-.15.15-.15.15 0 .25.15 3.75-.15 10.95-3.65.45 0 .6.4 0 .05-.05.15 1.5.75 3.05 1l7.5-.15q4.6-.5 12.95-2.35 4.8-1 8-1.4.1-.5.4-.55.05.15.15.3 1.25-.8 3.85-2.2 5-2.7 5-6l-.2-6.5q-.05-.95-.7-2.1-.55-.85-1.3-1.9-1.9-2.1-1.9-2.25l.25-1.7q0-.35.6-1.65.1-.25.25-.5l-1.8 1.25q-2.35 1.25-5.4 1.25-1.7 0-2.35-.6-.3-.25-.3-.65 0-1.85 1.9-3.05 4.2-2.4 4.7-2.8 1.6-1.4 2.3-3.25.4-1.45.7-2.3-.3-.45-.6-3.2-.4-3.3-.4-3.35 0-2.2 1.2-3.2.35-.35 1.1-.7l-.1-.95q0-3.3 3.1-10.5 2.05-4.85 3.7-7.4.45-.95 1-1.8-1.95-1.55-3.8-7.05-1.6-4.45-1.6-5.8-.2-11.1-.2-12 0-4.95 1.85-9 2.05-3.6 2.85-5.1 0-.15.05-.3.15.25.15.45 0 .25-1.8 5.4.8-1.65 4-4.85 1.65-1.65 2.5-2.25.95-.7 1.8-.8-3.9 3.45-5.65 5.8-2.25 3.2-3.55 7.8 2.15-5.75 6.55-9.2 3.35-2.65 6.8-3.2-7.6 2.1-11.75 11.8-2.7 6.5-2.7 10.95 0 5.75.85 8.65 1.3 4.8 5.95 8.55-.1.15-.1.2 1.4.75 4 1.9 3.1 1.55 4.35 2.4.25-.6.4-1.3 1.9-2.35 10.7-7.2 3.25-2.4 3.25-4.45 0-.65-.1-.65-.3.1-.8.1-.3 0-4.35 3.3-4.4 3.6-5.25 4.05-.8.4-2.8 1.1-2.45.7-3.75.7-1.95 0-6.05-8.05-3.6-7.3-3.6-8.35.4-2.9 1.2-6.45 1.5-6.95 3.5-10.3 1.2-1.8 5.1-4.85 1.95-1.5 3.65-2.75 0-.55-.2-.55.6-.2 1.85-.55 1.8-.45 1.95-.45 1.05 0 5.15 1.1 4.1 1 4.95 1 .6-.3.85-.55-.7-1.15-1.55-1.8-1.75-1.1-5.5-1.1-7.8 1.25-10.15 2.15 4.55-3.7 13.45-7.5 0-.4-.05-.5-.2-.25-.8-.25-3.05 0-9.15 2.35-5.4 1.95-6.75 3.05l-.85.9q1.8-2.3 4.15-5.05 1.9-2.15 2.5-2.8m-23.2 48.85q2.55-2.85 6.25-7 .047 0 .05-.1v.15q-.45 6.95-11.3 12.75-10.65 5.65-22.3 5.65-.8 0-5-.25-4.4-.25-5.85-.4 7.25 0 18.05-1.65 9.85-1.55 12.75-2.8 2.35-1 7.35-6.35m-11.1 11.85q-6.65 1.85-17.7 1.85-11.45 0-17.5-1.85-3.2-1.65-4.35-2.05 9.2 2.2 11.65 2.5 4.8.6 16.4.3 1.55.1 8.3-1.25 7.55-1.55 9.35-1.8-2.7 1.35-6.15 2.3M192 127.95q-.3.25-5.15 6.5-5.55 7.1-11.8 12.85-10.95 9.75-32.15 14.5.3.25 1.65.4 1.3.15 2.1.15 14.3 0 29.1-13.35 11.55-10.55 16.25-21.05m45.65 18.7q-.15-.3-.4-.55-3.6 3.9-4.85 5.8-.6 1.15-.95 1.55l.2.55.3.15q1.7-.85 1.95-1.3.05.55.45 1l.35.25q.75-.7 1.95-3.3 1.4-2.95 1-4.15M180.1 78.8q-1.25-1.5-1.7-2.05.4 1.8.75 3.9.2.1.2.2 0 .2-.1.6-.1.1-.15.25.05.05 0 .05-1.25 2.45-7.2 9.55-.65.85-1.15 1.55 1.75-1.15 4.75-3.1 3.85-2.35 5.25-2.35 1.3 0 2.9 7.4 1 5.1 1.45 8.95v.3l.8-5.3q.05-2.5-.15-5.2-.25-2.15-.25-2.65 0-.6.1-.75.05-.1.15-.35.55.9 1 2.45.55 2.05.55 3.75 0 5.85-3.65 28.4.5-.75 4.05-4.95 3.05-3.65 3.45-4.55 2.7-5.6 7.7-8.75 4.8-2.9 10.5-2.9.55 0 .45.15-.2.4-.2.55.05.1.2.2h.35q.15.05.3.05l-.7.25q.4.05 9.35.15 7.75 0 11.5 2.25 5.5 3.45 7.45 5.8 2 2.6 2 6.55 0 2.35-2.85 6.45-2.85 3.95-2.85 6.25 0 .9 1.5 2 1.15.85 4.15 2.5 2.8-6.25 2.25-8.6.25 0 .3.95l.1.95q0 3.2-1.8 11.5-1.65 7.35-3.2 12.35 1.95-8.7 3.2-15.5l.1-.55-.1.1q-.8 2.65-2.9 11.8-2.25 8.45-4.85 9.75v.5q.1.15.7.15 2.3 0 5-6.75 2.45-6 4.25-14.3.15.4.3.55.15.15.15.8 0 .45-.45 1.65-.4 1.1-.4 1.55 0 .6 2.1 1.95 2.1 1.15 2.1 2.65 0 3-3.5 6.1-4.2 3.35-5.55 4.95.55.55 7.2.3 6.8.6 8.85 5.4-.4.4-5.35 2.8-4.15 2.05-4.15 3.5 0 1.2 2.15 1.75 4.05 1.1 7.35 2.8l.45.25q-1.65.3-2.1.55-.5.2-1.25.9l.05.35q.55 0 3.3.7 3.2 1 4 1.8l-.1.05q-5.45-.85-5.95-1.1.5.4.95 1.45.4.9.55 1.6-.15.1-4.15.25-3.9.1-4.15.1 2.75.9 9.25 1 4.85.1 6.85.7 0 .3-.3 1h-5.6q-3-.85-4.55-1.25-2.65-.7-6-.85v.15q3.75-.15 6.3 1.4 2.05 1.2 2.5 2.85l-1.1.45q2.75.4 6.35 1.75 3.15 1.25 3.9 1.95l-.3.35-11.8-3.25-.1.05q-.05-.05-3.8 1.25l-4.95 1.35q1.5.25 2.35.7 4.15 2.25 4.6 2.4 1.5.55 8 2.05 2.35.55 2.95 1.5.65-.25 1.5-.55 2.8-1.25 2.8-2.9l-.15-1.5q0-.35-.15-.75t-.15-.7q0-.4.55-.7.45-.25.45-.95 0-1.75-1.5-3.2-1.45-1.6-1.45-2.05 0-.3.6-1.25.65-.95.65-1.7 0-1.05-.25-1.5-.25-.55-1.1-1.1-1.15-.85-1.8-2.65-.45-1.2-2.5-3.3-1.5-1.55-1.7-1.95l-.4.4q-.65 0-.65-.65 0-.3 1.65-2.1 1.6-1.8 1.6-3.1 0-.1-1.6-4-1.55-3.9-1.7-5.65-.4-4.6-2.1-9.5-2.5-6.75-8.95-17.4-.15.1-.2.1-.65 0-.7-.45v-.5q.05-.2.05-.45.85-4.6.85-6.1 0-2.5-1.4-5.7-.55-1.25-3.2-5.95-1.7-2.95-9.6-5.65-6.4-2.15-8.75-2.15-3.6 0-5.25.35-.25.1-.3.1h-.1q-.25 0-.4.1-1.45.45-1.65.45-.2 0-.2-.1v-.05q.4-.65 1.45-1.05-2.1-1.45-3.25-2.15-.8-.4-1.65-.9-.15-.05-.25-.15-3.5-1.4-5.85-2.5-9.95-4.6-12.5-6.3-5.95-4.1-7.45-6.8-.9-1.8-3.2-4.55m72.85 98.75q-.2.05-.3 0l.65-.15q-.15.05-.35.15M156.8 243.3q-.15.05-.4.2.4-.05.65-.05-.15-.1-.25-.15m-22.05-.55h-.05l.05.05v-.05m.35-154.35q-2.35 3-2.35 3.85l-.2 1.4q0 3.15.9 7.9.9-2.8 1.15-3.6.5-1.4.8-2.4.4-2.2.85-4.55l.6-5.15q-.6.9-1.75 2.55m105.5 103.3h-.05q1.55.3 3.2 1-1.1-.8-3.15-1z"/><path fill="#795F49" d="M208.4 201.95l.1.05.05-.05h-.15m15.25 12.65q.1-.15.15-.25.1-.4.15-.75-.15.55-.3 1m-79.9-131.5h.15q.8-.1 1.65-.4-.45.15-1 .25-.4.05-.8.15m-17.1-29.4l.15-.1h-.1l-.05.1m28.75 16.5q.1-.25.25-.45h-.25q-.05.45 0 .45m-12.9-25.7v-.1l-.15-.1q.1.1.15.2m-13.75-5.75l.15-.2q-.25-.1-.4-.1h-.4q.15.1.35.15.15.1.3.15M226.15 188h.1v-.15q-.002.101-.1.15m-24.95 14.15l-.05.25q.45.25 1.1.3 0-.4.35-.75-.7.3-1.4.2m8.05-2.15l-1 .2v.15q.25-.15 1-.2.7-.15 1.95-.15 1.2 0 2.7-.35-1.8.15-4.65.35m-34.3-142.85l.1.05q.05-.15.15-.2-.15.05-.25.15M29.9 137.9l-.05-.1v.1h.05m-14.2 10.4q0-.3-.1-.65h-.15l.15.75.1.15v-.25m207.35 68.8q.05-.15.05-.25-.05 0-.15.1.1.05.1.15m-50-164.8l.1.05v-.2q-.1.05-.1.15m.4-12.05q-.45.25-.85.4l.15.25q.65-.65 1.4-.65l-.05-.25q-.3.1-.65.25z"/><path fill="#A2ADB8" d="M124.6 254.15l3.05.1q-1-.7-1.55-1.6l-1.5 1.5m.7-4.15q-.05-.2-.4-.3-.4-.1-.7-.15h-.25q-.05 0-2.25-.5 2.5 1.5 3.75 2.3-.05-.3-.15-.55.1-.55 0-.8m-14.45-3.5v.05q0 .35-.3.65-.2-.25-.35-.45-.75 2.65-3.5 12-1.9 6.25-2.75 10.4 3.6-7.55 4.15-9.15 1.9-4.65 3-11.1 2 2.6-2.6 12.15-2.6 5.55-4.4 8.25l-.3.5q-.85 3.75-.85 5.45 0 2.9.25 5.95h14.6q-3.05-1.5-3.05-3.35 0-.65.1-.7.05 0 .3-.15l.6-.1q.8.1 1.25.7 2.5 1 12.75 3.2-.05-1.85-.05-3.9 0-7.6.7-11.2 1-3.8 1.55-8.2.55 0 .8.5l.05.85-2 17.9v4.2q1.15.2 2.4.25h3.3q-.25-6.7.45-14.05.8-8.7.8-9.1l.05-.95q.25 0 .25.8v.25q-.1 3.8-.55 12.6l.25 10.45h12q4.1-.7 8.6-2.2 5.95-1.85 11.3-4.35l.2.85-.45.55q-2.9 1.85-12.05 5.15h21.6q-1.4-.85-3.05-2.4-3-2.85-3.9-4.85-3.25-6.6-3.3-7.15 0 .25.55 1.45-3-6.05-3-8 0-2.2.8-3.05l.1-.1q.05-.75.05-1 .25-.3.4-.3.1-.1.25-.1l.15.8q1.95-1.15 6.25-1.5l.45-.3-13.1-1.25h-3.55q3.3 2.5 5.7 4.3.8.8.8 3.05 0 1.35-.15 1.1l-1.95.55q-1.25-.95-8.3-2.5-1.4-.3-14.45-2.9h-16.5q-1.4.25-4.4 1.5-2.35.9-5.6 1.1-.4 0-.4-1.35 0-1.2 3.6-2.95 3.8-1.65 4.35-2l.55-.35q-4.2-2.35-5.15-2.85-1.3-.7-3.5-.6-.25-.7-1.8-3.05m17.2 7.1q-.3-.15-1.05-1.4-.7-1.25-1-2.2-.05.1-.05.25 0 .45.7 1.65.3.6.9 1.55.1.25 1.35.7-.45-.3-.85-.55z"/><path fill="#666D74" d="M137.75 258.05l.3-.15q0-.8-.25-.8l-.05.95m-33.8 11.1q-.15.35-.15.65l.3-.5-.15-.15z"/><path fill="#537070" d="M121.4 99.05l.25.15q-.1-.15-.25-.25v.1m-21.05 98.6v-.25q.1-1 .15-1.7-.05-.1-.05-.2l-.25 1.8.15.35m7.85-84v-.15l-.15-.3q0 .6.05.6l.1-.15m25.95 28.45l-.3.1q.3 1 .6 1.9l.25-.35q-.35-.85-.55-1.65m3.2-18.35v.1l.05-.1.1-.3q-.1.05-.15.3m-.65-1.4l.1-.25-.15.15q.05 0 .05.1m1.35.25h-.1v.2h.2l-.1-.2m29.1-4.65l-.1-.05-.15.45.25-.4m36.4 16.65q0-.2-.15-.45-.05.15-.05.3l.2.15m-4.75 29.35l.05.05v-.15q-.003.1-.05.1m11-59.8l-.05.3.7-.25q-.15 0-.3-.05h-.35z"/><path fill="#82AFAF" d="M100.35 197.65l-.15-.35-.15 2.05q0 .95.25 1.95l.05-.3q-.05-1.4 0-3.35m-38.85-26.7l3.05 1.2q.85.3 1.75.7 2.3.4 4.5 1.25 2.9 1.15 5 2.75l1.35-.15q-2.9-2.7-3.45-3.55.8 0 1.1.4-.7-1-1.55-1.5-1.9-.9-4.15-1-5.15-.1-7.6-.1m2.45-7.5q-.1.15-.1.4H64q-.05-.25-.05-.4M75.8 131.7q-4.35 4.5-7.55 13.1-.9 2.35-1.6 4.6.9-2.5 2.15-5.25 3.5-7.9 7-12.45m5.1-17.9q-.65.9-1 1.75-.15.25-.25.6.55-1.25 1.25-2.35m53.95-30h-.25q-.3.4-2.35 2.6l-.2.2q-1.6 1.9-4 4.55l-.3.4q-.9 1.1-1.9 2.65-1.7 2.65-2.35 3.45l.1-.95v-.1q-.65.55-1.75 2l-.2-.25q.45-.65 1.05-1.35l-.7.1q-2.5.95-9.75 2.35-8.5 1.55-11.4 2.15l-2.5.65q-3.15 1.15-6.6 3.2-3.65 2.2-5.95 4.3-4.6 4.25-5.9 10.1-.7 3.05-1.45 8.9.2-.15.35-.3 0 .05.15.15.05.1.05.4-3.55 5.25-7.25 11.7-7.25 13-7.25 21.45l.45 1.45q0 .55-.15.55 0 .1-.1.2-.15.2-.45.2-.1-.05-.1-.15-4.15.45-5.05 2.45-.25.5-.5 1.3-.15.65-.3 1.1-.05.15-.05.4l1.75.7q.35-.25.35-.3 2.4-.35 3.9-.35 3.3 0 6.25.9 3.3.9 4.3 2.4.8 0 3.05.85 2.2.8 3.85 1.6-.9-2.55-4.15-4.7-3.45-2.2-7.15-2.65-1.25-.2-5.05-.5-2.05-.15-2.6-.4 1.2-.75 2.9-1.3 1.65-.55 2.35-.55 2.1 0 5.7 2.2 2.75 1.55 4.7 3.25.6-.45 2.8-.2-1.45-2.15-5.3-4.15-3-1.75-5.1-2.2 3.7.45 7.05 2.6 3.2 1.85 4.55 3.95l1.1.5q1.4.6 2.4 1.25l1.15.85q-1.7-1.75-4.75-5.3l-1.1-1.05q-.55-.3-4.75-3.05-3.2-1.3-6.1-2.5-.85-.3-.85-.55 0-.6.05-.6 0-.1.1 0h4.05q.55.15 6.65 2.2 4.15 1.4 5.25 1.4 1.7 0 2.25-1.4.15-.5.15-1.6 0-2.1-1.95-11.65l.25-1.65q-.85-1.3-1.75-2.85-1-1.8-1.05-1.9.05-.05.45.1.15.05.3.15 1.35 1.15 2.45 3.6l.05.05q.25-1.4-1-4.6-1.4-3.75-1.4-6.8-.25-1.9-.25-3.85 0-3.9 1.4-4.65.8 1.3 1.1 6.85.15 2.5.15 5.15v.7q.1 0 .15-.2.15-.55.5-2.6 0-.25 1.1-14.3h.2q.15.8.15 1.65 0 .15-.7 9.35 2.6-7.1 3.55-7.5.15.1.2.35h.25q0 2.55-.7 6.15-.55 6.9-1.25 18.6v2.2q.95 13.75 6.2 20.5 4.8 6.1 14.5 7.9 0 .35-.3.85-1.4.45-5 .7l.4.8 1.5 1.75q-3.95 4.55-4.65 6.5-1.25 3.15-1.25 10.25.35 1.35.9 3.05.85 2.75 1.25 4.6v.1q.15 1.1.15 1.85 0 .2-.4 1.45.25 4.05 2.5 10.45 2.8 7.8 4.9 10.65-.15-2.45-.2-4.25 0-3.4.6-4.2l.5.6q1.4 2.75 2.55 5.2.95 1.95 1.05 2-1.9-4.45-2.05-5.05-.85-3.45-.85-10.25 0-2.45.45-6.05.7-4.45.8-5.75.3 0 .45-.1 1.9 18.85 3.75 23.85.85 2.35 2.5 4.2 1 1.25 3.75 4.1.65-.65 1.25-1.2.1 0 2.75 1.5 2.75 1.5 4.15 1.65l-1.1-1.9q-3.15-2.95-4.75-10.45-1.1-5.1-1.1-9 0-5.8 3.05-14.8 3.05-8.95 3.05-14.05-.9-2.75-1.75-5.4-1.7-5.45-1.7-9.05 0-2.9 2.1-6.2 2.2-3.35 2.2-3.5 0-1.75-1.2-5.65-1.1-3.8-1.1-4.3 0-.85.65-1.8.7-.9 4.75-6.7-.15-1.1-1-4.05-.3-.9-.6-1.9-1.5-4.3-1.5-5.15 0-5.35 2-8.55 2.35-3.75 3-4.75.05-.25.15-.3-.8-.7-1.9-1.6-2.65-2.1-10.15-8.35-1.15.1-5.85.7-4.55.65-5.3.65-2.85 0-3.95-.25-1.3-.25-2.1-1.1h-.05v.15l-.1.15q-.05 0-.05-.6 0-.3 3.9-3.9 5.15-4.85 9.45-10.25v-.1q.15.1.25.25-.25 1.65-5.35 7.25-4.9 5.35-6.55 6.2.8-.15 8.6-2.8 6.7-2.3 8.65-2.3.35 0 3.3 4.65 4.25 6.6 5.25 8.1 1.15.85 1.8 1.05-1.5-4-3.3-12.4-2.2-10.35-2.2-15.45 0-.8.35-1.65 0-.55.9-1.85.25-.4.55-.8 3.05-4.25 3.4-4.75l.05-.4q-1.65-.15-2.25-.25M93.7 126.95q0-1.55.65-3.05l4.55 11.05q1.4 3.5 4.2 7.5 2.35 3.2 3.7 4.35l-.2.65-.2.15q-1.35 0-4.4-2.75-2.8-2.9-3.2-3.3.3.55 1 2.2.15.4 2.45 3.4-.15.6-.95.7-3.3-1.45-5.65-9.85-1.95-6.75-1.95-11.05m148.15 55.65q-1.6 0-1.8-.2l.5-.15q.05-.1 2.5.05 1.25 0 2.4.1.25 0 4.15-.1 4-.15 4.15-.25-.15-.7-.55-1.6-.45-1.05-.95-1.45l-.75-.6-9.1-.15q-5.4 0-10.15 1-1.95.5-5.15 1.5-2.25 2.75-2.6 3.1-.7.5-2 1.65.45 0 .9-.05l10.65-.15q4.15-2.3 6.1-1.25 1.25.6 1.25 2.15 0 1.1-1.65 3.2-.75 1.05-1.55 1.75 2.35-.15 3.9.15l4.95-1.35q3.75-1.3 3.8-1.25l.1-.05q-4.15-1.2-4.85-1.35h1.4q0 .1 5.3.55l1.1-.45q-.45-1.65-2.5-2.85-2.55-1.55-6.3-1.4V183q-1.35-.3-3.25-.4m-1.8-63.4q0-3.95-2-6.55-1.95-2.35-7.45-5.8-3.75-2.25-11.5-2.25-8.95-.1-9.35-.15-13.75 6.5-15.75 10.8-.5 1.25-1.4 3.75-1.15 2.5-4.45 5.4 1.9-2.2 3.45-5.5 1.95-4.15 2.65-5.25 3.9-5.95 15.35-9.7 0-.15.2-.55.1-.15-.45-.15-5.7 0-10.5 2.9-5 3.15-7.7 8.75-.4.9-3.45 4.55-3.55 4.2-4.05 4.95l-.25 1.95h-.65q-.2.3-.55.55l-.3.05q-14.3-6.1-16.55-7.05-2.05-.85-4.45-.85-10.5 1.65-13.85 3.45.4.55-4.55 8.6-5.15 8.15-4.05 10.85-.55 2.15-.85-1.3-.25-2.45-.25-5.1 0-3.85.85-6.65.7-1.95.7-2 0-.35-.3-1.05-.55-.95-1.25-2-.65 1.95-2.6 7.85-1.65 5.05-1.65 5.35 0 1.55 1.05 4.9v.15q.2.8.55 1.65.85 2.35 1.65 4.55 0 .45-2.75 4-2.65 3.6-2.65 4.5 0 .1 1.1 3.95 1.15 4.1 1.15 5.7 0 1.85-2.2 4.45-2.1 2.55-2.1 5.3 0 3.3 1.7 8.75 1.75 5.65 1.75 6.5 0 5-3.05 13.35-3 8.3-3 15.6 0 7.25 1.9 11.25.95 2.1 2.5 4.15.25.05 1.65.85 2.4 1.15 7.1 2.4h6.35q.85-1.7.85-3.4 0-.95-.85-2.05-.85-1-.85-2.6 0-.7.05-.85.15 0 .65-.1.2.1 3.75 1.9 3.8 1.95 5.4 2.6 1.95.7 3.75 3.2 2.15 3.1 3.1 3.9 2.65-5.7 2.75-5.95 1.3-2.75 1.85-2.75t.7.35q.25.2.35.2l.45 4.15.4-.6.3-.9q1.75-3.9 3.15-8.25 1.7-5.15 1.7-7.2.95.05 1.4.95.4.85.65 3.05h.15q1.25-3.85 2.4-7.55 2.3-7.15 2.3-8.8-2.5-.55-3.3-1.55-.4-.5-.4-1.6t1.65-4.3q.85-1.55 1.7-3.05 0-1.15-4.9-2.55-6.25-1.75-8-2.75 2.15-1.1 9.25-3.9 6.8-2.75 7.45-3.05-2.55.3-4.7.55-4.3.4-10.95.4-12.75 0-23-2.05-8.65-1.7-8.65-3.15 0-.55.05-.6.1-.1.1 0l.55-.15q23.1-1.2 37.65-7.3 10.55-4.45 16.9-11.7 2.25-2.6 2.9-7.45.6-8.2 1.55-15.95.55-3.95 2.45-7.75 1.85-3.25 2.1-4.1l.3.35q.1.2-.15.8-.25.45.3.45.25 0 .4.1-.15 1.35-1.7 7.8 0 .95.6 3.7 1.35-7.85 7.35-13.2 4.3-3.95 8-4.85l.05.6q-.6.65-2.5 2.8-2.35 2.75-4.15 5.05l.85-.9q1.35-1.1 6.75-3.05 6.1-2.35 9.15-2.35.6 0 .8.25.05.1.05.5-8.9 3.8-13.45 7.5 2.35-.9 10.15-2.15 3.75 0 5.5 1.1.85.65 1.55 1.8-.25.25-.85.55-.85 0-4.95-1-4.1-1.1-5.15-1.1-.15 0-1.95.45-1.25.35-1.85.55.2 0 .2.55-1.7 1.25-3.65 2.75-3.9 3.05-5.1 4.85-2 3.35-3.5 10.3-.8 3.55-1.2 6.45 0 1.05 3.6 8.35 4.1 8.05 6.05 8.05 1.3 0 3.75-.7 2-.7 2.8-1.1.85-.45 5.25-4.05 4.05-3.3 4.35-3.3.5 0 .8-.1.1 0 .1.65 0 2.05-3.25 4.45 2.2-.95 2.6-.65-.15.2-3.05 2.15-2.9 1.8-3.5 2.15-1.75 1.6-2.9 2.6-.95.7-1 .7l1.55.1q2.8-.85 9.3-1.65.7 0 2.25.25 1.5.05 1.95.2l-10.75 1.4q1.75-.15 3.35 1.05-.15.6-1.8 2-1.95 1.5-2.6 1.95.85 0 2.35-.45 1.9-.7 3.05-.95l-.8.55q.5-.2 1.25-.75 1.05-.65 2.9-1.05 5.55-1.15 20.95-1.3l-.05-.35q.75-.7 1.25-.9.45-.25 2.1-.55l-.45-.25q-3.3-1.7-7.35-2.8-2.15-.55-2.15-1.75 0-1.45 4.15-3.5 4.95-2.4 5.35-2.8-2.05-4.8-8.85-5.4-6.65.25-7.2-.3 1.35-1.6 5.55-4.95 3.5-3.1 3.5-6.1 0-1.5-2.1-2.65-2.1-1.35-2.1-1.95 0-.45.4-1.55.45-1.2.45-1.65 0-.65-.15-.8-.15-.15-.3-.55-1.8 8.3-4.25 14.3-2.7 6.75-5 6.75-.6 0-.7-.15v-.5q2.6-1.3 4.85-9.75 2.1-9.15 2.9-11.8l.1-.55-.25-.55q-2.25 4.6-4.4 7.25-1 1.25-3.75 3.55 5.9-7.2 7.45-10.9-3-1.65-4.15-2.5-1.5-1.1-1.5-2 0-2.3 2.85-6.25 2.85-4.1 2.85-6.45m-2.8 26.9q.25.25.4.55.4 1.2-1 4.15-1.2 2.6-1.95 3.3l-.35-.25q-.4-.45-.45-1-.25.45-1.95 1.3l-.3-.15-.2-.55q.35-.4.95-1.55 1.25-1.9 4.85-5.8m-50.4-11.65q4.85-6.25 5.15-6.5-4.7 10.5-16.25 21.05-14.8 13.35-29.1 13.35-.8 0-2.1-.15-1.35-.15-1.65-.4 21.2-4.75 32.15-14.5 6.25-5.75 11.8-12.85m-16.1-41.6q-1.8 2.45-2.85 3.75-2.4 3-5 5.2l-1.8 1.45q-.05.1-.15.15-11.35 9.15-12.8 10.25-.1.1-.15.1-.1 0-.1.05l-1.35 1.05q-2.15 1.45-3.25 2.55-2.45 1.95-3.05 2.5-.65.5-.85.65-.4.3-.5.6v.55q1.1-.7 3.7-1.8l6.8-2.95q2-.95 5.6-3.7 3.05-2.3 3.35-2.3.35 0 2 1.25 1.55 1.15 2.95 2.3l7.1 5.25h.1q.7.35 11.55 4.85-.05-2.75 1.2-10.1 1.1-6.05 1.85-10.75-.45-3.85-1.45-8.95-1.6-7.4-2.9-7.4-1.4 0-5.25 2.35-3 1.95-4.75 3.1m81.9 84.7q.1.05.3 0 .2-.1.35-.15l-.65.15M240 191.6l.55.1h.05q-.3-.1-.6-.1z"/><path fill="#C99D7A" d="M160.95 103.4q.1-.05.15-.15l-12.95 10.4q1.45-1.1 12.8-10.25m-123.7 36.7q0-.1.1-.15l-.95-.8v.15q.4.4.85.8m.25-5.55q-.15-.55-.3-1.2-.95-3.4-.95-6.7-.05 1.1-.05 2.25 0 2.65 1.3 5.65m-6.5-.25h.35q-.25-.3-1.35-1.1-1.15-.95-1.5-1.1v.1q1.1.85 2.5 2.1m-24.45-.05h.1l-.1-.75h-.1v.2q0 .2.1.55m3.2-10.65l.1.05H10q-.15-.05-.25-.05m-8.5-2.1q-.5.85-.5 1.4 0 1.8 3.05 5.3 1.9 2.2 2.6 3.5l-.65-8.05.1-1.55q-.4-.25-1.25-.6v.15l-.55.05q-.8-.3-1.2-.3l-1.6.1m.55-1.1q-.55 0-.7.05l-.5.35v.2q.95-.85 3.35.15-.05-.05-.2-.15-1.6-.6-1.95-.6M122 65.05l.95 2q-.55-1.3-.85-2.25-.1.1-.1.25m2.75-3.15l.15.4.15-1.25-.3.85m4.7 3.6q-.25-.15-.4-.8-.4-.9-.55-1.3l-.95-.25 2.05 3.15-.15-.8m5.45-16q.2.2.2.55.05-.55.05-1.1l-.25.55m12.35 11.55q-.7-.7-5.45-4.6 0 .85-.4 1.45-.45.65-1 .65-.65.3-2.05.55-1 .15-1.95.25-.4.35-1.3.85-1.05.6-1.6.95.1.2-.05.35-.95 0-3.15-.7-1.95-.6-3.05-1.1l-.4 2.3q8.3.85 10.9.85 5.45 0 7.5-.65 1.1-.3 2-1.15m4.8-44.25l.05.3q.55.65 3.4 2.65l-.35.5q-4.6.2-5.55.2-5.15 0-10.7-1.6-.05 0-.15-.1l.15.25q.15 0 .55.4.3.3 1 .9 1.35 1.2 1.6 1.5-.25.45-.7.7h-7.15q-4.9-1.5-7-2.25-2.85-1.1-4.1-2.3-.45 1.45-1.4 3.95-.55 1.55-1.1 5.45-.3 1.2-1.1 5.55-.2 1.35-.35 2.35 1.4-2.95 4.6-2.35 4.15.85 6.3 1.4 2.15.65 2.5 1.25-.5 1.2-.7 1.35-.15.3-.7.15-3.9-.65-8.8-.65-.55 0-1.95 1.2-.95.8-1.45 1.15.25.55.7 1.65.95 2.1.95 3.75 0 1.5-.4 3.7-.45 2.2-.45 2.65 0 .8 1.1 3.45.95 2.35 1.1 4.6.7-1.1 2.5-3.2.05 0 .45-.1.15-.05.15.55l-1.25 3q-.85 2.15-1.3 4.3.55 2.4 1.8 5.3 2.35 5.3 2.35 6.15 0 1.6-.25 3.15 0 1.95 2.5 3.2 1.35.7 5.15 2.1.3-.35 1.25-.35 4.45 0 4.95.45h3.5q.4-.1.8-.15.55-.1 1-.25 1.25-.55 2.6-1.65.3-.3 1.3-1.65.25-.2.4-.3 0-.25.1-.4.05-.35 5.45-9.35l.85-5.25q-.75-2.5-1.4-4.15-.95-2.65-3.1-4.75.45-.15 1-.25 4.6-1 5.25-2.6.55-1.4.55-3.1 0-.15-.55-2.6-.55-2.55-.95-3.9-1.5.8-2.1 1.4-.8.7-2.65 1.95-1.05.65-2.6.65-1.5-.1-2.2-.55h-.15v.05q-.1.4-.15 0-1.2.25-2.75-.45l-.6-.3q-.8-.5-1.35-1-.05-.1-.15-.2l.15.1q1.1.8 1.4.95 1.65.7 3.3.3l1-.25q.7-.2 1.8-.7.4-.15.7-.2 1.65-.8 2.35-1.35-.45.3-1.7.4h-.55l-4.25.05h-.6q-.7-.05-1.75-.15-.85 0-1.6-.55l.15-.85q-1.65.65-2.2 3.15-.65 2.5 1.1 4.6-1.4-.85-3.05-1.4-.15 1.85-1.5 3.6-1.3 1.6-1.3 2.55 0 2.65 2.5 2.65 1.15 0 1.55-.6.3-.55.15-1.9-.25-.15-1.4-.6-1.25-.55-1.4-.65l.55-.2q.85-.35 1.55-.15.25 0 .8.15.15 0 .3.05.75.3 1.3.65-.15-.25-.7-1.4-.6-1.35-.6-1.6l.05-.3q1.5 2.2 9.1 8.5.75 0 .95.2.15.05.15.7 0 1-.55 3.9l-.35-1.25q0 2.8-.9 5-1.1 2.35-3.05 2.95l2-5.4q-1.15 1.6-2.25 2.45-2.05 1.8-4.15 1.8l-9.7-.25q-.9-.3-1.45-.85v.45q0 .95-.1 1.1h-.45q-.8 0-1.75-1.1-1.45-1.6-2.7-5.3-.65-.55-.8-.8-.25-.3-.25-.9l.85-1.65-.2-.1q.05-.4.75-1.4.35-.45.5-.85-.5-.25-.55-.65-.1-.05-.1-.9 0-1.95 1.2-2.6l.05-.1h.1v.35q0 .2-.4 1.1-.4.75-.4 1.25.95 0 1.55.2-.55-.85-.55-1.55 0-1.95 2.05-6.25 1.65-3.45 1.95-5-.05 0-.05.05-.65 1.45-1.2 2.05l-.55.55q-1.25 1-3.2 1-.95 0-1.8-.85-.6.15-1.25-.6-.7-.95-.75-1.1-.1-1.1.5-.3.4.3 1.1 1.3.55-.25 2.75-.4.25-.05.45-.05.25-.1.5-.15 1.55-.5 2.55-1.5l-5-.4-2.15-.15-.1-.4q.1-.7.3-1.25-.6.45-1.55 0-.15-.05-.3-.25-.1-.05-.1-.6 0-2.9 5.4-2.9.85 0 2.75.55l-.85.1.05.05q.15 0 .4.1 1.25.3 2.1 1.65.7 1.3.7 2.95 0 1.4-1.95 5.7-1.55 3.5-1.85 5.4.05-.1.05-.15.1.05.25.25v-.25q.3.25.85.85.7.7 1.55.85h1.65q1.35-.95 1.8-2.35.15-.35.25-.7.15-1.7.4-2.7.4-4 .45-5.25-.05.45-.25 1.15-.15.55-.3.55.5-2.75.7-3.6.4-1.1 1.1-1.85.85-.5 1.65-1.2 1.15-.6 4.75-1.45l.15.2q1.5-.15 6.5 0 4.55-.15 5.5-1.45-1.25.15-3.55-.8-2.35-.95-3.65-.95-1.4-.05-4.4.55-3.05.55-3.5.55-.65 0-.8-.1l-.4-.2h.1q.1-.8.45-1.4.35-.65 4.1-1.9 3.65-1.25 6.15-.55 2.45.8 6.5 2.5 3.6-10.8 5.1-14.85-2.35.45-5.55-.85-2.75-1.25-3.45-2.35m-9 54.55l.15.4q-.7 1.25-3.2 2.35-2.25 1-4.15 1-3.45 0-5.05-.75-1.05-.65-1.05-1.2 0-1.6.4-1.8l-.25-.55 3.3 1.2q3.65 1.1 6 .7 3.15-1.35 3.85-1.35m7.35-55.2l-.15-.35-.3-.1.45.45m61.85 173.75q-1.25 1.25-1.95 1.4l-5.1.8q-5.1.7-7.75 2.5-2.35 1.45-2.35 3.4 0 1.05.65 5.2v.7l.15.05q.1.5.1.85.55.1 1.45.25l1.35.5-.15.15q-1.05-.4-2.65.05-.25 1.4-1.1 2.8.35.1.9 0l1.25-.05-.35.3q-1.25-.05-2.05.1-.95 1.25-2.5 2.4.85.25.85.65l-.05.15q-.9-.25-1.5-.25-3.5 2.35-4.45 3.3-.1.15-.1.3 0 .45.1.7.15.1.3.15 2.5-.3 4.3-.75 4.6-2.7 6.25-5.55 1.1-1.9 2.5-5.2.1 0-.15.65.4-.95.8-1.5.7-.7 1.4-1-.1.15-.25.45l-1.25 3.15-.05.05v.2q-.35 1.3-.75 2.1 1.1-.55 2.2-.85-.6 0-.75.05l.75-.45q.65-.25 1.5 0 0 .15-.85.2-.35.1-.5.2l-.05.05-.8.4q-1.1 1.1-2.75 3.3l1.2-.4q1.15-.1 1.85 0-1.55-.1-3.4 1.3-.9.9-1.45 1.35-.3.4-.45.8-.05.2-.15.55-.1.15-.1.2 0 .3.4.65.4.3.7.3 6.25-2.9 7.2-5.85.3-2.15.7-3.45.55-2.5 2.1-5h.1l.3-.15q.85.05.65-.1l-.1-.05h.15q.35-.1-.05.3l-.55.4q0 .7-.95 3.65.8-.3 2.25-.4h1.5l-1.25.25q-1.4.3-2.8 1.1-.85 2.8-2.3 5.55.35-.25.55-.3.55-.8 1.45-1.4 1.75-1.1 3.8-.55l-1.7.35q-1.9.35-2.9 1.9v.15l-.4 2.45q0 1.3.1 1.6.3.9 1.4 1.5.05 0 .2.1h2.45q1.55-1.8 2.35-4.8 1.15-4.75 1.25-5.05.05 0 .4-.1.05-.8.2-1.95.5-2.6.65-3.05l.6 1.8q1.05 2.9 1.95 5.8.1.15.25.45.85.55 1.2 1 0 .1.35 1.95.65 1.9 2.2 1.9.3 0 .55-.25.25-.3.5-.3l.45.1.1.2.05-.05q.65-.5 1.2-1.5 0-.1.05-.15.15-.45.3-1 .15-.95.4-1.9 0-.15.1-.3 0-.25.05-.5l.1-.3v-.4q.002-.725.05-1.45l-.3-4.25q0-1.25.1-2.2v-1.15q-.15-3.15-.1-4.15-1.3-.4-2-.55-1.5-.4-3.85.25 1 .05-2.1 1.4-1.9.8-3.2.8-3-.25-7.15-.25-2.7 0-5.95 1.1-2.55 1.1-2.65 1.1h-.55q0-.1.15-.1 0-.05-.2-.15v-.55q0-.6 2.2-1.5 3.4-1.3 4.6-2 .2-.1 1.1-2.05.75-1.65 3.25-2.1.55.85.55 1.4l.4.8q.7.35 2.35.75 1.5.35 2.45.35 1.7 0 2.95-1.1 1.8-1.65 2.95-2.15-1.45-1-1.45-1.25l2.85 1.05q1.5-.1 2.15-.95-.65-.45-1.05-2.05.35 0 .8.55l.65.8q.15-.15 1.05-.15.5-.1.95-.1.1-.55.25-1.4.15-.6.3-.95.098-.049.1-.15v.15q-.4 2.2-.4 2.35l6-.05q0-.4.15-.7l.25.7q1.2-.1 4.25-1.65 2.85-1.55 3.9-2.75-.1-.25-.25-.6-.15-.4-.3-.65l-.15-.15-1.9.05q-.25.5-1.1.95-1.15.55-2.55.65h-11.1q-4.5.4-6.35.95-.8.15-2.45 1 .4-.4.75-.7h-.1q-2.2 1.95-2.65 2.5m5.8 7.95l1.45-.2q.85.15 1.55.3-2.1.4-4.3.95.55-.4 1.3-1.05m4.8 12.35q0 .35-.05.5-1.5-1.05-1.55-1.05-2.15 0-3 .9-.45 1-.6 1.15l-.1-.1q-.05.4-.05-.5l.45-1.05q.8-.95 2.35-.95 1.15 0 2.55 1.1m-2-9.15q-1.05-.55-1.1-.55-1.5 0-2.6.65-1.25.7-2 2.1v.1h-.1q-.15 0-.05-.55l.15-.55q.05-.65.35-1.1v-.1q.55-.75 1.75-1.05.6-.2 1.4-.2.65 0 3.6 1.35.25.15.6.3l-.2.1q-.55 0-1.6-.4-.15 0-.2-.1m-4.45 5.9q0-.7 1.25-1.5 1.45-.8 3.1-.8.95 0 1.25.9-.05.05-.55-.2-.6-.3-1.1-.3-1.7 0-3.75 2.35h-.15q-.05.45-.05-.45m-8.15-6.75l1-.2q2.85-.2 4.65-.35-1.5.35-2.7.35-1.25 0-1.95.15-.75.05-1 .2v-.15m-4 .55q-.15 0-.4.1 2.35-1.05 4.1-.55-2.05.45-3.7.45m-3.25 1.1q.05.1.2.3.7.1 1.4-.2-.35.35-.35.75-.65-.05-1.1-.3l-.15-.15-.25-.1q-.85 0-2.35.25-1.4.25-1.8.4l-.15-.7q.3-.1 1.95-.25 1.35-.15 1.95-.15.55 0 .65.15m-37.3-119.4q-.8 2.35-1.25 3.75-2.65 11.75-5.7 17.2-2.3 4.1-4.3 4.1h-.5q.1-.4-.2-2.75-.5-3.3-.9-5.55.25-2.6 0-4.6-.45-3.9-2.85-4.45-.8-.1-5.25-2.7 1.15 2.6 6.5 6.2.2.15-.75.15l-1.3-.25q.25.95.25 1.45.15 1.25.05 6.6 0 1.1-.3 2.6-.3 2.05-.95 3.05l-.8-1q-.45-.65-.5-.85-.2-.25-.2-.9 0-.9.55-2.4.55-1.35.55-1.5 0-4.75-4.15-11.1-3.1-4.15-3.95-5.45h-.4q.25.45.25 1.45 0 .7-.1 2.15-.4 2.15-.7 4.05.05 1.85 0 4.55 0 .75-.15 9.5 0 .95 1.3 7 1.2 5.05 1.25 6.55 3.25-2.35 3.7-2.75 1-.95 3.1-2.4 1.25-.9 3.7-2.6 8.45-6.5 12.5-10.25 2.2-3.9 3.2-7.1 1.25-3.9 1.25-8.75 0-.65-.45-2.35-.7-2.45-1.1-5 0 .3-1.4 4.35m-157 38.5q-.15.2-.25.6-.2 1.2-.15 4.1.1 2.95.4 6.6.15.4.15.7l-.05.5v.05q.05.35.05.75 0 .2.1.45.3.8 1.25 2.5.7 1.35 1.1 2.1.2-1.8 1.65-4.05-1.35-.8-2.45-6.35-.95-4.7-1.15-7.4-.2-.25-.35-.4-.15-.25-.3-.15m38.85 43.3q-1.1 4.75-1.1 5.65 0 4.2 2.75 8.05 2.75 3.95 9.4 8.8 4.85 3.6 10.25 6.05 5.2 2.4 9.6 3.1h4.45q.15-1.4.15-2.4 0-2.05-2.5-5.65-.1 0-4.2-5.3-2.7-3.3-6.35-6.35-1.4-1.1-3.5-2.65-4.1-1.55-6.65-2.6-.35.2-.65.2 0-.25.1-.4-1.5-.65-2.35-1.1-2.5-1.25-5.55-4.85-2.35-2.8-2.9-4.6-.15 1.1-.95 4.05m-29.6-22.75l-.5-.15q-.15.6-.4 1.4-.15.6-.15 1.15 0 1.1.55 1.8.15-.05.7-.45.55-.45.55-1.25 0-.55-.2-1.15-.4-.8-.55-1.35m-1.05-8.35q-2.35 0-3.9 2.8-1.1 1.85-1.5 4.2v.25q0 .65-.2 2.35V142.9q.05.65-.1 2.6.1 1.4.3 2.5.25 1 .7 1.7l.1.1q.45.85 2.2 3.1.3-1.45.45-2.1.25-1.15.1-2.05-.1-.7-.7-1.1-.9-.7-1.05-.9l.4-1.4.15-.25q.5-1.1.25-2.05-.4-1.1-.55-1.8-.45-2.55 3.35-8.1m-1.7-4.45q-1.25-1.45-2.5-2 .05.55.55 3.55.45 2.9.6 3.45.5-.35 1.1-.95.5-.4 1.1-.4 1.25 0 1.95 1 .8 1.1.8 3.2 0 .5-.3 1.9l-.25 1.15q1.1-.3 2.75-1.55 1.25-1 1.95-1.7l-.1-.1q-2.8-1.25-4-2.4-.2-.35-1.55-2.3l.15-.2q-1.55-1.8-2.25-2.65m3.9 0q.3-.5 1.8-.65-1.65.3-1.8 1.8 0 .8.15 1.7 1.8.8 3.85 1.75 1.3.45 1.8.45l1.4-1.1q1-.75 1.85-1.15l-.05-.1q-2.05-1.65-3.05-2.35-1.65-1.25-3.6-1.95-8.35-2.7-9.55-3.2.25.65.7 2.25 2.45.95 3.55 1.8.75.55 2.8 3.45-.3-2 .15-2.7m29.55 16.55q-.8-4.05-3.6-11.65-.25-.55-4.75-11.9-1.1 2.3-1.2 2.7-.05.3-.05 2.15 0 4.4 1.8 10.25 0 .4-.5 2.05-.45 1.65-.7 2l-.15-.15q-.15.1-.4.1-.15 0-.7-.4-.05.15-.05.3-.25 1.15-.9 2 .95-1.15 1.1-.8-1.95 3.9-2.25 4.85-.25.75-.25 3.2 0 1.15.35 3.25 1.1 2.75 2.55 4.95 1.35 2.2 1.4 2.6l1.45 1.05q0 .1-1.05-.35v.6q0 .7-.3.85-.15.15-1.1.15-1.5 0-4.55-1.7-3.05-1.65-9.9-6.1-2.65 3.85-4.1 3.85h-.45l-.05-.1q-.1-.05-.1-.6l.55-.7q.7-.7 1.1-1.6-.95.35-2.45.65-.55-.1-1.55-.55 4.4-1.55 5.4-2.45l1.65-3.2q.15-.75.3-2.4.1-1.5.1-1.55-.25-.4-.4-.65-.15-.3-.15-.85 0-.15 1.15-1 1-2.45 2.2-3.25 1.65-1 1.8-1.25.6-.85 1-3.4.25-1.2.8-1.65-.85-.8-1.55-1.4-1.65 2.15-4.15 2.5l.2.05q-.6.4-1.7.7 0 .55-.4 1.05v.15l.4-.55q.25.95.15 1.1-.25.2-.6.7 0 1.25-1.05 2.2-.95.75-2.25.9.15.15.3.65.25.85.25 1.5 0 1-.55 1.45 0 .7-.85 1.25-.95.5-2.2.5l-.1.3-.75-.95q.6 1.25.75 1.75l-.15-.75h.15q.1.35.1.65v1.15q-.15 1.1-.55 1.9-1 2.35-1.9 2.5 1.05 1.35 2.35 3.05 2.9 4.2 5.25 6.35.25.2.55.45.7.3 1.9.85 3.8 1.35 9.2 1.35 4.75 0 6.1-.3 1.7-.5 2.6-2.45 1.85-7.75 5.45-17.9M229.9 193.1q-2.4.7-3.6 1.25 3.55.85 10.55 2.5 6.45 1.25 12.35 1.25 1.35 0 1.75-.3.4-.35.45-1.65-2.2-.8-4-1.25-.7-.25-3.5-2.1-.1 0-.15-.1-1.65-.7-3.2-1l-.55-.1q-1.1-.05-2.35-.05-.65.45-1.25.6-.3-.15-.4-.3-.95.15-2.5.4-1.3.15-3.6.85z"/><path fill="#432121" d="M149.4 61.85v-.1q-1.6 2.1-4.3 3.5-2.3 1.25-3.45 1.25-7.35 0-10.35-.35-1-.25-1.85-.65l.15.8q.25 1.55.4 1.8h.15q0 .15.1.3.55.55 1.45.85l9.7.25q2.1 0 4.15-1.8 1.1-.85 2.25-2.45.8-1.15 1.6-3.4z"/><path fill="#FFF" d="M149.4 61.75l-.55-.85q-.95 1.55-2.1 2.2-2 1.15-8.85 1.15-.7 0-4.7-.3-3.9-.4-4.7-.55.15.4.55 1.3.15.65.4.8.85.4 1.85.65 3 .35 10.35.35 1.15 0 3.45-1.25 2.7-1.4 4.3-3.5m-3.6-19.25q0-1.15.75-2 .2-.15.35-.25-.95 0-2.3.55-1.25.65-1.85 1.25l-.15.85q.75.55 1.6.55 1.05.1 1.75.15-.15-.45-.15-1.1m5.3-1.3q.4.6.4 1.3 0 .55-.15 1.05 1.25-.1 1.7-.4l.25-.3q0-.1-.7-.65t-1.5-1m-1.85 1l-1.6-1.25-.75.1-.25 1.25 2.6-.1m-26.15-.7q-.2.55-.3 1.25l.1.4 2.15.15q-.15-.45-.15-.95v-.05q.1-1.2.85-1.95.1-.1.2-.15-1.6-.1-2.2.3-.4.75-.65 1m7.5.4v.45q0 .8-.3 1.35l.65.05q0-.05.05-.05v-.25q0-.4-.2-.85 0-.4-.2-.7m-4.85-.85l-.2 1.25 2.55-.1-1.55-1.25-.8.1z"/><path fill="#352A20" d="M146.95 40.25h-.05q-.15.1-.35.25-.75.85-.75 2 0 .65.15 1.1h.6l4.25-.05h.55q.15-.5.15-1.05 0-.7-.4-1.3-.05-.1-.25-.15-.3-.1-1.6-.4-1.5-.3-2.3-.4m.7.7l1.6 1.25-2.6.1.25-1.25.75-.1m-18.6-.3q-.85-.3-1.95-.3-.6-.15-1.15-.15-.1.05-.2.15-.75.75-.85 1.95v.05q0 .5.15.95l5 .4h.25q.3-.55.3-1.35v-.45q-.2-.55-.85-.95-.3-.15-.7-.3m-3.5 1.65l.2-1.25.8-.1 1.55 1.25-2.55.1m6.3-5.4q.2-.15.7-1.35-.35-.6-2.5-1.25-2.15-.55-6.3-1.4-3.2-.6-4.6 2.35-.4 2.4-.4 2.9 0 .05.2.6.5-.35 1.45-1.15 1.4-1.2 1.95-1.2 4.9 0 8.8.65.55.15.7-.15m7.2-.5q.15.1.8.1.45 0 3.5-.55 3-.6 4.4-.55 1.3 0 3.65.95 2.3.95 3.55.8.9-.2 1.25-.35.2-.15 1.15-.9-.25-.55-1.4-1.05-4.05-1.7-6.5-2.5-2.5-.7-6.15.55-3.75 1.25-4.1 1.9-.35.6-.45 1.4h-.1l.4.2m39.65-21.5q0-6.05-3.05-9.3Q170.5 0 156.1 0l-6.95.15q-17.3.7-24.4 5.3-4.45 2.85-4.45 6.65 0 .25.7 1.65.85 1.55 1.7 2.6.1.05.2.15 0-.1.05-.15.65-.9.65 0 0 .15-.1.55 1.8 1.15 6.55 2.95 7.15 2.65 10.8 1.8l.3-.1q-.6-1-1.7-2.15-.4-.4-.55-.4l-.15-.25q.1.1.15.1-.05-.1-.15-.25-1.5-1.5-1.9-1.95h.25q1.8.85 3.75 2.35 2.75 1.1 11.25 1.1.95 0 2.5-.55l-4.2-3.4-.45-.45.3.1q.6.3 5.15 1.95 4.75 1.65 7.25 1.65-.5 3.25-1.75 7.4-.65 2.05-1.2 3.7 0 .6 1.8 3.6 1.9 3.2 1.95 3.5.25.55-.25 3.9 0 .45.2 1.7.2 1.5.3 2.35l.05.1q.15.15.35.55 2-1.35 5.7-5.95 2.25-2.9 7.1-3.3l.1-.05q-.1-.15-1.35-.4 3.05-5.3 3.05-21.6z"/><path fill="#D4D4D4" d="M128.45 244.55q-1.05 0-1.95-.15l-.1 4.9q0 .4-.25.55-.05.1-.15.15.3.95 1 2.2.75 1.25 1.05 1.4.4.25.85.55.4.15 1 .3.35.1.7.25 1.45.25 5.1.7h2.6l.15.1h3.9q2.75-1.6 2.75-4.95-.1-1.25.2-3.1.1-.35.1-.55-4.3 0-7.9-1.95-1.9-1.1-2.65-2.15h-.1l-.05-.05q-2.65 1.8-6.25 1.8z"/></g><g id="sis01_02_35_1d"><path fill="url(#sis01_02_35_1a)" d="M128.85 48.8q.7-.15 1.5-.4l.3-.6q1-2.2 1-2.35.15-.7.3-1.55v-.25-.4V43q0-.3-.05-.6V42q-.25-.55-.5-.95-.75-1-2.1-1.15-2.65-.4-5.55-.3l-4.35.5q-3.15 3.3.15 7.9l.95.4q4.05 1.35 8.35.4z"/><path fill="#3A2E25" d="M168.15 43.65l1.1-1.25-13.3-.4q-.3-1.8-1.4-2.1-1.65-.55-7.35-.85-4.75-.25-6.15.2-1.5.5-2.45 1.1-.3.15-.4.8-1.45-1.4-3.25-1.25h-.1q-1.85.2-2.5 1.15-.15-.2-.2-.4-.9-1.05-2.35-1.3-2.9-.4-6.1-.3l-4.85.6q-3.45 3.6.15 8.75l1 .4q4.55 1.5 9.3.45.4-.15.8-.15.05-.3.25-.7-.8.25-1.5.4-4.3.95-8.35-.4l-.95-.4q-3.3-4.6-.15-7.9l4.35-.5q2.9-.1 5.55.3 1.35.15 2.1 1.15.25.4.5.95v.4q.05.3.05.6v.9q.2-.5.25-.95.15-.65.45-.85V42q.65-.7 2.2-.85h.1q1.7-.15 3.1 1.15 0 1.1.35 2.75.75 4.05 1.55 4.45.8.3 4.75.95 3.9.55 7.5-.5 3.55-.9 3.85-5.2.1-.65.1-1.1h12m-28.65-2.8q.75-.55 2.1-.95 1.3-.5 5.6-.25 5.2.25 6.65.8.85.2 1.2 1.45.05.7.15 1.75 0 .45-.1 1.1-.2 3.8-3.35 4.75-3.3.85-6.8.4-3.6-.55-4.3-.85-.7-.35-1.35-4-.7-3.75.2-4.2z"/><path fill="url(#sis01_02_35_1b)" d="M141.6 39.9q-1.35.4-2.1.95-.9.45-.2 4.2.65 3.65 1.35 4 .7.3 4.3.85 3.5.45 6.8-.4 3.15-.95 3.35-4.75.1-.65.1-1.1-.1-1.05-.15-1.75-.35-1.25-1.2-1.45-1.45-.55-6.65-.8-4.3-.25-5.6.25z"/></g></defs><use xlink:href="#sis01_02_35_1c"/><use xlink:href="#sis01_02_35_1d"/></svg>