<svg xmlns="http://www.w3.org/2000/svg" xmlns:xlink="http://www.w3.org/1999/xlink" preserveAspectRatio="none" width="770" height="305" viewBox="0 0 770 305"><defs><path fill="#373535" d="M482.25 215.5q0 2.5-2.05 5.2-2 2.8-7.75 7.5-3.75 3-5.65 5.35-2 2.25-2.9 4.65-.45 1.5-.5 3h23.3v-4.15h-17.3q.75-1.1 1.9-2.35 1.05-1.2 4.95-4.4 4.65-3.95 6.7-6.2t2.85-4.35q.85-2 .9-4.15 0-4.1-3-6.95-2.9-2.85-8-2.85t-8 2.65q-3 2.55-3.45 7.6l4.45.4q0-3.3 1.9-5.15 1.8-1.85 4.95-1.9 3 0 4.8 1.75 1.9 1.8 1.9 4.35z" id="sis01_02_1_2a"/><path fill="#373535" d="M171.85 184.3v-27.5h-2.15q-.8 1.85-2.95 3.7-2.15 1.85-4.95 3.2v3.25q1.6-.6 3.55-1.75 1.95-1.15 3.2-2.3v21.4h3.3z" id="sis01_02_1_2b"/><g id="sis01_02_1_2c"><path fill="#762220" d="M529 224.25v4.5h-10.15v8.95H529v4.5l10.2-9-10.2-8.95m0-33.95v4.5h-10.15v9H529v4.45l10.2-8.95-10.2-9z"/><path fill="#2979B6" d="M276.3 242.2l-4.25-14.9H207.4l-4.5 14.9h73.4M51.15 191H36.2v21.3q0 6 2.3 11.45 2.25 5.5 6.45 9.7 4.15 4.2 9.7 6.5 5.5 2.25 11.4 2.25H202.9l4.5-14.9H66.05q-2.95 0-5.65-1.2-2.75-1.1-4.9-3.2-2.15-2.1-3.2-4.85-1.15-2.75-1.15-5.75V191m456.4 51.2v-14.9h-235.5l4.25 14.9h231.25z"/><path fill="#99BEC4" d="M309.45 220.3q0-2.3-.9-4.5-.85-2.15-2.55-3.75-1.65-1.7-3.85-2.6-2.1-.9-4.5-.9H227.9V216.45h69.75q1.65 0 2.8 1.1 1.2 1.15 1.2 2.75v7h7.8v-7M303.2 191h-1.55v3.2q0 1.65-1.2 2.75-1.15 1.25-2.8 1.25H227.9v7.8h69.75q2.4 0 4.5-.95 2.25-.85 3.85-2.5 1.7-1.65 2.55-3.85.9-2.1.9-4.5V191h-6.25z"/><path fill="#292929" d="M85.2 189.05l.05.05.05-.05h-.1m.05-.05l-.05.05h.1l-.05-.05z"/><path fill="#437695" d="M328.05 207.65q-1.6 0-2.8-1.2-1.1-1.15-1.1-2.8V191h-7.9v12.65q0 2.35.9 4.5.9 2.2 2.6 3.9 1.65 1.6 3.8 2.5 2.15.95 4.5.95h179.5v-7.85h-179.5z"/></g><path id="sis01_02_1_2d" stroke="#292929" stroke-linejoin="bevel" fill="none" d="M375.25 191h132.3v-25.85M337.15 39.3h49.25v9.75q-8.5 9.2-19.4 15.3-10.9 6.05-23.2 8.5-9.2 1.85-15.05 9.05-.6.7-1.1 1.35V191h47.6m-111.55 0h34.55l.05-107.75q-.5-.65-1.05-1.35-6-7.2-15.15-9.05-12.3-2.45-23.2-8.5-10.85-6.1-19.4-15.3V39.3h61.2v-2.5h7.4V19.7h9.75v17.1h7.35v2.5h11.95m-13 151.7h3.5m179.9 16.65h-179.5q-1.6 0-2.8-1.2-1.1-1.15-1.1-2.8V191h-7.9v12.65q0 2.35.9 4.5.9 2.2 2.6 3.9 1.65 1.6 3.8 2.5 2.15.95 4.5.95h179.5V191m0 24.5V265.8M308.1 24.6h9.75m-7.35-2.5h4.9m2.45 9.8l-2.45-4.85v4.85l2.45 4.9h-9.75l2.4-4.9v-4.85l-2.4 4.85m7.3-4.85h-4.9m0 4.85h4.9M303.2 191V98.45q0-8.4-4.9-15.2M227.9 213.9H220V206q0-3.3 2.35-5.55 2.3-2.25 5.55-2.25V191l-6.45 1.95q-1.75.45-3.35.45h-8.25q-1.65 0-3.4-.45l-6.4-1.95v28.85h9.55m-124.3-30.8h.5q.3.15.4.4V191h177.5m34.55 0h4.95m-1.55 0v3.2q0 1.65-1.2 2.75-1.15 1.25-2.8 1.25H227.9v7.8h69.75q2.4 0 4.5-.95 2.25-.85 3.85-2.5 1.7-1.65 2.55-3.85.9-2.1.9-4.5V191h-6.25m13.05 0h-6.8m18.2-107.75q-4.9 6.8-4.9 15.2V191M45.3 87.55v-1.2h-1.8v1.2h1.8v2.15h-1.8v-2.15M11.65 77.7h32q.4 0 .65.25.2.25.2.55V83q0 .3-.2.55-.25.25-.65.25h-.7v44.05q0 .3-.25.55-.25.25-.55.25h-30.5m31.3-44.85h-31.3m71.45 38.95H49.75q-.85 0-1.45.6-.55.65-.55 1.45v.65h70.75v-.65q0-.8-.6-1.45-.65-.6-1.5-.6H83.1zM48 126.3q-.25.25-.25.6v1q0 .4.25.6.2.25.55.25h69.15q.3 0 .55-.25.25-.25.25-.6v-1q0-.35-.25-.6-.3-.25-.55-.25H48.55q-.35 0-.55.25zm37.2 62.75h-.95l-.2-.1q-.9-.55-1.4-1.45-.55-1-.55-2.05v-10.6q0-4.15 2.6-7.5 2.55-3.25 6.55-4.35 9.7-2.55 17-9.5 7.2-7 10.05-16.7-.5.35-1.2.35H58.5q-2.65.15-4.9 1.65-2.15 1.55-3.2 4M36.2 191h-7.05v-17.65q0-4.3-2.75-7.75l-3.05-3.65q-2.7-3.3-2.7-7.7V130.4q0-.4.25-.6.2-.2.55-.2h95.65q.85 0 1.45.55.65.65.65 1.4v3.6q0 .8-.65 1.45-.1.1-.25.2m89.1 90.5H66.05q-2.95 0-5.65-1.2-2.75-1.1-4.9-3.2-2.15-2.1-3.2-4.85-1.15-2.75-1.15-5.75V191H36.2v21.3q0 6 2.3 11.45 2.25 5.5 6.45 9.7 4.15 4.2 9.7 6.5 5.5 2.25 11.4 2.25H202.9m6.7-22.35h18.3V206M85.3 189.05l-.05-.05-.05.05h.1l-.05.05-.05-.05m1 1.95H51.15m258.3 36.3v-7q0-2.3-.9-4.5-.85-2.15-2.55-3.75-1.65-1.7-3.85-2.6-2.1-.9-4.5-.9H227.9m0 7.9h69.75q1.65 0 2.8 1.1 1.2 1.15 1.2 2.75v7h205.9m-300.15 0h94.25m-98.75 14.9h304.65M300.7 39.3h24.5m-85.7 2.4h146.9m0 7.35H239.5"/><path id="sis01_02_1_2e" stroke="#373535" stroke-width=".55" stroke-miterlimit="22" fill="none" d="M375.25 191l6.25-22.8M337.15 39.3l12-24.55m21.55 192.9l4.55-16.65M209.6 219.85l4.35-14.4M263.7 191l2.85-22.8M83.1 122.75l6.25-27.7M202.9 242.2l4.5-14.9 2.2-7.45m66.7 22.35l-4.25-14.9-3.15-10.85m13.2 46.1l-5.8-20.35m-82 28.4l8.6-28.4m59.9-44l.9-7.2"/></defs><g id="fadeInLeft"><use xlink:href="#sis01_02_1_2a" transform="matrix(1 0 0 1 0 -.05) matrix(.7759 0 0 .7759 -16.5 -2.7)"/><use xlink:href="#sis01_02_1_2b" transform="matrix(1 0 0 1 0 -.05)"/><g transform="matrix(1 0 0 1 0 -.05)"><use xlink:href="#sis01_02_1_2c"/><use xlink:href="#sis01_02_1_2d"/><use xlink:href="#sis01_02_1_2e"/></g><g transform="matrix(1 0 0 1 0 -.05) matrix(.9472 0 0 .9472 148.2 275.6)"><clipPath id="sis01_02_1_2f"><path fill="#FFF" d="M-2-2h107.95v20.8H-2z"/></clipPath><text clip-path="url(#sis01_02_1_2f)" writing-mode="lr"><tspan x="2.4" y="13.6" baseline-shift="0%" font-family="Arial_Bold" font-weight="bold" font-size="15" fill="#373535">Ralo sifonado</tspan></text></g><g transform="matrix(1 0 0 1 0 -.05) matrix(.9472 0 0 .9472 273.95 272.5)"><clipPath id="sis01_02_1_2g"><path fill="#FFF" d="M-2-2h194.9v36.3H-2z"/></clipPath><text clip-path="url(#sis01_02_1_2g)" writing-mode="lr"><tspan x="6.8" y="13.6" baseline-shift="0%" font-family="Arial_Bold" font-weight="bold" font-size="15" fill="#373535">Ligação do ralo sifonado</tspan><tspan x="28" y="29.1" baseline-shift="0%" font-family="Arial_Bold" font-weight="bold" font-size="15" fill="#373535">ao esgoto primario</tspan></text></g><g transform="matrix(1 0 0 1 0 -.05) matrix(.9472 0 0 .9472 1.9 266.85)"><clipPath id="sis01_02_1_2h"><path fill="#FFF" d="M-2-2h133.5v36.05H-2z"/></clipPath><text clip-path="url(#sis01_02_1_2h)" writing-mode="lr"><tspan x="25.2" y="13.6" baseline-shift="0%" font-family="Arial_Bold" font-weight="bold" font-size="15" fill="#373535">Circuito do</tspan><tspan x="8.15" y="28.85" baseline-shift="0%" font-family="Arial_Bold" font-weight="bold" font-size="15" fill="#373535">esgoto primário</tspan></text></g><g transform="matrix(1 0 0 1 0 -.05) matrix(.9472 0 0 .9472 550.3 184.35)"><clipPath id="sis01_02_1_2i"><path fill="#FFF" d="M-2-2h233.3v39.6H-2z"/></clipPath><text clip-path="url(#sis01_02_1_2i)" writing-mode="lr"><tspan x="9.25" y="13.6" baseline-shift="0%" font-family="Arial_Bold" font-weight="bold" font-size="15" fill="#373535">Reservatório de águas cinzas</tspan><tspan baseline-shift="0%" font-family="Arial_Regular" font-size="15" fill="#373535"> </tspan><tspan x="81.65" y="32.4" baseline-shift="0%" font-family="Arial_Regular" font-size="15" fill="#373535">(opcional)</tspan></text></g><g transform="matrix(1 0 0 1 0 -.05) matrix(.9472 0 0 .9472 585.05 226.25)"><clipPath id="sis01_02_1_2j"><path fill="#FFF" d="M-2-2h159.85v39.6H-2z"/></clipPath><text clip-path="url(#sis01_02_1_2j)" writing-mode="lr"><tspan x="20.5" y="13.6" baseline-shift="0%" font-family="Arial_Bold" font-weight="bold" font-size="15" fill="#373535">Esgoto primário</tspan><tspan baseline-shift="0%" font-family="Arial_Regular" font-size="15" fill="#373535"> </tspan><tspan x="37.45" y="32.4" baseline-shift="0%" font-family="Arial_Regular" font-size="15" fill="#373535">(obrigatório)</tspan></text></g><g transform="matrix(1 0 0 1 0 -.05) matrix(.9472 0 0 .9472 370.8 126.4)"><clipPath id="sis01_02_1_2k"><path fill="#FFF" d="M-2-2h178.55v36.05H-2z"/></clipPath><text clip-path="url(#sis01_02_1_2k)" writing-mode="lr"><tspan x="3.55" y="13.6" baseline-shift="0%" font-family="Arial_Bold" font-weight="bold" font-size="15" fill="#373535">Circuito de água cinzas</tspan><tspan baseline-shift="0%" font-family="Arial_Regular" font-size="15" fill="#373535"> </tspan><tspan x="6.8" y="28.85" baseline-shift="0%" font-family="Arial_Regular" font-size="15" fill="#373535">(reservatório específico)</tspan></text></g><g transform="matrix(1 0 0 1 0 -.05) matrix(.9472 0 0 .9472 156.1 100.05)"><clipPath id="sis01_02_1_2l"><path fill="#FFF" d="M-2-2h166.85v66.55H-2z"/></clipPath><text clip-path="url(#sis01_02_1_2l)" writing-mode="lr"><tspan x="41.9" y="13.6" baseline-shift="0%" font-family="Arial_Bold" font-weight="bold" font-size="15" fill="#373535">Circuito do</tspan><tspan x="14.8" y="28.85" baseline-shift="0%" font-family="Arial_Bold" font-weight="bold" font-size="15" fill="#373535">esgoto secundário</tspan><tspan x="17.2" y="44.1" baseline-shift="0%" font-family="Arial_Regular" font-size="15" fill="#373535">(sem separação de</tspan><tspan x="35.1" y="59.35" baseline-shift="0%" font-family="Arial_Regular" font-size="15" fill="#373535">águas cinzas)</tspan></text></g><g transform="matrix(1 0 0 1 0 -.05) matrix(.9472 0 0 .9472 50.75 73)"><clipPath id="sis01_02_1_2m"><path fill="#FFF" d="M-2-2h119.35v25.65H-2z"/></clipPath><text clip-path="url(#sis01_02_1_2m)" writing-mode="lr"><tspan x="6.85" y="13.6" baseline-shift="0%" font-family="Arial_Bold" font-weight="bold" font-size="15" fill="#373535">Vaso sanitário</tspan></text></g><g transform="matrix(1 0 0 1 0 -.05) matrix(.9472 0 0 .9472 337.35 1.95)"><clipPath id="sis01_02_1_2n"><path fill="#FFF" d="M-2-2h143.7v20.8H-2z"/></clipPath><text clip-path="url(#sis01_02_1_2n)" writing-mode="lr"><tspan x="11.85" y="13.6" baseline-shift="0%" font-family="Arial_Bold" font-weight="bold" font-size="15" fill="#373535">Pia </tspan><tspan baseline-shift="0%" font-family="Arial_Regular" font-size="15" fill="#373535">(de banheiro)</tspan></text></g></g></svg>