<svg xmlns="http://www.w3.org/2000/svg" xmlns:xlink="http://www.w3.org/1999/xlink" preserveAspectRatio="none" width="337" height="291" viewBox="0 0 337 291"><defs><filter id="sis01_02_22_3a" x="-20%" y="-20%" width="140%" height="140%" color-interpolation-filters="sRGB"><feColorMatrix in="SourceGraphic" values="1 0 0 0 0 0 1 0 0 0 0 0 1 0 0 0 0 0 0 0" result="result1"/></filter><path d="M336.9 290.7V0H0v290.7h336.9z" id="sis01_02_22_3b"/><g id="sis01_02_22_3c"><path fill="#BF1402" d="M211.75 266.4l.7.75.55.35.55.25.9.2 1.1.05 2.2-.4 1.3-.7 1.2-1.05.6-.85.3-.7v-.25l.05-.2-.05-1-.05-.2-.35-.75-.55-.55-.9-.5-1.25-.3h-1l-1.85.4-1.15.45-.8.55-1.25 1.25-.45.9-.05.3-.05.1v.75l.05.45.25.7M28.7 203.05l-.65-.55-1.15-.65-1.75-.5h-.25l-.15-.05-.2.05h-.15l-.45.1-.1.05-.35.05-.15.1h-.15l-.15.15-.4.25-.3.35-.1.3-.2.4-.1.45.1 1 .3.9.95 1.25.2.1.65.55 1.55.8 1.4.3h.4l.7-.15.9-.4.75-.8.05-.1.2-.75v-.5l-.3-1.2-1.1-1.5z"/><path fill="#99BEC4" d="M221.1 244.1l-9.6-4.6v24.9l.05-.3.45-.9 1.25-1.25.8-.55 1.15-.45 1.85-.4h1l1.25.3.9.5.55.55.35.75V244.1M54.15 108.75v-.7l-16.45 3.5q-3.55.3-6.65 2-3 1.6-5.1 4.2v63.05-63.05q-.15.15-.25.3-2.2 2.75-3.1 6.2-.9 3.35-.35 6.9v71.55l.1-.3.3-.35.4-.25.15-.15h.15l.15-.1.35-.05.1-.05.45-.1h.15l.2-.05.15.05h.25l1.75.5 1.15.65.65.55 1.1 1.5.3 1.2V179.6l-.55.15.55-.15v-43.45q-.5-3.5.4-6.9.9-3.5 3.1-6.25 2.15-2.75 5.35-4.5 3.1-1.65 6.65-1.9l8.55-1.9v-.1h-.25l-.5-.05-.2-.05H53l-.1-.05-.15-.15h-.2l-.3-.15-.1-.15-.2-.05-.8-.65-.45-.55-.55-1.45v-.45l.35-.9.3-.5.75-.55.4-.15.8-.2h.65l.75.2m16.3 2.45l-9.7-4.6-6.6 1.45v.7l.45.1 1.35.85.35.35.1.15.05.15.15.15.3.5.15.5.05.1v1.05l-.2.55-.3.45-.9.75 14.75-3.2M211.2 169l-7.15 1.6q1.05 1.55 1.95 3.25 5.6 10.45 5.5 22.35v43.3l9.6 4.6v-50.05q.1-11.85-5.45-22.25-.25-.45-.5-.85L211.2 169m-9.65-4.55h-.05l-.2-.05h-.45l-.6-.25-.9.3q2.55 2.85 4.7 6.15l7.15-1.6-9.65-4.55m-2.15-4.3l.95-.95.8-.45.65-.2.85-.15h.8l.2.15h.2l.8.35.45.4.05.15.1.05.2.25.2.5.05.85-.05.5-.2.55-.35.6-.95.95-.2.05-.1.1-.7.3-1 .25h-.2l-.1.05h-.3l9.65 4.55 2.5-.45q-5.3-8.3-13.7-13.6h-.05l-9.6 2.05q3.85 2.45 7.05 5.55l1.9.85-.45-.65-.05-.25v-.15l-.05-.3v-.15l.05-.15v-.15l.05-.45.55-1z"/><path fill="#FFE495" d="M34.5 103.15l13.05-2.8L34.5 94.2v8.95m-28.2 68.4l.05-.05-.05-.1v.15m47.85-68.1v4.6l6.6-1.45-6.6-3.15M211.5 196.2q.1-11.9-5.5-22.35-.9-1.7-1.95-3.25l-16.9 3.65v54.4l24.35 10.85v-43.3m3.65-25.25q.25.4.5.85 5.55 10.4 5.45 22.25v50.05l3.1 1.5v-70.4l-9.05-4.25m-40.55.85v-11.4L70.45 111.2l-14.75 3.2H55.55l-.3.1-.65.1h-.1l-.05.1 5.9 8.25 107.55 50.8 6.7-1.95m24.75-7.35l-12.2 3.6v6.2l16.9-3.65q-2.15-3.3-4.7-6.15m0 0q-.95-1-1.95-1.9l-10.25-4.9v10.4l12.2-3.6z"/><path fill="#FCEE96" d="M6.3 171.4v-71.1L3 98.75-.3 97.2v70.6l6.6 3.6m19.4-53.35q.1-.15.25-.3v-8.15l-6.6-3.15v70.25l2.9 1.75v-47.3q-.55-3.55.35-6.9.9-3.45 3.1-6.2m28.45-14.6l-6.6-3.1-13.05 2.8-15.15 3.3 6.6 3.15 28.2-6.15m.3 11.25h-.3v5.3l6.2 2.95-5.9-8.25M34.5 94.2l-6.6-3.15L1.1 96.9 3 98.75l3.3 1.55 28.2-6.1m205.95 77.5l-13-6.15-13.75 3q.75 1.15 1.45 2.4l9.05 4.25 16.25-3.5m-72.55 2.05l6.7 3.25v-5.2l-6.7 1.95m32.05-18.8h.05q8.4 5.3 13.7 13.6l13.75-3-24.05-11.4-3.45.8z"/><path fill="#EEE089" d="M19.35 106.45l15.15-3.3V94.2l-28.2 6.1v71.1l.05.1 13-4.75v-60.3M54.15 120v-5.3l-8.55 1.9q-3.55.25-6.65 1.9-3.2 1.75-5.35 4.5-2.2 2.75-3.1 6.25-.9 3.4-.4 6.9v43.45l24.05-5.5V120m0-11.95v-4.6l-28.2 6.15v8.15q2.1-2.6 5.1-4.2 3.1-1.7 6.65-2l16.45-3.5m149.25 46.1l24.05 11.4 84.4-18.35v-16.6L203.4 154.15m37.05 17.55l-16.25 3.5v70.2l16.25-3.35V171.7m-53.3-3.65l-12.55 3.75v5.2l12.55-2.75v-6.2m0 0v-10.4l-12.55 2.75v11.4l12.55-3.75z"/><path fill="#762220" d="M54.6 108.85l-.45-.1-.75-.2h-.65l-.8.2-.4.15-.75.55-.3.5-.35.9v.45l.55 1.45.45.55.8.65.2.05.1.15.3.15h.2l.15.15.1.05h.2l.2.05.5.05h.7l.65-.1.3-.1H55.7l.9-.75.3-.45.2-.55v-1.05l-.05-.1-.15-.5-.3-.5-.15-.15-.05-.15-.1-.15-.35-.35-1.35-.85m145.75 50.35l-.95.95-.55 1-.05.45v.15l-.05.15v.15l.05.3v.15l.05.25.45.65.4.55.55.2.6.25h.45l.2.05h.35l.1-.05h.2l1-.25.7-.3.1-.1.2-.05.95-.95.35-.6.2-.55.05-.5-.05-.85-.2-.5-.2-.25-.1-.05-.05-.15-.45-.4-.8-.35h-.2l-.2-.15h-.8l-.85.15-.65.2-.8.45z"/><path fill="#437695" d="M79.95 109.1l-8.45-4.85-10.75 2.35 9.7 4.6 9.5-2.1m110.4 47.9l9.6-2.05-88.35-41.85-3.15 2.1-4.5.9 86.4 40.9z"/><path fill="#E7EAEC" d="M66.4 60.55q.05.3.15.5l.15-1.2-.35-.15q.05.25.05.85m55.45-9.5h-.05l.15.05-.1-.05m-11.6 18.8l7.5-1.25-7.5 1.25-13.55-.55-13.8-2.45-10.5-4.3-7.05-6.45-3.95-5.6-1.3.3-.9-.05q0 .05-.05.2-.05-.1-.15-.1-.05.1-.2.1-.4-.2-.7-.3l-1.2-.15q-.05.05-.05.45l.3.95q.5.95 1.2.95.05 0 2.3 2.75 2.55 2.8 3.9 2.8.3 0 .35-.3.05-.1.05-.15.4.55.95.85.25.35.35.6.1.05.1.3l.35.15-.15 1.2q.1.1.2.25-.05.45-.1 1.15-.3 3.05-.4 6.45l-.3-1-.6 6.75 1.55 7.9.25 1.35-1 17.05.1.3 5.25 3 .5-.1-.5.1 8.45 4.85 11.5 5.1 9.5 2.5 3-.6 4.5-.9 3.15-2.1.6-.4-.2-18.5-.75-6.3 2.75-3 8.55-6.55 4.7-6.45.25-2.45-.8.25q.2-.75.4-1.65.4-3.45.5-4.05.1-.3.1-.45.15-.4.05-.65-.05-.15-.3-.3v-.1L123 64.6l-8.5 2.25-10.05.75-10.75-1.25-8.25-1.75-7-2.4h-.1l-.95-.35-5.25-3.75-1.75-5 1.3-2.4q-.1-1.5-.45-2.65L61.4 50.5l3.95 5.6 7.05 6.45 10.5 4.3 13.8 2.45 13.55.55m-9.3 13.25l-11-4.75-7.55-5-5-4.2 5 4.2 7.55 5 11 4.75 7.5 4-7.5-4M66.2 50.15q0 .3.05.65-.05-.1-.15-.15l-.3.15q.15-.3.4-.65m52.55-.85l-10.3-2.75-17.8-1.05 31.15 5.55-3.05-1.75m-35.6-1.5l7.5-2.3-7.55-.3-9.7 2.35-1.7 3.15-1.3 2.4 1.75 5 5.25 3.75.95.35h.1l7 2.4 8.25 1.75 10.75 1.25 10.05-.75 8.5-2.25 4.45-2.1.85-.45.45-4.7-3.75-4.5-3.05-1.75 2.3 5-5 3.2-7.5 1.55h-9.55L90.7 59.1l-9.5-2.8-4.8-4.7 6.75-3.8m7.5-2.3l-7.5 2.3-6.75 3.8 4.8 4.7 9.5 2.8 11.5 1.75h9.55l7.5-1.55 5-3.2-2.3-5-.15-.05-31.15-5.55m1.8-37.65l-1.5.9-17.3 2.45-17.05 1.3-7.7-.3-7.8-1.95 2.75 36.85 7.5 2.75 4.35.5 1.2.15 1.2.15 1.1.1.9.05 1.3-.3 9.85-2.45 15.2-3.7L89.4 40l2.05-6.75L92.7 20.8l-.25-12.95M55.35 19.3l.55 24.5-.55-24.5m35.6-10.55l1.5-.9 1.5-.85-.5-4.3-8.8-3L69.9.5 41.35 4.95l-2.3 1.75 2.05 3.55 7.8 1.95 7.7.3 17.05-1.3 17.3-2.45z"/></g><path fill="#292929" d="M210.8 261.6q-.296.29-.3.7v2.1q.004.41.3.7.29.296.7.3.41-.004.7-.3.296-.29.3-.7v-2.1q-.004-.41-.3-.7-.29-.296-.7-.3-.41.004-.7.3m9.6-9.65q-.296.29-.3.7v10q.004.41.3.7.29.296.7.3.41-.004.7-.3.296-.29.3-.7v-10q-.004-.41-.3-.7-.29-.296-.7-.3-.41.004-.7.3m0-16q-.296.29-.3.7v10q.004.41.3.7.29.296.7.3.41-.004.7-.3.296-.29.3-.7v-10q-.004-.41-.3-.7-.29-.296-.7-.3-.41.004-.7.3m-9.6 9.65q-.296.29-.3.7v10q.004.41.3.7.29.296.7.3.41-.004.7-.3.296-.29.3-.7v-10q-.004-.41-.3-.7-.29-.296-.7-.3-.41.004-.7.3m1.7-15.3q-.004-.41-.3-.7-.29-.296-.7-.3-.41.004-.7.3-.296.29-.3.7v10q.004.41.3.7.29.296.7.3.41-.004.7-.3.296-.29.3-.7v-10m8.6-10.65q-.41.004-.7.3-.296.29-.3.7v10q.004.41.3.7.29.296.7.3.41-.004.7-.3.296-.29.3-.7v-10q-.004-.41-.3-.7-.29-.296-.7-.3m-8.6-5.35q-.004-.41-.3-.7-.29-.296-.7-.3-.41.004-.7.3-.296.29-.3.7v10q.004.41.3.7.29.296.7.3.41-.004.7-.3.296-.29.3-.7v-10m9.6-9.65q-.004-.41-.3-.7-.29-.296-.7-.3-.41.004-.7.3-.296.29-.3.7v10q.004.41.3.7.29.296.7.3.41-.004.7-.3.296-.29.3-.7v-10M103 116.4q.145.417.5.6l9 4.3q.393.183.75.05.417-.145.6-.55.184-.342.05-.75-.145-.367-.55-.55l-9-4.3q-.343-.183-.75-.05-.367.145-.55.5-.184.392-.05.75m7.65-2.95q.147.381.5.55l4.3 2q.408.184.8.05.381-.146.55-.55.184-.357.05-.75-.147-.381-.55-.55l-4.3-2q-.358-.184-.75-.05-.381.146-.55.5-.184.407-.05.8m36.9 22.35q-.343-.183-.75-.05-.367.145-.55.5-.184.392-.05.75.145.417.5.6l9 4.3q.393.183.75.05.417-.145.6-.55.184-.342.05-.75-.145-.367-.55-.55l-9-4.3m12.75.15q.184-.343.05-.75-.145-.367-.55-.55l-9.1-4.25q-.343-.183-.75-.05-.368.145-.55.5-.184.393-.05.75.145.417.5.6l9.1 4.25q.393.183.75.05.418-.145.6-.55m-33.4-7.75q.393.183.75.05.417-.145.6-.55.184-.342.05-.75-.145-.367-.55-.55l-9-4.3q-.343-.183-.75-.05-.367.145-.55.5-.184.392-.05.75.145.417.5.6l9 4.3m4.95 1.25q-.184.392-.05.75.145.417.5.6l9 4.3q.393.183.75.05.417-.145.6-.55.184-.342.05-.75-.145-.367-.55-.55l-9-4.3q-.343-.183-.75-.05-.367.145-.55.5m4.35-5.85q-.357-.183-.75-.05-.381.146-.55.5-.184.407-.05.8.146.38.5.55l9.1 4.2q.407.183.8.05.381-.146.55-.55.184-.357.05-.75-.146-.38-.55-.55l-9.1-4.2m-5.4-2.6l-9.1-4.2q-.357-.183-.75-.05-.381.146-.55.5-.184.407-.05.8.146.38.5.55l9.1 4.2q.407.183.8.05.381-.146.55-.55.184-.357.05-.75-.146-.38-.55-.55M30.1 194.75q-.41.004-.7.3-.296.29-.3.7v10q.004.41.3.7.29.296.7.3.41-.004.7-.3.296-.29.3-.7v-10q-.004-.41-.3-.7-.29-.296-.7-.3m-8.55.1q-.296.29-.3.7v7.15q.004.41.3.7.29.296.7.3.41-.004.7-.3.296-.29.3-.7v-7.15q-.004-.41-.3-.7-.29-.296-.7-.3-.41.004-.7.3m.7-16.3q-.41.004-.7.3-.296.29-.3.7v10q.004.41.3.7.29.296.7.3.41-.004.7-.3.296-.29.3-.7v-10q-.004-.41-.3-.7-.29-.296-.7-.3m8.85 1.2q-.004-.41-.3-.7-.29-.296-.7-.3-.41.004-.7.3-.296.29-.3.7v10q.004.41.3.7.29.296.7.3.41-.004.7-.3.296-.29.3-.7v-10m-7.85-16.2q-.004-.41-.3-.7-.29-.296-.7-.3-.41.004-.7.3-.296.29-.3.7v10q.004.41.3.7.29.296.7.3.41-.004.7-.3.296-.29.3-.7v-10m6.85-.8q-.41.004-.7.3-.296.29-.3.7v10q.004.41.3.7.29.296.7.3.41-.004.7-.3.296-.29.3-.7v-10q-.004-.41-.3-.7-.29-.296-.7-.3m-.7-15.7q-.296.29-.3.7v10q.004.41.3.7.29.296.7.3.41-.004.7-.3.296-.29.3-.7v-10q-.004-.41-.3-.7-.29-.296-.7-.3-.41.004-.7.3m-6.15.5q-.004-.41-.3-.7-.29-.296-.7-.3-.41.004-.7.3-.296.29-.3.7v10q.004.41.3.7.29.296.7.3.41-.004.7-.3.296-.29.3-.7v-10m-1.7-16.7q-.296.29-.3.7v10q.004.41.3.7.29.296.7.3.41-.004.7-.3.296-.29.3-.7v-10q-.004-.41-.3-.7-.29-.296-.7-.3-.41.004-.7.3M31.1 136q-.286-2.06-.1-4.05.04-.409-.25-.75-.24-.303-.65-.35-.408-.04-.75.2-.303.29-.35.7-.214 2.21.1 4.5v5.5q.004.41.3.7.29.296.7.3.41-.004.7-.3.296-.29.3-.7v-5.6q.004-.061 0-.15m3.25-12.35l.05-.05q1.825-2.337 4.45-3.9.364-.207.45-.6.12-.396-.1-.75-.206-.364-.6-.5-.396-.07-.75.15-2.975 1.737-5.05 4.35-1.251 1.567-2.1 3.35-.184.407-.05.8.146.38.5.55.406.184.8.05.38-.147.55-.55.751-1.554 1.85-2.9M26.6 116q-.41.004-.7.3-.404.396-.75.85-.126.138-.25.25-2.314 2.941-3.3 6.6l-.35 1.55q-.056.404.15.75.25.344.65.4.405.106.75-.15.344-.2.4-.6l.35-1.45q.864-3.241 2.9-5.85.051-.013.05-.05.076-.074.15-.15.054-.048.1-.1.254-.346.55-.65.296-.29.3-.7-.004-.41-.3-.7-.29-.296-.7-.3m14.95-5.25q-.056-.4-.4-.65-.346-.206-.75-.15l-2.8.6q-3.638.324-6.85 2-.335.213-.45.6-.12.402.05.75.213.385.6.5.402.12.75-.1 2.838-1.474 6.05-1.75.087-.01.15-.05l2.9-.6q.4-.056.6-.4.256-.346.15-.75m14.95-2.25q.414-.057.65-.4.219-.347.1-.75-.057-.414-.4-.65-.348-.219-.75-.15l-9.8 2.1q-.414.107-.65.45-.219.347-.15.75.107.414.45.65.348.219.75.1l9.8-2.1m8 4.95q.427-.07.65-.45.219-.323.1-.75-.07-.377-.45-.6-.323-.219-.75-.15l-8.6 1.9q-.377.12-.6.45-.117.21-.15.4-.105-.173-.3-.3-.36-.219-.8-.15l-8.15 1.8q-.855.066-1.7.2-.386.093-.65.4-.205.368-.15.75.092.436.4.65.368.255.75.15.764-.109 1.55-.15.087-.006.15-.05l8.25-1.8q.427-.058.65-.4.124-.204.15-.45.116.219.3.35.373.219.75.1l8.6-1.9m8.05-10.15q-.348-.219-.75-.15l-9.8 2.1q-.414.107-.65.45-.219.347-.15.75.107.414.45.65.348.219.75.1l9.8-2.1q.414-.057.65-.4.219-.347.1-.75-.057-.414-.4-.65m7.6 6.75q.414-.057.65-.4.219-.347.1-.75-.057-.414-.4-.65-.348-.219-.75-.15l-9.8 2.1q-.414.107-.65.45-.219.347-.15.75.107.414.45.65.348.219.75.1l9.8-2.1m139.85 78q-.24.356-.2.75.297 2.613.3 5.25v4.6q.004.41.3.7.29.296.7.3.41-.004.7-.3.296-.29.3-.7v-4.6q.003-2.75-.3-5.45-.049-.412-.4-.7-.295-.24-.7-.2-.413.049-.7.35m-8.5 9.25q-.41.004-.7.3-.296.29-.3.7v10q.004.41.3.7.29.296.7.3.41-.004.7-.3.296-.29.3-.7v-10q-.004-.41-.3-.7-.29-.296-.7-.3m-.95-15.1q-.114-.373-.5-.6-.334-.17-.75-.05-.373.114-.6.45-.17.383-.05.75 1.413 4.828 1.75 9.85.033.432.35.7.313.276.7.25.432-.033.7-.35.275-.313.25-.75-.363-5.228-1.85-10.25m6.85-9.15q-.183-.355-.6-.5-.358-.134-.75.05-.355.183-.5.55-.133.407.05.75 2.102 4.428 3.2 9.1.122.429.45.65.376.22.75.1.43-.072.65-.45.22-.325.1-.75-1.152-4.878-3.35-9.5m-9.6-13.3q-.306-.26-.75-.25-.388.004-.7.3-.26.306-.25.7.005.437.3.7 3.529 3.396 6.25 7.5.25.343.65.4.405.106.75-.15.344-.2.4-.6.106-.404-.15-.75-2.829-4.296-6.5-7.85m-6 7.65q-.336.244-.4.65-.054.41.2.75.824 1.126 1.6 2.35 1.048 1.515 1.9 3.15.812 1.488 1.5 3 .168.378.55.5.38.171.75 0 .378-.168.5-.55.171-.379 0-.75-.712-1.588-1.55-3.15-.898-1.715-2-3.3h.05q-.824-1.276-1.7-2.45-.244-.335-.65-.4-.412-.054-.75.2m-11.95-10.75q-.206.346-.15.75.107.4.45.6 3.568 2.381 6.55 5.25v.05q.562.475 1.05.95.29.296.7.3.41-.004.7-.3.296-.29.3-.7-.004-.41-.3-.7-.5-.513-1.05-1.05h-.05q-3.084-2.991-6.8-5.45-.346-.205-.75-.15-.4.106-.65.45m-3.75-2.5q-.146-.38-.55-.55l-9.1-4.2q-.357-.183-.75-.05-.381.146-.55.5-.184.407-.05.8.146.38.5.55l9.1 4.2q.407.183.8.05.381-.146.55-.55.184-.357.05-.75m14.45-.05q-.166-.101-.35-.15l-6.15-2.9q-.344-.184-.75-.05-.368.145-.55.5-.184.393-.05.75.146.418.5.6l6.3 3q1.224.764 2.35 1.55.366.254.75.15.433-.04.65-.4.255-.316.15-.75-.041-.383-.4-.65-1.187-.838-2.45-1.65m-22.25-8.75q.145.417.5.6l9 4.3q.393.183.75.05.417-.145.6-.55.184-.342.05-.75-.145-.367-.55-.55l-9-4.3q-.343-.183-.75-.05-.367.145-.55.5-.184.392-.05.75m-6.7 2q-.146-.38-.55-.55l-9.1-4.2q-.357-.183-.75-.05-.381.146-.55.5-.184.407-.05.8.146.38.5.55l9.1 4.2q.407.183.8.05.381-.146.55-.55.184-.357.05-.75m-7.75-8.9q.145.417.5.6l9.05 4.3q.393.183.75.05.418-.145.6-.55.184-.343.05-.75-.145-.367-.55-.55l-9.05-4.3q-.343-.183-.75-.05-.368.145-.55.5-.184.393-.05.75z" id="sis01_02_22_3h"/><path id="sis01_02_22_3d" stroke="#292929" stroke-width="2" stroke-linejoin="bevel" fill="none" d="M199.3 163.4l-.45-.65-.05-.25v-.15l-.05-.3v-.15l.05-.15v-.15l.05-.45.55-1 .95-.95.8-.45.65-.2.85-.15h.8l.2.15h.2l.8.35.45.4.05.15.1.05.2.25.2.5.05.85-.05.5-.2.55-.35.6-.95.95-.2.05-.1.1-.7.3-1 .25h-.2l-.1.05h-.3l9.65 4.55 2.5-.45m-13.75-13.6l-9.6 2.05m7.05 5.55l1.9.85.4.55.55.2.6.25h.45l.2.05h.05m-11.2-7.45l-3.2.65 10.25 4.9m-10.25 5.5v6.2l16.9-3.65m-16.9-12.95v10.4m-12.55 3.75v5.2l12.55-2.75v54.4m16.9-58.05l7.15-1.6 3.95 1.95m-1.45-2.4l13.75-3-24.05-11.4-3.45.8M174.6 171.8v-11.4L70.45 111.2m-14.8 3.2h-.1l-.3.1-.65.1h-.1m5.85 8.35l107.55 50.8 6.7 3.25m0-16.6l12.55-2.75m53.3 14.05l-13-6.15 84.4-18.35v-16.6L203.4 154.15m11.75 16.8l9.05 4.25 16.25-3.5v70.35M127.5 69.45l37.7-8.15 146.65 69.3M34.5 94.2l-6.6-3.15L1.1 96.9M3 98.75l3.3 1.55 28.2-6.1 13.05 6.15 6.6 3.1 6.6 3.15m6.15-24.05l-39 8.5m32.85 15.55l9.7 4.6m-16.3-3.15v.7l.45.1 1.35.85.35.35.1.15.05.15.15.15.3.5.15.5.05.1v1.05l-.2.55-.3.45-.9.75m-1.55-5.65l-.75-.2h-.65l-.8.2-.4.15-.75.55-.3.5-.35.9v.45l.55 1.45.45.55.8.65.2.05.1.15.3.15h.2l.15.15.1.05h.2l.2.05.5.05h.6m-.35-11.15v4.6m0 6.55v.1m6.2 8.25l-6.2-2.95v-5.3m0 5.3v54.65m-28.2-56.9v-8.15l-6.6-3.15v70.25m2.9 26l.1-.3.3-.35.4-.25.15-.15h.15l.15-.1.35-.05.1-.05.45-.1h.15l.2-.05.15.05h.25l1.75.5 1.15.65.65.55 1.1 1.5.3 1.2m4.4-102.6l-15.15 3.3M6.3 171.4v.15m13.05 6.15v-1m6.6-58.95v63.05M6.3 100.3v71.1m-6.6-3.6v.55m54.45-64.9l-28.2 6.15m21.6-9.25l-13.05 2.8V94.2m-4.4 111.85v.2l-.2.75-.05.1-.75.8-.9.4-.7.15h-.4l-1.4-.3-1.55-.8-.65-.55-.2-.1-.95-1.25-.3-.9-.1-1 .1-.45.2-.4m201.95 42.9v-70.4m16.25 67.7v-.85m-16.25 3.55v.85m-3.1 16.2l.05.2.05 1-.05.2v.25l-.3.7-.6.85-1.2 1.05-1.3.7-2.2.4-1.1-.05-.9-.2-.55-.25-.55-.35-.7-.75-.25-.7-.05-.45v-.75l.05-.1.05-.3.45-.9 1.25-1.25.8-.55 1.15-.45 1.85-.4h1l1.25.3.9.5.55.55.35.75zM3 98.75L-.3 97.2v70.6m1.4-70.9l-1.4.3"/><path id="sis01_02_22_3e" stroke="#373535" stroke-width=".55" stroke-miterlimit="22" fill="none" d="M200.25 164.15l-.9.3-12.2 3.6-12.55 3.75-6.7 1.95M1.1 96.9L3 98.75m63.15 2.2l.1.3"/><path id="sis01_02_22_3f" stroke="#373535" stroke-width="2" stroke-miterlimit="22" fill="none" d="M111.6 113.1l-3.15 2.1-4.5.9M41.1 10.25l7.8 1.95 7.7.3 17.05-1.3 17.3-2.45 1.5-.9 1.5-.85-.5-4.3-8.8-3L69.9.5 41.35 4.95l-2.3 1.75 2.05 3.55 2.75 36.85 7.5 2.75 4.35.5 1.2.15 1.2.15 1.1.1.9.05 1.3-.3 9.85-2.45 15.2-3.7L89.4 40l2.05-6.75L92.7 20.8l-.25-12.95m-1.8 37.65l-7.5 2.3-6.75 3.8 4.8 4.7 9.5 2.8 11.5 1.75h9.55l7.5-1.55 5-3.2-2.3-5-.15-.05-31.15-5.55-7.55-.3-9.7 2.35-1.7 3.15-1.3 2.4 1.75 5 5.25 3.75.95.35h.1l7 2.4 8.25 1.75 10.75 1.25 10.05-.75 8.5-2.25 4.45-2.1.85-.45.45-4.7-3.75-4.5-3.05-1.75-.1-.05h-.05l-3.05-1.75-10.3-2.75-17.8-1.05zm-29.25 5l3.95 5.6 7.05 6.45 10.5 4.3 13.8 2.45 13.55.55 7.5-1.25m-9.3 18.5l-7.5-4-11-4.75-7.55-5-5-4.2m50.1.3l-.25 2.45-4.7 6.45L114 84.9l-2.75 3 .75 6.3.2 18.5-.6.4m16.7-51.05l-.8 7.4M55.35 19.3l.55 24.5m15.6 60.45l-5.25-3-.1-.05v-.25l1-17.05-.25-1.35m-.55-22.85l-5.95-3.1-4.7-6.25m10.85 10.7l-.6 6.85-.6 6.75 1.55 7.9m-.35-21.5l.15-1.2-.35-.15m5.15 44.55l8.45 4.85 11.5 5.1 9.5 2.5 3-.6"/><path id="sis01_02_22_3g" stroke="#373535" stroke-linejoin="bevel" fill="none" d="M187.15 228.65l24.35 10.85m28.95 2.55l.4-.1m-218.6-63.5v.15m7.85 1l-.55.15m-23.2-8.25l-.05-.1m205.2 68.1l9.6 4.6 3.1 1.5.5.25m-.5-.45l16.25-3.35m-53.6-13.55l.3.15"/></defs><use filter="url(#sis01_02_22_3a)" xlink:href="#sis01_02_22_3b"/><g transform="matrix(1 0 0 1 14.1 15.4)" id="fadeInRight"><use xlink:href="#sis01_02_22_3c"/><use xlink:href="#sis01_02_22_3d"/><use xlink:href="#sis01_02_22_3e"/><use xlink:href="#sis01_02_22_3f"/><use xlink:href="#sis01_02_22_3g"/><use xlink:href="#sis01_02_22_3h"/></g></svg>