<svg xmlns="http://www.w3.org/2000/svg" xmlns:xlink="http://www.w3.org/1999/xlink" preserveAspectRatio="none" width="171" height="355" viewBox="0 0 171 355"><defs><radialGradient id="sis01_00_3_1a" gradientUnits="userSpaceOnUse" cx="0" cy="0" r="4.825" fx="0" fy="0" gradientTransform="matrix(1 0 0 1 77.25 26.25)" spreadMethod="pad"><stop offset="1.961%" stop-color="#FFF"/><stop offset="100%" stop-color="#FFF" stop-opacity="0"/></radialGradient><radialGradient id="sis01_00_3_1b" gradientUnits="userSpaceOnUse" cx="0" cy="0" r="8.037" fx="0" fy="0" gradientTransform="matrix(1 0 0 1 89.5 25.65)" spreadMethod="pad"><stop offset="1.961%" stop-color="#FFF"/><stop offset="100%" stop-color="#FFF" stop-opacity="0"/></radialGradient><g id="sis01_00_3_1c"><path fill="#3A2719" d="M116.7 351.15q.95.9 4.35 1.55 5.9 1.1 9.5 1.4 2.2.2 5.45.2 3.7 0 6.2-1.1 2.95-1.25 2.95-3.7 0-1.85-.3-2.45-.45-.4-.75-.75-.05.05-.15.75-.2.75-.9 1.35-2.35 1.85-9.35 1.85-14.55 0-15.9-3.6-1.5.5-1.5 3 0 1.05.4 1.5m14.05-13.55l-6.35-.05q-2.65 1.2-3.55 1.45-.05.2-.2.4l-.05.05q0 .05.05.1 0 .1.15.25.25-.1.6-.35.5-.35 1.95-1.05l7-.05q3.2.3 6.3 1.55 1.8.75 5.35 2.3l.4-.1q-2.15-1.65-4.8-2.6-1.55-.55-6.85-1.9m-52.25 2.65q.1-.65.1-1.5v-1.1q-.4.95-.1 2.6m-8.55 4.1l-.1-.2v.2h.1m-26.8.35q-.1-.2-.2-.35v.1q0 .1.2.25m1.55-3.1q-.5-.2-.75-.95-.35.9-.35 1 0 1.9.7 2.45 1.85 1.5 8.85 1.7l5.7-.05q3.3.2 6.55-1.3 3.3-1.6 4.25-1.6 1.05 0 1.15.4.05.2-.1.5 6.95.25 7.05-3.6-.2-1.95-.1-2.7.05-.45.3-.75-2.1 1.8-5.8 3.35-3.8 1.6-12.8 3.2-4.6-.5-9.4-.85-4.2-.3-5.25-.8m10.9-9.95q-.05.05-.05.15 2.9.5 4.4 1.2 1.35.6 2.9 1.8.2-.05.2-.2-2.5-1.9-3.1-2.2-1.3-.55-3.45-.9-.3.15-.55.15h-.35m-3.4-.4h-.3q.75.05 1.45.2.2 0 .35.05h.1q.45.1.8.15 0-.15.05-.35-.15-.05-.25-.05l-.9-.1-1.3.1z"/><path fill="#9099A3" d="M86.65 318.1q.7 1.8.7 2.95 0 1.75-1.15 3.9-.25.45-.45.9.3-.45.55-.95 1.3-2.55 1.3-4.15 0-1.15-.95-2.65m11.3-105.85q.05.35.1.75v-.25q-.1-.55-.15-1.05v.15q0 .15.05.4m-14.4-49.35q1.3.4 2.4.45h.85q-2.35-.3-3.25-.45m-12.75-6.15q-.05-.25-.1-.45.05.25.1.6.05 0 .15.05-.1-.1-.15-.2m1.9-1.65l.05-.25q-.05.1-.1.25h.05m4.05-.8l-.1-.1q-.1.15-.2.35.15-.15.3-.25m48.3 50.25q-.35 1.45-.35 2.65 0 .4 2.15 7.8 1.55 5.75 2 8.95v.15q0 .95.25 2.75 0 1.1.05 2.15 0-.6.05-1.2 0-9.65-.25-10.9l-.3-1.65q-1.05-7.15-1.2-8.6-.3-2.85-.8-7.55-.45.8-.9 2.2-.7 1.95-.7 3.05v.2M87.3 196.2q1.1.7 2.4 1.4 2.7 1.45 6.35 3.4-.5-.7-.75-.95-.2-.25-1.5-1.4 15.4-4.85 20.25-6.6 2.85-1 4.75-1.9-5.9.85-14.05 3.45-8.05 2.55-11.5 4.65l-.45-.3 16.95-8q-1.5-.35-7 1.55-.5.15-11.25 5.65-.6 0-1.95-.85-1.9-1.25-2.3-1.45l-5.65-2.75q2.25 2 5.65 4.1h.05m19.55-31.7q-.5.55-.5 1.95 0 1.25 1.9 5.1-.35-.75-.35-.9-.65-1.55-.95-3.3-.2-1.5-.2-1.55.1-.85.15-1.35l-.05.05m-36.6 28.8q-.5 0-1.35.2 1.25 2.05 5.1 5.1 2.3 1.85 8.45 6.55 2.35 1.85 4.15 4.5 1.6 2.35 1.6 3.6 0 .8-1.65 2.3-1.75 1.6-1.75 2.15 0 1.35 1.85 3.25 1.85 1.95 1.85 2.25 0 .85-6.25 7.8T76 238.5q0 1.55 1.05 3.2.15.15 2.3 3.1 3.35 4.4 3.35 9.45 0 2.7-3.55 6.7-3.55 3.95-6.6 7.7-3.1 3.7 3.75 5.05 1.6 2.15 1.9 11.4.3 9.25-.15 10.55-.45 1.25-2.5 3.45-2.1 2.2-2.05 1.75-3 2.7-3 5.5 0 .9 1 2.3.7.9 3.25 4.05-.65.15-3.2.1-2.55-.05-3.15-.2-.1.1-.2.65t-.1.95q0 1.9 2.6 3.4 3.75 2.1 5.85 4.9-4.25.3-5.3-.4-2.35-1.55-3.9-2-1.05-.3-2.7-.6-1.5-.25-2.05-.25-.4 0-1.05.05l-.6.1q0 .05-.3.75.45.25 5.15 2.15 4.65 2.45 5.45 5.65-1.3-.15-1.95-.15-1.2 0-1.7.3-.35.15-.85.9.05.15 1.2 1.1 1.1 1.05 2 2.6 1.15.5 2.65 1.1.75.35 2.35 1.25 1.95.8 5.3 1 2-.7 2.3-4.75.05-.95.15-1.6-.15-.2-.3-.35.15-.1.35-.2.05-.6.1-.85.1-.25.25-.4-.05-.2-.05-.25 0-.6 1.35-2.75t1.35-3.95q0-1.25-1.45-3.8-1.45-2.6-1.45-4.2 0-1.7 2.5-6.75 2.5-5 2.5-6.45 0-1.65-.4-8.1-.4-6.35-.45-6.9-.95-10.05-1-14.65-.25-.2-.25-.75.15-.6.3-1.25l-.05-.25.3-.8q2.4-10.7 4.85-22.8 5.35-26.75 5.35-35.45-.6-2.85-.6-3.45 0-.95.15-1.45.85 0 1.3.8-.2-1.6-.45-2.15-1.25-.85-9.25-5.9l-.5-.3q-9.15-5.75-10.2-6.5l-6.8-3.25-.2.1-.05.5q0 .35 4.75 3.1 5.9 3.35 9.45 6.65l.65.55-2.5-.9q.35.2 12.15 6.05-2.35-.3-8.95-3.5-5.05-2.45-8.55-4.45-4.35-1.4-6.65-1.4m17.85-13.25l.2 1.8q4 1 12.2-1.95 6-2.15 7.85-3.35l.3-.35-.15-.55q-3.4 1.6-7.2 2.8-7.45 2.45-13.2 1.6m-4.45-.35l.15 1.95 3.75.2-.25-1.85q-1.85-.1-3.65-.3m-10.25-2q0 1.65 3.7 2.85 2.95.95 6 1.05l-.1-2q-6.55-1.4-8.15-2.05-.3-.4-.8-.45l-.4.05q-.15.1-.2.1-.05.05-.05.45m2.95-23.65q-.1-.1-.25-.15h-.5q-.85 0-1.65-.15h-.2q-.255.005-.45.2l-.2 1.15q0 .55.45 2.7l.1.2h-.15q-.05.05-.15.05-.45 0-1.55-.4-.6-.2-.95-.35 0 .15.05.35 1 1.5 1.15 1.95 1.4-.05 2.25.4.6.3 3.3 1.8l-.35.25q-.35.2-2.8 1.25-2.3 1.15-2.3 1.9 0 .85.25.85 2.1-.1 3.6-.7 1.9-.8 2.8-.95h10.55q8.35 1.65 9.25 1.85 4.5 1 5.3 1.6l1.25-.35q.1.15.1-.7 0-1.45-.5-1.95-1.55-1.15-3.65-2.75h2.25l8.4.8-.3.2q-2.75.2-4 .95l.15.75q.85 6.05 1.75 7.9.75 1.55 4.1 4.3 4 3.25 7.15 3.7l-1.65.25q-1.15-.05-2.05-.2 1.85.8 4.2 1.5-.2.45-.65 1.25-.35.65-.35 1.2 0 4.4 3.45 7.85 3.4 3.45 3.4 4.95 0 .55-.15 1.3.15.9.55 2.8 0 .05.05.15v.15q.1.35.15.75.05.1.05.2.55 2.8.9 6.7l.15 1.1q.65 3.9.9 6.7.1 1 .15 2.2.2 3.4.25 8.2v2.95l.4 1.5q.35.8.75 1.65 3.85 9 5.6 17.85 1.25 6.25 1.25 11.25 0 .65-.05 1.8-.1 1.35-.15 1.5V266q-.45-3.5-3.75-18.7-.85-4.1-1.3-7.7-.05-.55-.85-2.3-.35-.7-.75-1.55-.1-.7-.55-1.25-.7-1.05-.7-1.1-.35-.6-.5-1.6.25 3.15.7 5.3.8 3.6.8 8.1 0 .45-.35 3.7-.25 3.35.35 4.95l1.8 4.5q1.4 3.6 1.4 4.35 0 4.25-2.7 7.1-2.75 2.8-2.75 4.4 0 1.3 2.35 4.25 2.3 3 2.3 5.9 0 2.4-2.85 7.25-2.9 4.8-2.9 8.4 0 .7 4.35 3.7 4.3 2.95 4.3 4.3 0 .25-3.05 3-3.1 3.3-3.1 6 0 1.45 3.45 4.3 3.4 2.8 3.4 5.75 0 3.3-2.9 6.75 1.75.65 5.55 2.65 3.3 1.8 4.45 2.8.4-.6 1-1.35 2.05-2.6 2.05-3.75 0-1.45-1.25-2.15t-1.25-2.95q0-1.3.8-6.1t.8-5.15q0-1.9-1.05-5.35-.4-1.25-.65-2.8-.15-.55-.25-1-.25-1.15-.2-4.8v-.05q.05-1.45.1-3.35v-.05q.25-6.4.25-6.75 0-3.65-.6-7.7-.6-4.05-1.8-8.5-2.45-8.85-2.45-12.4v-1.2q-1.75-9.65-2.2-15.2-.4-4.9-2.85-21.1-2.1-13.55-2.1-21.25 0-.95-.5-2.55-.55-1.65-.55-2.5 0-.5.45-.95-1.35-5.85-1.9-8.55-.15-.55-.25-1.05l-.05-.3q0-.1-.05-.2-.55-2.45-.7-3.75-.8-4.85-.9-8.75-.05-2.4-.75-6.05l-1.25-6.1q-.35-2-.6-3.05-.2-.9-.45-1.6l-.3-.75-.3-.6q-.2-.35-2.2-3.1-.3.45-1.3 1.1-.5.5-1.85 1-1.2.55-2.2.8-2.1.55-3.4.9-2.5.65-4.65.9l-.1.1h-.55q-.15-.05-.2-.1-.05-.05-.05-.1v-.15q.35-1 .35-2.05 0-.75-.05-.9-.15-.5-.45-1.25v-.05q-.05-.05-.05-.1h-3.3q.15.35.4 1l.15 1.55q0 1.1-.25 1.45-.05.05-.05.1-.05.05-.05.1-.15.2-.2.5-.2.25-.9.5-.45.05-1.55.2h-4.3l-.1-.05h-3l-.15-.1q-.75.05-.9 0-.05 0-.15-.05-.4 1.25-2.05 2.1h-2.6l-.05-.05H86q-2.9-.25-4.35-1.2l-1.95-.05.95-.95q-.3-.4-.4-.85-.8-.5-2.4-1.45-.45-.1-1.05-.25-1.15-.3-1.45-.95-.1-.15-.1-.75v-.25q0-1.05.1-1.45h-.05l.1-.1q.2-.65.95-1.5m44.95 6.25l.05-.35q.7.85 1.9 2.15.9 1.1 1.2 1.9.2.5.75 2.9.55 2.45.55 2.8v1.2q-.4-1.15-.9-2.45-1.05-2.15-1.85-3.75-1.55-3.25-1.7-4.4m4.25 22.95q.1-.45.35-1.05.15 6.5.4 10.75.05.65.1 1.25 0 .5.05 1-.1-.5-.25-1.05-.25-1.1-.4-1.8-.15-.8-.2-1-.65-5.4-.05-8.1z"/><path fill="#64432B" d="M131.5 334.25q-4.45 2.1-7.1 3.3l6.35.05q5.3 1.35 6.85 1.9 2.65.95 4.8 2.6l-.4.1q-3.55-1.55-5.35-2.3-3.1-1.25-6.3-1.55l-7 .05q-1.45.7-1.95 1.05-.35.25-.6.35-.15-.15-.15-.25-.05-.05-.05-.1-.2.2-.4.2h-.15q-.7 1.1-1.45 3.6-.8 2.5-.8 3.4 1.35 3.6 15.9 3.6 7 0 9.35-1.85.7-.6.9-1.35.1-.7.15-.75l.2-5q-.1.1-.15.2 0-1.3-.9-1.3 0-.05.05-.05-.65-.35-1.85-1.05-2.65-1.6-3.45-1.95-4.4-1.95-5.9-2.9h-.6m-79.6-3h.3q-.1-.05-.15-.05H52q-3.1.3-5 2.2-1.45 1.45-1.55 2.65-.15.9-1.05 3.25-.3.8-.45 1.35.25.75.75.95 1.05.5 5.25.8 4.8.35 9.4.85 9-1.6 12.8-3.2 3.7-1.55 5.8-3.35l.1-.1v-.1q-1.3-.35-3.8-1.35-.35-.15-.75-.3-2.8-1.2-3.1-1.3-.4-.15-1.6-.7l-.25-.1q-7.25-3.15-8.6-3.15-.95 0-2.15 1.05-.75.6-1.3.85 2.15.35 3.45.9.6.3 3.1 2.2 0 .15-.2.2-1.55-1.2-2.9-1.8-1.5-.7-4.4-1.2-.3.45-.6.85-.05-.05-.25-.15-.1-.05-.1-.5v-.35q-.35-.05-.8-.15h-.1q-.15-.05-.35-.05-.7-.15-1.45-.2m51.85-174.65v-.05h-1q-1.55-.45-1.65-.5-.4-.15-.65-.35-.15 0-.4.05-.75.45-2.2 1-2.55 1-4.3 1.15v.05q0 .9-.25 3.05 0 .2-.05.35l4.2.15v.05h4.25v-.05q1.65.15 2.1-.75.15-.3.15-1.35-.2-1.75-.2-2.8m17.25-2.15q-.05-.2-.05-.4H120.8q-1.6.35-4.4.9-4.35.85-8.45 1.55.2.4.45 1.3.1.35.1 1.55l-.2 1.3h.1q1.1 0 4.9-.85 3.55-1.15 3.8-1.2 2.3-.75 3.25-1.4.2-.15.5-.45.25-.35.65-.85.05-.05.1-.05-.45-.75-.6-1.4m-49.95-1.75v.05q-.05.05-.2.05h-.15v.6q-.05.5-.15 1.3 0 .4.15 1.6.05.2.1.45.05.1.15.2l.2.1q.35.2.6.2.45.05 1 .25l.25-.05q-.15-.7-.25-1.3v-.05q-.05-.5-.05-1h-.05q.05-.15.1-.25l.05-1q0-.15.05-.25v-.15q-.8-.25-1.5-.7-.1-.1-.25-.15 0 .05-.05.1m5.65 1.4q-.05.05-.05.1l.1.1q-.15.1-.3.25-.1.05-.15.15-.4.65-.45.85-.2.75-.2 1.55 0 .9.35 1.2.05 0 .1.05.55.25 4.05.9.05-1.3.15-1.8 0-.85.1-1.25-1.25-.35-2.5-1.2-.45-.3-.9-.65-.15-.15-.3-.25m30.85 2.45h-.05q0 .05.05.1v-.1m12.45 1.4q-.6.35-1.15.6 1.35-.5 1.85-1l-.7.4m-46.45-.15q0 .1-.05.2h.15l-.1-.2m1.85-2.25l-.1.1h.05l.05-.1m-2.1-1.85v.25q.195-.195.45-.2-.208-.002-.45-.05z"/><path fill="#A2ADB8" d="M53.95 330.5h.15l-.2-.05.05.05m8.85-102.55q.15-1.8.25-3.1v-2.55q-.2 2.75-.25 4.65v1m35.25-15.2v.25q.6 2.9 1.6 14.05.85 9.5 2.7 15.35.75 2.25 1.75 6.05.75 2.95 1.2 4.35-2.15-9.1-4.5-23.45-1.65-10.35-2.75-16.6M69.5 333.15l-.7-.3q1.2.55 1.6.7l-.9-.4M80.6 159.9q-.05.05-.05.15 0 .3.45 1.05.2.4.6 1 .05.15.85.45-.3-.2-.55-.35-.2-.1-.65-.9t-.65-1.4m.05 1.7l-.95.95 1.95.05q-.65-.45-1-1m-.5-1.2q.05-.35 0-.5-.05-.15-.25-.2-.25-.05-.45-.1h-.15q-.05 0-1.45-.3 1.6.95 2.4 1.45-.05-.2-.1-.35m-9.25-2.75v.05q0 .2-.2.4l-.2-.3q-.5 1.7-2.25 7.7-1.2 4-1.75 6.65 2.3-4.85 2.65-5.85 1.2-3 1.9-7.1 1.3 1.65-1.65 7.75-1.65 3.55-2.8 5.3l-.2.3q-.55 2.4-.55 3.5 0 3.5.55 7.5.5 4.05.5 6.75 0 3.5-.55 6.4-.4 1.85-1.65 6.95v21.75q-.3 1.9-.95 7.4-.55 4.85-1 7.35V252q.5 2.25.15 6.3-.5 5.6-.5 6.4 0 3.2.55 5.5.5 2.25.5 4.5v.45q-.1.15-.15.25 0 .2-.1.3.8 4.55.65 7.2-.15 2-.55 7.6 0 2-.95 5.3-1.05 3.5-1.15 5.55 0 .6.6 5.4.4 3.35-.6 5.25-1.95 3.55-3.05 11-.85 5.3-2.35 8.25.8-.05 2.2-1.4 1.15-1.15 3.95-.4 4.2 1.6 5.4 2.15 1 .45 2.6 1.1-.9-1.55-2-2.6-1.15-.95-1.2-1.1.5-.75.85-.9.5-.3 1.7-.3.65 0 1.95.15-.8-3.2-5.45-5.65-4.7-1.9-5.15-2.15.3-.7.3-.75l.6-.1q.65-.05 1.05-.05.55 0 2.05.25 1.65.3 2.7.6 1.55.45 3.9 2 1.05.7 5.3.4-2.1-2.8-5.85-4.9-2.6-1.5-2.6-3.4 0-.4.1-.95.1-.55.2-.65.6.15 3.15.2 2.55.05 3.2-.1-2.55-3.15-3.25-4.05-1-1.4-1-2.3 0-2.8 3-5.5-.05.45 2.05-1.75 2.05-2.2 2.5-3.45.45-1.3.15-10.55-.3-9.25-1.9-11.4-6.85-1.35-3.75-5.05 3.05-3.75 6.6-7.7 3.55-4 3.55-6.7 0-5.05-3.35-9.45-2.15-2.95-2.3-3.1-1.05-1.65-1.05-3.2 0-.55 6.25-7.5t6.25-7.8q0-.3-1.85-2.25-1.85-1.9-1.85-3.25 0-.55 1.75-2.15 1.65-1.5 1.65-2.3 0-1.25-1.6-3.6-1.8-2.65-4.15-4.5-6.15-4.7-8.45-6.55-3.85-3.05-5.1-5.1.85-.2 1.35-.2 2.3 0 6.65 1.4l-2.05-1.4.15-.2q.85.4 2.05 1.05 1.6.75 5.2 2.45l2.5.9-.65-.55q-3.55-3.3-9.45-6.65-4.75-2.75-4.75-3.1l.05-.5.2-.1 6.8 3.25-2.2-1.45.6.15q.95.2 3.05 1.45 1.9 1.1 3.2 2.1l5.65 2.75q.4.2 2.3 1.45 1.35.85 1.95.85 10.75-5.5 11.25-5.65 5.5-1.9 7-1.55l-16.95 8 .45.3q3.45-2.1 11.5-4.65 8.15-2.6 14.05-3.45-1.9.9-4.75 1.9-4.85 1.75-20.25 6.6 1.3 1.15 1.5 1.4.25.25.75.95 1.05.7 1.8 1.7.2.25.7 1.05l-1.65-1.2q.25.55.45 2.15.55.85.65 2.65 0 .15.05.3 2.65 8.15 4.75 21.1 2.85 17.45 4.75 24.15 4.35 15.2 7.1 23.95 7 22.2 7 23.85v.05q.15.7.15 1.55.05 1-.05 2.9v8q-.2.55-.2 1.7l.35 9.3.1.05.05-.4.15-.1q.1-.1.4-.1.3 0 .35.05l.15.15.05.7q0 .05-1.5 5-1.55 5.4-1.55 7.55l.6 1.45q.6-.3 1.95-.9 2.6-1.2 3.6-1.55.95-.4 2.6-1.5 1.8-.9 4.75-.95.15.05.35.15 2.9-3.45 2.9-6.75 0-2.95-3.4-5.75-3.45-2.85-3.45-4.3 0-2.7 3.1-6 3.05-2.75 3.05-3 0-1.35-4.3-4.3-4.35-3-4.35-3.7 0-3.6 2.9-8.4 2.85-4.85 2.85-7.25 0-2.9-2.3-5.9-2.35-2.95-2.35-4.25 0-1.6 2.75-4.4 2.7-2.85 2.7-7.1 0-.75-1.4-4.35l-1.8-4.5q-.6-1.6-.35-4.95.35-3.25.35-3.7 0-4.5-.8-8.1-.45-2.15-.7-5.3-.25-1.15-.2-2.8-.05-1.05-.05-2.15-.25-1.8-.25-2.75v-.15q-.45-3.2-2-8.95-2.15-7.4-2.15-7.8 0-1.2.35-2.65v-.2q0-1.1.7-3.05.45-1.4.9-2.2v-.3l-.1-1.6q0-.25.05-.5 0 .3.05.55.05.65.1 1.2 0 .15.05.35.15-.75.15-1.3 0-1.5-3.4-4.95-3.45-3.45-3.45-7.85 0-.55.35-1.2.45-.8.65-1.25-2.35-.7-4.2-1.5-.35-.05-.65-.15-1.6-.25-3.75-2.3-1.9-1.8-2.5-3.1-2.05-4.2-2.1-4.55 0 .15.35.9-1.9-3.85-1.9-5.1 0-1.4.5-1.95l.05-.05q.05-.5.05-.65.15-.2.25-.2.05-.05.15-.05l.1.5q1.25-.75 4-.95l.3-.2-8.4-.8h-2.25q2.1 1.6 3.65 2.75.5.5.5 1.95 0 .85-.1.7l-1.25.35q-.8-.6-5.3-1.6-.9-.2-9.25-1.85H78.8q-.9.15-2.8.95-1.5.6-3.6.7-.25 0-.25-.85 0-.75 2.3-1.9 2.45-1.05 2.8-1.25l.35-.25q-2.7-1.5-3.3-1.8-.85-.45-2.25-.4-.15-.45-1.15-1.95m6.2 22.9q-3.7-1.2-3.7-2.85 0-.4.05-.45.05 0 .2-.1l.4-.05q.5.05.8.45 1.6.65 8.15 2.05-.05-1.2-.05-2.5 0-4.85.45-7.15.65-2.45 1-5.25.35 0 .5.3l.05.55-1.3 11.45v2.7q1.8.2 3.65.3-.15-4.35.3-9.15.5-5.55.5-5.8l.05-.6q.15 0 .15.5v.15q-.05 2.45-.35 8.05l.15 6.9q5.75.85 13.2-1.6 3.8-1.2 7.2-2.8l.15.55-.3.35q-1.85 1.2-7.85 3.35-8.2 2.95-12.2 1.95.2 2.05 1.05 4.4.65 1.95 1.15 2.75-.6-.35-1.6-2.6-1.1-2.45-1.35-4.55l-3.75-.2q.15 1.3 1.65 3.85 1.8 2.9 3.35 3.5l-1-.35q-2.65-.85-3.9-3.85-.7-1.6-.8-3.2-3.05-.1-6-1.05m40.55 83.8q0-.7.4-1.1.05 1 2.3 3.3 2.05 2.1 3.25 2.7 1.85 1.45 3.2 2.85 1 1.05 1.2 1.4-1.05.05-5-3.1-3.65-2.95-4-3.65-.45-.55-.9-1.5-.45-.75-.45-.9m-50 1.4q.35.45 3.05 4.75-2.4-1.95-3.95-3.7-.8-.7-2.25-3.35-1.65-3.1-1.25-4.6.05.1 4.4 6.9z"/><path fill="#709898" d="M119.6 137.6q-.3.25-.3.35 0 .1.3.3-.05-.15-.05-.45 0-.1.05-.2m14.45-25.25q-.1-.05-.15-.05.25.1.5.25l.2.1q-.3-.2-.55-.3m2.75 2.3l-.05-.15q-.3.65-.55 1.15.45-.7.7-1h-.1m.15-.55q-.05.1-.15.25.1-.1.25-.2-.05-.05-.1-.05m2.4-.95q.8-.25 1.1-.4l-1-.05q.05 0 .65-.45.75-.65 1.85-1.65-.75.45-2.2 1.55-1.5 1.1-1.6 1.2l.05.1q.25 0 1.15-.3m2.85-.25q-.25.05-.45.05-.8.15-3.9 1.35-.15.25-.95 1.35-.95 1.35-.95 1.8 0 .1.9 1.1.85 1 .85 1.05-.15.1-.25.25h.05q.55-.55.85-.65.8-.25 3.95-.55.85-.75 1.3-1.05.2-.25 1.65-2-1.05.5-3.05 1.7-.05-.1 1.1-.95l1.2-.8.5-.35q-.75.15-1.95.6-.95.3-1.5.3.4-.3 1.65-1.25 1.05-.9 1.15-1.3-1-.75-2.15-.65m-77.9 12.25q.05-.7.05-.9l-.1.8q0 .05.05.1m3.25-7.95q2.3-.15 3.2-.45.2-.3.2-.55-6.2-1.15-9.3-5.05-3.35-4.3-3.95-13.1 0 5.05 1.7 10.1 2.5 7.35 7.45 9.45-1.05 0-2.45-.55-.55 4.2-.6 4.55l.25 1.7q.15.05.3.2l.1-.15v.25q.35.45.4 1.3 0 .85-.2 2.55 0 .8.35 2.1 0-4.55.8-6.55.45-1.25 2.95-4.15l-.95-1.15-.25-.5M55.9 90.8v-3.3q-.2 1.3-.3 1.65.15.8.3 1.65m1.7-.1v.3q.1 0 .1 5.65.45-7.5.8-11.9-.2 1.25-.9 5.95m1.05-10.1q-.6.25-2.25 4.8 0 .55.15 3.05.2 2.95.4 4.65l1.65-12.3h.2q-.05-.15-.15-.2m-3.25 4.95q-.2-3.55-.7-4.4-.9.5-.9 3 0 1.25.15 2.45 0 1.95.9 4.35.8 2.05.65 2.95.1.15.25.55.25.45.45 1.2-.15.2-1-1.2l-.15 1.05q1.25 6.1 1.25 7.45 0 .7-.1 1-.35.9-1.45.9-.7 0-3.35-.9-3.9-1.3-4.25-1.4h-2.6q-.05-.05-.05 0-.05 0-.05.4 0 .15.55.35 1.85.75 3.9 1.6 2.7 1.75 3.05 1.95l-1.2-1.25q.4.25 2.05 1.6 1.85 1.3 3.25 1.3 1.1 0 1.1-.85-.05-.55-.05-.85-.05-.4.15-.6.3.75.3 1.4 0 1.45-.75 1.45-2.35 0-4.15-1.55 1.95 2.3 3.05 3.4l-.75-.55q-.65-.4-1.55-.8l-.7-.3q.5.65 1.95 2.6 1.35 1.8 2.1 2.3-1.1-.3-3-2.65-1.75-2.3-1.8-2.4-1.4-.15-1.8.15 1 .95 2.1 2.2l.9 1.1q3.45 4.3 5.25 5.45l2.95-1q-.4.9-2.75 1.55-.75 0-2.95-1.95-2.25-2.05-2.25-2.9 0-.3-.4-.7-.6-.6-.75-.8-1.05-.5-2.45-1-1.45-.55-1.95-.55.95.95 1.8 1.95-.4-.15-1.1-.85-.55-.55-.7-.75-.2-.25-.7-.25.35.55 2.2 2.25l-.85.1.05.05h.05q2.45 1.2 4.25 3.4.3.35 2.7 3.75.25.35 1.5 1.85 1 1.2 1.3 1.85.75 1.75 1.75 2.6.2-.2.35-.2.4 0 .4.45 0 .05-.05.2l.8.15q-.1-1.35-1.55-4-1.8-3.5-3.9-4.35.15-.1.2-.2 2.65 1.85 3.55 3 1.45 1.95 2.1 5.55.45-.35.75-1.1.7-2 .7-2.05-.3-1.85-.3-2.4 0-.1.45-2.1.4-2 .4-2.7l-1.6-2q-1.8-2.15-2.5-3.3-.9-1.35-1.7-4.7-.6-2.95-.65-2.95-.1 0-.65-8.35v-1.9q-.15-.25-.25-.45-.95-1.65-1.5-2.9-1-2.55-1-6.1.1-.6.1-1.05.1 0 1.25 5.7 0-1.7-.1-3.3m7.2 37.35l-.15.1q-1.05-3-1.2-3.4.4.4.95 1.65.4 1.05.4 1.3v.35m91.35-35.6l.15.35.15-.9-.3.55M138 78.1l-.05-.4q-2.35.6-5.1 3.1-3.85 3.45-4.7 8.45-.4-1.75-.4-2.35 1-4.15 1.1-5-.1-.05-.25-.05-.35 0-.2-.3.15-.4.1-.5l-.2-.25q-.15.55-1.35 2.65-1.2 2.4-1.55 4.95-.6 4.95-1 10.2-.4 3.1-1.85 4.75-4.05 4.65-10.8 7.5-9.3 3.9-24.1 4.65l-.35.1q0-.05-.05 0t-.05.4q0 .9 5.55 2 6.55 1.3 14.7 1.3 4.25 0 7-.25 1.4-.15 3-.35-.4.2-4.75 1.95-4.55 1.8-5.9 2.5 1.1.65 5.1 1.75 3.15.9 3.15 1.65-.55.95-1.1 1.95-1.05 2.05-1.05 2.75 0 .7.25 1 .5.65 2.1 1 0 1.05-1.45 5.65-.75 2.35-1.55 4.8h-.1q-.15-1.4-.4-1.95-.3-.55-.9-.6 0 1.3-1.1 4.6-.9 2.8-2 5.3l-.2.55-.25.4-.3-2.65q-.05 0-.2-.15-.1-.2-.45-.2t-1.2 1.75q-.05.15-1.75 3.8-.6-.5-2-2.5-1.15-1.6-2.4-2.05-1-.4-3.45-1.65-2.25-1.15-2.4-1.2-.3.05-.4.05-.05.1-.05.55 0 1 .55 1.65.55.7.55 1.3 0 1.1-.55 2.2H89.2q-3-.8-4.55-1.55-.9-.5-1.05-.55.65 1.45.85 2.05.05.3.05.65l-.05-.05-.1.05-.4-.6.7 1.2q-.9-.1-2.65-1.05-1.7-.95-1.75-.95-.4.35-.8.75-1.75-1.8-2.4-2.6-1.05-1.2-1.6-2.7-1.2-3.2-2.4-15.25-.1.05-.3.05-.05.85-.5 3.7-.3 2.3-.3 3.85 0 4.35.55 6.55.1.4 1.3 3.25-.05-.05-.65-1.3-.75-1.55-1.65-3.3l-.3-.4q-.4.5-.4 2.7.05 1.15.15 2.7-1.35-1.8-3.15-6.8-1.45-4.1-1.6-6.7-.2.55-.5 1.4-.75 2.2-.75 4.4 0 1.1.6 2.65.3.9 1.05 2.65.35.95 2 2.3.7.55 1.2 1 0-.45.25-.6 1.95 2 2.65 2.4.2.1.5.2.05 0 .1.05.85.2 2.35.2h.15q-.95-1-.95-1.55 0-.2.15-.5t.3-.35q.2 1.05 1.45 2.25.1-.1.15-.2.15-.4.5-.4.1.1.25.1.05.05.05.25 0 .3-.55.65.1.05.2.15 2.2 1.9 4.8 1.9 1.85 0 3.3-.9 1.25-.95 1.7-1.2l.2.1q.1.05.1.3 0 .4-.8 1.1.15.6 2.2 1.35 2.3.85 4.35.85.05-.1.1-.1.1 0 .15.1 2.4-.1 7-2.35.3 0 .4.25 0 .05-.05.1.95.5 1.95.65l4.8-.1q2.95-.3 8.3-1.5 3.05-.65 5.1-.9.05-.3.25-.35l.1.2q.8-.5 2.45-1.4 3.2-1.75 3.2-3.85l-.1-4.15q-.05-.6-.45-1.35-.35-.55-.85-1.2-1.2-1.35-1.2-1.45l.15-1.1q0-.2.4-1.05.05-.15.15-.3l-1.15.8q-1.5.8-3.45.8-1.1 0-1.5-.4-.2-.15-.2-.4 0-1.2 1.2-1.95 2.7-1.55 3-1.8 1.05-.9 1.5-2.1.25-.9.45-1.45-.2-.3-.4-2.05-.25-2.1-.25-2.15 0-1.4.75-2.05.25-.2.7-.45l-.05-.6q0-2.1 2-6.7 1.3-3.1 2.35-4.75.3-.6.65-1.15-1.25-1-2.45-4.5-1-2.85-1-3.7-.15-7.1-.15-7.7 0-3.15 1.2-5.75 1.3-2.3 1.8-3.25 0-.1.05-.2.1.15.1.3t-1.15 3.45q.5-1.05 2.55-3.1 1.05-1.05 1.6-1.45.6-.45 1.15-.5-2.5 2.2-3.6 3.7-1.45 2.05-2.3 5 1.4-3.7 4.2-5.9 2.15-1.7 4.35-2.05-4.85 1.35-7.5 7.55-1.75 4.15-1.75 7 0 3.7.55 5.55.85 3.05 3.8 5.45-.05.1-.05.15.9.45 2.55 1.2 2 1 2.8 1.55.15-.4.25-.85 1.2-1.5 6.85-4.6 2.05-1.55 2.05-2.85 0-.4-.05-.4-.2.05-.5.05-.2 0-2.8 2.1-2.8 2.3-3.35 2.6-.5.25-1.8.7-1.55.45-2.4.45-1.25 0-3.85-5.15-2.3-4.65-2.3-5.35.25-1.85.75-4.1.95-4.45 2.25-6.6.75-1.15 3.25-3.1 1.25-.95 2.35-1.75 0-.35-.15-.35.4-.15 1.2-.35 1.15-.3 1.25-.3.65 0 3.3.7 2.6.65 3.15.65.4-.2.55-.35-.45-.75-1-1.15-1.1-.7-3.5-.7-5 .8-6.5 1.35 2.9-2.35 8.6-4.8 0-.25-.05-.3-.1-.15-.5-.15-1.95 0-5.85 1.5-3.45 1.25-4.3 1.95l-.55.55q1.15-1.45 2.65-3.2 1.2-1.4 1.6-1.8m-10.85 26.75q.048 0 .05-.05v.1q-.3 4.45-7.25 8.15-6.8 3.6-14.25 3.6-.5 0-3.2-.15-2.8-.15-3.75-.25 4.65 0 11.55-1.05 6.3-1 8.15-1.8 1.5-.65 4.7-4.05 1.65-1.85 4-4.5M114 116.6q4.85-1 6-1.15-1.75.85-3.95 1.45-4.25 1.2-11.3 1.2-7.35 0-11.2-1.2-2.05-1.05-2.8-1.3 5.9 1.4 7.45 1.6 3.1.4 10.5.2 1 .05 5.3-.8m-7.15-41.2l.05.05q.9.7 2.1 1.15l-4.55-3.35q1.2 1 2.4 2.15m-23.2-1.3q-1.9-2.3-2.3-4.65-4.35 1.6-7.6 2.55-2.35.65-2.9.65l-1.6-.05q.5.55 1.35.7.7.15 2.5.15.5 0 3.4-.4 3-.4 3.75-.45 4.8 4 6.5 5.35.7.55 1.2 1l-.05.2-.05.05q.45.7.8 1.3.2.45.2.65 0 .05-.45 1.3-.55 1.8-.55 4.25 0 1.7.15 3.25.2 2.2.55.85-.7-1.75 2.6-6.95 3.15-5.15 2.9-5.5 2.15-1.15 8.85-2.2 1.55 0 2.85.55 1.45.6 10.6 4.5l.2-.05q.2-.15.35-.35-2.45 0-7.9-3.55-.15-.1-2.25-1.55-1.95-1.4-5.5-3.9-3.9 2.7-8.1 4.55-3.65 1.55-4.8 2.2h-.1v-.15l-.1-.05q-.15-.35-.3-.75-.4-.1-1.15-.65l.8 1.15-.05.15q0-.05-.05-.05-2.65-2.7-3.75-4.1m-23.3 5.15q-.4.95-.4 1.95 0 2.75 1.25 7.05 1.5 5.4 3.6 6.3.5-.05.6-.45-1.45-1.9-1.55-2.15-.45-1.05-.65-1.4.25.25 2.05 2.1 1.95 1.75 2.8 1.75l.15-.1.1-.4q-.85-.75-2.35-2.8-1.8-2.55-2.7-4.8l-2.9-7.05M170 121.4v.5q.15-.3.15-.55 0-.1-.2-.35.05.2.05.4m-21.35-24.25q-.4.75-.6 1l.1.35.2.1q1.1-.55 1.25-.85.05.35.3.65l.2.15q.5-.45 1.25-2.1.9-1.9.65-2.65-.1-.2-.25-.35-2.3 2.5-3.1 3.7M119.5 86q-3.55 4.55-7.55 8.2-7 6.25-20.55 9.3.2.15 1.05.25.85.1 1.35.1 9.15 0 18.6-8.55 7.4-6.75 10.4-13.45-.2.15-3.3 4.15m44.4 23.15q-.05.05-.05.1.25.35 1.6 1.75.5.5.85.9-.4-.55-1.15-1.4-.9-.95-1.25-1.35m.1-5.7q-1-2.5-1.1-3.6-.25-2.95-1.35-6.1-1.6-4.3-5.7-11.1-.1.05-.15.05-.4 0-.45-.3v-.3q.05-.15.05-.3.55-2.95.55-3.9 0-1.6-.9-3.65-.35-.8-2.05-3.8-1.1-1.9-6.15-3.6-4.1-1.4-5.6-1.4-2.3 0-3.35.25-.15.05-.2.05h-.05q-.15 0-.25.05-.95.3-1.05.3-.15 0-.15-.05V66q.25-.4.95-.65-1.35-.95-2.1-1.4-.5-.25-1.05-.55-.1-.05-.15-.1-2.25-.9-3.75-1.6-6.35-2.95-8-4.05-3.8-2.6-4.75-4.35-.6-1.15-2.05-2.9-.8-.95-1.1-1.3.25 1.15.5 2.5.1.05.1.1 0 .15-.05.4-.05.05-.1.15.05.05 0 .05-.8 1.55-4.6 6.1-.4.55-.75 1 1.15-.75 3.05-2 2.45-1.5 3.35-1.5.85 0 1.85 4.75.65 3.25.95 5.7v.2l.5-3.4q.05-1.6-.1-3.3-.15-1.4-.15-1.7 0-.4.05-.5.05-.05.1-.2.35.55.65 1.55.35 1.3.35 2.4 0 3.75-2.35 18.15.35-.45 2.6-3.15 1.95-2.35 2.2-2.9 1.75-3.6 4.95-5.6 3.05-1.85 6.7-1.85.35 0 .3.1-.15.25-.15.35.05.05.15.1h.2q.1.05.2.05l-.45.15q.25.05 6 .1 4.95 0 7.35 1.45 3.5 2.2 4.75 3.7 1.3 1.65 1.3 4.2 0 1.5-1.85 4.1-1.8 2.55-1.8 4 0 .6.95 1.3.75.55 2.65 1.6 1.8-4 1.45-5.5.15 0 .2.6l.05.6q0 2.05-1.15 7.35Q153 95 152 98.2q1.25-5.55 2.05-9.9l.05-.35-.05.05q-.5 1.7-1.85 7.55-1.45 5.4-3.1 6.25v.3q.05.1.45.1 1.45 0 3.2-4.3 1.55-3.85 2.7-9.15.1.25.2.35.1.1.1.5 0 .3-.3 1.05-.25.7-.25 1 0 .4 1.35 1.25 1.35.75 1.35 1.7 0 1.9-2.25 3.9-2.7 2.15-3.55 3.15.35.35 4.6.2 4.35.4 5.65 3.45-.25.25-3.4 1.8-2.65 1.3-2.65 2.25 0 .75 1.35 1.1 2.6.7 4.7 1.8l.3.15q-1.05.2-1.35.35-.3.15-.8.6l.05.2q.35 0 2.1.45 2.05.65 2.55 1.15l-.05.05q-3.5-.55-3.8-.7.3.25.6.9.25.6.35 1.05-.1.05-2.65.15-2.5.05-2.65.05 1.75.6 5.9.65 3.1.05 4.4.45 0 .2-.2.65h-3.6q-1.9-.55-2.9-.8-1.7-.45-3.85-.55v.1q2.4-.1 4.05.9 1.3.75 1.6 1.8l-.7.3q1.75.25 4.05 1.1 2 .8 2.5 1.25l-.2.25q-6.6-1.85-7.55-2.1l-.05.05q-.05-.05-2.45.8l-3.15.85q.95.15 1.5.45 2.65 1.45 2.95 1.55.95.35 5.1 1.3 1.5.35 1.9.95.4-.15.95-.35 1.8-.8 1.8-1.85l-.1-.95q0-.25-.1-.5t-.1-.45q0-.25.35-.45.3-.15.3-.6 0-1.1-.95-2.05-.95-1-.95-1.3 0-.2.4-.8.4-.6.4-1.1 0-.65-.15-.95-.15-.35-.7-.7-.75-.55-1.15-1.7-.3-.75-1.6-2.1-.95-1-1.1-1.25l-.25.25q-.4 0-.4-.4 0-.2 1.05-1.35 1-1.15 1-2 0-.05-1-2.55m-2.2 10.1q-.15.05-.2 0l.4-.1-.2.1m.65-19.95l.4 1q-.3-1.25-.7-2.15-1.35-3-6.1-10.35-.1.25-.15.4 1.7 2.1 3.4 4.85 1.95 3.25 3.15 6.25m-62 62.1q-.1-.05-.15-.1-.1.05-.25.15.25-.05.4-.05m-14.25-.4v-.05h-.05l.05.05m-12.85-1.7l-.05.1q.242.048.45.05h.2q-.3-.05-.6-.15m3.15.3l-.1-.05q-.15 0-.3.05.15.05.25.15.05-.1.15-.15M84.9 59l-.1.9q0 2 .55 5.05.6-1.8.75-2.3.3-.9.5-1.55.25-1.4.55-2.9l.4-3.3q-.4.6-1.15 1.65-1.5 1.9-1.5 2.45m69 63.6h-.05q1 .2 2.05.65-.7-.5-2-.65z"/><path fill="#AF886A" d="M141.8 139.1v-.05h-.05l.05.05m1.75-3.9q-.05.1-.05.2-.15.6-.25 1.2l-.1.5q.15-.35.3-.8.2-.75.25-2.1-.047.188-.05.3v.2l-.05.2q-.05.15-.05.3m-14.45 3.2q.2-.2.45-.5-1.3 1.1-2.75 1.1-.55 0-.9-.1l.15.15q.15.1.55.1.25 0 1.1-.25.9-.25 1.3-.45 0-.05.1-.05m-.6-6.3v-.1l-.05.15.05-.05m-2 3.8v.05q.55-1.25 1.5-2.35.25-.5.45-1.35l-.3.95h-.1q-.05-.6-.05-1.2l.05-.5v-.1q.15-.4.1-.4-.9 2.1-1.6 3.3-1.05 1.85-4 3.55 1.15-.3 1.85-.75.8-.5 1.85-1.65.25.2.25.45m5.65-3.7l.25-.25q.6-1.9.6-2.35-.65.6-.85 2.6m.6-2.85h-.05q-1 1.6-1.35 3.2-.25.85-.45 2.2-.6 1.9-4.6 3.75 1.8 0 3.15-1.3.8-.8 1.3-1.1.9-1.75 1.45-3.55-.2.25-.5.95-.3.8-.6 1.15v-.05q-.05.3-.05-.3 0-.4.45-1.95.55-2.05 1.25-3m.6-5.4h.05q0-.35-.35-.9-1.6.3-2.1 1.35-.55 1.25-.7 1.3-.75.45-2.95 1.3-1.4.55-1.4.95v.35q.15.05.15.1-.1 0-.1.05h.35q.05 0 1.7-.7 2.05-.7 3.8-.7 2.65 0 4.55.15.85 0 2.05-.5-2.25.35-3.85-.45-1.3-.7-1.3-1.5l.1-.8m5.25.5q-.8.7-1.9.7-.6 0-1.55-.2-1.05-.25-1.5-.5.5.85 1.15 1.25.85.55 2.3.55.65 0 2.65-.45 1.5-.4 2.45-.15.45.1 1.3.35l.4-1.85q-.45.3-1.5-.1l-1.9-.95q-.75.3-1.9 1.35m5.1-2.65q-.6 0-.7.1l1.65 1.55q1.2-.3 4.25-.75l-.15-.15q.15.1.35.1 1 0 2.35-.7.2-.1.35-.15l.6-.6q1.4-1.45 1.4-2.15 0-.05-.05-.15-.65.75-2.5 1.75-1.95 1-2.7 1.05.1.2.1.65-.15-.25-.35-.65l-3.85.05q.05.2 1.1 1.4l-.5-.25q-.55-.45-.75-1.15-.3 0-.6.05m.5 1.6q-.4-.05-.9-.5l-.55-.55q-.4.55-1.35.6.2.05 1.3.5.95.4 1.25.4.6 0 .7-.4l-.45-.05m-13.8 5.05q.15-.05.25-.05 1.05 0 2.35-.3-1.1-.3-2.6.35M21.9 112.1q-.05-.15-.25-.4l.45.9-.2-.5m18.65 22.25q.05.05 1 .5-2-1.65-3.7-2.75-1.6-1.05-2.85-1.9 3.55 2.85 5.55 4.15m4.75-23q-1.4-.55-2.9-.8 3.5 1.35 5.95 2.5l.2.1-.05-.05q-1.35-1-3.2-1.75M20.05 85.9h-.2q1.5 1.3 3.45 3.2V89q-2.75-2.65-3.25-3.05v-.05m-1.8-1.35v-.05l-.35-.25q.15.15.35.3m59.85-43.1l-.25-.75q.05.35.2.9 0-.1.05-.15m1.8-6.1q-.25.05-.3.05-1.15 1.35-1.6 2.05v.35q0 1.15.35 2.55.3-1.35.85-2.75l.8-1.9q0-.4-.1-.35m-1.3-24.8l-.1-.1-.1.45q.1-.2.2-.35m8.9 51q.05-1.7 0-2.9-1.3 6.55-1.95 7.4.25 1.35.6 2.9 1.3 5.85 1.3 6 .2.7.4 1.45.15.45.4 1.05.1-.7.75-1.15h.05q-.05-.95-.8-4.2-.85-3.85-.85-4.45.1-5.6.1-6.1M94 59.8l.3.95q0-.3-.15-.9L94 59.8m-1.15-1.2q-.7-.5-.8-.6-.3-.55-1.7-2.65-.65-.9-.65-1.35 0-.15-.1-.2l-1.5-.05q.55.85 2.55 3.5 2.65 4.05 2.65 7.1 0 .1-.35.95-.35.95-.35 1.55 0 .4.1.55.05.15.35.55l.5.65q.4-.65.6-1.95.2-.95.2-1.65-.25.15-.45.2-.2-2.2-.2-2.8.2-2.15.2-2.6v-.05q-.25-.6-1.05-1.15m2.95-18.5l-.25-.55q-.5 1.45-1 2.2l-1.3 3.45q1.25-.4 1.95-1.9.6-1.4.6-3.2m-6-6q-.1-.05-.2-.05.35.15.65.55.45.6.45 1.5 3.05 2.5 3.5 2.95l.65-.5Q93.9 37.7 93 36.9q-1.8-1.6-2.35-2.4-.35-.2-.85-.4m-7.15-4.45l.35-.35q.35-.4.75-1.3l-.4-.05h-.15q-.65.65-1.65.95l-.3.1q-.15 0-.3.05-1.4.1-1.75.25.7.25 1.5.45l-.25.1-1-.1q.55.55 1.15.55 1.25 0 2.05-.65m-.5-4.95l-.2-.1h.25l-.05-.05.55-.05q-1.2-.35-1.75-.35-3.45 0-3.45 1.85 0 .35.05.4.1.1.2.15.6.3 1 0 .15-.15.4-.65.4-.25 1.4-.2.35 0 .75.1.7 0 1.25.2.25.1.45.2.4.25.55.6.1.2.1.45.15.3.15.55.05-.15.05-.3 0-.55-.6-1.55-.15-.35-.35-.6-.35-.3-.55-.55l-.2-.1m7.7-11.7q-.45-.4-.65-.6.7.75 1.1 1.4l-.2.05q-2.35.55-6.9-1.15-3.05-1.15-4.2-1.9-.1.25-.25.7.8.75 2.6 1.45 1.35.5 4.5 1.45h4.55q.3-.15.45-.45-.15-.2-1-.95m-6.6 32.65q-.25.1-.25 1.15 0 .35.65.75 1.05.5 3.25.5 1.2 0 2.65-.65 1.6-.7 2.05-1.5l-.1-.25q-.45 0-2.45.85v.5q-3.5-.1-4.8-.65-.65-.6-1-.7m21.3-21.6q-.05-.2-1.25-2.25-1.15-1.9-1.15-2.3.35-1.05.75-2.35.8-2.65 1.15-4.75-1.6 0-4.65-1.05-2.9-1.05-3.3-1.25l.1.25 2.7 2.15q-1 .35-1.6.35-5.45 0-7.2-.7-1.25-.95-2.4-1.5h-.15q.25.3 1.2 1.25.05.1.1.15 3.55 1.05 6.85 1.05.6 0 3.55-.15l.2-.3q-1.8-1.3-2.15-1.7l-.05-.2q.45.7 2.2 1.5 2.05.85 3.55.55-.95 2.6-3.25 9.5.75.3.9.65-.6.5-.75.6-.2.1-.8.2-.6.85-3.5.95-3.2-.1-4.15 0-1.35.45-2.4 1.05-2.05 1.15-2.6 2.9-.05.8-.3 3.35.05-.2.1-.35h.05l.15-.35q0 .35-.05.7v.35q0 1.05-.3 2-.25.85-.75 1.25-.25.25-.6.4-.3.1-.65.1-.5 0-.9-.15-.2-.05-.3-.1-.25-.15-.45-.3-.5-.4-.5-.7 0-.05.05-.1l-.15-.15q0 .05-.05.1-.05.3-.05.5 0 .55.9 1.4.05.05.05.1 1.1 1 2.35 1 .55 0 .95-.3.2-.1.5-.4l.3.15q-.2.35-.45.55-.15.15-.3.25-.45.3-1.05.3-1.75 0-2.9-1.35-.1-.1-.15-.25-.25-.25-.35-.5-.4-.15-1-.15 0 .1.1.2.05.1.2.35.1.15.8.35-.05.1-.1.15-.05.05-.2.05h-.55q0-.05-.05-.05-.1-.05-.15-.05-.1.25-.3.55-.45.65-.5.9l.15.05.2-.35q.1.1-.2.9l-.1.8.7.7q-.15.1-.5.1.8 2.35 1.75 3.4.6.7 1.1.7h.3q.05-.1.05-.7v-.3q-.05-.1-.05-.2h-.1q-.1-.15-.25-1.15l-1.3-2q-.45-.25-1-.75h.55l.25-1.45q.7.3 1.95.7 1.4.45 2 .45.1-.1.05-.25.35-.2 1-.6.6-.3.85-.55.6-.05 1.25-.15.9-.15 1.3-.35-2.65-.05-3.05-.6 1.95.25 2.75 0 .65-.15.65-.75 0-.5-.6-1.1.1.85-.1 1.2-.25.4-1 .4-1.6 0-1.6-1.7 0-.6.85-1.65.85-1.1.95-2.3 1.05.35 1.95.9-1.1-1.35-.7-2.95.35-1.6 1.4-2 .4-.4 1.2-.8.85-.35 1.45-.35H94q.5.05 1.45.25.85.2 1.05.25.1.05.15.1.5.3.95.65.45.35.45.4l-.15.2q-.45.35-1.5.85-.2.05-.45.15-.7.3-1.15.45-.4.1-.65.15v.4q.05.25.1 0v-.05q.1-.2.65-.2-.35.15-.55.2.45.3 1.4.35 1 0 1.65-.4 1.2-.8 1.7-1.25.4-.4 1.35-.9.25.85.6 2.5.35 1.55.35 1.65 0 1.1-.35 2-.4 1-3.35 1.65-.35.05-.65.15 1.4 1.35 2 3.05.4 1.05.9 2.65v-.1q.4-3.75.3-4.1-.3-.1-.5-1.4l.1-.25q.45.45.65.95.05-.2 2.25-2.95 2-3.05 1.45-4.6.25 0 .3 1.55-.05 2.7-2.5 5.1-1.35 1.35-1.45 2.3 0 .5.2 1.45.25 1.55-.35 3.35-.25.9-.85 2.3-.1.15-.15.3-.05 0 0-.3v-.25q-3.45 5.75-3.5 6 7.95-3.5 9.45-5.55.3-.4.8-2.75.55-2.35.95-2.85.1.2.1.35-.05.2-.15 1.6-.2 1.8-.8 3.65-.15.65-2.55 2.1-2.3 1.45-4.6 2.45-.65.25-3.1 1.95-.3.55-1.35 1.3-1.45 1.15-2.5 1.2h-.45q-.9.2-1.55 0h-.05l1.2 2.15q2.85 1.65 3.35 1.7 1.55.35 1.85 2.85.15 1.3 0 2.95.25 1.45.55 3.55.2 1.5.15 1.75h.3q1.3 0 2.75-2.6 1.95-3.5 3.65-11-.3 1.1-1.7 4.45t-1.8 3.85q1.7-4.25 2.1-5.45.65-1.6 2.45-8.45.2 0 .3.55-.1 1.2-.55 2.65.9-2.6.9-2.8.25 1.65.7 3.2.3 1.1.3 1.5 0 3.1-.8 5.6-.65 2.05-2.05 4.55 2.75-2.7 5.8-6.65 1.5-2.15 4.7-6.2-.4-1.25-1.55-6.95-1.9-6.25-2-7.25-.4.3-.55.45-.3.15-.65.15-1.55 0-2.4-.8-.5-.8-.55-.85l.1-.25q1.15 1.4 1.75 1.4.4 0 3.5-1.3 1.2-1.3 2.05-3.65.7-2.15.7-3.7 0-1.7-.5-3.45-.5-1.65-1-2.1-3.1.25-4.55 2.1-2.35 2.95-3.65 3.8-.1-.25-.2-.35l-.05-.05q-.05-.55-.2-1.5-.1-.8-.1-1.1.3-2.15.15-2.5m8.15 1.45q.8.25.8 1.3 0 .3-.05.5-.05.25-.2.35v-.55q-.35-.75-1.05-1.1-.4-.25-.8-.25-.5 0-.9.4-.5.4-.9 1.15-.65 1.1-.85 2l.2.3q1.4-.5 2.25-.25.85.2.85 1.15 0 .4-.05.5h-.2q-.25-.6-.35-.8-.2-.35-.6-.35-.55 0-1.5.1.9.7.9 1 0 .15-.35.45-.3.25-.85.55-1.2.75-1.2 1.3 0 .85.2 1.2.25.3.7.3.45 0 1.25-.65.35-.3.7-.65 0-.05.05-.1v.15q-.1.55-.45 1-.55.7-1.4.7-1.2 0-1.5-.9v-1q0-1.05.35-1.4.4-.35 2-.65v-.3l-.6-.7q-.3.35-.45.25 0-.1-.2-.45t-.2-.7q0-2.15 2.1-3.3V26q.25-.1.55-.25.2-.1.4-.15h.05q.7-.3 1.3-.1m24.1 108.1q.15.1.3.4.4.7.5.75.15.15.6.35-.5-1.6-1-2.9l-.4 1.4M7 86.5q0-.95-.6-4.5-.55-3.6-1.7-4.3.15 1.75.75 4.75Q6.15 86 7 86.5m17.55 16.3q-.05-.25-.9-1.65Q22.7 99.75 22 98q.4 1.6.5 1.75.6 1.5 2.05 3.05m5.5-8.25q0-.65-.2-1.65-2.3 6.5-3.5 11.45-.55 1.25-1.65 1.55-.85.2-3.9.2-3.45 0-5.9-.85-.75-.35-1.2-.55 1.9 1.6 4.55 2.6 4.1-.05 4.35.1-1.55.45-2.8.45h-.6q-.1.1-.2.15.9.65 1.8 1.7.6.65 1.7 1.95.6 1.4 1.8 4.1 1.9 5.15 4.3 8.15 2.6 3.25 9.8 7.55 3.6 2.15 6.95 5.45 1.85 1.8 4.2 1.8 4.35 0 7.5-6.15L59 128.3q.3-.6.55-1-1.1-.85-2.05-2.95-.35-.7-1.25-1.8-1.1-1.3-1.4-1.75-2.25-3.3-2.5-3.6-1.8-2.1-4.5-3.5-1.95-1-6.45-2.65-.1-.05-.15-.05 1.35 1 2.25 1.7 2.35 1.95 4.05 4.05 2.65 3.4 2.7 3.4 1.6 2.3 1.6 3.6 0 .65-.1 1.55H48.9q-2.8-.45-6.15-2-3.45-1.55-6.55-3.85-4.25-3.1-6-5.65-1.75-2.45-1.75-5.15 0-.55.7-3.6.5-1.9.6-2.6-.05-.1-.05-.15h-.1q-.35 0-.45-.8v-.85q0-1.3.45-3.2.45-1.85.45-2.9m-6.65 13.5q-.25-.5-.35-.65.65.35 2.85 3.2l.15.2-.05.1q-2.05-1.95-2.6-2.85m.85-.8q.4.05.8.25.95.75 1.3 1.45.2.35.25.6v.2h-.1q-.2-.35-.7-.95-.8-.95-1.55-1.55m-9.15-13.2l-.2-.3q0 .05-.05 1-.1 1.05-.2 1.55.35-.7.4-.9.15-.4.15-.8t-.1-.55m-1-6.05l-.7-.8q-.45.45-1.25 1.1-1.05.8-1.75 1 1.1.8 1.15 1.05.05.15.1.25.35.05-.25.05-.45 0-1.2-.15.1.35.35.85.15.4.15.75 0 .5-.35.8-.35.25-.45.3.1 0 .5.35l-.35.65q.8 0 1.4-.3.55-.35.55-.8l-.8.35q.55-1 .65-1.8v-1q.1 0 .15.15.85-.1 1.45-.6.65-.6.65-1.4-.7.75-1.2 1.15l-.45-.15 1.7-1.8v-.1l-.05.1m5 .15l.05.05q-.2 1.35-1.6 2.9-1.25 1.4-2.55 2.05l.55 1.35q0 .85-.8 2.55-.8 1.55-1.4 1.9l.25-.6q-.65.55-3.45 1.55.65.3 1 .35.95-.2 1.55-.4-.25.55-.7 1l-.35.45q0 .35.05.4l.05.05h.3q.9 0 2.6-2.45 4.4 2.85 6.35 3.9 1.95 1.1 2.9 1.1.6 0 .7-.1.2-.1.2-.55v-.4h-.05q-1.65-1.2-2.6-3.65-.8-1.95-.8-3.65 0-1.9.15-2.5.2-.8 1.05-2.05l.1-.1q.45-.55.6-1.3 0-.1.05-.2-.8-.6-2.75-2.35-.85-.8-1.55-1.4-.35.3-.5 1.05-.25 1.65-.65 2.2-.1.15-1.15.8-.75.5-1.4 2.05 2-.8 2.7-1.85.45-.6 1.1-2.1v-.05m-10.25 4.7q-.25.2-.65.2l-.7-.1-.25.9q.1.15.65.6.4.25.45.7.1.55-.05 1.3-.1.4-.3 1.35.2.25.5.6.55-.1 1.2-1.6l-.35.3-1.1.6.65-.5q.65-.65 1.15-2.2l-.05-.1q-.1-.3-.5-1.1-.2-.3-.4-1.3-.2.3-.25.35m-.2-3.15q.6-.3 1.3-.55.4-.35.4-2.4 0-.5-.8-1.6-2.45 3.55-2.15 5.2.1.45.35 1.15.15.6-.15 1.3 1.5-.75 1.75-1.6.1-.9.35-1.5-.5.35-.95.35-.4 0-.45-.05l-.05-.1.4-.2m2.4-5.55q.05.5-.05.6-.15 0-1.1-.75l-.1.15q.85 1.25 1 1.45.75.75 2.55 1.55-.6-.55-3.05-2.4l.8.35q1.6.7 2.45 1.35.2.15.85.8.7-.2 1.1-.45l-.15-.05-.05-.1q.25-.3 1.25-.95.45-.25 1.25-.75-.75-.65-1.05-.85-.55.25-1.2.75l-.9.7q-.3 0-1.15-.3-1.3-.6-2.45-1.1M86.6 61.1q.25-.95.35-1.45l.2-1.45q-.3 1.5-.55 2.9m79.45 67.75q-.4-1.05-.55-1.65-.05-.05-.05-.15 0-.1-.05-.2-.1-.15-.1-.3-2.5-.45-4.1-.95-.2-.05-.4-.15-.05.85-.3 1.05-.25.2-1.1.2-3.8 0-7.9-.8-4.5-1.05-6.75-1.6-.35.9-.5 2.6.2-.4.45-.6-.1.2-.35 2.15-.25 1.9-.25 2.3l.25 3.05q0 1.4-.35 2.7-.45 1.65-1.3 2.2 0 .05-.05.15 5 5.7 14.25 6.65h3.1q3.1-.15 3.9-.35.3-.1.7-.45 0-.05.05-.05l.1-.1v-.05q.1-.2.2-.35.2-.4.45-1h.05q.45-1.25.85-3.2.65-4.6.65-5.25-.4-2.7-.4-3.9 0-.75-.5-1.95m-1.5 1.35q-.25 1.1-.85 1.7-1.35 1.45-4.4 1.45-1.7 0-5.2-1.4-4.55-1.8-6.6-4.4 8.35 5.2 12.35 5.2 2 0 3.15-.8.55-.4 1.55-1.75m-11.05 3.65q2.8.95 3.35 1.1 1.1.25 2.4.25.5 0 1.45-.2 1.05-.25 1.3-.5-.4.7-1.35 1.05-.65.2-1.3.2-3-.4-4.95-1.3l-.9-.6z"/><path fill="#795F49" d="M143.25 136.6q-.1.35-.2.65.05-.1.1-.15l.1-.5m-9.95-7.45l.05.05.05-.05h-.1m11.4-9q-.002.052-.05.1h.05v-.1m-16 9.15l-.05.15q.3.15.7.2 0-.25.25-.5-.45.2-.9.15m4.5-1.15q.15-.1.65-.15.45-.1 1.25-.1.75 0 1.7-.2-1.15.1-2.95.2l-.65.15v.1m-41.25-75h.1q.5-.05 1.05-.25-.3.1-.65.15l-.5.1m20.1-16.7q-.1.05-.15.1l.05.05q.05-.1.1-.15m-12.5 8.15h-.15q-.05.3 0 .3.05-.15.15-.3M81 34.35l.1-.05h-.05l-.05.05m10.15-5.9v-.05l-.1-.05.1.1m-9.2-3.85l.2.1.2.1.1-.15q-.15-.05-.25-.05h-.25m28.8 8.75q-.05.05-.05.1l.05.05v-.15M110.4 26l.1.15q.4-.4.9-.4l-.05-.15q-.2.05-.4.15-.3.15-.55.25M19.15 88.2l-.05-.05v.05h.05M10 94.9l.05.1v-.15q0-.2-.05-.4h-.1l.1.45m132.7 43.8q-.05 0-.1.05.05.05.05.1.05-.1.05-.15z"/><path d="M128.55 130.45q-.25.35-.5.95v.1l-.05.5q0 .6.05 1.2h.1l.3-.95v-.1l.05-.15v.1l.8-2 .15-.3q-.45.2-.9.65m4.45-.85l.35-.25q.25-.25.05-.2l-.05.05q.15.1-.4.05l-.2.1q-.7.95-1.25 3-.45 1.55-.45 1.95 0 .6.05.3v.05q.3-.35.6-1.15.3-.7.5-.95.9-.5 1.8-.7l.8-.15h-.95q-.95.05-1.45.25l-.25.25q.2-2 .85-2.6m5.4-2.9q2-.85 1.35-.9-2 .45-2.65.45-1.45 0-2.3-.55-.65-.4-1.15-1.25l-.25-.5h-.05l-.1.8q0 .8 1.3 1.5 1.6.8 3.85.45m10.25-4.35q0-.45-.1-.65l-.15-.45q-.1.2-.1.45.2.4.35.65m-5.35.55q.5.45.9.5l.45.05-1.65-1.55-.4-.5q-.3-.35-.5-.35.25 1 .65 1.3l.55.55m1.4-2.65h-.05q-.1.2-.2.6-.1.55-.15.9.2.7.75 1.15l.5.25q-1.05-1.2-1.1-1.4 0-.1.25-1.5m-16.05 9.2l.05-.15q-.1-.15-.15-.2-.05-.1-.4-.1-.4 0-1.25.1-1.05.1-1.25.15l.1.45q.25-.1 1.15-.25.95-.15 1.5-.15l.15.05.1.1M139.1 135q0 .6.05.35l.05.05q.1-.1.4-.75.55-.55 1.9-.55.05 0 1 .65.05-.1.05-.3-.9-.7-1.65-.7-1 0-1.5.6l-.3.65m1.85-3.85q.3 0 .7.2.3.15.35.1-.2-.55-.8-.55-1.05 0-2 .5-.8.5-.8.95 0 .6.05.3h.1q1.3-1.5 2.4-1.5m-2-3.25q-.75.2-1.1.7v.05q-.2.3-.25.7l-.1.35q-.05.35.05.35h.05V130q.5-.9 1.3-1.35.7-.4 1.65-.4.05 0 .7.35.05.05.15.05.65.25 1 .25l.15-.05q-.25-.1-.4-.2-1.9-.85-2.3-.85-.5 0-.9.1m2.45-1.3q-.45-.1-1-.2l-.95.15q-.45.4-.8.65 1.4-.35 2.75-.6m-81.5-4.95q-.9-1.15-3.55-3-.05.1-.2.2 2.1.85 3.9 4.35 1.45 2.65 1.55 4h.4q-.65-3.6-2.1-5.55m-14.6-16.6q1.35.3 3.25 1.4 2.45 1.3 3.4 2.65.05.1 1.8 2.4 1.9 2.35 3 2.65-.75-.5-2.1-2.3-1.45-1.95-1.95-2.6-.85-1.35-2.9-2.55-2.15-1.35-4.5-1.65m-3.5 2.15q2.45.2 3.25.3 2.35.3 4.55 1.7 2.1 1.4 2.65 3 .15.2.75.8.4.4.4.7 0 .85 2.25 2.9 2.2 1.95 2.95 1.95 2.35-.65 2.75-1.55l-2.95 1q-1.8-1.15-5.25-5.45l-.9-1.1q-1.1-1.25-2.1-2.2-1.25-1.1-3-2.1-2.3-1.4-3.65-1.4-.45 0-1.5.35-1.1.35-1.85.85.35.15 1.65.25m8.95-1.6l1.2 1.25.7.65q1.8 1.55 4.15 1.55.75 0 .75-1.45 0-.65-.3-1.4-.2.2-.15.6 0 .3.05.85 0 .85-1.1.85-1.4 0-3.25-1.3-1.65-1.35-2.05-1.6m3.15-14.05l-.2-.1q-.25-.1-.3-.05.05.05.7 1.2.55 1 1.1 1.85.85 1.4 1 1.2-.2-.75-.45-1.2-.15-.4-.25-.55-.1-.15-.05 0-.7-1.6-1.55-2.35M62.45 123l.15-.1v-.35q0-.25-.4-1.3-.55-1.25-.95-1.65.15.4 1.2 3.4M80.2 38.15l-.2.35-.55 1.05q0 .4.15.6.1.15.5.5.35 0 .5-.1l-.7-.7-.1-.25.2-.55q.3-.8.2-.9m.5-8.4q-.8-.2-1.5-.45-.45-.65-.7-.85-.4-.5-.35.2.05.1.5.7.4.5.8.4l1 .1.25-.1m74.45 52.6q-.05-.6-.2-.6.35 1.5-1.45 5.5-1 2.35-4.75 6.95 1.75-1.45 2.4-2.25 1.35-1.7 2.8-4.65l.3-.55-.15.9-.05.35.05-.05-.05.35q-.8 4.35-2.05 9.9 1-3.2 2.05-7.9 1.15-5.3 1.15-7.35l-.05-.6M120 115.45q-1.15.15-6 1.15-4.3.85-5.3.8-7.4.2-10.5-.2-1.55-.2-7.45-1.6.75.25 2.8 1.3 3.85 1.2 11.2 1.2 7.05 0 11.3-1.2 2.2-.6 3.95-1.45m7.2-10.55l-.05-.05q-2.35 2.65-4 4.5-3.2 3.4-4.7 4.05-1.85.8-8.15 1.8-6.9 1.05-11.55 1.05.95.1 3.75.25 2.7.15 3.2.15 7.45 0 14.25-3.6 6.95-3.7 7.25-8.15m7-38.3q-.1-.05-.15-.1-7.3 2.4-9.8 6.2-.45.7-1.7 3.35-1 2.1-2.2 3.5 2.1-1.85 2.85-3.45.55-1.6.9-2.4 1.25-2.75 10.05-6.9l.05-.2M85.45 97.4q1.75-2.25 1.75-2.55-.5-1.4-1.05-2.9l-.15.2q.55 1.9.65 2.6-2.6 3.7-3.05 4.3-.4.6-.4 1.15 0 .3.7 2.75.75 2.5.75 3.6 0 .1-1.4 2.25-1.35 2.1-1.35 3.95 0 2.3 1.1 5.8.55 1.7 1.1 3.45 0 3.25-1.95 9t-1.95 9.45q0 2.5.7 5.75 1.05 4.8 3.05 6.7l.4.6.1-.05.05.05q0-.35-.05-.65-.2-.6-.85-2.05-1-1.3-1.6-2.65-1.2-2.55-1.2-7.2t1.9-9.95q1.95-5.35 1.95-8.55 0-.55-1.1-4.15-1.1-3.5-1.1-5.6 0-1.75 1.35-3.4 1.4-1.65 1.4-2.85 0-1-.75-3.65-.7-2.45-.7-2.5 0-.6 1.7-2.9m2.4-18.2v-.05q-.4.65-1.9 3.05-1.3 2.05-1.3 5.45 0 .55.95 3.3l.2-.05v-.1q-.65-2.15-.65-3.15 0-.2 1.05-3.4 1.25-3.8 1.65-5.05m-6.5-9.75q.4 2.35 2.3 4.65 1.1 1.4 3.75 4.1l.1-.1-.8-1.15q-.65-.95-3.35-5.2-1.9-2.95-2.1-2.95-1.25 0-5.55 1.45-5 1.7-5.5 1.8 1.05-.55 4.2-3.95 3.25-3.6 3.4-4.65l-.15-.1Q74.9 66.8 71.6 69.9q-2.5 2.3-2.5 2.5l.1.2h.05l1.6.05q.55 0 2.9-.65 3.25-.95 7.6-2.55m22.55-14.3l.8-2.4q.45-1.45.55-2.65-.1-.55-.3-.55-1.8 6.85-2.45 8.45-.4 1.2-2.1 5.45.4-.5 1.8-3.85t1.7-4.45m14.8 2.5q-.05.1-.05.5 0 .3.15 1.7.15 1.7.1 3.3l-.5 3.4v-.2q-.5 3-1.2 6.9-.8 4.7-.75 6.45-6.95-2.9-7.4-3.1H109q-1.2-.45-2.1-1.15l-.15.25q2.1 1.45 2.25 1.55 5.45 3.55 7.9 3.55h.4l.15-1.25q2.35-14.4 2.35-18.15 0-1.1-.35-2.4-.3-1-.65-1.55-.05.15-.1.2m-30.6-23.6l-.35.15q.1.05.9.4.75.3.9.4.6.6.6 1.1 0 .6-.65.75-.8.25-2.75 0 .4.55 3.05.6.35 0 .65-.4.25-.4.25-.95 0-.9-.45-1.5-.3-.4-.65-.55-.35-.1-.5-.1-.45-.1-1 .1m1.7-1.45q0 .15.4 1 .35.75.45.9.55.8 2.35 2.4.9.8 1.85 1.65l-.65.5q-.6.55-1.3.75-1.3.4-4.8.4-1.65 0-6.95-.55h-.55q.55.5 1 .75l.6.15q.5.1 3 .35 2.55.2 3 .2 4.4 0 5.65-.75.75-.4 1.35-1.4l.35.55v.05l.25.55.2.8q.35-1.85.35-2.5 0-.4-.1-.45-.1-.1-.6-.1-4.85-4.05-5.8-5.45l-.05.2m-8.7 1.7l-.1.05q-.75.4-.75 1.65 0 .55.05.6.05.25.35.4.05 0 .15.05.05 0 .05.05h.55q.15 0 .2-.05.05-.05.1-.15-.7-.2-.8-.35-.15-.25-.2-.35-.1-.1-.1-.2 0-.3.25-.8.25-.55.25-.7v-.2m.9.3v.15q-.05.05-.05.1 0 .3.5.7.2.15.45.3.1.05.3.1.4.15.9.15.35 0 .65-.1.35-.15.6-.4.5-.4.75-1.25.3-.95.3-2V32q0-.2-.1-.35h-.05q-.05.15-.1.35-.15.65-.25 1.75-.05.2-.15.45-.3.9-1.15 1.5h-1.05q-.55-.1-1-.55-.35-.4-.55-.55m2.25-7q0-1.05-.45-1.9-.55-.85-1.35-1.05l-.1.15q.2.25.55.55.2.25.35.6.6 1 .6 1.55 0 .15-.05.3v.15q-.2 1-1.25 3.2-1.3 2.75-1.3 4 0 .45.35 1 .1.25.35.5.05.15.15.25 1.15 1.35 2.9 1.35.6 0 1.05-.3.15-.1.3-.25.25-.2.45-.55l-.3-.15q-.3.3-.5.4-.4.3-.95.3-1.25 0-2.35-1 0-.05-.05-.1-.9-.85-.9-1.4 0-.2.05-.5.2-1.2 1.2-3.45 1.25-2.75 1.25-3.65m15.5 7.8q.2 1.3.5 1.4.1.35-.3 4.1v.1l-.55 3.35v.25h.15q.6-1.4.85-2.3.6-1.8.35-3.35-.2-.95-.2-1.45.1-.95 1.45-2.3 2.45-2.4 2.5-5.1-.05-1.55-.3-1.55.55 1.55-1.45 4.6-2.2 2.75-2.25 2.95-.2-.5-.65-.95l-.1.25m-5.5-5.85h.1q.2-.05.55-.2-.55 0-.65.2m-2.2-.55q-.2-.1-.9-.6v.05q.35.35.85.65l.4.2q1 .45 1.75.3v-.4q-1.05.25-2.1-.2m-.6-4.3l-.1-.15q-2.3.55-3.05.95-.5.45-1.05.75-.45.5-.7 1.2-.15.55-.45 2.3.1 0 .2-.35.1-.45.15-.75.55-1.75 2.6-2.9 1.05-.6 2.4-1.05M83.1 45.3l.15.35q.35.1 1 .7 1.3.55 4.8.65v-.5q-1.5.25-3.85-.45l-2.1-.75M111.8 31h.2q.05-.1.05-.5 0-.95-.85-1.15-.85-.25-2.25.25l-.2-.3q.2-.9.85-2 .4-.75.9-1.15l-.1-.15v.05q-2.1 1.15-2.1 3.3 0 .35.2.7t.2.45q.15.1.45-.25l.6.7v.3q-1.6.3-2 .65-.35.35-.35 1.4v1q.3.9 1.5.9.85 0 1.4-.7.35-.45.45-1l-.05-.05q-.35.35-.7.65-.8.65-1.25.65-.45 0-.7-.3-.2-.35-.2-1.2 0-.55 1.2-1.3.55-.3.85-.55.35-.3.35-.45 0-.3-.9-1 .95-.1 1.5-.1.4 0 .6.35.1.2.35.8m1.7-4.2q0-1.05-.8-1.3-.6-.2-1.3.1h-.05l.05.15q.4 0 .8.25.7.35 1.05 1.1v.55q.15-.1.2-.35.05-.2.05-.5m54.55 95.95l.2-.25q-.5-.45-2.5-1.25-2.3-.85-4.05-1.1-3.4-.3-3.4-.35h-.9q.45.1 3.1.85.95.25 7.55 2.1m-.95-4.35q.2-.45.2-.65-1.3-.4-4.4-.45-4.15-.05-5.9-.65-.75-.05-1.55-.05-1.55-.1-1.6-.05l-.3.1q.1.15 1.15.15 1.2.05 2.05.25 2.15.1 3.85.55 1 .25 2.9.8h3.6m-1.95-3.2l.05-.05q-.5-.5-2.55-1.15-1.75-.45-2.1-.45-9.85.1-13.4.85-1.2.25-1.85.65-.5.35-.8.5l-1.2.8q-1.15.85-1.1.95 2-1.2 3.05-1.7 2.05-.65 3.3-.95 3.05-.65 6.5-.65l5.8.1.5.4q.3.15 3.8.7m-2.3-20.6l-.4-1q-1.2-3-3.15-6.25-1.7-2.75-3.4-4.85.05-.15.15-.4.3-1.15.7-4.25 0-4.55-3.3-8.15-4.6-5.05-14-4.75-.95.05-1.6.2-.8-1.15-7.35-3.85-1.8-.8-4.3-2.1-2.55-1.4-3.45-1.85-3.15-1.65-5-4.45-2.25-3.3-3.7-4.4-.049 0-.05.05v-.05q-1.75-8.2-3.2-10.8l.35-.3q.45-.4.8-.8l-.05-.05q-3.1 1.3-3.5 1.3-.6 0-1.75-1.4l-.1.25q.05.05.55.85.85.8 2.4.8.35 0 .65-.15.15-.15.55-.45.1 1 2 7.25 1.15 5.7 1.55 6.95-3.2 4.05-4.7 6.2-3.05 3.95-5.8 6.65-2.6 2.4-8 6.55-1.55 1.1-2.35 1.65-1.35.95-2 1.55-.3.25-2.35 1.75H89q-.65.45-.75 1.15-.25-.6-.4-1.05-.2-.75-.4-1.45 0-.15-1.3-6-.35-1.55-.6-2.9.65-.85 1.95-7.4.2-1.2.45-2.6.05-.9.05-1.35 0-.65-.15-.95h.25l1.5.05q.1.05.1.2 0 .45.65 1.35 1.4 2.1 1.7 2.65.1.1.8.6.8.55 1.05 1.15v.05q0 .45-.2 2.6 0 .6.2 2.8.2-.05.45-.2.05-3.45-.05-4.25l-.3-.95.15.05.85.15q.6 0 .45-.1-3.4-2.3-4.15-3.95l-1.2-2.15h.05q.65.2 1.55 0h.45q1.05-.05 2.5-1.2 1.05-.75 1.35-1.3 2.45-1.7 3.1-1.95 2.3-1 4.6-2.45 2.4-1.45 2.55-2.1.6-1.85.8-3.65.1-1.4.15-1.6 0-.15-.1-.35-.4.5-.95 2.85-.5 2.35-.8 2.75-1.5 2.05-9.45 5.55-.05.1-.05.25-.1.05-.25.2-.65.85-.85 1.05-.85.7-1.65 1.05-.55.2-1.05.25H89.7q-.3-.3-3.15-.3-.6 0-.8.25-2.45-.9-3.3-1.35-1.6-.8-1.6-2.05.15-1 .15-2 0-.55-1.5-3.95-.8-1.85-1.15-3.4-.35-1.4-.35-2.55v-.35q-.1-1.45-.7-2.95-.7-1.7-.7-2.2 0-.3.3-1.7.25-1.4.25-2.35 0-1.05-.6-2.4l-.45-1.05q-.15-.35-.15-.4 0-.3.25-1.85.1-.65.25-1.5.5-2.8.7-3.55.35-2.5.7-3.5.6-1.6.9-2.5.15-.45.25-.7.05-.25.05-.35 0-.55-.4 0-.05.05-.05.1-.1.15-.2.35-.2.4-.35.85-.45 1.25-.55 1.8l-.8 3.6q-.15.7-.7 3.55-.6 3.15-.6 3.65 0 .45.6 1.65.55 1.2.55 2.25 0 .85-.25 2.15-.25 1.3-.25 1.9 0 .8.45 1.95.25.6.75 1.9.4 1.3.45 3.9.05.25.15.65l.25.75q.2.6.55 1.45.2.65.55 1.45 1.35 3.15 1.35 3.45l-.15 1.85q0 1 .1 1.15.15.4 1.4 1.2.6.4 1.75.9t1.95.65q-.2.15-.4.35-1.05 1.2-1.4 1.55-1.35 1.25-2.2 2.45-1.55 2.15-2.7 3.65v-.2q-.1 0-.15-.05-16.15 1.95-23.2 7.3-2.45 1.85-3.8 4.2-.45.7-.8 1.5-1 2.35-1 5.15L49.7 82q0 .4.05.7v.1q-.65.65-1.25 1.45-2.25 2.9-4.5 7.95-.8 1.75-1.35 3.35-1.85 4.9-1.85 8.2 0 .45.1.8 0 .1.05.25h-.1q-3.25-.05-3.8 1.65-.2.7-.35 1.85-.95-.45-1.55-.7-1.05-.5-2.2-1.65-1.05-1.05-1.5-1.95-.15-.2-1.3-2.3-.05-.15-.1-.2.1-.85.3-2.5.3-2.6.3-3.6 0-2.6-.45-4.2-.25-.9-1.9-4.8-.15-.4-2-5.5-1-2.75-1.45-3.4.2-.1-.05-.1-.15-.1-.2-.1-.75 0-1.15 1.75-.25 1.1-.25 1.95 0 2.1.6 4.3.1.4.2.75.15.7.35 1.4 0 .25-.2.8 0 .3-.15.85-.1.2-.1.4-.05.05-.05.1-.3-.25-.55-.5-1.95-1.9-3.45-3.2-.9-.8-1.6-1.35-.2-.15-.35-.3-.3-.25-.55-.45-2.85-2.3-4.4-2.85-6.25-1.9-6.35-1.9l-.2.05h-.1l-.05-.05q-.05-.25-.7-1.05-.65-.85-.95-.95-.05 0-.05.05-.4-.35-.65.15-.15.3-.15.85l-.05 1 .4 5.15Q3.65 83.4 2.45 82 .5 79.75.5 78.6q0-.35.3-.9l1.05-.05q.25 0 .75.2l.35-.05V77.65q-.2-.1-.4-.15Q1 76.85.4 77.4q-.4.35-.4 1.2 0 .9 1.85 3.4.2.3 1.3 2 .85 1.35 1 1.4h.05l.05.45h-.1v.85l1.45 3.05q0 .55-.25 2.35 0 2.6.6 3.6.45.8 2.75 3.95l.3.35.2.3q1.65 2.4 3.75 4.5 3.25 3.25 5.55 3.25h.15V108.2q0 .3 1.45 1.8 1.1 1.1 1.55 1.7.2.25.25.4l.2.5 1.55 3.5q.2.5.4.95l.05.1q0 .1.05.2.05.05.05.15.05.05.05.1.55 1.35 1.35 2.7 1.1 2.1 2.4 3.9 1.25 1.7 4.2 3.95 1 .75 2.8 2.05 1.25.85 2.85 1.9 1.7 1.1 3.7 2.75.7.55 1.4 1.15 1.3.95 2.6 2.45 1.2 1.05 3.4 1.05h.25q1.05 0 2.1-.35.65-.2 1.35-.5 1.7-.7 2.55-1.45.5-.5 1.1-1.65.7-1.45.9-1.75.95-1.5 2.3-4.1.65-1.25 1-1.95.25.05.5.05.55 0 .55-.4-.3-.1-.75-.35.05-.15.05-.2 0-.45-.4-.45-.15 0-.35.2-1-.85-1.75-2.6-.3-.65-1.3-1.85-1.25-1.5-1.5-1.85-2.4-3.4-2.7-3.75-1.8-2.2-4.25-3.4h-.05l-.2-.1q-2.45-1.15-5.95-2.5-.55-.25-1.1-.45-1.05-.4-1.95-.75 1.55 0 4.85.05 1.45.05 2.65.65.55.3 1 .95.15.2.7.75.7.7 1.1.85-.85-1-1.8-1.95-.65-.95-2.75-1.55-1.9-.55-4-.55-.95 0-2.5.2 0 .05-.2.2-.65-.25-1.15-.45 0-.15.05-.25.1-.3.2-.7.15-.5.3-.85.6-1.25 3.25-1.55 0 .05.05.1.2 0 .3-.15.05-.05.05-.1.1 0 .1-.35l-.3-.95q0-5.4 4.65-13.7 2.35-4.15 4.65-7.5 0-.2-.05-.25-.1-.05-.1-.1l-.2.2q.45-3.75.9-5.7.85-3.75 3.8-6.45 1.45-1.35 3.8-2.75 2.2-1.3 4.2-2.05l.6-.2q.05-.05 1-.2 1.85-.4 7.3-1.4 4.65-.9 6.25-1.5.4-.15.6-.25-.1.1-.15.2-.4.45-.7.85l.15.15q.7-.9 1.1-1.25v.05l-.05.6q.4-.5 1.5-2.2.65-1 1.2-1.7.2-.3.4-.55.4-.5 2.35-2.6l.15-.15q1.3-1.4 1.5-1.65h.15q.4.05 1.45.15l-.05.25q-.2.35-2.15 3.05-.2.25-.35.5-.6.85-.6 1.2-.2.55-.2 1.05 0 3.25 1.4 9.9 1.15 5.35 2.1 7.9.15.4.3.75l.1.05h.05l.05.15q1.15-.65 4.8-2.2 4.2-1.85 8.1-4.55 3.55 2.5 5.5 3.9l.1-.3q-1.2-1.15-2.4-2.15-.9-.75-1.9-1.5-1.05-.8-1.25-.8-.2 0-2.15 1.5-2.3 1.75-3.6 2.35l-4.35 1.9q-1.65.7-2.35 1.15v-.35q.05-.2.3-.4.15-.1.55-.4.4-.35 1.95-1.6.7-.7 2.1-1.65l.85-.65q0-.05.05-.05t.1-.05l8.3-6.65 1.15-.95q1.65-1.4 3.2-3.3.65-.85 1.8-2.4.35-.45.75-1 3.8-4.55 4.6-6.1.05 0 0-.05.05-.1.1-.15.05-.25.05-.4 0-.05-.1-.1-.25-1.35-.5-2.5.3.35 1.1 1.3 1.45 1.75 2.05 2.9.95 1.75 4.75 4.35 1.65 1.1 8 4.05 1.5.7 3.75 1.6.05.05.15.1.1 0 .2.05.25.1.85.5.75.45 2.1 1.4-.7.25-.95.65v.05q0 .05.15.05.1 0 1.05-.3.1-.05.25-.05h.05q.05 0 .2-.05 1.05-.25 3.35-.25 1.5 0 5.6 1.4 5.05 1.7 6.15 3.6 1.7 3 2.05 3.8.9 2.05.9 3.65 0 .95-.55 3.9 0 .15-.05.3v.3q.05.3.45.3.05 0 .15-.05 4.1 6.8 5.7 11.1 1.1 3.15 1.35 6.1.1 1.1 1.1 3.6t1 2.55q0 .85-1 2-1.05 1.15-1.05 1.35 0 .4.4.4l.25-.25q.15.25 1.1 1.25 1.3 1.35 1.6 2.1.4 1.15 1.15 1.7.55.35.7.7.15.3.15.95 0 .5-.4 1.1-.4.6-.4.8 0 .3.95 1.3.95.95.95 2.05 0 .45-.3.6-.35.2-.35.45 0 .2.1.45t.1.5l.1.95q0 1.05-1.8 1.85-.55.2-.95.35-.4-.6-1.9-.95-4.15-.95-5.1-1.3-.3-.1-2.95-1.55-.55-.3-1.5-.45-1-.2-2.5-.1.5-.45 1-1.1 1.05-1.35 1.05-2.05 0-1-.8-1.4-1.25-.65-3.9.8l-6.8.1q-.3.05-.6.05-3.15.3-3.95.55-.3.1-.85.65l-.45.45q1.05-.55 1.55-.65 1.2-.35 4.05-.6h7.1q.9-.05 1.65-.4.55-.3.7-.6l1.2-.05.1.1q.1.15.2.4t.15.4q.05.1.05.15 0 .7-1.4 2.15l-.6.6q-.15.05-.35.15-1.35.7-2.35.7-.2 0-.35-.1l.15.15q-3.05.45-4.25.75-.1.4-.7.4-.3 0-1.25-.4-1.1-.45-1.3-.5l-1.85-.65q0 .15.95.8l1.9.95q1.05.4 1.5.1l-.4 1.85q-.05.65.05 2.65v.75q-.05.6-.05 1.4l.2 2.7q-.05.491-.05 1 .003-.113.05-.3-.05 1.35-.25 2.1-.15.45-.3.8-.05.05-.1.15-.05.05-.05.1-.35.65-.75.95l-.05.05-.05-.15-.3-.05q-.15 0-.3.2-.15.15-.35.15-1 0-1.4-1.2-.25-1.2-.25-1.25-.2-.3-.75-.65l-.15-.3q-.6-1.85-1.25-3.7l-.4-1.15q-.1.3-.4 1.95-.1.75-.15 1.25-.2.05-.25.05l-.8 3.25q-.5 1.9-1.5 3.05h-1.55q-.1-.05-.15-.05-.7-.4-.9-.95-.05-.2-.05-1.05l.25-1.55v-.1q.65-1 1.85-1.2l1.1-.25q-1.3-.35-2.45.35-.55.4-.9.9-.15.05-.35.2-.5.3-1.3 1.1-1.35 1.3-3.15 1.3-.2 0-.45-.2t-.25-.4q0-.05.05-.15.05-.2.1-.35.1-.25.3-.5.35-.3.9-.85 1.2-.9 2.2-.85-.45-.05-1.2 0l-.75.25q1.05-1.4 1.75-2.1l.5-.25.05-.05q.1-.05.3-.1.55-.05.55-.15-.55-.15-.95 0l-.5.3q.1-.05.5-.05-.7.2-1.4.55-.95 1.1-1.5 2.35v-.05q0-.25-.25-.45-1.05 1.15-1.85 1.65-.7.45-1.85.75-1.15.3-2.75.5l-.2-.1q-.3-.2-.3-.3 0-.1.3-.35.6-.6 2.85-2.1.4 0 .95.15l.05-.1q0-.25-.55-.4 1-.75 1.6-1.55.5-.1 1.3-.05l.25-.2-.8.05q-.35.05-.6 0 .55-.9.7-1.8 1.05-.3 1.7-.05l.1-.1-.85-.3q-.6-.1-.95-.15 0-.25-.05-.55l-.1-.05v-.45q-.4-2.65-.4-3.3 0-1.25 1.5-2.2 1.7-1.15 4.95-1.6l3.25-.5q.45-.1 1.25-.9.3-.35 1.7-1.6.1-.15.25-.25 0-.05-.85-1.05-.9-1-.9-1.1 0-.45.95-1.8.8-1.1.95-1.35 3.1-1.2 3.9-1.35.2 0 .45-.05l6.9-.9q-.3-.1-1.25-.15-1-.15-1.45-.15-4.15.5-5.95 1.05-.3.15-1.1.4-.9.3-1.15.3l-.05-.1q.1-.1 1.6-1.2 1.45-1.1 2.2-1.55l2.25-1.4q1.85-1.25 1.95-1.35-.25-.2-1.65.4-5.65 3.1-6.85 4.6-.1.45-.25.85-.8-.55-2.8-1.55-1.65-.75-2.55-1.2 0-.05.05-.15-2.95-2.4-3.8-5.45-.55-1.85-.55-5.55 0-2.85 1.75-7 2.65-6.2 7.5-7.55-2.2.35-4.35 2.05-2.8 2.2-4.2 5.9.85-2.95 2.3-5 1.1-1.5 3.6-3.7-.55.05-1.15.5-.55.4-1.6 1.45-2.05 2.05-2.55 3.1 1.15-3.3 1.15-3.45l-.15-.1q-.5.95-1.8 3.25-1.2 2.6-1.2 5.75 0 .6.15 7.7 0 .85 1 3.7 1.2 3.5 2.45 4.5.3.1.6.15.7.5 2.65 1.25.05 0 .15.05.25.1.55.3.85.5 2.35 1.45.05 0 .1.05-.15.1-.25.2l-.05.15.05.15h.1q-.25.3-.7 1-.05.05-.05.1-.9 1.4-.9 1.8l1.65 2.05q-.6.3-1.25 1.05-.65.8-1.2 1.1-2.6.35-3.2.5-1.75.2-2.45.5-1.6.6-2.55 1.1.15-.65.55-2.15.75-2.95 1.1-3.75 2.9-5.95 2.9-6.65 0-.1-.15-.25-.3.4-.65 1-1.05 1.65-2.35 4.75-2 4.6-2 6.7l.05.6q-.45.25-.7.45-.75.65-.75 2.05 0 .05.25 2.15.2 1.75.4 2.05-.2.55-.45 1.45-.45 1.2-1.5 2.1-.3.25-3 1.8-1.2.75-1.2 1.95 0 .25.2.4.4.4 1.5.4 1.95 0 3.45-.8l1.15-.8q-.1.15-.15.3-.4.85-.4 1.05l-.15 1.1q0 .1 1.2 1.45.5.65.85 1.2.4.75.45 1.35l.1 4.15q0 2.1-3.2 3.85-1.65.9-2.45 1.4l-.1-.2q-.2.05-.25.35-2.05.25-5.1.9-5.35 1.2-8.3 1.5l-4.8.1q-1-.15-1.95-.65.05-.05.05-.1-.1-.25-.4-.25-4.6 2.25-7 2.35-.05-.1-.15-.1-.05 0-.1.1-2.05 0-4.35-.85-2.05-.75-2.2-1.35.8-.7.8-1.1 0-.25-.1-.3l-.2-.1q-.45.25-1.7 1.2-1.45.9-3.3.9-2.6 0-4.8-1.9-.1-.1-.2-.15.55-.35.55-.65 0-.2-.05-.25-.15 0-.25-.1-.35 0-.5.4-.05.1-.15.2-1.25-1.2-1.45-2.25-.15.05-.3.35t-.15.5q0 .55.95 1.55h-.15q-1.5 0-2.35-.2-.05-.05-.1-.05-.3-.1-.5-.2-.7-.4-2.65-2.4-.25.15-.25.6-.5-.45-1.2-1-1.65-1.35-2-2.3-.75-1.75-1.05-2.65-.6-1.55-.6-2.65 0-2.2.75-4.4.3-.85.5-1.4.25-.8.25-.9 0-.5-.1-1.2v-.05q-.25-1.2-.8-2.95-.35-1.1-.55-1.95-.35-1.3-.35-2.1.2-1.7.2-2.55-.05-.85-.4-1.3-.05-.1-.1-.1-.15-.15-.3-.2l-.25-1.7q.05-.35.6-4.55 1.4.55 2.45.55-4.95-2.1-7.45-9.45-1.7-5.05-1.7-10.1v-1.4q0-5.65-.1-5.65v-.3q.7-4.7.9-5.95.45-2.3.45-3.95h-.35l-1.65 12.3q-.2-1.7-.4-4.65-.15-2.5-.15-3.05.45-5.9.45-6 0-.55-.1-1.05h-.15q-.7 9-.7 9.15v3.3q-.15-.85-.3-1.65-.05.15-.1.15v-.45q-1.15-5.7-1.25-5.7 0 .45-.1 1.05 0 3.55 1 6.1.55 1.25 1.5 2.9.1.2.25.45v1.9q.55 8.35.65 8.35.05 0 .65 2.95.8 3.35 1.7 4.7.7 1.15 2.5 3.3l1.6 2q0 .7-.4 2.7-.45 2-.45 2.1 0 .55.3 2.4l.3-.15q.05.35.25.35.2-.05.35-.1v.1q0 .2-.05.9-.05.45-.1 1.1v.15q-.05 1.25 0 2.15l-.05.2.05.05v.6q0 .2.8 2.6.75 2.4.75 2.7 0 .85-.75 3.1-.8 2.25-.8 5.3 0 .05.25.75.05.3.25.75.4 1.2 1.15 3.4 1.95 4.2 4.35 4.75-.15.65-.15 2 0 .95.05 1.4h-.05q-1.2 2.25-2.15 4.9l-.45 1.35q-.3.75-.5 1.5l-.1.45q-.45 1.55-.85 3.25-1.5 6.4-1.5 12.05 0 1.8.3 5.1.15 1.7.6 5.45 0 1.5-1.1 7-.9 4.8-1.25 5.9v21.75q-.1 1.3-.25 3.1-.35 3.25-.95 8.25-.65 5.05-.65 9.95 0 3.25-.4 18.4 0 .1.4 5.7.35 3.8.9 5-.15.7-.15 1.65 0 2.95-.3 3.75v7.3q0 2.35-1.1 7.4-1.05 4.95-1 7.3.2 6.45-2.35 15.15-2.25 7.8-2.55 12.75v.05q-.25-.05-.55-.1h-.15q-1.1-.15-1.55-.15-3.3 0-5.75 2-1.85 1.55-2.1 2.9-.5 2.5-1.35 3.85-.65 1.05-.65 2.6 0 1.75.4 2.65.1.15.2.35l.2.2q2.05 1.85 9.5 1.95h6.2q5.7-.5 7.35-1.25 1-.5 2.55-1.7.8 0 .9.25l.1.2q.15.35.25.45h2.25q6.15-.65 6.3-3.35-.2-.65-.25-1.2-.3-1.65.1-2.6.1-.3.25-.55 2.5.25 3.65-1.3.25-.4.9-2.45.3-1.2.3-2.5 0-1.1.2-1.65.65 0 1-.25.15.05.15-.55 0-1.05.7-2.55.2-.45.45-.9 1.15-2.15 1.15-3.9 0-1.15-.7-2.95-.3-.65-.7-1.45-1.45-2.75-1.45-3.55 0-.75 2.5-6.4 2.5-5.7 2.5-7.85 0-2.7-.4-7.9-.45-5.55-.6-7.55-.05-5.15-.25-7.8-.25-3.7-1.45-5.4 1.8-1.5 6.4-26.9 4.4-24.4 4.65-30.4v-.65q0-.2.05-.4v-.15q.05.5.15 1.05 1.1 6.25 2.75 16.6 2.35 14.35 4.5 23.45.05.35.15.7 2.85 11.75 8.8 30.05 5.85 17.95 6.7 17.95h.1q-.15 1.65-.3 4.75-.4 6.4-.4 8.7 0 1.55.6 12.1 0 .9-.6 2.6-.65 1.75-.75 2.8-.1 1.2-.4 2.8-.15.6-.2 1.2l-.1 1.1v.2q0 .25.4 1t.75.9h.15q.2 0 .4-.2l.05-.05q.15-.2.2-.4.9-.25 3.55-1.45t7.1-3.3h.6q1.5.95 5.9 2.9.8.35 3.45 1.95 1.2.7 1.85 1.05-.05 0-.05.05.9 0 .9 1.3.05-.1.15-.2 1.5-2.2 3.4-3.8.95-.8.95-3.2 0-2.15-1.25-3.3-1.3-1.2-1.3-2.1 0-1.2.8-5.55.75-4.3.75-5.55 0-2.45-1.25-5.6-1.3-2.7-1.3-3.05 0-2 .6-9.75.55-7.7.55-8.3 0-3.15-2.25-12-2.6-10.25-2.65-10.5-1.55-10-2.85-22.95-.35-3.25-1.8-11.4-1.4-7.55-1.65-11.4-.3-7.65-.65-11.55-.5-5.75-1.8-9.85v-.35q0-.75-1.3-6.05-1.35-5.6-1.4-5.9-.45-2.35-.65-6.1-.3-4.95-.4-5.95-.15-1.85-1.05-6.05-.85-4.05-1-6.05-.15-2.45-2.1-5.95-1.95-3.1-3-5.1.75-.25 1.8-.8l2.25-1.25q1.25-.6 1.7-1.4.3-.55.3-1.45-.25-3.1-.25-4.65 0-2.1-1.3-3.4-1.3-.95-1.3-1.3 0-.2.4-1.15.2.2.6.35.35.1.9.1 1.45 0 2.75-1.1-.25.3-.45.5.7-.55 1.55-1.6l.2-.3-.05.1q-.2 1.75.1 2.6.5 1.25 2.2 1.25 1.7 0 2.35-1.55.15-.65.3-1.25.3-.75.45-1.75.15-.75.35-1.45l.05.05q.2.4 1.25 1.15 1.15.8 1.15 1.05 0 .65.4 1.4.55 1.1 1.75 1.1.3 0 .6-.15h.05v.05q.7 1.6 6 4.3 6.15 3.1 9.15 2.75H160q.3 0 2.9.1 2.6-.25 3-2.3.1-.65.5-1.55.4-.95.5-1.35.8-3.85.8-5.9 0-1.75-.55-4.15-.15-1.05-.25-1.7-.05-.05-.05-.1-.05-.1-.05-.2-.05-.15-.05-.25-.2-.75-.55-1.35l.2-.1q.75-.15 1.7-.75 1.55-.95 1.55-2.15 0-1.05-.25-1.8.45-.05.6-.7v-.5q0-.2-.05-.4-.15-.85-.85-1.75-.9-1-.9-1.15.7-1.3.7-1.9 0-1.15-.4-1.55-1-.9-1.65-2-.15-.25-.55-.75-.35-.4-.85-.9-1.35-1.4-1.6-1.75 0-.05.05-.1.45-.5 1.1-1.2.8-1.05.8-1.9 0-1.15-1.05-2.85-1-1.75-.95-3.35.05-2.45-.95-5.25m2.65 32.6q.15.6.55 1.65.5 1.2.5 1.95 0 1.2.4 3.9 0 .65-.65 5.25 0 .2-.05.4-.05.4-.25 1.4-.2.85-.55 1.4h-.05q-.25.6-.45 1-.1.15-.2.35v.05l-.1.1q-.05 0-.05.05-.4.35-.7.45-.8.2-3.9.35h-3.1q-9.25-.95-14.25-6.65 0-.05-.05-.1.05-.05.1-.05.85-.55 1.3-2.2.35-1.3.35-2.7l-.25-3.05q0-.4.25-2.3.25-1.95.35-2.15-.25.2-.45.6.15-1.7.5-2.6.75-.35 2.3-.8 1.45-.45 2.3-.55 1-.15 1.6-.25.05.1.25.2.4-.1.8-.4.8 0 1.5.05.2 0 .4.05 1.3.15 2 .65.05.05.1.05 1.8 1.2 2.25 1.35 1.15.3 2.55.8.2.1.4.15 1.6.5 4.1.95 0 .15.1.3.05.1.05.2t.05.15M84.8 59.9l.1-.9q0-.55 1.5-2.45.75-1.05 1.15-1.65l-.4 3.3-.2 1.45q-.1.5-.35 1.45-.2.65-.5 1.55-.15.5-.75 2.3-.55-3.05-.55-5.05m-72.7 22q-.95.1-1.15.4-.3.45-.1 1.75-1.3-1.85-1.8-2.2-.7-.55-2.25-1.15-.3-1.05-.45-1.45.75.3 6.1 2.05 1.25.45 2.3 1.25.65.45 1.95 1.5l.05.05q.3.2 1.05.85-.8.5-1.25.75-1 .65-1.25.95l.05.1q1.6-.2 2.65-1.6.45.4 1 .9.7.6 1.55 1.4 1.95 1.75 2.75 2.35.35.25.45.25.15 0 .25-.05l.1.1q.15-.25.45-1.3.3-1.05.3-1.3-1.15-3.75-1.15-6.55 0-1.2.05-1.4.05-.25.75-1.7 2.9 7.25 3.05 7.6 1.8 4.85 2.3 7.45.2 1 .2 1.65 0 1.05-.45 2.9-.45 1.9-.45 3.2v.85q.1.8.45.8h.1q0 .05.05.15.35 1.15 1.85 2.95 1.95 2.3 3.55 3.1.55.3 1.5.7-.05.1-.05.25.2 0 .4-.1 1.65.65 4.25 1.65.05 0 .15.05 4.5 1.65 6.45 2.65 2.7 1.4 4.5 3.5.25.3 2.5 3.6.3.45 1.4 1.75.9 1.1 1.25 1.8.95 2.1 2.05 2.95-.25.4-.55 1l-1.95 4.25q-3.15 6.15-7.5 6.15-2.35 0-4.2-1.8-3.35-3.3-6.95-5.45-7.2-4.3-9.8-7.55-2.4-3-4.3-8.15-1.2-2.7-1.8-4.1-1.1-1.3-1.7-1.95-.9-1.05-1.8-1.7.1-.05.2-.15h.6q1.25 0 2.8-.45-.25-.15-4.35-.1-2.65-1-4.55-2.6-.2-.15-.35-.3-1.5-1.35-3.35-4.05-.85-1.1-1.5-1.95-.3-.35-.5-.6-1.1-1.45-1.4-2l-.05-.05q-.3-.45-.45-1.1-.15-.7-.2-1.6-.05-.5-.05-1.05.05-.35.1-.65v-.05q.15-1.1.15-1.5v-.15q.25-1.5.95-2.7 1-1.8 2.5-1.8.8 1.1.8 1.6 0 2.05-.4 2.4-.7.25-1.3.55l-.4.2.05.1q.05.05.45.05.45 0 .95-.35-.25.6-.35 1.5-.25.85-1.75 1.6l-.1.15.7.1q.4 0 .65-.2.05-.05.25-.35.2 1 .4 1.3l.5.6.05-.2.35-.65q-.4-.35-.5-.35-.35-.45-.35-1.15 0-.35.1-.75.15-.5.25-.9l.3.1q.75.15 1.2.15.6 0 .25-.05-.05-.1-.1-.25-.05-.25-1.15-1.05l.15-.75q.2-.9.2-1.2 0-1.35-.5-2.05-.45-.65-1.25-.65-.4 0-.7.25-.4.4-.7.6-.1-.35-.4-2.2-.3-1.9-.35-2.25.8.35 1.6 1.25.45.55 1.45 1.7.95.75 1.1.75.1-.1.05-.6-.1-.6-.1-1.1.1-.95 1.15-1.15m-7.6-4.45q.1.1.2.25 1.15.7 1.7 4.3.6 3.55.6 4.5-.9 1.45-1.05 2.6-.25-.5-.7-1.35-.6-1.1-.8-1.6-.05-.15-.05-.3 0-.25-.05-.45v-.05l.05-.3q0-.2-.1-.45-.2-2.35-.25-4.25-.05-1.85.1-2.6.05-.25.15-.4.1-.05.2.1m71.9 76.4l.1.05q-.1.05-.15.15-.75.85-.95 1.5l-.05.1q-.1.4-.1 1.45v.25q0 .6.1.75.3.65 1.45.95.6.15 1.05.25 1.4.3 1.45.3h.15q.2.05.45.1.2.05.25.2.05.15 0 .5.05.15.1.35.1.45.4.85.35.55 1 1 1.45.95 4.35 1.2h2.45l.05.05h2.6q1.65-.85 2.05-2.1.1.05.15.05.15.05.9 0l.15.1h3l.1.05h4.3q1.1-.15 1.55-.2.7-.25.9-.5.05-.3.2-.5 0-.05.05-.1 0-.05.05-.1.25-.35.25-1.45l-.15-1.55q-.25-.65-.4-1H107.55V156.7q.3.75.45 1.25.05.15.05.9 0 1.05-.35 2.05v.15q0 .05.05.1t.2.1h.55l.1-.1q2.15-.25 4.65-.9 1.3-.35 3.4-.9 1-.25 2.2-.8.55-.25 1.15-.6l.7-.4q1-.65 1.3-1.1 2 2.75 2.2 3.1l.3.6.3.75q.25.7.45 1.6.25 1.05.6 3.05l1.25 6.1q.7 3.65.75 6.05.1 3.9.9 8.75.25 1.55.6 3.25.05.2.1.5.05.1.05.2l.05.3q.1.5.25 1.05.55 2.7 1.9 8.55-.45.45-.45.95 0 .85.55 2.5.5 1.6.5 2.55 0 7.7 2.1 21.25 2.45 16.2 2.85 21.1.45 5.55 2.2 15.2v1.2q0 3.55 2.45 12.4 1.2 4.45 1.8 8.5.6 4.05.6 7.7 0 .35-.25 6.75v.05q-.05 1.9-.1 3.35h.05v.05h-.05q-.05 3.65.2 4.8.1.45.25 1 .25 1.55.65 2.8 1.05 3.45 1.05 5.35 0 .35-.8 5.15-.8 4.8-.8 6.1 0 2.25 1.25 2.95 1.25.7 1.25 2.15 0 1.15-2.05 3.75-.6.75-1 1.35-1.15-1-4.45-2.8-3.8-2-5.55-2.65-.2-.1-.35-.15-2.95.05-4.75.95-1.65 1.1-2.6 1.5-1 .35-3.6 1.55-1.35.6-1.95.9l-.6-1.45q0-2.15 1.55-7.55 1.5-4.95 1.5-5l-.05-.7-.15-.15q-.05-.05-.35-.05t-.4.1l-.15.1-.05.4-.1-.05-.35-9.3q0-1.15.2-1.7v-8q.1-1.9.05-2.9 0-.85-.15-1.55v-.05q0-1.65-7-23.85-2.75-8.75-7.1-23.95-1.9-6.7-4.75-24.15-2.1-12.95-4.75-21.1-.05-.15-.05-.3-.1-1.8-.65-2.65-.45-.8-1.3-.8-.15.5-.15 1.45 0 .6.6 3.45 0 8.7-5.35 35.45-2.45 12.1-4.85 22.8-.15.5-.25 1.05-.15.65-.3 1.25 0 .55.25.75.05 4.6 1 14.65.05.55.45 6.9.4 6.45.4 8.1 0 1.45-2.5 6.45-2.5 5.05-2.5 6.75 0 1.6 1.45 4.2 1.45 2.55 1.45 3.8 0 1.8-1.35 3.95-1.35 2.15-1.35 2.75 0 .05.05.25-.15.15-.25.4-.05.25-.1.85-.05.2-.05.55-.1.65-.15 1.6-.3 4.05-2.3 4.75-3.35-.2-5.3-1-1.6-.9-2.35-1.25-1.5-.6-2.65-1.1-1.6-.65-2.6-1.1-1.2-.55-5.4-2.15-2.8-.75-3.95.4-1.4 1.35-2.2 1.4 1.5-2.95 2.35-8.25 1.1-7.45 3.05-11 1-1.9.6-5.25-.6-4.8-.6-5.4.1-2.05 1.15-5.55.95-3.3.95-5.3.4-5.6.55-7.6.15-2.65-.65-7.2.1-.1.1-.3.05-.1.15-.25v-.45q0-2.25-.5-4.5-.55-2.3-.55-5.5 0-.8.5-6.4.35-4.05-.15-6.3v-11.85q.45-2.5 1-7.35.65-5.5.95-7.4v-21.75q1.25-5.1 1.65-6.95.55-2.9.55-6.4 0-2.7-.5-6.75-.55-4-.55-7.5 0-1.1.55-3.5 0-.2.1-.4.55-2.65 1.75-6.65 1.75-6 2.25-7.7l.2.3q.2-.2.2-.4v-.05q-.05-.2-.05-.35.35.15.95.35 1.1.4 1.55.4.1 0 .15-.05.05-.1.05-.2-.45-2.15-.45-2.7l.2-1.15v-.25l.05-.1q.3.1.6.15.8.15 1.65.15h.5q.15-.05.3-.05m.25.35q0-.05.05-.1.15.1.3.25.45.35.9.65 1.25.85 2.5 1.2-.1.4-.1 1.25-.1.5-.15 1.8-3.5-.65-4.05-.9-.05-.05-.1-.05-.35-.3-.35-1.2 0-.8.2-1.55.05-.2.45-.85.05-.1.15-.15.1-.2.2-.35m-5.6-1.45v-.05q.05-.05.05-.1.15.05.25.15.7.45 1.5.7v.15q-.05.1-.05.25l-.05 1-.05.25q0 .5.05 1v.05q.1.6.25 1.3l-.25.05q-.55-.2-1-.25-.25 0-.6-.2l-.2-.1q-.1-.05-.15-.05-.05-.35-.1-.6-.15-1.2-.15-1.6.1-.8.15-1.3v-.6h.15q.15 0 .2-.05m9.55 7.15l.1-.1q.15-.1.15-.35l.05-3.15q.6.1 1.25.1 2.3 0 4-1.15h.05v.05h.05q.5.65 1.7 1.35 2.3 1.25 5.05 1.25 0 .15-.05.35-.2 1.2-.15 2 0 2.15-1.75 3.15h-2.5l-.1-.05h-2.5q-1.1-.05-2.4-.45-.25-.1-.45-.15-.4-.1-.65-.2-.8-.3-.85-.45-.4-.6-.6-1-.45-.75-.45-1.05 0-.1.05-.15m56.5-25.9q-.15-.3-.3-.4l.4-1.4q.5 1.3 1 2.9-.45-.2-.6-.35-.1-.05-.5-.75m-16.15 20.05q0 .2.05.4.15.65.6 1.4-.05 0-.1.05-.4.5-.65.85-.3.3-.5.45-.95.65-3.25 1.4-.25.05-3.8 1.2-3.8.85-4.9.85h-.1l.2-1.3q0-1.2-.1-1.55-.25-.9-.45-1.3 4.1-.7 8.45-1.55 2.8-.55 4.4-.9H120.95m-17.2 2.5v.05q0 1.05.2 2.8 0 1.05-.15 1.35-.45.9-2.1.75v.05h-4.25v-.05l-4.2-.15q.05-.15.05-.35.25-2.15.25-3.05v-.05q1.75-.15 4.3-1.15 1.45-.55 2.2-1 .15-.1.25-.15.05.05.15.1.25.2.65.35.1.05 1.65.5h1M52 331.2h.05q.6-.05 1.25-.05h.2l.9.1q.1 0 .25.05-.05.2-.05.35v.35q0 .45.1.5.2.1.25.15.3-.4.6-.85 0-.1.05-.15h.35q.25 0 .55-.15.55-.25 1.3-.85 1.2-1.05 2.15-1.05 1.35 0 8.6 3.15l.25.1.7.3.9.4q.3.1 3.1 1.3.4.15.75.3 2.5 1 3.8 1.35.05 0 .1.05-.05 0-.1.05l-.1.1q-.25.3-.3.75-.1.75.1 2.7-.1 3.85-7.05 3.6.15-.3.1-.5-.1-.4-1.15-.4-.95 0-4.25 1.6-3.25 1.5-6.55 1.3l-5.7.05q-7-.2-8.85-1.7-.7-.55-.7-2.45 0-.1.35-1 .15-.55.45-1.35.9-2.35 1.05-3.25.1-1.2 1.55-2.65 1.9-1.9 5-2.2m75.35-129.6q-.4-1.9-.55-2.8h-.15v.3q.5 4.7.8 7.55.15 1.45 1.2 8.6l.3 1.65q.25 1.25.25 10.9-.05.6-.05 1.2-.05 1.65.2 2.8.15 1 .5 1.6 0 .05.7 1.1.45.55.55 1.25.4.85.75 1.55.8 1.75.85 2.3.45 3.6 1.3 7.7 3.3 15.2 3.75 18.7v.25q.05-.15.15-1.5.05-1.15.05-1.8 0-5-1.25-11.25-1.75-8.85-5.6-17.85-.4-.85-.75-1.65l-.4-1.5v-1.1-.95-.9q-.05-4.8-.25-8.2-.05-1.2-.15-2.2-.25-2.8-.9-6.7l-.15-1.1q-.35-3.9-.9-6.7 0-.1-.05-.2-.05-.4-.15-.75v-.15q-.05-.1-.05-.15m-37.65-4q-1.3-.7-2.4-1.4l-.15.15.5.3q8 5.05 9.25 5.9l1.65 1.2q-.5-.8-.7-1.05-.75-1-1.8-1.7-3.65-1.95-6.35-3.4m17.65-34.05q-.1 0-.15.05-.1 0-.25.2 0 .15-.05.65t-.15 1.35q0 .05.2 1.55.3 1.75.95 3.3.05.35 2.1 4.55.6 1.3 2.5 3.1 2.15 2.05 3.75 2.3.3.1.65.15.9.15 2.05.2l1.65-.25q-3.15-.45-7.15-3.7-3.35-2.75-4.1-4.3-.9-1.85-1.75-7.9l-.15-.75-.1-.5m-32.5 29.75l2.05 1.4q3.5 2 8.55 4.45 6.6 3.2 8.95 3.5-11.8-5.85-12.15-6.05-3.6-1.7-5.2-2.45-1.2-.65-2.05-1.05l-.15.2m-.1-4.9l2.2 1.45q1.05.75 10.2 6.5l.1-.15q-3.4-2.1-5.65-4.1-1.3-1-3.2-2.1-2.1-1.25-3.05-1.45l-.6-.15m-8.25-16.25l.1.1q1.15-1.75 2.8-5.3 2.95-6.1 1.65-7.75-.7 4.1-1.9 7.1-.35 1-2.65 5.85m4.2 98.35q-2.7-4.3-3.05-4.75-4.35-6.8-4.4-6.9-.4 1.5 1.25 4.6 1.45 2.65 2.25 3.35 1.55 1.75 3.95 3.7m47.35-7.25q-.4.4-.4 1.1 0 .15.45.9.45.95.9 1.5.35.7 4 3.65 3.95 3.15 5 3.1-.2-.35-1.2-1.4-1.35-1.4-3.2-2.85-1.2-.6-3.25-2.7-2.25-2.3-2.3-3.3m-33.1-97.7l-.05-.55q-.15-.3-.5-.3-.35 2.8-1 5.25-.45 2.3-.45 7.15 0 1.3.05 2.5l.1 2q.1 1.6.8 3.2 1.25 3 3.9 3.85l1 .35q-1.55-.6-3.35-3.5-1.5-2.55-1.65-3.85l-.15-1.95V177l1.3-11.45m3.35-.6l-.2.1q0 .25-.5 5.8-.45 4.8-.3 9.15l.25 1.85q.25 2.1 1.35 4.55 1 2.25 1.6 2.6-.5-.8-1.15-2.75-.85-2.35-1.05-4.4l-.2-1.8-.15-6.9q.3-5.6.35-8.05v-.15m37.6 17.25q-.25.6-.35 1.05-.6 2.7.05 8.1.05.2.2 1 .15.7.4 1.8l.2.05q-.05-.6-.1-1.25-.25-4.25-.4-10.75m-4.55-22.25l-.05.35q.15 1.15 1.7 4.4.8 1.6 1.85 3.75.5 1.3.9 2.45v-1.2q0-.35-.55-2.8-.55-2.4-.75-2.9-.3-.8-1.2-1.9-1.2-1.3-1.9-2.15m-96.3-52.45q-.4-.2-.8-.25.75.6 1.55 1.55.5.6.7.95h.1v-.2q-.05-.25-.25-.6-.35-.7-1.3-1.45m-2-.1q.1.15.35.65.55.9 2.6 2.85l.05-.1-.15-.2q-2.2-2.85-2.85-3.2m-.4-16.1l-.1.1q-.85 1.25-1.05 2.05-.15.6-.15 2.5 0 1.7.8 3.65.95 2.45 2.6 3.65h.05q.65.3.65.25l-.9-.7q-1.45-1.55-2.05-3.05-.1-.15-.5-1.75-.2-1.35-.2-2.1 0-1.55.15-2.05.2-.6 1.45-3.1-.1-.2-.75.55m-10.45-.1q-.1-.3-.2-.4-.05-.15-.15-.15v1q-.1.8-.65 1.8l.8-.35q.35-.3.35-.95 0-.4-.15-.95m2.2-3.55l-.25.35-1.7 1.8.45.15q.5-.4 1.2-1.15.25-.3.4-.45.05-.1-.1-.7m4.75.55h-.05q-.65 1.5-1.1 2.1-.7 1.05-2.7 1.85-.75.55-.75.65 0 .35.1.55.1.15.25.4l.2.3q.1.15.1.55t-.15.8q-.05.2-.4.9l-1.05 2.05-.25.6q.6-.35 1.4-1.9.8-1.7.8-2.55L15 93.15q1.3-.65 2.55-2.05 1.4-1.55 1.6-2.9m-9.1 7.4V95q-.5 1.55-1.15 2.2l-.65.5 1.1-.6.35-.3q.25-.5.35-1.2m1.05-10.5l-.8-.35q2.45 1.85 3.05 2.4l.05.05.7.8.05-.1q.25-.3.25-.65-.65-.65-.85-.8-.85-.65-2.45-1.35m145.75 49.85q-.55-.15-3.35-1.1l.9.6q1.95.9 4.95 1.3.65 0 1.3-.2.95-.35 1.35-1.05-.25.25-1.3.5-.95.2-1.45.2-1.3 0-2.4-.25m6.85-3.05q.6-.6.85-1.7-1 1.35-1.55 1.75-1.15.8-3.15.8-4 0-12.35-5.2 2.05 2.6 6.6 4.4 3.5 1.4 5.2 1.4 3.05 0 4.4-1.45z"/><path fill="#82AFAF" d="M142.3 118.65q.3 0 .6-.05l6.8-.1q2.65-1.45 3.9-.8.8.4.8 1.4 0 .7-1.05 2.05-.5.65-1 1.1 1.5-.1 2.5.1l3.15-.85q2.4-.85 2.45-.8l.05-.05q-2.65-.75-3.1-.85h.9q0 .05 3.4.35l.7-.3q-.3-1.05-1.6-1.8-1.65-1-4.05-.9v-.1q-.85-.2-2.05-.25-1.05 0-1.15-.15l.3-.1q.05-.05 1.6.05.8 0 1.55.05.15 0 2.65-.05 2.55-.1 2.65-.15-.1-.45-.35-1.05-.3-.65-.6-.9l-.5-.4-5.8-.1q-3.45 0-6.5.65-1.25.3-3.3.95-1.45 1.75-1.65 2-.45.3-1.3 1.05m-78.1 7.75l-.1-.2-.1 1.3q0 .6.15 1.25l.05-.2q-.05-.9 0-2.15m-22.9-16.3q.55.2 1.1.45 1.5.25 2.9.8 1.85.75 3.2 1.75l.85-.1q-1.85-1.7-2.2-2.25.5 0 .7.25-.45-.65-1-.95-1.2-.6-2.65-.65-3.3-.05-4.85-.05.9.35 1.95.75m-.4-5.55q-.05.1-.05.25h.1q-.05-.15-.05-.25m1.75-9q.55-1.6 1.35-3.35 2.25-5.05 4.5-7.95-2.8 2.85-4.85 8.35-.55 1.5-1 2.95m9.1-22.75q-.4.55-.65 1.1-.1.15-.15.4.35-.8.8-1.5M87.7 53.75q-1.05-.1-1.45-.15h-.15q-.2.25-1.5 1.65l-.15.15q-1 1.2-2.55 2.9l-.2.25q-.55.7-1.2 1.7-1.1 1.7-1.5 2.2l.05-.6v-.05q-.4.35-1.1 1.25l-.15-.15q.3-.4.7-.85l-.45.05q-1.6.6-6.25 1.5-5.45 1-7.3 1.4-.85.2-1.6.4-2 .75-4.2 2.05-2.35 1.4-3.8 2.75-2.95 2.7-3.8 6.45-.45 1.95-.9 5.7l.2-.2q0 .05.1.1.05.05.05.25-2.3 3.35-4.65 7.5-4.65 8.3-4.65 13.7l.3.95q0 .35-.1.35 0 .05-.05.1-.1.15-.3.15-.05-.05-.05-.1-2.65.3-3.25 1.55-.15.35-.3.85-.1.4-.2.7-.05.1-.05.25.5.2 1.15.45.2-.15.2-.2 1.55-.2 2.5-.2 2.1 0 4 .55 2.1.6 2.75 1.55.5 0 1.95.55 1.4.5 2.45 1-.55-1.6-2.65-3-2.2-1.4-4.55-1.7-.8-.1-3.25-.3-1.3-.1-1.65-.25.75-.5 1.85-.85 1.05-.35 1.5-.35 1.35 0 3.65 1.4 1.75 1 3 2.1.4-.3 1.8-.15-.95-1.35-3.4-2.65-1.9-1.1-3.25-1.4 2.35.3 4.5 1.65 2.05 1.2 2.9 2.55l.7.3q.9.4 1.55.8l.75.55q-1.1-1.1-3.05-3.4l-.7-.65q-.35-.2-3.05-1.95-2.05-.85-3.9-1.6-.55-.2-.55-.35 0-.4.05-.4 0-.05.05 0h2.6q.35.1 4.25 1.4 2.65.9 3.35.9 1.1 0 1.45-.9.1-.3.1-1 0-1.35-1.25-7.45l.15-1.05q-.55-.85-1.1-1.85-.65-1.15-.7-1.2.05-.05.3.05l.2.1q.85.75 1.55 2.35-.05-.15.05 0 .15-.9-.65-2.95-.9-2.4-.9-4.35-.15-1.2-.15-2.45 0-2.5.9-3 .5.85.7 4.4.1 1.6.1 3.3v.45q.05 0 .1-.15.1-.35.3-1.65 0-.15.7-9.15h.15q.1.5.1 1.05 0 .1-.45 6 1.65-4.55 2.25-4.8.1.05.15.2h.15q0 1.65-.45 3.95-.35 4.4-.8 11.9v1.4q.6 8.8 3.95 13.1 3.1 3.9 9.3 5.05 0 .25-.2.55-.9.3-3.2.45l.25.5.95 1.15q-2.5 2.9-2.95 4.15-.8 2-.8 6.55.2.85.55 1.95.55 1.75.8 2.95v.05q.1.7.1 1.2 0 .1-.25.9.15 2.6 1.6 6.7 1.8 5 3.15 6.8-.1-1.55-.15-2.7 0-2.2.4-2.7l.3.4q.9 1.75 1.65 3.3.6 1.25.65 1.3-1.2-2.85-1.3-3.25-.55-2.2-.55-6.55 0-1.55.3-3.85.45-2.85.5-3.7.2 0 .3-.05 1.2 12.05 2.4 15.25.55 1.5 1.6 2.7.65.8 2.4 2.6.4-.4.8-.75.05 0 1.75.95 1.75.95 2.65 1.05l-.7-1.2q-2-1.9-3.05-6.7-.7-3.25-.7-5.75 0-3.7 1.95-9.45 1.95-5.75 1.95-9-.55-1.75-1.1-3.45-1.1-3.5-1.1-5.8 0-1.85 1.35-3.95 1.4-2.15 1.4-2.25 0-1.1-.75-3.6-.7-2.45-.7-2.75 0-.55.4-1.15.45-.6 3.05-4.3-.1-.7-.65-2.6-.2-.55-.4-1.2-.95-2.75-.95-3.3 0-3.4 1.3-5.45 1.5-2.4 1.9-3.05.05-.15.1-.2-.5-.45-1.2-1-1.7-1.35-6.5-5.35-.75.05-3.75.45-2.9.4-3.4.4-1.8 0-2.5-.15-.85-.15-1.35-.7h-.05v.1l-.05.1q-.05 0-.05-.4 0-.2 2.5-2.5 3.3-3.1 6.05-6.55v-.05q.1.05.15.15-.15 1.05-3.4 4.65-3.15 3.4-4.2 3.95.5-.1 5.5-1.8 4.3-1.45 5.55-1.45.2 0 2.1 2.95 2.7 4.25 3.35 5.2.75.55 1.15.65-.95-2.55-2.1-7.9-1.4-6.65-1.4-9.9 0-.5.2-1.05 0-.35.6-1.2.15-.25.35-.5 1.95-2.7 2.15-3.05l.05-.25M59.95 81.2q0-1 .4-1.95l2.9 7.05q.9 2.25 2.7 4.8 1.5 2.05 2.35 2.8l-.1.4-.15.1q-.85 0-2.8-1.75-1.8-1.85-2.05-2.1.2.35.65 1.4.1.25 1.55 2.15-.1.4-.6.45-2.1-.9-3.6-6.3-1.25-4.3-1.25-7.05m55.65-25.3q-.9 0-3.35 1.5-1.9 1.25-3.05 2-1.15 1.55-1.8 2.4-1.55 1.9-3.2 3.3l-1.15.95-.1.1Q95.7 72 94.75 72.7q-.05.05-.1.05t-.05.05l-.85.65q-1.4.95-2.1 1.65-1.55 1.25-1.95 1.6-.4.3-.55.4-.25.2-.3.4v.35q.7-.45 2.35-1.15l4.35-1.9q1.3-.6 3.6-2.35 1.95-1.5 2.15-1.5.2 0 1.25.8 1 .75 1.9 1.5L109 76.6h.05q.45.2 7.4 3.1-.05-1.75.75-6.45.7-3.9 1.2-6.9-.3-2.45-.95-5.7-1-4.75-1.85-4.75m47.05 56.5l-.3-.15q-2.1-1.1-4.7-1.8-1.35-.35-1.35-1.1 0-.95 2.65-2.25 3.15-1.55 3.4-1.8-1.3-3.05-5.65-3.45-4.25.15-4.6-.2.85-1 3.55-3.15 2.25-2 2.25-3.9 0-.95-1.35-1.7-1.35-.85-1.35-1.25 0-.3.25-1 .3-.75.3-1.05 0-.4-.1-.5-.1-.1-.2-.35-1.15 5.3-2.7 9.15-1.75 4.3-3.2 4.3-.4 0-.45-.1v-.3q1.65-.85 3.1-6.25 1.35-5.85 1.85-7.55l.05-.35-.15-.35q-1.45 2.95-2.8 4.65-.65.8-2.4 2.25 3.75-4.6 4.75-6.95-1.9-1.05-2.65-1.6-.95-.7-.95-1.3 0-1.45 1.8-4 1.85-2.6 1.85-4.1 0-2.55-1.3-4.2-1.25-1.5-4.75-3.7-2.4-1.45-7.35-1.45-5.75-.05-6-.1-8.8 4.15-10.05 6.9-.35.8-.9 2.4-.75 1.6-2.85 3.45 1.2-1.4 2.2-3.5 1.25-2.65 1.7-3.35 2.5-3.8 9.8-6.2 0-.1.15-.35.05-.1-.3-.1-3.65 0-6.7 1.85-3.2 2-4.95 5.6-.25.55-2.2 2.9-2.25 2.7-2.6 3.15l-.15 1.25h-.4q-.15.2-.35.35l-.2.05q-9.15-3.9-10.6-4.5-1.3-.55-2.85-.55-6.7 1.05-8.85 2.2.25.35-2.9 5.5-3.3 5.2-2.6 6.95-.35 1.35-.55-.85-.15-1.55-.15-3.25 0-2.45.55-4.25.45-1.25.45-1.3 0-.2-.2-.65-.35-.6-.8-1.3-.4 1.25-1.65 5.05-1.05 3.2-1.05 3.4 0 1 .65 3.15v.1q.15.5.35 1.05.55 1.5 1.05 2.9 0 .3-1.75 2.55-1.7 2.3-1.7 2.9 0 .05.7 2.5.75 2.65.75 3.65 0 1.2-1.4 2.85-1.35 1.65-1.35 3.4 0 2.1 1.1 5.6 1.1 3.6 1.1 4.15 0 3.2-1.95 8.55-1.9 5.3-1.9 9.95 0 4.65 1.2 7.2.6 1.35 1.6 2.65.15.05 1.05.55 1.55.75 4.55 1.55h4.05q.55-1.1.55-2.2 0-.6-.55-1.3-.55-.65-.55-1.65 0-.45.05-.55.1 0 .4-.05.15.05 2.4 1.2Q98 149.6 99 150q1.25.45 2.4 2.05 1.4 2 2 2.5 1.7-3.65 1.75-3.8.85-1.75 1.2-1.75t.45.2q.15.15.2.15l.3 2.65.25-.4.2-.55q1.1-2.5 2-5.3 1.1-3.3 1.1-4.6.6.05.9.6.25.55.4 1.95h.1q.8-2.45 1.55-4.8 1.45-4.6 1.45-5.65-1.6-.35-2.1-1-.25-.3-.25-1t1.05-2.75q.55-1 1.1-1.95 0-.75-3.15-1.65-4-1.1-5.1-1.75 1.35-.7 5.9-2.5 4.35-1.75 4.75-1.95-1.6.2-3 .35-2.75.25-7 .25-8.15 0-14.7-1.3-5.55-1.1-5.55-2 0-.35.05-.4.05-.05.05 0l.35-.1q14.8-.75 24.1-4.65 6.75-2.85 10.8-7.5 1.45-1.65 1.85-4.75.4-5.25 1-10.2.35-2.55 1.55-4.95 1.2-2.1 1.35-2.65l.2.25q.05.1-.1.5-.15.3.2.3.15 0 .25.05-.1.85-1.1 5 0 .6.4 2.35.85-5 4.7-8.45 2.75-2.5 5.1-3.1l.05.4q-.4.4-1.6 1.8-1.5 1.75-2.65 3.2l.55-.55q.85-.7 4.3-1.95 3.9-1.5 5.85-1.5.4 0 .5.15.05.05.05.3-5.7 2.45-8.6 4.8 1.5-.55 6.5-1.35 2.4 0 3.5.7.55.4 1 1.15-.15.15-.55.35-.55 0-3.15-.65-2.65-.7-3.3-.7-.1 0-1.25.3-.8.2-1.2.35.15 0 .15.35-1.1.8-2.35 1.75-2.5 1.95-3.25 3.1-1.3 2.15-2.25 6.6-.5 2.25-.75 4.1 0 .7 2.3 5.35 2.6 5.15 3.85 5.15.85 0 2.4-.45 1.3-.45 1.8-.7.55-.3 3.35-2.6 2.6-2.1 2.8-2.1.3 0 .5-.05.05 0 .05.4 0 1.3-2.05 2.85 1.4-.6 1.65-.4-.1.1-1.95 1.35l-2.25 1.4q-1.1 1-1.85 1.65-.6.45-.65.45l1 .05q1.8-.55 5.95-1.05.45 0 1.45.15.95.05 1.25.15l-6.9.9q1.15-.1 2.15.65-.1.4-1.15 1.3-1.25.95-1.65 1.25.55 0 1.5-.3 1.2-.45 1.95-.6l-.5.35q.3-.15.8-.5.65-.4 1.85-.65 3.55-.75 13.4-.85l-.05-.2q.5-.45.8-.6.3-.15 1.35-.35m-50.7-18.2q4-3.65 7.55-8.2 3.1-4 3.3-4.15-3 6.7-10.4 13.45-9.45 8.55-18.6 8.55-.5 0-1.35-.1-.85-.1-1.05-.25 13.55-3.05 20.55-9.3m36.1 3.95q.2-.25.6-1 .8-1.2 3.1-3.7.15.15.25.35.25.75-.65 2.65-.75 1.65-1.25 2.1l-.2-.15q-.25-.3-.3-.65-.15.3-1.25.85l-.2-.1-.1-.35m13.55 15.4q.05.05.2 0l.2-.1-.4.1m-8.1 9l.35.05h.05q-.2-.05-.4-.05z"/><path fill="#C99D7A" d="M144.65 120.25q.048-.048.05-.1v.1q-.25 1.4-.25 1.5l3.85-.05q0-.25.1-.45l.15.45q.75-.05 2.7-1.05 1.85-1 2.5-1.75-.05-.15-.15-.4-.1-.25-.2-.4l-.1-.1-1.2.05q-.15.3-.7.6-.75.35-1.65.4h-7.1q-2.85.25-4.05.6-.5.1-1.55.65l.45-.45h-.05q-1.4 1.25-1.7 1.6-.8.8-1.25.9l-3.25.5q-3.25.45-4.95 1.6-1.5.95-1.5 2.2 0 .65.4 3.3v.45l.1.05q.05.3.05.55.35.05.95.15l.85.3-.1.1q-.65-.25-1.7.05-.15.9-.7 1.8.25.05.6 0l.8-.05-.25.2q-.8-.05-1.3.05-.6.8-1.6 1.55.55.15.55.4l-.05.1q-.55-.15-.95-.15-2.25 1.5-2.85 2.1-.05.1-.05.2 0 .3.05.45l.2.1q1.6-.2 2.75-.5 2.95-1.7 4-3.55.7-1.2 1.6-3.3.05 0-.1.4.25-.6.5-.95.45-.45.9-.65l-.15.3-.8 2-.05.05v.1q-.2.85-.45 1.35.7-.35 1.4-.55-.4 0-.5.05l.5-.3q.4-.15.95 0 0 .1-.55.15-.2.05-.3.1l-.05.05-.5.25q-.7.7-1.75 2.1l.75-.25q.75-.05 1.2 0-1-.05-2.2.85-.55.55-.9.85-.2.25-.3.5-.05.15-.1.35-.05.1-.05.15 0 .2.25.4t.45.2q4-1.85 4.6-3.75.2-1.35.45-2.2.35-1.6 1.35-3.2h.05l.2-.1q.55.05.4-.05l-.05-.05h.1q.2-.05-.05.2l-.35.25q0 .45-.6 2.35.5-.2 1.45-.25h.95l-.8.15q-.9.2-1.8.7-.55 1.8-1.45 3.55.2-.15.35-.2.35-.5.9-.9 1.15-.7 2.45-.35l-1.1.25q-1.2.2-1.85 1.2v.1l-.25 1.55q0 .85.05 1.05.2.55.9.95.05 0 .15.05h1.55q1-1.15 1.5-3.05l.8-3.25q.05 0 .25-.05.05-.5.15-1.25.3-1.65.4-1.95l.4 1.15q.65 1.85 1.25 3.7l.15.3q.55.35.75.65 0 .05.25 1.25.4 1.2 1.4 1.2.2 0 .35-.15.15-.2.3-.2l.3.05.05.15.05-.05q.4-.3.75-.95 0-.05.05-.1.1-.3.2-.65.1-.6.25-1.2 0-.1.05-.2 0-.15.05-.3l.05-.2v-.2q0-.509.05-1l-.2-2.7q0-.8.05-1.4v-.75q-.1-2-.05-2.65-.85-.25-1.3-.35-.95-.25-2.45.15.65.05-1.35.9-1.2.5-2.05.5-1.9-.15-4.55-.15-1.75 0-3.8.7-1.65.7-1.7.7h-.35q0-.05.1-.05 0-.05-.15-.1v-.35q0-.4 1.4-.95 2.2-.85 2.95-1.3.15-.05.7-1.3.5-1.05 2.1-1.35.35.55.35.9l.25.5q.45.25 1.5.5.95.2 1.55.2 1.1 0 1.9-.7 1.15-1.05 1.9-1.35-.95-.65-.95-.8l1.85.65q.95-.05 1.35-.6-.4-.3-.65-1.3.2 0 .5.35l.4.5q.1-.1.7-.1.3-.05.6-.05.05-.35.15-.9.1-.4.2-.6m-4.25 6.15q.55.1 1 .2-1.35.25-2.75.6.35-.25.8-.65l.95-.15m-2.55 2.2q.35-.5 1.1-.7.4-.1.9-.1.4 0 2.3.85.15.1.4.2l-.15.05q-.35 0-1-.25-.1 0-.15-.05-.65-.35-.7-.35-.95 0-1.65.4-.8.45-1.3 1.35v.05h-.05q-.1 0-.05-.35l.1-.35q.05-.4.25-.7v-.05m-4-.6q-.5.05-.65.15v-.1l.65-.15q1.8-.1 2.95-.2-.95.2-1.7.2-.8 0-1.25.1m7.8 3.35q-.4-.2-.7-.2-1.1 0-2.4 1.5h-.1q-.05.3-.05-.3 0-.45.8-.95.95-.5 2-.5.6 0 .8.55-.05.05-.35-.1m-2.5 4q-.05.25-.05-.35l.3-.65q.5-.6 1.5-.6.75 0 1.65.7 0 .2-.05.3-.95-.65-1-.65-1.35 0-1.9.55-.3.65-.4.75l-.05-.05m-10.6-6.25q.05.05.15.2.45.05.9-.15-.25.25-.25.5-.4-.05-.7-.2l-.1-.1-.15-.05q-.55 0-1.5.15-.9.15-1.15.25l-.1-.45q.2-.05 1.25-.15.85-.1 1.25-.1.35 0 .4.1m2.1-.7q-.1 0-.25.05 1.5-.65 2.6-.35-1.3.3-2.35.3M23.3 89v.1q.25.25.55.5 0-.05.05-.1l-.6-.5m.5-3.7q-.6-2.2-.6-4.3-.05.7-.05 1.45 0 1.7.85 3.6-.1-.35-.2-.75m-19.6.1h-.05v.1q0 .15.05.35h.05l-.05-.45m-2.35-7.75L.8 77.7q-.3.55-.3.9 0 1.15 1.95 3.4 1.2 1.4 1.65 2.25l-.4-5.15.05-1q-.25-.15-.8-.4v.1l-.35.05q-.5-.2-.75-.2m-.7-.65q-.35 0-.45.05l-.3.2v.15q.6-.55 2.15.1-.05-.05-.15-.1-1-.4-1.25-.4m5.15 2.1h.1q-.1-.05-.15-.05l.05.05m11.95 5.4v.05q.7.55 1.6 1.35h.2q-.15-.2-.85-.7-.75-.6-.95-.7M78.1 41.45q-.05.05-.05.15l.6 1.3q-.35-.85-.55-1.45m1.7-1.85l.1.25.1-.8-.2.55m23.15 26.55l.1-.1-8.3 6.65q.95-.7 8.2-6.55m1.75-13.4l-.8 2.4q-1.7 7.5-3.65 11-1.45 2.6-2.75 2.6h-.3q.05-.25-.15-1.75-.3-2.1-.55-3.55.15-1.65 0-2.95-.3-2.5-1.85-2.85-.5-.05-3.35-1.7.75 1.65 4.15 3.95.15.1-.45.1l-.85-.15q.15.6.15.9.1.8.05 4.25 0 .7-.2 1.65-.2 1.3-.6 1.95l-.5-.65q-.3-.4-.35-.55-.1-.15-.1-.55 0-.6.35-1.55.35-.85.35-.95 0-3.05-2.65-7.1-2-2.65-2.55-3.5h-.25q.15.3.15.95 0 .45-.05 1.35-.25 1.4-.45 2.6.05 1.2 0 2.9 0 .5-.1 6.1 0 .6.85 4.45.75 3.25.8 4.2 2.05-1.5 2.35-1.75.65-.6 2-1.55.8-.55 2.35-1.65 5.4-4.15 8-6.55 1.4-2.5 2.05-4.55.8-2.5.8-5.6 0-.4-.3-1.5-.45-1.55-.7-3.2 0 .2-.9 2.8M82.55 41.4q-.25-.6-.35-.85l-.6-.15 1.3 2-.1-.5q-.15-.1-.25-.5m8.15-5.3q0 .55-.25.95-.3.4-.65.4-.4.2-1.3.35-.65.1-1.25.15-.25.25-.85.55-.65.4-1 .6.05.15-.05.25-.6 0-2-.45-1.25-.4-1.95-.7l-.25 1.45q5.3.55 6.95.55 3.5 0 4.8-.4.7-.2 1.3-.75-.45-.45-3.5-2.95M86.4 32q.05-.35.05-.7l-.15.35q.1.15.1.35m10.85-21.25l.05.2q.35.4 2.15 1.7l-.2.3q-2.95.15-3.55.15-3.3 0-6.85-1.05-.05 0-.1-.05l.1.15q.1 0 .35.25.2.2.65.6.85.75 1 .95-.15.3-.45.45h-4.55q-3.15-.95-4.5-1.45-1.8-.7-2.6-1.45-.3.9-.9 2.5-.35 1-.7 3.5-.2.75-.7 3.55-.15.85-.25 1.5.9-1.9 2.95-1.5 2.65.55 4.05.9 1.35.4 1.6.8-.35.75-.45.85-.1.2-.45.1-2.5-.4-5.65-.4-.35 0-1.25.75l-.9.75.45 1.05q.6 1.35.6 2.4 0 .95-.25 2.35-.3 1.4-.3 1.7 0 .5.7 2.2.6 1.5.7 2.95.45-.7 1.6-2.05.05 0 .3-.05.1-.05.1.35l-.8 1.9q-.55 1.4-.85 2.75.35 1.55 1.15 3.4 1.5 3.4 1.5 3.95 0 1-.15 2 0 1.25 1.6 2.05.85.45 3.3 1.35.2-.25.8-.25 2.85 0 3.15.3h2.25l.5-.1q.35-.05.65-.15.8-.35 1.65-1.05.2-.2.85-1.05.15-.15.25-.2 0-.15.05-.25.05-.25 3.5-6l.55-3.35q-.5-1.6-.9-2.65-.6-1.7-2-3.05.3-.1.65-.15 2.95-.65 3.35-1.65.35-.9.35-2 0-.1-.35-1.65-.35-1.65-.6-2.5-.95.5-1.35.9-.5.45-1.7 1.25-.65.4-1.65.4-.95-.05-1.4-.35h-.1v.05q-.05.25-.1 0-.75.15-1.75-.3l-.4-.2q-.5-.3-.85-.65l-.1-.1.1.05q.7.5.9.6 1.05.45 2.1.2.25-.05.65-.15.45-.15 1.15-.45.25-.1.45-.15 1.05-.5 1.5-.85-.3.2-1.1.25h-.35l-2.7.05h-.4q-.45-.05-1.1-.1-.55 0-1.05-.35l.1-.55q-1.05.4-1.4 2-.4 1.6.7 2.95-.9-.55-1.95-.9-.1 1.2-.95 2.3-.85 1.05-.85 1.65 0 1.7 1.6 1.7.75 0 1-.4.2-.35.1-1.2-.15-.1-.9-.4-.8-.35-.9-.4l.35-.15q.55-.2 1-.1.15 0 .5.1.1 0 .2.05.5.2.85.4-.1-.15-.45-.9-.4-.85-.4-1l.05-.2q.95 1.4 5.8 5.45.5 0 .6.1.1.05.1.45 0 .65-.35 2.5l-.2-.8q0 1.8-.6 3.2-.7 1.5-1.95 1.9l1.3-3.45q-.75 1-1.45 1.55-1.3 1.15-2.65 1.15l-6.2-.15q-.6-.2-.95-.55v.3q0 .6-.05.7h-.3q-.5 0-1.1-.7-.95-1.05-1.75-3.4-.4-.35-.5-.5-.15-.2-.15-.6L80 38.5l-.15-.05q.05-.25.5-.9.2-.3.3-.55-.3-.15-.35-.4-.05-.05-.05-.6 0-1.25.75-1.65l.05-.05h.05v.2q0 .15-.25.7-.25.5-.25.8.6 0 1 .15-.35-.55-.35-1 0-1.25 1.3-4 1.05-2.2 1.25-3.2-.05 0-.05.05-.4.9-.75 1.3l-.35.35q-.8.65-2.05.65-.6 0-1.15-.55-.4.1-.8-.4-.45-.6-.5-.7-.05-.7.35-.2.25.2.7.85.35-.15 1.75-.25.15-.05.3-.05l.3-.1q1-.3 1.65-.95L80 27.7l-1.4-.1-.05-.25q.05-.45.2-.8-.4.3-1 0-.1-.05-.2-.15-.05-.05-.05-.4 0-1.85 3.45-1.85.55 0 1.75.35l-.55.05.05.05q.1 0 .25.05.8.2 1.35 1.05.45.85.45 1.9 0 .9-1.25 3.65-1 2.25-1.2 3.45.05-.05.05-.1l.15.15v-.15q.2.15.55.55.45.45 1 .55h1.05q.85-.6 1.15-1.5.1-.25.15-.45.1-1.1.25-1.75.25-2.55.3-3.35-.05.3-.15.75-.1.35-.2.35.3-1.75.45-2.3.25-.7.7-1.2.55-.3 1.05-.75.75-.4 3.05-.95l.1.15q.95-.1 4.15 0 2.9-.1 3.5-.95-.8.1-2.25-.5-1.5-.6-2.35-.6-.9-.05-2.8.35-1.95.35-2.25.35-.4 0-.5-.05l-.25-.15h.05q.05-.5.3-.9.2-.4 2.6-1.2 2.35-.8 3.95-.35 1.55.5 4.15 1.6 2.3-6.9 3.25-9.5-1.5.3-3.55-.55-1.75-.8-2.2-1.5m-14 34.9l-.15-.35 2.1.75q2.35.7 3.85.45 2-.85 2.45-.85l.1.25q-.45.8-2.05 1.5-1.45.65-2.65.65-2.2 0-3.25-.5-.65-.4-.65-.75 0-1.05.25-1.15m12.95-35.3l-.1-.25-.2-.05.3.3M4.7 77.7q-.1-.15-.2-.25-.1-.15-.2-.1-.1.15-.15.4-.15.75-.1 2.6.05 1.9.25 4.25.1.25.1.45l-.05.3v.05q.05.2.05.45 0 .15.05.3.2.5.8 1.6.45.85.7 1.35.15-1.15 1.05-2.6-.85-.5-1.55-4.05-.6-3-.75-4.75m42.85 39.05q-1.7-2.1-4.05-4.05-.9-.7-2.25-1.7-2.6-1-4.25-1.65-.2.1-.4.1 0-.15.05-.25-.95-.4-1.5-.7-1.6-.8-3.55-3.1-1.5-1.8-1.85-2.95-.1.7-.6 2.6-.7 3.05-.7 3.6 0 2.7 1.75 5.15 1.75 2.55 6 5.65 3.1 2.3 6.55 3.85 3.35 1.55 6.15 2h2.85q.1-.9.1-1.55 0-1.3-1.6-3.6-.05 0-2.7-3.4M9.65 91.3q-.1.4-.1.75 0 .7.35 1.15.1-.05.45-.3.35-.3.35-.8 0-.35-.15-.75-.25-.5-.35-.85l-.3-.1q-.1.4-.25.9m-2.6-4.35q-.7 1.2-.95 2.7v.15q0 .4-.15 1.5v.1q.05.4-.05 1.65.05.9.2 1.6.15.65.45 1.1l.05.05q.3.55 1.4 2 .2-.95.3-1.35.15-.75.05-1.3-.05-.45-.45-.7-.55-.45-.65-.6l.25-.9.1-.15q.3-.7.15-1.3-.25-.7-.35-1.15-.3-1.65 2.15-5.2-1.5 0-2.5 1.8m-.2-5.9q.05.35.35 2.25.3 1.85.4 2.2.3-.2.7-.6.3-.25.7-.25.8 0 1.25.65.5.7.5 2.05 0 .3-.2 1.2l-.15.75q.7-.2 1.75-1 .8-.65 1.25-1.1l-.05-.05q-1.8-.8-2.55-1.55-.15-.2-1-1.45l.1-.15q-1-1.15-1.45-1.7-.8-.9-1.6-1.25m12.15 5q-.55-.5-1-.9-1.05 1.4-2.65 1.6l.15.05q-.4.25-1.1.45 0 .35-.25.65v.1l.25-.35q.15.6.1.7-.15.15-.4.45 0 .8-.65 1.4-.6.5-1.45.6.1.1.2.4.15.55.15.95 0 .65-.35.95 0 .45-.55.8-.6.3-1.4.3l-.05.2-.5-.6q.4.8.5 1.1l-.1-.45h.1q.05.2.05.4v.75q-.1.7-.35 1.2-.65 1.5-1.2 1.6.65.85 1.5 1.95 1.85 2.7 3.35 4.05.15.15.35.3.45.2 1.2.55 2.45.85 5.9.85 3.05 0 3.9-.2 1.1-.3 1.65-1.55 1.2-4.95 3.5-11.45-.5-2.6-2.3-7.45-.15-.35-3.05-7.6-.7 1.45-.75 1.7-.05.2-.05 1.4 0 2.8 1.15 6.55 0 .25-.3 1.3t-.45 1.3L24 90q-.1.05-.25.05-.1 0-.45-.25-.05.1-.05.2-.15.75-.6 1.3.65-.75.75-.55-1.25 2.5-1.45 3.1-.15.5-.15 2.05 0 .75.2 2.1.7 1.75 1.65 3.15.85 1.4.9 1.65l.9.7q0 .05-.65-.25v.4q0 .45-.2.55-.1.1-.7.1-.95 0-2.9-1.1-1.95-1.05-6.35-3.9-1.7 2.45-2.6 2.45h-.3l-.05-.05q-.05-.05-.05-.4l.35-.45q.45-.45.7-1-.6.2-1.55.4-.35-.05-1-.35 2.8-1 3.45-1.55l1.05-2.05q.1-.5.2-1.55.05-.95.05-1-.15-.25-.25-.4-.1-.2-.1-.55 0-.1.75-.65.65-1.55 1.4-2.05 1.05-.65 1.15-.8.4-.55.65-2.2.15-.75.5-1.05m-8.05-3.75q.2-.3 1.15-.4-1.05.2-1.15 1.15 0 .5.1 1.1 1.15.5 2.45 1.1.85.3 1.15.3l.9-.7q.65-.5 1.2-.75l-.05-.05q-1.3-1.05-1.95-1.5-1.05-.8-2.3-1.25-5.35-1.75-6.1-2.05.15.4.45 1.45 1.55.6 2.25 1.15.5.35 1.8 2.2-.2-1.3.1-1.75m140 40.4q-.6.1-1.6.25-.85.1-2.3.55-1.55.45-2.3.8 2.25.55 6.75 1.6 4.1.8 7.9.8.85 0 1.1-.2.25-.2.3-1.05-1.4-.5-2.55-.8-.45-.15-2.25-1.35-.05 0-.1-.05-1.05-.45-2.05-.65l-.35-.05q-.7-.05-1.5-.05-.4.3-.8.4-.2-.1-.25-.2z"/><path fill="#537070" d="M64.3 125.15q-.05-.05-.05-.1l-.15 1.15.1.2v-.15q.05-.65.1-1.1M77.65 63.3v.05l.15.1q-.05-.1-.15-.15m-8.5 9.5l.05-.1v-.1l-.1-.2q0 .4.05.4m60.95 13q-.05.1-.05.2l.15.1q0-.15-.1-.3m-2.9 19q-.002.05-.05.05l.05.05v-.1m7.2-38.2h-.2l-.05.2.45-.15q-.1 0-.2-.05m-27.5 8.85l-.05-.05-.1.3.15-.25M85.8 90.9l-.2.05q.2.65.4 1.2l.15-.2q-.2-.55-.35-1.05m2.15-11.95q-.05.05-.1.2v.05l.05-.05.05-.2m.35-.55h-.05v.15h.1l-.05-.15m-.9-.2q.05 0 .05.05l.05-.15-.1.1z"/><path fill="#FFF" d="M80.45 25.8l.1-.1q-1-.05-1.4.2-.25.5-.4.65-.15.35-.2.8l.05.25 1.4.1q-.1-.3-.1-.6v-.05q.05-.75.55-1.25m1.75 14.75q.1.25.35.85.1.4.25.5.55.25 1.2.4 1.9.25 6.6.25.75 0 2.2-.8 1.75-.9 2.75-2.25l-.35-.55q-.6 1-1.35 1.4-1.25.75-5.65.75-.45 0-3-.2-2.5-.25-3-.35M80.95 26.2l-.5.05-.15.8 1.65-.05-1-.8m2.85 1.6q0-.25-.15-.55 0-.25-.1-.45v.3q0 .5-.2.85l.4.05q0-.05.05-.05v-.15m9.95-1.9q.1-.1.2-.15-.6 0-1.45.35-.8.4-1.2.8l-.1.55q.5.35 1.05.35.65.05 1.1.1-.1-.3-.1-.7 0-.75.5-1.3m1.7 1.1l-1-.8-.5.05-.15.8 1.65-.05m2.45.6l.15-.2q0-.05-.45-.4-.45-.35-.95-.65.25.4.25.85 0 .35-.1.65.8-.05 1.1-.25z"/><path fill="#432121" d="M82.8 41.9l.1.5q.15 1 .25 1.15h.1q0 .1.05.2.35.35.95.55l6.2.15q1.35 0 2.65-1.15.7-.55 1.45-1.55.5-.75 1-2.2v-.05q-1 1.35-2.75 2.25-1.45.8-2.2.8-4.7 0-6.6-.25-.65-.15-1.2-.4z"/><path fill="#352A20" d="M83.55 27.1v-.3q-.15-.35-.55-.6-.2-.1-.45-.2-.55-.2-1.25-.2-.4-.1-.75-.1l-.1.1q-.5.5-.55 1.25v.05q0 .3.1.6l3.2.25h.15q.2-.35.2-.85m-3.1-.85l.5-.05 1 .8-1.65.05.15-.8m16.45.95q0-.45-.25-.85-.05-.05-.15-.1-.2-.05-1.05-.25-.95-.2-1.45-.25h-.05q-.1.05-.2.15-.5.55-.5 1.3 0 .4.1.7h.4l2.7-.05h.35q.1-.3.1-.65m-2.45-1l1 .8-1.65.05.15-.8.5-.05m-5.5-2.9q.1.05.5.05.3 0 2.25-.35 1.9-.4 2.8-.35.85 0 2.35.6 1.45.6 2.25.5.6-.1.8-.2.15-.1.75-.6-.15-.35-.9-.65-2.6-1.1-4.15-1.6-1.6-.45-3.95.35-2.4.8-2.6 1.2-.25.4-.3.9h-.05l.25.15m-4.15-.55q-.25-.4-1.6-.8-1.4-.35-4.05-.9-2.05-.4-2.95 1.5-.25 1.55-.25 1.85 0 .05.15.4l.9-.75q.9-.75 1.25-.75 3.15 0 5.65.4.35.1.45-.1.1-.1.45-.85m18.5-.95q1.2 2.05 1.25 2.25.15.35-.15 2.5 0 .3.1 1.1.15.95.2 1.5l.05.05q.1.1.2.35 1.3-.85 3.65-3.8 1.45-1.85 4.55-2.1l.05-.05q-.05-.1-.85-.25 1.95-3.4 1.95-13.8 0-3.9-1.95-5.95-3.3-3.6-12.5-3.6L95.4.1Q84.35.55 79.8 3.5q-2.85 1.8-2.85 4.25 0 .15.45 1.05.55 1 1.1 1.65l.1.1q0-.05.05-.1.4-.55.4 0 0 .1-.05.35 1.15.75 4.2 1.9 4.55 1.7 6.9 1.15l.2-.05q-.4-.65-1.1-1.4-.25-.25-.35-.25l-.1-.15q.05.05.1.05-.05-.05-.1-.15-.95-.95-1.2-1.25h.15q1.15.55 2.4 1.5 1.75.7 7.2.7.6 0 1.6-.35l-2.7-2.15-.3-.3.2.05q.4.2 3.3 1.25 3.05 1.05 4.65 1.05-.35 2.1-1.15 4.75-.4 1.3-.75 2.35 0 .4 1.15 2.3z"/><path fill="#D4D4D4" d="M80.7 159.8l-.1.1q.2.6.65 1.4.45.8.65.9.25.15.55.35.25.1.65.2.2.05.45.15.9.15 3.25.45h1.65l.1.05h2.5q1.75-1 1.75-3.15-.05-.8.15-2 .05-.2.05-.35-2.75 0-5.05-1.25-1.2-.7-1.7-1.35h-.05l-.05-.05q-1.7 1.15-4 1.15-.65 0-1.25-.1l-.05 3.15q0 .25-.15.35z"/><path fill="#666D74" d="M126.65 197.25q-.05-.25-.05-.55-.05.25-.05.5l.1 1.6h.15q-.05-.2-.05-.35-.05-.55-.1-1.2m-39.5-.9l.15-.15h-.05l-.1.15m-20.75-23.8l.2-.3-.1-.1q-.1.2-.1.4m21.9-7.6q0-.5-.15-.5l-.05.6.2-.1m38.1 29.25l-.2-.05q.15.55.25 1.05-.05-.5-.05-1z"/></g><g id="sis01_00_3_1d"><path fill="url(#sis01_00_3_1a)" d="M84.1 26.95v-.25q-.15-.35-.3-.6-.5-.65-1.35-.75-1.7-.25-3.55-.2l-2.8.35q-2 2.1.1 5.05l.6.25q2.6.85 5.35.25.45-.1.95-.25l.2-.4q.65-1.4.65-1.5.1-.45.2-1v-.15-.25-.15q0-.2-.05-.4z"/><path fill="#3A2E25" d="M99.5 26.7q-.2-1.15-.9-1.35-1.05-.35-4.7-.55-3.05-.15-3.95.15-.95.3-1.55.7-.2.1-.25.5-.95-.9-2.1-.8H86q-1.2.15-1.6.75-.1-.15-.15-.25-.55-.7-1.5-.85-1.85-.25-3.9-.2l-3.1.4q-2.2 2.3.1 5.6l.65.25q2.9.95 5.95.3.25-.1.5-.1.05-.2.15-.45-.5.15-.95.25-2.75.6-5.35-.25l-.6-.25q-2.1-2.95-.1-5.05l2.8-.35q1.85-.05 3.55.2.85.1 1.35.75.15.25.3.6v.25q.05.2.05.4v.55q.1-.3.15-.6.1-.4.3-.55v-.05q.4-.45 1.4-.55h.05q1.1-.1 2 .75 0 .7.2 1.75.5 2.6 1 2.85.5.2 3.05.6 2.5.35 4.8-.3 2.25-.6 2.45-3.35.05-.4.05-.7h7.7l.7-.8-8.5-.25m-.6-.05q.05.45.1 1.1 0 .3-.05.7-.15 2.45-2.15 3.05-2.1.55-4.35.25-2.3-.35-2.75-.55-.45-.2-.85-2.55-.45-2.4.1-2.7.5-.35 1.35-.6.85-.3 3.6-.15 3.3.15 4.25.5.55.15.75.95z"/><path fill="url(#sis01_00_3_1b)" d="M99 27.75q-.05-.65-.1-1.1-.2-.8-.75-.95-.95-.35-4.25-.5-2.75-.15-3.6.15-.85.25-1.35.6-.55.3-.1 2.7.4 2.35.85 2.55.45.2 2.75.55 2.25.3 4.35-.25 2-.6 2.15-3.05.05-.4.05-.7z"/></g></defs><use xlink:href="#sis01_00_3_1c"/><use xlink:href="#sis01_00_3_1d"/></svg>