<svg xmlns="http://www.w3.org/2000/svg" xmlns:xlink="http://www.w3.org/1999/xlink" preserveAspectRatio="none" width="368" height="363" viewBox="0 0 368 363"><defs><radialGradient id="sis01_00_5_1a" gradientUnits="userSpaceOnUse" cx="0" cy="0" r="11.4" fx="0" fy="0" gradientTransform="matrix(-1 0 0 1 105 58.3)" spreadMethod="pad"><stop offset="1.961%" stop-color="#FFF"/><stop offset="100%" stop-color="#FFF" stop-opacity="0"/></radialGradient><radialGradient id="sis01_00_5_1b" gradientUnits="userSpaceOnUse" cx="0" cy="0" r="6.838" fx="0" fy="0" gradientTransform="matrix(-1 0 0 1 122.35 59.15)" spreadMethod="pad"><stop offset="1.961%" stop-color="#FFF"/><stop offset="100%" stop-color="#FFF" stop-opacity="0"/></radialGradient><path fill="#FFF" d="M275.3-5.35H-11.75V279H275.3V-5.35z" id="sis01_00_5_1c"/><g id="sis01_00_5_1e"><path fill="#A2ADB8" d="M155.5 490.9l.1-.15-.6.15q.35.1.5 0m-36.45-238.25q-1.5-1.5-1.8-1.9.1-.05 4.85-3-1.8.65-4.25 1-.3.85-1 2.15-.65 1.1-.95 1.25-.4.3-.9.6l4.05-.1m14.1-7.8l-.6-1.05q-.25.7-1.05 1.9-1.4 2.15-1.6 2.8-2-.1-3.2.55-.85.4-4.7 2.55l.5.35q.5.3 4 1.8 3.25 1.6 3.25 2.65 0 1.25-.35 1.25-3-.15-5.1-1-2.7-1.15-4-1.35h-14.95q-11.85 2.35-13.1 2.6-6.4 1.45-7.55 2.3l-1.75-.5q-.15.2-.15-1 0-2.05.7-2.8 2.2-1.6 5.2-3.9h-3.2l-11.9 1.15.4.3q3.9.3 5.7 1.35l.1-.7q.15 0 .25.05.15 0 .35.3 0 .2.05.9l.1.1q.7.75.7 2.75 0 1.75-2.7 7.25.5-1.1.5-1.3-.1.5-3 6.45-.85 1.85-3.55 4.4-3.05 2.9-5.3 3.25-.45.15-.9.2-2.65 1.15-6 2.15.3.65.95 1.75.5.95.5 1.7 0 6.25-4.9 11.15-4.8 4.9-4.8 7.05 0 .75.2 1.8.05-.25.05-.5.15-1.05.2-2.45.1.35.1.7l-.15 2.7q.65 1.15 1.3 3.1.95 2.8.95 4.35v.25q.5 2.1.5 3.8 0 .55-3.05 11.05-2.2 8.15-2.8 12.7v.2q0 1.35-.35 3.9 0 1.55-.1 3.05.1 2.35-.3 3.95-.35 4.5-.95 7.55-1.15 5.1-1.15 11.45 0 .65.5 5.25.35 4.75-.5 7.05-.45 1.05-2.55 6.35-2 5.1-2 6.2 0 6 3.85 10.05 3.9 4 3.9 6.25 0 1.85-3.35 6-3.25 4.3-3.25 8.4 0 3.4 4.05 10.25 4.1 6.85 4.1 11.95 0 .95-6.15 5.25-6.1 4.15-6.1 6.1 0 .35 4.3 4.25 4.4 4.65 4.4 8.5 0 2.05-4.9 6.1-4.8 3.95-4.8 8.15 0 5.1 4.8 10.35 1.2-.45 1.35-.45 2.2 0 8.3 3.15 2.2 1.1 3.6 1.85.45.1.8.35l2.1.85q.15 0 .25.05h.2q.55 0 1.05.3.3.2.65.55l.5.5q.4-.5 1.4-1.65.45-.4.45-.75 0-3-2.2-9.85-1.05-3.4-1-7.1.05-3 .35-3 .15-3.4.3-10.35.05-4.3.05-6.95 0-1.7-.55-7.85-.55-6.15-.55-6.9 0-3.15 2.65-10.25 3.85-10.35 4.75-13.55 1.25-4.7 2.2-8.1 1.85-6.3 4.05-12.3 7.65-19.65 9-23.5.65-1.85 1.95-6.85 1.4-5.4 2.45-8.6 2.65-8.3 3.85-21.75 1.4-15.85 2.25-19.95-.05-2.35.5-7.8.55-5.6 1.15-7l-2.35 1.7q.7-1.15 1-1.5 1.05-1.4 2.55-2.4.7-1 1.05-1.35.3-.35 2.15-2Q77.2 297 70.3 294.5q-4-1.4-6.7-2.7 8.35 1.2 19.9 4.9 11.4 3.6 16.3 6.6l.65-.45L76.4 291.5q2.15-.5 9.95 2.2.7.25 15.95 8.05.85 0 2.75-1.25 2.7-1.75 3.25-2.05l8.05-3.9q1.85-1.4 4.55-2.95 2.95-1.8 4.3-2.05l.85-.25-3.1 2.1 9.6-4.65.3.15.1.7q0 .5-6.75 4.4-8.35 4.75-13.4 9.45l-.95.8 3.55-1.3q5.1-2.4 7.4-3.45 1.7-.95 2.9-1.5l.2.25-2.9 2q6.15-2 9.45-2 .7 0 1.9.3-1.8 2.9-7.25 7.25-3.25 2.6-11.95 9.25-3.35 2.65-5.9 6.4-2.25 3.35-2.25 5.1 0 1.15 2.3 3.25 2.5 2.3 2.5 3.05 0 1.95-2.6 4.65-2.65 2.75-2.65 3.15 0 1.25 8.85 11.1 8.9 9.85 8.9 10.6 0 2.2-1.5 4.55-.2.2-3.25 4.4-4.75 6.25-4.75 13.4 0 3.85 5 9.5 5.05 5.6 9.35 10.9 4.4 5.25-5.3 7.2-2.25 3.05-2.7 16.15-.4 13.1.2 14.95.65 1.8 3.55 4.9 3 3.15 2.9 2.5 4.3 3.8 4.3 7.8 0 1.25-1.45 3.25l-4.6 5.75q.9.2 4.55.15 3.6-.1 4.45-.3.15.15.3.9.15.8.15 1.35 0 2.7-3.7 4.85-5.3 2.95-8.3 6.95 6.05.4 7.5-.6 3.35-2.2 5.55-2.8 1.5-.45 3.8-.85 2.15-.35 2.95-.35.55 0 1.45.05l.85.15q0 .05.45 1.05-.65.35-7.3 3.05-6.6 3.5-7.75 8 1.85-.2 2.8-.2 1.7 0 2.4.45.5.2 1.2 1.25-.05.2-1.7 1.55-2 1.95-3.5 4.9 1.3-.5 8.9-4.05 4-1.95 6.15-1.95.65 0 1.15.2.75.35 1.85 1.4.55.65 1.9 1.3.15.05.3.15.7-.1 1.45-.25l.25-.25q.25-.35.25-.95 0-.7-.5-2.95-.7-2.55-.7-2.9-1.25-8.6-1.5-9.15-.7-1.85-3.9-7.55-2.3-4.05-2.3-6.2 1.4-4.3 1.4-6.6 0-5.6-2-12.3-1.9-5.75-1.9-6.6.35-1.75.7-3.95.7-4.55.7-7.5 0-2.55-.7-8.1-.7-5.1-.7-5.45 0-4.75 1.15-11.35 1.1-6.55 1.1-7.85l-1.4-15.55q-.15-2.4-.45-14.95-.25-14.7-.4-17.8-.35-9.6-2.65-33.85-2.05-23.1-2.05-24.8.8-12.35.8-13.2 0-8.85-1.35-15-1.35-6.1-4.6-12.3M111.6 256.9l.05-.75q.2-.45.7-.45.5 4 1.45 7.45.6 3.25.6 10.15 0 1.85-.05 3.55 9.3-2 11.55-2.9.45-.6 1.15-.65l.55.05q.2.15.3.15.05.1.05.65 0 2.35-5.25 4.05-4.15 1.35-8.5 1.5-.15 2.25-1.1 4.5-1.8 4.25-5.55 5.5l-1.4.45q2.15-.85 4.75-4.95 2.1-3.6 2.3-5.45l-5.3.3q-.35 2.95-1.9 6.45-1.45 3.2-2.3 3.65.7-1.1 1.65-3.9 1.2-3.3 1.5-6.2-5.7 1.4-17.3-2.8-8.5-3.05-11.15-4.75l-.4-.5.2-.75q4.8 2.25 10.2 3.95 10.55 3.5 18.7 2.3l.25-9.8q-.45-7.95-.5-11.4 0-.95.2-.95l.05.85q0 .35.75 8.25.6 6.8.4 12.95 2.65-.15 5.2-.4v-3.85l-1.85-16.25m22.05 2q-4.2-8.65-2.35-11 1 5.85 2.7 10.1.55 1.55 4.4 9.5-1.8-2.3-4.75-8.6m8.7 130.35q.6 2.1-1.75 6.5-2.05 3.75-3.2 4.75-2.2 2.5-5.6 5.25 3.8-6.1 4.3-6.75 6.2-9.65 6.25-9.75M64.6 398.3q-.65 1.35-1.3 2.15-.5.95-5.65 5.15-5.6 4.45-7.1 4.4.25-.5 1.7-2 1.9-1.95 4.55-4 1.7-.9 4.6-3.85 3.2-3.25 3.25-4.7.55.6.55 1.6 0 .2-.6 1.25z"/><path fill="#709898" d="M-2.65 172.3q0-.6.05-1.15-.1.45-.1.9 0 .15.05.35v-.1m143.3 24.75l.5.5.45-2.95q-.1-.5-.85-6.45-2 .75-3.5.75 7-2.95 10.55-13.4 2.45-7.15 2.45-14.3-.85 12.45-5.6 18.55-4.4 5.55-13.2 7.2 0 .35.25.75 1.3.45 4.55.65l-.35.7-1.35 1.65q3.55 4.1 4.2 5.9 1.35 3.4 1.15 12.25l1.2-4.1-.25-3.15-.2.35q-.2-1 .3-2.45l-.3-2.45m9.7-45.85v-.45q-.95-6.65-1.25-8.4.5 6.2 1.15 16.85 0-8 .1-8m2.45-.3q.2-1.2.4-2.35-.15-.45-.4-2.3v4.65m-42.4-32.1h.05q.9-.85 1.4-7.15.3-6.1.3-6.2 0-.5-.85-1.7-.4-.5-3.7-4.8.1.25.6 3.95 1.35 7.9 2.6 12.65 0 .85-.2 1.95-.1.5-.2 1.3m38.25 17.95h.3q.15 1.05 2.35 17.45.3-2.45.55-6.6.2-3.55.2-4.35-2.3-6.45-3.15-6.8-.15.05-.25.3M33.4 181.35q.85.6.9.6l-1.4.1q.4.2 1.55.55 1.25.45 1.6.45l.1-.15q-.15-.15-2.3-1.7-2.05-1.55-3.1-2.2 1.55 1.4 2.65 2.35m-13.35 14.7q-.55-.05-1.15-.05 1.75 1.35 5.35 2.75 5.75 2.2 11.7 2.2 3.95 0 3.95-9.35 0-1.55-.05-2.5l.1-.1q0-.25-.15-.7-.05-.5-.1-.7-.2-.65-.6-1.05-.4-.9-.95-2.05l-.1.25q-5.75-2.15-7-2.4-.3 0-.65-.1-1.65-.15-3.05.95.15.55 1.65 1.8 1.75 1.35 2.3 1.8-.75 0-2.1-.45-1.7-.6-2.75-.85l.7.5q.85.6 1.7 1.15 1.6 1.2 1.55 1.35-2.85-1.7-4.35-2.4 2.1 2.45 2.35 2.8.65.45 1.9 1.55l.3.1q6.35 2.3 6.35 5.05 0 .75-.3 1.5-.45.95-1.2 1.2h-3.4q-1.45-.2-3.5-.65-.45.15-.65.15-.8 0-.9-.5-1-.25-2.05-.5-1.6-.3-4.05-.65h.05q-.15-.05-.3-.05h-.05q-.3 0-.55-.05M4.5 193.3l-.05-.05q-1.3.35-10.05 2.8.1.15.1.35.05.65-.45 2.1 0 1.75 1.4 2.15 1.4.45 1.4 1.1v.2q.75-1.3 2-1.55 2.5-.2 5.15-.75 3.15-.65 5.5-1.95 2.25-1.25 4.4-1.7L8 194.45q-3.4-1.2-3.5-1.15m5.25-5v-.15q-3.05.15-5.45.75-1.4.35-4.1 1.15h-5.1q-.05-.15-.1-.25-.25 1-1.1 2.1-1.75 2.3-2.2 3.15 1.45.15 2.15.55.9-.6 3.15-1.5 3.25-1.2 5.75-1.55l-1-.45q.45-1.5 2.25-2.55 2.35-1.4 5.75-1.25m4-42.35l-.45-.8.2 1.3.25-.5m-1.8-6.05q-.1.05-.25.05-.55 0-.9-.8-1.25 2.45-5.1 10.25Q0 161.5 0 164.7q0 .5.45 2.75l-.85 1.95q-.9 1.95-.9 2.85 0 1.6.75 2.55.75.9.75 2.05 0 1.65-3.25 5.35-3.3 3.7-3.3 4.4 0 .2.75 1 .7.8.7 1.4v.05q1.9-.5 5.95-.55 5.9-.1 8.35-.95-.2 0-3.75-.05-3.6-.15-3.75-.2.15-.65.5-1.5.4-.9.85-1.3-.45.25-5.4 1l-.05-.05q.7-.7 3.6-1.65 2.5-.6 3-.6l.05-.3q-.7-.65-1.15-.85-.4-.2-1.9-.5l.45-.2q2.95-1.6 6.65-2.55 1.9-.5 1.9-1.6 0-1.35-3.75-3.15-4.45-2.2-4.8-2.55 1.8-4.35 8-4.9 6 .2 6.5-.3-1.2-1.4-5-4.45-3.2-2.85-3.2-5.55 0-1.35 1.9-2.4 1.9-1.2 1.9-1.8 0-.4-.35-1.4-.4-1.05-.4-1.5 0-.55.15-.7.1-.15.25-.5 1.65 7.5 3.85 13 2.45 6.1 4.55 6.1.55 0 .6-.15v-.45q-2.3-1.2-4.4-8.85-1.9-8.3-2.6-10.7l-.1-.1.1.5q1.15 6.2 2.9 14.05-1.4-4.55-2.9-11.2-1.6-7.35-1.65-10.3M2.9 183.2q-.1.05-.3 0-.15-.1-.3-.15l.6.15m34.6-67.95q1.45-1.2 2.9-2.25-2.15 1.1-3.1 1.7-3.6-.25-6.7 0 3.2 0 6.9.55m29.25 22l.3.05q13-5.55 15.05-6.4 1.85-.75 4.05-.75 9.5 1.5 12.55 3.1-.35.5 4.1 7.8 4.65 7.4 3.7 9.85.5 1.95.75-1.2.2-2.2.2-4.6 0-3.45-.75-6.05-.65-1.75-.65-1.8 0-.3.3-.95.5-.85 1.1-1.85l-.1-.35q.7-.65 1.7-1.4 2.4-1.9 9.2-7.6 1.05.1 5.3.65 4.15.55 4.85.55 2.55 0 3.55-.2 1.2-.2 1.9-1l-2.25.1q-.8 0-4.15-.95-4.6-1.35-10.75-3.6-.6 3.3-3.25 6.6-1.6 1.95-5.4 5.85l-.1-.2 1.15-1.65q-1.55 1.15-2.05.85 0 .25-.05.3-.1.15-.15.15l.05.65v.35q-1.6-.85-6.95-3.15-5.95-2.6-11.5-6.45-10.6 7.55-10.95 7.75-7.75 5.05-11.2 5.05.2.25.45.5m10.75-6.45q1.75-.65 3.05-1.7 1.7-1.65 3.4-3.05l-6.45 4.75m-27.8 7.4q-.25 0-.35.1.1 1.2 1.55 7.1 0 .85-.6 3.3-1.2-7.05-6.65-11.95-3.9-3.55-7.2-4.4l-.1.55q.55.55 2.25 2.55 2.15 2.5 3.8 4.55l-.8-.8q-1.2-1-6.1-2.75-5.55-2.15-8.3-2.15-.55 0-.7.25-.05.05-.05.4 8.05 3.5 12.15 6.8-2.1-.75-9.2-1.9-3.4 0-4.95 1-.8.55-1.4 1.65.2.2.75.45.8 0 4.45-.9 3.8-1 4.7-1 .15 0 1.8.45 1.1.25 1.7.5-.25 0-.25.5 1.55 1.1 3.35 2.45 3.55 2.75 4.6 4.4 1.85 3.05 3.2 9.35.7 3.2 1.05 5.85 0 .95-3.25 7.55-3.7 7.3-5.45 7.3-1.2 0-3.4-.6-1.85-.65-2.55-1-.8-.45-4.75-3.7-3.7-3-4-3-.4 0-.7-.05-.05 0-.05.55 0 1.85 2.9 4.05 8 4.4 9.7 6.55.3 1.4 1.2 2.1-.2-.35-.35-.65.35-.05 3.75-1.9 3.5-1.75 3.85-2.05l-.35-.15q-.15 0-.25-.25 4.2-3.45 5.4-7.75.8-2.65.8-7.85 0-4.05-2.5-9.95-3.75-8.8-10.65-10.7 3.15.5 6.2 2.9 3.95 3.1 5.95 8.35-1.2-4.15-3.25-7.05-1.55-2.15-5.1-5.25.75.05 1.6.7.8.55 2.3 2.05 2.9 2.9 3.6 4.4-1.65-4.7-1.65-4.9 0-.2.15-.45.65 1.35 2.65 4.9 1.7 3.7 1.7 8.15 0 .85-.25 10.95 0 1.2-1.4 5.25-1.7 4.95-3.45 6.35 3.8 6.4 5.65 12.65.25.85.6 2.45-.9 1.8-1.35 7.75-.1 1.45-.2 2.95v.45q-.05.85-.1 1.75-.05 1.4-.05 2.85v.65q0 .05 1.2 3.8.2.6.4 1.3l.55 1.65q.7 1.8 1.3 3.15-.45.65-1.3 1.8-1.75 3.25-1.75 7.95 0 3.2.75 4.25 1.5 1.85 8.25 5.1 2.4 1.2 9.2 2.4 6.25 1.2 9.5 1.3 3.2.15 5.5 0 .6-.1 2.45-.35 1.8-.3 2.2-.3.45 0 2.05.35 1.55.45 2 .45 4.1 1.25 6.6 1.55 5.3-.35 8-1.8 1.7-1.4 2.35-1.4 5.05 1.2 7.15 1.2 1.15-.15 2.9-.9 1.7-.75 2.55-1.45 1.45-1.05 2.35-1.05 1 .3 1.85.3h.15q.917-.008 2.7-.85 1.4-.75 2.1-1.35 3.4-2.7 6.2-7.3 2.25-3.85 2.25-5.4 0-2-1.2-6.25-1.15-4.2-1.15-4.6l.1-.8q-.15-.55-.35-.75-.15-.1-.25-.15 1.1 3.9-2.05 12.6-2.55 7.1-4.45 9.65.15-2.2.2-3.8 0-3.15-.55-3.85l-.45.55-2.35 4.7q-.85 1.75-.9 1.85 1.7-4.05 1.85-4.6.75-3.15.75-9.3 0-2.2-.4-5.45-.65-4.05-.7-5.25-.3 0-.45-.1-1.7 17.1-3.4 21.65-.75 2.1-2.25 3.8-.95 1.15-3.4 3.7-.6-.55-1.15-1.05-.05 0-2.5 1.35t-3.75 1.5l1-1.7-.55.85-.15-.1-.1.1q0-.5.1-.95.3-.85 1.2-2.9-.2.05-1.5.8-2.2 1.05-6.45 2.2H99.8q-.75-1.6-.75-3.15 0-.85.75-1.85.8-.9.8-2.3 0-.65-.05-.8-.15 0-.6-.1-.2.1-3.4 1.75-3.45 1.75-4.9 2.3-1.75.65-3.4 2.9-2 2.85-2.85 3.55-2.4-5.15-2.45-5.35-1.2-2.5-1.7-2.5t-.65.3q-.2.2-.3.2l-.4 3.75-.35-.55-.3-.8q-1.55-3.55-2.85-7.5-1.55-4.7-1.55-6.55-.85.1-1.25.85-.35.8-.6 2.8h-.15q-1.1-3.5-2.2-6.85-2.05-6.5-2.05-8 2.3-.5 3-1.4.35-.45.35-1.4 0-1-1.5-3.9-.75-1.45-1.55-2.8 0-1.05 4.45-2.35 5.7-1.55 7.25-2.45-1.9-1-8.35-3.55-6.2-2.5-6.75-2.75 2.25.25 4.25.5 3.9.35 9.95.35 11.55 0 20.85-1.85 7.85-1.55 7.85-2.85 0-.5-.1-.55-.05-.1-.05 0l-.5-.15q-21-1.05-34.15-6.6-9.6-4.05-15.35-10.65-2.05-2.35-2.6-6.7-.6-7.45-1.45-14.5-.45-3.6-2.15-7-1.75-3-1.95-3.75l-.25.35q-.1.15.1.7.25.4-.25.4m1.95 32.7v-.15q3.4 3.85 5.75 6.45 4.55 4.85 6.7 5.75 2.6 1.15 11.55 2.55Q85.4 187 92 187q-1.35.15-5.3.35-3.85.2-4.55.2-10.55 0-20.2-5.1-9.85-5.25-10.3-11.55m18.75 16.6q6.1 1.2 7.5 1.15 10.5.25 14.9-.3 2.2-.3 10.55-2.25-1.05.35-3.95 1.85-5.45 1.7-15.9 1.7-10 0-16-1.7-3.15-.85-5.6-2.1 1.6.25 8.5 1.65m-48.3-26.15q-.3-.35-.85-1.45-1.15-1.7-4.4-5.25-.2.25-.35.5-.35 1.1.9 3.8 1.1 2.3 1.8 2.95l.3-.2q.35-.45.4-.95.2.45 1.8 1.25l.25-.15.15-.5m48.95-70.6v-.05q-.05 0-.05.05h.05m-.2.8l-.2.2q-.75 1.95-1.3 3.1l-.3-.05q.35-1.05.7-2.15-.25.25-.55.5-2.35 2.45-3.6 4.7-.85 1.5-2.9 3.2-2.1 1.75-4.85 3.1-2.45 1.15-11.25 6.6-6.55 4.05-8.1 4.65.15 0 .3.05l-.05.45q-2.3-.25-2.8-.25-13.7 0-19.05 4.35-5.35 4.3-5.35 15.2 0 1.15.5 2.3.15.3.25.6v.05q.2.65.2 1.1 0 .2-.2.45.3 2.2 2.1 6.2 2.65-1.5 3.75-2.3 1.35-1 1.35-1.85 0-2.05-2.55-5.65-2.65-3.7-2.65-5.8 0-3.65 1.85-6 1.75-2.1 6.75-5.2 3.4-2.1 10.4-2.1 8.15-.05 8.5-.1l-.6-.25q.1 0 .25-.05.35 0 .5-.15 0-.15-.2-.5-.1-.15.4-.15 5.2 0 9.5 2.65 4.55 2.85 7.05 7.95.35.75 3.1 4.1 3.2 3.8 3.7 4.45-3.35-20.4-3.35-25.75 0-1.55.5-3.4.45-1.4.95-2.2.05.25.15.3.05.15.05.7 0 .45-.2 2.4-.25 2.45-.15 4.7l.7 4.8v-.25q.45-3.5 1.35-8.1 1.4-6.75 2.6-6.75 1.3 0 4.75 2.15 4.05 2.7 5.75 3.75-3.2-4.1-6.85-8.55-2-2.65-2-4.05 0-.6.35-.95.2-.25.3-.2l.45-2m97.4 77.1q.75-.3.75-.5 0-.55-.05-.55 0-.1-.05 0h-3.7q-.5.1-6.05 1.95-3.75 1.3-4.75 1.3-1.55 0-2.05-1.3-.15-.4-.15-1.4 0-1.9 1.8-10.55l-.2-1.5q-1.25 2-1.45 1.7.3-1.05.65-1.7.2-.6.35-.8-.2-1.25.9-4.15 1.3-3.45 1.3-6.2.2-1.7.2-3.45 0-3.55-1.25-4.25-.7 1.2-1 6.2-.15 2.3-.15 4.7 1.65-8.1 1.75-8.1 0 .65.15 1.5 0 5.05-1.4 8.65-.85 2.05-2.5 4.75v2.7q-.75 11.85-.9 11.85-.1 0-.95 4.15-1.1 4.8-2.4 6.7-1 1.6-3.55 4.65l-2.25 2.85q0 1 .55 3.85.65 2.8.65 2.95 0 .8-.4 3.4 0 .1.95 2.9.45 1.1 1.1 1.6.9-5.1 2.95-7.9 1.3-1.6 5.05-4.25.05.15.3.3-3 1.2-5.55 6.15-2.05 3.75-2.2 5.7l1.55-.35q0-.3.1-.4.05-.05.7-.05 4.15-4.4 5.4-6.3l.9-1.45q-.35.45-2.05 2.15l-.55.5q3.6-5.3 5.15-7.25 2.25-2.8 7.4-6.85l-1.25-.15q2.65-2.4 3.15-3.2-.7 0-1 .35-.2.3-1 1.05-1 1-1.55 1.25 1.2-1.45 2.55-2.8-.7 0-2.75.8-2 .7-3.5 1.4-.2.3-1.05 1.15-.55.55-.55 1 0 1.2-3.2 4.1-3.15 2.75-4.2 2.75-3.35-.9-3.9-2.2l4.2 1.45q2.55-1.65 7.45-7.75l1.25-1.55q1.55-1.75 3-3.1-.6-.45-2.55-.25-.1.15-2.55 3.4-2.7 3.35-4.25 3.8 1.05-.75 2.95-3.3 2.05-2.75 2.75-3.65l-.95.4q-1.3.55-2.2 1.15l-1.1.75q1.6-1.55 4.35-4.8-2.55 2.2-5.9 2.2-1.05 0-1.05-2.05 0-.95.4-2 .3.3.25.85 0 .45-.1 1.2 0 1.2 1.55 1.2 2 0 4.65-1.85 2.3-1.9 2.9-2.25l-1.7 1.75q.5-.25 4.3-2.75 2.9-1.2 5.55-2.25m-24.95 27.3q0-.35.55-1.85.8-1.8 1.35-2.35-.2.55-1.7 4.85l-.2-.15v-.5m1.95-48.65q1.8-6.1 1.8-10 0-1.4-.6-2.75l-4.1 10q-1.25 3.15-3.8 6.8-2.15 2.9-3.35 3.95l.15.6.2.1q1.2 0 3.95-2.45 2.6-2.65 2.95-3-.3.5-.95 2-.15.35-2.2 3.05.15.55.85.65 3-1.3 5.1-8.95z"/><path fill="#3A2719" d="M67.15 518q0-3.55-2.15-4.25-1.9 5.1-22.55 5.1-9.9 0-13.25-2.65-1-.85-1.3-1.9-.1-1-.2-1.05-.4.5-1.05 1.05-.45.85-.45 3.5 0 3.45 4.2 5.25 3.55 1.55 8.8 1.55 4.6 0 7.7-.3 5.15-.4 13.5-2 4.8-.9 6.15-2.2.6-.6.6-2.1m-6.4-14q.2-.2.2-.35.15-.1.15-.7-.35-.35-.65-.55-.5-.3-1.05-.3h-.2q-.1-.05-.25-.05l-2.1-.85q-.35-.25-.8-.35l-9.4.05q-7.55 1.9-9.75 2.7-3.75 1.35-6.8 3.7l.6.15q5-2.2 7.55-3.3 4.4-1.75 8.95-2.2l9.95.1q2.05 1 2.75 1.5.5.35.85.45m93.15-12.05q-.75.15-1.45.25-3.45.5-5.4 1.35-.85.4-4.4 3.1 0 .2.3.3 2.15-1.7 4.1-2.55 2.2-1.1 6.6-1.8.5 0 2.1-.35h.15q.2-.05.5-.05 1-.25 2.05-.3h-.4l-1.85-.15q-1.2.15-2.3.2M171 504.4h-1q-.35 1.75-1.35 2.2-1.45.7-7.45 1.1-6.8.5-13.3 1.2-12.75-2.25-18.15-4.5-5.4-2.3-8.4-4.9l-.55-.3q-.2 1.7-.2 3.35 0 3.15 1.25 4.6 2 2.25 7.7 3.3H133v-.95q1.35-.15 2.2-.15.8 0 1.25.55.75.8 5.2 2.65 4.4 1.75 13.9 1.2 9.45-.65 12.5-1.65 3.1-1.05 3.1-1.5l-.15-6.2z"/><path fill="#64432B" d="M60.95 503.65q0 .15-.2.35-.35-.1-.85-.45-.7-.5-2.75-1.5l-9.95-.1q-4.55.45-8.95 2.2-2.55 1.1-7.55 3.3l-.6-.15q3.05-2.35 6.8-3.7 2.2-.8 9.75-2.7l9.4-.05q-1.4-.75-3.6-1.85-6.1-3.15-8.3-3.15-.15 0-1.35.45-.35.15-.85.3-1.75.6-2.75.95-.3.1-.5.15-10.55 5.95-11.3 6.9l.3 8.65q.1.05.2 1.05.3 1.05 1.3 1.9 3.35 2.65 13.25 2.65 20.65 0 22.55-5.1 0-1.3-1.15-4.85-1.2-3.9-2.25-5.45l-.5-.5q0 .6-.15.7m109.05.75q-.75-6.1-2.95-8.95-2.85-3.6-8.75-3.6-.05 0-.25.05h.4q-1.05.05-2.05.3-.3 0-.5.05h-.15q-1.6.35-2.1.35-4.4.7-6.6 1.8-1.95.85-4.1 2.55-.3-.1-.3-.3 3.55-2.7 4.4-3.1 1.95-.85 5.4-1.35-.15-.1-.3-.15-1.35-.65-1.9-1.3-1.1-1.05-1.85-1.4-.5-.2-1.15-.2-2.15 0-6.15 1.95-7.6 3.55-8.9 4.05-.4.15-4.4 1.85-4.3 1.7-6.5 1.9l.05.6q3 2.6 8.4 4.9 5.4 2.25 18.15 4.5 6.5-.7 13.3-1.2 6-.4 7.45-1.1 1-.45 1.35-2.2M60.75 240.9q.3 1.25.15 2.45-.1.65-.3 1.5-.05 1.15 3.55 2.35 4.9 1.5 9.95 2.55 3.3.7 4.75.85l.4.1q-.2-.45-.5-1.85-.3-1.45-.3-2.15 0-1.4 1.6-2.95-.65 0-.8-.1l.2-.05q-3.25-.1-9.5-1.3-6.8-1.2-9.2-2.4v1m26.65 2.35q-1.85.25-2.45.35-.25.7-.85 2.45-.5 1.6-.5 2.15 0 1.35.6 2.1.8.95 2.5.95.2 0 .4.05 1.45 0 2.95.1h1.45q3.85-.1 8.65-.25-.05-.6-.05-2.9.05-2.45.15-2.95-2.5-.3-6.6-1.55-.45 0-2-.45-1.6-.35-2.05-.35-.4 0-2.2.3m38.6.9q-.5-.9-.75-1.25-.75-1.15-2.05-1.95-.85.7-2.55 1.45-1.75.75-2.9.9l.1 5.45q2.45-.35 4.25-1 1.8-.7 2.8-1.7.95-1.75 1.1-1.9m4.25-4.8q-1.783.842-2.7.85.558.012 1.05.75.5.85.5 2-.15.3-.2.55-.45 1.15-.6 1.45-.2.25-.7 1.25 3.25-.5 4.05-1.75.3-1.45.35-1.8l.35-4.65q-.7.6-2.1 1.35z"/><path fill="#9099A3" d="M53.75 307.6q-.65-1.95-1.3-3.1-.7 6.65-1.15 10.7-.2 2.05-1.7 12.2l-.4 2.35q-.35 1.75-.35 15.45.05.85.05 1.7.1-1.5.1-3.05.35-2.55.35-3.9v-.2q.6-4.55 2.8-12.7 3.05-10.5 3.05-11.05 0-1.7-.5-3.8v-.25q0-1.55-.95-4.35m9.85-15.8q2.7 1.3 6.7 2.7 6.9 2.5 28.75 9.35-1.85 1.65-2.15 2-.35.35-1.05 1.35 5.15-2.8 9-4.85 7.25-3.95 11.5-7.8l-8.05 3.9q-.55.3-3.25 2.05-1.9 1.25-2.75 1.25-15.25-7.8-15.95-8.05-7.8-2.7-9.95-2.2l24.05 11.35-.65.45q-4.9-3-16.3-6.6-11.55-3.7-19.9-4.9m16.95-36.35l-.1-.1q.1.7.2 1.9 0 .1-.25 2.2-.45 2.5-1.35 4.7 0 .2-.5 1.3 2.7-5.5 2.7-7.25 0-2-.7-2.75m53.8 41.1q-1.2-.3-1.9-.3-3.3 0-9.45 2-4.95 2.85-12.1 6.3-9.4 4.55-12.7 5 16.7-8.3 17.2-8.6l-3.55 1.3.95-.8q5.05-4.7 13.4-9.45 6.75-3.9 6.75-4.4l-.1-.7-.3-.15-9.6 4.65q-1.6 1.05-15.2 9.6-11.35 7.2-13.1 8.4-.6 1.4-1.15 7-.55 5.45-.5 7.8 1.5-10.55 1.65-11.75-.6 13.05.9 26.15 1.45 13.35 5.25 30.05 2.3 10.1 4.1 16.8 1.25 4.4 2.65 9.1l2.55 7.45-2.4 18.15q-.6 5.9-1.3 16.6-.55 9.35-.55 10.5 0 1.55 6.75 18.2 0 3.75-2.45 6.5-2.3 2.95-2.3 5.05 0 2.3 1.8 5.9 2.35 4.25 5.55 6.3-1.65 2-1.65 2.05 0 3.2 1.3 5.55 1.35 2.4 3.25 2.4 1.45 0 3.2-.3 2.2-.2 6.5-1.9 4-1.7 4.4-1.85 1.5-2.95 3.5-4.9 1.65-1.35 1.7-1.55-.7-1.05-1.2-1.25-.7-.45-2.4-.45-.95 0-2.8.2 1.15-4.5 7.75-8 6.65-2.7 7.3-3.05-.45-1-.45-1.05l-.85-.15q-.9-.05-1.45-.05-.8 0-2.95.35-2.3.4-3.8.85-2.2.6-5.55 2.8-1.45 1-7.5.6 3-4 8.3-6.95 3.7-2.15 3.7-4.85 0-.55-.15-1.35-.15-.75-.3-.9-.85.2-4.45.3-3.65.05-4.55-.15l4.6-5.75q1.45-2 1.45-3.25 0-4-4.3-7.8.1.65-2.9-2.5-2.9-3.1-3.55-4.9-.6-1.85-.2-14.95.45-13.1 2.7-16.15 9.7-1.95 5.3-7.2-4.3-5.3-9.35-10.9-5-5.65-5-9.5 0-7.15 4.75-13.4 3.05-4.2 3.25-4.4 1.5-2.35 1.5-4.55 0-.75-8.9-10.6-8.85-9.85-8.85-11.1 0-.4 2.65-3.15 2.6-2.7 2.6-4.65 0-.75-2.5-3.05-2.3-2.1-2.3-3.25 0-1.75 2.25-5.1 2.55-3.75 5.9-6.4 8.7-6.65 11.95-9.25 5.45-4.35 7.25-7.25m-27.5-16.5l.25-2.55q-8.15 1.2-18.7-2.3-5.4-1.7-10.2-3.95l-.2.75.4.5q2.65 1.7 11.15 4.75 11.6 4.2 17.3 2.8m6.35-.3l.25-2.75q-2.55.25-5.2.4l-.35 2.65 5.3-.3m1.15-2.9l-.15 2.85q4.35-.15 8.5-1.5 5.25-1.7 5.25-4.05 0-.55-.05-.65-.1 0-.3-.15l-.55-.05q-.7.05-1.15.65-2.25.9-11.55 2.9m13.2-36.65h-.15q-.85 0-1.85-.3-.9 0-2.35 1.05 1.3.8 2.05 1.95.25.35.75 1.25-.15.15-1.1 1.9-1 1-2.8 1.7-4.75 2.95-4.85 3 .3.4 1.8 1.9l-4.05.1q-.2.05-.5.2l-.15.05q-.7.15-5.4.8-4.8.55-5.45.55-.9 0-2-1.05-.9-.9-1.35-2.15-4.8.15-8.65.25h-1.45q-1.5-.1-2.95-.1-.2-.05-.4-.05-1.7 0-2.5-.95-.6-.75-.6-2.1 0-.55.5-2.15.6-1.75.85-2.45-2.3.15-5.5 0l-.2.05q.15.1.8.1-1.6 1.55-1.6 2.95 0 .7.3 2.15.3 1.4.5 1.85l-.4-.1q-1.45-.15-4.75-.85-5.05-1.05-9.95-2.55-3.6-1.2-3.55-2.35.2-.85.3-1.5.15-1.2-.15-2.45-6.65 6.3-9.55 25.6-1.5 9.7-1.65 18.8 0 2.95-2.85 13.95-3.05 11.65-3.3 15.6-.1.65-1.45 16.3-.75 10.3-1.15 12.35-2.75 20.7-5.35 38.9-1.15 9-1.15 15.6 0 5.05-3.45 17.6-3.45 12.6-3.45 23 0 .45.4 9.55.35 9.35-.15 11.7-.5 2.4-2.3 5.9-1.35 2.6-1.35 5.85 0 2.3 2.2 18.55l-4.1 6.5q3 6.1 3.1 6.4.65 1.05 2.2 1.55.75-.95 11.3-6.9.2-.05.5-.15 1-.35 2.75-.95.5-.15.85-.3-4.8-5.25-4.8-10.35 0-4.2 4.8-8.15 4.9-4.05 4.9-6.1 0-3.85-4.4-8.5-4.3-3.9-4.3-4.25 0-1.95 6.1-6.1 6.15-4.3 6.15-5.25 0-5.1-4.1-11.95-4.05-6.85-4.05-10.25 0-4.1 3.25-8.4 3.35-4.15 3.35-6 0-2.25-3.9-6.25-3.85-4.05-3.85-10.05 0-1.1 2-6.2 2.1-5.3 2.55-6.35.85-2.3.5-7.05-.5-4.6-.5-5.25 0-6.35 1.15-11.45.6-3.05.95-7.55-.2 1.45-.7 2.3 0 .05-1 1.55-.6.8-.75 1.75-.6 1.2-1.05 2.2-1.15 2.5-1.25 3.3-.6 5.1-1.8 10.9-4.7 21.55-5.35 26.5v.35q-.05-.2-.2-2.1-.05-1.65-.05-2.55 0-7.1 1.75-15.95 2.5-12.55 7.95-25.35.55-1.2 1.05-2.3l.55-2.15v-1.55-1.35-1.3q.1-6.8.4-11.6.05-1.7.2-3.1.35-4 1.25-9.55l.25-1.55q.45-5.5 1.25-9.5 0-.15.1-.25.05-.6.2-1.1v-.2q.05-.15.05-.2.6-2.7.8-4-.2-1.05-.2-1.8 0-2.15 4.8-7.05 4.9-4.9 4.9-11.15 0-.75-.5-1.7-.65-1.1-.95-1.75 3.35-1 6-2.15-1.3.25-2.95.3l-2.3-.35q4.45-.65 10.1-5.25 4.75-3.9 5.85-6.1 1.25-2.6 2.45-11.2l.25-1.05q-1.8-1.05-5.7-1.35l-.4-.3L85.5 252h3.2q-3 2.3-5.2 3.9-.7.75-.7 2.8 0 1.2.15 1l1.75.5q1.15-.85 7.55-2.3 1.25-.25 13.1-2.6h14.95q1.3.2 4 1.35 2.1.85 5.1 1 .35 0 .35-1.25 0-1.05-3.25-2.65-3.5-1.5-4-1.8l-.5-.35q3.85-2.15 4.7-2.55 1.2-.65 3.2-.55.2-.65 1.6-2.8.8-1.2 1.05-1.9v-.05l-.4-.8q-.05-.15-.15-.3-.05.35-.35 1.8-.8 1.25-4.05 1.75.5-1 .7-1.25.15-.3.6-1.45.05-.25.2-.55 0-1.15-.5-2-.492-.738-1.05-.75m-72 14.5q.45-1.1 1.7-2.7 1.7-1.8 2.7-3l.1.45q-.2 1.65-2.4 6.25-1.15 2.3-2.65 5.35-.7 1.8-1.25 3.45v-1.7q0-.5.75-3.95.8-3.4 1.05-4.15m-2.05 25.85q.35.85.5 1.45.85 3.85-.05 11.5-.1.3-.3 1.4-.2 1-.55 2.6-.2.75-.35 1.45.15-1.45.2-3.2.35-6 .55-15.2z"/><path fill="#666D74" d="M52.6 301.8q0-.35-.1-.7-.05 1.4-.2 2.45 0 .25-.05.5-.2 1.3-.8 4 0 .05-.05.2v.2q-.15.5-.2 1.1-.1.1-.1.25-.8 4-1.25 9.5l-.25 1.55q-.9 5.55-1.25 9.55-.15 1.4-.2 3.1-.3 4.8-.4 11.6v4.2l-.55 2.15q-.5 1.1-1.05 2.3-5.45 12.8-7.95 25.35-1.75 8.85-1.75 15.95 0 .9.05 2.55.15 1.9.2 2.1v-.35q.65-4.95 5.35-26.5 1.2-5.8 1.8-10.9.1-.8 1.25-3.3.45-1 1.05-2.2.15-.95.75-1.75 1-1.5 1-1.55.5-.85.7-2.3.4-1.6.3-3.95 0-.85-.05-1.7 0-13.7.35-15.45l.4-2.35q1.5-10.15 1.7-12.2.45-4.05 1.15-10.7l.15-2.7m27.2-47.7l-.1.7-.25 1.05q-1.2 8.6-2.45 11.2-1.1 2.2-5.85 6.1-5.65 4.6-10.1 5.25l2.3.35q1.65-.05 2.95-.3.45-.05.9-.2 2.25-.35 5.3-3.25 2.7-2.55 3.55-4.4 2.9-5.95 3-6.45.9-2.2 1.35-4.7.25-2.1.25-2.2-.1-1.2-.2-1.9-.05-.7-.05-.9-.2-.3-.35-.3-.1-.05-.25-.05m46.1 42.15l-.2-.25q-1.2.55-2.9 1.5-2.3 1.05-7.4 3.45-.5.3-17.2 8.6 3.3-.45 12.7-5 7.15-3.45 12.1-6.3l2.9-2m-5-4.65q-2.7 1.55-4.55 2.95-4.25 3.85-11.5 7.8-3.85 2.05-9 4.85-1.5 1-2.55 2.4-.3.35-1 1.5l2.35-1.7q1.75-1.2 13.1-8.4 13.6-8.55 15.2-9.6l3.1-2.1-.85.25q-1.35.25-4.3 2.05M63.3 400.45q.65-.8 1.3-2.15.6-1.05.6-1.25 0-1-.55-1.6-.05 1.45-3.25 4.7-2.9 2.95-4.6 3.85-2.65 2.05-4.55 4-1.45 1.5-1.7 2 1.5.05 7.1-4.4 5.15-4.2 5.65-5.15m77.3-4.7q2.35-4.4 1.75-6.5-.05.1-6.25 9.75-.5.65-4.3 6.75 3.4-2.75 5.6-5.25 1.15-1 3.2-4.75m-9.3-147.85q-1.85 2.35 2.35 11 2.95 6.3 4.75 8.6-3.85-7.95-4.4-9.5-1.7-4.25-2.7-10.1m-24.25 7.45q-.2 0-.2.95.05 3.45.5 11.4l-.25 9.8-.25 2.55q-.3 2.9-1.5 6.2-.95 2.8-1.65 3.9.85-.45 2.3-3.65 1.55-3.5 1.9-6.45l.35-2.65q.2-6.15-.4-12.95-.75-7.9-.75-8.25l-.05-.85m4.6.8l-.05.75 1.85 16.25V277l-.25 2.75q-.2 1.85-2.3 5.45-2.6 4.1-4.75 4.95l1.4-.45q3.75-1.25 5.55-5.5.95-2.25 1.1-4.5l.15-2.85q.05-1.7.05-3.55 0-6.9-.6-10.15-.95-3.45-1.45-7.45-.5 0-.7.45M54 282q-.15-.6-.5-1.45-.2 9.2-.55 15.2-.05 1.75-.2 3.2.15-.7.35-1.45.35-1.6.55-2.6.2-1.1.3-1.4.9-7.65.05-11.5m3.25-30q-1.25 1.6-1.7 2.7-.25.75-1.05 4.15-.75 3.45-.75 3.95v1.7q.55-1.65 1.25-3.45 1.5-3.05 2.65-5.35 2.2-4.6 2.4-6.25l-.1-.45q-1 1.2-2.7 3z"/><path fill="#D4D4D4" d="M110.6 242.1q-.65 0-2.35 1.4-2.7 1.45-8 1.8-.1.5-.15 2.95 0 2.3.05 2.9.45 1.25 1.35 2.15 1.1 1.05 2 1.05.65 0 5.45-.55 4.7-.65 5.4-.8l.15-.05q.3-.15.5-.2.5-.3.9-.6.3-.15.95-1.25.7-1.3 1-2.15l-.1-5.45q-2.1 0-7.15-1.2z"/><path fill="#82AFAF" d="M141.15 201.1l-.3.5.25 3.15q.2-.95.2-1.8l-.15-1.85m20.15-62.95v.8l.2.1q-.9-9.85-1.9-12.1-.9-2-2.75-3.95 1.55 2.25 2.85 6.4 1.6 5.3 1.6 8.75m-11.75-20.7q1.4.75 2.9 1.75-1.65-1.25-3.65-2.45-.5-.3-4.5-1.45 2.9.95 5.25 2.15m-145.6 66.5l-.7.55q-.45.4-.85 1.3-.35.85-.5 1.5.15.05 3.75.2 3.55.05 3.75.05 1.1-.05 2.2-.05 2.2-.15 2.3-.05l.4.1q-.15.25-1.65.25-1.7.05-2.9.35v.15q-3.4-.15-5.75 1.25-1.8 1.05-2.25 2.55l1 .45q4.8-.45 4.8-.5h1.3q-.65.15-4.4 1.2l.05.05q.1-.05 3.5 1.15l5.9 1.55.7-.1q2.4 0 4.3.1.6 0 1.15.05.25.05.55.05h.05q.15 0 .3.05h-.05q2.45.35 4.05.65 1.05.25 2.05.5.1.5.9.5.2 0 .65-.15 2.05.45 3.5.65h3.4q.75-.25 1.2-1.2.3-.75.3-1.5 0-2.75-6.35-5.05l-.3-.1q-1.25-1.1-1.9-1.55-.25-.35-2.35-2.8-2.9-.95-4.65-1.35-4.35-.95-9.2-.95l-8.25.15m-1.35-.75q.2.05.3 0l-.6-.15q.15.05.3.15m39.15-67.25q.2.35.2.5 10.35 3.4 13.9 8.8.65 1 2.4 4.75 1.45 2.95 3.15 4.95-3-2.6-4.05-4.9-.8-2.25-1.3-3.4-1.75-3.9-14.25-9.75-.35.05-8.5.1-7 0-10.4 2.1-5 3.1-6.75 5.2-1.85 2.35-1.85 6 0 2.1 2.65 5.8 2.55 3.6 2.55 5.65 0 .85-1.35 1.85-1.1.8-3.75 2.3 1.4 3.3 6.7 9.85-2.45-2.05-3.4-3.2-1.9-2.4-3.95-6.6l-.25.5.1.5q.7 2.4 2.6 10.7 2.1 7.65 4.4 8.85v.45q-.05.15-.6.15-2.1 0-4.55-6.1-2.2-5.5-3.85-13-.15.35-.25.5-.15.15-.15.7 0 .45.4 1.5.35 1 .35 1.4 0 .6-1.9 1.8-1.9 1.05-1.9 2.4 0 2.7 3.2 5.55 3.8 3.05 5 4.45-.5.5-6.5.3-6.2.55-8 4.9.35.35 4.8 2.55 3.75 1.8 3.75 3.15 0 1.1-1.9 1.6-3.7.95-6.65 2.55l-.45.2q1.5.3 1.9.5.45.2 1.15.85l-.05.3q13.95.1 19 1.2 1.7.35 2.6.9.7.5 1.15.7l-.7-.5q1.05.25 2.75.85 1.35.45 2.1.45-.55-.45-2.3-1.8-1.5-1.25-1.65-1.8 1.4-1.1 3.05-.95L20.6 181q.45-.15 1.8-.25 1.4-.2 2.05-.2 5.9.7 8.45 1.5l1.4-.1q-.05 0-.9-.6-1.1-.95-2.65-2.35-.55-.35-3.2-2-2.6-1.75-2.75-1.9.35-.3 2.35.55-2.9-2.2-2.9-4.05 0-.55.05-.55.3.05.7.05.3 0 4 3 3.95 3.25 4.75 3.7.7.35 2.55 1 2.2.6 3.4.6 1.75 0 5.45-7.3 3.25-6.6 3.25-7.55-.35-2.65-1.05-5.85-1.35-6.3-3.2-9.35-1.05-1.65-4.6-4.4-1.8-1.35-3.35-2.45 0-.5.25-.5-.6-.25-1.7-.5-1.65-.45-1.8-.45-.9 0-4.7 1-3.65.9-4.45.9-.55-.25-.75-.45.6-1.1 1.4-1.65 1.55-1 4.95-1 7.1 1.15 9.2 1.9-4.1-3.3-12.15-6.8 0-.35.05-.4.15-.25.7-.25 2.75 0 8.3 2.15 4.9 1.75 6.1 2.75l.8.8q-1.65-2.05-3.8-4.55-1.7-2-2.25-2.55l.1-.55q3.3.85 7.2 4.4 5.45 4.9 6.65 11.95.6-2.45.6-3.3-1.45-5.9-1.55-7.1.1-.1.35-.1.5 0 .25-.4-.2-.55-.1-.7l.25-.35q.2.75 1.95 3.75 1.7 3.4 2.15 7 .85 7.05 1.45 14.5.55 4.35 2.6 6.7 5.75 6.6 15.35 10.65 13.15 5.55 34.15 6.6l.5.15q0-.1.05 0 .1.05.1.55 0 1.3-7.85 2.85-9.3 1.85-20.85 1.85-6.05 0-9.95-.35-2-.25-4.25-.5.55.25 6.75 2.75 6.45 2.55 8.35 3.55-1.55.9-7.25 2.45-4.45 1.3-4.45 2.35.8 1.35 1.55 2.8 1.5 2.9 1.5 3.9 0 .95-.35 1.4-.7.9-3 1.4 0 1.5 2.05 8 1.1 3.35 2.2 6.85H73q.25-2 .6-2.8.4-.75 1.25-.85 0 1.85 1.55 6.55 1.3 3.95 2.85 7.5l.3.8.35.55.4-3.75q.1 0 .3-.2.15-.3.65-.3t1.7 2.5q.05.2 2.45 5.35.85-.7 2.85-3.55 1.65-2.25 3.4-2.9 1.45-.55 4.9-2.3 3.2-1.65 3.4-1.75.45.1.6.1.05.15.05.8 0 1.4-.8 2.3-.75 1-.75 1.85 0 1.55.75 3.15h5.75q4.25-1.15 6.45-2.2 1.3-.75 1.5-.8 1.4-1.85 2.25-3.75 1.7-3.6 1.7-10.2t-2.65-14.15q-2.8-7.55-2.8-12.1 0-.8 1.55-5.9 1.6-4.95 1.6-7.95 0-2.45-1.95-4.8-1.95-2.35-1.95-4.05 0-1.4 1.05-5.15 1-3.5 1-3.55 0-.85-2.4-4.15-2.5-3.15-2.5-3.6.7-2 1.5-4.1 1.4-4.35 1.4-6.1 0-.3-1.5-4.8-1.75-5.4-2.35-7.2-.6 1-1.1 1.85-.3.65-.3.95 0 .05.65 1.8.75 2.6.75 6.05 0 2.4-.2 4.6-.25 3.15-.75 1.2.95-2.45-3.7-9.85-4.45-7.3-4.1-7.8-3.05-1.6-12.55-3.1-2.2 0-4.05.75-2.05.85-15.05 6.4l-.3-.05q-.25-.25-.45-.5h-.6l-.2-1.8q-.5-.65-3.7-4.45-2.75-3.35-3.1-4.1-2.5-5.1-7.05-7.95-4.3-2.65-9.5-2.65-.5 0-.4.15M57.9 138.2q.3.25 4.7 5.9 5.05 6.45 10.7 11.65 9.9 8.85 29.15 13.15-.3.25-1.5.4-1.2.1-1.9.1-13 0-26.4-12.1-10.5-9.6-14.75-19.1m-36.65 21.7q.55 1.1.85 1.45l-.15.5-.25.15q-1.6-.8-1.8-1.25-.05.5-.4.95l-.3.2q-.7-.65-1.8-2.95-1.25-2.7-.9-3.8.15-.25.35-.5 3.25 3.55 4.4 5.25m57.35-52.6q-1.7-1.05-5.75-3.75-3.45-2.15-4.75-2.15-1.2 0-2.6 6.75-.9 4.6-1.35 8.1.7 4.25 1.7 9.8 1.15 6.65 1.05 9.1 9.85-4.1 10.5-4.35h.1l6.45-4.75q1.25-1.1 2.7-2.15 1.45-1.15 1.75-1.15.3 0 3.05 2.15 3.25 2.45 5.1 3.3l6.15 2.7q3.8 1.6 4.2 2.3l-.05-.65q-.5-.35-.5-.65.05-.35-.6-1.25-6.35-4.5-7.9-5.35-1-.6-11.8-9.35-1.1-1.35-7.45-8.65m29-8.4v.05q3.3 4.3 3.7 4.8.85 1.2.85 1.7 0 .1-.3 6.2-.5 6.3-1.4 7.15h-.05q-.75 3.75-3.35 13.3.5.3 2.05-.85.95-1.3 4.75-7.35 2.7-4.2 3-4.2 1.75 0 7.85 2.05 7.1 2.45 7.8 2.55-1.5-.75-5.95-5.6-4.35-4.8-4.75-6.35-3.15-4.4-3.6-4.95-.15-.15-.25-.3l-.05-.05-2-2.2q-2.5-2.8-3.95-4.55-1.4-1.3-2-1.3-.3 0-.35-.2v-.1q-.95.15-2 .2m2.95-.3q-.3 0-.55.05.65.45 1.35.95-.5-.6-.8-1M169 168.15q0 .2-.75.5-2.65 1.05-5.55 2.25-3.8 2.5-4.3 2.75l-1 .95q-2.75 3.25-4.35 4.8l1.1-.75q.9-.6 2.2-1.15l.95-.4q1.25-1.95 4.15-3.65 3.05-1.9 6.35-2.35-1.9.45-4.6 2-3.45 1.85-4.8 3.75 1.95-.2 2.55.25 1.75-1.6 4.25-3 3.25-2 5.15-2 .65 0 2.15.5 1.55.5 2.6 1.2-.5.25-2.3.35-3.5.3-4.65.45-3.3.4-6.45 2.4-2.95 2-3.75 4.25 1.5-.7 3.5-1.4 2.05-.8 2.75-.8.9-1.35 3.9-2.2 2.7-.75 5.65-.75 1.35 0 3.55.25 0 .15.95.75-.35.1-8.9.2-2.05.05-3.75.9-.75.45-1.4 1.35.3-.35 1-.35-.5.8-3.15 3.2l1.25.15q1.9-1.45 4.5-2.5 3.4-1.25 7.3-1.6 1.95-.5 3.75-1.15-.75-.8-1.65-3.55-.85-2.65-2.6-2.35-.25.35-.6.35-.1 0-.15-.1-.15 0-.3.1-.15.05-.15-.45 0-.3.15-.5-.25-1.1-.5-3.4-.6-6.25-2.85-11.9-1.7-5.5-3-8.25-2.1-4.25-6.35-6.9-.15.05-.4.05-.2 0-.4-.55-.1-.05-.15-.1-.05.25-.05-.25v-.2q-.2-.9-.4-2.45-.7-5.15-.75-5.4-.85-3.65-1.15-4.4-.9-2.5-2.9-4.45-2.75-2.7-5.3-3.95-2.7-1.35-8.6-2.8-4.65-1.15-9.8-2.75-7.3-2.25-9-2.75 2 2.75 3.1 5.2v.1q2.6 2.95 5.45 5.65 3.55 3.25 3.55 3.5 0 .6-.05.6l-.1-.15v-.15h-.05q-.7.8-1.9 1-1 .2-3.55.2-.7 0-4.85-.55-4.25-.55-5.3-.65-6.8 5.7-9.2 7.6-1 .75-1.7 1.4.2.45 2.8 4.6 1.85 2.95 1.85 7.75 0 .8-1.35 4.7-1.35 4.1-1.45 5.35 3.65 5.25 4.3 6.1.55.85.55 1.65 0 .4-.95 3.9-1.1 3.55-1.1 5.1 0 .15 2 3.2 1.9 2.95 1.9 5.6 0 3.25-1.55 8.2-.8 2.45-1.55 4.9 0 4.6 2.75 12.75 2.75 8.2 2.75 13.4 0 3.55-.95 8.2-1.5 6.8-4.35 9.5l-1 1.7q1.3-.15 3.75-1.5t2.5-1.35q.55.5 1.15 1.05 2.45-2.55 3.4-3.7 1.5-1.7 2.25-3.8 1.7-4.55 3.4-21.65.15.1.45.1.05 1.2.7 5.25.4 3.25.4 5.45 0 6.15-.75 9.3-.15.55-1.85 4.6.05-.1.9-1.85l2.35-4.7.45-.55q.55.7.55 3.85-.05 1.6-.2 3.8 1.9-2.55 4.45-9.65 3.15-8.7 2.05-12.6.1.05.25.15.2.2.35.75.05-.5.6-2.55.6-2.2.75-2.25.2-8.85-1.15-12.25-.65-1.8-4.2-5.9l1.35-1.65.35-.7q-3.25-.2-4.55-.65-.25-.4-.25-.75 8.8-1.65 13.2-7.2 4.75-6.1 5.6-18.55v-2q-.65-10.65-1.15-16.85-.65-3.3-.65-5.6h.2q.1-.25.25-.3.85.35 3.15 6.8-.6-8.35-.6-8.5 0-.8.15-1.5h.2q1 12.75 1 13 .25 1.85.4 2.3.1.25.15.25v-.65q0-2.4.15-4.7.3-5 1-6.2 1.25.7 1.25 4.25 0 1.75-.2 3.45 0 2.75-1.3 6.2-1.1 2.9-.9 4.15.1-.15.1-.05.95-2.2 2.15-3.25.15-.1.3-.15.35-.15.45-.1-.1.1-1 1.7-.8 1.45-1.55 2.65l.2 1.5q-1.8 8.65-1.8 10.55 0 1 .15 1.4.5 1.3 2.05 1.3 1 0 4.75-1.3 5.55-1.85 6.05-1.95h3.7q.05-.1.05 0 .05 0 .05.55m-21.95-30.85q0 3.9-1.8 10-2.1 7.65-5.1 8.95-.7-.1-.85-.65 2.05-2.7 2.2-3.05.65-1.5.95-2-.35.35-2.95 3-2.75 2.45-3.95 2.45l-.2-.1-.15-.6q1.2-1.05 3.35-3.95 2.55-3.65 3.8-6.8l4.1-10q.6 1.35.6 2.75z"/><path fill="#537070" d="M140.95 199.5q-.5 1.45-.3 2.45l.2-.35.3-.5-.2-1.6M41.2 116.65l.6.25q12.5 5.85 14.25 9.75.5 1.15 1.3 3.4 1.05 2.3 4.05 4.9-1.7-2-3.15-4.95-1.75-3.75-2.4-4.75-3.55-5.4-13.9-8.8-.15.15-.5.15-.15.05-.25.05z"/><path d="M152.45 190.7q-.25-.15-.3-.3-3.75 2.65-5.05 4.25-2.05 2.8-2.95 7.9h.55q.15-1.95 2.2-5.7 2.55-4.95 5.55-6.15m4.95-16.1l1-.95 1.7-1.75q-.6.35-2.9 2.25-2.65 1.85-4.65 1.85-1.55 0-1.55-1.2.1-.75.1-1.2.05-.55-.25-.85-.4 1.05-.4 2 0 2.05 1.05 2.05 3.35 0 5.9-2.2m-1.5-22.75q-.15.05-.3.15-1.2 1.05-2.15 3.25 0-.1-.1.05-.15.2-.35.8-.35.65-.65 1.7.2.3 1.45-1.7.75-1.2 1.55-2.65.9-1.6 1-1.7-.1-.05-.45.1m-48.55-17.75l.1.35q.6 1.8 2.35 7.2 1.5 4.5 1.5 4.8 0 1.75-1.4 6.1-.8 2.1-1.5 4.1 0 .45 2.5 3.6 2.4 3.3 2.4 4.15 0 .05-1 3.55-1.05 3.75-1.05 5.15 0 1.7 1.95 4.05 1.95 2.35 1.95 4.8 0 3-1.6 7.95-1.55 5.1-1.55 5.9 0 4.55 2.8 12.1 2.65 7.55 2.65 14.15 0 6.6-1.7 10.2-.85 1.9-2.25 3.75-.9 2.05-1.2 2.9-.1.45-.1.95l.1-.1.15.1.55-.85q2.85-2.7 4.35-9.5.95-4.65.95-8.2 0-5.2-2.75-13.4-2.75-8.15-2.75-12.75.75-2.45 1.55-4.9 1.55-4.95 1.55-8.2 0-2.65-1.9-5.6-2-3.05-2-3.2 0-1.55 1.1-5.1.95-3.5.95-3.9 0-.8-.55-1.65-.65-.85-4.3-6.1.1-1.25 1.45-5.35 1.35-3.9 1.35-4.7 0-4.8-1.85-7.75-2.6-4.15-2.8-4.6m44.45-.85h-.2q-.15.7-.15 1.5 0 .15.6 8.5 0 .8-.2 4.35-.25 4.15-.55 6.6-2.2-16.4-2.35-17.45h-.5q0 2.3.65 5.6.3 1.75 1.25 8.4v.45q-.1 0-.1 8v2q0 7.15-2.45 14.3-3.55 10.45-10.55 13.4 1.5 0 3.5-.75.75 5.95.85 6.45l-.45 2.95.95.5q.4-2.6.4-3.4 0-.15-.65-2.95-.55-2.85-.55-3.85l2.25-2.85q2.55-3.05 3.55-4.65 1.3-1.9 2.4-6.7.85-4.15.95-4.15.15 0 .9-11.85v-2.7q1.65-2.7 2.5-4.75 1.4-3.6 1.4-8.65-.15-.85-.15-1.5-.1 0-1.75 8.1v.65q-.05 0-.15-.25-.2 1.15-.4 2.35v-4.65q0-.25-1-13M34.45 182.6q-1.15-.35-1.55-.55-2.55-.8-8.45-1.5-.65 0-2.05.2-1.35.1-1.8.25l9.8 1.25q.35.1.65.1 1.25.25 7 2.4l.1-.25-.1-.2q-.9-.7-1.2-2.1-1.7-2.15-9.7-6.55-2-.85-2.35-.55.15.15 2.75 1.9 2.65 1.65 3.2 2 1.05.65 3.1 2.2 2.15 1.55 2.3 1.7l-.1.15q-.35 0-1.6-.45m-31.2 1.9l.7-.55 8.25-.15q4.85 0 9.2.95 1.75.4 4.65 1.35 1.5.7 4.35 2.4.05-.15-1.55-1.35-.85-.55-1.7-1.15-.45-.2-1.15-.7-.9-.55-2.6-.9-5.05-1.1-19-1.2-.5 0-3 .6-2.9.95-3.6 1.65l.05.05q4.95-.75 5.4-1m42.2-39.75q-1.5-1.5-2.3-2.05-.85-.65-1.6-.7 3.55 3.1 5.1 5.25 2.05 2.9 3.25 7.05-2-5.25-5.95-8.35-3.05-2.4-6.2-2.9 6.9 1.9 10.65 10.7 2.5 5.9 2.5 9.95 0 5.2-.8 7.85-1.2 4.3-5.4 7.75.1.25.25.25l.35.15q.7 0 1.5-.3 1.75-1.4 3.45-6.35 1.4-4.05 1.4-5.25.25-10.1.25-10.95 0-4.45-1.7-8.15-2-3.55-2.65-4.9-.15.25-.15.45t1.65 4.9q-.7-1.5-3.6-4.4m32.45 43.9q-1.4.05-7.5-1.15-6.9-1.4-8.5-1.65 2.45 1.25 5.6 2.1 6 1.7 16 1.7 10.45 0 15.9-1.7 2.9-1.5 3.95-1.85-8.35 1.95-10.55 2.25-4.4.55-14.9.3m-26.25-17.9v.15q.45 6.3 10.3 11.55 9.65 5.1 20.2 5.1.7 0 4.55-.2 3.95-.2 5.3-.35-6.6 0-16.35-1.5-8.95-1.4-11.55-2.55-2.15-.9-6.7-5.75-2.35-2.6-5.75-6.45M62.6 144.1q-4.4-5.65-4.7-5.9 4.25 9.5 14.75 19.1 13.4 12.1 26.4 12.1.7 0 1.9-.1 1.2-.15 1.5-.4-19.25-4.3-29.15-13.15-5.65-5.2-10.7-11.65m1-37.1q.2-1.95.2-2.4 0-.55-.05-.7-.1-.05-.15-.3-.5.8-.95 2.2-.5 1.85-.5 3.4 0 5.35 3.35 25.75l.2 1.8h.6q3.45 0 11.2-5.05.35-.2 10.95-7.75 5.55 3.85 11.5 6.45 5.35 2.3 6.95 3.15v-.35q-.4-.7-4.2-2.3l-6.15-2.7q-1.85-.85-5.1-3.3-2.75-2.15-3.05-2.15-.3 0-1.75 1.15-1.45 1.05-2.7 2.15-1.7 1.4-3.4 3.05-1.3 1.05-3.05 1.7h-.1q-.65.25-10.5 4.35.1-2.45-1.05-9.1-1-5.55-1.7-9.8v.25l-.7-4.8q-.1-2.25.15-4.7m8.55-51.6q.2-.25.45-.4l.05-.05q0-.1-.15-.15-.1-.1-.3-.15-2.05.75-2.95 4.6-.6 2.45-.6 5.35 0 2 .3 2.55.3.6 2.2 3.5.45.75 1.8 3.55.6 1.15 1.15 1.8-.6.95-1 2.85-.4 1.95-1.05 5.8-.9 3.25-1.85 6.5-3.1 1.5-5.2 5.6-2.4 4.65-7.7 6.65-8.3 3.1-16.9 9.6-1.45 1.05-2.9 2.25-3.7-.55-6.9-.55-12.2-.1-17.25 7-3.3 4.65-3.3 13.55 0 .05.3 2.4.05.25.1.45-2.75 3.55-6.7 11.45-5.15 10.3-5.15 15.2 0 3.3-.6 4.1-.5.6-.6 2.3-.05.55-.05 1.15v.1q.05 1.15.75 2.7.75 1.6.75 1.8 0 1.05-3.35 4.55-3.35 3.45-3.35 5.3 0 .65.8 1.3.75.6.75 1 0 .25-1.85 2.7t-1.85 3.2q0 .65.25.95.45.6 1.95.8-.5.95-.85 1.4-.05.1-.05 1 0 .1.65 1.8 1.15 1.65 3.55 1.65.85 0 1.15-.3l.2-.3v-.2q0-.65-1.4-1.1-1.4-.4-1.4-2.15.5-1.45.45-2.1 0-.2-.1-.35 8.75-2.45 10.05-2.8 3.75-1.05 4.4-1.2h-1.3q0 .05-4.8.5-2.5.35-5.75 1.55-2.25.9-3.15 1.5-.7-.4-2.15-.55.45-.85 2.2-3.15.85-1.1 1.1-2.1.05.1.1.25H.2q2.7-.8 4.1-1.15 2.4-.6 5.45-.75 1.2-.3 2.9-.35 1.5 0 1.65-.25l-.4-.1q-.1-.1-2.3.05-1.1 0-2.2.05-2.45.85-8.35.95-4.05.05-5.95.55V189q0-.6-.7-1.4-.75-.8-.75-1 0-.7 3.3-4.4Q.2 178.5.2 176.85q0-1.15-.75-2.05-.75-.95-.75-2.55 0-.9.9-2.85l.85-1.95Q0 165.2 0 164.7q0-3.2 5.7-15.3 3.85-7.8 5.1-10.25.35.8.9.8.15 0 .25-.05.05 2.95 1.65 10.3 1.5 6.65 2.9 11.2-1.75-7.85-2.9-14.05l-.1-.5.1.1-.1-.5-.2-1.3.45.8q2.05 4.2 3.95 6.6.95 1.15 3.4 3.2-5.3-6.55-6.7-9.85-1.8-4-2.1-6.2.2-.25.2-.45 0-.45-.2-1.1v-.05q-.1-.3-.25-.6-.5-1.15-.5-2.3 0-10.9 5.35-15.2 5.35-4.35 19.05-4.35.5 0 2.8.25l.05-.45q-.15-.05-.3-.05 1.55-.6 8.1-4.65 8.8-5.45 11.25-6.6 2.75-1.35 4.85-3.1 2.05-1.7 2.9-3.2 1.25-2.25 3.6-4.7.3-.25.55-.5-.35 1.1-.7 2.15l.3.05q.55-1.15 1.3-3.1l.2-.2q.4-.4.4-.45 0-.3-.1-.3l-.1-.05H71q0-.05.05-.05v-.05q0-.05.05-.15.9-2.7 2.05-6.65 1.5-5.15 2-7.2.35-.05.35-.6V76q-.1-.15-.15-.25v-.35q-.15-.35-.15-.4-.15.05-.25.1-.2-.3-.35-.6-1-1.55-1.95-3.25-2.85-5-2.85-6.7 0-3.1.4-4.95.45-2.45 1.65-3.85.15-.2.3-.35m46.45 21.35l-.3-.55v.05q-.1.15.3 1.3l.3.75-.15.35-1 1q.2.15.7.15.6-.5.7-.7.25-.3.25-.85l-.8-1.5M82.8 93.2q.15 1.7.8 3.75.7 2.15 1.1 3.4.45 1.55 2.4 6.3 2 4.75 2.6 5.5-2.45-6.05-3-7.75-.9-2.25-3.5-12-.25 0-.4.8m1.5-30.55q-.35 0-.45 2.2.1 3.8 3.55 7.2 1.9 1.95 2.05 3.3 0 .7-.25 2.05-.35 2.2.5 4.75.4 1.4 1.4 3.65.05 0 0-.4v-.35l-.8-4.75v-.15q-.55-5.3-.4-5.8.4-.15.7-2l-.15-.35q-.65.65-.9 1.35-.1-.3-3.2-4.2-2.85-4.3-2.05-6.5m32.8 8.15q-.05 0-.05.25t.35 1q.35.75.35 1.15 0 .15-.15.3-.05.15-.25.5-.15.2-1.15.5.05.1.15.2.05.05.25.05h.8q0-.05.05-.05.15-.1.25-.1.4-.2.5-.55.05-.05.05-.85 0-1.75-1.05-2.35l-.1-.05m2.3-6.45q.55.15 1.1-.6.65-.85.75-.95.05-1-.5-.3-.35.3-1 1.2-1 .35-2.15.65l.35.15 1.45-.15m-13.7 5.95q-.2 0-.7.15-.5.2-.95.75-.6.85-.6 2.15 0 .75.35 1.35.4.55.9.55 3.75-.05 4.35-.85-2.8.35-3.9 0-.95-.2-.95-1.05 0-.7.85-1.55.25-.15 1.3-.6 1.1-.5 1.25-.55l-.5-.2q-.75-.3-1.4-.15m-1-1.9l-.05-.3q-1.35 2-8.25 7.75-.7 0-.85.1-.15.1-.15.65 0 .95.5 3.55l.3-1.15.35-.75v-.1l.5-.75q.85 1.4 1.9 1.95 1.8 1.1 8.05 1.1.6 0 4.25-.3 3.55-.35 4.25-.5l.85-.2q.65-.35 1.4-1.05H117q-7.55.75-9.9.75-4.95 0-6.8-.55-1-.3-1.85-1.05l-.9-.75q1.35-1.2 2.6-2.3 2.55-2.3 3.35-3.45.15-.2.65-1.25.55-1.2.55-1.4m-1.9-6q-1 .75-1.3.9-1.45.6-2.95.25v.6q1.05.2 2.45-.45 1.15-.55 1.95-1.35l-.15.05m7.1 5.15q-.1-.3-.15-.5h-.1q-.1.2-.1.5v.5q0 1.45.4 2.8.35 1.2 1.05 1.8.75.7 1.8.7.7 0 1.25-.2l.45-.15q.35-.2.65-.45.7-.55.7-1 0-.05-.1-.1v-.25q-.25.25-.75.8-.65.65-1.45.8h-1.45q-1.2-.85-1.65-2.15-.15-.35-.2-.65-.15-1.55-.35-2.45m5.95-10.5h-.35q-1.45.2-2.3 1.55-.6 1.2-.6 2.7 0 1.25 1.75 5.15 1.4 3.2 1.7 4.9.05.45.05.7 0 .8-1.25 2-.05.05-.05.15-1.6 1.4-3.35 1.4-.8 0-1.35-.4-.3-.15-.7-.6l-.45.25q.3.5.65.75.2.25.45.35.6.45 1.45.45 2.5 0 4.15-1.9.1-.15.2-.4.35-.35.5-.7.5-.75.5-1.4 0-1.8-1.85-5.7-1.5-3.1-1.8-4.5v-.25q-.05-.2-.05-.4 0-.8.85-2.2.2-.5.5-.85.5-.45.75-.8.3-.2.6-.25m-44.4 4.3v-.75q.5-1.1 1.5-1.6.55-.35 1.15-.35 1.3 0 2.55 2.2.9 1.55 1.2 2.85l-.3.45q-2-.75-3.2-.4-1.2.3-1.2 1.65 0 .55.1.7h.25q.35-.85.5-1.1.3-.5.85-.5.8 0 2.15.1-1.3 1-1.3 1.45 0 .4 1.7 1.4 1.7 1.05 1.7 1.85 0 1.2-.25 1.7-.4.45-1 .45-.65 0-1.8-.95-.55-.5-1.05-1.05v.2q.15.8.65 1.4.75 1 1.95 1 1.7 0 2.15-1.25v-1.45q0-1.45-.5-1.95-.55-.5-2.85-.95v-.4l.85-1q.45.5.65.35 0-.15.3-.65.25-.5.25-1 0-3.4-3.75-5.1-1.4-.7-2.45-.35-1.15.35-1.15 1.85 0 1 .35 1.2m34.3 26.75v.7q5-.15 6.85-.9.9-.85 1.4-1l.2-.5-2.95 1.05q-3.35 1-5.5.65m72.5 89q-.95-.6-.95-.75-2.2-.25-3.55-.25-2.95 0-5.65.75-3 .85-3.9 2.2-1.35 1.35-2.55 2.8.55-.25 1.55-1.25.8-.75 1-1.05.65-.9 1.4-1.35 1.7-.85 3.75-.9 8.55-.1 8.9-.2m-5.75-4.5q-1.5-.5-2.15-.5-1.9 0-5.15 2-2.5 1.4-4.25 3-1.45 1.35-3 3.1l-1.25 1.55q-4.9 6.1-7.45 7.75l-4.2-1.45q.55 1.3 3.9 2.2 1.05 0 4.2-2.75 3.2-2.9 3.2-4.1 0-.45.55-1 .85-.85 1.05-1.15.8-2.25 3.75-4.25 3.15-2 6.45-2.4 1.15-.15 4.65-.45 1.8-.1 2.3-.35-1.05-.7-2.6-1.2m-9.3.5q2.7-1.55 4.6-2-3.3.45-6.35 2.35-2.9 1.7-4.15 3.65-.7.9-2.75 3.65-1.9 2.55-2.95 3.3 1.55-.45 4.25-3.8 2.45-3.25 2.55-3.4 1.35-1.9 4.8-3.75m-19.35 21q-.55 1.5-.55 1.85v.5l.2.15q1.5-4.3 1.7-4.85-.55.55-1.35 2.35m23.55-48.15q-2-3.65-4.75-6-.65-.6-1.15-.9l-.2-.1v-.8q0-3.45-1.6-8.75-1.3-4.15-2.85-6.4-.8-1.2-1.7-1.9-1.35-1.05-2.7-1.9-1.5-1-2.9-1.75-2.35-1.2-5.25-2.15-1.75-.55-3.65-1.05-4.4-1.45-9.55-2.75-6.1-1.55-9.55-1.9v.2q-1.35-1.75-3.05-3.6-3.6-4-7.15-6.6-.7-.5-1.35-.95.25-.05.55-.05 2.6-.4 4.55-1.2 3.8-1.55 3.8-4.05-.3-1.9-.3-2.3 0-1.95 1.75-5.8 1.75-3.95 1.85-5.7.05-.85.05-2.85-.05-1.85.05-2.9 0-.4.9-2.7.9-2.25.9-3.05 0-.9-.45-3.95-.45-2.95-.45-3.05 0-.25.7-1.75.25-.55.4-1.15.1-.3.15-.6.1-.6.1-1.2 0-.3-.05-.95l-.1-.8q-.3-2.25-1.1-6.8-1.35-8.05-2.4-11.05 0-.05-.05-.15h-.2q0-.05-.05 0-.05 0-.05.25v.25q.05.4.15 1.05.25 1.3.85 3.55.25.85.3 2.4.05 1.75.2 2.4.5 2.35 1.2 5.15.15.8.25 1.6.15 1.45.15 3v.65q-.15 1.4-.8 2.2-.8 1.05-.8 1.95.85 5.2.85 5.9 0 1-.8 2.9-.85 2.15-1 3.05-.1.65-.05 1.75 0 .55.05 1.25.15 2 0 3-.05.2-.1.5-.45 1.75-2.05 5.5-1.6 3.75-1.6 5.95 0 1 .15 2.45-.2 1.25-2.35 2.7-.7.5-6.2 1.35-.8.1-1.5.25-.1 0-.15.05h-.05q-3.95.3-6.3-.25-3.95-.85-4.9-3.85-11.25-4.95-13.4-7.85-.4-.6-1.15-3.9-.75-3.35-1.3-4.05-.15.25-.15.5.05.25.2 2.25.3 2.55 1.15 5.2.2.9 3.6 2.95 3.25 2.05 6.5 3.5 1.25.5 6.9 4.45 2.5 1.75 4.35 1.95.2.15.65.3.35.1.6.15l-1.4 2.5q-1.1 2.35-5.9 5.6-.2.15.65.15l1.2-.25.2-.05-.4 1.35q-.15 1.15-.1 6.05.35.2.65.25.3-3.1.3-3.95-.3-3.15-.3-3.75.35-.85 1.5-1.65 1-.7 1.1-.85.45-.8 2.45-3.75.75-1.05.9-1.65.95 0 1.9-.05.4 0 .85-.05 1.05-.05 2-.2v.1q.05.2.35.2.6 0 2 1.3.95.9 2.3 2.4 1.05 1.2 3.65 4.35l.05.05q.1.15.25.3.45.55 3.6 4.95.4 1.55 4.75 6.35 4.45 4.85 5.95 5.6-.7-.1-7.8-2.55-6.1-2.05-7.85-2.05-.3 0-3 4.2-3.8 6.05-4.75 7.35l-1.15 1.65.1.2q3.8-3.9 5.4-5.85 2.65-3.3 3.25-6.6 6.15 2.25 10.75 3.6 3.35.95 4.15.95l2.25-.1h.05v.15l.1.15q.05 0 .05-.6 0-.25-3.55-3.5-2.85-2.7-5.45-5.65v-.1q-1.1-2.45-3.1-5.2 1.7.5 9 2.75 5.15 1.6 9.8 2.75 5.9 1.45 8.6 2.8 2.55 1.25 5.3 3.95 2 1.95 2.9 4.45.3.75 1.15 4.4.05.25.75 5.4.2 1.55.4 2.45v.2q0 .5.05.25.05.05.15.1.2.55.4.55.25 0 .4-.05 4.25 2.65 6.35 6.9 1.3 2.75 3 8.25 2.25 5.65 2.85 11.9.25 2.3.5 3.4-.15.2-.15.5 0 .5.15.45.15-.1.3-.1.05.1.15.1.35 0 .6-.35 1.75-.3 2.6 2.35.9 2.75 1.65 3.55.25.25.5.25.5 0 .5-.15l.1-.5q-.85-2.95-1.4-3.85-1-2.2-3.1-2.6-.35-.05-.65-.1-.05-2.9-1.25-8.15t-2.35-8q-.5-1.3-1.95-4.15-1.3-2.65-1.85-4.1z"/><path fill="#AF886A" d="M98.75 106.95l-.2.05q-.2.85-.2 1.3l.4-1.35m6.1-7.95q-.15.6-.9 1.65-2 2.95-2.45 3.75-.1.15-1.1.85-1.15.8-1.5 1.65 0 .6.3 3.75 0 .85-.3 3.95-.3-.05-.65-.25 0 .95.3 2.3.25 1.85.85 2.8l.7-.95q.45-.55.5-.75.15-.25.15-.8 0-.85-.5-2.2-.5-1.2-.5-1.35 0-4.3 3.75-10.05 2.25-3.05 3.25-4.4-.95.05-1.9.05m3.35 3.9q-.3 2.2-.25 6.55 0 .7.15 8.65 0 .85-1.2 6.3-1.2 5.3-1.15 6.25.65.9.6 1.25 0 .3.5.65.05 0 .15-.15.05-.05.05-.3 2.6-9.55 3.35-13.3.1-.8.2-1.3.2-1.1.2-1.95-1.25-4.75-2.6-12.65M96.55 78.25l-.35.75q0 2.55.85 4.55 1 2.15 2.75 2.7l-1.85-4.9q-.7-1.05-1.4-3.1m22.2-5.95q-.15-.1-.15.5l1.15 2.65q.8 2.05 1.25 3.95.05-.3.1-.5.15-1 0-3-.05-.7-.05-1.25-.7-.95-1.9-2.3-.05 0-.4-.05M105 70.45q-.15 0-.3.05-.7.3-1.2.55-.8 1.15-3.35 3.45-1.25 1.1-2.6 2.3l.9.75q.65-.65 5-4.2 0-1.3.6-2.15.45-.55.95-.75m8.85-8.65l-.55.05q.55 1.3 1.05 1.85l.5.5q1.15.9 2.9.9.85 0 1.65-.75l-1.45.15-.35-.15q1.15-.3 2.15-.65-.5-.2-2.5-.35-.2-.05-.4-.05-.25-.1-.45-.15-1.4-.45-2.35-1.35h-.2m1.65-4.75h.35q-.3.05-.6.25-.25.35-.75.8-.3.35-.5.85-.85 1.4-.85 2.2 0 .2.05.4 0-.35.25-.75 0-.35.1-.65.25-.5.8-.85.3-.15.65-.3.75-.25 1.75-.25.6-.15 1.1-.15 1.4-.1 1.95.3.35.7.6.9.55.45 1.4 0 .15-.05.3-.2.05-.1.05-.6 0-2.6-4.9-2.6-.75 0-2.45.5l.75.05-.05.1M104.3 41.8l-.3-.1q.55-.9 1.55-1.95-.25.25-.9.85-1.2 1.05-1.45 1.35.25.4.65.6h6.45q4.5-1.35 6.4-2.05 2.95-1.1 4-2.35-.1-.65-.15-1.05-1.5 1.2-6.5 3.05-6.45 2.4-9.75 1.65m-8.65-4.95l.1-.4q-.55.3-4.65 1.8-4.35 1.5-6.6 1.5.5 2.95 1.65 6.7.55 1.85 1.05 3.35 0 .55-1.65 3.25-1.7 2.9-1.75 3.2-.2.5.2 3.55 0 .45-.15 1.55-.2 1.35-.25 2.15l-.1.05q-.15.15-.3.5-1.8-1.2-5.15-5.4-2-2.55-6.2-2.9-1.2 1.4-1.65 3.85-.4 1.85-.4 4.95 0 1.7 2.85 6.7.95 1.7 1.95 3.25 3.25 1.35 3.75 1.35.85 0 2.45-2l.15.35q-.05.05-.75 1.2-1.25 1.15-3.45 1.15-.45 0-.9-.25-.1-.1-.35-.3v.05q0 .55-.35.6-.5 2.05-2 7.2Q72 87.8 71.1 90.5q-.05.1-.05.15v.1l.1.05q.1 0 .1.3 0 .05-.4.45l-.45 2q-.1-.05-.3.2-.35.35-.35.95 0 1.4 2 4.05 3.65 4.45 6.85 8.55 6.35 7.3 7.45 8.65-2.9-4.65-4.05-8.35-1.1-3.55-1.1-7.95 0-.55.4-2.15.65-2.2 1-4.5 0 .25 1.3 3.95-.65-2.05-.8-3.75.15-.8.4-.8 2.6 9.75 3.5 12 .55 1.7 3 7.75-.6-.75-2.6-5.5-1.95-4.75-2.4-6.3 2.4 10.65 5.2 15.6 2.05 3.7 3.9 3.7h.4q-.05-.35.25-2.5.4-2.95.75-5-.2-2.35 0-4.2.45-3.55 2.65-4.05.7-.05 4.75-2.4L104 99q-.25-.05-.6-.15-.45-.15-.65-.3-1.85-.2-4.35-1.95-5.65-3.95-6.9-4.45-3.25-1.45-6.5-3.5-3.4-2.05-3.6-2.95-.85-2.65-1.15-5.2-.15-2-.2-2.25 0-.25.15-.5.55.7 1.3 4.05.75 3.3 1.15 3.9 2.15 2.9 13.4 7.85-.05-.35-4.95-8.5v.35q.05.4 0 .4-1-2.25-1.4-3.65-.85-2.55-.5-4.75.25-1.35.25-2.05-.15-1.35-2.05-3.3-3.45-3.4-3.55-7.2.1-2.2.45-2.2-.8 2.2 2.05 6.5 3.1 3.9 3.2 4.2.25-.7.9-1.35l.15.35q-.3 1.85-.7 2-.15.5.4 5.8v.15q.7-2.3 1.3-3.75.85-2.45 2.85-4.35-.45-.15-.95-.2-4.2-.95-4.75-2.35-.5-1.25-.5-2.85 0-.1.5-2.3.5-2.35.85-3.55 1.35.7 1.9 1.25.75.65 2.45 1.8.9.55 2.3.55 1.35-.05 2-.5-.3-.05-.75-.3.75 0 .9.3v.1q.05.35.15 0v-.6q-.35-.05-.95-.2-.6-.2-1.6-.65-.35-.15-.65-.2-1.5-.7-2.15-1.2L93 61q0-.05.65-.55T95 59.5q.05-.05.2-.1.3-.1 1.5-.4 1.35-.25 2.05-.35h.05q.85 0 2.1.5 1.1.6 1.7 1.15 1.45.55 1.95 2.85.6 2.25-1 4.15 1.3-.75 2.8-1.25.15 1.7 1.35 3.25 1.2 1.5 1.2 2.35 0 2.4-2.3 2.4-1.05 0-1.4-.55-.3-.5-.15-1.7-.85.85-.85 1.55 0 .85.95 1.05 1.1.35 3.9 0-.6.8-4.35.85.6.3 1.85.5.9.15 1.75.2.4.35 1.25.8.9.55 1.4.85-.05.2.05.35.85 0 2.85-.65 1.8-.55 2.75-1l.4 2.1h.75q-.75.7-1.4 1.05l-1.85 2.85q-.2 1.4-.35 1.6H114q0 .15-.05.3v.4q0 .85.05 1h.4q.75 0 1.6-1 1.35-1.45 2.45-4.8-.5 0-.7-.15l1-1-.15-1.1q-.4-1.15-.3-1.3v-.05l.3.55.2-.05q-.05-.4-.7-1.3-.25-.45-.4-.8-.1 0-.25.1-.05 0-.05.05h-.8q-.2 0-.25-.05-.1-.1-.15-.2 1-.3 1.15-.5.2-.35.25-.5.15-.15.15-.3-.85 0-1.4.2-.15.35-.5.7-.1.25-.2.4-1.65 1.9-4.15 1.9-.85 0-1.45-.45-.25-.1-.45-.35-.35-.25-.65-.75l.45-.25q.4.45.7.6.55.4 1.35.4 1.75 0 3.35-1.4 0-.1.05-.15 1.25-1.2 1.25-2 0-.25-.05-.7-.05-.05-.05-.15l-.25.25q.1.05.1.1 0 .45-.7 1-.3.25-.65.45l-.45.15q-.55.2-1.25.2-1.05 0-1.8-.7-.7-.6-1.05-1.8-.4-1.35-.4-2.8v-.5q-.1-.5-.1-1l.2.5h.1q.05.2.15.5-.35-3.65-.45-4.75-.75-2.5-3.7-4.15-1.45-.85-3.4-1.45-1.35-.15-5.85 0-4.15-.15-5-1.35-.85-.15-1.1-.3-.25-.15-1.1-.85.25-.5 1.3-.95Q87.35 44 86 40.3q2.1.45 5-.8 2.5-1.1 3.15-2.1l-.1.3q-.45.55-3.05 2.4l.3.4q4.2.25 5.05.25 4.65 0 9.7-1.5.1-.1.15-.2 1.35-1.35 1.7-1.8h-.2q-1.65.8-3.4 2.15-2.5.95-10.25.95-.85 0-2.25-.45l3.85-3.05M71.45 60.6v.75q-.35-.2-.35-1.2 0-1.5 1.15-1.85 1.05-.35 2.45.35 3.75 1.7 3.75 5.1 0 .5-.25 1-.3.5-.3.65-.2.15-.65-.35l-.85 1v.4q2.3.45 2.85.95.5.5.5 1.95v1.45q-.45 1.25-2.15 1.25-1.2 0-1.95-1-.5-.6-.65-1.4v-.2q.5.55 1.05 1.05 1.15.95 1.8.95.6 0 1-.45.25-.5.25-1.7 0-.8-1.7-1.85-1.7-1-1.7-1.4 0-.45 1.3-1.45-1.35-.1-2.15-.1-.55 0-.85.5-.15.25-.5 1.1h-.25q-.1-.15-.1-.7 0-1.35 1.2-1.65 1.2-.35 3.2.4l.3-.45q-.3-1.3-1.2-2.85-1.25-2.2-2.55-2.2-.6 0-1.15.35-1 .5-1.5 1.6m34.3 28.2v-.7q-2.8-1.2-3.45-1.2l-.15.35q.65 1.15 2.9 2.1 2.05.95 3.75.95 3.15 0 4.65-.7.9-.6.9-1.1 0-1.45-.35-1.6-.5.15-1.4 1-1.85.75-6.85.9z"/><path fill="#795F49" d="M80.95 74.2l-.15-.35q-1.6 2-2.45 2-.5 0-3.75-1.35.15.3.35.6.1-.05.25-.1 0 .05.15.4v.35q.05.1.15.25.25.2.35.3.45.25.9.25 2.2 0 3.45-1.15.7-1.15.75-1.2M98.4 64.05q-.15-.3-.9-.3.45.25.75.3h.15m4.1-7.1l-.15.25q1.95.6 3.4 1.45 2.95 1.65 3.7 4.15.1.4.2 1.05.15.5.3.5-.4-2.5-.65-3.25-.35-1-1-1.7-.75-.45-1.45-1.1-1.1-.55-4.35-1.35z"/><path fill="#C99D7A" d="M124.3 58.15q.2-.4.25-.55-.05 0-.1-.05-.05.3-.15.6m.1-3.55l.1.8q.05.3.15.65-.1-.55-.25-1.45m-8.05 24.85l-.85.2q-.15.35-.5 1.2-.15.6-.35.7l-.15.75 1.85-2.85m2.55-1.15l-.3-.75.15 1.1.15-.35M82.3 93q-.35 2.3-1 4.5-.4 1.6-.4 2.15 0 4.4 1.1 7.95 1.15 3.7 4.05 8.35 10.8 8.75 11.8 9.35 1.55.85 7.9 5.35-.05-.95 1.15-6.25 1.2-5.45 1.2-6.3-.15-7.95-.15-8.65-.05-4.35.25-6.55-.5-3.7-.6-3.95v-.05q-.45.05-.85.05-1 1.35-3.25 4.4-3.75 5.75-3.75 10.05 0 .15.5 1.35.5 1.35.5 2.2 0 .55-.15.8-.05.2-.5.75l-.7.95q-.6-.95-.85-2.8-.3-1.35-.3-2.3-.05-4.9.1-6.05 0-.45.2-1.3l-1.2.25q-.85 0-.65-.15 4.8-3.25 5.9-5.6-4.05 2.35-4.75 2.4-2.2.5-2.65 4.05-.2 1.85 0 4.2-.35 2.05-.75 5-.3 2.15-.25 2.5h-.4q-1.85 0-3.9-3.7-2.8-4.95-5.2-15.6-.4-1.25-1.1-3.4-1.3-3.7-1.3-3.95m16.15-15.45q.85.75 1.85 1.05 1.85.55 6.8.55 2.35 0 9.9-.75l-.4-2.1q-.95.45-2.75 1-2 .65-2.85.65-.1-.15-.05-.35-.5-.3-1.4-.85-.85-.45-1.25-.8-.85-.05-1.75-.2-1.25-.2-1.85-.5-.5 0-.9-.55-.35-.6-.35-1.35-4.35 3.55-5 4.2m11-11q0 .5.1 1 0-.3.1-.5l-.2-.5m-13.8-29.7l.4-.45-.3.05-.1.4m26.4 9.65q-.15-.65-.2-2.4-.05-1.55-.3-2.4-.6-2.25-.85-3.55-1.05 1.25-4 2.35-1.9.7-6.4 2.05h-6.45q-.4-.2-.65-.6.25-.3 1.45-1.35.65-.6.9-.85.35-.35.5-.35l.15-.2q-.05.05-.15.05-5.05 1.5-9.7 1.5-.85 0-5.05-.25l-.3-.4q2.6-1.85 3.05-2.4l.1-.3q-.65 1-3.15 2.1-2.9 1.25-5 .8 1.35 3.7 4.6 13.45 3.7-1.55 5.9-2.25 2.25-.65 5.6.5 3.4 1.15 3.65 1.7.4.55.45 1.3h.05l-.35.2q-.15.05-.7.05-.4 0-3.2-.5-2.7-.55-3.95-.5-1.2 0-3.35.85-2.05.85-3.2.75.85 1.2 5 1.35 4.5-.15 5.85 0l.15-.25q3.25.8 4.35 1.35.7.65 1.45 1.1.65.7 1 1.7.25.75.65 3.25-.15 0-.3-.5-.1-.65-.2-1.05.1 1.1.45 4.75.2.9.35 2.45.05.3.2.65.45 1.3 1.65 2.15h1.45q.8-.15 1.45-.8.5-.55.75-.8v.25l.25-.25q0 .1.05.15-.3-1.7-1.7-4.9-1.75-3.9-1.75-5.15 0-1.5.6-2.7.85-1.35 2.3-1.55l.05-.1-.75-.05q1.7-.5 2.45-.5 4.9 0 4.9 2.6 0 .5-.05.6-.15.15-.3.2-.85.45-1.4 0 .2.5.25 1.15l-.05.35-2 .15-4.55.35q.95.9 2.35 1.35.2.05.45.15.2 0 .4.05 2 .15 2.5.35.65-.9 1-1.2.55-.7.5.3-.1.1-.75.95-.55.75-1.1.6-.8.75-1.65.75-1.75 0-2.9-.9l-.5-.5q-.5-.55-1.05-1.85 0-.05-.1-.05.3 1.4 1.8 4.5 1.85 3.9 1.85 5.7 0 .65-.5 1.4.55-.2 1.4-.2 0-.4-.35-1.15-.35-.75-.35-1t.05-.25l.1.05q1.05.6 1.05 2.35 0 .8-.05.85-.1.35-.5.55.15.35.4.8.65.9.7 1.3l-.2.05.8 1.5q0 .55-.25.85-.1.2-.7.7-1.1 3.35-2.45 4.8-.85 1-1.6 1h-.4q-.05-.15-.05-1v-.4q-.5.5-1.35.75l-8.8.25q-1.95 0-3.75-1.65-1-.8-2.1-2.2l1.85 4.9q-1.75-.55-2.75-2.7-.85-2-.85-4.55l-.3 1.15q-.5-2.6-.5-3.55 0-.55.15-.65.15-.1.85-.1 6.9-5.75 8.25-7.75l.05.3q0 .2-.55 1.4-.5 1.05-.65 1.25.5-.25 1.2-.55.15-.05.3-.05.5-.15.7-.15.65-.15 1.4.15l.5.2q-.15.05-1.25.55-1.05.45-1.3.6-.15 1.2.15 1.7.35.55 1.4.55 2.3 0 2.3-2.4 0-.85-1.2-2.35-1.2-1.55-1.35-3.25-1.5.5-2.8 1.25 1.6-1.9 1-4.15-.5-2.3-1.95-2.85l.1.8q-.7.45-1.45.45-.95.1-1.6.15h-.55l-3.8-.05h-.5q-1.15-.1-1.6-.35.65.5 2.15 1.2.3.05.65.2 1 .45 1.6.65.6.15.95.2 1.5.35 2.95-.25.3-.15 1.3-.9l.15-.05q-.8.8-1.95 1.35-1.4.65-2.45.45-.1.35-.15 0v-.1h-.15q-.65.45-2 .5-1.4 0-2.3-.55-1.7-1.15-2.45-1.8-.55-.55-1.9-1.25-.35 1.2-.85 3.55-.5 2.2-.5 2.3 0 1.6.5 2.85.55 1.4 4.75 2.35.5.05.95.2-2 1.9-2.85 4.35Q91 78 90.3 80.3l.8 4.75q4.9 8.15 4.95 8.5.95 3 4.9 3.85 2.35.55 6.3.25h.05q.05-.05.15-.05.7-.15 1.5-.25 5.5-.85 6.2-1.35 2.15-1.45 2.35-2.7-.15-1.45-.15-2.45 0-2.2 1.6-5.95t2.05-5.5q-.45-1.9-1.25-3.95l-1.15-2.65q0-.6.15-.5.35.05.4.05 1.2 1.35 1.9 2.3-.05-1.1.05-1.75.15-.9 1-3.05.8-1.9.8-2.9 0-.7-.85-5.9 0-.9.8-1.95.65-.8.8-2.2-.35-.3-.8-.65-1.25-1.05-1.75-1.05-4.5 0-8 .55-.5.15-.65-.15-.15-.1-.65-1.2.35-.55 2.25-1.1 2-.5 5.75-1.3 2.4-.5 3.7 1.25-.1-.8-.25-1.6-.7-2.8-1.2-5.15M102.3 86.9q.65 0 3.45 1.2 2.15.35 5.5-.65l2.95-1.05-.2.5q.35.15.35 1.6 0 .5-.9 1.1-1.5.7-4.65.7-1.7 0-3.75-.95-2.25-.95-2.9-2.1l.15-.35z"/><path fill="#352A20" d="M124.55 57.6l.5-.7-.4-.85q-.1-.35-.15-.65.05.65.05.95 0 .6-.1 1.2.05.05.1.05M94.8 61.65h.5l3.8.05h.55q.15-.4.15-1 0-1.05-.7-1.8-.15-.15-.3-.25h-.05q-.7.1-2.05.35-1.2.3-1.5.4-.15.05-.2.1-.35.6-.35 1.2 0 .5.15.95m1.9-1.2l1.4-1.15.7.1.25 1.1-2.35-.05m9.05-6.75q-.25-.55-3.65-1.7-3.35-1.15-5.6-.5-2.2.7-5.9 2.25-1.05.45-1.3.95.85.7 1.1.85.25.15 1.1.3 1.15.1 3.2-.75 2.15-.85 3.35-.85 1.25-.05 3.95.5 2.8.5 3.2.5.55 0 .7-.05l.35-.2h-.05q-.05-.75-.45-1.3m7.8 6.45v.45q0 .7.3 1.2h.2l4.55-.35q.15-.45.15-.85v-.1q-.05-1.05-.8-1.75-.05-.1-.1-.15-.5 0-1.1.15-1 0-1.75.25-.35.15-.65.3-.55.35-.8.85m3.7-.85l.7.1.25 1.1-2.35-.05 1.4-1.15m-3.2-6q-1.9.55-2.25 1.1.5 1.1.65 1.2.15.3.65.15 3.5-.55 8-.55.5 0 1.75 1.05.45.35.8.65v-.65q0-1.55-.15-3-1.3-1.75-3.7-1.25-3.75.8-5.75 1.3m8.25-18.65q.65-1.3.65-1.5 0-3.5-4.05-6.05-6.45-4.15-22.15-4.8l-6.3-.15q-13.05 0-17.7 5.1-2.8 2.9-2.8 8.45 0 14.05 2.55 19.1.15.05.15.15l-.05.05q.05.1.15.25-.35.1-.6.15-.15.15-.3.35 4.2.35 6.2 2.9 3.35 4.2 5.15 5.4.15-.35.3-.5l.1-.05q.05-.8.25-2.15.15-1.1.15-1.55-.4-3.05-.2-3.55.05-.3 1.75-3.2 1.65-2.7 1.65-3.25-.5-1.5-1.05-3.35-1.15-3.75-1.65-6.7 2.25 0 6.6-1.5 4.1-1.5 4.65-1.8l.3-.05-.4.45-3.85 3.05q1.4.45 2.25.45 7.75 0 10.25-.95 1.75-1.35 3.4-2.15h.2q-.35.45-1.7 1.8-.05.1-.15.2.1 0 .15-.05l-.15.2q-.15 0-.5.35-1 1.05-1.55 1.95l.3.1q3.3.75 9.75-1.65 5-1.85 6.5-3.05v-.25q0-.25.05-.25.05-.05.05 0h.2q.05.1.05.15.7-.85 1.4-2.1z"/><path fill="#432121" d="M96.55 78.15v.1q.7 2.05 1.4 3.1 1.1 1.4 2.1 2.2 1.8 1.65 3.75 1.65l8.8-.25q.85-.25 1.35-.75.05-.15.05-.3h.15q.15-.2.35-1.6l.15-.75q-.8.35-1.7.6-2.7.35-9.4.35-1.05 0-3.1-1.15-2.5-1.25-3.9-3.2z"/><path fill="#FFF" d="M97.05 77.4l-.5.75q1.4 1.95 3.9 3.2 2.05 1.15 3.1 1.15 6.7 0 9.4-.35.9-.25 1.7-.6.2-.1.35-.7.35-.85.5-1.2-.7.15-4.25.5-3.65.3-4.25.3-6.25 0-8.05-1.1-1.05-.55-1.9-1.95M93.2 61.3q.45.25 1.6.35-.15-.45-.15-.95 0-.6.35-1.2-.7.45-1.35.95-.65.5-.65.55l.2.3m4.9-2l-1.4 1.15 2.35.05-.25-1.1-.7-.1m3.15 2.25q.75 0 1.45-.45l-.1-.8q-.6-.55-1.7-1.15-1.25-.5-2.1-.5.15.1.3.25.7.75.7 1.8 0 .6-.15 1 .65-.05 1.6-.15m16.6-2.95q.05.05.1.15.75.7.8 1.75v.1q0 .4-.15.85l2-.15.05-.35q-.05-.65-.25-1.15-.25-.2-.6-.9-.55-.4-1.95-.3m.1.8l-.7-.1-1.4 1.15 2.35.05-.25-1.1m-4.75 2.4q.1 0 .1.05l.55-.05q-.3-.5-.3-1.2v-.45q-.1.3-.1.65-.25.4-.25.75v.25z"/></g><g id="sis01_00_5_1f"><path fill="#3A2E25" d="M112.65 59.8q.2-.5.45-.85.7-.9 1.9-1.05 2.4-.35 5.05-.3l3.95.5q2.85 3-.15 7.15l-.85.35q-3.7 1.25-7.6.4-.6-.15-1.35-.4.15.4.25.65.35 0 .7.15 4.3.95 8.45-.4l.9-.4q3.25-4.65.15-7.9l-4.4-.6q-2.9-.05-5.55.3-1.35.2-2.1 1.2-.1.15-.2.35-.6-.85-2.3-1.05h-.05q-1.65-.15-3 1.15-.05-.6-.35-.75-.85-.55-2.2-.95-1.25-.45-5.6-.25-5.15.3-6.65.8-1 .3-1.3 1.9l-12.05.35 1 1.15h10.9q0 .4.1 1 .3 3.9 3.45 4.75 3.3.9 6.85.4 3.6-.55 4.3-.85.7-.35 1.4-4.05.3-1.45.3-2.45 1.3-1.2 2.85-1.05h.05q1.45.1 2 .75v.1q.3.2.4.75.1.45.25.85v-.2-.35-.2q0-.3.05-.6v-.35m-8.8-1.9q1.2.35 1.95.85.75.4.1 3.8-.55 3.35-1.2 3.65-.65.25-3.9.75-3.2.45-6.15-.35-2.85-.85-3.05-4.3-.05-.6-.05-1 .05-.9.1-1.55.3-1.15 1.1-1.35 1.35-.5 6-.7 3.9-.25 5.1.2z"/><path fill="url(#sis01_00_5_1a)" d="M105.8 58.75q-.75-.5-1.95-.85-1.2-.45-5.1-.2-4.65.2-6 .7-.8.2-1.1 1.35-.05.65-.1 1.55 0 .4.05 1 .2 3.45 3.05 4.3 2.95.8 6.15.35 3.25-.5 3.9-.75.65-.3 1.2-3.65.65-3.4-.1-3.8z"/><path fill="url(#sis01_00_5_1b)" d="M113.1 58.95q-.25.35-.45.85v.35q-.05.3-.05.6v.75q.1.8.25 1.45 0 .1.95 2.1.15.3.25.55.75.25 1.35.4 3.9.85 7.6-.4l.85-.35q3-4.15.15-7.15l-3.95-.5q-2.65-.05-5.05.3-1.2.15-1.9 1.05z"/></g><g id="sis01_00_5_1g"><path fill="#FC0" d="M71.8 41.15q1.1 0 2.4.05 1.3-.25 2.55-.4-2.7.1-4.95.35m-10.5 1.1l-.3.3.65.05q-.25-.15-.35-.35m7.65-.25q.394-.036.8-.1 1.2-.2 2.65-.4l-1.05.1.2-.4q-1.51.144-2.85.35.14.171.25.45m-1.6.3q-.031-.252-.1-.45-2.433.671-3.85.9h.45q.635 0 3.5-.45M64.1 31.55q-.05.05-.1.15.05-.05.15-.05-.05-.05-.05-.1m19.75 9.15q.7.05 1.35.2.75.15 1.55.3 1.95.45 4.45 1.05h.05q2.05.1 5.9.1-2.15-.25-4.75-.7-5.1-.85-8.55-.95m5.75-18q.65-2.3.65-3.5 0-4.2 1.8-6.05 1.55-1.6 4-.9 2.25.75 3.95 3.1 1.8 2.65 1.8 5.9 0 3.2-.45 4.55-.35 1.05-1.05 1.95 1.8-.5 3.8-.65-2.65-15-12.25-19.8-3.6-1.75-8.6-2.25-4-.2-6.15-.35-.45.55-1 .9-4.3 2.9-7.45 7.5-.45.65-.85 1.35.65 4.15 1.6 12.45 1.8 6.8 7.75 7.4.1-1.35.75-1.95.5.3 1.35 1.5 1 1.35 1 2.1 0 1.05-9.2 2.85-.35-.05-.8-.15-1.1-.2-1.3.2h.3q-.125.005-.35.05-.4.1-1.05.35-.95.4-1.45.4-.65 0-.95-.05-.65-.1-.85-.15 0-2.4-.05-3.65-.05-1.9-.35-3.85-.3.25-.85.7-.65.6-1.6 1.2-.65.6-.65 1.05 0 1.2.55 3.3.7 2.9.8 3.5v.15q.469-.043 4.75-.95v-.1q.148.034.25.05.648-.105 1.35-.25 3.55-.75 10.75-.85h6.75q1.15.15 6.5 1 4.55.7 9.4 1.1h2.85q-1.95-.25-3.35-.45-2.95-.5-4.4-1.35-.55-.3-.9-.75.45-.15.55-.2v-.05h.5q5.95-.35 18.55-2-.05-4.6-.1-5.3-1.35-.05-2.1-.1-.65-.05-1.05-.05-4.15.4-5.1.35l-.15-.7q.15-1.3.15-2.25-.15 1.15-.65 1.7-2.35.65-3.9 1.15.2.8.65 2.5.35 1.55.35 2.2 0 1.05-.25 1.25-.9-.4-1.6-1.3-.9.35-2.25.9-2.45 1.05-4.5 1.05-.7 0-1.55-.4-.8-.3-1.05-.65.2-.8 1.1-1.6.5-.45 1.5-1.3-1.3-2.05-1.3-3.2 0-.85 1.25-1.65h-3.9q-1.85-1.15-2.25-1.7-.35-.55-.35-1.85 0-1.15.65-3.4m-.55 8.35q-.1 7.75-.6 7.85l-.75-6.15-8.8.6-.25-.9q5.2-3.4 10.4-1.4m37.4-2.2q-.85.8-2.65 1.4-.205.066-.4.1-1.566.5-2.5.5l.5 1.5q.4 1.7.4 2.35 0 1.15-.75 1.4-.4-.4-1.05-2.55-.65-2-.65-2.45l.2-.6.35-.8.55-.45q1.26-.775 2.45-1.1-.684.18-2.95.7-3.2.65-3.55-3.05-.3-3.8-.5-7.7-.25-3.9-.7-4.95-1.3-3.25-5.5-7.05-3.45-3.1-5.3-4.85-3.15-.95-7-1.6 10.6 5.75 13.7 12.2 2.45 4.85 2.9 17.75.25.05 1.15-.4.85-.3 1.25-.05 1.35.75 1.05 7.75 3.576-.28 5.95-.8 1.875-.37 3-.9l.2-.1q-.05-.15-.1-.4v-.95q0-1.85.3-4.95-.2 0-.35.05z"/><path fill="#E0B300" d="M72.4 41.5l1.8-.3q-1.3-.05-2.4-.05-.15 0-.25.05l-.2.4 1.05-.1m-4.6-27.05q-1.85 3.15-2.65 6.25-.75 3-.75 7.45 0 .9.75 3.95 0 .4-.1.35l-.45.1q-.2-.3-.35-.6h-.05q.3 1.95.35 3.85.05 1.25.05 3.65.2.05.85.15.3.05.95.05.5 0 1.45-.4.65-.25 1.05-.35.225-.045.35-.05h-.3q.2-.4 1.3-.2.45.1.8.15 9.2-1.8 9.2-2.85 0-.75-1-2.1-.85-1.2-1.35-1.5-.65.6-.75 1.95-5.95-.6-7.75-7.4-.95-8.3-1.6-12.45M97.45 8.4Q90.1 1.45 82.7 1.45q-.65 0-2.05.6-.15.1-2.75 1.35-.35.7-.8 1.3 2.15.15 6.15.35 5 .5 8.6 2.25 9.6 4.8 12.25 19.8-2 .15-3.8.65-.75.15-1.4.4h-.1q-.5.15-.95.3-.05 0-.2.05-1.4.55-2.2 1.15-1.25.8-1.25 1.65 0 1.15 1.3 3.2-1 .85-1.5 1.3-.9.8-1.1 1.6.25.35 1.05.65.85.4 1.55.4 2.05 0 4.5-1.05 1.35-.55 2.25-.9.7.9 1.6 1.3.25-.2.25-1.25 0-.65-.35-2.2-.45-1.7-.65-2.5 1.55-.5 3.9-1.15.5-.55.65-1.7 0-.4-.05-.75-.15-1.4-.7-3.85-1.95-9-9.45-16z"/><path fill="#CCC" d="M83.85 40.7q-.7-.05-1.35-.05-3.1 0-5.75.15-1.25.15-2.55.4l-1.8.3q-1.45.2-2.65.4-.406.064-.8.1.389.904 1 3 .3.65.35 1.8.25 1 1.4 1.4 2.56-.805 11.05-3.6 2.85-.8 8.45-2.35-2.5-.6-4.45-1.05-.8-.15-1.55-.3-.65-.15-1.35-.2z"/><path fill="#FFDE5B" d="M133.6 35.55q.05.05.1.05-1.25-.75-2.55-1.25 1.1.45 2.45 1.2M90.25 19.2q0 1.2-.65 3.5-.65 2.25-.65 3.4 0 1.3.35 1.85.4.55 2.25 1.7h3.9q.8-.6 2.2-1.15.15-.05.2-.05.45-.15.95-.3h.1q.65-.25 1.4-.4.7-.9 1.05-1.95.45-1.35.45-4.55 0-3.25-1.8-5.9-1.7-2.35-3.95-3.1-2.45-.7-4 .9-1.8 1.85-1.8 6.05m-1.8 19.7q.5-.1.6-7.85-5.2-2-10.4 1.4l.25.9 8.8-.6.75 6.15m34.15-17.7q-.1-.3-1.05-3.8-.15-.6-.3-1.15-3-6.95-8-10.8-.1-.05-.15-.1-2.25-1.4-4-2.35-2.15-1-4.7-1.75 1.85 1.75 5.3 4.85 4.2 3.8 5.5 7.05.45 1.05.7 4.95.2 3.9.5 7.7.35 3.7 3.55 3.05 2.266-.52 2.95-.7-1.19.325-2.45 1.1l-.55.45-.35.8 1.35.35q.934 0 2.5-.5.195-.034.4-.1 1.8-.6 2.65-1.4-1.25.1-1.6.1-.97 0-1.45-1.25-.288-.72-.4-1.9-.05-3.6-.4-4.6M97.4-.35q-.95-.3-2-.55h-7.1q-6.05.25-8.55 1.55-1.05 1.45-1.65 2.2-.1.25-.2.55 2.6-1.25 2.75-1.35 1.4-.6 2.05-.6 7.4 0 14.75 6.95 7.5 7 9.45 16 .55 2.45.7 3.85.05.35.05.75 0 .95-.15 2.25l.15.7q.95.05 5.1-.35.4 0 1.05.05.75.05 2.1.1.05.7.1 5.3-12.6 1.65-18.55 2h-.5v.05q-.1.05-.55.2.35.45.9.75 1.45.85 4.4 1.35 1.4.2 3.35.45h8.25q.3-.15 2.9-.3h1.8q2.81-.225 5.4-.55 2.017-.244 3.9-.55 6.35-1.1 8.4-2.15-1.3-.6-4.55-2.05-2.15-.95-3.2-1.55-.25.9-.7.9-.45 0-.65-.5l-.2.1q-1.125.53-3 .9-2.374.52-5.95.8.3-7-1.05-7.75-.4-.25-1.25.05-.9.45-1.15.4-.45-12.9-2.9-17.75Q108 5.4 97.4-.35z"/><path d="M95.95-2q0 .05-7.5.05-7.8.2-10.05 2.25-.7.65-1.25 1.85-.6 1.3-1 1.75-1.1 1.2-4.05 3.5-2.5 2-3.6 3.55-3.35 5-4.3 7.65-.85 2.5-.85 7 0 2.4.15 3.5.15 1.35.6 2.45 0 .05.05.1-.1 0-.15.05-2.2 1.25-2.85 1.6-1.05.65-1.05 2.1 0 2.25.7 3.8.2.5.2 2.15.05.55.3.9.1.2.35.35.25.2.7.2.4 0 1.05-.05 1.417-.229 3.85-.9.069.198.1.45.14.382.3.95.5 1.75.75 2.25.1.3.25 2.15.5 1.7 2.25 1.7.85 0 .85-.6l-.05-.55q-1.15-.4-1.4-1.4-.05-1.15-.35-1.8-.611-2.096-1-3-.11-.279-.25-.45 1.34-.206 2.85-.35.1-.05.25-.05 2.25-.25 4.95-.35 2.65-.15 5.75-.15.65 0 1.35.05 3.45.1 8.55.95 2.6.45 4.75.7 3.05.4 5.1.45l18.55-.3q1.283-.176 2.6-.35 5.048-.676 10.6-1.35 3.95-.7 3.95-2.25 0-.7-4.25-2.95-.05 0-.1-.05-1.35-.75-2.45-1.2-1.85-.9-2.95-1.1.15-1.7.1-4.6.15-.4 0-.75-.3-.75-1.75-.75l-1.55.05q-.122-4.358-1.6-9.1-.947-3.018-2.45-6.2-1.45-2.95-2.05-3.8-1.65-2.2-4.8-3.75-4.05-2.5-6.75-3.75-4.85-2.2-11.4-2.6M95.4-.9h.55q6.45.55 11 2.75.95.5 2.15 1.15 1.75.95 4 2.35.05.05.15.1l.2.1q3.45 1.65 4.8 4.05.75 1.35 1.65 3.75.8 1.25 1.35 2.9.15.55.3 1.15.95 3.5 1.05 3.8.35 1 .4 4.6.112 1.18.4 1.9.48 1.25 1.45 1.25.35 0 1.6-.1.15-.05.35-.05-.3 3.1-.3 4.95v.95q.05.25.1.4.2.5.65.5t.7-.9q1.05.6 3.2 1.55 3.25 1.45 4.55 2.05.7.3.85.4-.6.45-6.95 1.5-3.953.621-6.2.95-1.732.291-2.45.4h-4.75q-2.6.15-2.9.3h-11.1q-4.85-.4-9.4-1.1-5.35-.85-6.5-1h-6.75q-7.2.1-10.75.85-.702.145-1.35.25-.102-.016-.25-.05v.1q-4.281.907-4.75.95v-.15q-.1-.6-.8-3.5-.55-2.1-.55-3.3 0-.45.65-1.05.3-.35.85-.7.4-.3.75-.5.55-.45.85-.7h.05q.15.3.35.6l.45-.1q.1.05.1-.35-.75-3.05-.75-3.95 0-4.45.75-7.45.8-3.1 2.65-6.25.4-.7.85-1.35 3.15-4.6 7.45-7.5.55-.35 1-.9.45-.6.8-1.3.1-.3.2-.55.2-.55.3-1.15.45-.6 1.35-1.05 2.5-1.3 8.55-1.55h7.1z"/><path fill="#D2A800" d="M120.9 30.85l-1.35-.35-.2.6q0 .45.65 2.45.65 2.15 1.05 2.55.75-.25.75-1.4 0-.65-.4-2.35l-.5-1.5z"/></g><g id="sis01_00_5_1h"><path fill="#AF886A" d="M-3.2 200.6q.1-.15.25-.25-.1 0-.2.05-.05.1-.05.2m24.55 30.6q-.35.1-.65.2-1.9.7-3.65 1.25 1.35-.3 4.3-1.45M5.6 235.05q1.2 0 3-.3-1.4.15-2.55.15-1.95 0-3.5-.5 1.4.65 3.05.65m72.4-51.5l-.5-.1q3 1.9 3 5.7 0 .6-.35 1.45.35-.55.45-1.1.3-1.55-.2-2.75-.5-1.25-2.4-3.2m-42.35 12.5h-.05l.05.05v-.05m198.4-11.9q-.1-.15-.15-.35.2-.05.35.05.2-.1.55-.2 1-.3 1.45-.5.15-.05.25-.1 0-.9-.15-1.45-.4-2.35-4.3-2.9 0-.35.55-1.05l.2-.2q-.8-.15-1.5-.25-3.2-.55-4.8-.2-2 .4-2.6 2.65l-.35 1.15q.25.55.4 1.6l.05-.25q.85.3 3.25.15 1-.1 2.9.5 1.6.45 3.9 1.35m6-6.1h.05l.05-.2q-.2.2-.6.4l-.2.1q.3-.05.55-.1.1-.05.15-.2m-21.15 7.3q-.25.95-.1 1.4.2.55.7 1.05-.05 0-.2.1-1.25.7-1.65 2.25-.25.8-.2 1.1.05.65.9 1.25l5.35 1.75q-.05.05-.05.15l.2.1.25.7q-.75 1.6-1.75 3.65 1-.4 2.7-1.05 2.1-1 3.4-1.9.45-.35 1.75-2.25 1.4-2 1.4-2.55-.3-.9-.3-1.3v-.25q0-.1.2-.1.15 0 .2.2.05.25.15.3.15-.3 1.5-2.25.6-.85.85-1.45v-.1q.1-.4.15-.75 0-.2-.2-.95-.15 0-.25-.05-2.45-.65-4.1-1-1.8-.35-2.75-.4l-1.75-.05-1.35-.55q-.1-.55-.75-.35-3.6.85-4.3 3.3m10.15 6.15q-.15-.8-.35-1.1-1.15-.35-2.5-.7t-2.95-.7q-2.5-.5-2.9-.8.7.2 4.35.65.05-.1 1.8.35.95.2 2.45.6.5.8.65 1.2.2.45.3 1.45-.05.15-.4.15-.3-.3-.45-1.1m6.1-18.9l-.05-.15h-.05q-1.3-.1-2.1.3-.95.45-1.3 1.45-.85 2.3 0 2.6.05 0 .1.05.75.2 1.05.6 0-.05.05-.1.3-.05.55-.1h.05q3.25.95 4.55 1.45.15-.2.45-.35.95-.35 1.35-.65.2-.2.25-1.45-.8-.25-2.1-.55-3.65-.75-4.45-1.75.3-.65 1.65-1.35m-174.1 20.9l-.05-.05-.05.05q.05-.048.1 0m-1.15-5.75q0 .75.05.35-.15-1.8 1.1-.25 1.25 1.5 1.25 2.35 0 .4-.65 1.35-.65.95-.65 1.2v.15l.55.1.35.05q.65.15 1.35.25.05.05.15.1.3.2.65.85 0-.05.05-.1l.25.05v.65q0 .05.05.05l8.75 1.75.1.05q.05.05 0 .5-.15.75-.25.35l-4.2-.65q-1.1-.35-2.55-.7-1-.25-2.1-.5-.1.25-.25.3l-.85-2-.8-.2-.85-.25q.55.35 1.1 2.1.65 2.25-4.45 4.05.2.9-1.35 3.5-1.85 3.25-4.8 4.3-1.4.45-3 .45-1.95 0-2.6-.2-.2-.1-.3-.2-.25-.4-.8-.4-.15 0-1.65 1.3-1.9 1.25-3.9 1.25-.2 0-.95-.05-.4-.05-.5.05l-.05.5q0 .25.2.45l.85.05q-3.25 2.7-11.85 8.3-13.7 8.9-19.25 8.9-4.25 0-7.25-11.1-2.15-8.05-2.15-11.75 0-.5 1.25-5.5l-.45-.05h-.15l-.3.3q-.35.35-2.45 3.1 0 .5-.35 6.2l.4 5.5q.4 5.45.4 7.2.15 7.35 3.1 10.05 2.25 2 7.25 2 3.3 0 12.9-3.55 9.9-3.65 13.45-6.4.6-.45 1.2-1 .9-.95 2-2.05.15-.15.35-.3l.1-.15q2.05-2.3 4.2-5.35 3.4-4.95 3.85-4.95.2 0 .45.15v.25q.2 0 .5.05l4.6-.05q.2 0 .4.05 0-.1.05-.15l.15.15q.65-.05 1.35-.2 1.4-.35 2.7-.95 2.15-1.05 4.55-3.05 1.35-1.15 2.35-1.95l.75-.75q1.1-1.1 1.9-1.4.5-.4.6-.4.3 0 1.3.55 1.4.5 3.35.5 2.2 0 3.15-1 .25-.4.45-.9.15-1.1.15-1.15 0-.7-.15-1.1-.2-.45-.2-.75v-.1-.1q.05-.8.45-.15.3.05.45.05 1.15 0 1.7-1.8.3-1.8.3-1.85-.2-1.05-.25-1.55-.15-.15-.15-.3v-.15q-1.2-.65-1.95-1.75l-12.1-2.2q-.05 0-.2-.1l-.05.05q-.6.25-.5-.5.05-.35.4-.45.15-.05.25-.15-2.3-1.1-2.3.8m-46.65 43.4q1.3-1.75 6.6-5.55 2.85-2 5.55-3.75-7.95 6.9-12.15 9.3m45.3-49.2q.2.15 1.15.85.1.1.25.2.55.15 1 .35.75.3 1.2.8.15.15.3.35.3.45.45 1 0 .15.05.35v.7q-.05.05-.05.1l-.1.75q.1.1.25.2L75 189.7q.35.4 1.1 1.05l.3.4q.2.25.3.5.15 0 .8.15 1.05 0 1.7-1.3.4-1.3.4-1.35 0-2.75-2.2-4.35-3.2-2.4-11.2-2.75l-.05-.25v-.1h.1q.05-.05.25-.1h.2q.55-.2 1.3-.4 1.5-.35 2.75-.45 1.75-.35 2.6-.35 1.15 0 4.2 1.2 3.1 1.2 4.05 1.2.9 0 1.65-.7.6-.6.6-.9-1.4.1-3.95.05-1.15-.45-1.7-1.25-.75-1.2-.9-1.3-1.7-1.5-9.75-1.55-3.95.85-5 1.25-.8.25-1.35.65-.45.3-.7.65.2.1.35.2 1 .55 1.4 1.1h.05q.6.1 1.1.2h.15q2.4.45 2.6.7l-.35.25-3.6-.55q-1.5-.25-1.4-.75l.7.1q-.05-.05-.1-.05-.5-.1-.9-.15-1.75-.2-1.95 1.2m-31.8 11.7q.7.35 1.5.8 3.4 2 4.5 2.5l.5-.2q-.85-1.3-6.5-3.1z"/><path fill="#E7E7E7" d="M209.6 224.05q.95-2.35 1.95-4.7-2.2 4.7-3.45 8.65.75-2 1.5-3.95M51 211.15q-.05.1-.05.25.05-.15.15-.25H51m184.05-38.7h.05q.5 0 1.05.1.05-.05.15-.05 1.45-2.4 2.95-4.7v-.05q.85-1.65 2.15-3.9-5.35 1.85-11.2 5.15-8.9 5-24.6 17.2-16.75 12.9-23.75 17.15-12.85 7.8-22.45 7.8-8.5 0-22.05-9-15.4-11.15-23.1-15.5Q101 179.25 93 171.1q-8.2-8.4-8.2-14.9.65-4.7.45-6.35-.3-2.7-4.35-2.7-2.9 0-5.1.9-.05 0-.05.05-4.2 8.55-8.8 17.55-1.8 4.15-3.55 8.2 1.65-.45 3.35-.85h2.75q1.35-.5 6.25 1.4.3.05.7.15 3.3.9 4.5 1.8.6.45 1.75 1.75.75.7 1.1 1.4.85 1.2.85 1.7 0 .55-.75 1.4-.95 1.05-2.25 1.05-1.2 0-4.4-1.3-3.2-1.35-4-1.35-1.25 0-3.5.4-.45.1-.85.15h.1q5.6.1 8.5 1.9l.5.1q1.9 1.95 2.4 3.2.5 1.2.2 2.75-.1.55-.45 1.1l-.25.5q-.85 1.65-2.4 1.65h-.05q.05.45.05 1.3 0 .85-.5 2.35-.7 2-1.7 2h-.65q.25.7.25 1.35 0 1.6-.35 2.2l-1.65 1.55-.75.15q-.8-.05-1.45-.05-.4.05-.85.05h-.25q.35.1.4.1h-.6q-1.45-.1-2.5-.55-1-.6-1.3-.6-.5 0-2.6 2.1-2.55 2.5-2.95 2.8-2.3 1.55-3.2 2-1.9.9-4.95 1.5.15.35.15.8 0 .85-3.25 19.75-3.55 20.55-4.75 30l4.5-.15v-.25H68.1q22.4 1.45 55.55 6.05 22.85 3.2 58.2 3.2h.35q7.7 0 9.6-2.15 0-.05.05-.1 0-.05.85-1.6.15-.35.5-.5.8-5.75 5.25-17.55 5.85-14.6 6.7-17.2 2.05-6.35 9.6-21.85 6.95-14.3 6.95-14.5 0-.7.1-.75l.1.1h1q.4 0 .75.1 0-.1.05-.15l-5.35-1.75q-.85-.6-.9-1.25-.05-.3.2-1.1.4-1.55 1.65-2.25.15-.1.2-.1-.5-.5-.7-1.05-.15-.45.1-1.4.7-2.45 4.3-3.3.65-.2.75.35-.15-1.05-.4-1.6l.35-1.15q.6-2.25 2.6-2.65 1.6-.35 4.8.2.7.1 1.5.25-.3-.4-1.05-.6-.05-.05-.1-.05-.85-.3 0-2.6.35-1 1.3-1.45.8-.4 2.1-.3M65.2 202.25q-.8.3-1.9 1.4l-.75.75q1.8-1.55 2.65-2.15m8.4-.35q.2-.2.35-.5.05-.25.1-.4-.2.5-.45.9M68 181.2q-.75.2-1.3.4 2.4-.6 4.05-.85-1.25.1-2.75.45z"/><path fill="#C99D7A" d="M82.7 178.1q.15.2.35.45.45.5.75.95-.35-.7-1.1-1.4M69.5 173h.4q2.1.5 5.85 1.4-4.9-1.9-6.25-1.4m163.8 4.85q-.1-.05-.15-.1-.25-.2-.3-.4-.05.05-.05.1l-.2.2q-.55.7-.55 1.05 3.9.55 4.3 2.9.15.55.15 1.45.8-.5.95-1.15.35-1.35.4-1.65.05-.15.05-.8-.15-.4-.5-.55-.1-.05-.15-.05l-3.95-1m1.8-5.4l.05.15q-1.35.7-1.65 1.35.8 1 4.45 1.75 1.3.3 2.1.55v-.35q0-1.65-.7-1.95-1.35-.65-1.65-.7-.85-.15-1.15-.2-.55-.1-.55-.3 0-.15.15-.2-.55-.1-1.05-.1M62.8 187.4l-.05.15.3.05q-.15-.1-.25-.2m-55.45 7.25q-1.7.8-3.35 1.8-2.75 1.65-4.5 3.05l.45.05q-1.25 5-1.25 5.5 0 3.7 2.15 11.75 3 11.1 7.25 11.1 5.55 0 19.25-8.9 8.6-5.6 11.85-8.3l-.85-.05q-.2-.2-.2-.45l.05-.5q.1-.1.5-.05.75.05.95.05 2 0 3.9-1.25 1.5-1.3 1.65-1.3.55 0 .8.4.1.1.3.2.65.2 2.6.2 1.6 0 3-.45 2.95-1.05 4.8-4.3 1.55-2.6 1.35-3.5 5.1-1.8 4.45-4.05-.55-1.75-1.1-2.1l-.35-.05q-.05-.048-.1 0l.05-.05q-.1 0-.2-.05-1.85-.5-2.05-.6l.05-.25 2.75.45-.55-.1v-.15q0-.25.65-1.2t.65-1.35q0-.85-1.25-2.35-1.25-1.55-1.1.25-.05.4-.05-.35 0-1.9 2.3-.8.05-.1.1-.25v-.1q.1-.65-.95-2-.1-.1-.15-.2-.75-.95-1.4-1.45.05 0 .15.05-.15-.1-.25-.2-.95-.7-1.15-.85.2-1.4 1.95-1.2.4.05.9.15.05 0 .1.05l.75.05q-.4-.55-1.4-1.1-.15-.1-.35-.2.25-.35.7-.65.55-.4 1.35-.65 1.05-.4 5-1.25 8.05.05 9.75 1.55.15.1.9 1.3.55.8 1.7 1.25 2.55.05 3.95-.05 0-.6-1.65-2.35-1.35-1.5-1.95-1.95-1.4-.95-4.4-1.65-3.8-.75-6.05-1.3h-3.05q-3.05.55-3.9.8-.2.05-3.2 1.15-1.2.4-2.2 1.45-.55.55-1.35 1.55-1.15 1.2-3.45 3-2.8 2.2-3.65 3-1.35 1.2-3.3 3.2-1.8 1.9-3 2.9-1.3 1.05-4 3-.85.65-2.7 2.95h-.15q-.15.9-9.6 3.1-4.85 1.15-10.3 2.3-3.65 1.1-5 1.55-2.15.65-4.4 1.7-1.35.65-2 2.15-.2.45-.35.8.45.1.95.1 8.9 0 14.45-2.7 2-.95 7.5-5.25-4.85 4.35-6.75 5.45-5.5 3.25-13.05 3.25-2.1 0-3.5-.2-.35.45-.65.7-.6-.5-.6-.7v-.25q-2-.55-2-2 0-.4.15-1 1 1.35 1.9 1.95l.2.1q1.1-2.9 7.9-5.05-1.05-.2-2.65-.55l-.05-.45h.95q1.3-.15 2.65.2.45.15.8.3l1-.3q3.1-.8 10-2.4 5.75-1.4 9.35-2.8-1.1-.5-4.5-2.5-.8-.45-1.5-.8-.1-.05-.25-.1-5.1-1.65-6.15-1.65-5.7 0-11.5 2.15-.8.3-1.5.6M55.8 181.7h.2q.05.3-.05.9-.15.95-1.6 2.45-1.35 1.35-3.85 3.15-2.75 1.95-6.6 4.4l-.1-.2q4.75-3.4 7.15-5.15 2.9-2.15 4.1-3.9.6-.85.75-1.65m-13.05 15.4q3.7-.35 7.75-2.3.3-.15.55-.3 3.3-1.7 4.95-3.3-1.2 1.8-4.25 3.45-.7.4-1.45.7-3.05 1.35-6.9 1.85l-.65-.1m-31 14.4l.05-.35q1.3.45 5.7-1.15 3.35-1.15 6.1-2.5-1.45.75-5 2.75-3.15 1.6-4.95 1.55l-1.9-.3z"/><path d="M75.75 148.1q0-.05.05-.05 11.25-22.95 11.9-28.3.05-.4.05-.65-.15-.65-.15-.95-3.05 5.1-6.4 13.5-1.85 4.65-5.45 13.8-1.1 2.55-7.7 13.45Q62 169.45 62 173.3q0 .5.1.6.05.05.5.1 2.2-4.25 4.35-8.35 4.6-9 8.8-17.55m152.95 42.3q.2.3.35 1.1.15.8.45 1.1.35 0 .4-.15-.1-1-.3-1.45-.15-.4-.65-1.2-1.5-.4-2.45-.6-1.75-.45-1.8-.35-3.65-.45-4.35-.65.4.3 2.9.8 1.6.35 2.95.7t2.5.7m-58.75-56.3h10.75q28.7-3.4 53.45-8.2 25.05-5.3 37-7.65-6.8 7.7-20.55 30.15-5.95 9.75-9.2 15.45-1.3 2.25-2.15 3.9v.05q-1.7 3.2-1.7 3.9 0 .7.3 1.1-.15-.05-.25-.1-.95-.25-1.3-.2-.1 0-.15.05-.15.05-.15.2 0 .2.55.3.3.05 1.15.2.3.05 1.65.7.7.3.7 1.95v.35q-.05 1.25-.25 1.45-.4.3-1.35.65-.3.15-.45.35-1.3-.5-4.55-1.45h-.05q-.25.05-.55.1.05.2.3.4.05.05.15.1l3.95 1q.05 0 .15.05.35.15.5.55 0 .65-.05.8-.05.3-.4 1.65-.15.65-.95 1.15-.1.05-.25.1-.45.2-1.45.5-.35.1-.55.2-.15-.1-.35-.05.05.2.15.35-2.3-.9-3.9-1.35-1.9-.6-2.9-.5-2.4.15-3.25-.15l-.05.25 1.35.55 1.75.05q.95.05 2.75.4 1.65.35 4.1 1 .1.05.25.05.2.75.2.95-.05.35-.15.75v.1q-.25.6-.85 1.45-1.35 1.95-1.5 2.25-.1-.05-.15-.3-.05-.2-.2-.2-.2 0-.2.1v.25q0 .4.3 1.3 0 .55-1.4 2.55-1.3 1.9-1.75 2.25-1.3.9-3.4 1.9-1.7.65-2.7 1.05 1-2.05 1.75-3.65l-.25-.7-.2-.1q-.35-.1-.75-.1h-1l-.1-.1q-.1.05-.1.75 0 .2-6.95 14.5-7.55 15.5-9.6 21.85-.85 2.6-6.7 17.2-4.45 11.8-5.25 17.55-.35.15-.5.5-.85 1.55-.85 1.6-.05.05-.05.1-1.9 2.15-9.6 2.15h-.35q-35.35 0-58.2-3.2-33.15-4.6-55.55-6.05H48.55v.25l-4.5.15q1.2-9.45 4.75-30 3.25-18.9 3.25-19.75 0-.45-.15-.8 3.05-.6 4.95-1.5.9-.45 3.2-2 .4-.3 2.95-2.8 2.1-2.1 2.6-2.1.3 0 1.3.6 1.05.45 2.5.55h.6q-.05 0-.4-.1h.25q.45 0 .85-.05.65 0 1.45.05l.75-.15 1.65-1.55q.35-.6.35-2.2 0-.65-.25-1.35h.65q1 0 1.7-2 .5-1.5.5-2.35 0-.85-.05-1.3h.05q1.55 0 2.4-1.65l.25-.5q.35-.85.35-1.45 0-3.8-3-5.7-2.9-1.8-8.5-1.9h-.1q.4-.05.85-.15 2.25-.4 3.5-.4.8 0 4 1.35 3.2 1.3 4.4 1.3 1.3 0 2.25-1.05.75-.85.75-1.4 0-.5-.85-1.7-.3-.45-.75-.95-.2-.25-.35-.45-1.15-1.3-1.75-1.75-1.2-.9-4.5-1.8-.4-.1-.7-.15-3.75-.9-5.85-1.4h-3.15q-1.7.4-3.35.85-2.1.55-4.1 1.2-.5.15-2.6 1.35-.6.35-.8.85-.25.65-.3.7-1.3 1.35-3.45 3.15l-3.6 3q-1.45 1.2-3.45 3.25-2.15 2.15-3 2.9-.75.65-3.85 3-2.15 1.8-2.6 2.8v.05l-.05-.05q-1.2-2.15-8.55-3.85-9.6-2.15-16.9.65-5.4 2.05-9.4 4.55-2.45 1.55-3.7 2.95-.15.1-.25.25-.55.65-.8 1.25-.85.95-.95 4.2-.05 1.85.15 3.8 0 2 .75 13 0 5.3 2.3 8.45 1.65 2.25 4.3 3.1 1.55.5 3.5.5 1.15 0 2.55-.15 3.4-.5 8.45-2.1 1.75-.55 3.65-1.25.3-.1.65-.2 9-3.35 12.55-6.2 2.35-1.85 6.7-6.6 4.9-5.45 5.3-7.45h.05l.4.2h4.75q-.1.1-.15.25-1.55 3.45-2.7 10.55-.7 4.6-1.85 13.55-.4 3.9-2.25 14.9-1.8 10.4-1.8 10.65v.75q.05.25.2.4v.25q0 .65.2.65.3-.1.55 0h4.8l.55-.2H68q22.6 1.65 54.8 6.05 21.8 3 48.35 3 18.3 0 21-.95h.1q.9 0 1.55-.85.25-.3.4-.5 1.85-3.45 3.45-9.2 2-7.35 2.75-9.25 2.5-6.2 3.7-9.25 2-5.3 2.75-9.35.4-2.15 1.25-4.6 1.25-3.95 3.45-8.65 1.2-2.6 2.65-5.35 4.85-8.6 7.7-14.3 2.15-.4 5.8-2.7 1.3-.7 2.15-1.8.5-.6 1.25-1.85.55-.8.95-1.8-.1-.8.05-1.1.05-.25.55-.9.3-.55 1.3-1.95.8-1.3.8-2.15 0-.95-.2-1.35 1.7-.2 2.85-1.45 1.2-1.3 1.2-3.1 0-.45-.15-.5-.05-.1-.1-.15.2-.1 1-.55l.2-.1q.4-.2.6-.4.2-.25.25-.5l.1-2q0-.8-.05-1-.15-.55-.85-.8-.3-.25-.9-.5 3.3-4.8 8.25-13.85 7-12.7 7.8-14.1 3.9-6.6 12.75-18.15 7.75-10.1 7.75-10.3 0-.65-.1-.7-.1 0-.1-.1-12.85 2.35-38.75 8-26.1 5.2-55.35 8.3h-28.4q-.35-.1-8.2-.3-3.9-.1-7.75-.15-14.6-2.7-28.4-6.8-11.1-3.25-15.75-5.45h-3.5q-.35.1-.8.2-.25.15-.25.85 0 1.15.3.65 3.35.6 19.05 5.35 15.45 4.65 29.55 7.15l15.1.25.5.2h17.55M3.65 196.45q1.65-.95 3.7-1.8.7-.3 1.5-.6 5.8-2.15 11.5-2.15 1.05 0 6.15 1.65.15.05.25.1 5.65 1.8 6.5 3.1l-.5.2q-3.6 1.4-9.35 2.8-6.9 1.6-10 2.4l-1 .3q-.35-.15-.8-.3-1.35-.35-2.65-.2H8l.05.45q1.6.35 2.65.55-6.8 2.15-7.9 5.05-.2.45-.25.95v.25q0 .2.6.7.3-.25.65-.7.2-.3.4-.65.15-.35.35-.8.65-1.5 2-2.15 2.25-1.05 4.4-1.7 1.35-.45 5-1.55 5.45-1.15 10.3-2.3 9.45-2.2 9.6-3.1H36q1.85-2.3 2.7-2.95 2.7-1.95 4-3 1.2-1 3-2.9 1.95-2 3.3-3.2.85-.8 3.65-3 2.3-1.8 3.45-3 .8-1 1.35-1.55 1-1.05 2.2-1.45 3-1.1 3.2-1.15.85-.25 3.9-.8h3.05q2.25.55 6.05 1.3 3 .7 4.4 1.65.6.45 1.95 1.95 1.65 1.75 1.65 2.35 0 .3-.6.9-.75.7-1.65.7-.95 0-4.05-1.2-3.05-1.2-4.2-1.2-.85 0-2.6.35-1.65.25-4.05.85h-.2q-.2.05-.25.1h-.1v.1l.05.25q8 .35 11.2 2.75 2.2 1.6 2.2 4.35 0 .05-.4 1.35-.65 1.3-1.7 1.3-.65-.15-.8-.15-.1-.25-.3-.5l-.3-.4q-.75-.65-1.1-1.05l-11.95-2.1-.3-.05.05-.15.1-.75q0-.05.05-.1v-.7q-.05-.2-.05-.35-.15-.55-.45-1-.15-.2-.3-.35-.45-.5-1.2-.8-.45-.2-1-.35-.1-.05-.15-.05.65.5 1.4 1.45.05.1.15.2 1.05 1.35.95 2v.1q-.05.15-.1.25-.1.1-.25.15-.35.1-.4.45-.1.75.5.5l.05-.05q.15.1.2.1l12.1 2.2q.75 1.1 1.95 1.75v.15q0 .15.15.3.05.5.25 1.55 0 .05-.3 1.85-.55 1.8-1.7 1.8-.15 0-.45-.05-.4-.65-.45.15v.2q0 .3.2.75.15.4.15 1.1 0 .05-.15 1.15-.05.15-.1.4-.15.3-.35.5-.95 1-3.15 1-1.95 0-3.35-.5-1-.55-1.3-.55-.1 0-.6.4-.85.6-2.65 2.15-1 .8-2.35 1.95-2.4 2-4.55 3.05-1.3.6-2.7.95-.7.15-1.35.2l-.15-.15q-.05.05-.05.15-.2-.05-.4-.05l-4.6.05q-.3-.05-.5-.05v-.25q-.25-.15-.45-.15-.45 0-3.85 4.95-2.15 3.05-4.2 5.35l-.1.15q-1.2 1.3-2.35 2.35-.6.55-1.2 1-3.55 2.75-13.45 6.4-9.6 3.55-12.9 3.55-5 0-7.25-2-2.95-2.7-3.1-10.05 0-1.75-.4-7.2l-.4-5.5q.35-5.7.35-6.2 2.1-2.75 2.45-3.1l.3-.3q1.95-2.05 4.3-3.05m55.15-3.9l-.05.25q.2.1 2.05.6.1.05.2.05l.05.05.35.05.85.25.8.2.85 2q.15-.05.25-.3 1.1.25 2.1.5 1.45.35 2.55.7l4.2.65q.1.4.25-.35.05-.45 0-.5l-.1-.05-8.75-1.75q-.05 0-.05-.05v-.65l-.25-.05q-.05.05-.05.1-.35-.65-.65-.85-.1-.05-.15-.1-.7-.1-1.35-.25l-.35-.05-2.75-.45M19.85 225.6q-5.3 3.8-6.6 5.55 4.2-2.4 12.15-9.3-2.7 1.75-5.55 3.75m30.65-30.8q-4.05 1.95-7.75 2.3l.65.1q3.85-.5 6.9-1.85.75-.3 1.45-.7Q54.8 193 56 191.2q-1.65 1.6-4.95 3.3-.25.15-.55.3m5.5-13.1h-.2q-.15.8-.75 1.65-1.2 1.75-4.1 3.9-2.4 1.75-7.15 5.15l.1.2q3.85-2.45 6.6-4.4 2.5-1.8 3.85-3.15 1.45-1.5 1.6-2.45.1-.6.05-.9z"/><path fill="#795F49" d="M.7 205.95q-.15.6-.15 1 0 1.45 2 2 .05-.5.25-.95l-.2-.1q-.9-.6-1.9-1.95m19.65.2q1.9-1.1 6.75-5.45-5.5 4.3-7.5 5.25-5.55 2.7-14.45 2.7-.5 0-.95-.1-.2.35-.4.65 1.4.2 3.5.2 7.55 0 13.05-3.25m43.2-24.95h-.15q-.5-.1-1.1-.2h-.05l-.75-.05-.7-.1q-.1.5 1.4.75l3.6.55.35-.25q-.2-.25-2.6-.7M11.8 211.15l-.05.35 1.9.3q1.8.05 4.95-1.55 3.55-2 5-2.75-2.75 1.35-6.1 2.5-4.4 1.6-5.7 1.15z"/><path fill="#FFF" d="M180.7 134.1h-28.3l-.5-.2-15.1-.25q-14.1-2.5-29.55-7.15-15.7-4.75-19.05-5.35-.3.5-.3-.65 0-.7.25-.85.45-.1.8-.2h1.3l-2-.7q-.25.4-.55 1-.65 5.35-11.9 28.3 2.2-.9 5.1-.9 4.05 0 4.35 2.7.2 1.65-.45 6.35 0 6.5 8.2 14.9 8 8.15 21.25 15.55 7.7 4.35 23.1 15.5 13.55 9 22.05 9 9.6 0 22.45-7.8 7-4.25 23.75-17.15 15.7-12.2 24.6-17.2 5.85-3.3 11.2-5.15 3.25-5.7 9.2-15.45 13.75-22.45 20.55-30.15-11.95 2.35-37 7.65-24.75 4.8-53.45 8.2z"/></g></defs><g transform="matrix(1.2901 0 0 1.2901 12.9 2.6)"><mask id="sis01_00_5_1d"><use xlink:href="#sis01_00_5_1c"/></mask><g mask="url(#sis01_00_5_1d)"><use xlink:href="#sis01_00_5_1e"/><use xlink:href="#sis01_00_5_1f"/><use xlink:href="#sis01_00_5_1g"/><use xlink:href="#sis01_00_5_1h"/></g></g></svg>