<svg xmlns="http://www.w3.org/2000/svg" xmlns:xlink="http://www.w3.org/1999/xlink" preserveAspectRatio="none" width="1016" height="659" viewBox="0 0 1016 659"><defs><path fill="#033E3B" fill-opacity="0" d="M1016 659V0H0v659h1016z" id="wbtsis_6_0a"/><path fill="#B7A893" d="M880 585.85v-466.2H137.8v466.2H880z" id="wbtsis_6_0b"/><g id="wbtsis_6_0c"><path fill="#F4F4F4" d="M877.2 582.05v-466.2H135v466.2h742.2m-11.9-456.6V572.7H145.8V125.45h719.5z"/><path fill="#E6DFD9" d="M865.3 572.7V125.45H145.8V572.7h719.5z"/></g><g id="wbtsis_6_0d"><path fill="#B7B0AB" d="M181.3 194.85q-1.5-1.1-1.8-3.4-4.75.9-8.75-2.25-.45 0-.9-.05 5.05 6.6 11.45 5.7m257.7-1.6V153.5q0-3.95-2.5-5.2.15.85.15 1.9v39.75q0 5.85-5.55 5.85H184.9q-1.8 0-3-.6.8 3.9 5.35 3.9h246.2q5.55 0 5.55-5.85z"/><path fill="#FFF" d="M436.5 148.3q-.45-2-1.9-3H181.4q-2 1.35-2 4.9v30.15q-3.05 6.05-11.9 5.55 1.55 1.95 3.25 3.3 4 3.15 8.75 2.25.3 2.3 1.8 3.4.25.15.6.35 1.2.6 3 .6h246.2q5.55 0 5.55-5.85V150.2q0-1.05-.15-1.9z"/></g><g id="wbtsis_6_0f"><path fill="#B7B0AB" d="M817.15 486.65q-2.4 1.05-6.05 1.05H182.8q-11 0-11-10.6V229.25q0-1.9.45-3.45-5.1 2.25-5.1 9.4v247.85q0 10.55 11.05 10.55h628.25q9.05 0 10.7-6.95m1.15-.65q12.8 1.6 22.8-10.4-.9 0-1.65.1-8.05 5.75-17.55 4.15-.65 4.15-3.6 6.15z"/><path fill="#FFF" d="M822.15 229.25q0-10.6-11.05-10.6H182.8q-9 0-10.55 7.15-.45 1.55-.45 3.45V477.1q0 10.6 11 10.6h628.3q3.65 0 6.05-1.05.6-.35 1.15-.65 2.95-2 3.6-6.15 9.5 1.6 17.55-4.15 3.3-2.45 6.3-6-17.55.85-23.6-10.1V229.25z"/></g><path fill="#033E3B" fill-opacity=".2" d="M232.5 151.5V0H0v151.5h232.5z" id="wbtsis_6_0g"/><path fill-opacity=".004" d="M66 0H0v56h66V0z" id="wbtsis_6_0i"/><path fill="#0C8695" d="M45.2 20.25l-4.05-4.05-6.7 6.7-6.65-6.65-4.05 4.05 6.65 6.65-6.65 6.65 4.05 4.05L34.45 31l6.7 6.7 4.05-4.05-6.7-6.7 6.7-6.7z" id="wbtsis_6_0j"/><path fill="#0C8695" d="M107 38V0H0v38h107z" id="wbtsis_6_0k"/></defs><use xlink:href="#wbtsis_6_0a"/><use xlink:href="#wbtsis_6_0b"/><use xlink:href="#wbtsis_6_0c"/><use xlink:href="#wbtsis_6_0d"/><g transform="matrix(.99832 0 0 .99754 213.95 159.75)"><clipPath id="wbtsis_6_0e"><path fill="#FFF" d="M-2-2h192.8v24.9H-2z"/></clipPath><text clip-path="url(#wbtsis_6_0e)" writing-mode="lr"><tspan x="0" y="16.9" baseline-shift="0%" font-family="Trebuchet_MS_Regular" font-size="18" fill="#033E3B">Digite sua dúvida aqui:</tspan></text></g><use xlink:href="#wbtsis_6_0f"/><g id="mensagem"><use xlink:href="#wbtsis_6_0g" transform="matrix(.99832 0 0 .99754 196 239.1) matrix(2.58795 0 0 1.49005 0 0)"/><g transform="matrix(.99832 0 0 .99754 196 239.1) matrix(1 0 0 1 2 2)"><clipPath id="wbtsis_6_0h"><path fill="#FFF" d="M-2-2h263.45v24.9H-2z"/></clipPath><text clip-path="url(#wbtsis_6_0h)" writing-mode="lr"><tspan x="0" y="16.9" baseline-shift="0%" font-family="Trebuchet_MS_Regular" font-size="18" fill="#033E3B">AAAAAAAAAA</tspan></text></g></g><g id="fechar"><use xlink:href="#wbtsis_6_0i" transform="matrix(.99832 0 0 .99754 798.95 138.95)"/><use xlink:href="#wbtsis_6_0j" transform="matrix(.99832 0 0 .99754 798.95 138.95)"/></g><g id="enviar"><use xlink:href="#wbtsis_6_0k" transform="matrix(.99832 0 0 .99754 454.05 514.8)"/><g transform="matrix(.99832 0 0 .99754 454.05 514.8) matrix(1 0 0 1 20.7 6.25)"><clipPath id="wbtsis_6_0l"><path fill="#FFF" d="M-2-2h69.65v29.55H-2z"/></clipPath><text clip-path="url(#wbtsis_6_0l)" writing-mode="lr"><tspan x="0" y="20.65" baseline-shift="0%" font-family="Trebuchet_MS_Bold" font-weight="bold" font-size="22" fill="#FFF">Enviar</tspan></text></g></g></svg>