<svg xmlns="http://www.w3.org/2000/svg" xmlns:xlink="http://www.w3.org/1999/xlink" preserveAspectRatio="none" width="1016" height="60" viewBox="0 0 1016 60"><defs><linearGradient id="biblioteca_4_0a" gradientUnits="userSpaceOnUse" x1="508" y1="23.3" x2="508" y2="46"><stop offset=".392%" stop-color="#6F6F6F"/><stop offset="100%" stop-color="#8F8F8F"/></linearGradient><g id="biblioteca_4_0b"><path fill="url(#biblioteca_4_0a)" d="M1016 59.65v-42.4H0v42.4h1016z"/><path fill="#361A15" d="M1016 17.25v-7.6H0v7.6h1016z"/></g><g id="biblioteca_4_0c"><path fill="#C72F3B" d="M843.85 59.65V44.1H750.1v15.55h93.75m97.8 0V44.1H847.9v15.55h93.75M1016 36.7v-34h-13.75v34H1016z"/><path fill="#E83644" d="M843.85 44.1v-1.75H750.1v1.75h93.75m97.8 0v-1.75H847.9v1.75h93.75M1016 2.7V.95h-13.75V2.7H1016m0 41.4v-1.75h-70.3v1.75h70.3z"/><path fill="#EABE9B" d="M847.9 44.1v-1.75h-4.05v17.3h4.05V44.1m93.75-1.75v17.3h4.05v-17.3h-4.05m74.35 0V38.3h-13.75v4.05H1016z"/><path fill="#CF583A" d="M1016 59.65V44.1h-70.3v15.55h70.3z"/><path fill="#992B21" d="M1016 38.3v-1.6h-13.75v1.6H1016z"/></g><g id="biblioteca_4_0d"><path fill="#CF583A" d="M68.4 58.7V43.15H0V58.7h68.4z"/><path fill="#992B21" d="M11.85 37.35v-1.6H0v1.6h11.85z"/><path fill="#EABE9B" d="M0 41.4h11.85v-4.05H0v4.05m72.45 0H68.4v17.3h4.05V41.4m97.8 0h-4.05v17.3h4.05V41.4z"/><path fill="#C72F3B" d="M11.85 1.75H0v34h11.85v-34M166.2 58.7V43.15H72.45V58.7h93.75z"/><path fill="#E83644" d="M0 1.75h11.85V0H0v1.75m68.4 41.4V41.4H0v1.75h68.4m97.8 0V41.4H72.45v1.75h93.75m97.8 0V41.4h-93.75v1.75H264z"/><path fill="#9D0B0E" d="M264 58.7V43.15h-93.75V58.7H264z"/></g><g id="biblioteca_4_0e"><path fill="#C72F3B" d="M206.6 35.75v-34h-93.75v34h93.75z"/><path fill="#992B21" d="M206.6 37.35v-1.6h-93.75v1.6h93.75z"/><path fill="#E83644" d="M206.6 1.75V0h-93.75v1.75h93.75z"/><path fill="#EABE9B" d="M206.6 41.4v-4.05h-93.75V0h-4.05v37.35h.05v4.05h97.75z"/></g><g id="biblioteca_4_0f"><path fill="#CF583A" d="M93.75 35.75v-34H0v34h93.75z"/><path fill="#992B21" d="M93.75 37.35v-1.6H0v1.6h93.75z"/><path fill="#E83644" d="M93.75 1.75V0H0v1.75h93.75z"/><path fill="#EABE9B" d="M97.75 41.4v-4.05h.05V0h-4.05v37.35H0v4.05h97.75z"/></g><g id="biblioteca_4_0g"><path fill="#C72F3B" d="M93.75 35.75v-34H0v34h93.75z"/><path fill="#992B21" d="M93.75 37.35v-1.6H0v1.6h93.75z"/><path fill="#E83644" d="M93.75 1.75V0H0v1.75h93.75z"/><path fill="#EABE9B" d="M97.8 0h-4.05v37.35H0v4.05h97.75v-4.05h.05V0z"/></g><path fill="#FFF" d="M45.3 16.3v2.6h7.8v3.35l8.2-4.75-8.2-4.65v3.45h-7.8m3.1 4.7h-1.55v4.5h-10.4V9.35h10.4v4.55h1.55V7.7H34.8v19.4h13.6V21z" id="biblioteca_4_0h"/><path fill="#FFF" d="M42.35 29.7V12.25l-7.2-3.55v17.5l7.2 3.5z" id="biblioteca_4_0i"/><g id="biblioteca_4_0j"><path fill="#E83644" d="M97.8 1.75V0H4.05v1.75H97.8z"/><path fill="#992B21" d="M97.8 37.35v-1.6H4.05v1.6H97.8z"/><path fill="#CF583A" d="M97.8 35.75v-34H4.05v34H97.8z"/><path fill="#EABE9B" d="M97.8 41.4v-4.05H4.05V0H0v37.35h.05v4.05H97.8z"/></g><path fill="#FFF" d="M62 19.25l1.8-2.4-4.3-3.4v-5.5h-3.1v3.2l-4.55-3.5-12 9.2 1.9 2.4 1.35-.95v11.35h17.55V18.3l1.35.95m-10.15-7.5l7.1 5.45v10.7h-4v-6.55h-6.2v6.55H44.8V17.2l7.05-5.45z" id="biblioteca_4_0k"/></defs><use xlink:href="#biblioteca_4_0b"/><use xlink:href="#biblioteca_4_0c"/><use xlink:href="#biblioteca_4_0d"/><use xlink:href="#biblioteca_4_0e"/><use xlink:href="#biblioteca_4_0f" transform="matrix(1 0 0 1 808.65 .95)"/><g id="btnSair"><use xlink:href="#biblioteca_4_0g" transform="matrix(1 0 0 1 905.45 .95)"/><use xlink:href="#biblioteca_4_0h" transform="matrix(1 0 0 1 905.45 .95)"/><use xlink:href="#biblioteca_4_0i" transform="matrix(1 0 0 1 905.45 .95)"/></g><g id="btnMenu"><use xlink:href="#biblioteca_4_0j" transform="matrix(1 0 0 1 11.8 0)"/><use xlink:href="#biblioteca_4_0k" transform="matrix(1 0 0 1 11.8 0)"/></g></svg>