<svg xmlns="http://www.w3.org/2000/svg" xmlns:xlink="http://www.w3.org/1999/xlink" preserveAspectRatio="none" width="1016" height="60" viewBox="0 0 1016 60"><defs><linearGradient id="biblioteca_3_0a" gradientUnits="userSpaceOnUse" x1="508" y1="23.3" x2="508" y2="46"><stop offset=".392%" stop-color="#6F6F6F"/><stop offset="100%" stop-color="#8F8F8F"/></linearGradient><g id="biblioteca_3_0b"><path fill="url(#biblioteca_3_0a)" d="M1016 59.65v-42.4H0v42.4h1016z"/><path fill="#361A15" d="M1016 17.25v-7.6H0v7.6h1016z"/></g><g id="biblioteca_3_0c"><path fill="#C72F3B" d="M843.85 59.65V44.1H750.1v15.55h93.75m97.8 0V44.1H847.9v15.55h93.75M1016 36.7v-34h-13.75v34H1016z"/><path fill="#E83644" d="M843.85 44.1v-1.75H750.1v1.75h93.75m97.8 0v-1.75H847.9v1.75h93.75M1016 2.7V.95h-13.75V2.7H1016m0 41.4v-1.75h-70.3v1.75h70.3z"/><path fill="#EABE9B" d="M847.9 42.35h-4.05v17.3h4.05v-17.3m97.8 0h-4.05v17.3h4.05v-17.3m70.3 0V38.3h-13.75v4.05H1016z"/><path fill="#CF583A" d="M1016 59.65V44.1h-70.3v15.55h70.3z"/><path fill="#992B21" d="M1016 38.3v-1.6h-13.75v1.6H1016z"/></g><g id="biblioteca_3_0d"><path fill="#CF583A" d="M68.4 58.7V43.15H0V58.7h68.4z"/><path fill="#992B21" d="M11.85 37.35v-1.6H0v1.6h11.85z"/><path fill="#EABE9B" d="M0 41.4h11.85v-4.05H0v4.05m72.45 0H68.4v17.3h4.05V41.4m97.8 0h-4.05v17.3h4.05V41.4z"/><path fill="#C72F3B" d="M11.85 1.75H0v34h11.85v-34M166.2 58.7V43.15H72.45V58.7h93.75z"/><path fill="#E83644" d="M0 1.75h11.85V0H0v1.75m68.4 41.4V41.4H0v1.75h68.4m97.8 0V41.4H72.45v1.75h93.75m97.8 0V41.4h-93.75v1.75H264z"/><path fill="#9D0B0E" d="M264 58.7V43.15h-93.75V58.7H264z"/></g><g id="biblioteca_3_0e"><path fill="#CF583A" d="M93.75 35.75v-34H0v34h93.75z"/><path fill="#992B21" d="M93.75 37.35v-1.6H0v1.6h93.75z"/><path fill="#E83644" d="M93.75 1.75V0H0v1.75h93.75z"/><path fill="#EABE9B" d="M97.75 41.4v-4.05h.05V0h-4.05v37.35H0v4.05h97.75z"/></g><g id="biblioteca_3_0f"><path fill="#C72F3B" d="M93.75 35.75v-34H0v34h93.75z"/><path fill="#992B21" d="M93.75 37.35v-1.6H0v1.6h93.75z"/><path fill="#E83644" d="M93.75 1.75V0H0v1.75h93.75z"/><path fill="#EABE9B" d="M97.8 0h-4.05v37.35H0v4.05h97.75v-4.05h.05V0z"/></g><path fill="#FFF" d="M45.3 16.3v2.6h7.8v3.35l8.2-4.75-8.2-4.65v3.45h-7.8m3.1 4.7h-1.55v4.5h-10.4V9.35h10.4v4.55h1.55V7.7H34.8v19.4h13.6V21z" id="biblioteca_3_0g"/><path fill="#FFF" d="M42.35 29.7V12.25l-7.2-3.55v17.5l7.2 3.5z" id="biblioteca_3_0h"/><g id="biblioteca_3_0i"><path fill="#CF583A" d="M97.8 35.75v-34H4.05v34H97.8z"/><path fill="#992B21" d="M97.8 37.35v-1.6H4.05v1.6H97.8z"/><path fill="#E83644" d="M97.8 1.75V0H4.05v1.75H97.8z"/><path fill="#EABE9B" d="M97.8 41.4v-4.05H4.05V0H0v37.35h.05v4.05H97.8z"/></g><path fill="#FFF" d="M46.5 26.55v2.05h16.3v-2.05H46.5m-2.1 2.05v-2.05h-3.6v2.05h3.6m-3.6-8.8h3.6v-2h-3.6v2m3.6-8.75V9h-3.6v2.05h3.6m18.4 8.75v-2H46.5v2h16.3m0-8.75V9H46.5v2.05h16.3z" id="biblioteca_3_0j"/><g id="biblioteca_3_0k"><path fill="#E83644" d="M97.8 1.75V0H4.05v1.75H97.8z"/><path fill="#992B21" d="M97.8 37.35v-1.6H4.05v1.6H97.8z"/><path fill="#C72F3B" d="M97.8 35.75v-34H4.05v34H97.8z"/><path fill="#EABE9B" d="M97.8 41.4v-4.05H4.05V0H0v37.35h.05v4.05H97.8z"/></g><path fill="#FFF" d="M59.7 11.6q-1.6-1.6-3.65-2.45-2-.8-4.15-.8-2.1 0-4.1.8-2.1.85-3.65 2.45-3.25 3.2-3.25 7.75t3.25 7.75q1.55 1.6 3.65 2.4 1.9.85 4.1.85 2.15 0 4.15-.85 2.05-.8 3.65-2.4 3.2-3.2 3.2-7.75t-3.2-7.75m-7.8-1.55q1.85 0 3.6.7 1.7.75 2.95 2 1.35 1.35 2.05 3 .7 1.7.7 3.6 0 1.85-.7 3.55-.7 1.65-2.05 3-1.25 1.35-2.95 2-1.75.75-3.6.75t-3.5-.75q-1.7-.65-3.1-2-2.65-2.7-2.65-6.55 0-3.85 2.65-6.6 1.4-1.25 3.1-2 1.65-.7 3.5-.7m1.5 7.9h-2.95v7.2h2.95v-7.2m-1.5-4.45q-.65 0-1.15.5-.5.4-.5 1.1 0 .65.5 1.15.5.5 1.15.5.7 0 1.1-.5.5-.5.5-1.15 0-.7-.5-1.1-.4-.5-1.1-.5z" id="biblioteca_3_0l"/></defs><use xlink:href="#biblioteca_3_0b"/><use xlink:href="#biblioteca_3_0c"/><use xlink:href="#biblioteca_3_0d"/><use xlink:href="#biblioteca_3_0e" transform="matrix(1 0 0 1 808.65 .95)"/><g id="btnSair"><use xlink:href="#biblioteca_3_0f" transform="matrix(1 0 0 1 905.45 .95)"/><use xlink:href="#biblioteca_3_0g" transform="matrix(1 0 0 1 905.45 .95)"/><use xlink:href="#biblioteca_3_0h" transform="matrix(1 0 0 1 905.45 .95)"/></g><g id="btnTopicos"><use xlink:href="#biblioteca_3_0i" transform="matrix(1 0 0 1 11.8 0)"/><use xlink:href="#biblioteca_3_0j" transform="matrix(1 0 0 1 11.8 0)"/></g><g id="btnInfo"><use xlink:href="#biblioteca_3_0k" transform="matrix(1 0 0 1 109.6 0)"/><use xlink:href="#biblioteca_3_0l" transform="matrix(1 0 0 1 109.6 0)"/></g></svg>