<svg xmlns="http://www.w3.org/2000/svg" xmlns:xlink="http://www.w3.org/1999/xlink" preserveAspectRatio="none" width="1016" height="60" viewBox="0 0 1016 60"><defs><linearGradient id="biblioteca_5_0a" gradientUnits="userSpaceOnUse" x1="508" y1="23.3" x2="508" y2="46"><stop offset=".392%" stop-color="#6F6F6F"/><stop offset="100%" stop-color="#8F8F8F"/></linearGradient><g id="biblioteca_5_0b"><path fill="url(#biblioteca_5_0a)" d="M1016 59.65v-42.4H0v42.4h1016z"/><path fill="#361A15" d="M1016 17.25v-7.6H0v7.6h1016z"/></g><g id="biblioteca_5_0c"><path fill="#C72F3B" d="M843.85 59.65V44.1H750.1v15.55h93.75m97.8 0V44.1H847.9v15.55h93.75M1016 36.7v-34h-13.75v34H1016z"/><path fill="#E83644" d="M843.85 44.1v-1.75H750.1v1.75h93.75m97.8 0v-1.75H847.9v1.75h93.75M1016 2.7V.95h-13.75V2.7H1016m0 41.4v-1.75h-70.3v1.75h70.3z"/><path fill="#EABE9B" d="M847.9 44.1v-1.75h-4.05v17.3h4.05V44.1m93.75-1.75v17.3h4.05v-17.3h-4.05m74.35 0V38.3h-13.75v4.05H1016z"/><path fill="#CF583A" d="M1016 59.65V44.1h-70.3v15.55h70.3z"/><path fill="#992B21" d="M1016 38.3v-1.6h-13.75v1.6H1016z"/></g><g id="biblioteca_5_0d"><path fill="#CF583A" d="M68.4 59.65v-15.8H0v15.8h68.4z"/><path fill="#992B21" d="M0 36.35v1.6h11.85v-1.6H0z"/><path fill="#EABE9B" d="M0 37.95v4.1h11.85v-4.1H0m72.45 4.1H68.4v17.6h4.05v-17.6m97.8 0h-4.05v17.6h4.05v-17.6z"/><path fill="#C72F3B" d="M11.85 1.8H0v34.55h11.85V1.8M166.2 59.65v-15.8H72.45v15.8h93.75z"/><path fill="#E83644" d="M0 1.8h11.85V0H0v1.8m68.4 42.05v-1.8H0v1.8h68.4m97.8 0v-1.8H72.45v1.8h93.75m97.8 0v-1.8h-93.75v1.8H264z"/><path fill="#9D0B0E" d="M264 59.65v-15.8h-93.75v15.8H264z"/></g><g id="biblioteca_5_0e"><path fill="#C72F3B" d="M97.8 35.75v-34H4.05v34H97.8z"/><path fill="#992B21" d="M97.8 37.35v-1.6H4.05v1.6H97.8z"/><path fill="#EABE9B" d="M97.8 41.4v-4.05H4.05V0H0v37.35h.05v4.05H97.8z"/><path fill="#E83644" d="M97.8 1.75V0H4.05v1.75H97.8z"/></g><path fill="#8C7B4C" fill-opacity="0" d="M54.15 6.9q0-6.9-9.55-6.9H9.5Q0 0 0 6.9v18.5q0 6.95 9.5 6.95h35.1q9.55 0 9.55-6.95V6.9z" id="biblioteca_5_0f"/><path fill="#FFF" d="M36.35 23.55q3.2-3.1 3.2-7.35 0-4.55-3.65-7.8t-8.85-3.25q-5.15 0-8.75 3.25-3.65 3.25-3.65 7.8t3.65 7.75q2.8 2.5 6.55 3.05 1.1.2 2.2.2 1.2 0 2.35-.2 2.9-.4 5.25-2.05 1.8 1.45 4.15 2.05.35.1.75.2l-.2-.2q-1.05-.9-2.1-2.25-.5-.6-.9-1.2M30.4 9.1q.6.7.95 1.6.3.85.3 1.8 0 1-.3 1.75-.3.8-.8 1.4-.5.6-1.2.95-.75.35-1.6.45l-.1 2.35q0 .2-.35.3-.35.15-.95.15-.4 0-.7-.05-.35 0-.4-.05-.2-.05-.3-.15-.05-.05-.05-.2l-.1-2.85q0-.35.05-.65.05-.25.2-.35.1-.15.25-.25h.7q.6 0 1.05-.25.5-.15.8-.5.25-.35.45-.8.15-.45.15-1 0-.6-.2-1.1-.15-.45-.5-.8-.35-.35-.8-.5-.5-.2-1.2-.2-.6 0-1.15.1-.4.15-.8.25-.25.1-.5.25-.2.1-.35.1h-.2q0-.1-.05-.25-.1-.1-.1-.35-.1-.25-.1-.7 0-.45.1-.6 0-.2.15-.3.1-.15.45-.35.35-.15.8-.25.5-.15 1.05-.25.6-.1 1.25-.1 1.4 0 2.4.35 1 .45 1.7 1.05M24.7 22q.1-.35.25-.55.25-.2.6-.3.3-.1.8-.1t.8.1q.35.1.55.3.2.2.25.55.1.35.1.85t-.1.85q-.05.3-.25.55-.2.15-.55.3-.3.05-.8.05t-.8-.05q-.35-.15-.6-.3-.15-.25-.25-.55-.1-.35-.1-.85t.1-.85z" id="biblioteca_5_0g"/><g id="biblioteca_5_0h"><path fill="#CF583A" d="M97.8 35.75v-34H4.05v34H97.8z"/><path fill="#992B21" d="M97.8 37.35v-1.6H4.05v1.6H97.8z"/><path fill="#E83644" d="M97.8 1.75V0H4.05v1.75H97.8z"/><path fill="#EABE9B" d="M97.8 41.4v-4.05H4.05V0H0v37.35h.05v4.05H97.8z"/></g><path fill="#FFF" d="M61.35 18.9l1.35.95 1.8-2.4-4.3-3.4v-5.5h-3.1v3.2l-4.55-3.5-12 9.2 1.9 2.4 1.35-.95v11.35h17.55V18.9M45.5 17.8l7.05-5.45 7.1 5.45v10.7h-4v-6.55h-6.2v6.55H45.5V17.8z" id="biblioteca_5_0i"/><path fill="#481779" fill-opacity="0" d="M432.85-.05H7.1Q.2-.05.2 6.85V25.3q0 6.95 6.9 6.95h425.75V-.05z" id="biblioteca_5_0j"/><path fill="#FFF" d="M297.05 4.8V0H0v4.8h297.05z" id="biblioteca_5_0m"/><g id="biblioteca_5_0n"><path fill="#CF583A" d="M93.75 35.75v-34H0v34h93.75z"/><path fill="#992B21" d="M93.75 37.35v-1.6H0v1.6h93.75z"/><path fill="#E83644" d="M93.75 1.75V0H0v1.75h93.75z"/><path fill="#EABE9B" d="M97.75 41.4v-4.05h.05V0h-4.05v37.35H0v4.05h97.75z"/></g><path fill="#FFF" d="M58.05 29.85V11.6L39.8 20.7l18.25 9.15z" id="biblioteca_5_0o"/><g id="biblioteca_5_0p"><path fill="#C72F3B" d="M93.75 35.75v-34H0v34h93.75z"/><path fill="#992B21" d="M93.75 37.35v-1.6H0v1.6h93.75z"/><path fill="#E83644" d="M93.75 1.75V0H0v1.75h93.75z"/><path fill="#EABE9B" d="M97.8 0h-4.05v37.35H0v4.05h97.75v-4.05h.05V0z"/></g><path fill="#FFF" d="M39.8 11.6v18.25l18.25-9.15-18.25-9.1z" id="biblioteca_5_0q"/><g id="biblioteca_5_0r"><path fill="#E83644" d="M97.8 1.75V0H4.05v1.75H97.8z"/><path fill="#992B21" d="M97.8 37.35v-1.6H4.05v1.6H97.8z"/><path fill="#CF583A" d="M97.8 35.75v-34H4.05v34H97.8z"/><path fill="#EABE9B" d="M97.8 41.4v-4.05H4.05V0H0v37.35h.05v4.05H97.8z"/></g><g id="biblioteca_5_0s"><path fill="#FFF" d="M47.25 25.2l3.05 2.4v-5.45l-3.05 3.05M57.7 14.75l-1.9 1.9q.55 1.35.55 2.85 0 1.35-.5 2.6-.45 1.2-1.3 1.95l1.35 2.2q1.4-1.1 2.2-2.9.85-1.8.85-3.85 0-2.7-1.25-4.75M44.35 22.9l.05.1 5.9-5.85v-5.8L44.35 16H39.6v6.9h4.75z"/><path fill="#F00" d="M60.3 10.4l-.8-.75-19.2 19.2.8.8L60.3 10.4z"/></g><path fill="#FFF" d="M56.6 19.55q0 1.3-.45 2.6-.5 1.2-1.25 1.9l1.3 2.2q1.4-1.05 2.15-2.85.9-1.75.9-3.85t-.9-3.9q-.9-1.75-2.2-2.85l-1.4 2.15q.85.7 1.4 1.95.45 1.25.45 2.65M41.1 23h4.7l5.95 4.6V11.5l-5.95 4.6h-4.7V23m23.25-3.45q0-3.75-1.5-6.8-1.6-2.95-3.95-4.25l-1.5 2.25q1.95.75 3.2 3.2 1.25 2.55 1.25 5.6 0 3-1.25 5.5-1.25 2.45-3.15 3.3l1.45 2.15q2.5-1.2 3.95-4.2 1.5-3.05 1.5-6.75z" id="biblioteca_5_0t"/></defs><use xlink:href="#biblioteca_5_0b"/><use xlink:href="#biblioteca_5_0c"/><use xlink:href="#biblioteca_5_0d"/><g id="btnChat"><use xlink:href="#biblioteca_5_0e" transform="matrix(1 0 0 1 109.25 .7)"/><use xlink:href="#biblioteca_5_0f" transform="matrix(1 0 0 1 109.25 .7) matrix(1 0 0 1 23.2 2.8)"/><use xlink:href="#biblioteca_5_0g" transform="matrix(1 0 0 1 109.25 .7) matrix(1 0 0 1 23.2 2.8)"/></g><g id="btnMenu"><use xlink:href="#biblioteca_5_0h" transform="matrix(1 0 0 1 11.8 .7)"/><use xlink:href="#biblioteca_5_0i" transform="matrix(1 0 0 1 11.8 .7)"/></g><g id="progresso" transform="matrix(1 0 0 1 309.05 23.15)"><use xlink:href="#biblioteca_5_0j"/><g id="progTela" transform="matrix(1 0 0 1 10 6.65)"><clipPath id="biblioteca_5_0k"><path fill="#FFF" d="M-2-2h78.15v20.25H-2z"/></clipPath><text clip-path="url(#biblioteca_5_0k)" writing-mode="lr"><tspan x="0" y="11.8" baseline-shift="0%" font-family="Trebuchet MS" font-size="12" fill="#FFF">Tela 999/999</tspan></text></g><g id="progPorcentagem" transform="matrix(1 0 0 1 392.1 6.65)"><clipPath id="biblioteca_5_0l"><path fill="#FFF" d="M-2-2h35.7v20.25H-2z"/></clipPath><text clip-path="url(#biblioteca_5_0l)" writing-mode="lr"><tspan x="0" y="13.15" baseline-shift="0%" font-family="Trebuchet MS" font-size="14" fill="#FFF">100%</tspan></text></g><use xlink:href="#biblioteca_5_0m" transform="matrix(1 0 0 1 90.1 13.75)" id="progBar"/></g><g id="btnVoltar"><use xlink:href="#biblioteca_5_0n" transform="matrix(1 0 0 1 806.65 .95)"/><use xlink:href="#biblioteca_5_0o" transform="matrix(1 0 0 1 806.65 .95)"/></g><g id="btnAvancar"><use xlink:href="#biblioteca_5_0p" transform="matrix(1 0 0 1 904.45 .95)"/><use xlink:href="#biblioteca_5_0q" transform="matrix(1 0 0 1 904.45 .95)"/></g><g id="btnSomInativo"><use xlink:href="#biblioteca_5_0r" transform="matrix(1 0 0 1 206.7 .8)"/><use xlink:href="#biblioteca_5_0s" transform="matrix(1 0 0 1 206.7 .8)"/></g><g id="btnSomAtivo"><use xlink:href="#biblioteca_5_0r" transform="matrix(1 0 0 1 206.7 .8)"/><use xlink:href="#biblioteca_5_0t" transform="matrix(1 0 0 1 206.7 .8)"/></g></svg>